#bild202_36117_211.obj

v 57.84643 -5.528878 -0.9680232
v 57.84642 12.40777 -0.9680085
v 57.84643 12.40775 9.83199
v 57.84643 -5.52889 9.831975
v 57.84644 -11.91718 9.83197
v 57.84643 -11.91717 -0.9680288
v 32.00855 -11.91719 9.831971
v 32.00855 -11.91718 -0.9680282
v 57.84644 -11.91718 9.83197
v 57.84643 -11.91717 -0.9680288
v -71.31577 12.40778 9.831993
v -71.31577 12.40779 -0.9680057
v -71.34329 -11.91719 9.831973
v -71.34329 -11.91718 -0.9680261
v -71.34329 -11.91719 9.831973
v -71.34329 -11.91718 -0.9680261
v -49.55 -11.91719 9.831972
v -49.55 -11.91718 -0.9680265
v 32.00993 -5.560598 9.831976
v 32.00993 -5.560587 -0.9680224
v 32.00855 -11.91719 9.831971
v 32.00855 -11.91718 -0.9680282
v -49.55 -11.91719 9.831972
v -49.55 -11.91718 -0.9680265
v -49.54428 -5.560474 9.831978
v -49.54428 -5.560462 -0.9680207
v -2.15372 -5.560597 -0.9680217
v 32.00993 -5.560587 -0.9680224
v 32.00993 -5.560598 9.831976
v -2.153719 -5.560608 9.831977
v -19.66315 -5.560496 -0.9680213
v -19.66315 -5.560507 9.831977
v -49.54428 -5.560474 9.831978
v -49.54428 -5.560462 -0.9680207
v -49.54428 -5.560451 -11.76802
v -19.66315 -5.560485 -11.76802
v -19.66315 -5.560496 -0.9680213
v -19.66315 -5.56048 -4.743416
v -2.15372 -5.560597 -0.9680217
v -2.153721 -5.560581 -4.743416
v -2.153721 -5.560581 -4.743416
v -2.145563 12.40778 -0.9680072
v -2.15372 -5.560597 -0.9680217
v -49.52791 12.40777 -0.9680062
v -49.52792 12.40778 -11.768
v -49.54428 -5.560462 -0.9680207
v -49.54428 -5.560451 -11.76802
v -19.66315 -5.560496 -0.9680213
v -19.66315 -5.560485 -11.76802
v -19.65089 12.40776 -0.9680068
v -19.65089 12.40778 -11.768

vn -0.01123047 0 0.9995117
vn -0.01123047 0 0.9995117
vn -0.01123047 0 0.9995117
vn -0.01123047 0 0.9995117
vn -0.01123047 0 0.9995117
vn -0.01123047 0 0.9995117
vn -0.9995117 7.092953E-06 -0.01123047
vn -0.9995117 7.092953E-06 -0.01123047
vn -0.9995117 7.092953E-06 -0.01123047
vn -0.9995117 7.092953E-06 -0.01123047
vn 0.01236725 0 -0.9995117
vn 0.01236725 0 -0.9995117
vn 0.01236725 0 -0.9995117
vn 0.01236725 0 -0.9995117
vn -0.9995117 7.092953E-06 -0.01123047
vn -0.9995117 7.092953E-06 -0.01123047
vn -0.9995117 7.092953E-06 -0.01123047
vn -0.9995117 7.092953E-06 -0.01123047
vn 0.01145172 0 -0.9995117
vn 0.01145172 0 -0.9995117
vn 0.01145172 0 -0.9995117
vn 0.01145172 0 -0.9995117
vn -0.01213837 0 0.9995117
vn -0.01213837 0 0.9995117
vn -0.01213837 0 0.9995117
vn -0.01213837 0 0.9995117
vn -0.9995117 7.092953E-06 -0.01123047
vn -0.9995117 7.092953E-06 -0.01123047
vn -0.9995117 7.092953E-06 -0.01123047
vn -0.9995117 7.092953E-06 -0.01123047
vn -0.9995117 7.092953E-06 -0.01123047
vn -0.9995117 7.092953E-06 -0.01123047
vn -0.9995117 7.092953E-06 -0.01123047
vn -0.9995117 7.092953E-06 -0.01123047
vn -0.9995117 7.092953E-06 -0.01123047
vn -0.9995117 7.092953E-06 -0.01123047
vn -0.9995117 7.092953E-06 -0.01123047
vn -0.9995117 7.092953E-06 -0.01123047
vn -0.9995117 7.092953E-06 -0.01123047
vn -0.9995117 7.092953E-06 -0.01123047
vn -0.01168823 0 0.9995117
vn -0.01168823 0 0.9995117
vn -0.01168823 0 0.9995117
vn 0.012146 0 -0.9995117
vn 0.012146 0 -0.9995117
vn 0.012146 0 -0.9995117
vn 0.012146 0 -0.9995117
vn -0.01191711 0 0.9995117
vn -0.01191711 0 0.9995117
vn -0.01191711 0 0.9995117
vn -0.01191711 0 0.9995117

vt 2.037109 0.8652344
vt 2.283203 0.8652344
vt 2.283203 0.9912109
vt 2.037109 0.9912109
vt 1.949219 0.9912109
vt 1.949219 0.8652344
vt 1.59375 0.9912109
vt 1.59375 0.8652344
vt 1.949219 0.9912109
vt 1.949219 0.8652344
vt -0.3347168 0.9912109
vt -0.3347168 0.8652344
vt -0.000644207 0.9912109
vt -0.000644207 0.8652344
vt -0.000644207 0.9912109
vt -0.000644207 0.8652344
vt 0.2988281 0.9912109
vt 0.2988281 0.8652344
vt 1.506836 0.9912109
vt 1.506836 0.8652344
vt 1.59375 0.9912109
vt 1.59375 0.8652344
vt 0.3061523 0.9912109
vt 0.3061523 0.8652344
vt 0.3935547 0.9912109
vt 0.3935547 0.8652344
vt 1.037109 0.8652344
vt 1.506836 0.8652344
vt 1.506836 0.9912109
vt 1.037109 0.9912109
vt 0.7963867 0.8652344
vt 0.7963867 0.9912109
vt 0.3859863 0.9912109
vt 0.3859863 0.8652344
vt 0.3859863 0.7387695
vt 0.7963867 0.7387695
vt 0.722168 0.7666016
vt 0.722168 0.737793
vt 0.9628906 0.7666016
vt 0.9628906 0.737793
vt 0.5131836 0.1101074
vt 0.5131836 0.2875977
vt 0.479248 0.1176147
vt 0.09533691 0.8652344
vt 0.09533691 0.7387695
vt 0.4042969 0.8652344
vt 0.4042969 0.7387695
vt 0.7944336 0.8652344
vt 0.7944336 0.7387695
vt 0.9980469 0.8652344
vt 0.9980469 0.7387695

g bild202_36117_211
usemtl bild202_36117_211
usemap bild202_36117_211
f 1/1/1 3/3/3 2/2/2
f 4/4/4 3/3/3 1/1/1
f 5/5/5 4/4/4 6/6/6
f 6/6/6 4/4/4 1/1/1
f 7/7/7 9/9/9 8/8/8
f 8/8/8 9/9/9 10/10/10
f 11/11/11 13/13/13 12/12/12
f 12/12/12 13/13/13 14/14/14
f 15/15/15 17/17/17 16/16/16
f 16/16/16 17/17/17 18/18/18
f 19/19/19 21/21/21 20/20/20
f 20/20/20 21/21/21 22/22/22
f 23/23/23 25/25/25 24/24/24
f 24/24/24 25/25/25 26/26/26
f 27/27/27 29/29/29 28/28/28
f 30/30/30 29/29/29 27/27/27
f 31/31/31 30/30/30 27/27/27
f 32/32/32 30/30/30 31/31/31
f 33/33/33 32/32/32 34/34/34
f 34/34/34 32/32/32 31/31/31
f 34/34/34 31/31/31 35/35/35
f 35/35/35 31/31/31 36/36/36
f 37/37/37 39/39/39 38/38/38
f 38/38/38 39/39/39 40/40/40
f 41/41/41 43/43/43 42/42/42
f 44/44/44 46/46/46 45/45/45
f 45/45/45 46/46/46 47/47/47
f 48/48/48 50/50/50 49/49/49
f 49/49/49 50/50/50 51/51/51
