#Building_big_1.003_33707_122.obj

v -10.70136 -12.32183 -4.123758
v -10.70131 -14.59476 -4.123758
v -10.70131 -14.59478 -0.4885316
v -10.70136 -12.32185 -0.4885315

vn 0.03326416 0 0.9990234
vn 0.03326416 0 0.9990234
vn 0.03326416 0 0.9990234
vn 0.03326416 0 0.9990234

vt 8.696318E-05 8.708239E-05
vt 0.7568359 8.696318E-05
vt 0.7568359 0.9995117
vt 8.696318E-05 0.9995117

g Building_big_1.003_33707_122
usemtl Building_big_1.003_33707_122
usemap Building_big_1.003_33707_122
f 1/1/1 3/3/3 2/2/2
f 1/1/1 4/4/4 3/3/3
