#Building_small_t1.008_33042_592.obj

v -1.039314 3.589623 -2.494338
v -1.039317 5.081434 -2.494336
v -0.9378126 3.589623 -2.494338
v -0.9378157 5.081435 -2.494336
v -1.039317 5.081434 -2.494336
v -1.039317 5.081429 -0.2240659
v -0.9378157 5.081435 -2.494336
v -0.9378159 5.081429 -0.2240658
v -1.039314 3.589679 -0.2240658
v -1.039314 3.589623 -2.494338
v -0.9378127 3.589679 -0.2240658
v -0.9378126 3.589623 -2.494338
v -1.039317 5.081429 -0.2240659
v -1.039314 3.589679 -0.2240658
v -0.9378159 5.081429 -0.2240658
v -0.9378127 3.589679 -0.2240658
v -0.9378127 3.589679 -0.2240658
v -0.9378126 3.589623 -2.494338
v -0.9378159 5.081429 -0.2240658
v -0.9378157 5.081435 -2.494336

vn 5.960464E-08 -0.9990234 0.03817749
vn 5.960464E-08 -0.9990234 0.03817749
vn 5.960464E-08 -0.9990234 0.03817749
vn 5.960464E-08 -0.9990234 0.03817749
vn -2.086163E-06 -0.03817749 -0.9990234
vn -2.086163E-06 -0.03817749 -0.9990234
vn -2.086163E-06 -0.03817749 -0.9990234
vn -2.086163E-06 -0.03817749 -0.9990234
vn 2.086163E-06 0.03817749 0.9990234
vn 2.086163E-06 0.03817749 0.9990234
vn 2.086163E-06 0.03817749 0.9990234
vn 2.086163E-06 0.03817749 0.9990234
vn -5.960464E-08 0.9990234 -0.03817749
vn -5.960464E-08 0.9990234 -0.03817749
vn -5.960464E-08 0.9990234 -0.03817749
vn -5.960464E-08 0.9990234 -0.03817749
vn -1 0 2.086163E-06
vn -1 0 2.086163E-06
vn -1 0 2.086163E-06
vn -1 0 2.086163E-06

vt 1 1
vt 0 1
vt 1 1
vt 0 1
vt 0 1
vt 0 0
vt 0 1
vt 0 0
vt 1 0
vt 1 1
vt 1 0
vt 1 1
vt 0 0
vt 1 0
vt 0 0
vt 1 0
vt 1 0
vt 1 1
vt 0 0
vt 0 1

g Building_small_t1.008_33042_592
usemtl Building_small_t1.008_33042_592
usemap Building_small_t1.008_33042_592
f 1/1/1 3/3/3 2/2/2
f 2/2/2 3/3/3 4/4/4
f 5/5/5 7/7/7 6/6/6
f 6/6/6 7/7/7 8/8/8
f 9/9/9 11/11/11 10/10/10
f 10/10/10 11/11/11 12/12/12
f 13/13/13 15/15/15 14/14/14
f 14/14/14 15/15/15 16/16/16
f 17/17/17 19/19/19 18/18/18
f 18/18/18 19/19/19 20/20/20
