#Building.029_37197_465.obj

v -0.9569255 0.1001261 -0.001042856
v -0.9569255 0.1001259 -1.481905
v -0.9569275 -1.066164 -1.481905
v -0.9569275 -1.066164 -0.001042701
v -0.9569454 6.147551 -0.001042231
v -0.9569454 6.14755 -1.481904
v -0.9569474 4.98129 -1.481905
v -0.9569474 4.981291 -0.001042553
v -4.045888 -2.158505 -0.001042555
v -4.045888 -2.158505 -1.481905
v -4.629018 -2.158504 -1.481905
v -4.629018 -2.158504 -0.001042555
v -3.462758 -2.158506 -0.001042555
v -3.462758 -2.158506 -1.481905
v -2.879628 -2.158507 -0.001042555
v -2.879628 -2.158507 -1.481905
v -3.462758 -2.158506 -1.481905
v -3.462758 -2.158506 -0.001042555
v -3.462772 7.447176 -0.001041927
v -3.462772 7.447176 -1.481904
v -2.879642 7.447175 -1.481904
v -2.879642 7.447176 -0.001042404
v -4.045902 7.447177 -0.001041927
v -4.045902 7.447177 -1.481904
v -4.629032 7.447178 -0.001041927
v -4.629032 7.447178 -1.481904
v -4.045902 7.447177 -1.481904
v -4.045902 7.447177 -0.001041927

vn 1 -5.960464E-08 -1.728535E-06
vn 1 -5.960464E-08 -1.728535E-06
vn 1 -5.960464E-08 -1.728535E-06
vn 1 -5.960464E-08 -1.728535E-06
vn 1 -5.960464E-08 -1.728535E-06
vn 1 -5.960464E-08 -1.728535E-06
vn 1 -5.960464E-08 -1.728535E-06
vn 1 -5.960464E-08 -1.728535E-06
vn 1.728535E-06 -1.788139E-07 0.9995117
vn 1.728535E-06 -1.788139E-07 0.9995117
vn 1.728535E-06 -1.788139E-07 0.9995117
vn 1.728535E-06 -1.788139E-07 0.9995117
vn 1.728535E-06 -1.788139E-07 0.9995117
vn 1.728535E-06 -1.788139E-07 0.9995117
vn 1.728535E-06 -1.788139E-07 0.9995117
vn 1.728535E-06 -1.788139E-07 0.9995117
vn 1.728535E-06 -1.788139E-07 0.9995117
vn 1.728535E-06 -1.788139E-07 0.9995117
vn -1.728535E-06 1.788139E-07 -0.9995117
vn -1.728535E-06 1.788139E-07 -0.9995117
vn -1.728535E-06 1.788139E-07 -0.9995117
vn -1.728535E-06 1.788139E-07 -0.9995117
vn -1.728535E-06 1.788139E-07 -0.9995117
vn -1.728535E-06 1.788139E-07 -0.9995117
vn -1.728535E-06 1.788139E-07 -0.9995117
vn -1.728535E-06 1.788139E-07 -0.9995117
vn -1.728535E-06 1.788139E-07 -0.9995117
vn -1.728535E-06 1.788139E-07 -0.9995117

vt 0 1
vt 3.576279E-07 1.192093E-07
vt 1 0
vt 0.9995117 0.9995117
vt 0 1
vt 3.576279E-07 1.192093E-07
vt 1 0
vt 0.9995117 0.9995117
vt 0.4997559 1
vt 0.5 5.960464E-08
vt 1 0
vt 0.9995117 0.9995117
vt 0 1
vt 3.576279E-07 1.192093E-07
vt 0 1
vt 3.576279E-07 1.192093E-07
vt 0.5 5.960464E-08
vt 0.4997559 1
vt 0.4997559 1
vt 0.5 5.960464E-08
vt 1 0
vt 0.9995117 0.9995117
vt 0 1
vt 3.576279E-07 1.192093E-07
vt 0 1
vt 3.576279E-07 1.192093E-07
vt 0.5 5.960464E-08
vt 0.4997559 1

g Building.029_37197_465
usemtl Building.029_37197_465
usemap Building.029_37197_465
f 1/1/1 3/3/3 2/2/2
f 1/1/1 4/4/4 3/3/3
f 5/5/5 7/7/7 6/6/6
f 5/5/5 8/8/8 7/7/7
f 9/9/9 11/11/11 10/10/10
f 9/9/9 12/12/12 11/11/11
f 13/13/13 9/9/9 10/10/10
f 13/13/13 10/10/10 14/14/14
f 15/15/15 17/17/17 16/16/16
f 15/15/15 18/18/18 17/17/17
f 19/19/19 21/21/21 20/20/20
f 19/19/19 22/22/22 21/21/21
f 23/23/23 19/19/19 20/20/20
f 23/23/23 20/20/20 24/24/24
f 25/25/25 27/27/27 26/26/26
f 25/25/25 28/28/28 27/27/27
