#Building_t8.023_33818_607.obj

v 3.506682 5.346564 1.487052
v -0.703645 5.485364 1.487052
v -1.12 10.55305 1.487052
v 3.22911 10.55305 1.487052
v 3.704257 -6.315485 1.487053
v -0.7036445 -6.315478 1.487053
v 11.92733 -6.315497 1.487053
v 11.92734 5.068963 1.487052
v 11.92734 10.55303 1.487052
v 3.692487 -12.18829 1.402825
v 11.85058 -12.1883 1.402825

vn 0 1 1.192093E-07
vn 0 1 1.192093E-07
vn 0 1 1.192093E-07
vn 0 1 1.192093E-07
vn 0 1 1.192093E-07
vn 0 1 1.192093E-07
vn 0 1 1.192093E-07
vn 0 1 1.192093E-07
vn 0 1 1.192093E-07
vn 0 0.9995117 0.01433563
vn 0 0.9995117 0.01433563

vt 7.003906 2.287109
vt 7.148438 6.730469
vt 12.49219 7.167969
vt 12.49219 2.580078
vt -5.300781 2.078125
vt -5.300781 6.730469
vt -5.300781 -6.59375
vt 6.710938 -6.59375
vt 12.49219 -6.59375
vt -11.49219 2.091797
vt -11.49219 -6.515625

g Building_t8.023_33818_607
usemtl Building_t8.023_33818_607
usemap Building_t8.023_33818_607
f 1/1/1 3/3/3 2/2/2
f 1/1/1 4/4/4 3/3/3
f 5/5/5 1/1/1 2/2/2
f 5/5/5 2/2/2 6/6/6
f 7/7/7 1/1/1 5/5/5
f 7/7/7 8/8/8 1/1/1
f 8/8/8 4/4/4 1/1/1
f 8/8/8 9/9/9 4/4/4
f 7/7/7 5/5/5 10/10/10
f 7/7/7 10/10/10 11/11/11
