#Building_t8.031_36852_478.obj

v -3.90985 -0.6200059 2.351935
v -3.90985 -0.6200066 -0.1493487
v -3.909851 1.061867 -0.1493488
v -3.909851 1.061867 2.351935
v 1.096181 7.857435 3.972177
v 1.096181 7.857435 1.470892
v 1.096183 9.539314 1.470892
v 1.096183 9.539315 3.972177
v 1.096188 5.816526 3.972177
v 1.096188 5.816526 1.470892
v 1.096187 7.498399 1.470892
v 1.096187 7.4984 3.972177

vn -0.4492188 0 -0.8930664
vn -0.4492188 0 -0.8930664
vn -0.4492188 0 -0.8930664
vn -0.4492188 0 -0.8930664
vn -0.4492188 0 -0.8930664
vn -0.4492188 0 -0.8930664
vn -0.4492188 0 -0.8930664
vn -0.4492188 0 -0.8930664
vn -0.4492188 0 -0.8930664
vn -0.4492188 0 -0.8930664
vn -0.4492188 0 -0.8930664
vn -0.4492188 0 -0.8930664

vt 5.960464E-08 0.9995117
vt 0 0
vt 1 5.960464E-08
vt 1 1
vt 4.172325E-07 1
vt 0 1.788139E-07
vt 0.9995117 0
vt 1 0.9995117
vt 3.576279E-07 1
vt 2.384186E-07 0
vt 1 1.192093E-07
vt 1 1

g Building_t8.031_36852_478
usemtl Building_t8.031_36852_478
usemap Building_t8.031_36852_478
f 1/1/1 3/3/3 2/2/2
f 1/1/1 4/4/4 3/3/3
f 5/5/5 7/7/7 6/6/6
f 5/5/5 8/8/8 7/7/7
f 9/9/9 11/11/11 10/10/10
f 9/9/9 12/12/12 11/11/11
