#Building_small_t1.028_33130_364.obj

v -0.9569378 -5.112592 -0.001035379
v -0.9569377 -5.112594 -1.481897
v -0.9569631 -6.278857 -1.481896
v -0.9569632 -6.278855 -0.001033671
v -0.9569332 -2.607846 -0.001039049
v -0.9569331 -2.607849 -1.481901
v -0.9569586 -3.774112 -1.481899
v -0.9569587 -3.77411 -0.00103734
v -0.9569592 -0.2790418 -0.00104246
v -0.9569592 -0.279044 -1.481905
v -0.9569846 -1.445308 -1.481903
v -0.9569846 -1.445305 -0.001040752
v -0.9569776 2.029434 -0.001045842
v -0.9569775 2.029432 -1.481908
v -0.956942 0.8631668 -1.481906
v -0.956942 0.863169 -0.001044134
v -6.870807 5.079399 -0.001049996
v -6.870807 5.079397 -1.481912
v -6.870842 6.245662 -1.481914
v -6.870842 6.245664 -0.001051705
v -6.870811 2.574654 -0.001046327
v -6.870811 2.574652 -1.481909
v -6.870847 3.740917 -1.48191
v -6.870847 3.740919 -0.001048035
v -6.870828 -3.872276 -0.001036882
v -6.870828 -3.872278 -1.481899
v -6.870803 -2.706014 -1.481901
v -6.870803 -2.706012 -0.00103859
v -6.87081 -6.180751 -0.0010335
v -6.87081 -6.180753 -1.481896
v -6.870845 -5.014489 -1.481898
v -6.870846 -5.014486 -0.001035209
v -4.045924 -7.499352 -0.001031967
v -4.045924 -7.499353 -1.481894
v -4.629056 -7.499341 -1.481894
v -4.629056 -7.499339 -0.001031983
v -3.462793 -7.499364 -0.001031951
v -3.462793 -7.499366 -1.481894
v -2.879661 -7.499377 -0.001031935
v -2.879661 -7.499379 -1.481894
v -3.462793 -7.499366 -1.481894
v -3.462793 -7.499364 -0.001031951
v -3.46281 7.447119 -0.001053848
v -3.46281 7.447117 -1.481916
v -2.879677 7.447165 -1.481916
v -2.879677 7.447167 -0.001053832
v -4.045941 7.447132 -0.001053864
v -4.045941 7.44713 -1.481916
v -4.629073 7.447145 -0.00105388
v -4.629073 7.447142 -1.481916
v -4.045941 7.44713 -1.481916
v -4.045941 7.447132 -0.001053864
v -3.618096 -5.627467 4.612947
v -3.618096 -5.627469 3.132085
v -4.784359 -5.627443 3.132085
v -4.784359 -5.627441 4.612947

vn 0.02062988 0 0.9995117
vn 0.02062988 0 0.9995117
vn 0.02062988 0 0.9995117
vn 0.02062988 0 0.9995117
vn 0.02062988 0 0.9995117
vn 0.02062988 0 0.9995117
vn 0.02062988 0 0.9995117
vn 0.02062988 0 0.9995117
vn 0.02062988 0 0.9995117
vn 0.02062988 0 0.9995117
vn 0.02062988 0 0.9995117
vn 0.02062988 0 0.9995117
vn 0.02062988 0 0.9995117
vn 0.02062988 0 0.9995117
vn 0.02062988 0 0.9995117
vn 0.02062988 0 0.9995117
vn -0.02062988 0 -0.9995117
vn -0.02062988 0 -0.9995117
vn -0.02062988 0 -0.9995117
vn -0.02062988 0 -0.9995117
vn -0.02062988 0 -0.9995117
vn -0.02062988 0 -0.9995117
vn -0.02062988 0 -0.9995117
vn -0.02062988 0 -0.9995117
vn -0.02062988 0 -0.9995117
vn -0.02062988 0 -0.9995117
vn -0.02062988 0 -0.9995117
vn -0.02062988 0 -0.9995117
vn -0.02062988 0 -0.9995117
vn -0.02062988 0 -0.9995117
vn -0.02062988 0 -0.9995117
vn -0.02062988 0 -0.9995117
vn -0.9995117 0 0.02062988
vn -0.9995117 0 0.02062988
vn -0.9995117 0 0.02062988
vn -0.9995117 0 0.02062988
vn -0.9995117 0 0.02062988
vn -0.9995117 0 0.02062988
vn -0.9995117 0 0.02062988
vn -0.9995117 0 0.02062988
vn -0.9995117 0 0.02062988
vn -0.9995117 0 0.02062988
vn 0.9995117 0 -0.02062988
vn 0.9995117 0 -0.02062988
vn 0.9995117 0 -0.02062988
vn 0.9995117 0 -0.02062988
vn 0.9995117 0 -0.02062988
vn 0.9995117 0 -0.02062988
vn 0.9995117 0 -0.02062988
vn 0.9995117 0 -0.02062988
vn 0.9995117 0 -0.02062988
vn 0.9995117 0 -0.02062988
vn -0.9995117 0 0.02062988
vn -0.9995117 0 0.02062988
vn -0.9995117 0 0.02062988
vn -0.9995117 0 0.02062988

vt 0 1
vt 3.576279E-07 1.192093E-07
vt 1 0
vt 0.9995117 0.9995117
vt 0 1
vt 3.576279E-07 1.192093E-07
vt 1 0
vt 0.9995117 0.9995117
vt 0 1
vt 3.576279E-07 1.192093E-07
vt 1 0
vt 0.9995117 0.9995117
vt 0 1
vt 3.576279E-07 1.192093E-07
vt 1 0
vt 0.9995117 0.9995117
vt 0 1
vt 3.576279E-07 1.192093E-07
vt 1 0
vt 0.9995117 0.9995117
vt 0 1
vt 3.576279E-07 1.192093E-07
vt 1 0
vt 0.9995117 0.9995117
vt 0 1
vt 3.576279E-07 1.192093E-07
vt 1 0
vt 0.9995117 0.9995117
vt 0 1
vt 3.576279E-07 1.192093E-07
vt 1 0
vt 0.9995117 0.9995117
vt 0.4997559 1
vt 0.5 5.960464E-08
vt 1 0
vt 0.9995117 0.9995117
vt 0 1
vt 3.576279E-07 1.192093E-07
vt 0 1
vt 3.576279E-07 1.192093E-07
vt 0.5 5.960464E-08
vt 0.4997559 1
vt 0.4997559 1
vt 0.5 5.960464E-08
vt 1 0
vt 0.9995117 0.9995117
vt 0 1
vt 3.576279E-07 1.192093E-07
vt 0 1
vt 3.576279E-07 1.192093E-07
vt 0.5 5.960464E-08
vt 0.4997559 1
vt 0 1
vt 3.576279E-07 1.192093E-07
vt 1 0
vt 0.9995117 0.9995117

g Building_small_t1.028_33130_364
usemtl Building_small_t1.028_33130_364
usemap Building_small_t1.028_33130_364
f 1/1/1 3/3/3 2/2/2
f 1/1/1 4/4/4 3/3/3
f 5/5/5 7/7/7 6/6/6
f 5/5/5 8/8/8 7/7/7
f 9/9/9 11/11/11 10/10/10
f 9/9/9 12/12/12 11/11/11
f 13/13/13 15/15/15 14/14/14
f 13/13/13 16/16/16 15/15/15
f 17/17/17 19/19/19 18/18/18
f 17/17/17 20/20/20 19/19/19
f 21/21/21 23/23/23 22/22/22
f 21/21/21 24/24/24 23/23/23
f 25/25/25 27/27/27 26/26/26
f 25/25/25 28/28/28 27/27/27
f 29/29/29 31/31/31 30/30/30
f 29/29/29 32/32/32 31/31/31
f 33/33/33 35/35/35 34/34/34
f 33/33/33 36/36/36 35/35/35
f 37/37/37 33/33/33 34/34/34
f 37/37/37 34/34/34 38/38/38
f 39/39/39 41/41/41 40/40/40
f 39/39/39 42/42/42 41/41/41
f 43/43/43 45/45/45 44/44/44
f 43/43/43 46/46/46 45/45/45
f 47/47/47 43/43/43 44/44/44
f 47/47/47 44/44/44 48/48/48
f 49/49/49 51/51/51 50/50/50
f 49/49/49 52/52/52 51/51/51
f 53/53/53 55/55/55 54/54/54
f 53/53/53 56/56/56 55/55/55
