#Building_small_t1.092_35768_135.obj

v -2.135793 3.568627 0.3478131
v -2.135793 3.568626 -1.133049
v -1.552633 3.568626 -1.133049
v -1.552633 3.568626 0.3478131
v -2.718923 3.568627 0.3478131
v -2.718923 3.568627 -1.133049
v -3.302053 3.568628 0.3478131
v -3.302053 3.568628 -1.133049
v -2.718923 3.568627 -1.133049
v -2.718923 3.568627 0.3478131
v -2.718902 -6.488379 0.347813
v -2.718902 -6.48838 -1.133049
v -3.302062 -6.488379 -1.133049
v -3.302062 -6.488379 0.347813
v -2.135772 -6.48838 0.347813
v -2.135772 -6.48838 -1.133049
v -1.552642 -6.488381 0.347813
v -1.552642 -6.488381 -1.133049
v -2.135772 -6.48838 -1.133049
v -2.135772 -6.48838 0.347813
v 1.74756 -6.454753 0.3311175
v 1.74756 -6.454754 -1.149744
v 0.5812998 -6.454752 -1.149744
v 0.5812998 -6.454752 0.3311175
v 4.26392 -3.387556 0.3311176
v 4.26392 -3.387556 -1.149744
v 4.263919 -4.553816 -1.149744
v 4.263919 -4.553816 0.3311177
v 0.3835487 -3.387552 3.135754
v 0.3835487 -3.387552 1.654892
v 0.3835476 -4.553812 1.654892
v 0.3835476 -4.553812 3.135754
v -3.153372 3.031702 3.135754
v -3.153372 3.031701 1.654892
v -1.987081 3.0317 1.654892
v -1.987081 3.031701 3.135754
v -4.465112 -0.126073 3.135754
v -4.465112 -0.1260732 1.654892
v -4.46511 1.040187 1.654892
v -4.46511 1.040187 3.135754
v -4.465115 -4.070531 3.135754
v -4.465115 -4.070531 1.654892
v -4.465114 -2.904271 1.654892
v -4.465114 -2.904271 3.135754
v -5.037957 -0.1260729 0.3569417
v -5.037957 -0.126073 -1.12392
v -5.037956 1.040187 -1.12392
v -5.037956 1.040187 0.3569416
v -5.037961 -4.070531 0.3569418
v -5.037961 -4.070531 -1.12392
v -5.03796 -2.904271 -1.12392
v -5.03796 -2.904271 0.3569416
v -0.3719413 0.02016341 3.169735
v -0.3719413 0.02016322 1.688873
v -0.3719418 -0.5629666 1.688873
v -0.3719418 -0.5629665 3.169735
v -0.3719407 0.6032933 3.169735
v -0.3719407 0.6032931 1.688873
v -0.3719402 1.186423 3.169735
v -0.3719402 1.186423 1.688873
v -0.3719407 0.6032931 1.688873
v -0.3719407 0.6032933 3.169735

vn 1 1.192093E-07 -8.940697E-07
vn 1 1.192093E-07 -8.940697E-07
vn 1 1.192093E-07 -8.940697E-07
vn 1 1.192093E-07 -8.940697E-07
vn 1 1.192093E-07 -8.940697E-07
vn 1 1.192093E-07 -8.940697E-07
vn 1 1.192093E-07 -8.940697E-07
vn 1 1.192093E-07 -8.940697E-07
vn 1 1.192093E-07 -8.940697E-07
vn 1 1.192093E-07 -8.940697E-07
vn -1 -1.192093E-07 8.940697E-07
vn -1 -1.192093E-07 8.940697E-07
vn -1 -1.192093E-07 8.940697E-07
vn -1 -1.192093E-07 8.940697E-07
vn -1 -1.192093E-07 8.940697E-07
vn -1 -1.192093E-07 8.940697E-07
vn -1 -1.192093E-07 8.940697E-07
vn -1 -1.192093E-07 8.940697E-07
vn -1 -1.192093E-07 8.940697E-07
vn -1 -1.192093E-07 8.940697E-07
vn -1 -1.192093E-07 8.940697E-07
vn -1 -1.192093E-07 8.940697E-07
vn -1 -1.192093E-07 8.940697E-07
vn -1 -1.192093E-07 8.940697E-07
vn 8.940697E-07 0 1
vn 8.940697E-07 0 1
vn 8.940697E-07 0 1
vn 8.940697E-07 0 1
vn 8.940697E-07 0 1
vn 8.940697E-07 0 1
vn 8.940697E-07 0 1
vn 8.940697E-07 0 1
vn 1 1.192093E-07 -8.940697E-07
vn 1 1.192093E-07 -8.940697E-07
vn 1 1.192093E-07 -8.940697E-07
vn 1 1.192093E-07 -8.940697E-07
vn -8.940697E-07 0 -1
vn -8.940697E-07 0 -1
vn -8.940697E-07 0 -1
vn -8.940697E-07 0 -1
vn -8.940697E-07 0 -1
vn -8.940697E-07 0 -1
vn -8.940697E-07 0 -1
vn -8.940697E-07 0 -1
vn -8.940697E-07 0 -1
vn -8.940697E-07 0 -1
vn -8.940697E-07 0 -1
vn -8.940697E-07 0 -1
vn -8.940697E-07 0 -1
vn -8.940697E-07 0 -1
vn -8.940697E-07 0 -1
vn -8.940697E-07 0 -1
vn 8.940697E-07 0 1
vn 8.940697E-07 0 1
vn 8.940697E-07 0 1
vn 8.940697E-07 0 1
vn 8.940697E-07 0 1
vn 8.940697E-07 0 1
vn 8.940697E-07 0 1
vn 8.940697E-07 0 1
vn 8.940697E-07 0 1
vn 8.940697E-07 0 1

vt 0.4997559 1
vt 0.5 5.960464E-08
vt 1 0
vt 0.9995117 0.9995117
vt 0 1
vt 3.576279E-07 1.192093E-07
vt 0 1
vt 3.576279E-07 1.192093E-07
vt 0.5 5.960464E-08
vt 0.4997559 1
vt 0.4997559 1
vt 0.5 5.960464E-08
vt 1 0
vt 0.9995117 0.9995117
vt 0 1
vt 3.576279E-07 1.192093E-07
vt 0 1
vt 3.576279E-07 1.192093E-07
vt 0.5 5.960464E-08
vt 0.4997559 1
vt 0 1
vt 3.576279E-07 1.192093E-07
vt 1 0
vt 0.9995117 0.9995117
vt 0 1
vt 3.576279E-07 1.192093E-07
vt 1 0
vt 0.9995117 0.9995117
vt 0 1
vt 3.576279E-07 1.192093E-07
vt 1 0
vt 0.9995117 0.9995117
vt 0 1
vt 3.576279E-07 1.192093E-07
vt 1 0
vt 0.9995117 0.9995117
vt 0 1
vt 3.576279E-07 1.192093E-07
vt 1 0
vt 0.9995117 0.9995117
vt 0 1
vt 3.576279E-07 1.192093E-07
vt 1 0
vt 0.9995117 0.9995117
vt 0 1
vt 3.576279E-07 1.192093E-07
vt 1 0
vt 0.9995117 0.9995117
vt 0 1
vt 3.576279E-07 1.192093E-07
vt 1 0
vt 0.9995117 0.9995117
vt 0.4997559 1
vt 0.5 5.960464E-08
vt 1 0
vt 0.9995117 0.9995117
vt 0 1
vt 3.576279E-07 1.192093E-07
vt 0 1
vt 3.576279E-07 1.192093E-07
vt 0.5 5.960464E-08
vt 0.4997559 1

g Building_small_t1.092_35768_135
usemtl Building_small_t1.092_35768_135
usemap Building_small_t1.092_35768_135
f 1/1/1 3/3/3 2/2/2
f 1/1/1 4/4/4 3/3/3
f 5/5/5 1/1/1 2/2/2
f 5/5/5 2/2/2 6/6/6
f 7/7/7 9/9/9 8/8/8
f 7/7/7 10/10/10 9/9/9
f 11/11/11 13/13/13 12/12/12
f 11/11/11 14/14/14 13/13/13
f 15/15/15 11/11/11 12/12/12
f 15/15/15 12/12/12 16/16/16
f 17/17/17 19/19/19 18/18/18
f 17/17/17 20/20/20 19/19/19
f 21/21/21 23/23/23 22/22/22
f 21/21/21 24/24/24 23/23/23
f 25/25/25 27/27/27 26/26/26
f 25/25/25 28/28/28 27/27/27
f 29/29/29 31/31/31 30/30/30
f 29/29/29 32/32/32 31/31/31
f 33/33/33 35/35/35 34/34/34
f 33/33/33 36/36/36 35/35/35
f 37/37/37 39/39/39 38/38/38
f 37/37/37 40/40/40 39/39/39
f 41/41/41 43/43/43 42/42/42
f 41/41/41 44/44/44 43/43/43
f 45/45/45 47/47/47 46/46/46
f 45/45/45 48/48/48 47/47/47
f 49/49/49 51/51/51 50/50/50
f 49/49/49 52/52/52 51/51/51
f 53/53/53 55/55/55 54/54/54
f 53/53/53 56/56/56 55/55/55
f 57/57/57 53/53/53 54/54/54
f 57/57/57 54/54/54 58/58/58
f 59/59/59 61/61/61 60/60/60
f 59/59/59 62/62/62 61/61/61
