#Building_t8.009_33381_267.obj

v -5.112391 5.295464 0.9705263
v -0.9179629 5.295469 2.349023
v -5.112391 5.337456 0.9705263
v -0.917963 5.337461 2.349023
v -5.112398 10.75286 0.9705268
v -0.9179702 10.75287 2.349023
v -5.112398 10.79485 0.9705268
v -0.9179702 10.79486 2.349023
v -5.112394 7.934502 0.9705265
v -0.9179664 7.934507 2.349023
v -5.112394 7.976555 0.9705265
v -0.9179665 7.976499 2.349023
v -0.917963 5.337461 2.349023
v -0.9179629 5.295469 2.349023
v -5.112391 5.337456 0.9705263
v -5.112391 5.295464 0.9705263
v -0.9179702 10.79486 2.349023
v -0.9179702 10.75287 2.349023
v -5.112398 10.79485 0.9705268
v -5.112398 10.75286 0.9705268
v -0.9179665 7.976499 2.349023
v -0.9179664 7.934507 2.349023
v -5.112394 7.976555 0.9705265
v -5.112394 7.934502 0.9705265
v 1.24616 5.816529 3.972178
v 1.246158 7.498414 3.972177
v 1.096197 5.816529 3.972178
v 1.096194 7.498414 3.972177
v 1.246158 7.498414 3.972177
v 1.246158 7.498414 1.470893
v 1.096194 7.498414 3.972177
v 1.096194 7.498414 1.470893
v 1.24616 5.816529 1.470893
v 1.24616 5.816529 3.972178
v 1.096197 5.816529 1.470893
v 1.096197 5.816529 3.972178
v 1.246157 7.857422 3.972177
v 1.246155 9.539308 3.972178
v 1.096194 7.857422 3.972177
v 1.096192 9.539307 3.972178
v 1.246155 9.539308 3.972178
v 1.246155 9.539308 1.470893
v 1.096192 9.539307 3.972178
v 1.096192 9.539308 1.470893
v 1.246157 7.857423 1.470893
v 1.246157 7.857422 3.972177
v 1.096194 7.857422 1.470893
v 1.096194 7.857422 3.972177
v -3.808153 -0.6200012 2.351935
v -3.808155 1.061884 2.351935
v -3.909837 -0.6200013 2.351935
v -3.90984 1.061883 2.351935
v -3.808155 1.061884 2.351935
v -3.808155 1.061884 -0.1493487
v -3.90984 1.061883 2.351935
v -3.90984 1.061884 -0.1493487
v -3.808153 -0.6200008 -0.1493489
v -3.808153 -0.6200012 2.351935
v -3.909837 -0.620001 -0.1493489
v -3.909837 -0.6200013 2.351935
v -3.808155 1.061884 -0.1493487
v -3.808153 -0.6200008 -0.1493489
v -3.90984 1.061884 -0.1493487
v -3.909837 -0.620001 -0.1493489
v -3.521409 -1.333685 3.865905
v -3.521409 -1.333686 7.359403
v -3.521382 1.775568 3.865906
v -3.521382 1.775567 7.359403
v -1.437729 -1.333682 3.865905
v -1.437729 -1.333683 7.359403
v -3.521409 -1.333685 3.865905
v -3.521409 -1.333686 7.359403
v -1.437734 1.775571 3.865906
v -1.437734 1.77557 7.359403
v -1.437729 -1.333682 3.865905
v -1.437729 -1.333683 7.359403
v -4.057266 -2.032172 3.528141
v -4.057266 -2.032172 3.865906
v -4.057272 2.473993 3.528141
v -4.057272 2.473992 3.865906
v -4.057272 2.473993 3.528141
v -4.057272 2.473992 3.865906
v -0.9018458 2.473997 3.528141
v -0.9018458 2.473997 3.865906
v -0.9018703 -2.032168 3.528141
v -0.9018703 -2.032168 3.865906
v -4.057266 -2.032172 3.528141
v -4.057266 -2.032172 3.865906
v -0.9018458 2.473997 3.528141
v -0.9018458 2.473997 3.865906
v -0.9018703 -2.032168 3.528141
v -0.9018703 -2.032168 3.865906
v -3.521382 1.775568 3.865906
v -4.057272 2.473992 3.865906
v -3.521409 -1.333685 3.865905
v -4.057266 -2.032172 3.865906
v -1.437729 -1.333682 3.865905
v -0.9018703 -2.032168 3.865906
v -0.9018458 2.473997 3.865906
v -1.437734 1.775571 3.865906
v -3.521382 1.775568 3.865906
v -3.521382 1.775567 7.359403
v -1.437734 1.775571 3.865906
v -1.437734 1.77557 7.359403
v -1.091873 -1.679568 3.528141
v -3.867233 -1.679572 3.528141
v -1.091873 -1.679567 -0.149349
v -3.867233 -1.679571 -0.149349
v -1.091873 -1.679567 -0.149349
v -3.867233 -1.679571 -0.149349
v -1.091878 2.121397 -0.1493487
v -3.867239 2.121393 -0.1493487
v -3.867233 -1.679572 3.528141
v -4.057266 -2.032172 3.528141
v -3.867239 2.121393 3.528141
v -4.057272 2.473993 3.528141
v -1.091878 2.121396 3.528141
v -0.9018458 2.473997 3.528141
v -1.091873 -1.679568 3.528141
v -0.9018703 -2.032168 3.528141
v -1.091878 2.121397 -0.1493487
v -3.867239 2.121393 -0.1493487
v -1.091878 2.121396 3.528141
v -3.867239 2.121393 3.528141
v -3.867239 2.121393 3.528141
v -3.867239 2.121393 -0.1493487
v -3.867233 -1.679572 3.528141
v -3.867233 -1.679571 -0.149349
v -1.091873 -1.679567 -0.149349
v -1.091878 2.121397 -0.1493487
v -1.091873 -1.679568 3.528141
v -1.091878 2.121396 3.528141
v -1.119996 10.55304 1.361737
v -0.7036382 5.48535 1.361736
v -1.119996 10.55304 1.487053
v -0.7036382 5.48535 1.487053
v -4.426209 10.55303 0.3591929
v -4.392152 10.55303 0.1304259
v -4.350519 5.485345 0.3591925
v -4.354303 5.485345 0.1304255
v -3.757875 10.55303 0.3591913
v -4.426209 10.55303 0.3591929
v -3.644312 5.485346 0.3591909
v -4.350519 5.485345 0.3591925
v -3.691499 10.55303 0.6098286
v -3.757875 10.55303 0.3591913
v -3.540095 5.485346 0.6098281
v -3.644312 5.485346 0.3591909
v -2.937867 10.55303 0.6098276
v -3.691499 10.55303 0.6098286
v -2.748591 5.485347 0.6098274
v -3.540095 5.485346 0.6098281
v -2.956788 10.55303 0.8604642
v -2.937867 10.55303 0.6098276
v -2.72967 5.485347 0.8604637
v -2.748591 5.485347 0.6098274
v -2.203126 10.55304 0.860464
v -2.956788 10.55303 0.8604642
v -1.938166 5.485348 0.8604635
v -2.72967 5.485347 0.8604637
v -2.222078 10.55304 1.1111
v -2.203126 10.55304 0.860464
v -1.919275 5.485348 1.111099
v -1.938166 5.485348 0.8604635
v -1.468415 10.55304 1.1111
v -2.222078 10.55304 1.1111
v -1.127771 5.485349 1.1111
v -1.919275 5.485348 1.111099
v -1.487336 10.55304 1.361735
v -1.468415 10.55304 1.1111
v -1.108851 5.485349 1.361735
v -1.127771 5.485349 1.1111
v -1.119996 10.55304 1.361737
v -1.487336 10.55304 1.361735
v -0.7036382 5.48535 1.361736
v -1.108851 5.485349 1.361735
v -4.392152 10.55303 0.1304259
v -5.160951 10.55303 0.1085572
v -4.354303 5.485345 0.1304255
v -5.160944 5.485344 0.1085568
v 5.296252 -3.726312 1.219083
v 5.296252 -3.726313 7.398609
v 11.49132 -3.726304 1.219083
v 11.49132 -3.726305 7.398609
v 12.34371 -6.731857 -0.1493493
v 12.34372 -12.61748 -0.1493498
v 3.367911 -6.731869 -0.1493493
v 3.367919 -12.61749 -0.1493498
v -1.119989 5.068968 -0.1493484
v -5.160944 5.068962 -0.1493484
v -1.119997 10.96936 -0.149348
v -5.160952 10.96935 -0.149348

vn 0.3120117 0.949707 -4.768372E-07
vn 0.3120117 0.949707 -4.768372E-07
vn 0.3120117 0.949707 -4.768372E-07
vn 0.3120117 0.949707 -4.768372E-07
vn 0.3120117 0.949707 -4.768372E-07
vn 0.3120117 0.949707 -4.768372E-07
vn 0.3120117 0.949707 -4.768372E-07
vn 0.3120117 0.949707 -4.768372E-07
vn 0.3120117 0.949707 -4.768372E-07
vn 0.3120117 0.949707 -4.768372E-07
vn 0.3120117 0.949707 -4.768372E-07
vn 0.3120117 0.949707 -4.768372E-07
vn -0.3120117 -0.949707 4.768372E-07
vn -0.3120117 -0.949707 4.768372E-07
vn -0.3120117 -0.949707 4.768372E-07
vn -0.3120117 -0.949707 4.768372E-07
vn -0.3120117 -0.949707 4.768372E-07
vn -0.3120117 -0.949707 4.768372E-07
vn -0.3120117 -0.949707 4.768372E-07
vn -0.3120117 -0.949707 4.768372E-07
vn -0.3120117 -0.949707 4.768372E-07
vn -0.3120117 -0.949707 4.768372E-07
vn -0.3120117 -0.949707 4.768372E-07
vn -0.3120117 -0.949707 4.768372E-07
vn 0 1 -1.192093E-07
vn 0 1 -1.192093E-07
vn 0 1 -1.192093E-07
vn 0 1 -1.192093E-07
vn -1.311302E-06 -5.960464E-08 -1
vn -1.311302E-06 -5.960464E-08 -1
vn -1.311302E-06 -5.960464E-08 -1
vn -1.311302E-06 -5.960464E-08 -1
vn 1.311302E-06 5.960464E-08 1
vn 1.311302E-06 5.960464E-08 1
vn 1.311302E-06 5.960464E-08 1
vn 1.311302E-06 5.960464E-08 1
vn 0 1 -1.192093E-07
vn 0 1 -1.192093E-07
vn 0 1 -1.192093E-07
vn 0 1 -1.192093E-07
vn -1.311302E-06 -5.960464E-08 -1
vn -1.311302E-06 -5.960464E-08 -1
vn -1.311302E-06 -5.960464E-08 -1
vn -1.311302E-06 -5.960464E-08 -1
vn 1.311302E-06 5.960464E-08 1
vn 1.311302E-06 5.960464E-08 1
vn 1.311302E-06 5.960464E-08 1
vn 1.311302E-06 5.960464E-08 1
vn 0 1 -1.192093E-07
vn 0 1 -1.192093E-07
vn 0 1 -1.192093E-07
vn 0 1 -1.192093E-07
vn -1.311302E-06 -5.960464E-08 -1
vn -1.311302E-06 -5.960464E-08 -1
vn -1.311302E-06 -5.960464E-08 -1
vn -1.311302E-06 -5.960464E-08 -1
vn 1.311302E-06 5.960464E-08 1
vn 1.311302E-06 5.960464E-08 1
vn 1.311302E-06 5.960464E-08 1
vn 1.311302E-06 5.960464E-08 1
vn 0 -1 1.192093E-07
vn 0 -1 1.192093E-07
vn 0 -1 1.192093E-07
vn 0 -1 1.192093E-07
vn 1 0 -1.311302E-06
vn 1 0 -1.311302E-06
vn 1 0 -1.311302E-06
vn 1 0 -1.311302E-06
vn 1.311302E-06 5.960464E-08 1
vn 1.311302E-06 5.960464E-08 1
vn 1.311302E-06 5.960464E-08 1
vn 1.311302E-06 5.960464E-08 1
vn -1 0 1.311302E-06
vn -1 0 1.311302E-06
vn -1 0 1.311302E-06
vn -1 0 1.311302E-06
vn 1 0 -1.311302E-06
vn 1 0 -1.311302E-06
vn 1 0 -1.311302E-06
vn 1 0 -1.311302E-06
vn -1.311302E-06 -5.960464E-08 -1
vn -1.311302E-06 -5.960464E-08 -1
vn -1.311302E-06 -5.960464E-08 -1
vn -1.311302E-06 -5.960464E-08 -1
vn 1.311302E-06 5.960464E-08 1
vn 1.311302E-06 5.960464E-08 1
vn 1.311302E-06 5.960464E-08 1
vn 1.311302E-06 5.960464E-08 1
vn -1 0 1.311302E-06
vn -1 0 1.311302E-06
vn -1 0 1.311302E-06
vn -1 0 1.311302E-06
vn 0 1 -1.192093E-07
vn 0 1 -1.192093E-07
vn 0 1 -1.192093E-07
vn 0 1 -1.192093E-07
vn 0 1 -1.192093E-07
vn 0 1 -1.192093E-07
vn 0 1 -1.192093E-07
vn 0 1 -1.192093E-07
vn -1.311302E-06 -5.960464E-08 -1
vn -1.311302E-06 -5.960464E-08 -1
vn -1.311302E-06 -5.960464E-08 -1
vn -1.311302E-06 -5.960464E-08 -1
vn 1.311302E-06 5.960464E-08 1
vn 1.311302E-06 5.960464E-08 1
vn 1.311302E-06 5.960464E-08 1
vn 1.311302E-06 5.960464E-08 1
vn 0 -1 1.192093E-07
vn 0 -1 1.192093E-07
vn 0 -1 1.192093E-07
vn 0 -1 1.192093E-07
vn 0 -1 1.192093E-07
vn 0 -1 1.192093E-07
vn 0 -1 1.192093E-07
vn 0 -1 1.192093E-07
vn 0 -1 1.192093E-07
vn 0 -1 1.192093E-07
vn 0 -1 1.192093E-07
vn 0 -1 1.192093E-07
vn -1.311302E-06 -5.960464E-08 -1
vn -1.311302E-06 -5.960464E-08 -1
vn -1.311302E-06 -5.960464E-08 -1
vn -1.311302E-06 -5.960464E-08 -1
vn 1 0 -1.311302E-06
vn 1 0 -1.311302E-06
vn 1 0 -1.311302E-06
vn 1 0 -1.311302E-06
vn -1 0 1.311302E-06
vn -1 0 1.311302E-06
vn -1 0 1.311302E-06
vn -1 0 1.311302E-06
vn 0.996582 0 0.08184814
vn 0.996582 0 0.08184814
vn 0.996582 0 0.08184814
vn 0.996582 0 0.08184814
vn 0.9975586 -0.06604004 0.01116943
vn 0.9975586 -0.06604004 0.01116943
vn 0.9975586 -0.06604004 0.01116943
vn 0.9975586 -0.06604004 0.01116943
vn 0 1 -1.192093E-07
vn 0 1 -1.192093E-07
vn 0 1 -1.192093E-07
vn 0 1 -1.192093E-07
vn 0.9462891 0.3220215 0.0247345
vn 0.9462891 0.3220215 0.0247345
vn 0.9462891 0.3220215 0.0247345
vn 0.9462891 0.3220215 0.0247345
vn 0 1 -1.192093E-07
vn 0 1 -1.192093E-07
vn 0 1 -1.192093E-07
vn 0 1 -1.192093E-07
vn 0.9990234 -2.652407E-05 0.04101563
vn 0.9990234 -2.652407E-05 0.04101563
vn 0.9990234 -2.652407E-05 0.04101563
vn 0.9990234 -2.652407E-05 0.04101563
vn 0 1 -1.192093E-07
vn 0 1 -1.192093E-07
vn 0 1 -1.192093E-07
vn 0 1 -1.192093E-07
vn 0.9980469 -2.658367E-05 0.0559082
vn 0.9980469 -2.658367E-05 0.0559082
vn 0.9980469 -2.658367E-05 0.0559082
vn 0.9980469 -2.658367E-05 0.0559082
vn 0 1 -1.192093E-07
vn 0 1 -1.192093E-07
vn 0 1 -1.192093E-07
vn 0 1 -1.192093E-07
vn 0.9970703 -2.658367E-05 0.07073975
vn 0.9970703 -2.658367E-05 0.07073975
vn 0.9970703 -2.658367E-05 0.07073975
vn 0.9970703 -2.658367E-05 0.07073975
vn 0 1 -1.192093E-07
vn 0 1 -1.192093E-07
vn 0 1 -1.192093E-07
vn 0 1 -1.192093E-07
vn 0.02774048 0.9995117 0.0001034737
vn 0.02774048 0.9995117 0.0001034737
vn 0.02774048 0.9995117 0.0001034737
vn 0.02774048 0.9995117 0.0001034737
vn -1.311302E-06 -5.960464E-08 -1
vn -1.311302E-06 -5.960464E-08 -1
vn -1.311302E-06 -5.960464E-08 -1
vn -1.311302E-06 -5.960464E-08 -1
vn 0 -1 1.192093E-07
vn 0 -1 1.192093E-07
vn 0 -1 1.192093E-07
vn 0 -1 1.192093E-07
vn 0 -1 1.192093E-07
vn 0 -1 1.192093E-07
vn 0 -1 1.192093E-07
vn 0 -1 1.192093E-07

vt -0.1013794 0.5205078
vt -0.1013794 0.4873047
vt 0.2093506 0.5205078
vt 0.2093506 0.4873047
vt -0.1013794 0.5205078
vt -0.1013794 0.4873047
vt 0.2093506 0.5205078
vt 0.2093506 0.4873047
vt -0.1013794 0.5205078
vt -0.1013794 0.4873047
vt 0.2093506 0.5205078
vt 0.2093506 0.4873047
vt 0.2093506 0.4873047
vt -0.1013794 0.4873047
vt 0.2093506 0.5205078
vt -0.1013794 0.5205078
vt 0.2093506 0.4873047
vt -0.1013794 0.4873047
vt 0.2093506 0.5205078
vt -0.1013794 0.5205078
vt 0.2093506 0.4873047
vt -0.1013794 0.4873047
vt 0.2093506 0.5205078
vt -0.1013794 0.5205078
vt 0 0
vt 0 0
vt 0 0
vt 0 0
vt 0 0
vt 0 0
vt 0 0
vt 0 0
vt 0 0
vt 0 0
vt 0 0
vt 0 0
vt 0 0
vt 0 0
vt 0 0
vt 0 0
vt 0 0
vt 0 0
vt 0 0
vt 0 0
vt 0 0
vt 0 0
vt 0 0
vt 0 0
vt 0 0
vt 0 0
vt 0 0
vt 0 0
vt 0 0
vt 0 0
vt 0 0
vt 0 0
vt 0 0
vt 0 0
vt 0 0
vt 0 0
vt 0 0
vt 0 0
vt 0 0
vt 0 0
vt 0.8896484 9.435415E-05
vt 0.8896484 0.9995117
vt 9.429455E-05 9.429455E-05
vt 9.429455E-05 0.9995117
vt 0.5961914 7.724762E-05
vt 0.5961914 0.9995117
vt 7.730722E-05 7.718801E-05
vt 7.718801E-05 0.9995117
vt 0.8896484 9.435415E-05
vt 0.8896484 0.9995117
vt 9.429455E-05 9.429455E-05
vt 9.435415E-05 0.9995117
vt 0.07495117 0.9995117
vt 1.788139E-07 0.9995117
vt 0.07495117 0
vt 0 0
vt 0.2998047 0.7001953
vt 0.2248535 0.7001953
vt 0.2998047 0
vt 0.2248535 0
vt 0.1499023 0
vt 0.2248535 0
vt 0.1499023 0.7001953
vt 0.2248535 0.7001953
vt 0.07495117 0
vt 0.1499023 0
vt 0.07495117 1
vt 0.1499023 1
vt 0.5810547 0.1550293
vt 0.7001953 8.362532E-05
vt 0.5810547 0.8447266
vt 0.7001953 0.9995117
vt 0.1189575 0.8447266
vt 8.374453E-05 0.9995117
vt 8.362532E-05 8.362532E-05
vt 0.1189575 0.1550293
vt 0.5961914 7.724762E-05
vt 0.5961914 0.9995117
vt 7.736683E-05 7.718801E-05
vt 7.718801E-05 0.9995117
vt 0.7543945 0.9995117
vt 8.684397E-05 0.9995117
vt 0.7543945 8.684397E-05
vt 8.684397E-05 8.696318E-05
vt 0 0
vt 0 0
vt 0 0
vt 0 0
vt 0.07830811 0.04223633
vt 8.428097E-05 8.362532E-05
vt 0.9213867 0.04223633
vt 0.9995117 8.368492E-05
vt 0.9213867 0.6577148
vt 0.9995117 0.7001953
vt 0.07830811 0.6577148
vt 8.362532E-05 0.7001953
vt 8.690357E-05 8.690357E-05
vt 0.7543945 8.684397E-05
vt 8.684397E-05 0.9995117
vt 0.7543945 0.9995117
vt 0.9995117 9.828806E-05
vt 0.9995117 0.9672852
vt 9.828806E-05 9.846687E-05
vt 9.834766E-05 0.9672852
vt 9.828806E-05 9.828806E-05
vt 0.9995117 9.828806E-05
vt 9.834766E-05 0.9672852
vt 0.9995117 0.9672852
vt 0.9941406 0.03192139
vt 3.21269E-05 0.02453613
vt 0.9946289 0.007411957
vt 0.0002139807 3.21269E-05
vt 0.9995117 0.2768555
vt 0.9995117 0.3225098
vt 0.0003762245 0.2700195
vt 4.518032E-05 0.3149414
vt 0.9975586 0.6455078
vt 0.9995117 0.7773438
vt 0.0001294613 0.6381836
vt 0.002204895 0.7773438
vt 0.9980469 0.5947266
vt 0.9975586 0.6455078
vt 4.380941E-05 0.5849609
vt 0.0001294613 0.6381836
vt 0.004463196 0.9394531
vt 4.523993E-05 0.7919922
vt 0.9995117 0.9472656
vt 0.9951172 0.7919922
vt 0.003955841 0.9887695
vt 0.004463196 0.9394531
vt 0.9995117 0.996582
vt 0.9995117 0.9472656
vt 0.9042969 0.9897461
vt 0.7597656 0.9960938
vt 0.9116211 0.01759338
vt 0.7597656 0.02438354
vt 0.9521484 0.9902344
vt 0.9042969 0.9897461
vt 0.9594727 0.01773071
vt 0.9116211 0.01759338
vt 0.02944946 0.0451355
vt 0.01792908 0.1289063
vt 0.9804688 0.05340576
vt 0.9682617 0.1413574
vt 0.02990723 0.01708984
vt 0.02944946 0.0451355
vt 0.9814453 0.02537537
vt 0.9804688 0.05340576
vt 0.9941406 0.03192139
vt 0.9995117 0.1035767
vt 3.21269E-05 0.02453613
vt 0.005935669 0.1035767
vt 0.9995117 0.3225098
vt 0.9995117 0.4741211
vt 4.518032E-05 0.3149414
vt 4.535913E-05 0.4741211
vt 0 0
vt 0 0
vt 0 0
vt 0 0
vt 0 0
vt 0 0
vt 0 0
vt 0 0
vt 0 0
vt 0 0
vt 0 0
vt 0 0

g Building_t8.009_33381_267
usemtl Building_t8.009_33381_267
usemap Building_t8.009_33381_267
f 1/1/1 3/3/3 2/2/2
f 2/2/2 3/3/3 4/4/4
f 5/5/5 7/7/7 6/6/6
f 6/6/6 7/7/7 8/8/8
f 9/9/9 11/11/11 10/10/10
f 10/10/10 11/11/11 12/12/12
f 13/13/13 15/15/15 14/14/14
f 14/14/14 15/15/15 16/16/16
f 17/17/17 19/19/19 18/18/18
f 18/18/18 19/19/19 20/20/20
f 21/21/21 23/23/23 22/22/22
f 22/22/22 23/23/23 24/24/24
f 25/25/25 27/27/27 26/26/26
f 26/26/26 27/27/27 28/28/28
f 29/29/29 31/31/31 30/30/30
f 30/30/30 31/31/31 32/32/32
f 33/33/33 35/35/35 34/34/34
f 34/34/34 35/35/35 36/36/36
f 37/37/37 39/39/39 38/38/38
f 38/38/38 39/39/39 40/40/40
f 41/41/41 43/43/43 42/42/42
f 42/42/42 43/43/43 44/44/44
f 45/45/45 47/47/47 46/46/46
f 46/46/46 47/47/47 48/48/48
f 49/49/49 51/51/51 50/50/50
f 50/50/50 51/51/51 52/52/52
f 53/53/53 55/55/55 54/54/54
f 54/54/54 55/55/55 56/56/56
f 57/57/57 59/59/59 58/58/58
f 58/58/58 59/59/59 60/60/60
f 61/61/61 63/63/63 62/62/62
f 62/62/62 63/63/63 64/64/64
f 65/65/65 67/67/67 66/66/66
f 66/66/66 67/67/67 68/68/68
f 69/69/69 71/71/71 70/70/70
f 70/70/70 71/71/71 72/72/72
f 73/73/73 75/75/75 74/74/74
f 74/74/74 75/75/75 76/76/76
f 77/77/77 79/79/79 78/78/78
f 78/78/78 79/79/79 80/80/80
f 81/81/81 83/83/83 82/82/82
f 82/82/82 83/83/83 84/84/84
f 85/85/85 87/87/87 86/86/86
f 86/86/86 87/87/87 88/88/88
f 89/89/89 91/91/91 90/90/90
f 90/90/90 91/91/91 92/92/92
f 93/93/93 95/95/95 94/94/94
f 94/94/94 95/95/95 96/96/96
f 95/95/95 97/97/97 96/96/96
f 96/96/96 97/97/97 98/98/98
f 99/99/99 93/93/93 94/94/94
f 100/100/100 93/93/93 99/99/99
f 97/97/97 100/100/100 98/98/98
f 98/98/98 100/100/100 99/99/99
f 101/101/101 103/103/103 102/102/102
f 102/102/102 103/103/103 104/104/104
f 105/105/105 107/107/107 106/106/106
f 106/106/106 107/107/107 108/108/108
f 109/109/109 111/111/111 110/110/110
f 110/110/110 111/111/111 112/112/112
f 113/113/113 115/115/115 114/114/114
f 114/114/114 115/115/115 116/116/116
f 115/115/115 117/117/117 116/116/116
f 116/116/116 117/117/117 118/118/118
f 117/117/117 119/119/119 118/118/118
f 118/118/118 119/119/119 120/120/120
f 119/119/119 113/113/113 120/120/120
f 120/120/120 113/113/113 114/114/114
f 121/121/121 123/123/123 122/122/122
f 122/122/122 123/123/123 124/124/124
f 125/125/125 127/127/127 126/126/126
f 126/126/126 127/127/127 128/128/128
f 129/129/129 131/131/131 130/130/130
f 130/130/130 131/131/131 132/132/132
f 133/133/133 135/135/135 134/134/134
f 134/134/134 135/135/135 136/136/136
f 137/137/137 139/139/139 138/138/138
f 138/138/138 139/139/139 140/140/140
f 141/141/141 143/143/143 142/142/142
f 142/142/142 143/143/143 144/144/144
f 145/145/145 147/147/147 146/146/146
f 146/146/146 147/147/147 148/148/148
f 149/149/149 151/151/151 150/150/150
f 150/150/150 151/151/151 152/152/152
f 153/153/153 155/155/155 154/154/154
f 154/154/154 155/155/155 156/156/156
f 157/157/157 159/159/159 158/158/158
f 158/158/158 159/159/159 160/160/160
f 161/161/161 163/163/163 162/162/162
f 162/162/162 163/163/163 164/164/164
f 165/165/165 167/167/167 166/166/166
f 166/166/166 167/167/167 168/168/168
f 169/169/169 171/171/171 170/170/170
f 170/170/170 171/171/171 172/172/172
f 173/173/173 175/175/175 174/174/174
f 174/174/174 175/175/175 176/176/176
f 177/177/177 179/179/179 178/178/178
f 178/178/178 179/179/179 180/180/180
f 181/181/181 183/183/183 182/182/182
f 182/182/182 183/183/183 184/184/184
f 185/185/185 187/187/187 186/186/186
f 186/186/186 187/187/187 188/188/188
f 189/189/189 191/191/191 190/190/190
f 190/190/190 191/191/191 192/192/192
