#Building_t8.009_33381_273.obj

v 1.096194 7.498414 3.972177
v 1.096194 7.498414 1.470893
v 1.096197 5.816529 3.972178
v 1.096197 5.816529 1.470893
v 1.096192 9.539307 3.972178
v 1.096192 9.539308 1.470893
v 1.096194 7.857422 3.972177
v 1.096194 7.857422 1.470893
v -3.90984 1.061883 2.351935
v -3.90984 1.061884 -0.1493487
v -3.909837 -0.6200013 2.351935
v -3.909837 -0.620001 -0.1493489

vn 1 0 -1.311302E-06
vn 1 0 -1.311302E-06
vn 1 0 -1.311302E-06
vn 1 0 -1.311302E-06
vn 1 0 -1.311302E-06
vn 1 0 -1.311302E-06
vn 1 0 -1.311302E-06
vn 1 0 -1.311302E-06
vn 1 0 -1.311302E-06
vn 1 0 -1.311302E-06
vn 1 0 -1.311302E-06
vn 1 0 -1.311302E-06

vt 1 1
vt 1 1.192093E-07
vt 3.576279E-07 1
vt 2.384186E-07 0
vt 1 0.9995117
vt 0.9995117 0
vt 4.172325E-07 1
vt 0 1.788139E-07
vt 1 1
vt 1 5.960464E-08
vt 5.960464E-08 0.9995117
vt 0 0

g Building_t8.009_33381_273
usemtl Building_t8.009_33381_273
usemap Building_t8.009_33381_273
f 1/1/1 3/3/3 2/2/2
f 2/2/2 3/3/3 4/4/4
f 5/5/5 7/7/7 6/6/6
f 6/6/6 7/7/7 8/8/8
f 9/9/9 11/11/11 10/10/10
f 10/10/10 11/11/11 12/12/12
