#Building_small_t1.071_33343_359.obj

v -0.9569615 2.25445 -0.001043143
v -0.9569615 2.254449 -1.481905
v -0.9569656 1.088182 -1.481905
v -0.9569656 1.088182 -0.001042988
v -6.870831 5.079422 -0.001043042
v -6.870831 5.079422 -1.481905
v -6.870827 6.245689 -1.481905
v -6.870827 6.245689 -0.001043198
v -6.87084 2.574669 -0.001043186
v -6.87084 2.574669 -1.481905
v -6.870836 3.740936 -1.481905
v -6.870836 3.740936 -0.001042864
v -3.462802 7.447177 -0.001043358
v -3.462802 7.447177 -1.481905
v -2.879673 7.447175 -1.481905
v -2.879673 7.447175 -0.001043358
v -4.045932 7.447179 -0.001043358
v -4.045932 7.447179 -1.481905
v -4.629062 7.447174 -0.001043358
v -4.629062 7.447174 -1.481905
v -4.045932 7.447179 -1.481905
v -4.045932 7.447179 -0.001043358
v 0.775255 -4.040677 -0.001042305
v 0.775255 -4.040677 -1.481905
v 0.7752509 -5.206944 -1.481905
v 0.7752509 -5.206944 -0.001042626
v 0.7752463 -6.504712 -0.001042454
v 0.7752463 -6.504712 -1.481905
v 0.7752421 -7.670979 -1.481904
v 0.7752421 -7.670979 -0.001042298
v -0.53122 -8.962822 -0.001042126
v -0.53122 -8.962822 -1.481904
v -1.69748 -8.962818 -1.481904
v -1.69748 -8.962817 -0.001042126
v -3.656464 -8.962826 -0.001042126
v -3.656464 -8.962826 -1.481904
v -4.822724 -8.962822 -1.481904
v -4.822724 -8.962822 -0.001042126
v -6.100548 -6.718112 -0.001042425
v -6.100548 -6.718112 -1.481905
v -6.100544 -5.551852 -1.481905
v -6.100544 -5.551852 -0.00104258

vn 1 0 -3.516674E-06
vn 1 0 -3.516674E-06
vn 1 0 -3.516674E-06
vn 1 0 -3.516674E-06
vn -1 0 3.516674E-06
vn -1 0 3.516674E-06
vn -1 0 3.516674E-06
vn -1 0 3.516674E-06
vn -1 0 3.516674E-06
vn -1 0 3.516674E-06
vn -1 0 3.516674E-06
vn -1 0 3.516674E-06
vn -3.516674E-06 5.960464E-08 -1
vn -3.516674E-06 5.960464E-08 -1
vn -3.516674E-06 5.960464E-08 -1
vn -3.516674E-06 5.960464E-08 -1
vn -3.516674E-06 5.960464E-08 -1
vn -3.516674E-06 5.960464E-08 -1
vn -3.516674E-06 5.960464E-08 -1
vn -3.516674E-06 5.960464E-08 -1
vn -3.516674E-06 5.960464E-08 -1
vn -3.516674E-06 5.960464E-08 -1
vn 1 0 -3.516674E-06
vn 1 0 -3.516674E-06
vn 1 0 -3.516674E-06
vn 1 0 -3.516674E-06
vn 1 0 -3.516674E-06
vn 1 0 -3.516674E-06
vn 1 0 -3.516674E-06
vn 1 0 -3.516674E-06
vn 3.516674E-06 -5.960464E-08 1
vn 3.516674E-06 -5.960464E-08 1
vn 3.516674E-06 -5.960464E-08 1
vn 3.516674E-06 -5.960464E-08 1
vn 3.516674E-06 -5.960464E-08 1
vn 3.516674E-06 -5.960464E-08 1
vn 3.516674E-06 -5.960464E-08 1
vn 3.516674E-06 -5.960464E-08 1
vn -1 0 3.516674E-06
vn -1 0 3.516674E-06
vn -1 0 3.516674E-06
vn -1 0 3.516674E-06

vt 0 1
vt 3.576279E-07 1.192093E-07
vt 1 0
vt 0.9995117 0.9995117
vt 0 1
vt 3.576279E-07 1.192093E-07
vt 1 0
vt 0.9995117 0.9995117
vt 0 1
vt 3.576279E-07 1.192093E-07
vt 1 0
vt 0.9995117 0.9995117
vt 0.4997559 1
vt 0.5 5.960464E-08
vt 1 0
vt 0.9995117 0.9995117
vt 0 1
vt 3.576279E-07 1.192093E-07
vt 0 1
vt 3.576279E-07 1.192093E-07
vt 0.5 5.960464E-08
vt 0.4997559 1
vt 0 1
vt 3.576279E-07 1.192093E-07
vt 1 0
vt 0.9995117 0.9995117
vt 0 1
vt 3.576279E-07 1.192093E-07
vt 1 0
vt 0.9995117 0.9995117
vt 0 1
vt 3.576279E-07 1.192093E-07
vt 1 0
vt 0.9995117 0.9995117
vt 0 1
vt 3.576279E-07 1.192093E-07
vt 1 0
vt 0.9995117 0.9995117
vt 0 1
vt 3.576279E-07 1.192093E-07
vt 1 0
vt 0.9995117 0.9995117

g Building_small_t1.071_33343_359
usemtl Building_small_t1.071_33343_359
usemap Building_small_t1.071_33343_359
f 1/1/1 3/3/3 2/2/2
f 1/1/1 4/4/4 3/3/3
f 5/5/5 7/7/7 6/6/6
f 5/5/5 8/8/8 7/7/7
f 9/9/9 11/11/11 10/10/10
f 9/9/9 12/12/12 11/11/11
f 13/13/13 15/15/15 14/14/14
f 13/13/13 16/16/16 15/15/15
f 17/17/17 13/13/13 14/14/14
f 17/17/17 14/14/14 18/18/18
f 19/19/19 21/21/21 20/20/20
f 19/19/19 22/22/22 21/21/21
f 23/23/23 25/25/25 24/24/24
f 23/23/23 26/26/26 25/25/25
f 27/27/27 29/29/29 28/28/28
f 27/27/27 30/30/30 29/29/29
f 31/31/31 33/33/33 32/32/32
f 31/31/31 34/34/34 33/33/33
f 35/35/35 37/37/37 36/36/36
f 35/35/35 38/38/38 37/37/37
f 39/39/39 41/41/41 40/40/40
f 39/39/39 42/42/42 41/41/41
