#Building.034_34557_259.obj

v -0.9569435 0.1000979 -0.001042856
v -0.9569511 0.1000977 -1.481905
v -0.9569455 -1.066162 -1.481905
v -0.9569455 -1.066162 -0.001042701
v -0.9569482 6.147583 -0.001042231
v -0.9569482 6.147583 -1.481904
v -0.9569502 4.981262 -1.481905
v -0.9569502 4.981263 -0.001042553
v -4.045914 -2.158503 -0.001042555
v -4.045914 -2.158503 -1.481905
v -4.629044 -2.158502 -1.481905
v -4.629044 -2.158502 -0.001042555
v -3.462784 -2.158504 -0.001042555
v -3.462784 -2.158504 -1.481905
v -2.879647 -2.158505 -0.001042555
v -2.879647 -2.158505 -1.481905
v -3.462784 -2.158504 -1.481905
v -3.462784 -2.158504 -0.001042555
v -3.462782 7.447148 -0.001041927
v -3.462782 7.447148 -1.481904
v -2.879653 7.447147 -1.481904
v -2.879653 7.447147 -0.001042404
v -4.045912 7.447149 -0.001041927
v -4.045912 7.447149 -1.481904
v -4.629042 7.44715 -0.001041927
v -4.629042 7.44715 -1.481904
v -4.045912 7.447149 -1.481904
v -4.045912 7.447149 -0.001041927

vn 1 -5.960464E-08 -1.728535E-06
vn 1 -5.960464E-08 -1.728535E-06
vn 1 -5.960464E-08 -1.728535E-06
vn 1 -5.960464E-08 -1.728535E-06
vn 1 -5.960464E-08 -1.728535E-06
vn 1 -5.960464E-08 -1.728535E-06
vn 1 -5.960464E-08 -1.728535E-06
vn 1 -5.960464E-08 -1.728535E-06
vn 1.728535E-06 -1.788139E-07 0.9995117
vn 1.728535E-06 -1.788139E-07 0.9995117
vn 1.728535E-06 -1.788139E-07 0.9995117
vn 1.728535E-06 -1.788139E-07 0.9995117
vn 1.728535E-06 -1.788139E-07 0.9995117
vn 1.728535E-06 -1.788139E-07 0.9995117
vn 1.728535E-06 -1.788139E-07 0.9995117
vn 1.728535E-06 -1.788139E-07 0.9995117
vn 1.728535E-06 -1.788139E-07 0.9995117
vn 1.728535E-06 -1.788139E-07 0.9995117
vn -1.728535E-06 1.788139E-07 -0.9995117
vn -1.728535E-06 1.788139E-07 -0.9995117
vn -1.728535E-06 1.788139E-07 -0.9995117
vn -1.728535E-06 1.788139E-07 -0.9995117
vn -1.728535E-06 1.788139E-07 -0.9995117
vn -1.728535E-06 1.788139E-07 -0.9995117
vn -1.728535E-06 1.788139E-07 -0.9995117
vn -1.728535E-06 1.788139E-07 -0.9995117
vn -1.728535E-06 1.788139E-07 -0.9995117
vn -1.728535E-06 1.788139E-07 -0.9995117

vt 0 1
vt 3.576279E-07 1.192093E-07
vt 1 0
vt 0.9995117 0.9995117
vt 0 1
vt 3.576279E-07 1.192093E-07
vt 1 0
vt 0.9995117 0.9995117
vt 0.4997559 1
vt 0.5 5.960464E-08
vt 1 0
vt 0.9995117 0.9995117
vt 0 1
vt 3.576279E-07 1.192093E-07
vt 0 1
vt 3.576279E-07 1.192093E-07
vt 0.5 5.960464E-08
vt 0.4997559 1
vt 0.4997559 1
vt 0.5 5.960464E-08
vt 1 0
vt 0.9995117 0.9995117
vt 0 1
vt 3.576279E-07 1.192093E-07
vt 0 1
vt 3.576279E-07 1.192093E-07
vt 0.5 5.960464E-08
vt 0.4997559 1

g Building.034_34557_259
usemtl Building.034_34557_259
usemap Building.034_34557_259
f 1/1/1 3/3/3 2/2/2
f 1/1/1 4/4/4 3/3/3
f 5/5/5 7/7/7 6/6/6
f 5/5/5 8/8/8 7/7/7
f 9/9/9 11/11/11 10/10/10
f 9/9/9 12/12/12 11/11/11
f 13/13/13 9/9/9 10/10/10
f 13/13/13 10/10/10 14/14/14
f 15/15/15 17/17/17 16/16/16
f 15/15/15 18/18/18 17/17/17
f 19/19/19 21/21/21 20/20/20
f 19/19/19 22/22/22 21/21/21
f 23/23/23 19/19/19 20/20/20
f 23/23/23 20/20/20 24/24/24
f 25/25/25 27/27/27 26/26/26
f 25/25/25 28/28/28 27/27/27
