#Building_small_t1.039_33564_332.obj

v -2.053036 -2.847234 4.178007
v -2.053036 -2.847234 3.482283
v -6.289303 -2.847239 4.178007
v -6.289303 -2.847239 3.482283
v -6.2893 -5.56013 4.178007
v -6.2893 -5.56013 3.482282
v -2.053033 -5.560125 4.178007
v -2.053033 -5.560125 3.482283
v -2.053033 -5.560125 4.178007
v -2.053033 -5.560125 3.482283
v -2.053036 -2.847234 4.178007
v -2.053036 -2.847234 3.482283
v -6.289303 -2.847239 4.178007
v -6.289303 -2.847239 3.482283
v -6.2893 -5.56013 4.178007
v -6.2893 -5.56013 3.482282

vn 1 1.192093E-07 -1.072884E-06
vn 1 1.192093E-07 -1.072884E-06
vn 1 1.192093E-07 -1.072884E-06
vn 1 1.192093E-07 -1.072884E-06
vn -1 -1.192093E-07 1.072884E-06
vn -1 -1.192093E-07 1.072884E-06
vn -1 -1.192093E-07 1.072884E-06
vn -1 -1.192093E-07 1.072884E-06
vn -1.132488E-06 5.960464E-08 -1
vn -1.132488E-06 5.960464E-08 -1
vn -1.132488E-06 5.960464E-08 -1
vn -1.132488E-06 5.960464E-08 -1
vn 1.132488E-06 -5.960464E-08 1
vn 1.132488E-06 -5.960464E-08 1
vn 1.132488E-06 -5.960464E-08 1
vn 1.132488E-06 -5.960464E-08 1

vt 3.566406 -0.1116943
vt 3.566406 0.1953125
vt 1.697266 -0.1116943
vt 1.697266 0.1953125
vt 0.4997559 -0.1116943
vt 0.4997559 0.1953125
vt -1.369141 -0.1116943
vt -1.369141 0.1953125
vt -1.369141 -0.1116943
vt -1.369141 0.1953125
vt -2.566406 -0.1116943
vt -2.566406 0.1953125
vt 1.697266 -0.1116943
vt 1.697266 0.1953125
vt 0.4997559 -0.1116943
vt 0.4997559 0.1953125

g Building_small_t1.039_33564_332
usemtl Building_small_t1.039_33564_332
usemap Building_small_t1.039_33564_332
f 1/1/1 3/3/3 2/2/2
f 2/2/2 3/3/3 4/4/4
f 5/5/5 7/7/7 6/6/6
f 6/6/6 7/7/7 8/8/8
f 9/9/9 11/11/11 10/10/10
f 10/10/10 11/11/11 12/12/12
f 13/13/13 15/15/15 14/14/14
f 14/14/14 15/15/15 16/16/16
