#Building_t4.004_33982_194.obj

v -1.472573 -1.007248 -0.7377146
v -1.472573 -1.007248 -0.9043456
v -2.708863 -1.007246 -0.9043458
v -2.708863 -1.007246 -0.7377147
v -2.708864 1.081738 -0.7377147
v -2.708864 1.081738 -0.9043458
v -1.472574 1.081736 -0.9043456
v -1.472574 1.081736 -0.7377146
v -0.2362892 1.081744 -0.7377145
v -0.2362892 1.081744 -0.9043456
v 1.000001 1.081741 -0.9043455
v 1.000001 1.081741 -0.7377145
v 1.000002 -1.007252 -0.7377145
v 1.000002 -1.007252 -0.9043455
v -0.236288 -1.00725 -0.9043456
v -0.236288 -1.00725 -0.7377145
v 1.000001 1.081741 -0.7377145
v 1.000001 1.081741 -0.9043455
v 1.000002 -1.007252 -0.9043455
v 1.000002 -1.007252 -0.7377145
v -1.472574 1.081736 -0.7377146
v -1.472574 1.081736 -0.9043456
v -1.472573 -1.007248 -0.9043456
v -1.472573 -1.007248 -0.7377146
v -2.708863 -1.007246 -0.7377147
v -2.708863 -1.007246 -0.9043458
v -2.708864 1.081738 -0.9043458
v -2.708864 1.081738 -0.7377147
v -0.236288 -1.00725 -0.7377145
v -0.236288 -1.00725 -0.9043456
v -0.2362892 1.081744 -0.9043456
v -0.2362892 1.081744 -0.7377145

vn -1 0 1.66893E-06
vn -1 0 1.66893E-06
vn -1 0 1.66893E-06
vn -1 0 1.66893E-06
vn 1 0 -1.66893E-06
vn 1 0 -1.66893E-06
vn 1 0 -1.66893E-06
vn 1 0 -1.66893E-06
vn 1 0 -1.66893E-06
vn 1 0 -1.66893E-06
vn 1 0 -1.66893E-06
vn 1 0 -1.66893E-06
vn -1 0 1.66893E-06
vn -1 0 1.66893E-06
vn -1 0 1.66893E-06
vn -1 0 1.66893E-06
vn 1.728535E-06 5.960464E-08 1
vn 1.728535E-06 5.960464E-08 1
vn 1.728535E-06 5.960464E-08 1
vn 1.728535E-06 5.960464E-08 1
vn 1.728535E-06 5.960464E-08 1
vn 1.728535E-06 5.960464E-08 1
vn 1.728535E-06 5.960464E-08 1
vn 1.728535E-06 5.960464E-08 1
vn -1.728535E-06 -5.960464E-08 -1
vn -1.728535E-06 -5.960464E-08 -1
vn -1.728535E-06 -5.960464E-08 -1
vn -1.728535E-06 -5.960464E-08 -1
vn -1.728535E-06 -5.960464E-08 -1
vn -1.728535E-06 -5.960464E-08 -1
vn -1.728535E-06 -5.960464E-08 -1
vn -1.728535E-06 -5.960464E-08 -1

vt -2.632813 1
vt -2.632813 1.788139E-07
vt -1.467773 -4.768372E-07
vt -1.467773 1
vt 0.5 0.9995117
vt 0.5 -4.768372E-07
vt 1.664063 -4.768372E-07
vt 1.664063 0.9995117
vt 0.5 1
vt 0.5 1.788139E-07
vt 1.664063 9.536743E-07
vt 1.664063 0.9995117
vt -2.632813 1
vt -2.632813 -4.768372E-07
vt -1.467773 -4.768372E-07
vt -1.467773 1
vt 1.664063 0.9995117
vt 1.664063 9.536743E-07
vt 3.632813 2.086163E-06
vt 3.632813 0.9995117
vt 1.664063 0.9995117
vt 1.664063 -4.768372E-07
vt 3.632813 1.788139E-07
vt 3.632813 0.9995117
vt -1.467773 1
vt -1.467773 -4.768372E-07
vt 0.5 -4.768372E-07
vt 0.5 0.9995117
vt -1.467773 1
vt -1.467773 -4.768372E-07
vt 0.5 1.788139E-07
vt 0.5 1

g Building_t4.004_33982_194
usemtl Building_t4.004_33982_194
usemap Building_t4.004_33982_194
f 1/1/1 3/3/3 2/2/2
f 1/1/1 4/4/4 3/3/3
f 5/5/5 7/7/7 6/6/6
f 5/5/5 8/8/8 7/7/7
f 9/9/9 11/11/11 10/10/10
f 9/9/9 12/12/12 11/11/11
f 13/13/13 15/15/15 14/14/14
f 13/13/13 16/16/16 15/15/15
f 17/17/17 19/19/19 18/18/18
f 17/17/17 20/20/20 19/19/19
f 21/21/21 23/23/23 22/22/22
f 21/21/21 24/24/24 23/23/23
f 25/25/25 27/27/27 26/26/26
f 25/25/25 28/28/28 27/27/27
f 29/29/29 31/31/31 30/30/30
f 29/29/29 32/32/32 31/31/31
