#Building_small_t1.008_33042_590.obj

v -0.8320764 -7.510385 0.5438312
v -0.8320765 -7.510358 0.8882251
v -6.965271 -7.510336 0.5438329
v -6.965271 -7.510371 0.8882245
v -6.965271 -7.510336 0.5438329
v -6.965271 -7.510371 0.8882245
v -6.965271 7.496286 0.54383
v -6.965271 7.496312 0.8882239
v -0.8320624 7.496299 0.5438306
v -0.8320624 7.496325 0.8882246
v -0.8320764 -7.510385 0.5438312
v -0.8320765 -7.510358 0.8882251
v -6.801926 7.373706 0.4621899
v -6.965271 7.496286 0.54383
v -0.9954075 7.373718 0.4621904
v -0.8320624 7.496299 0.5438306
v -0.9954067 -7.387791 0.462191
v -0.8320764 -7.510385 0.5438312
v -6.801925 -7.387804 0.4621904
v -6.965271 -7.510336 0.5438329
v -6.801925 -7.387804 0.4621904
v -6.965271 -7.510336 0.5438329
v -6.801926 7.373706 0.4621899
v -6.965271 7.496286 0.54383
v -6.965271 7.496286 0.54383
v -6.965271 7.496312 0.8882239
v -0.8320624 7.496299 0.5438306
v -0.8320624 7.496325 0.8882246
v -0.9954075 7.373718 0.4621904
v -0.8320624 7.496299 0.5438306
v -0.9954067 -7.387791 0.462191
v -0.8320764 -7.510385 0.5438312

vn 2.086163E-06 0.03817749 0.9990234
vn 2.086163E-06 0.03817749 0.9990234
vn 2.086163E-06 0.03817749 0.9990234
vn 2.086163E-06 0.03817749 0.9990234
vn 1 0 -2.086163E-06
vn 1 0 -2.086163E-06
vn 1 0 -2.086163E-06
vn 1 0 -2.086163E-06
vn -1 0 2.086163E-06
vn -1 0 2.086163E-06
vn -1 0 2.086163E-06
vn -1 0 2.086163E-06
vn -1.072884E-06 -0.8525391 -0.5219727
vn -1.072884E-06 -0.8525391 -0.5219727
vn -1.072884E-06 -0.8525391 -0.5219727
vn -1.072884E-06 -0.8525391 -0.5219727
vn 1.192093E-06 -0.8100586 0.5854492
vn 1.192093E-06 -0.8100586 0.5854492
vn 1.192093E-06 -0.8100586 0.5854492
vn 1.192093E-06 -0.8100586 0.5854492
vn 0.4470215 -0.8935547 0.03414917
vn 0.4470215 -0.8935547 0.03414917
vn 0.4470215 -0.8935547 0.03414917
vn 0.4470215 -0.8935547 0.03414917
vn -2.086163E-06 -0.03817749 -0.9990234
vn -2.086163E-06 -0.03817749 -0.9990234
vn -2.086163E-06 -0.03817749 -0.9990234
vn -2.086163E-06 -0.03817749 -0.9990234
vn -0.4470215 -0.8935547 0.03414917
vn -0.4470215 -0.8935547 0.03414917
vn -0.4470215 -0.8935547 0.03414917
vn -0.4470215 -0.8935547 0.03414917

vt -2.595703 0.4140625
vt -2.595703 0.1929932
vt 1.342773 0.4140625
vt 1.342773 0.1929932
vt 9.921875 0.4140625
vt 9.921875 0.1929932
vt 0.2861328 0.4140625
vt 0.2861328 0.1929932
vt -8.703125 0.4140625
vt -8.703125 0.1929932
vt 0.9326172 0.4140625
vt 0.9326172 0.1929932
vt 5.089844 0.3649902
vt 5.195313 0.2861328
vt 1.361328 0.3649902
vt 1.256836 0.2861328
vt -2.490234 0.8540039
vt -2.595703 0.9326172
vt 1.237305 0.8540039
vt 1.342773 0.9326172
vt 6.027344 5.167969
vt 6.105469 5.0625
vt -3.449219 5.167969
vt -3.527344 5.0625
vt 5.195313 0.4140625
vt 5.195313 0.1929932
vt 1.256836 0.4140625
vt 1.256836 0.1929932
vt -3.429688 -3.9375
vt -3.507813 -3.832031
vt 6.046875 -3.9375
vt 6.125 -3.832031

g Building_small_t1.008_33042_590
usemtl Building_small_t1.008_33042_590
usemap Building_small_t1.008_33042_590
f 1/1/1 3/3/3 2/2/2
f 2/2/2 3/3/3 4/4/4
f 5/5/5 7/7/7 6/6/6
f 6/6/6 7/7/7 8/8/8
f 9/9/9 11/11/11 10/10/10
f 10/10/10 11/11/11 12/12/12
f 13/13/13 15/15/15 14/14/14
f 14/14/14 15/15/15 16/16/16
f 17/17/17 19/19/19 18/18/18
f 18/18/18 19/19/19 20/20/20
f 21/21/21 23/23/23 22/22/22
f 22/22/22 23/23/23 24/24/24
f 25/25/25 27/27/27 26/26/26
f 26/26/26 27/27/27 28/28/28
f 29/29/29 31/31/31 30/30/30
f 30/30/30 31/31/31 32/32/32
