#Building_small_t1.038_36216_170.obj

v -0.07889371 0.8242139 -0.1467998
v -0.07891933 0.8242136 -2.417071
v -0.07892555 -1.02918 -2.41707
v -0.07889993 -1.02918 -0.1467995
v -0.07889371 0.8242139 -0.1467998
v -0.07889993 -1.02918 -0.1467995
v -0.1804015 -1.029179 -0.1467996
v -0.1803953 0.8242142 -0.1467996
v -0.07889993 -1.02918 -0.1467995
v -0.07892555 -1.02918 -2.41707
v -0.1804271 -1.02918 -2.417071
v -0.1804015 -1.029179 -0.1467996
v -0.07891933 0.8242136 -2.417071
v -0.07889371 0.8242139 -0.1467998
v -0.1803953 0.8242142 -0.1467996
v -0.1804209 0.8242139 -2.417071
v -0.07892555 -1.02918 -2.41707
v -0.07891933 0.8242136 -2.417071
v -0.1804209 0.8242139 -2.417071
v -0.1804271 -1.02918 -2.417071

vn 0.9995117 -0.001386642 -3.33786E-06
vn 0.9995117 -0.001386642 -3.33786E-06
vn 0.9995117 -0.001386642 -3.33786E-06
vn 0.9995117 -0.001386642 -3.33786E-06
vn 0.001386642 0.9995117 2.980232E-07
vn 0.001386642 0.9995117 2.980232E-07
vn 0.001386642 0.9995117 2.980232E-07
vn 0.001386642 0.9995117 2.980232E-07
vn 3.33786E-06 -5.960464E-08 1
vn 3.33786E-06 -5.960464E-08 1
vn 3.33786E-06 -5.960464E-08 1
vn 3.33786E-06 -5.960464E-08 1
vn -3.33786E-06 5.960464E-08 -1
vn -3.33786E-06 5.960464E-08 -1
vn -3.33786E-06 5.960464E-08 -1
vn -3.33786E-06 5.960464E-08 -1
vn -0.001386642 -0.9995117 -2.980232E-07
vn -0.001386642 -0.9995117 -2.980232E-07
vn -0.001386642 -0.9995117 -2.980232E-07
vn -0.001386642 -0.9995117 -2.980232E-07

vt 0 0
vt 0 1
vt 1 1
vt 1 0
vt 0 0
vt 1 0
vt 1 0
vt 0 0
vt 1 0
vt 1 1
vt 1 1
vt 1 0
vt 0 1
vt 0 0
vt 0 0
vt 0 1
vt 1 1
vt 0 1
vt 0 1
vt 1 1

g Building_small_t1.038_36216_170
usemtl Building_small_t1.038_36216_170
usemap Building_small_t1.038_36216_170
f 1/1/1 3/3/3 2/2/2
f 1/1/1 4/4/4 3/3/3
f 5/5/5 7/7/7 6/6/6
f 5/5/5 8/8/8 7/7/7
f 9/9/9 11/11/11 10/10/10
f 9/9/9 12/12/12 11/11/11
f 13/13/13 15/15/15 14/14/14
f 13/13/13 16/16/16 15/15/15
f 17/17/17 19/19/19 18/18/18
f 17/17/17 20/20/20 19/19/19
