#Building.002_34961_231.obj

v -0.9569808 -5.112581 -0.001042639
v -0.9569808 -5.112582 -1.481905
v -0.9569216 -6.278841 -1.481905
v -0.9569216 -6.278841 -0.001042484
v -0.9569768 -2.607821 -0.001042496
v -0.9569768 -2.607821 -1.481905
v -0.9569786 -3.774081 -1.481905
v -0.9569786 -3.774081 -0.00104234
v -0.9569666 3.839079 -0.001042877
v -0.9569666 3.839079 -1.481905
v -0.9569685 2.672788 -1.481905
v -0.9569685 2.672788 -0.001043199
v -0.956963 6.147551 -0.001043185
v -0.956963 6.14755 -1.481905
v -0.9569649 4.98129 -1.481905
v -0.9569649 4.981291 -0.001043029
v -4.045913 -7.499326 -0.001042321
v -4.045913 -7.499326 -1.481905
v -4.629043 -7.499325 -1.481905
v -4.629043 -7.499325 -0.001042321
v -3.462783 -7.499327 -0.001042321
v -3.462783 -7.499327 -1.481905
v -2.879653 -7.499328 -0.001042321
v -2.879653 -7.499328 -1.481905
v -3.462783 -7.499327 -1.481905
v -3.462783 -7.499327 -0.001042321
v -3.46282 7.447176 -0.001043358
v -3.46282 7.447176 -1.481905
v -2.879629 7.447175 -1.481905
v -2.879629 7.447175 -0.001043358
v -4.04595 7.447177 -0.001043358
v -4.04595 7.447176 -1.481905
v -4.62908 7.447178 -0.001043358
v -4.62908 7.447177 -1.481905
v -4.04595 7.447176 -1.481905
v -4.04595 7.447177 -0.001043358

vn 1 0 -1.549721E-06
vn 1 0 -1.549721E-06
vn 1 0 -1.549721E-06
vn 1 0 -1.549721E-06
vn 1 0 -1.549721E-06
vn 1 0 -1.549721E-06
vn 1 0 -1.549721E-06
vn 1 0 -1.549721E-06
vn 1 0 -1.549721E-06
vn 1 0 -1.549721E-06
vn 1 0 -1.549721E-06
vn 1 0 -1.549721E-06
vn 1 0 -1.549721E-06
vn 1 0 -1.549721E-06
vn 1 0 -1.549721E-06
vn 1 0 -1.549721E-06
vn 1.549721E-06 -5.960464E-08 1
vn 1.549721E-06 -5.960464E-08 1
vn 1.549721E-06 -5.960464E-08 1
vn 1.549721E-06 -5.960464E-08 1
vn 1.549721E-06 -5.960464E-08 1
vn 1.549721E-06 -5.960464E-08 1
vn 1.549721E-06 -5.960464E-08 1
vn 1.549721E-06 -5.960464E-08 1
vn 1.549721E-06 -5.960464E-08 1
vn 1.549721E-06 -5.960464E-08 1
vn -1.549721E-06 5.960464E-08 -1
vn -1.549721E-06 5.960464E-08 -1
vn -1.549721E-06 5.960464E-08 -1
vn -1.549721E-06 5.960464E-08 -1
vn -1.549721E-06 5.960464E-08 -1
vn -1.549721E-06 5.960464E-08 -1
vn -1.549721E-06 5.960464E-08 -1
vn -1.549721E-06 5.960464E-08 -1
vn -1.549721E-06 5.960464E-08 -1
vn -1.549721E-06 5.960464E-08 -1

vt 0 1
vt 3.576279E-07 1.192093E-07
vt 1 0
vt 0.9995117 0.9995117
vt 0 1
vt 3.576279E-07 1.192093E-07
vt 1 0
vt 0.9995117 0.9995117
vt 0 1
vt 3.576279E-07 1.192093E-07
vt 1 0
vt 0.9995117 0.9995117
vt 0 1
vt 3.576279E-07 1.192093E-07
vt 1 0
vt 0.9995117 0.9995117
vt 0.4997559 1
vt 0.5 5.960464E-08
vt 1 0
vt 0.9995117 0.9995117
vt 0 1
vt 3.576279E-07 1.192093E-07
vt 0 1
vt 3.576279E-07 1.192093E-07
vt 0.5 5.960464E-08
vt 0.4997559 1
vt 0.4997559 1
vt 0.5 5.960464E-08
vt 1 0
vt 0.9995117 0.9995117
vt 0 1
vt 3.576279E-07 1.192093E-07
vt 0 1
vt 3.576279E-07 1.192093E-07
vt 0.5 5.960464E-08
vt 0.4997559 1

g Building.002_34961_231
usemtl Building.002_34961_231
usemap Building.002_34961_231
f 1/1/1 3/3/3 2/2/2
f 1/1/1 4/4/4 3/3/3
f 5/5/5 7/7/7 6/6/6
f 5/5/5 8/8/8 7/7/7
f 9/9/9 11/11/11 10/10/10
f 9/9/9 12/12/12 11/11/11
f 13/13/13 15/15/15 14/14/14
f 13/13/13 16/16/16 15/15/15
f 17/17/17 19/19/19 18/18/18
f 17/17/17 20/20/20 19/19/19
f 21/21/21 17/17/17 18/18/18
f 21/21/21 18/18/18 22/22/22
f 23/23/23 25/25/25 24/24/24
f 23/23/23 26/26/26 25/25/25
f 27/27/27 29/29/29 28/28/28
f 27/27/27 30/30/30 29/29/29
f 31/31/31 27/27/27 28/28/28
f 31/31/31 28/28/28 32/32/32
f 33/33/33 35/35/35 34/34/34
f 33/33/33 36/36/36 35/35/35
