#Building_small_t1.001_36840_483.obj

v -0.956987 -5.11258 -0.001043116
v -0.956987 -5.11258 -1.481905
v -0.956928 -6.27884 -1.481905
v -0.956928 -6.27884 -0.00104296
v -0.9569745 2.029449 -0.001042636
v -0.9569745 2.029449 -1.481905
v -0.9569765 0.8631886 -1.481905
v -0.9569765 0.8631888 -0.001042481
v -0.8947872 -2.25406 -0.00104302
v -0.8947872 -2.25406 -1.481905
v -0.8947882 -2.83719 -1.481905
v -0.8947882 -2.83719 -0.001042942
v -0.8947861 -1.67093 -0.00104262
v -0.8947861 -1.67093 -1.481905
v -0.8947851 -1.0878 -0.001042698
v -0.8947851 -1.0878 -1.481905
v -0.8947861 -1.67093 -1.481905
v -0.8947861 -1.67093 -0.00104262
v -3.462824 7.447177 -0.001041927
v -3.462824 7.447177 -1.481904
v -2.879694 7.447176 -1.481904
v -2.879694 7.447176 -0.001042404
v -4.045954 7.447179 -0.001041927
v -4.045954 7.447178 -1.481904
v -4.629084 7.44718 -0.001041927
v -4.629084 7.447179 -1.481904
v -4.045954 7.447178 -1.481904
v -4.045954 7.447179 -0.001041927
v -3.681301 -10.82901 -0.001042831
v -3.681301 -10.82901 -1.481905
v -4.264431 -10.82901 -1.481905
v -4.264431 -10.82901 -0.001042831
v -3.098171 -10.82901 -0.001042831
v -3.098171 -10.82901 -1.481905
v -2.515041 -10.82901 -0.001043308
v -2.515041 -10.82901 -1.481905
v -3.098171 -10.82901 -1.481905
v -3.098171 -10.82901 -0.001042831
v -0.09694577 -8.055696 -0.001043201
v -0.09694577 -8.055697 -1.481905
v -0.09694781 -9.221957 -1.481905
v -0.09694781 -9.221956 -0.001043045

vn 1 -5.960464E-08 -1.728535E-06
vn 1 -5.960464E-08 -1.728535E-06
vn 1 -5.960464E-08 -1.728535E-06
vn 1 -5.960464E-08 -1.728535E-06
vn 1 -5.960464E-08 -1.728535E-06
vn 1 -5.960464E-08 -1.728535E-06
vn 1 -5.960464E-08 -1.728535E-06
vn 1 -5.960464E-08 -1.728535E-06
vn 1 -5.960464E-08 -1.728535E-06
vn 1 -5.960464E-08 -1.728535E-06
vn 1 -5.960464E-08 -1.728535E-06
vn 1 -5.960464E-08 -1.728535E-06
vn 1 -5.960464E-08 -1.728535E-06
vn 1 -5.960464E-08 -1.728535E-06
vn 1 -5.960464E-08 -1.728535E-06
vn 1 -5.960464E-08 -1.728535E-06
vn 1 -5.960464E-08 -1.728535E-06
vn 1 -5.960464E-08 -1.728535E-06
vn -1.728535E-06 1.788139E-07 -0.9995117
vn -1.728535E-06 1.788139E-07 -0.9995117
vn -1.728535E-06 1.788139E-07 -0.9995117
vn -1.728535E-06 1.788139E-07 -0.9995117
vn -1.728535E-06 1.788139E-07 -0.9995117
vn -1.728535E-06 1.788139E-07 -0.9995117
vn -1.728535E-06 1.788139E-07 -0.9995117
vn -1.728535E-06 1.788139E-07 -0.9995117
vn -1.728535E-06 1.788139E-07 -0.9995117
vn -1.728535E-06 1.788139E-07 -0.9995117
vn 1.728535E-06 -1.788139E-07 0.9995117
vn 1.728535E-06 -1.788139E-07 0.9995117
vn 1.728535E-06 -1.788139E-07 0.9995117
vn 1.728535E-06 -1.788139E-07 0.9995117
vn 1.728535E-06 -1.788139E-07 0.9995117
vn 1.728535E-06 -1.788139E-07 0.9995117
vn 1.728535E-06 -1.788139E-07 0.9995117
vn 1.728535E-06 -1.788139E-07 0.9995117
vn 1.728535E-06 -1.788139E-07 0.9995117
vn 1.728535E-06 -1.788139E-07 0.9995117
vn 1 -5.960464E-08 -1.728535E-06
vn 1 -5.960464E-08 -1.728535E-06
vn 1 -5.960464E-08 -1.728535E-06
vn 1 -5.960464E-08 -1.728535E-06

vt 0 1
vt 3.576279E-07 1.192093E-07
vt 1 0
vt 0.9995117 0.9995117
vt 0 1
vt 3.576279E-07 1.192093E-07
vt 1 0
vt 0.9995117 0.9995117
vt 0.4997559 1
vt 0.5 5.960464E-08
vt 1 0
vt 0.9995117 0.9995117
vt 0 1
vt 3.576279E-07 1.192093E-07
vt 0 1
vt 3.576279E-07 1.192093E-07
vt 0.5 5.960464E-08
vt 0.4997559 1
vt 0.4997559 1
vt 0.5 5.960464E-08
vt 1 0
vt 0.9995117 0.9995117
vt 0 1
vt 3.576279E-07 1.192093E-07
vt 0 1
vt 3.576279E-07 1.192093E-07
vt 0.5 5.960464E-08
vt 0.4997559 1
vt 0.4997559 1
vt 0.5 5.960464E-08
vt 1 0
vt 0.9995117 0.9995117
vt 0 1
vt 3.576279E-07 1.192093E-07
vt 0 1
vt 3.576279E-07 1.192093E-07
vt 0.5 5.960464E-08
vt 0.4997559 1
vt 0 1
vt 3.576279E-07 1.192093E-07
vt 1 0
vt 0.9995117 0.9995117

g Building_small_t1.001_36840_483
usemtl Building_small_t1.001_36840_483
usemap Building_small_t1.001_36840_483
f 1/1/1 3/3/3 2/2/2
f 1/1/1 4/4/4 3/3/3
f 5/5/5 7/7/7 6/6/6
f 5/5/5 8/8/8 7/7/7
f 9/9/9 11/11/11 10/10/10
f 9/9/9 12/12/12 11/11/11
f 13/13/13 9/9/9 10/10/10
f 13/13/13 10/10/10 14/14/14
f 15/15/15 17/17/17 16/16/16
f 15/15/15 18/18/18 17/17/17
f 19/19/19 21/21/21 20/20/20
f 19/19/19 22/22/22 21/21/21
f 23/23/23 19/19/19 20/20/20
f 23/23/23 20/20/20 24/24/24
f 25/25/25 27/27/27 26/26/26
f 25/25/25 28/28/28 27/27/27
f 29/29/29 31/31/31 30/30/30
f 29/29/29 32/32/32 31/31/31
f 33/33/33 29/29/29 30/30/30
f 33/33/33 30/30/30 34/34/34
f 35/35/35 37/37/37 36/36/36
f 35/35/35 38/38/38 37/37/37
f 39/39/39 41/41/41 40/40/40
f 39/39/39 42/42/42 41/41/41
