#Building_t8.009_33381_272.obj

v 5.289393 -9.599114 1.056242
v 5.289393 -9.599115 7.235768
v 5.296252 -3.726312 1.219083
v 5.296252 -3.726313 7.398609
v 11.44677 -9.599107 1.056242
v 11.44677 -9.599108 7.235768
v 5.289393 -9.599114 1.056242
v 5.289393 -9.599115 7.235768
v 11.49132 -3.726304 1.219083
v 11.49132 -3.726305 7.398609
v 11.44677 -9.599107 1.056242
v 11.44677 -9.599108 7.235768
v 1.102538 10.45245 1.170556
v 1.102538 10.45245 7.97364
v 11.77557 10.10896 1.170556
v 11.77557 10.10896 7.97364
v 1.347034 -3.980224 1.170555
v 1.347034 -3.980225 7.973638
v 1.102538 10.45245 1.170556
v 1.102538 10.45245 7.97364
v 11.77556 -3.98021 1.170555
v 11.77556 -3.980211 7.973638
v 1.347034 -3.980224 1.170555
v 1.347034 -3.980225 7.973638
v 11.77557 10.10896 1.170556
v 11.77557 10.10896 7.97364
v 11.77556 -3.98021 1.170555
v 11.77556 -3.980211 7.973638

vn 0.9995117 0 -0.001163483
vn 0.9995117 0 -0.001163483
vn 0.9995117 0 -0.001163483
vn 0.9995117 0 -0.001163483
vn 1.311302E-06 5.960464E-08 1
vn 1.311302E-06 5.960464E-08 1
vn 1.311302E-06 5.960464E-08 1
vn 1.311302E-06 5.960464E-08 1
vn -0.9995117 0 0.007583618
vn -0.9995117 0 0.007583618
vn -0.9995117 0 0.007583618
vn -0.9995117 0 0.007583618
vn -0.03216553 0 -0.9990234
vn -0.03216553 0 -0.9990234
vn -0.03216553 0 -0.9990234
vn -0.03216553 0 -0.9990234
vn 0.9995117 0 0.01693726
vn 0.9995117 0 0.01693726
vn 0.9995117 0 0.01693726
vn 0.9995117 0 0.01693726
vn 1.311302E-06 5.960464E-08 1
vn 1.311302E-06 5.960464E-08 1
vn 1.311302E-06 5.960464E-08 1
vn 1.311302E-06 5.960464E-08 1
vn -1 0 1.311302E-06
vn -1 0 1.311302E-06
vn -1 0 1.311302E-06
vn -1 0 1.311302E-06

vt -3.646484 -0.3366699
vt -3.646484 4.910156
vt 1.338867 -0.1983643
vt 1.338867 5.046875
vt 5.113281 -0.3366699
vt 5.113281 4.910156
vt -0.1140137 -0.3366699
vt -0.1140137 4.910156
vt 6.433594 -0.1983643
vt 6.433594 5.046875
vt 1.446289 -0.3366699
vt 1.446289 4.910156
vt -8.757813 -0.239624
vt -8.757813 5.535156
vt 0.2988281 -0.239624
vt 0.2988281 5.535156
vt -12.46094 -0.239624
vt -12.46094 5.535156
vt -0.2072754 -0.239624
vt -0.2072754 5.535156
vt 8.789063 -0.239624
vt 8.789063 5.535156
vt -0.06506348 -0.239624
vt -0.06506348 5.535156
vt 13.08594 -0.239624
vt 13.08594 5.535156
vt 1.123047 -0.239624
vt 1.123047 5.535156

g Building_t8.009_33381_272
usemtl Building_t8.009_33381_272
usemap Building_t8.009_33381_272
f 1/1/1 3/3/3 2/2/2
f 2/2/2 3/3/3 4/4/4
f 5/5/5 7/7/7 6/6/6
f 6/6/6 7/7/7 8/8/8
f 9/9/9 11/11/11 10/10/10
f 10/10/10 11/11/11 12/12/12
f 13/13/13 15/15/15 14/14/14
f 14/14/14 15/15/15 16/16/16
f 17/17/17 19/19/19 18/18/18
f 18/18/18 19/19/19 20/20/20
f 21/21/21 23/23/23 22/22/22
f 22/22/22 23/23/23 24/24/24
f 25/25/25 27/27/27 26/26/26
f 26/26/26 27/27/27 28/28/28
