#Building_small_t1.003_36300_636.obj

v 2.925213 -4.534728 0.1058666
v 2.925213 -4.534728 -1.374996
v 2.925211 -5.700988 -1.374996
v 2.925211 -5.700988 0.1058662
v -0.9569774 2.029457 -0.001042636
v -0.9569774 2.029457 -1.481905
v -0.9569795 0.8631972 -1.481905
v -0.9569795 0.8631974 -0.001042481
v -6.870852 5.079425 -0.001042089
v -6.870852 5.079424 -1.481904
v -6.87085 6.245684 -1.481904
v -6.87085 6.245685 -0.001041767
v -6.870856 2.574664 -0.001042232
v -6.870856 2.574664 -1.481904
v -6.870854 3.740954 -1.481904
v -6.870854 3.740954 -0.00104191
v -6.870867 -3.872205 -0.001042327
v -6.870867 -3.872205 -1.481905
v -6.870865 -2.705945 -1.481904
v -6.870865 -2.705945 -0.001042483
v -6.87081 -6.180707 -0.001042497
v -6.87081 -6.180707 -1.481905
v -6.870808 -5.014448 -1.481904
v -6.870808 -5.014447 -0.001042175
v -4.045921 -6.91176 -0.001042876
v -4.045921 -6.911761 -1.481905
v -4.629051 -6.91176 -1.481905
v -4.629051 -6.911759 -0.001042876
v -3.462791 -6.911762 -0.001042876
v -3.462791 -6.911762 -1.481905
v -2.879662 -6.911763 -0.001042876
v -2.879662 -6.911763 -1.481905
v -3.462791 -6.911762 -1.481905
v -3.462791 -6.911762 -0.001042876
v -3.462827 7.447186 -0.001041927
v -3.462827 7.447186 -1.481904
v -2.879697 7.447185 -1.481904
v -2.879697 7.447185 -0.001042404
v -4.045957 7.447187 -0.001041927
v -4.045957 7.447187 -1.481904
v -4.629087 7.447188 -0.001041927
v -4.629087 7.447188 -1.481904
v -4.045957 7.447187 -1.481904
v -4.045957 7.447187 -0.001041927
v 2.925219 -1.277099 0.1058666
v 2.925219 -1.277099 -1.374996
v 2.925217 -2.443359 -1.374995
v 2.925217 -2.443358 0.1058668
v 0.5614397 -6.807124 -0.001043367
v 0.5614397 -6.807124 -1.481905
v -0.02169018 -6.807123 -1.481905
v -0.02169018 -6.807123 -0.00104289
v 1.14457 -6.807125 -0.001043367
v 1.14457 -6.807125 -1.481905
v 1.7277 -6.807126 -0.001043367
v 1.7277 -6.807126 -1.481905
v 1.14457 -6.807125 -1.481905
v 1.14457 -6.807125 -0.001043367
v -1.961914 5.949259 3.81287
v -1.961914 5.949259 2.332008
v -1.961916 4.783 2.332008
v -1.961916 4.783 3.81287
v -3.630515 -6.462267 4.681882
v -3.630515 -6.462267 3.20102
v -4.796836 -6.462265 3.20102
v -4.796836 -6.462265 4.681882

vn 1 -5.960464E-08 -1.728535E-06
vn 1 -5.960464E-08 -1.728535E-06
vn 1 -5.960464E-08 -1.728535E-06
vn 1 -5.960464E-08 -1.728535E-06
vn 1 -5.960464E-08 -1.728535E-06
vn 1 -5.960464E-08 -1.728535E-06
vn 1 -5.960464E-08 -1.728535E-06
vn 1 -5.960464E-08 -1.728535E-06
vn -1 5.960464E-08 1.728535E-06
vn -1 5.960464E-08 1.728535E-06
vn -1 5.960464E-08 1.728535E-06
vn -1 5.960464E-08 1.728535E-06
vn -1 5.960464E-08 1.728535E-06
vn -1 5.960464E-08 1.728535E-06
vn -1 5.960464E-08 1.728535E-06
vn -1 5.960464E-08 1.728535E-06
vn -1 5.960464E-08 1.728535E-06
vn -1 5.960464E-08 1.728535E-06
vn -1 5.960464E-08 1.728535E-06
vn -1 5.960464E-08 1.728535E-06
vn -1 5.960464E-08 1.728535E-06
vn -1 5.960464E-08 1.728535E-06
vn -1 5.960464E-08 1.728535E-06
vn -1 5.960464E-08 1.728535E-06
vn 1.728535E-06 -1.788139E-07 0.9995117
vn 1.728535E-06 -1.788139E-07 0.9995117
vn 1.728535E-06 -1.788139E-07 0.9995117
vn 1.728535E-06 -1.788139E-07 0.9995117
vn 1.728535E-06 -1.788139E-07 0.9995117
vn 1.728535E-06 -1.788139E-07 0.9995117
vn 1.728535E-06 -1.788139E-07 0.9995117
vn 1.728535E-06 -1.788139E-07 0.9995117
vn 1.728535E-06 -1.788139E-07 0.9995117
vn 1.728535E-06 -1.788139E-07 0.9995117
vn -1.728535E-06 1.788139E-07 -0.9995117
vn -1.728535E-06 1.788139E-07 -0.9995117
vn -1.728535E-06 1.788139E-07 -0.9995117
vn -1.728535E-06 1.788139E-07 -0.9995117
vn -1.728535E-06 1.788139E-07 -0.9995117
vn -1.728535E-06 1.788139E-07 -0.9995117
vn -1.728535E-06 1.788139E-07 -0.9995117
vn -1.728535E-06 1.788139E-07 -0.9995117
vn -1.728535E-06 1.788139E-07 -0.9995117
vn -1.728535E-06 1.788139E-07 -0.9995117
vn 1 -5.960464E-08 -1.728535E-06
vn 1 -5.960464E-08 -1.728535E-06
vn 1 -5.960464E-08 -1.728535E-06
vn 1 -5.960464E-08 -1.728535E-06
vn 1.728535E-06 -1.788139E-07 0.9995117
vn 1.728535E-06 -1.788139E-07 0.9995117
vn 1.728535E-06 -1.788139E-07 0.9995117
vn 1.728535E-06 -1.788139E-07 0.9995117
vn 1.728535E-06 -1.788139E-07 0.9995117
vn 1.728535E-06 -1.788139E-07 0.9995117
vn 1.728535E-06 -1.788139E-07 0.9995117
vn 1.728535E-06 -1.788139E-07 0.9995117
vn 1.728535E-06 -1.788139E-07 0.9995117
vn 1.728535E-06 -1.788139E-07 0.9995117
vn 1 -5.960464E-08 -1.728535E-06
vn 1 -5.960464E-08 -1.728535E-06
vn 1 -5.960464E-08 -1.728535E-06
vn 1 -5.960464E-08 -1.728535E-06
vn 1.728535E-06 -1.788139E-07 0.9995117
vn 1.728535E-06 -1.788139E-07 0.9995117
vn 1.728535E-06 -1.788139E-07 0.9995117
vn 1.728535E-06 -1.788139E-07 0.9995117

vt 0 1
vt 3.576279E-07 1.192093E-07
vt 1 0
vt 0.9995117 0.9995117
vt 0 1
vt 3.576279E-07 1.192093E-07
vt 1 0
vt 0.9995117 0.9995117
vt 0 1
vt 3.576279E-07 1.192093E-07
vt 1 0
vt 0.9995117 0.9995117
vt 0 1
vt 3.576279E-07 1.192093E-07
vt 1 0
vt 0.9995117 0.9995117
vt 0 1
vt 3.576279E-07 1.192093E-07
vt 1 0
vt 0.9995117 0.9995117
vt 0 1
vt 3.576279E-07 1.192093E-07
vt 1 0
vt 0.9995117 0.9995117
vt 0.4997559 1
vt 0.5 5.960464E-08
vt 1 0
vt 0.9995117 0.9995117
vt 0 1
vt 3.576279E-07 1.192093E-07
vt 0 1
vt 3.576279E-07 1.192093E-07
vt 0.5 5.960464E-08
vt 0.4997559 1
vt 0.4997559 1
vt 0.5 5.960464E-08
vt 1 0
vt 0.9995117 0.9995117
vt 0 1
vt 3.576279E-07 1.192093E-07
vt 0 1
vt 3.576279E-07 1.192093E-07
vt 0.5 5.960464E-08
vt 0.4997559 1
vt 0 1
vt 3.576279E-07 1.192093E-07
vt 1 0
vt 0.9995117 0.9995117
vt 0.4997559 1
vt 0.5 5.960464E-08
vt 1 0
vt 0.9995117 0.9995117
vt 0 1
vt 3.576279E-07 1.192093E-07
vt 0 1
vt 3.576279E-07 1.192093E-07
vt 0.5 5.960464E-08
vt 0.4997559 1
vt 0 1
vt 3.576279E-07 1.192093E-07
vt 1 0
vt 0.9995117 0.9995117
vt 0 1
vt 3.576279E-07 1.192093E-07
vt 1 0
vt 0.9995117 0.9995117

g Building_small_t1.003_36300_636
usemtl Building_small_t1.003_36300_636
usemap Building_small_t1.003_36300_636
f 1/1/1 3/3/3 2/2/2
f 1/1/1 4/4/4 3/3/3
f 5/5/5 7/7/7 6/6/6
f 5/5/5 8/8/8 7/7/7
f 9/9/9 11/11/11 10/10/10
f 9/9/9 12/12/12 11/11/11
f 13/13/13 15/15/15 14/14/14
f 13/13/13 16/16/16 15/15/15
f 17/17/17 19/19/19 18/18/18
f 17/17/17 20/20/20 19/19/19
f 21/21/21 23/23/23 22/22/22
f 21/21/21 24/24/24 23/23/23
f 25/25/25 27/27/27 26/26/26
f 25/25/25 28/28/28 27/27/27
f 29/29/29 25/25/25 26/26/26
f 29/29/29 26/26/26 30/30/30
f 31/31/31 33/33/33 32/32/32
f 31/31/31 34/34/34 33/33/33
f 35/35/35 37/37/37 36/36/36
f 35/35/35 38/38/38 37/37/37
f 39/39/39 35/35/35 36/36/36
f 39/39/39 36/36/36 40/40/40
f 41/41/41 43/43/43 42/42/42
f 41/41/41 44/44/44 43/43/43
f 45/45/45 47/47/47 46/46/46
f 45/45/45 48/48/48 47/47/47
f 49/49/49 51/51/51 50/50/50
f 49/49/49 52/52/52 51/51/51
f 53/53/53 49/49/49 50/50/50
f 53/53/53 50/50/50 54/54/54
f 55/55/55 57/57/57 56/56/56
f 55/55/55 58/58/58 57/57/57
f 59/59/59 61/61/61 60/60/60
f 59/59/59 62/62/62 61/61/61
f 63/63/63 65/65/65 64/64/64
f 63/63/63 66/66/66 65/65/65
