#Building_small_t1.110_37283_61.obj

v -0.07890219 0.8241853 -0.1467667
v -0.0788973 0.824282 -2.417037
v -0.07890059 -1.029081 -2.417111
v -0.07890548 -1.029178 -0.1468409
v -0.07890219 0.8241853 -0.1467667
v -0.07890548 -1.029178 -0.1468409
v -0.180407 -1.029178 -0.1468407
v -0.1804038 0.8241855 -0.1467668
v -0.07890548 -1.029178 -0.1468409
v -0.07890059 -1.029081 -2.417111
v -0.1804021 -1.029081 -2.417111
v -0.180407 -1.029178 -0.1468407
v -0.0788973 0.824282 -2.417037
v -0.07890219 0.8241853 -0.1467667
v -0.1804038 0.8241855 -0.1467668
v -0.1803989 0.8242822 -2.417037
v -0.07890059 -1.029081 -2.417111
v -0.0788973 0.824282 -2.417037
v -0.1803989 0.8242822 -2.417037
v -0.1804021 -1.029081 -2.417111

vn 1.907349E-06 -0.001386642 0.9995117
vn 1.907349E-06 -0.001386642 0.9995117
vn 1.907349E-06 -0.001386642 0.9995117
vn 1.907349E-06 -0.001386642 0.9995117
vn -2.425909E-05 0.9995117 0.001386642
vn -2.425909E-05 0.9995117 0.001386642
vn -2.425909E-05 0.9995117 0.001386642
vn -2.425909E-05 0.9995117 0.001386642
vn -1 -2.425909E-05 1.847744E-06
vn -1 -2.425909E-05 1.847744E-06
vn -1 -2.425909E-05 1.847744E-06
vn -1 -2.425909E-05 1.847744E-06
vn 1 2.425909E-05 -1.847744E-06
vn 1 2.425909E-05 -1.847744E-06
vn 1 2.425909E-05 -1.847744E-06
vn 1 2.425909E-05 -1.847744E-06
vn 2.425909E-05 -0.9995117 -0.001386642
vn 2.425909E-05 -0.9995117 -0.001386642
vn 2.425909E-05 -0.9995117 -0.001386642
vn 2.425909E-05 -0.9995117 -0.001386642

vt 0 0
vt 0 1
vt 1 1
vt 1 0
vt 0 0
vt 1 0
vt 1 0
vt 0 0
vt 1 0
vt 1 1
vt 1 1
vt 1 0
vt 0 1
vt 0 0
vt 0 0
vt 0 1
vt 1 1
vt 0 1
vt 0 1
vt 1 1

g Building_small_t1.110_37283_61
usemtl Building_small_t1.110_37283_61
usemap Building_small_t1.110_37283_61
f 1/1/1 3/3/3 2/2/2
f 1/1/1 4/4/4 3/3/3
f 5/5/5 7/7/7 6/6/6
f 5/5/5 8/8/8 7/7/7
f 9/9/9 11/11/11 10/10/10
f 9/9/9 12/12/12 11/11/11
f 13/13/13 15/15/15 14/14/14
f 13/13/13 16/16/16 15/15/15
f 17/17/17 19/19/19 18/18/18
f 17/17/17 20/20/20 19/19/19
