#Building_t4.003_(1)_37698_635.obj

v -0.1473498 0.9927965 0.9999999
v -0.2362879 1.081735 0.9999999
v 0.9999973 1.081738 0.9999999
v 0.9110589 0.9927948 0.9999999
v 1.000004 -1.007251 1
v 0.9110655 -0.9183124 1
v -0.2362815 -1.007254 1
v -0.1473431 -0.9183108 1

vn 0 1 1.192093E-07
vn 0 1 1.192093E-07
vn 0 1 1.192093E-07
vn 0 1 1.192093E-07
vn 0 1 1.192093E-07
vn 0 1 1.192093E-07
vn 0 1 1.192093E-07
vn 0 1 1.192093E-07

vt -0.355957 1.414063
vt -0.4997559 1.499023
vt 1.499023 1.5
vt 1.355469 1.414063
vt 1.499023 -0.4997559
vt 1.355469 -0.4147949
vt -0.4997559 -0.5
vt -0.355957 -0.4147949

g Building_t4.003_(1)_37698_635
usemtl Building_t4.003_(1)_37698_635
usemap Building_t4.003_(1)_37698_635
f 1/1/1 3/3/3 2/2/2
f 1/1/1 4/4/4 3/3/3
f 4/4/4 5/5/5 3/3/3
f 4/4/4 6/6/6 5/5/5
f 6/6/6 7/7/7 5/5/5
f 6/6/6 8/8/8 7/7/7
f 8/8/8 2/2/2 7/7/7
f 8/8/8 1/1/1 2/2/2
