#Building_t8.023_33818_611.obj

v -3.909858 -0.6199768 2.351935
v -3.909858 -0.6199772 -0.1493488
v -3.909855 1.061908 -0.1493489
v -3.909855 1.061908 2.351935
v 1.096186 7.857432 3.972176
v 1.096186 7.857432 1.470892
v 1.096185 9.539317 1.470892
v 1.096185 9.539317 3.972176
v 1.096187 5.816539 3.972176
v 1.096187 5.816539 1.470892
v 1.096186 7.498424 1.470892
v 1.096186 7.498424 3.972176

vn -1 0 1.549721E-06
vn -1 0 1.549721E-06
vn -1 0 1.549721E-06
vn -1 0 1.549721E-06
vn -1 0 1.549721E-06
vn -1 0 1.549721E-06
vn -1 0 1.549721E-06
vn -1 0 1.549721E-06
vn -1 0 1.549721E-06
vn -1 0 1.549721E-06
vn -1 0 1.549721E-06
vn -1 0 1.549721E-06

vt 5.960464E-08 0.9995117
vt 0 0
vt 1 5.960464E-08
vt 1 1
vt 4.172325E-07 1
vt 0 1.788139E-07
vt 0.9995117 0
vt 1 0.9995117
vt 3.576279E-07 1
vt 2.384186E-07 0
vt 1 1.192093E-07
vt 1 1

g Building_t8.023_33818_611
usemtl Building_t8.023_33818_611
usemap Building_t8.023_33818_611
f 1/1/1 3/3/3 2/2/2
f 1/1/1 4/4/4 3/3/3
f 5/5/5 7/7/7 6/6/6
f 5/5/5 8/8/8 7/7/7
f 9/9/9 11/11/11 10/10/10
f 9/9/9 12/12/12 11/11/11
