#Building.006_38181_631.obj

v -0.9569889 -5.112544 -0.001042639
v -0.9569889 -5.112545 -1.481905
v -0.9569297 -6.278865 -1.481905
v -0.9569297 -6.278865 -0.001042484
v -0.9569849 -2.607845 -0.001042496
v -0.9569849 -2.607845 -1.481905
v -0.9569868 -3.774105 -1.481905
v -0.9569868 -3.774104 -0.00104234
v -0.9569747 3.839055 -0.001042877
v -0.9569747 3.839055 -1.481905
v -0.9569766 2.672795 -1.481905
v -0.9569766 2.672795 -0.001043199
v -0.9569711 6.147588 -0.001043185
v -0.9569711 6.147587 -1.481905
v -0.956973 4.981266 -1.481905
v -0.956973 4.981267 -0.001043029
v -4.045921 -7.499319 -0.001042321
v -4.045921 -7.49932 -1.481905
v -4.629051 -7.499319 -1.481905
v -4.629051 -7.499318 -0.001042321
v -3.462791 -7.49932 -0.001042321
v -3.462791 -7.499321 -1.481905
v -2.879661 -7.499321 -0.001042321
v -2.879661 -7.499321 -1.481905
v -3.462791 -7.499321 -1.481905
v -3.462791 -7.49932 -0.001042321
v -3.462828 7.447152 -0.001043358
v -3.462828 7.447152 -1.481905
v -2.879637 7.447151 -1.481905
v -2.879637 7.447151 -0.001043358
v -4.045959 7.447153 -0.001043358
v -4.045959 7.447153 -1.481905
v -4.629088 7.447154 -0.001043358
v -4.629088 7.447154 -1.481905
v -4.045959 7.447153 -1.481905
v -4.045959 7.447153 -0.001043358

vn 1 0 -1.549721E-06
vn 1 0 -1.549721E-06
vn 1 0 -1.549721E-06
vn 1 0 -1.549721E-06
vn 1 0 -1.549721E-06
vn 1 0 -1.549721E-06
vn 1 0 -1.549721E-06
vn 1 0 -1.549721E-06
vn 1 0 -1.549721E-06
vn 1 0 -1.549721E-06
vn 1 0 -1.549721E-06
vn 1 0 -1.549721E-06
vn 1 0 -1.549721E-06
vn 1 0 -1.549721E-06
vn 1 0 -1.549721E-06
vn 1 0 -1.549721E-06
vn 1.549721E-06 -5.960464E-08 1
vn 1.549721E-06 -5.960464E-08 1
vn 1.549721E-06 -5.960464E-08 1
vn 1.549721E-06 -5.960464E-08 1
vn 1.549721E-06 -5.960464E-08 1
vn 1.549721E-06 -5.960464E-08 1
vn 1.549721E-06 -5.960464E-08 1
vn 1.549721E-06 -5.960464E-08 1
vn 1.549721E-06 -5.960464E-08 1
vn 1.549721E-06 -5.960464E-08 1
vn -1.549721E-06 5.960464E-08 -1
vn -1.549721E-06 5.960464E-08 -1
vn -1.549721E-06 5.960464E-08 -1
vn -1.549721E-06 5.960464E-08 -1
vn -1.549721E-06 5.960464E-08 -1
vn -1.549721E-06 5.960464E-08 -1
vn -1.549721E-06 5.960464E-08 -1
vn -1.549721E-06 5.960464E-08 -1
vn -1.549721E-06 5.960464E-08 -1
vn -1.549721E-06 5.960464E-08 -1

vt 0 1
vt 3.576279E-07 1.192093E-07
vt 1 0
vt 0.9995117 0.9995117
vt 0 1
vt 3.576279E-07 1.192093E-07
vt 1 0
vt 0.9995117 0.9995117
vt 0 1
vt 3.576279E-07 1.192093E-07
vt 1 0
vt 0.9995117 0.9995117
vt 0 1
vt 3.576279E-07 1.192093E-07
vt 1 0
vt 0.9995117 0.9995117
vt 0.4997559 1
vt 0.5 5.960464E-08
vt 1 0
vt 0.9995117 0.9995117
vt 0 1
vt 3.576279E-07 1.192093E-07
vt 0 1
vt 3.576279E-07 1.192093E-07
vt 0.5 5.960464E-08
vt 0.4997559 1
vt 0.4997559 1
vt 0.5 5.960464E-08
vt 1 0
vt 0.9995117 0.9995117
vt 0 1
vt 3.576279E-07 1.192093E-07
vt 0 1
vt 3.576279E-07 1.192093E-07
vt 0.5 5.960464E-08
vt 0.4997559 1

g Building.006_38181_631
usemtl Building.006_38181_631
usemap Building.006_38181_631
f 1/1/1 3/3/3 2/2/2
f 1/1/1 4/4/4 3/3/3
f 5/5/5 7/7/7 6/6/6
f 5/5/5 8/8/8 7/7/7
f 9/9/9 11/11/11 10/10/10
f 9/9/9 12/12/12 11/11/11
f 13/13/13 15/15/15 14/14/14
f 13/13/13 16/16/16 15/15/15
f 17/17/17 19/19/19 18/18/18
f 17/17/17 20/20/20 19/19/19
f 21/21/21 17/17/17 18/18/18
f 21/21/21 18/18/18 22/22/22
f 23/23/23 25/25/25 24/24/24
f 23/23/23 26/26/26 25/25/25
f 27/27/27 29/29/29 28/28/28
f 27/27/27 30/30/30 29/29/29
f 31/31/31 27/27/27 28/28/28
f 31/31/31 28/28/28 32/32/32
f 33/33/33 35/35/35 34/34/34
f 33/33/33 36/36/36 35/35/35
