#Building.027_37937_647.obj

v -0.9569003 -5.112577 -0.001042639
v -0.9569003 -5.112577 -1.481905
v -0.9569031 -6.278845 -1.481905
v -0.9569031 -6.278845 -0.001042484
v -0.9569554 -2.607824 -0.001042496
v -0.9569554 -2.607825 -1.481905
v -0.9569582 -3.774092 -1.481905
v -0.9569582 -3.774092 -0.00104234
v -0.9569403 3.839067 -0.001042877
v -0.9569403 3.839067 -1.481905
v -0.956943 2.672807 -1.481905
v -0.956943 2.672808 -0.001043199
v -0.9569348 6.147554 -0.001043185
v -0.9569348 6.147554 -1.481905
v -0.9569376 4.981287 -1.481905
v -0.9569376 4.981287 -0.001043029
v -4.045895 -7.499335 -0.001042321
v -4.045895 -7.499335 -1.481905
v -4.629025 -7.499333 -1.481905
v -4.629025 -7.499333 -0.001042321
v -3.462765 -7.499329 -0.001042321
v -3.462765 -7.499329 -1.481905
v -2.879635 -7.49933 -0.001042321
v -2.879635 -7.49933 -1.481905
v -3.462765 -7.499329 -1.481905
v -3.462765 -7.499329 -0.001042321
v -3.462791 7.447174 -0.001043358
v -3.462791 7.447174 -1.481905
v -2.879661 7.44718 -1.481905
v -2.879661 7.447181 -0.001043358
v -4.045921 7.447176 -0.001043358
v -4.045921 7.447176 -1.481905
v -4.629051 7.447177 -0.001043358
v -4.629051 7.447177 -1.481905
v -4.045921 7.447176 -1.481905
v -4.045921 7.447176 -0.001043358

vn 1 0 -2.324581E-06
vn 1 0 -2.324581E-06
vn 1 0 -2.324581E-06
vn 1 0 -2.324581E-06
vn 1 0 -2.324581E-06
vn 1 0 -2.324581E-06
vn 1 0 -2.324581E-06
vn 1 0 -2.324581E-06
vn 1 0 -2.324581E-06
vn 1 0 -2.324581E-06
vn 1 0 -2.324581E-06
vn 1 0 -2.324581E-06
vn 1 0 -2.324581E-06
vn 1 0 -2.324581E-06
vn 1 0 -2.324581E-06
vn 1 0 -2.324581E-06
vn 2.324581E-06 -5.960464E-08 1
vn 2.324581E-06 -5.960464E-08 1
vn 2.324581E-06 -5.960464E-08 1
vn 2.324581E-06 -5.960464E-08 1
vn 2.324581E-06 -5.960464E-08 1
vn 2.324581E-06 -5.960464E-08 1
vn 2.324581E-06 -5.960464E-08 1
vn 2.324581E-06 -5.960464E-08 1
vn 2.324581E-06 -5.960464E-08 1
vn 2.324581E-06 -5.960464E-08 1
vn -2.324581E-06 5.960464E-08 -1
vn -2.324581E-06 5.960464E-08 -1
vn -2.324581E-06 5.960464E-08 -1
vn -2.324581E-06 5.960464E-08 -1
vn -2.324581E-06 5.960464E-08 -1
vn -2.324581E-06 5.960464E-08 -1
vn -2.324581E-06 5.960464E-08 -1
vn -2.324581E-06 5.960464E-08 -1
vn -2.324581E-06 5.960464E-08 -1
vn -2.324581E-06 5.960464E-08 -1

vt 0 1
vt 3.576279E-07 1.192093E-07
vt 1 0
vt 0.9995117 0.9995117
vt 0 1
vt 3.576279E-07 1.192093E-07
vt 1 0
vt 0.9995117 0.9995117
vt 0 1
vt 3.576279E-07 1.192093E-07
vt 1 0
vt 0.9995117 0.9995117
vt 0 1
vt 3.576279E-07 1.192093E-07
vt 1 0
vt 0.9995117 0.9995117
vt 0.4997559 1
vt 0.5 5.960464E-08
vt 1 0
vt 0.9995117 0.9995117
vt 0 1
vt 3.576279E-07 1.192093E-07
vt 0 1
vt 3.576279E-07 1.192093E-07
vt 0.5 5.960464E-08
vt 0.4997559 1
vt 0.4997559 1
vt 0.5 5.960464E-08
vt 1 0
vt 0.9995117 0.9995117
vt 0 1
vt 3.576279E-07 1.192093E-07
vt 0 1
vt 3.576279E-07 1.192093E-07
vt 0.5 5.960464E-08
vt 0.4997559 1

g Building.027_37937_647
usemtl Building.027_37937_647
usemap Building.027_37937_647
f 1/1/1 3/3/3 2/2/2
f 1/1/1 4/4/4 3/3/3
f 5/5/5 7/7/7 6/6/6
f 5/5/5 8/8/8 7/7/7
f 9/9/9 11/11/11 10/10/10
f 9/9/9 12/12/12 11/11/11
f 13/13/13 15/15/15 14/14/14
f 13/13/13 16/16/16 15/15/15
f 17/17/17 19/19/19 18/18/18
f 17/17/17 20/20/20 19/19/19
f 21/21/21 17/17/17 18/18/18
f 21/21/21 18/18/18 22/22/22
f 23/23/23 25/25/25 24/24/24
f 23/23/23 26/26/26 25/25/25
f 27/27/27 29/29/29 28/28/28
f 27/27/27 30/30/30 29/29/29
f 31/31/31 27/27/27 28/28/28
f 31/31/31 28/28/28 32/32/32
f 33/33/33 35/35/35 34/34/34
f 33/33/33 36/36/36 35/35/35
