#Building_small_t1.113_36738_388.obj

v -6.289328 -5.560129 4.178007
v -6.289328 -5.560129 3.482283
v -6.289325 -2.847208 3.482283
v -6.289325 -2.847208 4.178008
v -2.053053 -2.847218 4.178008
v -2.053053 -2.847218 3.482283
v -2.053055 -5.560139 3.482283
v -2.053055 -5.560139 4.178007
v -2.053055 -5.560139 4.178007
v -2.053055 -5.560139 3.482283
v -6.289328 -5.560129 3.482283
v -6.289328 -5.560129 4.178007
v -6.289325 -2.847208 4.178008
v -6.289325 -2.847208 3.482283
v -2.053053 -2.847218 3.482283
v -2.053053 -2.847218 4.178008

vn -1 0 2.324581E-06
vn -1 0 2.324581E-06
vn -1 0 2.324581E-06
vn -1 0 2.324581E-06
vn 1 0 -2.324581E-06
vn 1 0 -2.324581E-06
vn 1 0 -2.324581E-06
vn 1 0 -2.324581E-06
vn 2.324581E-06 -5.960464E-08 1
vn 2.324581E-06 -5.960464E-08 1
vn 2.324581E-06 -5.960464E-08 1
vn 2.324581E-06 -5.960464E-08 1
vn -2.324581E-06 5.960464E-08 -1
vn -2.324581E-06 5.960464E-08 -1
vn -2.324581E-06 5.960464E-08 -1
vn -2.324581E-06 5.960464E-08 -1

vt 0.4997559 -0.1116943
vt 0.4997559 0.1953125
vt 1.697266 0.1953125
vt 1.697266 -0.1116943
vt -2.566406 -0.1116943
vt -2.566406 0.1953125
vt -1.369141 0.1953125
vt -1.369141 -0.1116943
vt -1.369141 -0.1116943
vt -1.369141 0.1953125
vt 0.4997559 0.1953125
vt 0.4997559 -0.1116943
vt 1.697266 -0.1116943
vt 1.697266 0.1953125
vt 3.566406 0.1953125
vt 3.566406 -0.1116943

g Building_small_t1.113_36738_388
usemtl Building_small_t1.113_36738_388
usemap Building_small_t1.113_36738_388
f 1/1/1 3/3/3 2/2/2
f 1/1/1 4/4/4 3/3/3
f 5/5/5 7/7/7 6/6/6
f 5/5/5 8/8/8 7/7/7
f 9/9/9 11/11/11 10/10/10
f 9/9/9 12/12/12 11/11/11
f 13/13/13 15/15/15 14/14/14
f 13/13/13 16/16/16 15/15/15
