#Building_small_t1.057_37459_155.obj

v -4.796792 -6.492981 4.639197
v -4.796792 -6.483218 3.158367
v -3.630532 -6.492975 4.639197
v -3.630532 -6.483212 3.158367
v -1.961889 4.757772 3.844306
v -1.961889 4.767505 2.363476
v -1.961895 5.923986 3.851991
v -1.961895 5.933749 2.371161
v 1.144586 -6.80697 -0.04589888
v 1.144571 -6.797206 -1.526729
v 1.727716 -6.806967 -0.04589878
v 1.727716 -6.797203 -1.526729
v 0.5614412 -6.797209 -1.526729
v 1.144571 -6.797206 -1.526729
v 1.144586 -6.80697 -0.04589888
v 0.5614411 -6.806973 -0.04589897
v -0.02168881 -6.806976 -0.04589906
v -0.02168863 -6.797212 -1.526729
v 2.925264 -2.443992 0.08976389
v 2.925249 -2.434228 -1.391066
v 2.925258 -1.277748 0.09744945
v 2.925258 -1.267984 -1.383381
v -4.045918 7.447033 0.04803142
v -4.045917 7.456797 -1.432799
v -4.629047 7.44703 0.04803133
v -4.629047 7.456794 -1.432799
v -3.462787 7.4568 -1.432799
v -4.045917 7.456797 -1.432799
v -4.045918 7.447033 0.04803142
v -3.462788 7.447036 0.04803151
v -2.879658 7.447039 0.04803161
v -2.879658 7.456772 -1.432799
v -3.462789 -6.911623 -0.04658867
v -3.462789 -6.901859 -1.527419
v -2.879644 -6.91162 -0.04658858
v -2.879644 -6.901856 -1.527419
v -4.045919 -6.901863 -1.527419
v -3.462789 -6.901859 -1.527419
v -3.462789 -6.911623 -0.04658867
v -4.045919 -6.911626 -0.04658876
v -4.629049 -6.911598 -0.0465881
v -4.629049 -6.901865 -1.527419
v -6.870819 -5.014335 -0.03408625
v -6.870819 -5.004571 -1.514916
v -6.870829 -6.180548 -0.04177106
v -6.870828 -6.170815 -1.522602
v -6.870816 -2.705898 -0.01887409
v -6.870816 -2.696134 -1.499704
v -6.870825 -3.872142 -0.02655965
v -6.870825 -3.862378 -1.50739
v -6.870819 3.740859 0.02360861
v -6.870819 3.750623 -1.457222
v -6.870828 2.574615 0.01592304
v -6.870828 2.584378 -1.464907
v -6.870817 6.245552 0.04011383
v -6.870816 6.255316 -1.440716
v -6.870826 5.079339 0.03242902
v -6.870826 5.089071 -1.448402
v -0.9569398 0.8631879 0.004645581
v -0.9569396 0.8729208 -1.476185
v -0.9569458 2.029402 0.01233039
v -0.9569457 2.039165 -1.4685
v 2.925251 -5.70154 0.06829773
v 2.925251 -5.691807 -1.412533
v 2.92526 -4.535326 0.07598253
v 2.92526 -4.525563 -1.404848

vn -0.9995117 0.01817322 5.066395E-06
vn -0.9995117 0.01817322 5.066395E-06
vn -0.9995117 0.01817322 5.066395E-06
vn -0.9995117 0.01817322 5.066395E-06
vn -5.304813E-06 0 -1
vn -5.304813E-06 0 -1
vn -5.304813E-06 0 -1
vn -5.304813E-06 0 -1
vn -0.9995117 0.01817322 5.066395E-06
vn -0.9995117 0.01817322 5.066395E-06
vn -0.9995117 0.01817322 5.066395E-06
vn -0.9995117 0.01817322 5.066395E-06
vn -0.9995117 0.01817322 5.066395E-06
vn -0.9995117 0.01817322 5.066395E-06
vn -0.9995117 0.01817322 5.066395E-06
vn -0.9995117 0.01817322 5.066395E-06
vn -0.9995117 0.01817322 5.066395E-06
vn -0.9995117 0.01817322 5.066395E-06
vn -5.304813E-06 0 -1
vn -5.304813E-06 0 -1
vn -5.304813E-06 0 -1
vn -5.304813E-06 0 -1
vn 0.9995117 -0.01817322 -5.066395E-06
vn 0.9995117 -0.01817322 -5.066395E-06
vn 0.9995117 -0.01817322 -5.066395E-06
vn 0.9995117 -0.01817322 -5.066395E-06
vn 0.9995117 -0.01817322 -5.066395E-06
vn 0.9995117 -0.01817322 -5.066395E-06
vn 0.9995117 -0.01817322 -5.066395E-06
vn 0.9995117 -0.01817322 -5.066395E-06
vn 0.9995117 -0.01817322 -5.066395E-06
vn 0.9995117 -0.01817322 -5.066395E-06
vn -0.9995117 0.01817322 5.066395E-06
vn -0.9995117 0.01817322 5.066395E-06
vn -0.9995117 0.01817322 5.066395E-06
vn -0.9995117 0.01817322 5.066395E-06
vn -0.9995117 0.01817322 5.066395E-06
vn -0.9995117 0.01817322 5.066395E-06
vn -0.9995117 0.01817322 5.066395E-06
vn -0.9995117 0.01817322 5.066395E-06
vn -0.9995117 0.01817322 5.066395E-06
vn -0.9995117 0.01817322 5.066395E-06
vn 5.304813E-06 0 1
vn 5.304813E-06 0 1
vn 5.304813E-06 0 1
vn 5.304813E-06 0 1
vn 5.304813E-06 0 1
vn 5.304813E-06 0 1
vn 5.304813E-06 0 1
vn 5.304813E-06 0 1
vn 5.304813E-06 0 1
vn 5.304813E-06 0 1
vn 5.304813E-06 0 1
vn 5.304813E-06 0 1
vn 5.304813E-06 0 1
vn 5.304813E-06 0 1
vn 5.304813E-06 0 1
vn 5.304813E-06 0 1
vn -5.304813E-06 0 -1
vn -5.304813E-06 0 -1
vn -5.304813E-06 0 -1
vn -5.304813E-06 0 -1
vn -5.304813E-06 0 -1
vn -5.304813E-06 0 -1
vn -5.304813E-06 0 -1
vn -5.304813E-06 0 -1

vt 0.9995117 0.9995117
vt 1 0
vt 0 1
vt 3.576279E-07 1.192093E-07
vt 0.9995117 0.9995117
vt 1 0
vt 0 1
vt 3.576279E-07 1.192093E-07
vt 0.4997559 1
vt 0.5 5.960464E-08
vt 0 1
vt 3.576279E-07 1.192093E-07
vt 0.5 5.960464E-08
vt 3.576279E-07 1.192093E-07
vt 0 1
vt 0.4997559 1
vt 0.9995117 0.9995117
vt 1 0
vt 0.9995117 0.9995117
vt 1 0
vt 0 1
vt 3.576279E-07 1.192093E-07
vt 0.4997559 1
vt 0.5 5.960464E-08
vt 0 1
vt 3.576279E-07 1.192093E-07
vt 0.5 5.960464E-08
vt 3.576279E-07 1.192093E-07
vt 0 1
vt 0.4997559 1
vt 0.9995117 0.9995117
vt 1 0
vt 0.4997559 1
vt 0.5 5.960464E-08
vt 0 1
vt 3.576279E-07 1.192093E-07
vt 0.5 5.960464E-08
vt 3.576279E-07 1.192093E-07
vt 0 1
vt 0.4997559 1
vt 0.9995117 0.9995117
vt 1 0
vt 0.9995117 0.9995117
vt 1 0
vt 0 1
vt 3.576279E-07 1.192093E-07
vt 0.9995117 0.9995117
vt 1 0
vt 0 1
vt 3.576279E-07 1.192093E-07
vt 0.9995117 0.9995117
vt 1 0
vt 0 1
vt 3.576279E-07 1.192093E-07
vt 0.9995117 0.9995117
vt 1 0
vt 0 1
vt 3.576279E-07 1.192093E-07
vt 0.9995117 0.9995117
vt 1 0
vt 0 1
vt 3.576279E-07 1.192093E-07
vt 0.9995117 0.9995117
vt 1 0
vt 0 1
vt 3.576279E-07 1.192093E-07

g Building_small_t1.057_37459_155
usemtl Building_small_t1.057_37459_155
usemap Building_small_t1.057_37459_155
f 1/1/1 3/3/3 2/2/2
f 2/2/2 3/3/3 4/4/4
f 5/5/5 7/7/7 6/6/6
f 6/6/6 7/7/7 8/8/8
f 9/9/9 11/11/11 10/10/10
f 10/10/10 11/11/11 12/12/12
f 13/13/13 15/15/15 14/14/14
f 16/16/16 15/15/15 13/13/13
f 17/17/17 16/16/16 18/18/18
f 18/18/18 16/16/16 13/13/13
f 19/19/19 21/21/21 20/20/20
f 20/20/20 21/21/21 22/22/22
f 23/23/23 25/25/25 24/24/24
f 24/24/24 25/25/25 26/26/26
f 27/27/27 29/29/29 28/28/28
f 30/30/30 29/29/29 27/27/27
f 31/31/31 30/30/30 32/32/32
f 32/32/32 30/30/30 27/27/27
f 33/33/33 35/35/35 34/34/34
f 34/34/34 35/35/35 36/36/36
f 37/37/37 39/39/39 38/38/38
f 40/40/40 39/39/39 37/37/37
f 41/41/41 40/40/40 42/42/42
f 42/42/42 40/40/40 37/37/37
f 43/43/43 45/45/45 44/44/44
f 44/44/44 45/45/45 46/46/46
f 47/47/47 49/49/49 48/48/48
f 48/48/48 49/49/49 50/50/50
f 51/51/51 53/53/53 52/52/52
f 52/52/52 53/53/53 54/54/54
f 55/55/55 57/57/57 56/56/56
f 56/56/56 57/57/57 58/58/58
f 59/59/59 61/61/61 60/60/60
f 60/60/60 61/61/61 62/62/62
f 63/63/63 65/65/65 64/64/64
f 64/64/64 65/65/65 66/66/66
