#Building_t4.003_(1)_37698_631.obj

v -2.708862 -1.007255 0.9287164
v -2.708862 -1.007255 -0.7377145
v -2.708858 1.081734 -0.7377146
v -2.708858 1.081734 0.9287164
v -0.2362879 1.081735 0.9999999
v -0.2362879 1.081735 -0.7377146
v 0.9999973 1.081738 -0.7377146
v 0.9999973 1.081738 0.9999999
v 0.9999973 1.081738 0.9999999
v 0.9999973 1.081738 -0.7377146
v 1.000004 -1.007251 -0.7377145
v 1.000004 -1.007251 1
v -1.472576 -1.007252 0.9287164
v -1.472576 -1.007252 -0.7377145
v -2.708862 -1.007255 -0.7377145
v -2.708862 -1.007255 0.9287164
v 1.000004 -1.007251 1
v 1.000004 -1.007251 -0.7377145
v -0.2362815 -1.007254 -0.7377145
v -0.2362815 -1.007254 1
v -2.708858 1.081734 0.9287164
v -2.708858 1.081734 -0.7377146
v -1.472573 1.081737 -0.7377146
v -1.472573 1.081737 0.9287164

vn -1 0 1.549721E-06
vn -1 0 1.549721E-06
vn -1 0 1.549721E-06
vn -1 0 1.549721E-06
vn -1.549721E-06 5.960464E-08 -1
vn -1.549721E-06 5.960464E-08 -1
vn -1.549721E-06 5.960464E-08 -1
vn -1.549721E-06 5.960464E-08 -1
vn 1 0 -1.549721E-06
vn 1 0 -1.549721E-06
vn 1 0 -1.549721E-06
vn 1 0 -1.549721E-06
vn 1.549721E-06 -5.960464E-08 1
vn 1.549721E-06 -5.960464E-08 1
vn 1.549721E-06 -5.960464E-08 1
vn 1.549721E-06 -5.960464E-08 1
vn 1.549721E-06 -5.960464E-08 1
vn 1.549721E-06 -5.960464E-08 1
vn 1.549721E-06 -5.960464E-08 1
vn 1.549721E-06 -5.960464E-08 1
vn -1.549721E-06 5.960464E-08 -1
vn -1.549721E-06 5.960464E-08 -1
vn -1.549721E-06 5.960464E-08 -1
vn -1.549721E-06 5.960464E-08 -1

vt 0 0.9995117
vt 0 -0.5620117
vt 1 -0.5620117
vt 0.9995117 1
vt 1 0.9995117
vt 0.9995117 -0.5620117
vt 0 -0.5620117
vt 1.788139E-07 0.9995117
vt 0 0.9995117
vt 2.980232E-07 -0.5620117
vt 1 -0.5620117
vt 0.9995117 1
vt 0 0.9995117
vt 1.788139E-07 -0.5620117
vt 1 -0.5620117
vt 1 1
vt 1 0.9995117
vt 0.9995117 -0.5620117
vt 0 -0.5620117
vt 1.192093E-07 0.9995117
vt 0 0.9995117
vt 0 -0.5620117
vt 1 -0.5620117
vt 0.9995117 1

g Building_t4.003_(1)_37698_631
usemtl Building_t4.003_(1)_37698_631
usemap Building_t4.003_(1)_37698_631
f 1/1/1 3/3/3 2/2/2
f 1/1/1 4/4/4 3/3/3
f 5/5/5 7/7/7 6/6/6
f 5/5/5 8/8/8 7/7/7
f 9/9/9 11/11/11 10/10/10
f 9/9/9 12/12/12 11/11/11
f 13/13/13 15/15/15 14/14/14
f 13/13/13 16/16/16 15/15/15
f 17/17/17 19/19/19 18/18/18
f 17/17/17 20/20/20 19/19/19
f 21/21/21 23/23/23 22/22/22
f 21/21/21 24/24/24 23/23/23
