#Building.026_35293_503.obj

v -0.9569756 0.1001071 -0.001042856
v -0.9569756 0.1001069 -1.481905
v -0.9569787 -1.066153 -1.481905
v -0.9569787 -1.066153 -0.001042701
v -0.95696 6.147547 -0.001043185
v -0.95696 6.147546 -1.481905
v -0.9569629 4.981287 -1.481905
v -0.9569629 4.981287 -0.001043029
v -4.04591 -2.158521 -0.001042555
v -4.04591 -2.158522 -1.481905
v -4.62904 -2.15852 -1.481905
v -4.62904 -2.15852 -0.001042555
v -3.46278 -2.158523 -0.001042555
v -3.46278 -2.158523 -1.481905
v -2.87965 -2.158525 -0.001042555
v -2.87965 -2.158525 -1.481905
v -3.46278 -2.158523 -1.481905
v -3.46278 -2.158523 -0.001042555
v -3.462816 7.447175 -0.001043358
v -3.462816 7.447175 -1.481905
v -2.879686 7.447173 -1.481905
v -2.879686 7.447173 -0.001043358
v -4.045946 7.447176 -0.001043358
v -4.045946 7.447176 -1.481905
v -4.629076 7.447163 -0.001043358
v -4.629076 7.447162 -1.481905
v -4.045946 7.447176 -1.481905
v -4.045946 7.447176 -0.001043358

vn 1 0 -2.563E-06
vn 1 0 -2.563E-06
vn 1 0 -2.563E-06
vn 1 0 -2.563E-06
vn 1 0 -2.563E-06
vn 1 0 -2.563E-06
vn 1 0 -2.563E-06
vn 1 0 -2.563E-06
vn 2.563E-06 -5.960464E-08 1
vn 2.563E-06 -5.960464E-08 1
vn 2.563E-06 -5.960464E-08 1
vn 2.563E-06 -5.960464E-08 1
vn 2.563E-06 -5.960464E-08 1
vn 2.563E-06 -5.960464E-08 1
vn 2.563E-06 -5.960464E-08 1
vn 2.563E-06 -5.960464E-08 1
vn 2.563E-06 -5.960464E-08 1
vn 2.563E-06 -5.960464E-08 1
vn -2.563E-06 5.960464E-08 -1
vn -2.563E-06 5.960464E-08 -1
vn -2.563E-06 5.960464E-08 -1
vn -2.563E-06 5.960464E-08 -1
vn -2.563E-06 5.960464E-08 -1
vn -2.563E-06 5.960464E-08 -1
vn -2.563E-06 5.960464E-08 -1
vn -2.563E-06 5.960464E-08 -1
vn -2.563E-06 5.960464E-08 -1
vn -2.563E-06 5.960464E-08 -1

vt 0 1
vt 3.576279E-07 1.192093E-07
vt 1 0
vt 0.9995117 0.9995117
vt 0 1
vt 3.576279E-07 1.192093E-07
vt 1 0
vt 0.9995117 0.9995117
vt 0.4997559 1
vt 0.5 5.960464E-08
vt 1 0
vt 0.9995117 0.9995117
vt 0 1
vt 3.576279E-07 1.192093E-07
vt 0 1
vt 3.576279E-07 1.192093E-07
vt 0.5 5.960464E-08
vt 0.4997559 1
vt 0.4997559 1
vt 0.5 5.960464E-08
vt 1 0
vt 0.9995117 0.9995117
vt 0 1
vt 3.576279E-07 1.192093E-07
vt 0 1
vt 3.576279E-07 1.192093E-07
vt 0.5 5.960464E-08
vt 0.4997559 1

g Building.026_35293_503
usemtl Building.026_35293_503
usemap Building.026_35293_503
f 1/1/1 3/3/3 2/2/2
f 1/1/1 4/4/4 3/3/3
f 5/5/5 7/7/7 6/6/6
f 5/5/5 8/8/8 7/7/7
f 9/9/9 11/11/11 10/10/10
f 9/9/9 12/12/12 11/11/11
f 13/13/13 9/9/9 10/10/10
f 13/13/13 10/10/10 14/14/14
f 15/15/15 17/17/17 16/16/16
f 15/15/15 18/18/18 17/17/17
f 19/19/19 21/21/21 20/20/20
f 19/19/19 22/22/22 21/21/21
f 23/23/23 19/19/19 20/20/20
f 23/23/23 20/20/20 24/24/24
f 25/25/25 27/27/27 26/26/26
f 25/25/25 28/28/28 27/27/27
