#Building_t_1.002_35135_72.obj

v -10.72889 -10.72886 -10.01475
v -17.73017 -7.872955 -10.01475
v -17.7302 11.63168 -10.01475
v -10.72885 14.48757 -10.01475
v 12.11784 -16.15957 49.81416
v -12.11782 -16.15953 49.81416
v -12.11783 13.76039 49.81416
v 12.11783 13.76035 49.81416
v -3.767695 -1.57489 49.64846
v 3.767705 -1.574902 49.64846
v 3.767713 3.5974 49.64846
v 3.767716 5.183216 49.64846
v 3.76772 7.727833 49.64846
v -3.76768 7.727845 49.64846
v 3.767713 3.5974 49.64846
v 3.606825 3.597401 49.64846
v 3.606827 5.183216 49.64846
v 3.767716 5.183216 49.64846
v 10.72891 14.48759 -10.01475
v 17.73019 11.63169 -10.01475
v 17.73022 -7.873012 -10.01475
v 10.72887 -10.7289 -10.01475

vn 0 0.9995117 1.192093E-07
vn 0 0.9995117 1.192093E-07
vn 0 0.9995117 1.192093E-07
vn 0 0.9995117 1.192093E-07
vn 0 0.9995117 1.192093E-07
vn 0 0.9995117 1.192093E-07
vn 0 0.9995117 1.192093E-07
vn 0 0.9995117 1.192093E-07
vn 0 -0.9995117 -1.192093E-07
vn 0 -0.9995117 -1.192093E-07
vn 0 -0.9995117 -1.192093E-07
vn 0 -0.9995117 -1.192093E-07
vn 0 -0.9995117 -1.192093E-07
vn 0 -0.9995117 -1.192093E-07
vn 0 0.9995117 1.192093E-07
vn 0 0.9995117 1.192093E-07
vn 0 0.9995117 1.192093E-07
vn 0 0.9995117 1.192093E-07
vn 0 0.9995117 1.192093E-07
vn 0 0.9995117 1.192093E-07
vn 0 0.9995117 1.192093E-07
vn 0 0.9995117 1.192093E-07

vt 0.5 -3.576172
vt -2.251953 -2.652344
vt -2.251953 3.652344
vt 0.5 4.574219
vt -3.732422 -3.017578
vt -3.732422 3.837891
vt 4.730469 3.837891
vt 4.730469 -3.017578
vt -2.320313 2.695313
vt -2.320313 -1.875
vt 0.815918 -1.875
vt 1.777344 -1.875
vt 3.320313 -1.875
vt 3.320313 2.695313
vt 0.815918 -1.875
vt 0.815918 -1.875
vt 1.777344 -1.875
vt 1.777344 -1.875
vt 3.123047 -3.589844
vt 0.4953613 -2.662109
vt 0.4953613 3.662109
vt 3.123047 4.589844

g Building_t_1.002_35135_72
usemtl Building_t_1.002_35135_72
usemap Building_t_1.002_35135_72
f 1/1/1 3/3/3 2/2/2
f 1/1/1 4/4/4 3/3/3
f 5/5/5 7/7/7 6/6/6
f 5/5/5 8/8/8 7/7/7
f 9/9/9 11/11/11 10/10/10
f 11/11/11 9/9/9 12/12/12
f 12/12/12 9/9/9 13/13/13
f 13/13/13 9/9/9 14/14/14
f 15/15/15 17/17/17 16/16/16
f 15/15/15 18/18/18 17/17/17
f 19/19/19 21/21/21 20/20/20
f 19/19/19 22/22/22 21/21/21
