#Building_small_t1.042_33446_56.obj

v -0.07889163 0.8241847 -0.1467998
v -0.07891726 0.8241844 -2.417071
v -0.07892051 -1.029179 -2.41707
v -0.07889488 -1.029178 -0.1467995
v -0.07889163 0.8241847 -0.1467998
v -0.07889488 -1.029178 -0.1467995
v -0.1803964 -1.029178 -0.1467996
v -0.1803932 0.8241848 -0.1467996
v -0.07889488 -1.029178 -0.1467995
v -0.07892051 -1.029179 -2.41707
v -0.1804221 -1.029179 -2.417071
v -0.1803964 -1.029178 -0.1467996
v -0.07891726 0.8241844 -2.417071
v -0.07889163 0.8241847 -0.1467998
v -0.1803932 0.8241848 -0.1467996
v -0.1804188 0.8241845 -2.417071
v -0.07892051 -1.029179 -2.41707
v -0.07891726 0.8241844 -2.417071
v -0.1804188 0.8241845 -2.417071
v -0.1804221 -1.029179 -2.417071

vn 0.9995117 -0.001386642 -1.728535E-06
vn 0.9995117 -0.001386642 -1.728535E-06
vn 0.9995117 -0.001386642 -1.728535E-06
vn 0.9995117 -0.001386642 -1.728535E-06
vn 0.001386642 0.9995117 2.980232E-07
vn 0.001386642 0.9995117 2.980232E-07
vn 0.001386642 0.9995117 2.980232E-07
vn 0.001386642 0.9995117 2.980232E-07
vn 1.728535E-06 -5.960464E-08 1
vn 1.728535E-06 -5.960464E-08 1
vn 1.728535E-06 -5.960464E-08 1
vn 1.728535E-06 -5.960464E-08 1
vn -1.728535E-06 5.960464E-08 -1
vn -1.728535E-06 5.960464E-08 -1
vn -1.728535E-06 5.960464E-08 -1
vn -1.728535E-06 5.960464E-08 -1
vn -0.001386642 -0.9995117 -2.980232E-07
vn -0.001386642 -0.9995117 -2.980232E-07
vn -0.001386642 -0.9995117 -2.980232E-07
vn -0.001386642 -0.9995117 -2.980232E-07

vt 0 0
vt 0 1
vt 1 1
vt 1 0
vt 0 0
vt 1 0
vt 1 0
vt 0 0
vt 1 0
vt 1 1
vt 1 1
vt 1 0
vt 0 1
vt 0 0
vt 0 0
vt 0 1
vt 1 1
vt 0 1
vt 0 1
vt 1 1

g Building_small_t1.042_33446_56
usemtl Building_small_t1.042_33446_56
usemap Building_small_t1.042_33446_56
f 1/1/1 3/3/3 2/2/2
f 1/1/1 4/4/4 3/3/3
f 5/5/5 7/7/7 6/6/6
f 5/5/5 8/8/8 7/7/7
f 9/9/9 11/11/11 10/10/10
f 9/9/9 12/12/12 11/11/11
f 13/13/13 15/15/15 14/14/14
f 13/13/13 16/16/16 15/15/15
f 17/17/17 19/19/19 18/18/18
f 17/17/17 20/20/20 19/19/19
