#Building_t4.003_(1)_37698_636.obj

v -1.561514 -0.9183133 0.9415508
v -2.619923 -0.9183117 0.9415508
v -2.61992 0.9927956 0.9415507
v -1.561512 0.9927939 0.9415507
v 0.871094 -0.8783407 1.558948
v -0.1073715 -0.8783439 1.558948
v -0.1073782 0.9528249 1.558947
v 0.8710873 0.9528233 1.558947
v -0.2793861 -0.7641509 0.7971793
v -1.429471 -0.7641491 0.7971793
v -1.429469 0.838634 0.7971794
v -0.2793932 0.8386322 0.7971794

vn 0 1 1.192093E-07
vn 0 1 1.192093E-07
vn 0 1 1.192093E-07
vn 0 1 1.192093E-07
vn 0 1 1.192093E-07
vn 0 1 1.192093E-07
vn 0 1 1.192093E-07
vn 0 1 1.192093E-07
vn 0 1 1.192093E-07
vn 0 1 1.192093E-07
vn 0 1 1.192093E-07
vn 0 1 1.192093E-07

vt 0.2529297 0.8339844
vt -0.4291992 0.8339844
vt -0.4291992 2.064453
vt 0.2529297 2.064453
vt 0.5317383 0.859375
vt -0.09893799 0.859375
vt -0.09893799 2.039063
vt 0.5317383 2.039063
vt 0.9995117 0
vt 0 1.788139E-07
vt 1.788139E-07 1
vt 1 0.9995117

g Building_t4.003_(1)_37698_636
usemtl Building_t4.003_(1)_37698_636
usemap Building_t4.003_(1)_37698_636
f 1/1/1 3/3/3 2/2/2
f 1/1/1 4/4/4 3/3/3
f 5/5/5 7/7/7 6/6/6
f 5/5/5 8/8/8 7/7/7
f 9/9/9 11/11/11 10/10/10
f 9/9/9 12/12/12 11/11/11
