#Building_2parts_33572_645.obj

v -0.7215896 0.7215885 0.463232
v -0.7215866 -1.117509 0.4632318
v 0.2010086 -1.117509 0.4632318
v 0.3068298 -1.032213 0.4632319
v 0.5763054 -0.8823754 0.4632317
v 0.7215886 -0.8183944 0.4632317
v 0.7215861 0.7215884 0.463232
v -0.6706317 -2.410053 0.2242153
v -0.6706309 -2.888168 0.2242153
v -0.03012875 -2.410053 0.2242153
v -0.030128 -2.888168 0.2242153
v -0.6706317 -2.410053 -0.3415635
v -0.8214532 -1.855563 -0.3415635
v -0.6706309 -2.888168 -0.3415635
v -0.8214514 -2.977829 -0.3415635
v -0.030128 -2.888168 -0.3415635
v 0.1206928 -2.977828 -0.3415635
v -0.03012875 -2.410053 -0.3415635
v 0.1206957 -1.855564 -0.3415635
v -0.8214532 -1.855563 -0.5653766
v -0.999999 -1.752014 -0.5653766
v -0.8214514 -2.977829 -0.5653766
v -1.000001 -3.527504 -0.5653767
v 0.1206928 -2.977828 -0.5653766
v 0.299244 -3.527505 -0.5653767
v 0.1206957 -1.855564 -0.5653766
v 0.2992412 -1.752014 -0.5653766
v 0.3513185 -1.098239 -0.5653765
v 0.4629754 -1.263948 -0.5653765
v 0.611644 -0.9534906 -0.5653765
v 0.7003283 -1.131973 -0.5653765
v 0.2992406 -1.395921 -0.5653766
v 0.2289986 -1.196835 -0.5653765
v -0.9999996 -1.395922 -0.5653766
v -0.8009123 -1.196834 -0.5653765
v -0.9999986 1 -0.5653764
v -0.8009155 0.8009131 -0.5653764
v 0.8009144 -0.8701379 -0.5653765
v 0.9999974 -0.999999 -0.5653765
v 0.8009118 0.8009133 -0.5653764
v 0.999999 1.000001 -0.5653764
v -0.5269668 -1.774235 -0.6861717
v -0.173791 -1.774236 -0.6861717
v -0.5269673 -1.395921 -0.6861717
v -0.1737916 -1.395922 -0.6861717
v 0.9999973 -0.8959947 -0.7266281
v 1.098678 -0.8959945 -0.7266281
v 0.9999992 0.8959969 -0.7266279
v 1.09868 0.8959959 -0.7266279

vn 0 0.9995117 -5.960464E-08
vn 0 0.9995117 -5.960464E-08
vn 0 0.9995117 -5.960464E-08
vn 0 0.9995117 -5.960464E-08
vn 0 0.9995117 -5.960464E-08
vn 0 0.9995117 -5.960464E-08
vn 0 0.9995117 -5.960464E-08
vn 0 0.9995117 -5.960464E-08
vn 0 0.9995117 -5.960464E-08
vn 0 0.9995117 -5.960464E-08
vn 0 0.9995117 -5.960464E-08
vn 0 0.9995117 -5.960464E-08
vn 0 0.9995117 -5.960464E-08
vn 0 0.9995117 -5.960464E-08
vn 0 0.9995117 -5.960464E-08
vn 0 0.9995117 -5.960464E-08
vn 0 0.9995117 -5.960464E-08
vn 0 0.9995117 -5.960464E-08
vn 0 0.9995117 -5.960464E-08
vn 0 0.9995117 -5.960464E-08
vn 0 0.9995117 -5.960464E-08
vn 0 0.9995117 -5.960464E-08
vn 0 0.9995117 -5.960464E-08
vn 0 0.9995117 -5.960464E-08
vn 0 0.9995117 -5.960464E-08
vn 0 0.9995117 -5.960464E-08
vn 0 0.9995117 -5.960464E-08
vn 0 0.9995117 -5.960464E-08
vn 0 0.9995117 -5.960464E-08
vn 0 0.9995117 -5.960464E-08
vn 0 0.9995117 -5.960464E-08
vn 0 0.9995117 -5.960464E-08
vn 0 0.9995117 -5.960464E-08
vn 0 0.9995117 -5.960464E-08
vn 0 0.9995117 -5.960464E-08
vn 0 0.9995117 -5.960464E-08
vn 0 0.9995117 -5.960464E-08
vn 0 0.9995117 -5.960464E-08
vn 0 0.9995117 -5.960464E-08
vn 0 0.9995117 -5.960464E-08
vn 0 0.9995117 -5.960464E-08
vn 0 0.9995117 -5.960464E-08
vn 0 0.9995117 -5.960464E-08
vn 0 0.9995117 -5.960464E-08
vn 0 0.9995117 -5.960464E-08
vn 0 0.9995117 -5.960464E-08
vn 0 0.9995117 -5.960464E-08
vn 0 0.9995117 -5.960464E-08
vn 0 0.9995117 -5.960464E-08

vt 0.7148438 1.335938
vt 0.7148438 -0.7978516
vt 1.426758 -0.7978516
vt 1.508789 -0.6992188
vt 1.716797 -0.5253906
vt 1.829102 -0.4509277
vt 1.829102 1.335938
vt 1.314453 1.889648
vt 0.7211914 1.889648
vt 1.314453 0.8798828
vt 0.7211914 0.8798828
vt 0.9082031 0.005271912
vt 0.7211914 0.8798828
vt 0.9082031 -0.7485352
vt 0.7211914 -0.8901367
vt 1.703125 -0.7485352
vt 1.889648 -0.8901367
vt 1.703125 0.005271912
vt 1.889648 0.8798828
vt -0.668457 1.703125
vt -0.8901367 1.867188
vt -0.668457 -0.06634521
vt -0.8901367 -0.8901367
vt 0.5 -0.06634521
vt 0.7211914 -0.8901367
vt 0.5 1.703125
vt 0.7211914 1.867188
vt 0.152832 -0.5444336
vt 0.2390137 -0.7368164
vt 0.3537598 -0.376709
vt 0.4221191 -0.5839844
vt 0.1126709 -0.8901367
vt 0.05844116 -0.6591797
vt -0.8901367 -0.8901367
vt -0.7363281 -0.6591797
vt -0.8901367 1.889648
vt -0.7363281 1.65918
vt 0.4997559 -0.2800293
vt 0.6533203 -0.4306641
vt 0.5 1.65918
vt 0.6533203 1.889648
vt 0.4697266 0.9594727
vt 0.6606445 0.9594727
vt 0.4697266 0.7431641
vt 0.6606445 0.7431641
vt 1.734375 1.554688
vt 1.578125 1.554688
vt 1.734375 -0.8901367
vt 1.578125 -0.8901367

g Building_2parts_33572_645
usemtl Building_2parts_33572_645
usemap Building_2parts_33572_645
f 1/1/1 3/3/3 2/2/2
f 1/1/1 4/4/4 3/3/3
f 1/1/1 5/5/5 4/4/4
f 1/1/1 6/6/6 5/5/5
f 6/6/6 1/1/1 7/7/7
f 8/8/8 10/10/10 9/9/9
f 9/9/9 10/10/10 11/11/11
f 12/12/12 14/14/14 13/13/13
f 13/13/13 14/14/14 15/15/15
f 14/14/14 16/16/16 15/15/15
f 15/15/15 16/16/16 17/17/17
f 16/16/16 18/18/18 17/17/17
f 17/17/17 18/18/18 19/19/19
f 18/18/18 12/12/12 19/19/19
f 19/19/19 12/12/12 13/13/13
f 20/20/20 22/22/22 21/21/21
f 21/21/21 22/22/22 23/23/23
f 22/22/22 24/24/24 23/23/23
f 23/23/23 24/24/24 25/25/25
f 24/24/24 26/26/26 25/25/25
f 25/25/25 26/26/26 27/27/27
f 26/26/26 20/20/20 27/27/27
f 27/27/27 20/20/20 21/21/21
f 28/28/28 30/30/30 29/29/29
f 29/29/29 30/30/30 31/31/31
f 32/32/32 28/28/28 29/29/29
f 33/33/33 28/28/28 32/32/32
f 34/34/34 33/33/33 32/32/32
f 35/35/35 33/33/33 34/34/34
f 36/36/36 35/35/35 34/34/34
f 37/37/37 35/35/35 36/36/36
f 30/30/30 38/38/38 31/31/31
f 31/31/31 38/38/38 39/39/39
f 38/38/38 40/40/40 39/39/39
f 39/39/39 40/40/40 41/41/41
f 40/40/40 37/37/37 41/41/41
f 41/41/41 37/37/37 36/36/36
f 42/42/42 44/44/44 43/43/43
f 43/43/43 44/44/44 45/45/45
f 46/46/46 48/48/48 47/47/47
f 47/47/47 48/48/48 49/49/49
