#Building_t4_34263_292.obj

v -1.561519 -0.9183124 0.9415506
v -2.619927 -0.9183105 0.9415506
v -2.619924 0.9927964 0.9415507
v -1.561515 0.9927946 0.9415507
v 0.8710897 -0.8783402 1.558947
v -0.1073757 -0.8783385 1.558947
v -0.1073822 0.9528252 1.558947
v 0.8710833 0.9528235 1.558947
v -0.2793903 -0.7641501 0.7971793
v -1.429475 -0.7641481 0.7971793
v -1.429473 0.8386348 0.7971793
v -0.2793972 0.8386328 0.7971793

vn 0 1 1.192093E-07
vn 0 1 1.192093E-07
vn 0 1 1.192093E-07
vn 0 1 1.192093E-07
vn 0 1 1.192093E-07
vn 0 1 1.192093E-07
vn 0 1 1.192093E-07
vn 0 1 1.192093E-07
vn 0 1 1.192093E-07
vn 0 1 1.192093E-07
vn 0 1 1.192093E-07
vn 0 1 1.192093E-07

vt 0.2529297 0.8339844
vt -0.4291992 0.8339844
vt -0.4291992 2.064453
vt 0.2529297 2.064453
vt 0.5317383 0.859375
vt -0.09893799 0.859375
vt -0.09893799 2.039063
vt 0.5317383 2.039063
vt 0.9995117 0
vt 0 1.788139E-07
vt 1.788139E-07 1
vt 1 0.9995117

g Building_t4_34263_292
usemtl Building_t4_34263_292
usemap Building_t4_34263_292
f 1/1/1 3/3/3 2/2/2
f 1/1/1 4/4/4 3/3/3
f 5/5/5 7/7/7 6/6/6
f 5/5/5 8/8/8 7/7/7
f 9/9/9 11/11/11 10/10/10
f 9/9/9 12/12/12 11/11/11
