#Building_t13.009_36600_539.obj

v -1.408082 -18.14835 -2.83622
v -1.408082 -18.14835 -11.1389
v -1.722721 -2.283583 -2.835991
v -1.722721 -2.283583 -11.13867
v -34.3825 13.15518 5.466427
v -34.3825 13.15518 -2.836222
v -40.87514 9.00097 5.466427
v -40.87514 9.00097 -2.836222
v -1.722721 -2.283583 -2.835991
v -1.722721 -2.283583 -11.13867
v -39.47312 -2.196998 -2.83622
v -39.47312 -2.196998 -11.1389
v 64.1961 -0.3451133 22.07174
v 64.1961 -0.3451133 5.466427
v 64.91411 11.39011 22.07174
v 64.91411 11.39011 5.466427
v 64.91411 11.39011 22.07174
v 64.91411 11.39011 5.466427
v 58.2574 15.62607 22.07174
v 58.2574 15.62607 5.466427
v 27.20879 -0.4416174 22.07162
v 27.20879 -0.4416174 5.466319
v 64.1961 -0.3451133 22.07174
v 64.1961 -0.3451133 5.466427
v -15.78802 -18.29148 -11.1389
v -1.408082 -18.14835 -11.1389
v -1.408082 -18.14835 -2.83622
v -15.78802 -18.29148 -2.83622
v -30.16796 -18.43446 -11.1389
v -30.16796 -18.43446 -2.83622
v 12.97185 -18.0055 -2.83622
v 12.97185 -18.0055 5.46643
v -1.408082 -18.14835 5.46643
v -15.78802 -18.29148 5.46643
v -30.16796 -18.43446 5.46643
v 12.97185 -18.0055 22.07174
v -1.40808 -18.14828 22.07174
v -30.16796 -18.43446 22.07174
v -15.78802 -18.29148 22.07174
v 27.20879 -0.4416174 5.466319
v 27.20879 -0.4416174 -2.83633
v 27.37733 14.80235 5.466427
v 27.37733 14.80235 -2.836222
v 12.97185 -18.0055 22.07174
v 12.97185 -18.0055 5.46643
v 27.20879 -0.4416174 22.07162
v 27.20879 -0.4416174 5.466319
v 12.97185 -18.0055 -2.83622
v 27.20879 -0.4416174 -2.83633
v -39.47312 -2.196998 -11.1389
v -38.07124 -13.39475 -11.1389
v -38.07124 -13.39475 -2.83622
v -39.47312 -2.196998 -2.83622
v -40.87514 9.00097 5.466427
v -40.87514 9.00097 -2.836222
v -39.47312 -2.196998 5.46643
v -40.87514 9.00097 22.07174
v -39.47312 -2.196998 22.07174
v -38.07124 -13.39475 22.07174
v -38.07124 -13.39475 5.46643
v -34.3825 13.15518 22.07174
v -34.3825 13.15518 5.466427
v -40.87514 9.00097 22.07174
v -40.87514 9.00097 5.466427
v -18.94239 13.56704 -2.836222
v -34.3825 13.15518 -2.836222
v -34.3825 13.15518 5.466427
v 27.37733 14.80235 5.466427
v 27.37733 14.80235 -2.836222
v 11.93738 14.39049 5.466427
v 11.93738 14.39049 -2.836222
v -18.94239 13.56704 5.466427
v -3.502576 13.97891 -2.836222
v -3.502576 13.97891 5.466427
v 27.37733 14.80235 22.07174
v 11.93738 14.39049 22.07174
v -3.502576 13.97891 22.07174
v -18.94239 13.56704 22.07174
v -34.3825 13.15518 22.07174
v -38.07124 -13.39475 -11.1389
v -30.16796 -18.43446 -11.1389
v -30.16796 -18.43446 -2.83622
v -38.07124 -13.39475 -2.83622
v -30.16796 -18.43446 5.46643
v -38.07124 -13.39475 5.46643
v -38.07124 -13.39475 22.07174
v -30.16796 -18.43446 22.07174
v 42.8173 15.21421 5.466427
v 27.37733 14.80235 5.466427
v 27.37733 14.80235 22.07174
v 42.8173 15.21421 22.07174
v 58.2574 15.62607 22.07174
v 58.2574 15.62607 5.466427

vn -0.9985352 0 0.04937744
vn -0.9985352 0 0.04937744
vn -0.9985352 0 0.04937744
vn -0.9985352 0 0.04937744
vn 0.5634766 5.960464E-08 0.8256836
vn 0.5634766 5.960464E-08 0.8256836
vn 0.5634766 5.960464E-08 0.8256836
vn 0.5634766 5.960464E-08 0.8256836
vn 0.02726746 1.192093E-07 0.9995117
vn 0.02726746 1.192093E-07 0.9995117
vn 0.02726746 1.192093E-07 0.9995117
vn 0.02726746 1.192093E-07 0.9995117
vn -0.9990234 0 -0.03152466
vn -0.9990234 0 -0.03152466
vn -0.9990234 0 -0.03152466
vn -0.9990234 0 -0.03152466
vn -0.5112305 5.960464E-08 0.8588867
vn -0.5112305 5.960464E-08 0.8588867
vn -0.5112305 5.960464E-08 0.8588867
vn -0.5112305 5.960464E-08 0.8588867
vn -0.03216553 -5.960464E-08 -0.9990234
vn -0.03216553 -5.960464E-08 -0.9990234
vn -0.03216553 -5.960464E-08 -0.9990234
vn -0.03216553 -5.960464E-08 -0.9990234
vn -0.03948975 -5.960464E-08 -0.9990234
vn -0.03952026 -5.960464E-08 -0.9990234
vn -0.03948975 -5.960464E-08 -0.9990234
vn -0.03948975 -5.960464E-08 -0.9990234
vn -0.03948975 -5.960464E-08 -0.9990234
vn -0.03948975 -5.960464E-08 -0.9990234
vn -0.03948975 -5.960464E-08 -0.9990234
vn -0.03948975 -5.960464E-08 -0.9990234
vn -0.03948975 -5.960464E-08 -0.9990234
vn -0.03948975 -5.960464E-08 -0.9990234
vn -0.03948975 -5.960464E-08 -0.9990234
vn -0.03948975 -5.960464E-08 -0.9990234
vn -0.03948975 -5.960464E-08 -0.9990234
vn -0.03948975 -5.960464E-08 -0.9990234
vn -0.03948975 -5.960464E-08 -0.9990234
vn -0.9995117 0 0.01850891
vn -0.9995117 0 0.01850891
vn -0.9995117 0 0.01850891
vn -0.9995117 0 0.01850891
vn -0.7949219 -5.960464E-08 -0.6064453
vn -0.7949219 -5.960464E-08 -0.6064453
vn -0.7949219 -5.960464E-08 -0.6064453
vn -0.7949219 -5.960464E-08 -0.6064453
vn -0.7949219 -5.960464E-08 -0.6064453
vn -0.7949219 -5.960464E-08 -0.6064453
vn 0.987793 0 -0.1534424
vn 0.987793 0 -0.1534424
vn 0.987793 0 -0.1534424
vn 0.987793 0 -0.1534424
vn 0.987793 0 -0.1534424
vn 0.987793 0 -0.1534424
vn 0.987793 0 -0.1534424
vn 0.987793 0 -0.1534424
vn 0.987793 0 -0.1534424
vn 0.987793 0 -0.1534424
vn 0.987793 0 -0.1534424
vn 0.5634766 5.960464E-08 0.8256836
vn 0.5634766 5.960464E-08 0.8256836
vn 0.5634766 5.960464E-08 0.8256836
vn 0.5634766 5.960464E-08 0.8256836
vn 0.05621338 5.960464E-08 0.9980469
vn 0.05621338 5.960464E-08 0.9980469
vn 0.05621338 5.960464E-08 0.9980469
vn 0.05621338 5.960464E-08 0.9980469
vn 0.05621338 5.960464E-08 0.9980469
vn 0.05618286 5.960464E-08 0.9980469
vn 0.05618286 5.960464E-08 0.9980469
vn 0.05621338 5.960464E-08 0.9980469
vn 0.05618286 5.960464E-08 0.9980469
vn 0.05618286 5.960464E-08 0.9980469
vn 0.05621338 5.960464E-08 0.9980469
vn 0.05618286 5.960464E-08 0.9980469
vn 0.05618286 5.960464E-08 0.9980469
vn 0.05621338 5.960464E-08 0.9980469
vn 0.05621338 5.960464E-08 0.9980469
vn 0.512207 -5.960464E-08 -0.8583984
vn 0.512207 -5.960464E-08 -0.8583984
vn 0.512207 -5.960464E-08 -0.8583984
vn 0.512207 -5.960464E-08 -0.8583984
vn 0.512207 -5.960464E-08 -0.8583984
vn 0.512207 -5.960464E-08 -0.8583984
vn 0.512207 -5.960464E-08 -0.8583984
vn 0.512207 -5.960464E-08 -0.8583984
vn 0.05621338 5.960464E-08 0.9980469
vn 0.05621338 5.960464E-08 0.9980469
vn 0.05621338 5.960464E-08 0.9980469
vn 0.05621338 5.960464E-08 0.9980469
vn 0.05621338 5.960464E-08 0.9980469
vn 0.05621338 5.960464E-08 0.9980469

vt -0.8383789 -0.01423645
vt -0.8383789 -0.2325439
vt -0.4946289 -0.01423645
vt -0.4946289 -0.2325439
vt 1.630859 0.2041016
vt 1.630859 -0.01423645
vt 1.797852 0.2041016
vt 1.797852 -0.01423645
vt -0.4946289 -0.01423645
vt -0.4946289 -0.2325439
vt 0.3227539 -0.01423645
vt 0.3227539 -0.2325439
vt 0.7636719 0.640625
vt 0.7636719 0.2041016
vt 1.018555 0.640625
vt 1.018555 0.2041016
vt 1.018555 0.640625
vt 1.018555 0.2041016
vt 1.189453 0.640625
vt 1.189453 0.2041016
vt -0.03729248 0.640625
vt -0.03729248 0.2041016
vt 0.7636719 0.640625
vt 0.7636719 0.2041016
vt -1.149414 -0.2325439
vt -0.8383789 -0.2325439
vt -0.8383789 -0.01423645
vt -1.149414 -0.01423645
vt -1.460938 -0.2325439
vt -1.460938 -0.01423645
vt -0.5268555 -0.01423645
vt -0.5268555 0.2041016
vt -0.8383789 0.2041016
vt -1.149414 0.2041016
vt -1.460938 0.2041016
vt -0.5268555 0.640625
vt -0.8383789 0.640625
vt -1.460938 0.640625
vt -1.149414 0.640625
vt -0.03729248 0.2041016
vt -0.03729248 -0.01423645
vt 0.2927246 0.2041016
vt 0.2927246 -0.01423645
vt -0.5268555 0.640625
vt -0.5268555 0.2041016
vt -0.03729248 0.640625
vt -0.03729248 0.2041016
vt -0.5268555 -0.01423645
vt -0.03729248 -0.01423645
vt -1.908203 -0.2325439
vt -1.664063 -0.2325439
vt -1.664063 -0.01423645
vt -1.908203 -0.01423645
vt -2.152344 0.2041016
vt -2.152344 -0.01423645
vt -1.908203 0.2041016
vt -2.152344 0.640625
vt -1.908203 0.640625
vt -1.664063 0.640625
vt -1.664063 0.2041016
vt -2.320313 0.640625
vt -2.320313 0.2041016
vt -2.152344 0.640625
vt -2.152344 0.2041016
vt 1.295898 -0.01423645
vt 1.630859 -0.01423645
vt 1.630859 0.2041016
vt 0.2927246 0.2041016
vt 0.2927246 -0.01423645
vt 0.6274414 0.2041016
vt 0.6274414 -0.01423645
vt 1.295898 0.2041016
vt 0.9619141 -0.01423645
vt 0.9619141 0.2041016
vt 0.2927246 0.640625
vt 0.6274414 0.640625
vt 0.9619141 0.640625
vt 1.295898 0.640625
vt 1.630859 0.640625
vt -1.664063 -0.2325439
vt -1.460938 -0.2325439
vt -1.460938 -0.01423645
vt -1.664063 -0.01423645
vt -1.460938 0.2041016
vt -1.664063 0.2041016
vt -1.664063 0.640625
vt -1.460938 0.640625
vt 1.523438 0.2041016
vt 1.858398 0.2041016
vt 1.858398 0.640625
vt 1.523438 0.640625
vt 1.189453 0.640625
vt 1.189453 0.2041016

g Building_t13.009_36600_539
usemtl Building_t13.009_36600_539
usemap Building_t13.009_36600_539
f 1/1/1 3/3/3 2/2/2
f 2/2/2 3/3/3 4/4/4
f 5/5/5 7/7/7 6/6/6
f 6/6/6 7/7/7 8/8/8
f 9/9/9 11/11/11 10/10/10
f 10/10/10 11/11/11 12/12/12
f 13/13/13 15/15/15 14/14/14
f 14/14/14 15/15/15 16/16/16
f 17/17/17 19/19/19 18/18/18
f 18/18/18 19/19/19 20/20/20
f 21/21/21 23/23/23 22/22/22
f 22/22/22 23/23/23 24/24/24
f 25/25/25 27/27/27 26/26/26
f 28/28/28 27/27/27 25/25/25
f 29/29/29 28/28/28 25/25/25
f 30/30/30 28/28/28 29/29/29
f 27/27/27 32/32/32 31/31/31
f 33/33/33 32/32/32 27/27/27
f 28/28/28 33/33/33 27/27/27
f 34/34/34 33/33/33 28/28/28
f 30/30/30 34/34/34 28/28/28
f 35/35/35 34/34/34 30/30/30
f 33/33/33 36/36/36 32/32/32
f 37/37/37 36/36/36 33/33/33
f 38/38/38 39/39/39 35/35/35
f 35/35/35 39/39/39 34/34/34
f 39/39/39 37/37/37 34/34/34
f 34/34/34 37/37/37 33/33/33
f 40/40/40 42/42/42 41/41/41
f 41/41/41 42/42/42 43/43/43
f 44/44/44 46/46/46 45/45/45
f 45/45/45 46/46/46 47/47/47
f 45/45/45 47/47/47 48/48/48
f 48/48/48 47/47/47 49/49/49
f 50/50/50 52/52/52 51/51/51
f 53/53/53 52/52/52 50/50/50
f 54/54/54 56/56/56 55/55/55
f 55/55/55 56/56/56 53/53/53
f 57/57/57 58/58/58 54/54/54
f 54/54/54 58/58/58 56/56/56
f 58/58/58 59/59/59 56/56/56
f 56/56/56 59/59/59 60/60/60
f 56/56/56 60/60/60 53/53/53
f 53/53/53 60/60/60 52/52/52
f 61/61/61 63/63/63 62/62/62
f 62/62/62 63/63/63 64/64/64
f 65/65/65 67/67/67 66/66/66
f 68/68/68 70/70/70 69/69/69
f 69/69/69 70/70/70 71/71/71
f 72/72/72 67/67/67 65/65/65
f 73/73/73 72/72/72 65/65/65
f 74/74/74 72/72/72 73/73/73
f 71/71/71 74/74/74 73/73/73
f 70/70/70 74/74/74 71/71/71
f 75/75/75 76/76/76 68/68/68
f 68/68/68 76/76/76 70/70/70
f 76/76/76 77/77/77 70/70/70
f 70/70/70 77/77/77 74/74/74
f 77/77/77 78/78/78 74/74/74
f 74/74/74 78/78/78 72/72/72
f 78/78/78 79/79/79 72/72/72
f 72/72/72 79/79/79 67/67/67
f 80/80/80 82/82/82 81/81/81
f 83/83/83 82/82/82 80/80/80
f 83/83/83 84/84/84 82/82/82
f 85/85/85 84/84/84 83/83/83
f 86/86/86 87/87/87 85/85/85
f 85/85/85 87/87/87 84/84/84
f 88/88/88 90/90/90 89/89/89
f 91/91/91 90/90/90 88/88/88
f 92/92/92 91/91/91 93/93/93
f 93/93/93 91/91/91 88/88/88
