#Building_small_t1.096_34568_244.obj

v -0.9569079 2.254438 -0.001042666
v -0.9569079 2.254438 -1.481905
v -0.9569291 1.088181 -1.481905
v -0.9569291 1.088181 -0.001042511
v -6.870797 5.079425 -0.001042566
v -6.870797 5.079424 -1.481905
v -6.870776 6.245681 -1.481905
v -6.870776 6.245681 -0.001042721
v -6.870778 2.574663 -0.001042709
v -6.870778 2.574663 -1.481905
v -6.870818 3.740949 -1.481905
v -6.870818 3.740949 -0.001042387
v -3.462733 7.447169 -0.001042404
v -3.462733 7.447168 -1.481905
v -2.879636 7.447188 -1.481905
v -2.879636 7.447188 -0.001042404
v -4.045892 7.447179 -0.001042404
v -4.045892 7.447179 -1.481905
v -4.629051 7.447189 -0.001042404
v -4.629051 7.447189 -1.481905
v -4.045892 7.447179 -1.481905
v -4.045892 7.447179 -0.001042404
v 0.7752749 -4.040661 -0.001042782
v 0.7752749 -4.040661 -1.481905
v 0.775254 -5.206948 -1.481905
v 0.775254 -5.206948 -0.001043103
v 0.7752562 -6.504711 -0.00104293
v 0.7752562 -6.504711 -1.481905
v 0.775296 -7.670967 -1.481905
v 0.775296 -7.670967 -0.001043252
v -0.5311604 -8.962806 -0.00104308
v -0.5311604 -8.962806 -1.481905
v -1.697416 -8.962815 -1.481905
v -1.697416 -8.962815 -0.00104308
v -3.656436 -8.962819 -0.00104308
v -3.656436 -8.962819 -1.481905
v -4.822692 -8.962829 -1.481905
v -4.822692 -8.962829 -0.00104308
v -6.100528 -6.718107 -0.001042902
v -6.100528 -6.718107 -1.481905
v -6.100507 -5.551851 -1.481905
v -6.100507 -5.551851 -0.001043057

vn 0.9995117 0 0.009918213
vn 0.9995117 0 0.009918213
vn 0.9995117 0 0.009918213
vn 0.9995117 0 0.009918213
vn -0.9995117 0 -0.009918213
vn -0.9995117 0 -0.009918213
vn -0.9995117 0 -0.009918213
vn -0.9995117 0 -0.009918213
vn -0.9995117 0 -0.009918213
vn -0.9995117 0 -0.009918213
vn -0.9995117 0 -0.009918213
vn -0.9995117 0 -0.009918213
vn 0.009918213 1.788139E-07 -0.9995117
vn 0.009918213 1.788139E-07 -0.9995117
vn 0.009918213 1.788139E-07 -0.9995117
vn 0.009918213 1.788139E-07 -0.9995117
vn 0.009918213 1.788139E-07 -0.9995117
vn 0.009918213 1.788139E-07 -0.9995117
vn 0.009918213 1.788139E-07 -0.9995117
vn 0.009918213 1.788139E-07 -0.9995117
vn 0.009918213 1.788139E-07 -0.9995117
vn 0.009918213 1.788139E-07 -0.9995117
vn 0.9995117 0 0.009918213
vn 0.9995117 0 0.009918213
vn 0.9995117 0 0.009918213
vn 0.9995117 0 0.009918213
vn 0.9995117 0 0.009918213
vn 0.9995117 0 0.009918213
vn 0.9995117 0 0.009918213
vn 0.9995117 0 0.009918213
vn -0.009918213 -1.788139E-07 0.9995117
vn -0.009918213 -1.788139E-07 0.9995117
vn -0.009918213 -1.788139E-07 0.9995117
vn -0.009918213 -1.788139E-07 0.9995117
vn -0.009918213 -1.788139E-07 0.9995117
vn -0.009918213 -1.788139E-07 0.9995117
vn -0.009918213 -1.788139E-07 0.9995117
vn -0.009918213 -1.788139E-07 0.9995117
vn -0.9995117 0 -0.009918213
vn -0.9995117 0 -0.009918213
vn -0.9995117 0 -0.009918213
vn -0.9995117 0 -0.009918213

vt 0 1
vt 3.576279E-07 1.192093E-07
vt 1 0
vt 0.9995117 0.9995117
vt 0 1
vt 3.576279E-07 1.192093E-07
vt 1 0
vt 0.9995117 0.9995117
vt 0 1
vt 3.576279E-07 1.192093E-07
vt 1 0
vt 0.9995117 0.9995117
vt 0.4997559 1
vt 0.5 5.960464E-08
vt 1 0
vt 0.9995117 0.9995117
vt 0 1
vt 3.576279E-07 1.192093E-07
vt 0 1
vt 3.576279E-07 1.192093E-07
vt 0.5 5.960464E-08
vt 0.4997559 1
vt 0 1
vt 3.576279E-07 1.192093E-07
vt 1 0
vt 0.9995117 0.9995117
vt 0 1
vt 3.576279E-07 1.192093E-07
vt 1 0
vt 0.9995117 0.9995117
vt 0 1
vt 3.576279E-07 1.192093E-07
vt 1 0
vt 0.9995117 0.9995117
vt 0 1
vt 3.576279E-07 1.192093E-07
vt 1 0
vt 0.9995117 0.9995117
vt 0 1
vt 3.576279E-07 1.192093E-07
vt 1 0
vt 0.9995117 0.9995117

g Building_small_t1.096_34568_244
usemtl Building_small_t1.096_34568_244
usemap Building_small_t1.096_34568_244
f 1/1/1 3/3/3 2/2/2
f 1/1/1 4/4/4 3/3/3
f 5/5/5 7/7/7 6/6/6
f 5/5/5 8/8/8 7/7/7
f 9/9/9 11/11/11 10/10/10
f 9/9/9 12/12/12 11/11/11
f 13/13/13 15/15/15 14/14/14
f 13/13/13 16/16/16 15/15/15
f 17/17/17 13/13/13 14/14/14
f 17/17/17 14/14/14 18/18/18
f 19/19/19 21/21/21 20/20/20
f 19/19/19 22/22/22 21/21/21
f 23/23/23 25/25/25 24/24/24
f 23/23/23 26/26/26 25/25/25
f 27/27/27 29/29/29 28/28/28
f 27/27/27 30/30/30 29/29/29
f 31/31/31 33/33/33 32/32/32
f 31/31/31 34/34/34 33/33/33
f 35/35/35 37/37/37 36/36/36
f 35/35/35 38/38/38 37/37/37
f 39/39/39 41/41/41 40/40/40
f 39/39/39 42/42/42 41/41/41
