#Building_small_t1.057_37459_154.obj

v -1.035842 3.60591 -2.457121
v -1.035849 5.09764 -2.447291
v -0.9343401 3.60591 -2.457121
v -0.9343479 5.097641 -2.44729
v -1.035849 5.09764 -2.447291
v -1.03585 5.082667 -0.1770696
v -0.9343479 5.097641 -2.44729
v -0.9343481 5.082667 -0.1770696
v -1.035842 3.590967 -0.1868991
v -1.035842 3.60591 -2.457121
v -0.9343404 3.590967 -0.1868991
v -0.9343401 3.60591 -2.457121
v -1.03585 5.082667 -0.1770696
v -1.035842 3.590967 -0.1868991
v -0.9343481 5.082667 -0.1770696
v -0.9343404 3.590967 -0.1868991
v -0.9343404 3.590967 -0.1868991
v -0.9343401 3.60591 -2.457121
v -0.9343481 5.082667 -0.1770696
v -0.9343479 5.097641 -2.44729

vn -0.01817322 -0.9995117 2.384186E-07
vn -0.01817322 -0.9995117 2.384186E-07
vn -0.01817322 -0.9995117 2.384186E-07
vn -0.01817322 -0.9995117 2.384186E-07
vn 0.9995117 -0.01817322 -5.066395E-06
vn 0.9995117 -0.01817322 -5.066395E-06
vn 0.9995117 -0.01817322 -5.066395E-06
vn 0.9995117 -0.01817322 -5.066395E-06
vn -0.9995117 0.01817322 5.066395E-06
vn -0.9995117 0.01817322 5.066395E-06
vn -0.9995117 0.01817322 5.066395E-06
vn -0.9995117 0.01817322 5.066395E-06
vn 0.01817322 0.9995117 -2.384186E-07
vn 0.01817322 0.9995117 -2.384186E-07
vn 0.01817322 0.9995117 -2.384186E-07
vn 0.01817322 0.9995117 -2.384186E-07
vn -5.304813E-06 0 -1
vn -5.304813E-06 0 -1
vn -5.304813E-06 0 -1
vn -5.304813E-06 0 -1

vt 1 1
vt 0 1
vt 1 1
vt 0 1
vt 0 1
vt 0 0
vt 0 1
vt 0 0
vt 1 0
vt 1 1
vt 1 0
vt 1 1
vt 0 0
vt 1 0
vt 0 0
vt 1 0
vt 1 0
vt 1 1
vt 0 0
vt 0 1

g Building_small_t1.057_37459_154
usemtl Building_small_t1.057_37459_154
usemap Building_small_t1.057_37459_154
f 1/1/1 3/3/3 2/2/2
f 2/2/2 3/3/3 4/4/4
f 5/5/5 7/7/7 6/6/6
f 6/6/6 7/7/7 8/8/8
f 9/9/9 11/11/11 10/10/10
f 10/10/10 11/11/11 12/12/12
f 13/13/13 15/15/15 14/14/14
f 14/14/14 15/15/15 16/16/16
f 17/17/17 19/19/19 18/18/18
f 18/18/18 19/19/19 20/20/20
