#Building_t4.003_34606_465.obj

v -1.561515 -0.9183121 0.9415508
v -2.619924 -0.9183105 0.9415508
v -2.619921 0.9927968 0.9415507
v -1.561512 0.9927951 0.9415507
v 0.8710935 -0.8783395 1.558948
v -0.107372 -0.8783403 1.558948
v -0.1073788 0.9528261 1.558947
v 0.8710867 0.9528246 1.558947
v -0.2793866 -0.7641497 0.7971793
v -1.429472 -0.7641503 0.7971793
v -1.429469 0.8386352 0.7971794
v -0.2793937 0.8386334 0.7971794

vn 0 1 1.192093E-07
vn 0 1 1.192093E-07
vn 0 1 1.192093E-07
vn 0 1 1.192093E-07
vn 0 1 1.192093E-07
vn 0 1 1.192093E-07
vn 0 1 1.192093E-07
vn 0 1 1.192093E-07
vn 0 1 1.192093E-07
vn 0 1 1.192093E-07
vn 0 1 1.192093E-07
vn 0 1 1.192093E-07

vt 0.2529297 0.8339844
vt -0.4291992 0.8339844
vt -0.4291992 2.064453
vt 0.2529297 2.064453
vt 0.5317383 0.859375
vt -0.09893799 0.859375
vt -0.09893799 2.039063
vt 0.5317383 2.039063
vt 0.9995117 0
vt 0 1.788139E-07
vt 1.788139E-07 1
vt 1 0.9995117

g Building_t4.003_34606_465
usemtl Building_t4.003_34606_465
usemap Building_t4.003_34606_465
f 1/1/1 3/3/3 2/2/2
f 1/1/1 4/4/4 3/3/3
f 5/5/5 7/7/7 6/6/6
f 5/5/5 8/8/8 7/7/7
f 9/9/9 11/11/11 10/10/10
f 9/9/9 12/12/12 11/11/11
