#Building_small_t1.008_33042_594.obj

v -2.102002 5.731344 3.543859
v -2.102002 5.73134 3.283563
v -5.18356 5.731338 3.543859
v -5.18356 5.731333 3.283563
v -5.183554 -4.331185 3.54386
v -5.183554 -4.331189 3.283563
v -2.101996 -4.331178 3.54386
v -2.101996 -4.331182 3.283564
v -2.101996 -4.331178 3.54386
v -2.101996 -4.331182 3.283564
v -2.102002 5.731344 3.543859
v -2.102002 5.73134 3.283563
v -5.18356 5.731338 3.543859
v -5.18356 5.731333 3.283563
v -5.183554 -4.331185 3.54386
v -5.183554 -4.331189 3.283563
v -0.2218182 -6.688297 0.9109221
v -0.2218182 -6.688281 0.4615614
v -7.063737 -6.688251 0.9109238
v -7.063737 -6.688295 0.4615608
v -7.063729 -10.73088 0.910922
v -7.063728 -10.73086 0.4615614
v -0.2218249 -10.73086 0.9109226
v -0.2218249 -10.73084 0.4615621
v -0.2218249 -10.73086 0.9109226
v -0.2218249 -10.73084 0.4615621
v -0.2218182 -6.688297 0.9109221
v -0.2218182 -6.688281 0.4615614
v -7.063737 -6.688251 0.9109238
v -7.063737 -6.688295 0.4615608
v -7.063729 -10.73088 0.910922
v -7.063728 -10.73086 0.4615614

vn -2.086163E-06 -0.03817749 -0.9990234
vn -2.086163E-06 -0.03817749 -0.9990234
vn -2.086163E-06 -0.03817749 -0.9990234
vn -2.086163E-06 -0.03817749 -0.9990234
vn 2.086163E-06 0.03817749 0.9990234
vn 2.086163E-06 0.03817749 0.9990234
vn 2.086163E-06 0.03817749 0.9990234
vn 2.086163E-06 0.03817749 0.9990234
vn -1 0 2.086163E-06
vn -1 0 2.086163E-06
vn -1 0 2.086163E-06
vn -1 0 2.086163E-06
vn 1 0 -2.086163E-06
vn 1 0 -2.086163E-06
vn 1 0 -2.086163E-06
vn 1 0 -2.086163E-06
vn -2.086163E-06 -0.03817749 -0.9990234
vn -2.086163E-06 -0.03817749 -0.9990234
vn -2.086163E-06 -0.03817749 -0.9990234
vn -2.086163E-06 -0.03817749 -0.9990234
vn 2.086163E-06 0.03817749 0.9990234
vn 2.086163E-06 0.03817749 0.9990234
vn 2.086163E-06 0.03817749 0.9990234
vn 2.086163E-06 0.03817749 0.9990234
vn -1 0 2.086163E-06
vn -1 0 2.086163E-06
vn -1 0 2.086163E-06
vn -1 0 2.086163E-06
vn 1 0 -2.086163E-06
vn 1 0 -2.086163E-06
vn 1 0 -2.086163E-06
vn 1 0 -2.086163E-06

vt 3.566406 -0.1116943
vt 3.566406 0.1953125
vt 1.697266 -0.1116943
vt 1.697266 0.1953125
vt 0.4997559 -0.1116943
vt 0.4997559 0.1953125
vt -1.369141 -0.1116943
vt -1.369141 0.1953125
vt -2.326172 -0.1116943
vt -2.326172 0.1953125
vt -4.75 -0.1116943
vt -4.75 0.1953125
vt 3.880859 -0.1116943
vt 3.880859 0.1953125
vt 1.457031 -0.1116943
vt 1.457031 0.1953125
vt 3.566406 -0.1116943
vt 3.566406 0.1953125
vt 1.697266 -0.1116943
vt 1.697266 0.1953125
vt 0.4997559 -0.1116943
vt 0.4997559 0.1953125
vt -1.369141 -0.1116943
vt -1.369141 0.1953125
vt -1.369141 -0.1116943
vt -1.369141 0.1953125
vt -2.566406 -0.1116943
vt -2.566406 0.1953125
vt 1.697266 -0.1116943
vt 1.697266 0.1953125
vt 0.4997559 -0.1116943
vt 0.4997559 0.1953125

g Building_small_t1.008_33042_594
usemtl Building_small_t1.008_33042_594
usemap Building_small_t1.008_33042_594
f 1/1/1 3/3/3 2/2/2
f 2/2/2 3/3/3 4/4/4
f 5/5/5 7/7/7 6/6/6
f 6/6/6 7/7/7 8/8/8
f 9/9/9 11/11/11 10/10/10
f 10/10/10 11/11/11 12/12/12
f 13/13/13 15/15/15 14/14/14
f 14/14/14 15/15/15 16/16/16
f 17/17/17 19/19/19 18/18/18
f 18/18/18 19/19/19 20/20/20
f 21/21/21 23/23/23 22/22/22
f 22/22/22 23/23/23 24/24/24
f 25/25/25 27/27/27 26/26/26
f 26/26/26 27/27/27 28/28/28
f 29/29/29 31/31/31 30/30/30
f 30/30/30 31/31/31 32/32/32
