#Building_small_t1.075_35693_176.obj

v -0.956939 2.254438 -0.001042366
v -0.956939 2.254438 -1.481905
v -0.9569334 1.088178 -1.481905
v -0.9569334 1.088178 -0.001042366
v -6.870813 5.079399 -0.00104332
v -6.870813 5.079399 -1.481905
v -6.870811 6.245659 -1.481905
v -6.870811 6.245659 -0.00104332
v -6.870818 2.574638 -0.00104332
v -6.870818 2.574638 -1.481905
v -6.870816 3.740898 -1.481905
v -6.870816 3.740898 -0.00104332
v -3.462774 7.44713 -0.00104332
v -3.462774 7.44713 -1.481905
v -2.879644 7.447129 -1.481905
v -2.879644 7.447129 -0.00104332
v -4.045904 7.447131 -0.00104332
v -4.045904 7.447131 -1.481905
v -4.629034 7.447132 -0.00104332
v -4.629034 7.447132 -1.481905
v -4.045904 7.447131 -1.481905
v -4.045904 7.447131 -0.00104332
v 0.7752659 -4.04067 -0.001042366
v 0.7752659 -4.04067 -1.481905
v 0.7752639 -5.20693 -1.481905
v 0.7752639 -5.20693 -0.001042366
v 0.7752617 -6.504721 -0.001042366
v 0.7752617 -6.504721 -1.481905
v 0.7752673 -7.67098 -1.481905
v 0.7752673 -7.67098 -0.001042366
v -0.5311849 -8.962849 -0.00104332
v -0.5311849 -8.962849 -1.481905
v -1.697445 -8.962846 -1.481905
v -1.697445 -8.962846 -0.00104332
v -3.65646 -8.962843 -0.00104332
v -3.65646 -8.962843 -1.481905
v -4.822719 -8.962841 -1.481905
v -4.822719 -8.962841 -0.00104332
v -6.100547 -6.718149 -0.00104332
v -6.100547 -6.718149 -1.481905
v -6.100553 -5.551889 -1.481905
v -6.100553 -5.551889 -0.00104332

vn 1.728535E-06 5.960464E-08 1
vn 1.728535E-06 5.960464E-08 1
vn 1.728535E-06 5.960464E-08 1
vn 1.728535E-06 5.960464E-08 1
vn -1.728535E-06 -5.960464E-08 -1
vn -1.728535E-06 -5.960464E-08 -1
vn -1.728535E-06 -5.960464E-08 -1
vn -1.728535E-06 -5.960464E-08 -1
vn -1.728535E-06 -5.960464E-08 -1
vn -1.728535E-06 -5.960464E-08 -1
vn -1.728535E-06 -5.960464E-08 -1
vn -1.728535E-06 -5.960464E-08 -1
vn 1 0 -1.66893E-06
vn 1 0 -1.66893E-06
vn 1 0 -1.66893E-06
vn 1 0 -1.66893E-06
vn 1 0 -1.66893E-06
vn 1 0 -1.66893E-06
vn 1 0 -1.66893E-06
vn 1 0 -1.66893E-06
vn 1 0 -1.66893E-06
vn 1 0 -1.66893E-06
vn 1.728535E-06 5.960464E-08 1
vn 1.728535E-06 5.960464E-08 1
vn 1.728535E-06 5.960464E-08 1
vn 1.728535E-06 5.960464E-08 1
vn 1.728535E-06 5.960464E-08 1
vn 1.728535E-06 5.960464E-08 1
vn 1.728535E-06 5.960464E-08 1
vn 1.728535E-06 5.960464E-08 1
vn -1 0 1.66893E-06
vn -1 0 1.66893E-06
vn -1 0 1.66893E-06
vn -1 0 1.66893E-06
vn -1 0 1.66893E-06
vn -1 0 1.66893E-06
vn -1 0 1.66893E-06
vn -1 0 1.66893E-06
vn -1.728535E-06 -5.960464E-08 -1
vn -1.728535E-06 -5.960464E-08 -1
vn -1.728535E-06 -5.960464E-08 -1
vn -1.728535E-06 -5.960464E-08 -1

vt 0 1
vt 3.576279E-07 1.192093E-07
vt 1 0
vt 0.9995117 0.9995117
vt 0 1
vt 3.576279E-07 1.192093E-07
vt 1 0
vt 0.9995117 0.9995117
vt 0 1
vt 3.576279E-07 1.192093E-07
vt 1 0
vt 0.9995117 0.9995117
vt 0.4997559 1
vt 0.5 5.960464E-08
vt 1 0
vt 0.9995117 0.9995117
vt 0 1
vt 3.576279E-07 1.192093E-07
vt 0 1
vt 3.576279E-07 1.192093E-07
vt 0.5 5.960464E-08
vt 0.4997559 1
vt 0 1
vt 3.576279E-07 1.192093E-07
vt 1 0
vt 0.9995117 0.9995117
vt 0 1
vt 3.576279E-07 1.192093E-07
vt 1 0
vt 0.9995117 0.9995117
vt 0 1
vt 3.576279E-07 1.192093E-07
vt 1 0
vt 0.9995117 0.9995117
vt 0 1
vt 3.576279E-07 1.192093E-07
vt 1 0
vt 0.9995117 0.9995117
vt 0 1
vt 3.576279E-07 1.192093E-07
vt 1 0
vt 0.9995117 0.9995117

g Building_small_t1.075_35693_176
usemtl Building_small_t1.075_35693_176
usemap Building_small_t1.075_35693_176
f 1/1/1 3/3/3 2/2/2
f 1/1/1 4/4/4 3/3/3
f 5/5/5 7/7/7 6/6/6
f 5/5/5 8/8/8 7/7/7
f 9/9/9 11/11/11 10/10/10
f 9/9/9 12/12/12 11/11/11
f 13/13/13 15/15/15 14/14/14
f 13/13/13 16/16/16 15/15/15
f 17/17/17 13/13/13 14/14/14
f 17/17/17 14/14/14 18/18/18
f 19/19/19 21/21/21 20/20/20
f 19/19/19 22/22/22 21/21/21
f 23/23/23 25/25/25 24/24/24
f 23/23/23 26/26/26 25/25/25
f 27/27/27 29/29/29 28/28/28
f 27/27/27 30/30/30 29/29/29
f 31/31/31 33/33/33 32/32/32
f 31/31/31 34/34/34 33/33/33
f 35/35/35 37/37/37 36/36/36
f 35/35/35 38/38/38 37/37/37
f 39/39/39 41/41/41 40/40/40
f 39/39/39 42/42/42 41/41/41
