#Building_t8.008_35063_532.obj

v -1.120021 10.96936 -0.1493496
v -5.160976 10.96937 -0.1493496
v -5.160954 5.068978 -0.1493492
v -1.12 5.068972 -0.1493492
v 3.367896 -6.731817 -0.1493483
v 3.367887 -12.6175 -0.1493479
v 12.34369 -12.61751 -0.1493479
v 12.34367 -6.731831 -0.1493483
v 11.49128 -3.726275 1.219084
v 11.49128 -3.726274 7.39861
v 5.296216 -3.726326 7.39861
v 5.296216 -3.726326 1.219084
v -4.354344 5.485298 0.1304247
v -5.160954 5.485299 0.108556
v -5.160976 10.55305 0.1085556
v -4.392178 10.55305 0.1304243
v -0.703648 5.485353 1.361736
v -1.10886 5.485353 1.361734
v -1.487362 10.55304 1.361734
v -1.120022 10.55304 1.361735
v -1.10886 5.485353 1.361734
v -1.127781 5.485353 1.111099
v -1.468441 10.55304 1.111099
v -1.487362 10.55304 1.361734
v -1.127781 5.485353 1.111099
v -1.919285 5.485355 1.111099
v -2.222103 10.55304 1.111098
v -1.468441 10.55304 1.111099
v -1.919285 5.485355 1.111099
v -1.938206 5.485355 0.8604628
v -2.203152 10.55304 0.8604623
v -2.222103 10.55304 1.111098
v -1.938206 5.485355 0.8604628
v -2.72971 5.485356 0.860463
v -2.956814 10.55304 0.8604625
v -2.203152 10.55304 0.8604623
v -2.72971 5.485356 0.860463
v -2.748631 5.485356 0.6098264
v -2.937893 10.55304 0.6098262
v -2.956814 10.55304 0.8604625
v -2.748631 5.485356 0.6098264
v -3.540135 5.485296 0.6098274
v -3.691525 10.55305 0.6098269
v -2.937893 10.55304 0.6098262
v -3.540135 5.485296 0.6098274
v -3.644352 5.485297 0.3591901
v -3.7579 10.55305 0.3591897
v -3.691525 10.55305 0.6098269
v -3.644352 5.485297 0.3591901
v -4.35056 5.485298 0.3591917
v -4.426235 10.55305 0.3591913
v -3.7579 10.55305 0.3591897
v -4.35056 5.485298 0.3591917
v -4.354344 5.485298 0.1304247
v -4.392178 10.55305 0.1304243
v -4.426235 10.55305 0.3591913
v -1.120022 10.55304 1.487052
v -0.703648 5.485353 1.487052
v -0.703648 5.485353 1.361736
v -1.120022 10.55304 1.361735
v -1.091904 -1.679563 3.528141
v -1.091898 2.121401 3.528141
v -1.091898 2.121401 -0.149349
v -1.091904 -1.679564 -0.1493488
v -3.867264 -1.679559 3.528141
v -3.867264 -1.679559 -0.1493488
v -3.867258 2.121405 -0.149349
v -3.867258 2.121406 3.528141
v -1.091898 2.121401 3.528141
v -3.867258 2.121406 3.528141
v -3.867258 2.121405 -0.149349
v -1.091898 2.121401 -0.149349
v -3.867264 -1.679559 3.528141
v -4.057298 -2.032158 3.528141
v -0.9018716 -2.032163 3.528141
v -1.091904 -1.679563 3.528141
v -0.901895 2.474001 3.528141
v -1.091898 2.121401 3.528141
v -4.057291 2.474006 3.528141
v -3.867258 2.121406 3.528141
v -1.091898 2.121401 -0.149349
v -3.867258 2.121405 -0.149349
v -3.867264 -1.679559 -0.1493488
v -1.091904 -1.679564 -0.1493488
v -1.091904 -1.679564 -0.1493488
v -3.867264 -1.679559 -0.1493488
v -3.867264 -1.679559 3.528141
v -1.091904 -1.679563 3.528141
v -1.437754 1.775577 3.865905
v -1.437754 1.775577 7.359403
v -3.521433 1.775581 7.359403
v -3.521433 1.77558 3.865905
v -1.437754 1.775577 3.865905
v -0.901895 2.474001 3.865906
v -0.9018716 -2.032163 3.865906
v -1.437759 -1.333676 3.865906
v -3.521433 1.77558 3.865905
v -4.057291 2.474006 3.865906
v -4.057298 -2.032158 3.865906
v -3.521408 -1.333673 3.865906
v -0.9018716 -2.032163 3.528141
v -0.9018716 -2.032163 3.865906
v -0.901895 2.474001 3.865906
v -0.901895 2.474001 3.528141
v -4.057298 -2.032158 3.528141
v -4.057298 -2.032158 3.865906
v -0.9018716 -2.032163 3.865906
v -0.9018716 -2.032163 3.528141
v -0.901895 2.474001 3.528141
v -0.901895 2.474001 3.865906
v -4.057291 2.474006 3.865906
v -4.057291 2.474006 3.528141
v -4.057291 2.474006 3.528141
v -4.057291 2.474006 3.865906
v -4.057298 -2.032158 3.865906
v -4.057298 -2.032158 3.528141
v -1.437759 -1.333676 3.865906
v -1.437759 -1.333676 7.359403
v -1.437754 1.775577 7.359403
v -1.437754 1.775577 3.865905
v -3.521408 -1.333673 3.865906
v -3.521408 -1.333672 7.359403
v -1.437759 -1.333676 7.359403
v -1.437759 -1.333676 3.865906
v -3.521433 1.77558 3.865905
v -3.521433 1.775581 7.359403
v -3.521408 -1.333672 7.359403
v -3.521408 -1.333673 3.865906
v -3.909862 1.061896 -0.1493489
v -3.909865 -0.6199887 -0.1493488
v -3.80818 -0.6199889 -0.1493488
v -3.808178 1.061896 -0.1493489
v -3.909865 -0.6199887 -0.1493488
v -3.909865 -0.6199884 2.351935
v -3.80818 -0.6199886 2.351935
v -3.80818 -0.6199889 -0.1493488
v -3.909862 1.061896 2.351935
v -3.909862 1.061896 -0.1493489
v -3.808178 1.061896 -0.1493489
v -3.808178 1.061896 2.351935
v -3.909865 -0.6199884 2.351935
v -3.909862 1.061896 2.351935
v -3.808178 1.061896 2.351935
v -3.80818 -0.6199886 2.351935
v 1.09616 7.85742 1.470892
v 1.09616 7.857421 3.972176
v 1.246124 7.85742 3.972176
v 1.246124 7.85742 1.470892
v 1.096163 9.539306 3.972176
v 1.096163 9.539306 1.470892
v 1.246126 9.539305 1.470892
v 1.246126 9.539306 3.972176
v 1.09616 7.857421 3.972176
v 1.096163 9.539306 3.972176
v 1.246126 9.539306 3.972176
v 1.246124 7.85742 3.972176
v 1.096188 5.816527 1.470892
v 1.096188 5.816527 3.972176
v 1.246151 5.816527 3.972176
v 1.246151 5.816527 1.470892
v 1.09616 7.498412 3.972176
v 1.09616 7.498412 1.470892
v 1.246123 7.498412 1.470892
v 1.246123 7.498412 3.972176
v 1.096188 5.816527 3.972176
v 1.09616 7.498412 3.972176
v 1.246123 7.498412 3.972176
v 1.246151 5.816527 3.972176
v -5.112427 7.97651 0.9705253
v -5.112427 7.934518 0.9705253
v -0.9179692 7.934511 2.349021
v -0.9179691 7.976503 2.349021
v -5.112422 10.79487 0.9705251
v -5.112423 10.75288 0.9705251
v -0.9179952 10.75287 2.349021
v -0.9179952 10.79486 2.349021
v -5.112401 5.337472 0.9705256
v -5.112401 5.29548 0.9705256
v -0.9179733 5.295473 2.349022
v -0.9179732 5.337465 2.349022
v -5.112427 7.97651 0.9705253
v -0.9179691 7.976503 2.349021
v -0.9179692 7.934511 2.349021
v -5.112427 7.934518 0.9705253
v -5.112422 10.79487 0.9705251
v -0.9179952 10.79486 2.349021
v -0.9179952 10.75287 2.349021
v -5.112423 10.75288 0.9705251
v -5.112401 5.337472 0.9705256
v -0.9179732 5.337465 2.349022
v -0.9179733 5.295473 2.349022
v -5.112401 5.29548 0.9705256

vn 0 -1 -1.192093E-07
vn 0 -1 -1.192093E-07
vn 0 -1 -1.192093E-07
vn 0 -1 -1.192093E-07
vn 0 -1 -1.192093E-07
vn 0 -1 -1.192093E-07
vn 0 -1 -1.192093E-07
vn 0 -1 -1.192093E-07
vn -1.549721E-06 5.960464E-08 -1
vn -1.549721E-06 5.960464E-08 -1
vn -1.549721E-06 5.960464E-08 -1
vn -1.549721E-06 5.960464E-08 -1
vn -0.02774048 0.9995117 0.0001037717
vn -0.02774048 0.9995117 0.0001037717
vn -0.02774048 0.9995117 0.0001037717
vn -0.02774048 0.9995117 0.0001037717
vn 0 1 1.192093E-07
vn 0 1 1.192093E-07
vn 0 1 1.192093E-07
vn 0 1 1.192093E-07
vn -0.9970703 -2.658367E-05 0.07073975
vn -0.9970703 -2.658367E-05 0.07073975
vn -0.9970703 -2.658367E-05 0.07073975
vn -0.9970703 -2.658367E-05 0.07073975
vn 0 1 1.192093E-07
vn 0 1 1.192093E-07
vn 0 1 1.192093E-07
vn 0 1 1.192093E-07
vn -0.9980469 -2.658367E-05 0.0559082
vn -0.9980469 -2.658367E-05 0.0559082
vn -0.9980469 -2.658367E-05 0.0559082
vn -0.9980469 -2.658367E-05 0.0559082
vn 0 1 1.192093E-07
vn 0 1 1.192093E-07
vn 0 1 1.192093E-07
vn 0 1 1.192093E-07
vn -0.9990234 -2.652407E-05 0.04104614
vn -0.9990234 -2.652407E-05 0.04104614
vn -0.9990234 -2.652407E-05 0.04104614
vn -0.9990234 -2.652407E-05 0.04104614
vn 0 1 1.192093E-07
vn 0 1 1.192093E-07
vn 0 1 1.192093E-07
vn 0 1 1.192093E-07
vn -0.9462891 0.3220215 0.0247345
vn -0.9462891 0.3220215 0.0247345
vn -0.9462891 0.3220215 0.0247345
vn -0.9462891 0.3220215 0.0247345
vn 0 1 1.192093E-07
vn 0 1 1.192093E-07
vn 0 1 1.192093E-07
vn 0 1 1.192093E-07
vn -0.9975586 -0.06604004 0.01117706
vn -0.9975586 -0.06604004 0.01117706
vn -0.9975586 -0.06604004 0.01117706
vn -0.9975586 -0.06604004 0.01117706
vn -0.996582 0 0.08184814
vn -0.996582 0 0.08184814
vn -0.996582 0 0.08184814
vn -0.996582 0 0.08184814
vn 1 0 -1.549721E-06
vn 1 0 -1.549721E-06
vn 1 0 -1.549721E-06
vn 1 0 -1.549721E-06
vn -1 0 1.549721E-06
vn -1 0 1.549721E-06
vn -1 0 1.549721E-06
vn -1 0 1.549721E-06
vn -1.549721E-06 5.960464E-08 -1
vn -1.549721E-06 5.960464E-08 -1
vn -1.549721E-06 5.960464E-08 -1
vn -1.549721E-06 5.960464E-08 -1
vn 0 -1 -1.192093E-07
vn 0 -1 -1.192093E-07
vn 0 -1 -1.192093E-07
vn 0 -1 -1.192093E-07
vn 0 -1 -1.192093E-07
vn 0 -1 -1.192093E-07
vn 0 -1 -1.192093E-07
vn 0 -1 -1.192093E-07
vn 0 -1 -1.192093E-07
vn 0 -1 -1.192093E-07
vn 0 -1 -1.192093E-07
vn 0 -1 -1.192093E-07
vn 1.549721E-06 -5.960464E-08 1
vn 1.549721E-06 -5.960464E-08 1
vn 1.549721E-06 -5.960464E-08 1
vn 1.549721E-06 -5.960464E-08 1
vn -1.549721E-06 5.960464E-08 -1
vn -1.549721E-06 5.960464E-08 -1
vn -1.549721E-06 5.960464E-08 -1
vn -1.549721E-06 5.960464E-08 -1
vn 0 1 1.192093E-07
vn 0 1 1.192093E-07
vn 0 1 1.192093E-07
vn 0 1 1.192093E-07
vn 0 1 1.192093E-07
vn 0 1 1.192093E-07
vn 0 1 1.192093E-07
vn 0 1 1.192093E-07
vn 1 0 -1.549721E-06
vn 1 0 -1.549721E-06
vn 1 0 -1.549721E-06
vn 1 0 -1.549721E-06
vn 1.549721E-06 -5.960464E-08 1
vn 1.549721E-06 -5.960464E-08 1
vn 1.549721E-06 -5.960464E-08 1
vn 1.549721E-06 -5.960464E-08 1
vn -1.549721E-06 5.960464E-08 -1
vn -1.549721E-06 5.960464E-08 -1
vn -1.549721E-06 5.960464E-08 -1
vn -1.549721E-06 5.960464E-08 -1
vn -1 0 1.549721E-06
vn -1 0 1.549721E-06
vn -1 0 1.549721E-06
vn -1 0 1.549721E-06
vn 1 0 -1.549721E-06
vn 1 0 -1.549721E-06
vn 1 0 -1.549721E-06
vn 1 0 -1.549721E-06
vn 1.549721E-06 -5.960464E-08 1
vn 1.549721E-06 -5.960464E-08 1
vn 1.549721E-06 -5.960464E-08 1
vn 1.549721E-06 -5.960464E-08 1
vn -1 0 1.549721E-06
vn -1 0 1.549721E-06
vn -1 0 1.549721E-06
vn -1 0 1.549721E-06
vn 0 -1 -1.192093E-07
vn 0 -1 -1.192093E-07
vn 0 -1 -1.192093E-07
vn 0 -1 -1.192093E-07
vn 1.549721E-06 -5.960464E-08 1
vn 1.549721E-06 -5.960464E-08 1
vn 1.549721E-06 -5.960464E-08 1
vn 1.549721E-06 -5.960464E-08 1
vn -1.549721E-06 5.960464E-08 -1
vn -1.549721E-06 5.960464E-08 -1
vn -1.549721E-06 5.960464E-08 -1
vn -1.549721E-06 5.960464E-08 -1
vn 0 1 1.192093E-07
vn 0 1 1.192093E-07
vn 0 1 1.192093E-07
vn 0 1 1.192093E-07
vn 1.549721E-06 -5.960464E-08 1
vn 1.549721E-06 -5.960464E-08 1
vn 1.549721E-06 -5.960464E-08 1
vn 1.549721E-06 -5.960464E-08 1
vn -1.549721E-06 5.960464E-08 -1
vn -1.549721E-06 5.960464E-08 -1
vn -1.549721E-06 5.960464E-08 -1
vn -1.549721E-06 5.960464E-08 -1
vn 0 1 1.192093E-07
vn 0 1 1.192093E-07
vn 0 1 1.192093E-07
vn 0 1 1.192093E-07
vn 1.549721E-06 -5.960464E-08 1
vn 1.549721E-06 -5.960464E-08 1
vn 1.549721E-06 -5.960464E-08 1
vn 1.549721E-06 -5.960464E-08 1
vn -1.549721E-06 5.960464E-08 -1
vn -1.549721E-06 5.960464E-08 -1
vn -1.549721E-06 5.960464E-08 -1
vn -1.549721E-06 5.960464E-08 -1
vn 0 1 1.192093E-07
vn 0 1 1.192093E-07
vn 0 1 1.192093E-07
vn 0 1 1.192093E-07
vn 0.3120117 -0.949707 -5.960464E-07
vn 0.3120117 -0.949707 -5.960464E-07
vn 0.3120117 -0.949707 -5.960464E-07
vn 0.3120117 -0.949707 -5.960464E-07
vn 0.3120117 -0.949707 -5.960464E-07
vn 0.3120117 -0.949707 -5.960464E-07
vn 0.3120117 -0.949707 -5.960464E-07
vn 0.3120117 -0.949707 -5.960464E-07
vn 0.3120117 -0.949707 -5.960464E-07
vn 0.3120117 -0.949707 -5.960464E-07
vn 0.3120117 -0.949707 -5.960464E-07
vn 0.3120117 -0.949707 -5.960464E-07
vn -0.3120117 0.949707 5.960464E-07
vn -0.3120117 0.949707 5.960464E-07
vn -0.3120117 0.949707 5.960464E-07
vn -0.3120117 0.949707 5.960464E-07
vn -0.3120117 0.949707 5.960464E-07
vn -0.3120117 0.949707 5.960464E-07
vn -0.3120117 0.949707 5.960464E-07
vn -0.3120117 0.949707 5.960464E-07
vn -0.3120117 0.949707 5.960464E-07
vn -0.3120117 0.949707 5.960464E-07
vn -0.3120117 0.949707 5.960464E-07
vn -0.3120117 0.949707 5.960464E-07

vt 0 0
vt 0 0
vt 0 0
vt 0 0
vt 0 0
vt 0 0
vt 0 0
vt 0 0
vt 0 0
vt 0 0
vt 0 0
vt 0 0
vt 4.518032E-05 0.3149414
vt 4.535913E-05 0.4741211
vt 0.9995117 0.4741211
vt 0.9995117 0.3225098
vt 3.21269E-05 0.02453613
vt 0.005935669 0.1035767
vt 0.9995117 0.1035767
vt 0.9941406 0.03192139
vt 0.9814453 0.02537537
vt 0.9804688 0.05340576
vt 0.02944946 0.0451355
vt 0.02990723 0.01708984
vt 0.9804688 0.05340576
vt 0.9682617 0.1413574
vt 0.01792908 0.1289063
vt 0.02944946 0.0451355
vt 0.9594727 0.01773071
vt 0.9116211 0.01759338
vt 0.9042969 0.9897461
vt 0.9521484 0.9902344
vt 0.9116211 0.01759338
vt 0.7597656 0.02438354
vt 0.7597656 0.9960938
vt 0.9042969 0.9897461
vt 0.9995117 0.996582
vt 0.9995117 0.9472656
vt 0.004463196 0.9394531
vt 0.003955841 0.9887695
vt 0.9995117 0.9472656
vt 0.9951172 0.7919922
vt 4.523993E-05 0.7919922
vt 0.004463196 0.9394531
vt 4.380941E-05 0.5849609
vt 0.0001294613 0.6381836
vt 0.9975586 0.6455078
vt 0.9980469 0.5947266
vt 0.0001294613 0.6381836
vt 0.002204895 0.7773438
vt 0.9995117 0.7773438
vt 0.9975586 0.6455078
vt 0.0003762245 0.2700195
vt 4.518032E-05 0.3149414
vt 0.9995117 0.3225098
vt 0.9995117 0.2768555
vt 0.9946289 0.007411957
vt 0.0002139807 3.21269E-05
vt 3.21269E-05 0.02453613
vt 0.9941406 0.03192139
vt 9.834766E-05 0.9672852
vt 0.9995117 0.9672852
vt 0.9995117 9.828806E-05
vt 9.828806E-05 9.828806E-05
vt 9.828806E-05 9.846687E-05
vt 9.834766E-05 0.9672852
vt 0.9995117 0.9672852
vt 0.9995117 9.828806E-05
vt 8.684397E-05 0.9995117
vt 0.7543945 0.9995117
vt 0.7543945 8.684397E-05
vt 8.690357E-05 8.690357E-05
vt 0.07830811 0.04223633
vt 8.428097E-05 8.362532E-05
vt 8.362532E-05 0.7001953
vt 0.07830811 0.6577148
vt 0.9995117 0.7001953
vt 0.9213867 0.6577148
vt 0.9995117 8.368492E-05
vt 0.9213867 0.04223633
vt 0 0
vt 0 0
vt 0 0
vt 0 0
vt 0.7543945 8.684397E-05
vt 8.684397E-05 8.696318E-05
vt 8.684397E-05 0.9995117
vt 0.7543945 0.9995117
vt 7.736683E-05 7.718801E-05
vt 7.718801E-05 0.9995117
vt 0.5961914 0.9995117
vt 0.5961914 7.724762E-05
vt 0.1189575 0.1550293
vt 8.362532E-05 8.362532E-05
vt 8.374453E-05 0.9995117
vt 0.1189575 0.8447266
vt 0.5810547 0.1550293
vt 0.7001953 8.362532E-05
vt 0.7001953 0.9995117
vt 0.5810547 0.8447266
vt 0.07495117 1
vt 0.1499023 1
vt 0.1499023 0
vt 0.07495117 0
vt 0.1499023 0.7001953
vt 0.2248535 0.7001953
vt 0.2248535 0
vt 0.1499023 0
vt 0.2998047 0
vt 0.2248535 0
vt 0.2248535 0.7001953
vt 0.2998047 0.7001953
vt 0.07495117 0
vt 0 0
vt 1.788139E-07 0.9995117
vt 0.07495117 0.9995117
vt 9.429455E-05 9.429455E-05
vt 9.435415E-05 0.9995117
vt 0.8896484 0.9995117
vt 0.8896484 9.435415E-05
vt 7.730722E-05 7.718801E-05
vt 7.718801E-05 0.9995117
vt 0.5961914 0.9995117
vt 0.5961914 7.724762E-05
vt 9.429455E-05 9.429455E-05
vt 9.429455E-05 0.9995117
vt 0.8896484 0.9995117
vt 0.8896484 9.435415E-05
vt 0 0
vt 0 0
vt 0 0
vt 0 0
vt 0 0
vt 0 0
vt 0 0
vt 0 0
vt 0 0
vt 0 0
vt 0 0
vt 0 0
vt 0 0
vt 0 0
vt 0 0
vt 0 0
vt 0 0
vt 0 0
vt 0 0
vt 0 0
vt 0 0
vt 0 0
vt 0 0
vt 0 0
vt 0 0
vt 0 0
vt 0 0
vt 0 0
vt 0 0
vt 0 0
vt 0 0
vt 0 0
vt 0 0
vt 0 0
vt 0 0
vt 0 0
vt 0 0
vt 0 0
vt 0 0
vt 0 0
vt 0.2093506 0.5205078
vt -0.1013794 0.5205078
vt -0.1013794 0.4873047
vt 0.2093506 0.4873047
vt 0.2093506 0.5205078
vt -0.1013794 0.5205078
vt -0.1013794 0.4873047
vt 0.2093506 0.4873047
vt 0.2093506 0.5205078
vt -0.1013794 0.5205078
vt -0.1013794 0.4873047
vt 0.2093506 0.4873047
vt 0.2093506 0.5205078
vt 0.2093506 0.4873047
vt -0.1013794 0.4873047
vt -0.1013794 0.5205078
vt 0.2093506 0.5205078
vt 0.2093506 0.4873047
vt -0.1013794 0.4873047
vt -0.1013794 0.5205078
vt 0.2093506 0.5205078
vt 0.2093506 0.4873047
vt -0.1013794 0.4873047
vt -0.1013794 0.5205078

g Building_t8.008_35063_532
usemtl Building_t8.008_35063_532
usemap Building_t8.008_35063_532
f 1/1/1 3/3/3 2/2/2
f 1/1/1 4/4/4 3/3/3
f 5/5/5 7/7/7 6/6/6
f 5/5/5 8/8/8 7/7/7
f 9/9/9 11/11/11 10/10/10
f 9/9/9 12/12/12 11/11/11
f 13/13/13 15/15/15 14/14/14
f 13/13/13 16/16/16 15/15/15
f 17/17/17 19/19/19 18/18/18
f 17/17/17 20/20/20 19/19/19
f 21/21/21 23/23/23 22/22/22
f 21/21/21 24/24/24 23/23/23
f 25/25/25 27/27/27 26/26/26
f 25/25/25 28/28/28 27/27/27
f 29/29/29 31/31/31 30/30/30
f 29/29/29 32/32/32 31/31/31
f 33/33/33 35/35/35 34/34/34
f 33/33/33 36/36/36 35/35/35
f 37/37/37 39/39/39 38/38/38
f 37/37/37 40/40/40 39/39/39
f 41/41/41 43/43/43 42/42/42
f 41/41/41 44/44/44 43/43/43
f 45/45/45 47/47/47 46/46/46
f 45/45/45 48/48/48 47/47/47
f 49/49/49 51/51/51 50/50/50
f 49/49/49 52/52/52 51/51/51
f 53/53/53 55/55/55 54/54/54
f 53/53/53 56/56/56 55/55/55
f 57/57/57 59/59/59 58/58/58
f 57/57/57 60/60/60 59/59/59
f 61/61/61 63/63/63 62/62/62
f 61/61/61 64/64/64 63/63/63
f 65/65/65 67/67/67 66/66/66
f 65/65/65 68/68/68 67/67/67
f 69/69/69 71/71/71 70/70/70
f 69/69/69 72/72/72 71/71/71
f 73/73/73 75/75/75 74/74/74
f 73/73/73 76/76/76 75/75/75
f 76/76/76 77/77/77 75/75/75
f 76/76/76 78/78/78 77/77/77
f 78/78/78 79/79/79 77/77/77
f 78/78/78 80/80/80 79/79/79
f 80/80/80 74/74/74 79/79/79
f 80/80/80 73/73/73 74/74/74
f 81/81/81 83/83/83 82/82/82
f 81/81/81 84/84/84 83/83/83
f 85/85/85 87/87/87 86/86/86
f 85/85/85 88/88/88 87/87/87
f 89/89/89 91/91/91 90/90/90
f 89/89/89 92/92/92 91/91/91
f 93/93/93 95/95/95 94/94/94
f 93/93/93 96/96/96 95/95/95
f 97/97/97 93/93/93 94/94/94
f 97/97/97 94/94/94 98/98/98
f 96/96/96 99/99/99 95/95/95
f 96/96/96 100/100/100 99/99/99
f 100/100/100 98/98/98 99/99/99
f 100/100/100 97/97/97 98/98/98
f 101/101/101 103/103/103 102/102/102
f 101/101/101 104/104/104 103/103/103
f 105/105/105 107/107/107 106/106/106
f 105/105/105 108/108/108 107/107/107
f 109/109/109 111/111/111 110/110/110
f 109/109/109 112/112/112 111/111/111
f 113/113/113 115/115/115 114/114/114
f 113/113/113 116/116/116 115/115/115
f 117/117/117 119/119/119 118/118/118
f 117/117/117 120/120/120 119/119/119
f 121/121/121 123/123/123 122/122/122
f 121/121/121 124/124/124 123/123/123
f 125/125/125 127/127/127 126/126/126
f 125/125/125 128/128/128 127/127/127
f 129/129/129 131/131/131 130/130/130
f 129/129/129 132/132/132 131/131/131
f 133/133/133 135/135/135 134/134/134
f 133/133/133 136/136/136 135/135/135
f 137/137/137 139/139/139 138/138/138
f 137/137/137 140/140/140 139/139/139
f 141/141/141 143/143/143 142/142/142
f 141/141/141 144/144/144 143/143/143
f 145/145/145 147/147/147 146/146/146
f 145/145/145 148/148/148 147/147/147
f 149/149/149 151/151/151 150/150/150
f 149/149/149 152/152/152 151/151/151
f 153/153/153 155/155/155 154/154/154
f 153/153/153 156/156/156 155/155/155
f 157/157/157 159/159/159 158/158/158
f 157/157/157 160/160/160 159/159/159
f 161/161/161 163/163/163 162/162/162
f 161/161/161 164/164/164 163/163/163
f 165/165/165 167/167/167 166/166/166
f 165/165/165 168/168/168 167/167/167
f 169/169/169 171/171/171 170/170/170
f 169/169/169 172/172/172 171/171/171
f 173/173/173 175/175/175 174/174/174
f 173/173/173 176/176/176 175/175/175
f 177/177/177 179/179/179 178/178/178
f 177/177/177 180/180/180 179/179/179
f 181/181/181 183/183/183 182/182/182
f 181/181/181 184/184/184 183/183/183
f 185/185/185 187/187/187 186/186/186
f 185/185/185 188/188/188 187/187/187
f 189/189/189 191/191/191 190/190/190
f 189/189/189 192/192/192 191/191/191
