#Building_t8.004_(1)_36657_136.obj

v -5.112459 7.955709 1.015372
v -0.918018 7.955645 2.393868
v -5.112459 7.955709 0.3849304
v -0.9180179 7.955645 1.763427
v -5.112462 10.77527 1.015372
v -0.9180208 10.77527 2.393868
v -5.112462 10.77527 0.3849302
v -0.9180207 10.77527 1.763426
v -5.112457 5.312948 1.015373
v -0.9180153 5.312953 2.393868
v -5.112456 5.312948 0.3849307
v -0.9180152 5.312953 1.763427
v -0.9180179 7.955645 1.763427
v -0.918018 7.955645 2.393868
v -5.112459 7.955709 0.3849304
v -5.112459 7.955709 1.015372
v -0.9180207 10.77527 1.763426
v -0.9180208 10.77527 2.393868
v -5.112462 10.77527 0.3849302
v -5.112462 10.77527 1.015372
v -0.9180152 5.312953 1.763427
v -0.9180153 5.312953 2.393868
v -5.112456 5.312948 0.3849307
v -5.112457 5.312948 1.015373

vn -1.013279E-06 -5.960464E-08 -1
vn -1.013279E-06 -5.960464E-08 -1
vn -1.013279E-06 -5.960464E-08 -1
vn -1.013279E-06 -5.960464E-08 -1
vn -1.013279E-06 -5.960464E-08 -1
vn -1.013279E-06 -5.960464E-08 -1
vn -1.013279E-06 -5.960464E-08 -1
vn -1.013279E-06 -5.960464E-08 -1
vn -1.013279E-06 -5.960464E-08 -1
vn -1.013279E-06 -5.960464E-08 -1
vn -1.013279E-06 -5.960464E-08 -1
vn -1.013279E-06 -5.960464E-08 -1
vn 1.013279E-06 5.960464E-08 1
vn 1.013279E-06 5.960464E-08 1
vn 1.013279E-06 5.960464E-08 1
vn 1.013279E-06 5.960464E-08 1
vn 1.013279E-06 5.960464E-08 1
vn 1.013279E-06 5.960464E-08 1
vn 1.013279E-06 5.960464E-08 1
vn 1.013279E-06 5.960464E-08 1
vn 1.013279E-06 5.960464E-08 1
vn 1.013279E-06 5.960464E-08 1
vn 1.013279E-06 5.960464E-08 1
vn 1.013279E-06 5.960464E-08 1

vt -1.5 1
vt 2.498047 1
vt -1.5 0
vt 2.5 1.192093E-07
vt -1.5 1
vt 2.498047 1
vt -1.5 0
vt 2.5 1.192093E-07
vt -1.5 1
vt 2.498047 1
vt -1.5 0
vt 2.5 1.192093E-07
vt 2.5 1.192093E-07
vt 2.498047 1
vt -1.5 0
vt -1.5 1
vt 2.5 1.192093E-07
vt 2.498047 1
vt -1.5 0
vt -1.5 1
vt 2.5 1.192093E-07
vt 2.498047 1
vt -1.5 0
vt -1.5 1

g Building_t8.004_(1)_36657_136
usemtl Building_t8.004_(1)_36657_136
usemap Building_t8.004_(1)_36657_136
f 1/1/1 3/3/3 2/2/2
f 2/2/2 3/3/3 4/4/4
f 5/5/5 7/7/7 6/6/6
f 6/6/6 7/7/7 8/8/8
f 9/9/9 11/11/11 10/10/10
f 10/10/10 11/11/11 12/12/12
f 13/13/13 15/15/15 14/14/14
f 14/14/14 15/15/15 16/16/16
f 17/17/17 19/19/19 18/18/18
f 18/18/18 19/19/19 20/20/20
f 21/21/21 23/23/23 22/22/22
f 22/22/22 23/23/23 24/24/24
