#Building.026_35293_500.obj

v -0.9954333 -2.046972 0.4621909
v -0.8321036 -2.169562 0.5438312
v -0.8320785 7.496286 0.5438303
v -0.9954089 7.373697 0.4621901
v -0.8320785 7.496286 0.5438303
v -0.8320785 7.496286 0.8882236
v -6.965257 7.496287 0.8882236
v -6.965257 7.496287 0.5438303
v -6.801928 7.373697 0.4621901
v -6.965257 7.496287 0.5438303
v -6.965282 -2.169561 0.5438312
v -6.801952 -2.046973 0.4621909
v -6.801952 -2.046973 0.4621909
v -6.965282 -2.169561 0.5438312
v -0.8321036 -2.169562 0.5438312
v -0.9954333 -2.046972 0.4621909
v -0.9954089 7.373697 0.4621901
v -0.8320785 7.496286 0.5438303
v -6.965257 7.496287 0.5438303
v -6.801928 7.373697 0.4621901
v -0.8321036 -2.169562 0.8882244
v 1.053028 -2.169567 0.8882244
v 1.053028 -2.169567 0.5438312
v -0.8321036 -2.169562 0.5438312
v -6.965282 -2.169561 0.5438312
v -6.965282 -2.169561 0.8882244
v -6.965257 7.496287 0.5438303
v -6.965257 7.496287 0.8882236
v -6.965282 -2.169561 0.8882244
v -6.965282 -2.169561 0.5438312
v 1.053028 -2.169567 0.5438312
v 1.053028 -2.169567 0.8882244
v 1.053053 7.496281 0.8882236
v 1.053053 7.496281 0.5438303
v -0.8321036 -2.169562 0.5438312
v 1.053028 -2.169567 0.5438312
v 1.053053 7.496281 0.5438303
v -0.8320785 7.496286 0.5438303
v -0.8320785 7.496286 0.5438303
v 1.053053 7.496281 0.5438303
v 1.053053 7.496281 0.8882236
v -0.8320785 7.496286 0.8882236
v 0.6584981 -1.736827 -2.579614
v 0.6584981 -1.736826 0.6378095
v 0.6584987 -1.503947 0.6378095
v 0.6584987 -1.503947 -2.579614
v 0.4466451 -1.736826 -2.579614
v 0.4466457 -1.503947 -2.579614
v 0.4466457 -1.503946 0.6378095
v 0.4466451 -1.736826 0.6378095
v 0.6584987 -1.503947 -2.579614
v 0.6584987 -1.503947 0.6378095
v 0.4466457 -1.503946 0.6378095
v 0.4466457 -1.503947 -2.579614
v 0.6584981 -1.736826 0.6378095
v 0.6584981 -1.736827 -2.579614
v 0.4466451 -1.736826 -2.579614
v 0.4466451 -1.736826 0.6378095
v 0.65852 6.69579 -2.579614
v 0.65852 6.695791 0.6378089
v 0.6585206 6.92867 0.6378089
v 0.6585206 6.92867 -2.579614
v 0.446606 6.695791 -2.579614
v 0.4466065 6.92867 -2.579614
v 0.4466065 6.928671 0.6378089
v 0.446606 6.695791 0.6378089
v 0.6585206 6.92867 -2.579614
v 0.6585206 6.92867 0.6378089
v 0.4466065 6.928671 0.6378089
v 0.4466065 6.92867 -2.579614
v 0.65852 6.695791 0.6378089
v 0.65852 6.69579 -2.579614
v 0.446606 6.695791 -2.579614
v 0.446606 6.695791 0.6378089

vn 0.4470215 -0.894043 -1.251698E-06
vn 0.4470215 -0.894043 -1.251698E-06
vn 0.4470215 -0.894043 -1.251698E-06
vn 0.4470215 -0.894043 -1.251698E-06
vn -2.563E-06 5.960464E-08 -1
vn -2.563E-06 5.960464E-08 -1
vn -2.563E-06 5.960464E-08 -1
vn -2.563E-06 5.960464E-08 -1
vn -0.4470215 -0.894043 1.013279E-06
vn -0.4470215 -0.894043 1.013279E-06
vn -0.4470215 -0.894043 1.013279E-06
vn -0.4470215 -0.894043 1.013279E-06
vn 1.430511E-06 -0.8320313 0.5541992
vn 1.430511E-06 -0.8320313 0.5541992
vn 1.430511E-06 -0.8320313 0.5541992
vn 1.430511E-06 -0.8320313 0.5541992
vn -1.430511E-06 -0.8320313 -0.5541992
vn -1.430511E-06 -0.8320313 -0.5541992
vn -1.430511E-06 -0.8320313 -0.5541992
vn -1.430511E-06 -0.8320313 -0.5541992
vn 2.563E-06 -5.960464E-08 1
vn 2.563E-06 -5.960464E-08 1
vn 2.563E-06 -5.960464E-08 1
vn 2.563E-06 -5.960464E-08 1
vn 2.563E-06 -5.960464E-08 1
vn 2.563E-06 -5.960464E-08 1
vn -1 0 2.563E-06
vn -1 0 2.563E-06
vn -1 0 2.563E-06
vn -1 0 2.563E-06
vn 1 0 -2.563E-06
vn 1 0 -2.563E-06
vn 1 0 -2.563E-06
vn 1 0 -2.563E-06
vn 0 -1 -1.192093E-07
vn 0 -1 -1.192093E-07
vn 0 -1 -1.192093E-07
vn 0 -1 -1.192093E-07
vn -2.563E-06 5.960464E-08 -1
vn -2.563E-06 5.960464E-08 -1
vn -2.563E-06 5.960464E-08 -1
vn -2.563E-06 5.960464E-08 -1
vn 1 0 -2.449751E-05
vn 1 0 -2.449751E-05
vn 1 0 -2.449751E-05
vn 1 0 -2.449751E-05
vn -1 0 2.467632E-05
vn -1 0 2.467632E-05
vn -1 0 2.467632E-05
vn -1 0 2.467632E-05
vn -2.563E-06 5.960464E-08 -1
vn -2.563E-06 5.960464E-08 -1
vn -2.563E-06 5.960464E-08 -1
vn -2.563E-06 5.960464E-08 -1
vn 2.563E-06 -5.960464E-08 1
vn 2.563E-06 -5.960464E-08 1
vn 2.563E-06 -5.960464E-08 1
vn 2.563E-06 -5.960464E-08 1
vn 1 0 -2.485514E-05
vn 1 0 -2.485514E-05
vn 1 0 -2.485514E-05
vn 1 0 -2.485514E-05
vn -1 0 2.449751E-05
vn -1 0 2.449751E-05
vn -1 0 2.449751E-05
vn -1 0 2.449751E-05
vn -2.563E-06 5.960464E-08 -1
vn -2.563E-06 5.960464E-08 -1
vn -2.563E-06 5.960464E-08 -1
vn -2.563E-06 5.960464E-08 -1
vn 2.563E-06 -5.960464E-08 1
vn 2.563E-06 -5.960464E-08 1
vn 2.563E-06 -5.960464E-08 1
vn 2.563E-06 -5.960464E-08 1

vt 6.046875 -3.9375
vt 6.125 -3.832031
vt -3.507813 -3.832031
vt -3.429688 -3.9375
vt 1.256836 0.4140625
vt 1.256836 0.1929932
vt 5.195313 0.1929932
vt 5.195313 0.4140625
vt -3.449219 5.167969
vt -3.527344 5.0625
vt 6.105469 5.0625
vt 6.027344 5.167969
vt 1.237305 0.8540039
vt 1.342773 0.9326172
vt -2.595703 0.9326172
vt -2.490234 0.8540039
vt 1.361328 0.3649902
vt 1.256836 0.2861328
vt 5.195313 0.2861328
vt 5.089844 0.3649902
vt -2.595703 0.1929932
vt -2.595703 0.1929932
vt -2.595703 0.4140625
vt -2.595703 0.4140625
vt 1.342773 0.4140625
vt 1.342773 0.1929932
vt 0.2861328 0.4140625
vt 0.2861328 0.1929932
vt 9.921875 0.1929932
vt 9.921875 0.4140625
vt 0.9326172 0.4140625
vt 0.9326172 0.1929932
vt -8.703125 0.1929932
vt -8.703125 0.4140625
vt 6.125 -3.359375
vt 6.125 -3.832031
vt -3.507813 -3.832031
vt -3.507813 -3.359375
vt 1.256836 0.4140625
vt 1.256836 0.4140625
vt 1.256836 0.1929932
vt 1.256836 0.1929932
vt 1 0.5864258
vt 2.980232E-07 0.5864258
vt 5.960464E-08 0.5068359
vt 0.9995117 0.5068359
vt 8.237362E-05 0.5864258
vt 8.225441E-05 0.5327148
vt 0.9995117 0.5327148
vt 0.9995117 0.5864258
vt 1 0.5864258
vt 2.980232E-07 0.5864258
vt 0 0.5068359
vt 0.9995117 0.5068359
vt 0 0.5068359
vt 1 0.5068359
vt 1 0.5864258
vt 0 0.5864258
vt 1 0.5864258
vt 2.980232E-07 0.5864258
vt 5.960464E-08 0.5068359
vt 0.9995117 0.5068359
vt 8.237362E-05 0.5864258
vt 8.225441E-05 0.5327148
vt 0.9995117 0.5327148
vt 0.9995117 0.5864258
vt 1 0.5864258
vt 2.980232E-07 0.5864258
vt 0 0.5068359
vt 0.9995117 0.5068359
vt 0 0.5068359
vt 1 0.5068359
vt 1 0.5864258
vt 0 0.5864258

g Building.026_35293_500
usemtl Building.026_35293_500
usemap Building.026_35293_500
f 1/1/1 3/3/3 2/2/2
f 1/1/1 4/4/4 3/3/3
f 5/5/5 7/7/7 6/6/6
f 5/5/5 8/8/8 7/7/7
f 9/9/9 11/11/11 10/10/10
f 9/9/9 12/12/12 11/11/11
f 13/13/13 15/15/15 14/14/14
f 13/13/13 16/16/16 15/15/15
f 17/17/17 19/19/19 18/18/18
f 17/17/17 20/20/20 19/19/19
f 21/21/21 23/23/23 22/22/22
f 21/21/21 24/24/24 23/23/23
f 25/25/25 24/24/24 21/21/21
f 25/25/25 21/21/21 26/26/26
f 27/27/27 29/29/29 28/28/28
f 27/27/27 30/30/30 29/29/29
f 31/31/31 33/33/33 32/32/32
f 31/31/31 34/34/34 33/33/33
f 35/35/35 37/37/37 36/36/36
f 35/35/35 38/38/38 37/37/37
f 39/39/39 41/41/41 40/40/40
f 39/39/39 42/42/42 41/41/41
f 43/43/43 45/45/45 44/44/44
f 43/43/43 46/46/46 45/45/45
f 47/47/47 49/49/49 48/48/48
f 47/47/47 50/50/50 49/49/49
f 51/51/51 53/53/53 52/52/52
f 51/51/51 54/54/54 53/53/53
f 55/55/55 57/57/57 56/56/56
f 55/55/55 58/58/58 57/57/57
f 59/59/59 61/61/61 60/60/60
f 59/59/59 62/62/62 61/61/61
f 63/63/63 65/65/65 64/64/64
f 63/63/63 66/66/66 65/65/65
f 67/67/67 69/69/69 68/68/68
f 67/67/67 70/70/70 69/69/69
f 71/71/71 73/73/73 72/72/72
f 71/71/71 74/74/74 73/73/73
