#Building_small_t1.095_33127_255.obj

v -0.9569457 -5.112534 -0.001042639
v -0.9569457 -5.112534 -1.481905
v -0.9569467 -6.278854 -1.481905
v -0.9569467 -6.278854 -0.001042484
v -0.9569433 -2.607834 -0.001042972
v -0.9569433 -2.607834 -1.481905
v -0.9569444 -3.774094 -1.481905
v -0.9569444 -3.774093 -0.001042817
v -0.9569411 -0.2790373 -0.001042806
v -0.9569411 -0.2790375 -1.481905
v -0.9569422 -1.445297 -1.481905
v -0.9569422 -1.445297 -0.00104265
v -0.956939 2.029434 -0.001042636
v -0.956939 2.029434 -1.481905
v -0.9569401 0.8631744 -1.481905
v -0.9569401 0.8631746 -0.001042958
v -6.870816 5.079428 -0.001043042
v -6.870816 5.079427 -1.481905
v -6.870814 6.245687 -1.481905
v -6.870814 6.245687 -0.001042721
v -6.870818 2.574667 -0.001042709
v -6.870818 2.574667 -1.481905
v -6.870817 3.740927 -1.481905
v -6.870817 3.740927 -0.001042864
v -6.870824 -3.872232 -0.001042804
v -6.870824 -3.872233 -1.481905
v -6.870823 -2.705973 -1.481905
v -6.870823 -2.705973 -0.001042959
v -6.870826 -6.180704 -0.001042497
v -6.870826 -6.180705 -1.481905
v -6.870825 -5.014445 -1.481905
v -6.870825 -5.014444 -0.001042652
v -4.045907 -7.49931 -0.001042798
v -4.045907 -7.49931 -1.481905
v -4.629036 -7.49931 -1.481905
v -4.629036 -7.49931 -0.001042798
v -3.462777 -7.499311 -0.001042798
v -3.462777 -7.499311 -1.481905
v -2.879647 -7.499311 -0.001042798
v -2.879647 -7.499311 -1.481905
v -3.462777 -7.499311 -1.481905
v -3.462777 -7.499311 -0.001042798
v -3.462793 7.447222 -0.001042881
v -3.462793 7.447222 -1.481905
v -2.879663 7.447222 -1.481905
v -2.879663 7.447222 -0.001042881
v -4.045923 7.447162 -0.001042881
v -4.045923 7.447162 -1.481905
v -4.629053 7.447163 -0.001042881
v -4.629053 7.447162 -1.481905
v -4.045923 7.447162 -1.481905
v -4.045923 7.447162 -0.001042881
v -3.618109 -5.627423 4.61294
v -3.618109 -5.627423 3.132077
v -4.784369 -5.627422 3.132077
v -4.784369 -5.627422 4.61294

vn 8.940697E-07 0 1
vn 8.940697E-07 0 1
vn 8.940697E-07 0 1
vn 8.940697E-07 0 1
vn 8.940697E-07 0 1
vn 8.940697E-07 0 1
vn 8.940697E-07 0 1
vn 8.940697E-07 0 1
vn 8.940697E-07 0 1
vn 8.940697E-07 0 1
vn 8.940697E-07 0 1
vn 8.940697E-07 0 1
vn 8.940697E-07 0 1
vn 8.940697E-07 0 1
vn 8.940697E-07 0 1
vn 8.940697E-07 0 1
vn -8.940697E-07 0 -1
vn -8.940697E-07 0 -1
vn -8.940697E-07 0 -1
vn -8.940697E-07 0 -1
vn -8.940697E-07 0 -1
vn -8.940697E-07 0 -1
vn -8.940697E-07 0 -1
vn -8.940697E-07 0 -1
vn -8.940697E-07 0 -1
vn -8.940697E-07 0 -1
vn -8.940697E-07 0 -1
vn -8.940697E-07 0 -1
vn -8.940697E-07 0 -1
vn -8.940697E-07 0 -1
vn -8.940697E-07 0 -1
vn -8.940697E-07 0 -1
vn -1 -1.192093E-07 8.940697E-07
vn -1 -1.192093E-07 8.940697E-07
vn -1 -1.192093E-07 8.940697E-07
vn -1 -1.192093E-07 8.940697E-07
vn -1 -1.192093E-07 8.940697E-07
vn -1 -1.192093E-07 8.940697E-07
vn -1 -1.192093E-07 8.940697E-07
vn -1 -1.192093E-07 8.940697E-07
vn -1 -1.192093E-07 8.940697E-07
vn -1 -1.192093E-07 8.940697E-07
vn 1 1.192093E-07 -8.940697E-07
vn 1 1.192093E-07 -8.940697E-07
vn 1 1.192093E-07 -8.940697E-07
vn 1 1.192093E-07 -8.940697E-07
vn 1 1.192093E-07 -8.940697E-07
vn 1 1.192093E-07 -8.940697E-07
vn 1 1.192093E-07 -8.940697E-07
vn 1 1.192093E-07 -8.940697E-07
vn 1 1.192093E-07 -8.940697E-07
vn 1 1.192093E-07 -8.940697E-07
vn -1 -1.192093E-07 8.940697E-07
vn -1 -1.192093E-07 8.940697E-07
vn -1 -1.192093E-07 8.940697E-07
vn -1 -1.192093E-07 8.940697E-07

vt 0 1
vt 3.576279E-07 1.192093E-07
vt 1 0
vt 0.9995117 0.9995117
vt 0 1
vt 3.576279E-07 1.192093E-07
vt 1 0
vt 0.9995117 0.9995117
vt 0 1
vt 3.576279E-07 1.192093E-07
vt 1 0
vt 0.9995117 0.9995117
vt 0 1
vt 3.576279E-07 1.192093E-07
vt 1 0
vt 0.9995117 0.9995117
vt 0 1
vt 3.576279E-07 1.192093E-07
vt 1 0
vt 0.9995117 0.9995117
vt 0 1
vt 3.576279E-07 1.192093E-07
vt 1 0
vt 0.9995117 0.9995117
vt 0 1
vt 3.576279E-07 1.192093E-07
vt 1 0
vt 0.9995117 0.9995117
vt 0 1
vt 3.576279E-07 1.192093E-07
vt 1 0
vt 0.9995117 0.9995117
vt 0.4997559 1
vt 0.5 5.960464E-08
vt 1 0
vt 0.9995117 0.9995117
vt 0 1
vt 3.576279E-07 1.192093E-07
vt 0 1
vt 3.576279E-07 1.192093E-07
vt 0.5 5.960464E-08
vt 0.4997559 1
vt 0.4997559 1
vt 0.5 5.960464E-08
vt 1 0
vt 0.9995117 0.9995117
vt 0 1
vt 3.576279E-07 1.192093E-07
vt 0 1
vt 3.576279E-07 1.192093E-07
vt 0.5 5.960464E-08
vt 0.4997559 1
vt 0 1
vt 3.576279E-07 1.192093E-07
vt 1 0
vt 0.9995117 0.9995117

g Building_small_t1.095_33127_255
usemtl Building_small_t1.095_33127_255
usemap Building_small_t1.095_33127_255
f 1/1/1 3/3/3 2/2/2
f 1/1/1 4/4/4 3/3/3
f 5/5/5 7/7/7 6/6/6
f 5/5/5 8/8/8 7/7/7
f 9/9/9 11/11/11 10/10/10
f 9/9/9 12/12/12 11/11/11
f 13/13/13 15/15/15 14/14/14
f 13/13/13 16/16/16 15/15/15
f 17/17/17 19/19/19 18/18/18
f 17/17/17 20/20/20 19/19/19
f 21/21/21 23/23/23 22/22/22
f 21/21/21 24/24/24 23/23/23
f 25/25/25 27/27/27 26/26/26
f 25/25/25 28/28/28 27/27/27
f 29/29/29 31/31/31 30/30/30
f 29/29/29 32/32/32 31/31/31
f 33/33/33 35/35/35 34/34/34
f 33/33/33 36/36/36 35/35/35
f 37/37/37 33/33/33 34/34/34
f 37/37/37 34/34/34 38/38/38
f 39/39/39 41/41/41 40/40/40
f 39/39/39 42/42/42 41/41/41
f 43/43/43 45/45/45 44/44/44
f 43/43/43 46/46/46 45/45/45
f 47/47/47 43/43/43 44/44/44
f 47/47/47 44/44/44 48/48/48
f 49/49/49 51/51/51 50/50/50
f 49/49/49 52/52/52 51/51/51
f 53/53/53 55/55/55 54/54/54
f 53/53/53 56/56/56 55/55/55
