#Building_t8.014_33690_412.obj

v -3.909837 -0.6200243 2.351936
v -3.909837 -0.620033 -0.1493478
v -3.909851 1.061866 -0.1493508
v -3.909851 1.061874 2.351933
v 1.096194 7.857396 3.972163
v 1.096194 7.857387 1.470879
v 1.09618 9.539286 1.470876
v 1.09618 9.539294 3.97216
v 1.0962 5.816517 3.972167
v 1.0962 5.816508 1.470882
v 1.096186 7.498406 1.47088
v 1.096186 7.498415 3.972163

vn -0.02288818 0 -0.9995117
vn -0.02288818 0 -0.9995117
vn -0.02288818 0 -0.9995117
vn -0.02288818 0 -0.9995117
vn -0.02288818 0 -0.9995117
vn -0.02288818 0 -0.9995117
vn -0.02288818 0 -0.9995117
vn -0.02288818 0 -0.9995117
vn -0.02288818 0 -0.9995117
vn -0.02288818 0 -0.9995117
vn -0.02288818 0 -0.9995117
vn -0.02288818 0 -0.9995117

vt 5.960464E-08 0.9995117
vt 0 0
vt 1 5.960464E-08
vt 1 1
vt 4.172325E-07 1
vt 0 1.788139E-07
vt 0.9995117 0
vt 1 0.9995117
vt 3.576279E-07 1
vt 2.384186E-07 0
vt 1 1.192093E-07
vt 1 1

g Building_t8.014_33690_412
usemtl Building_t8.014_33690_412
usemap Building_t8.014_33690_412
f 1/1/1 3/3/3 2/2/2
f 1/1/1 4/4/4 3/3/3
f 5/5/5 7/7/7 6/6/6
f 5/5/5 8/8/8 7/7/7
f 9/9/9 11/11/11 10/10/10
f 9/9/9 12/12/12 11/11/11
