#Building.026_35293_499.obj

v -6.801952 -2.046973 0.4621909
v -6.801952 -2.046973 -2.561046
v -6.801928 7.373697 -2.561046
v -6.801928 7.373697 0.4621901
v -6.801928 7.373697 0.4621901
v -6.801928 7.373697 -2.561046
v -0.9954089 7.373697 -2.561046
v -0.9954089 7.373697 0.4621901
v -0.9954089 7.373697 0.4621901
v -0.9954089 7.373697 -2.561046
v -0.9954333 -2.046973 -2.561046
v -0.9954333 -2.046972 0.4621909
v -0.9954333 -2.046972 0.4621909
v -0.9954333 -2.046973 -2.561046
v -6.801952 -2.046973 -2.561046
v -6.801952 -2.046973 0.4621909
v -0.9569756 0.1001071 -0.001042856
v -0.9569787 -1.066153 -0.001042701
v -1.137765 -1.066152 -0.001042701
v -1.137762 0.1001075 -0.001042856
v -0.9569787 -1.066153 -0.001042701
v -0.9569787 -1.066153 -1.481905
v -1.137765 -1.066152 -1.481905
v -1.137765 -1.066152 -0.001042701
v -0.9569756 0.1001069 -1.481905
v -0.9569756 0.1001071 -0.001042856
v -1.137762 0.1001075 -0.001042856
v -1.137762 0.1001073 -1.481905
v -0.9569787 -1.066153 -1.481905
v -0.9569756 0.1001069 -1.481905
v -1.137762 0.1001073 -1.481905
v -1.137765 -1.066152 -1.481905
v -0.95696 6.147547 -0.001043185
v -0.9569629 4.981287 -0.001043029
v -1.137749 4.981287 -0.001043029
v -1.137746 6.147547 -0.001043185
v -0.9569629 4.981287 -0.001043029
v -0.9569629 4.981287 -1.481905
v -1.137749 4.981287 -1.481905
v -1.137749 4.981287 -0.001043029
v -0.95696 6.147546 -1.481905
v -0.95696 6.147547 -0.001043185
v -1.137746 6.147547 -0.001043185
v -1.137746 6.147547 -1.481905
v -0.9569629 4.981287 -1.481905
v -0.95696 6.147546 -1.481905
v -1.137746 6.147547 -1.481905
v -1.137749 4.981287 -1.481905
v -4.04591 -2.158521 -0.001042555
v -4.62904 -2.15852 -0.001042555
v -4.629039 -1.977734 -0.00104258
v -4.045909 -1.977735 -0.00104258
v -3.46278 -2.158523 -0.001042555
v -3.462779 -1.977737 -0.00104258
v -4.62904 -2.15852 -0.001042555
v -4.62904 -2.15852 -1.481905
v -4.629039 -1.977734 -1.481905
v -4.629039 -1.977734 -0.00104258
v -4.04591 -2.158522 -1.481905
v -3.46278 -2.158523 -1.481905
v -3.462779 -1.977737 -1.481905
v -4.045909 -1.977736 -1.481905
v -4.62904 -2.15852 -1.481905
v -4.629039 -1.977734 -1.481905
v -2.87965 -2.158525 -1.481905
v -2.87965 -2.158525 -0.001042555
v -2.879649 -1.977738 -0.00104258
v -2.879649 -1.977738 -1.481905
v -3.46278 -2.158523 -1.481905
v -2.87965 -2.158525 -1.481905
v -2.879649 -1.977738 -1.481905
v -3.462779 -1.977737 -1.481905
v -2.87965 -2.158525 -0.001042555
v -3.46278 -2.158523 -0.001042555
v -3.462779 -1.977737 -0.00104258
v -2.879649 -1.977738 -0.00104258
v -3.462816 7.447175 -0.001043358
v -2.879686 7.447173 -0.001043358
v -2.879687 7.266387 -0.001043334
v -3.462816 7.266388 -0.001043334
v -4.045946 7.447176 -0.001043358
v -4.045946 7.26639 -0.001043334
v -2.879686 7.447173 -0.001043358
v -2.879686 7.447173 -1.481905
v -2.879687 7.266387 -1.481905
v -2.879687 7.266387 -0.001043334
v -3.462816 7.447175 -1.481905
v -4.045946 7.447176 -1.481905
v -4.045946 7.26639 -1.481905
v -3.462816 7.266388 -1.481905
v -2.879686 7.447173 -1.481905
v -2.879687 7.266387 -1.481905
v -4.629076 7.447162 -1.481905
v -4.629076 7.447163 -0.001043358
v -4.629076 7.266376 -0.001043334
v -4.629076 7.266376 -1.481905
v -4.045946 7.447176 -1.481905
v -4.629076 7.447162 -1.481905
v -4.629076 7.266376 -1.481905
v -4.045946 7.26639 -1.481905
v -4.629076 7.447163 -0.001043358
v -4.045946 7.447176 -0.001043358
v -4.045946 7.26639 -0.001043334
v -4.629076 7.266376 -0.001043334

vn -1 0 2.563E-06
vn -1 0 2.563E-06
vn -1 0 2.563E-06
vn -1 0 2.563E-06
vn -2.563E-06 5.960464E-08 -1
vn -2.563E-06 5.960464E-08 -1
vn -2.563E-06 5.960464E-08 -1
vn -2.563E-06 5.960464E-08 -1
vn 1 0 -2.563E-06
vn 1 0 -2.563E-06
vn 1 0 -2.563E-06
vn 1 0 -2.563E-06
vn 2.563E-06 -5.960464E-08 1
vn 2.563E-06 -5.960464E-08 1
vn 2.563E-06 -5.960464E-08 1
vn 2.563E-06 -5.960464E-08 1
vn 0 1 1.192093E-07
vn 0 1 1.192093E-07
vn 0 1 1.192093E-07
vn 0 1 1.192093E-07
vn 2.563E-06 -5.960464E-08 1
vn 2.563E-06 -5.960464E-08 1
vn 2.563E-06 -5.960464E-08 1
vn 2.563E-06 -5.960464E-08 1
vn -2.563E-06 5.960464E-08 -1
vn -2.563E-06 5.960464E-08 -1
vn -2.563E-06 5.960464E-08 -1
vn -2.563E-06 5.960464E-08 -1
vn 0 -1 -1.192093E-07
vn 0 -1 -1.192093E-07
vn 0 -1 -1.192093E-07
vn 0 -1 -1.192093E-07
vn 0 1 1.192093E-07
vn 0 1 1.192093E-07
vn 0 1 1.192093E-07
vn 0 1 1.192093E-07
vn 2.563E-06 -5.960464E-08 1
vn 2.563E-06 -5.960464E-08 1
vn 2.563E-06 -5.960464E-08 1
vn 2.563E-06 -5.960464E-08 1
vn -2.563E-06 5.960464E-08 -1
vn -2.563E-06 5.960464E-08 -1
vn -2.563E-06 5.960464E-08 -1
vn -2.563E-06 5.960464E-08 -1
vn 0 -1 -1.192093E-07
vn 0 -1 -1.192093E-07
vn 0 -1 -1.192093E-07
vn 0 -1 -1.192093E-07
vn 0 1 1.192093E-07
vn 0 1 1.192093E-07
vn 0 1 1.192093E-07
vn 0 1 1.192093E-07
vn 0 1 1.192093E-07
vn 0 1 1.192093E-07
vn -1 0 2.563E-06
vn -1 0 2.563E-06
vn -1 0 2.563E-06
vn -1 0 2.563E-06
vn 0 -1 -1.192093E-07
vn 0 -1 -1.192093E-07
vn 0 -1 -1.192093E-07
vn 0 -1 -1.192093E-07
vn 0 -1 -1.192093E-07
vn 0 -1 -1.192093E-07
vn 1 0 -2.563E-06
vn 1 0 -2.563E-06
vn 1 0 -2.563E-06
vn 1 0 -2.563E-06
vn 0 -1 -1.192093E-07
vn 0 -1 -1.192093E-07
vn 0 -1 -1.192093E-07
vn 0 -1 -1.192093E-07
vn 0 1 1.192093E-07
vn 0 1 1.192093E-07
vn 0 1 1.192093E-07
vn 0 1 1.192093E-07
vn 0 1 1.192093E-07
vn 0 1 1.192093E-07
vn 0 1 1.192093E-07
vn 0 1 1.192093E-07
vn 0 1 1.192093E-07
vn 0 1 1.192093E-07
vn 1 0 -2.563E-06
vn 1 0 -2.563E-06
vn 1 0 -2.563E-06
vn 1 0 -2.563E-06
vn 0 -1 -1.192093E-07
vn 0 -1 -1.192093E-07
vn 0 -1 -1.192093E-07
vn 0 -1 -1.192093E-07
vn 0 -1 -1.192093E-07
vn 0 -1 -1.192093E-07
vn -1 0 2.563E-06
vn -1 0 2.563E-06
vn -1 0 2.563E-06
vn -1 0 2.563E-06
vn 0 -1 -1.192093E-07
vn 0 -1 -1.192093E-07
vn 0 -1 -1.192093E-07
vn 0 -1 -1.192093E-07
vn 0 1 1.192093E-07
vn 0 1 1.192093E-07
vn 0 1 1.192093E-07
vn 0 1 1.192093E-07

vt 1.868164 0.9995117
vt 1.868164 0
vt -0.02267456 3.576279E-07
vt -0.02267456 1
vt -5.960464E-08 0.9995117
vt -5.960464E-08 5.960464E-08
vt 0.9995117 1.788139E-07
vt 0.9995117 0.9995117
vt 1.233398 0.9995117
vt 1.233398 5.960464E-08
vt -0.2342529 1.549721E-06
vt -0.2342529 1
vt 0.8149414 0.9995117
vt 0.8149414 0
vt -0.1848145 2.980232E-07
vt -0.1848145 0.9995117
vt 1.188477 0.9692383
vt -0.1890869 0.9692383
vt -0.2342529 1
vt 1.233398 0.9995117
vt -0.1890869 0.9692383
vt -0.1890869 0.03074646
vt -0.2342529 1.549721E-06
vt -0.2342529 1
vt 1.188477 0.03074646
vt 1.188477 0.9692383
vt 1.233398 0.9995117
vt 1.233398 5.960464E-08
vt -0.1890869 0.03074646
vt 1.188477 0.03074646
vt 1.233398 5.960464E-08
vt -0.2342529 1.549721E-06
vt 1.188477 0.9692383
vt -0.1890869 0.9692383
vt -0.2342529 1
vt 1.233398 0.9995117
vt -0.1890869 0.9692383
vt -0.1890869 0.03074646
vt -0.2342529 1.549721E-06
vt -0.2342529 1
vt 1.188477 0.03074646
vt 1.188477 0.9692383
vt 1.233398 0.9995117
vt 1.233398 5.960464E-08
vt -0.1890869 0.03074646
vt 1.188477 0.03074646
vt 1.233398 5.960464E-08
vt -0.2342529 1.549721E-06
vt 0.5 0.9692383
vt -0.1890869 0.9692383
vt -0.2342529 1
vt 0.4997559 0.9995117
vt 1.188477 0.9692383
vt 1.233398 0.9995117
vt -0.1890869 0.9692383
vt -0.1890869 0.03074646
vt -0.2342529 1.549721E-06
vt -0.2342529 1
vt 0.5 0.03074646
vt 1.188477 0.03074646
vt 1.233398 5.960464E-08
vt 0.5 7.748604E-07
vt -0.1890869 0.03074646
vt -0.2342529 1.549721E-06
vt 1.188477 0.03074646
vt 1.188477 0.9692383
vt 1.233398 0.9995117
vt 1.233398 5.960464E-08
vt 0.5 0.03074646
vt 1.188477 0.03074646
vt 1.233398 5.960464E-08
vt 0.5 7.748604E-07
vt 1.188477 0.9692383
vt 0.5 0.9692383
vt 0.4997559 0.9995117
vt 1.233398 0.9995117
vt 0.5 0.9692383
vt -0.1890869 0.9692383
vt -0.2342529 1
vt 0.4997559 0.9995117
vt 1.188477 0.9692383
vt 1.233398 0.9995117
vt -0.1890869 0.9692383
vt -0.1890869 0.03074646
vt -0.2342529 1.549721E-06
vt -0.2342529 1
vt 0.5 0.03074646
vt 1.188477 0.03074646
vt 1.233398 5.960464E-08
vt 0.5 7.748604E-07
vt -0.1890869 0.03074646
vt -0.2342529 1.549721E-06
vt 1.188477 0.03074646
vt 1.188477 0.9692383
vt 1.233398 0.9995117
vt 1.233398 5.960464E-08
vt 0.5 0.03074646
vt 1.188477 0.03074646
vt 1.233398 5.960464E-08
vt 0.5 7.748604E-07
vt 1.188477 0.9692383
vt 0.5 0.9692383
vt 0.4997559 0.9995117
vt 1.233398 0.9995117

g Building.026_35293_499
usemtl Building.026_35293_499
usemap Building.026_35293_499
f 1/1/1 3/3/3 2/2/2
f 1/1/1 4/4/4 3/3/3
f 5/5/5 7/7/7 6/6/6
f 5/5/5 8/8/8 7/7/7
f 9/9/9 11/11/11 10/10/10
f 9/9/9 12/12/12 11/11/11
f 13/13/13 15/15/15 14/14/14
f 13/13/13 16/16/16 15/15/15
f 17/17/17 19/19/19 18/18/18
f 17/17/17 20/20/20 19/19/19
f 21/21/21 23/23/23 22/22/22
f 21/21/21 24/24/24 23/23/23
f 25/25/25 27/27/27 26/26/26
f 25/25/25 28/28/28 27/27/27
f 29/29/29 31/31/31 30/30/30
f 29/29/29 32/32/32 31/31/31
f 33/33/33 35/35/35 34/34/34
f 33/33/33 36/36/36 35/35/35
f 37/37/37 39/39/39 38/38/38
f 37/37/37 40/40/40 39/39/39
f 41/41/41 43/43/43 42/42/42
f 41/41/41 44/44/44 43/43/43
f 45/45/45 47/47/47 46/46/46
f 45/45/45 48/48/48 47/47/47
f 49/49/49 51/51/51 50/50/50
f 49/49/49 52/52/52 51/51/51
f 53/53/53 52/52/52 49/49/49
f 53/53/53 54/54/54 52/52/52
f 55/55/55 57/57/57 56/56/56
f 55/55/55 58/58/58 57/57/57
f 59/59/59 61/61/61 60/60/60
f 59/59/59 62/62/62 61/61/61
f 63/63/63 62/62/62 59/59/59
f 63/63/63 64/64/64 62/62/62
f 65/65/65 67/67/67 66/66/66
f 65/65/65 68/68/68 67/67/67
f 69/69/69 71/71/71 70/70/70
f 69/69/69 72/72/72 71/71/71
f 73/73/73 75/75/75 74/74/74
f 73/73/73 76/76/76 75/75/75
f 77/77/77 79/79/79 78/78/78
f 77/77/77 80/80/80 79/79/79
f 81/81/81 80/80/80 77/77/77
f 81/81/81 82/82/82 80/80/80
f 83/83/83 85/85/85 84/84/84
f 83/83/83 86/86/86 85/85/85
f 87/87/87 89/89/89 88/88/88
f 87/87/87 90/90/90 89/89/89
f 91/91/91 90/90/90 87/87/87
f 91/91/91 92/92/92 90/90/90
f 93/93/93 95/95/95 94/94/94
f 93/93/93 96/96/96 95/95/95
f 97/97/97 99/99/99 98/98/98
f 97/97/97 100/100/100 99/99/99
f 101/101/101 103/103/103 102/102/102
f 101/101/101 104/104/104 103/103/103
