#Building_t7.007_35775_458.obj

v -3.279175 -0.4039929 2.089867
v -3.267183 -1.544526 2.089868
v -3.267183 -1.544527 0.5801482
v -3.279175 -0.4039931 0.5801483
v -3.279175 -0.4039931 0.5801483
v -3.267183 -1.544527 0.5801482
v -3.147127 -1.543264 0.5801482
v -3.159149 -0.4027306 0.5801483
v -3.267183 -1.544526 2.089868
v -3.279175 -0.4039929 2.089867
v -3.159149 -0.4027304 2.089867
v -3.147127 -1.543268 2.089868
v -3.267183 -1.544527 0.5801482
v -3.267183 -1.544526 2.089868
v -3.147127 -1.543268 2.089868
v -3.147127 -1.543264 0.5801482
v -3.279175 -0.4039929 2.089867
v -3.279175 -0.4039931 0.5801483
v -3.159149 -0.4027306 0.5801483
v -3.159149 -0.4027304 2.089867
v -1.194811 -9.838166 2.089868
v -0.05427768 -9.826168 2.089868
v -0.05427768 -9.826168 0.5801488
v -1.194811 -9.838167 0.5801488
v -1.194811 -9.838167 0.5801488
v -0.05427768 -9.826168 0.5801488
v -0.0555592 -9.70612 0.5801488
v -1.196093 -9.718119 0.5801488
v -0.05427768 -9.826168 2.089868
v -1.194811 -9.838166 2.089868
v -1.196093 -9.718118 2.089868
v -0.0555592 -9.70612 2.089868
v -0.05427768 -9.826168 0.5801488
v -0.05427768 -9.826168 2.089868
v -0.0555592 -9.70612 2.089868
v -0.0555592 -9.70612 0.5801488
v -1.194811 -9.838166 2.089868
v -1.194811 -9.838167 0.5801488
v -1.196093 -9.718119 0.5801488
v -1.196093 -9.718118 2.089868
v 5.227415 -1.756445 2.089868
v 5.193695 -0.6163425 2.089867
v 5.193695 -0.6163427 0.5801483
v 5.227415 -1.756445 0.5801482
v 5.227415 -1.756445 0.5801482
v 5.193695 -0.6163427 0.5801483
v 5.073669 -0.6198901 0.5801483
v 5.107389 -1.759993 0.5801482
v 5.193695 -0.6163425 2.089867
v 5.227415 -1.756445 2.089868
v 5.107389 -1.759992 2.089868
v 5.073669 -0.6198899 2.089867
v 5.193695 -0.6163427 0.5801483
v 5.193695 -0.6163425 2.089867
v 5.073669 -0.6198899 2.089867
v 5.073669 -0.6198901 0.5801483
v 5.227415 -1.756445 2.089868
v 5.227415 -1.756445 0.5801482
v 5.107389 -1.759993 0.5801482
v 5.107389 -1.759992 2.089868

vn -0.9995117 0 0.01052094
vn -0.9995117 0 0.01052094
vn -0.9995117 0 0.01052094
vn -0.9995117 0 0.01052094
vn 0 -1 -1.192093E-07
vn 0 -1 -1.192093E-07
vn 0 -1 -1.192093E-07
vn 0 -1 -1.192093E-07
vn 0 1 1.192093E-07
vn 0 1 1.192093E-07
vn 0 1 1.192093E-07
vn 0 1 1.192093E-07
vn 0.01050568 0 0.9995117
vn 0.01050568 0 0.9995117
vn 0.01050568 0 0.9995117
vn 0.01050568 0 0.9995117
vn -0.01051331 0 -0.9995117
vn -0.01051331 0 -0.9995117
vn -0.01051331 0 -0.9995117
vn -0.01051331 0 -0.9995117
vn 0.01052094 0 0.9995117
vn 0.01052094 0 0.9995117
vn 0.01052094 0 0.9995117
vn 0.01052094 0 0.9995117
vn 0 -1 -1.192093E-07
vn 0 -1 -1.192093E-07
vn 0 -1 -1.192093E-07
vn 0 -1 -1.192093E-07
vn 0 1 1.192093E-07
vn 0 1 1.192093E-07
vn 0 1 1.192093E-07
vn 0 1 1.192093E-07
vn 0.9995117 0 -0.01050568
vn 0.9995117 0 -0.01050568
vn 0.9995117 0 -0.01050568
vn 0.9995117 0 -0.01050568
vn -0.9995117 0 0.01051331
vn -0.9995117 0 0.01051331
vn -0.9995117 0 0.01051331
vn -0.9995117 0 0.01051331
vn 0.9995117 0 -0.02955627
vn 0.9995117 0 -0.02955627
vn 0.9995117 0 -0.02955627
vn 0.9995117 0 -0.02955627
vn 0 -1 -1.192093E-07
vn 0 -1 -1.192093E-07
vn 0 -1 -1.192093E-07
vn 0 -1 -1.192093E-07
vn 0 1 1.192093E-07
vn 0 1 1.192093E-07
vn 0 1 1.192093E-07
vn 0 1 1.192093E-07
vn -0.02954102 0 -0.9995117
vn -0.02954102 0 -0.9995117
vn -0.02954102 0 -0.9995117
vn -0.02954102 0 -0.9995117
vn 0.02955627 0 0.9995117
vn 0.02955627 0 0.9995117
vn 0.02955627 0 0.9995117
vn 0.02955627 0 0.9995117

vt 1 0.9995117
vt 8.380413E-05 0.9995117
vt 8.380413E-05 8.380413E-05
vt 0.9995117 8.380413E-05
vt 1.507998E-05 0.7060547
vt 1.507998E-05 0.4997559
vt 0.02172852 0.4997559
vt 0.02172852 0.7060547
vt 1.549721E-05 0.2064209
vt 1.531839E-05 1.472235E-05
vt 0.02172852 1.472235E-05
vt 0.02172852 0.2064209
vt 1.507998E-05 0.4997559
vt 1.549721E-05 0.2064209
vt 0.02172852 0.2064209
vt 0.02172852 0.4997559
vt 1.472235E-05 0.9995117
vt 1.507998E-05 0.7060547
vt 0.02172852 0.7060547
vt 0.02172852 0.9995117
vt 1 0.9995117
vt 8.380413E-05 0.9995117
vt 8.380413E-05 8.380413E-05
vt 0.9995117 8.380413E-05
vt 1.507998E-05 0.7060547
vt 1.507998E-05 0.4997559
vt 0.02172852 0.4997559
vt 0.02172852 0.7060547
vt 1.549721E-05 0.2064209
vt 1.531839E-05 1.472235E-05
vt 0.02172852 1.472235E-05
vt 0.02172852 0.2064209
vt 1.507998E-05 0.4997559
vt 1.549721E-05 0.2064209
vt 0.02172852 0.2064209
vt 0.02172852 0.4997559
vt 1.472235E-05 0.9995117
vt 1.507998E-05 0.7060547
vt 0.02172852 0.7060547
vt 0.02172852 0.9995117
vt 1 0.9995117
vt 8.380413E-05 0.9995117
vt 8.380413E-05 8.380413E-05
vt 0.9995117 8.380413E-05
vt 1.507998E-05 0.7060547
vt 1.507998E-05 0.4997559
vt 0.02172852 0.4997559
vt 0.02172852 0.7060547
vt 1.549721E-05 0.2064209
vt 1.531839E-05 1.472235E-05
vt 0.02172852 1.472235E-05
vt 0.02172852 0.2064209
vt 1.507998E-05 0.4997559
vt 1.549721E-05 0.2064209
vt 0.02172852 0.2064209
vt 0.02172852 0.4997559
vt 1.472235E-05 0.9995117
vt 1.507998E-05 0.7060547
vt 0.02172852 0.7060547
vt 0.02172852 0.9995117

g Building_t7.007_35775_458
usemtl Building_t7.007_35775_458
usemap Building_t7.007_35775_458
f 1/1/1 3/3/3 2/2/2
f 1/1/1 4/4/4 3/3/3
f 5/5/5 7/7/7 6/6/6
f 5/5/5 8/8/8 7/7/7
f 9/9/9 11/11/11 10/10/10
f 9/9/9 12/12/12 11/11/11
f 13/13/13 15/15/15 14/14/14
f 13/13/13 16/16/16 15/15/15
f 17/17/17 19/19/19 18/18/18
f 17/17/17 20/20/20 19/19/19
f 21/21/21 23/23/23 22/22/22
f 21/21/21 24/24/24 23/23/23
f 25/25/25 27/27/27 26/26/26
f 25/25/25 28/28/28 27/27/27
f 29/29/29 31/31/31 30/30/30
f 29/29/29 32/32/32 31/31/31
f 33/33/33 35/35/35 34/34/34
f 33/33/33 36/36/36 35/35/35
f 37/37/37 39/39/39 38/38/38
f 37/37/37 40/40/40 39/39/39
f 41/41/41 43/43/43 42/42/42
f 41/41/41 44/44/44 43/43/43
f 45/45/45 47/47/47 46/46/46
f 45/45/45 48/48/48 47/47/47
f 49/49/49 51/51/51 50/50/50
f 49/49/49 52/52/52 51/51/51
f 53/53/53 55/55/55 54/54/54
f 53/53/53 56/56/56 55/55/55
f 57/57/57 59/59/59 58/58/58
f 57/57/57 60/60/60 59/59/59
