#Building_t8.040_33513_82.obj

v 3.506682 5.346555 1.487052
v -0.7036452 5.485356 1.487052
v -1.120019 10.55304 1.487052
v 3.229102 10.55304 1.487052
v 3.704234 -6.315494 1.487053
v -0.7036638 -6.315486 1.487053
v 11.92732 -6.315506 1.487053
v 11.92734 5.068954 1.487052
v 11.92731 10.55302 1.487052
v 3.692476 -12.1883 1.402825
v 11.85056 -12.18831 1.402825

vn 0 1 1.192093E-07
vn 0 1 1.192093E-07
vn 0 1 1.192093E-07
vn 0 1 1.192093E-07
vn 0 1 1.192093E-07
vn 0 1 1.192093E-07
vn 0 1 1.192093E-07
vn 0 1 1.192093E-07
vn 0 1 1.192093E-07
vn 0 0.9995117 0.01433563
vn 0 0.9995117 0.01433563

vt 7.003906 2.287109
vt 7.148438 6.730469
vt 12.49219 7.167969
vt 12.49219 2.580078
vt -5.300781 2.078125
vt -5.300781 6.730469
vt -5.300781 -6.59375
vt 6.710938 -6.59375
vt 12.49219 -6.59375
vt -11.49219 2.091797
vt -11.49219 -6.515625

g Building_t8.040_33513_82
usemtl Building_t8.040_33513_82
usemap Building_t8.040_33513_82
f 1/1/1 3/3/3 2/2/2
f 1/1/1 4/4/4 3/3/3
f 5/5/5 1/1/1 2/2/2
f 5/5/5 2/2/2 6/6/6
f 7/7/7 1/1/1 5/5/5
f 7/7/7 8/8/8 1/1/1
f 8/8/8 4/4/4 1/1/1
f 8/8/8 9/9/9 4/4/4
f 7/7/7 5/5/5 10/10/10
f 7/7/7 10/10/10 11/11/11
