#Building_small_t1.054_37428_73.obj

v 2.925257 -4.534764 0.1058537
v 2.925255 -4.53476 -1.375009
v 2.925248 -5.701019 -1.375012
v 2.92525 -5.701024 0.1058501
v -0.9569436 2.029406 -0.001036718
v -0.9569454 2.029411 -1.481899
v -0.956952 0.8631512 -1.481903
v -0.9569503 0.8631467 -0.001040291
v -6.87083 5.079428 -0.00102769
v -6.870831 5.079432 -1.48189
v -6.870824 6.245692 -1.481887
v -6.870823 6.245687 -0.001024356
v -6.870829 2.574667 -0.001034964
v -6.87083 2.574672 -1.481897
v -6.870823 3.740932 -1.481894
v -6.870822 3.740927 -0.001031869
v -6.870835 -3.872232 -0.001053916
v -6.870821 -3.872228 -1.481917
v -6.87083 -2.705968 -1.481913
v -6.870828 -2.705972 -0.001050581
v -6.870832 -6.180704 -0.001060827
v -6.870834 -6.180699 -1.481923
v -6.870828 -5.01444 -1.48192
v -6.870826 -5.014444 -0.001057493
v -4.045918 -6.911799 -0.001063125
v -4.045919 -6.911795 -1.481925
v -4.629053 -6.911791 -1.481925
v -4.629051 -6.911796 -0.00106296
v -3.462784 -6.911802 -0.001063289
v -3.462785 -6.911798 -1.481925
v -2.87965 -6.911806 -0.001062977
v -2.879652 -6.911801 -1.481925
v -3.462785 -6.911798 -1.481925
v -3.462784 -6.911802 -0.001063289
v -3.462794 7.447145 -0.001020742
v -3.462795 7.44715 -1.481883
v -2.879662 7.447146 -1.481883
v -2.87966 7.447142 -0.001020906
v -4.045912 7.447149 -0.001020894
v -4.045914 7.447153 -1.481883
v -4.629045 7.447152 -0.001020729
v -4.629047 7.447156 -1.481883
v -4.045914 7.447153 -1.481883
v -4.045912 7.447149 -0.001020894
v 2.925245 -1.277135 0.1058634
v 2.925258 -1.27713 -1.374999
v 2.925252 -2.44339 -1.375002
v 2.925253 -2.443394 0.1058595
v 0.5614456 -6.80715 -0.001062794
v 0.5614439 -6.807146 -1.481925
v -0.02168967 -6.807142 -1.481925
v -0.02168793 -6.807147 -0.001062629
v 1.144579 -6.807153 -0.001062958
v 1.144577 -6.807149 -1.481925
v 1.727697 -6.807157 -0.001062806
v 1.727711 -6.807152 -1.481925
v 1.144577 -6.807149 -1.481925
v 1.144579 -6.807153 -0.001062958
v -1.961886 5.9492 3.812888
v -1.961887 5.949205 2.332025
v -1.961894 4.782945 2.332022
v -1.961892 4.78294 3.812884
v -3.630536 -6.462292 4.681864
v -3.630538 -6.462287 3.201001
v -4.79679 -6.462281 3.201001
v -4.796803 -6.462285 4.681864

vn 5.602837E-06 0.02075195 0.9995117
vn 5.602837E-06 0.02075195 0.9995117
vn 5.602837E-06 0.02075195 0.9995117
vn 5.602837E-06 0.02075195 0.9995117
vn 5.602837E-06 0.02075195 0.9995117
vn 5.602837E-06 0.02075195 0.9995117
vn 5.602837E-06 0.02075195 0.9995117
vn 5.602837E-06 0.02075195 0.9995117
vn -5.602837E-06 -0.02075195 -0.9995117
vn -5.602837E-06 -0.02075195 -0.9995117
vn -5.602837E-06 -0.02075195 -0.9995117
vn -5.602837E-06 -0.02075195 -0.9995117
vn -5.602837E-06 -0.02075195 -0.9995117
vn -5.602837E-06 -0.02075195 -0.9995117
vn -5.602837E-06 -0.02075195 -0.9995117
vn -5.602837E-06 -0.02075195 -0.9995117
vn -5.602837E-06 -0.02075195 -0.9995117
vn -5.602837E-06 -0.02075195 -0.9995117
vn -5.602837E-06 -0.02075195 -0.9995117
vn -5.602837E-06 -0.02075195 -0.9995117
vn -5.602837E-06 -0.02075195 -0.9995117
vn -5.602837E-06 -0.02075195 -0.9995117
vn -5.602837E-06 -0.02075195 -0.9995117
vn -5.602837E-06 -0.02075195 -0.9995117
vn -1 2.384186E-07 5.602837E-06
vn -1 2.384186E-07 5.602837E-06
vn -1 2.384186E-07 5.602837E-06
vn -1 2.384186E-07 5.602837E-06
vn -1 2.384186E-07 5.602837E-06
vn -1 2.384186E-07 5.602837E-06
vn -1 2.384186E-07 5.602837E-06
vn -1 2.384186E-07 5.602837E-06
vn -1 2.384186E-07 5.602837E-06
vn -1 2.384186E-07 5.602837E-06
vn 1 -2.384186E-07 -5.602837E-06
vn 1 -2.384186E-07 -5.602837E-06
vn 1 -2.384186E-07 -5.602837E-06
vn 1 -2.384186E-07 -5.602837E-06
vn 1 -2.384186E-07 -5.602837E-06
vn 1 -2.384186E-07 -5.602837E-06
vn 1 -2.384186E-07 -5.602837E-06
vn 1 -2.384186E-07 -5.602837E-06
vn 1 -2.384186E-07 -5.602837E-06
vn 1 -2.384186E-07 -5.602837E-06
vn 5.602837E-06 0.02075195 0.9995117
vn 5.602837E-06 0.02075195 0.9995117
vn 5.602837E-06 0.02075195 0.9995117
vn 5.602837E-06 0.02075195 0.9995117
vn -1 2.384186E-07 5.602837E-06
vn -1 2.384186E-07 5.602837E-06
vn -1 2.384186E-07 5.602837E-06
vn -1 2.384186E-07 5.602837E-06
vn -1 2.384186E-07 5.602837E-06
vn -1 2.384186E-07 5.602837E-06
vn -1 2.384186E-07 5.602837E-06
vn -1 2.384186E-07 5.602837E-06
vn -1 2.384186E-07 5.602837E-06
vn -1 2.384186E-07 5.602837E-06
vn 5.602837E-06 0.02075195 0.9995117
vn 5.602837E-06 0.02075195 0.9995117
vn 5.602837E-06 0.02075195 0.9995117
vn 5.602837E-06 0.02075195 0.9995117
vn -1 2.384186E-07 5.602837E-06
vn -1 2.384186E-07 5.602837E-06
vn -1 2.384186E-07 5.602837E-06
vn -1 2.384186E-07 5.602837E-06

vt 0 1
vt 3.576279E-07 1.192093E-07
vt 1 0
vt 0.9995117 0.9995117
vt 0 1
vt 3.576279E-07 1.192093E-07
vt 1 0
vt 0.9995117 0.9995117
vt 0 1
vt 3.576279E-07 1.192093E-07
vt 1 0
vt 0.9995117 0.9995117
vt 0 1
vt 3.576279E-07 1.192093E-07
vt 1 0
vt 0.9995117 0.9995117
vt 0 1
vt 3.576279E-07 1.192093E-07
vt 1 0
vt 0.9995117 0.9995117
vt 0 1
vt 3.576279E-07 1.192093E-07
vt 1 0
vt 0.9995117 0.9995117
vt 0.4997559 1
vt 0.5 5.960464E-08
vt 1 0
vt 0.9995117 0.9995117
vt 0 1
vt 3.576279E-07 1.192093E-07
vt 0 1
vt 3.576279E-07 1.192093E-07
vt 0.5 5.960464E-08
vt 0.4997559 1
vt 0.4997559 1
vt 0.5 5.960464E-08
vt 1 0
vt 0.9995117 0.9995117
vt 0 1
vt 3.576279E-07 1.192093E-07
vt 0 1
vt 3.576279E-07 1.192093E-07
vt 0.5 5.960464E-08
vt 0.4997559 1
vt 0 1
vt 3.576279E-07 1.192093E-07
vt 1 0
vt 0.9995117 0.9995117
vt 0.4997559 1
vt 0.5 5.960464E-08
vt 1 0
vt 0.9995117 0.9995117
vt 0 1
vt 3.576279E-07 1.192093E-07
vt 0 1
vt 3.576279E-07 1.192093E-07
vt 0.5 5.960464E-08
vt 0.4997559 1
vt 0 1
vt 3.576279E-07 1.192093E-07
vt 1 0
vt 0.9995117 0.9995117
vt 0 1
vt 3.576279E-07 1.192093E-07
vt 1 0
vt 0.9995117 0.9995117

g Building_small_t1.054_37428_73
usemtl Building_small_t1.054_37428_73
usemap Building_small_t1.054_37428_73
f 1/1/1 3/3/3 2/2/2
f 1/1/1 4/4/4 3/3/3
f 5/5/5 7/7/7 6/6/6
f 5/5/5 8/8/8 7/7/7
f 9/9/9 11/11/11 10/10/10
f 9/9/9 12/12/12 11/11/11
f 13/13/13 15/15/15 14/14/14
f 13/13/13 16/16/16 15/15/15
f 17/17/17 19/19/19 18/18/18
f 17/17/17 20/20/20 19/19/19
f 21/21/21 23/23/23 22/22/22
f 21/21/21 24/24/24 23/23/23
f 25/25/25 27/27/27 26/26/26
f 25/25/25 28/28/28 27/27/27
f 29/29/29 25/25/25 26/26/26
f 29/29/29 26/26/26 30/30/30
f 31/31/31 33/33/33 32/32/32
f 31/31/31 34/34/34 33/33/33
f 35/35/35 37/37/37 36/36/36
f 35/35/35 38/38/38 37/37/37
f 39/39/39 35/35/35 36/36/36
f 39/39/39 36/36/36 40/40/40
f 41/41/41 43/43/43 42/42/42
f 41/41/41 44/44/44 43/43/43
f 45/45/45 47/47/47 46/46/46
f 45/45/45 48/48/48 47/47/47
f 49/49/49 51/51/51 50/50/50
f 49/49/49 52/52/52 51/51/51
f 53/53/53 49/49/49 50/50/50
f 53/53/53 50/50/50 54/54/54
f 55/55/55 57/57/57 56/56/56
f 55/55/55 58/58/58 57/57/57
f 59/59/59 61/61/61 60/60/60
f 59/59/59 62/62/62 61/61/61
f 63/63/63 65/65/65 64/64/64
f 63/63/63 66/66/66 65/65/65
