#Building.037_37950_52.obj

v -0.9569434 -5.112569 -0.001042639
v -0.9569434 -5.112569 -1.481905
v -0.9569464 -6.278836 -1.481905
v -0.9569464 -6.278836 -0.001042484
v -0.9569369 -2.607816 -0.001042496
v -0.9569369 -2.607816 -1.481905
v -0.9569399 -3.774083 -1.481905
v -0.9569399 -3.774083 -0.00104234
v -0.9569507 3.839076 -0.001042877
v -0.9569507 3.839076 -1.481905
v -0.9569537 2.672816 -1.481905
v -0.9569537 2.672817 -0.001043199
v -0.9569447 6.147563 -0.001043185
v -0.9569447 6.147563 -1.481905
v -0.9569477 4.981296 -1.481905
v -0.9569477 4.981296 -0.001043029
v -4.045908 -7.499325 -0.001042321
v -4.045908 -7.499325 -1.481905
v -4.629038 -7.499324 -1.481905
v -4.629038 -7.499324 -0.001042321
v -3.462778 -7.499319 -0.001042321
v -3.462778 -7.499319 -1.481905
v -2.879648 -7.499321 -0.001042321
v -2.879648 -7.499321 -1.481905
v -3.462778 -7.499319 -1.481905
v -3.462778 -7.499319 -0.001042321
v -3.46277 7.447184 -0.001043358
v -3.46277 7.447184 -1.481905
v -2.87964 7.447182 -1.481905
v -2.87964 7.447182 -0.001043358
v -4.0459 7.447185 -0.001043358
v -4.0459 7.447185 -1.481905
v -4.62903 7.447186 -0.001043358
v -4.62903 7.447186 -1.481905
v -4.0459 7.447185 -1.481905
v -4.0459 7.447185 -0.001043358

vn 1 0 -2.563E-06
vn 1 0 -2.563E-06
vn 1 0 -2.563E-06
vn 1 0 -2.563E-06
vn 1 0 -2.563E-06
vn 1 0 -2.563E-06
vn 1 0 -2.563E-06
vn 1 0 -2.563E-06
vn 1 0 -2.563E-06
vn 1 0 -2.563E-06
vn 1 0 -2.563E-06
vn 1 0 -2.563E-06
vn 1 0 -2.563E-06
vn 1 0 -2.563E-06
vn 1 0 -2.563E-06
vn 1 0 -2.563E-06
vn 2.563E-06 -5.960464E-08 1
vn 2.563E-06 -5.960464E-08 1
vn 2.563E-06 -5.960464E-08 1
vn 2.563E-06 -5.960464E-08 1
vn 2.563E-06 -5.960464E-08 1
vn 2.563E-06 -5.960464E-08 1
vn 2.563E-06 -5.960464E-08 1
vn 2.563E-06 -5.960464E-08 1
vn 2.563E-06 -5.960464E-08 1
vn 2.563E-06 -5.960464E-08 1
vn -2.563E-06 5.960464E-08 -1
vn -2.563E-06 5.960464E-08 -1
vn -2.563E-06 5.960464E-08 -1
vn -2.563E-06 5.960464E-08 -1
vn -2.563E-06 5.960464E-08 -1
vn -2.563E-06 5.960464E-08 -1
vn -2.563E-06 5.960464E-08 -1
vn -2.563E-06 5.960464E-08 -1
vn -2.563E-06 5.960464E-08 -1
vn -2.563E-06 5.960464E-08 -1

vt 0 1
vt 3.576279E-07 1.192093E-07
vt 1 0
vt 0.9995117 0.9995117
vt 0 1
vt 3.576279E-07 1.192093E-07
vt 1 0
vt 0.9995117 0.9995117
vt 0 1
vt 3.576279E-07 1.192093E-07
vt 1 0
vt 0.9995117 0.9995117
vt 0 1
vt 3.576279E-07 1.192093E-07
vt 1 0
vt 0.9995117 0.9995117
vt 0.4997559 1
vt 0.5 5.960464E-08
vt 1 0
vt 0.9995117 0.9995117
vt 0 1
vt 3.576279E-07 1.192093E-07
vt 0 1
vt 3.576279E-07 1.192093E-07
vt 0.5 5.960464E-08
vt 0.4997559 1
vt 0.4997559 1
vt 0.5 5.960464E-08
vt 1 0
vt 0.9995117 0.9995117
vt 0 1
vt 3.576279E-07 1.192093E-07
vt 0 1
vt 3.576279E-07 1.192093E-07
vt 0.5 5.960464E-08
vt 0.4997559 1

g Building.037_37950_52
usemtl Building.037_37950_52
usemap Building.037_37950_52
f 1/1/1 3/3/3 2/2/2
f 1/1/1 4/4/4 3/3/3
f 5/5/5 7/7/7 6/6/6
f 5/5/5 8/8/8 7/7/7
f 9/9/9 11/11/11 10/10/10
f 9/9/9 12/12/12 11/11/11
f 13/13/13 15/15/15 14/14/14
f 13/13/13 16/16/16 15/15/15
f 17/17/17 19/19/19 18/18/18
f 17/17/17 20/20/20 19/19/19
f 21/21/21 17/17/17 18/18/18
f 21/21/21 18/18/18 22/22/22
f 23/23/23 25/25/25 24/24/24
f 23/23/23 26/26/26 25/25/25
f 27/27/27 29/29/29 28/28/28
f 27/27/27 30/30/30 29/29/29
f 31/31/31 27/27/27 28/28/28
f 31/31/31 28/28/28 32/32/32
f 33/33/33 35/35/35 34/34/34
f 33/33/33 36/36/36 35/35/35
