#Building_t8.023_33818_612.obj

v -5.112405 5.312947 0.3849312
v -5.112405 5.312947 1.015373
v -0.9179702 5.313002 2.393869
v -0.9179702 5.313002 1.763428
v -5.112404 10.77529 0.3849307
v -5.112404 10.77529 1.015373
v -0.9179692 10.77528 2.393869
v -0.9179692 10.77528 1.763427
v -5.112405 7.955709 0.3849311
v -5.112405 7.955709 1.015373
v -0.9179698 7.955702 2.393869
v -0.9179698 7.955702 1.763427
v -5.112405 5.312947 0.3849312
v -0.9179702 5.313002 1.763428
v -0.9179702 5.313002 2.393869
v -5.112405 5.312947 1.015373
v -5.112404 10.77529 0.3849307
v -0.9179692 10.77528 1.763427
v -0.9179692 10.77528 2.393869
v -5.112404 10.77529 1.015373
v -5.112405 7.955709 0.3849311
v -0.9179698 7.955702 1.763427
v -0.9179698 7.955702 2.393869
v -5.112405 7.955709 1.015373

vn 1.549721E-06 -5.960464E-08 1
vn 1.549721E-06 -5.960464E-08 1
vn 1.549721E-06 -5.960464E-08 1
vn 1.549721E-06 -5.960464E-08 1
vn 1.549721E-06 -5.960464E-08 1
vn 1.549721E-06 -5.960464E-08 1
vn 1.549721E-06 -5.960464E-08 1
vn 1.549721E-06 -5.960464E-08 1
vn 1.549721E-06 -5.960464E-08 1
vn 1.549721E-06 -5.960464E-08 1
vn 1.549721E-06 -5.960464E-08 1
vn 1.549721E-06 -5.960464E-08 1
vn -1.549721E-06 5.960464E-08 -1
vn -1.549721E-06 5.960464E-08 -1
vn -1.549721E-06 5.960464E-08 -1
vn -1.549721E-06 5.960464E-08 -1
vn -1.549721E-06 5.960464E-08 -1
vn -1.549721E-06 5.960464E-08 -1
vn -1.549721E-06 5.960464E-08 -1
vn -1.549721E-06 5.960464E-08 -1
vn -1.549721E-06 5.960464E-08 -1
vn -1.549721E-06 5.960464E-08 -1
vn -1.549721E-06 5.960464E-08 -1
vn -1.549721E-06 5.960464E-08 -1

vt -1.5 0
vt -1.5 1
vt 2.498047 1
vt 2.5 1.192093E-07
vt -1.5 0
vt -1.5 1
vt 2.498047 1
vt 2.5 1.192093E-07
vt -1.5 0
vt -1.5 1
vt 2.498047 1
vt 2.5 1.192093E-07
vt -1.5 0
vt 2.5 1.192093E-07
vt 2.498047 1
vt -1.5 1
vt -1.5 0
vt 2.5 1.192093E-07
vt 2.498047 1
vt -1.5 1
vt -1.5 0
vt 2.5 1.192093E-07
vt 2.498047 1
vt -1.5 1

g Building_t8.023_33818_612
usemtl Building_t8.023_33818_612
usemap Building_t8.023_33818_612
f 1/1/1 3/3/3 2/2/2
f 1/1/1 4/4/4 3/3/3
f 5/5/5 7/7/7 6/6/6
f 5/5/5 8/8/8 7/7/7
f 9/9/9 11/11/11 10/10/10
f 9/9/9 12/12/12 11/11/11
f 13/13/13 15/15/15 14/14/14
f 13/13/13 16/16/16 15/15/15
f 17/17/17 19/19/19 18/18/18
f 17/17/17 20/20/20 19/19/19
f 21/21/21 23/23/23 22/22/22
f 21/21/21 24/24/24 23/23/23
