#Building_small_t1.095_33127_256.obj

v -6.289313 -5.560099 4.178007
v -6.289313 -5.560099 3.482283
v -6.289341 -2.847208 3.482283
v -6.289341 -2.847208 4.178007
v -2.053043 -2.847212 4.178007
v -2.053043 -2.847212 3.482283
v -2.053046 -5.560103 3.482283
v -2.053046 -5.560102 4.178007
v -2.053046 -5.560102 4.178007
v -2.053046 -5.560103 3.482283
v -6.289313 -5.560099 3.482283
v -6.289313 -5.560099 4.178007
v -6.289341 -2.847208 4.178007
v -6.289341 -2.847208 3.482283
v -2.053043 -2.847212 3.482283
v -2.053043 -2.847212 4.178007

vn -8.940697E-07 0 -1
vn -8.940697E-07 0 -1
vn -8.940697E-07 0 -1
vn -8.940697E-07 0 -1
vn 8.940697E-07 0 1
vn 8.940697E-07 0 1
vn 8.940697E-07 0 1
vn 8.940697E-07 0 1
vn -1 -1.192093E-07 8.940697E-07
vn -1 -1.192093E-07 8.940697E-07
vn -1 -1.192093E-07 8.940697E-07
vn -1 -1.192093E-07 8.940697E-07
vn 1 1.192093E-07 -8.940697E-07
vn 1 1.192093E-07 -8.940697E-07
vn 1 1.192093E-07 -8.940697E-07
vn 1 1.192093E-07 -8.940697E-07

vt 0.4997559 -0.1116943
vt 0.4997559 0.1953125
vt 1.697266 0.1953125
vt 1.697266 -0.1116943
vt -2.566406 -0.1116943
vt -2.566406 0.1953125
vt -1.369141 0.1953125
vt -1.369141 -0.1116943
vt -1.369141 -0.1116943
vt -1.369141 0.1953125
vt 0.4997559 0.1953125
vt 0.4997559 -0.1116943
vt 1.697266 -0.1116943
vt 1.697266 0.1953125
vt 3.566406 0.1953125
vt 3.566406 -0.1116943

g Building_small_t1.095_33127_256
usemtl Building_small_t1.095_33127_256
usemap Building_small_t1.095_33127_256
f 1/1/1 3/3/3 2/2/2
f 1/1/1 4/4/4 3/3/3
f 5/5/5 7/7/7 6/6/6
f 5/5/5 8/8/8 7/7/7
f 9/9/9 11/11/11 10/10/10
f 9/9/9 12/12/12 11/11/11
f 13/13/13 15/15/15 14/14/14
f 13/13/13 16/16/16 15/15/15
