#Building_small_t1.031_37642_295.obj

v -6.289306 -5.560174 4.178007
v -6.289306 -5.560174 3.482283
v -6.289301 -2.847222 3.482283
v -6.289301 -2.847222 4.178007
v -2.053034 -2.847229 4.178007
v -2.053034 -2.847229 3.482283
v -2.053038 -5.56012 3.482282
v -2.053038 -5.56012 4.178007
v -2.053038 -5.56012 4.178007
v -2.053038 -5.56012 3.482282
v -6.289306 -5.560174 3.482283
v -6.289306 -5.560174 4.178007
v -6.289301 -2.847222 4.178007
v -6.289301 -2.847222 3.482283
v -2.053034 -2.847229 3.482283
v -2.053034 -2.847229 4.178007

vn -1 5.960464E-08 1.728535E-06
vn -1 5.960464E-08 1.728535E-06
vn -1 5.960464E-08 1.728535E-06
vn -1 5.960464E-08 1.728535E-06
vn 1 -5.960464E-08 -1.728535E-06
vn 1 -5.960464E-08 -1.728535E-06
vn 1 -5.960464E-08 -1.728535E-06
vn 1 -5.960464E-08 -1.728535E-06
vn 1.728535E-06 -1.788139E-07 0.9995117
vn 1.728535E-06 -1.788139E-07 0.9995117
vn 1.728535E-06 -1.788139E-07 0.9995117
vn 1.728535E-06 -1.788139E-07 0.9995117
vn -1.728535E-06 1.788139E-07 -0.9995117
vn -1.728535E-06 1.788139E-07 -0.9995117
vn -1.728535E-06 1.788139E-07 -0.9995117
vn -1.728535E-06 1.788139E-07 -0.9995117

vt 0.4997559 -0.1116943
vt 0.4997559 0.1953125
vt 1.697266 0.1953125
vt 1.697266 -0.1116943
vt -2.566406 -0.1116943
vt -2.566406 0.1953125
vt -1.369141 0.1953125
vt -1.369141 -0.1116943
vt -1.369141 -0.1116943
vt -1.369141 0.1953125
vt 0.4997559 0.1953125
vt 0.4997559 -0.1116943
vt 1.697266 -0.1116943
vt 1.697266 0.1953125
vt 3.566406 0.1953125
vt 3.566406 -0.1116943

g Building_small_t1.031_37642_295
usemtl Building_small_t1.031_37642_295
usemap Building_small_t1.031_37642_295
f 1/1/1 3/3/3 2/2/2
f 1/1/1 4/4/4 3/3/3
f 5/5/5 7/7/7 6/6/6
f 5/5/5 8/8/8 7/7/7
f 9/9/9 11/11/11 10/10/10
f 9/9/9 12/12/12 11/11/11
f 13/13/13 15/15/15 14/14/14
f 13/13/13 16/16/16 15/15/15
