#Building.032_35532_226.obj

v -0.9569377 -5.112569 -0.001043047
v -0.9569377 -5.112569 -1.481905
v -0.9569396 -6.27889 -1.481905
v -0.9569396 -6.27889 -0.001043202
v -0.9569414 -2.60787 -0.001042713
v -0.9569414 -2.607869 -1.481905
v -0.9569432 -3.774129 -1.481905
v -0.9569432 -3.774129 -0.001042869
v -0.9569387 3.83903 -0.001042809
v -0.9569387 3.83903 -1.481905
v -0.9569406 2.67277 -1.481905
v -0.9569406 2.67277 -0.001042964
v -0.9569427 6.147563 -0.001042501
v -0.9569427 6.147563 -1.481905
v -0.9569369 4.981242 -1.481905
v -0.9569369 4.981242 -0.001042656
v -4.045908 -7.499344 -0.001043365
v -4.045908 -7.499344 -1.481905
v -4.629038 -7.499343 -1.481905
v -4.629038 -7.499343 -0.001043365
v -3.462778 -7.499345 -0.001043365
v -3.462778 -7.499345 -1.481905
v -2.879648 -7.499346 -0.001043365
v -2.879648 -7.499346 -1.481905
v -3.462778 -7.499345 -1.481905
v -3.462778 -7.499345 -0.001043365
v -3.462777 7.447127 -0.001043282
v -3.462777 7.447127 -1.481905
v -2.879647 7.447126 -1.481905
v -2.879647 7.447126 -0.001043282
v -4.045907 7.447128 -0.001043282
v -4.045907 7.447128 -1.481905
v -4.629037 7.447129 -0.001043282
v -4.629037 7.447129 -1.481905
v -4.045907 7.447128 -1.481905
v -4.045907 7.447128 -0.001043282

vn 1.609325E-06 5.960464E-08 1
vn 1.609325E-06 5.960464E-08 1
vn 1.609325E-06 5.960464E-08 1
vn 1.609325E-06 5.960464E-08 1
vn 1.609325E-06 5.960464E-08 1
vn 1.609325E-06 5.960464E-08 1
vn 1.609325E-06 5.960464E-08 1
vn 1.609325E-06 5.960464E-08 1
vn 1.609325E-06 5.960464E-08 1
vn 1.609325E-06 5.960464E-08 1
vn 1.609325E-06 5.960464E-08 1
vn 1.609325E-06 5.960464E-08 1
vn 1.609325E-06 5.960464E-08 1
vn 1.609325E-06 5.960464E-08 1
vn 1.609325E-06 5.960464E-08 1
vn 1.609325E-06 5.960464E-08 1
vn -1 1.192093E-07 1.549721E-06
vn -1 1.192093E-07 1.549721E-06
vn -1 1.192093E-07 1.549721E-06
vn -1 1.192093E-07 1.549721E-06
vn -1 1.192093E-07 1.549721E-06
vn -1 1.192093E-07 1.549721E-06
vn -1 1.192093E-07 1.549721E-06
vn -1 1.192093E-07 1.549721E-06
vn -1 1.192093E-07 1.549721E-06
vn -1 1.192093E-07 1.549721E-06
vn 1 -1.192093E-07 -1.549721E-06
vn 1 -1.192093E-07 -1.549721E-06
vn 1 -1.192093E-07 -1.549721E-06
vn 1 -1.192093E-07 -1.549721E-06
vn 1 -1.192093E-07 -1.549721E-06
vn 1 -1.192093E-07 -1.549721E-06
vn 1 -1.192093E-07 -1.549721E-06
vn 1 -1.192093E-07 -1.549721E-06
vn 1 -1.192093E-07 -1.549721E-06
vn 1 -1.192093E-07 -1.549721E-06

vt 0 1
vt 3.576279E-07 1.192093E-07
vt 1 0
vt 0.9995117 0.9995117
vt 0 1
vt 3.576279E-07 1.192093E-07
vt 1 0
vt 0.9995117 0.9995117
vt 0 1
vt 3.576279E-07 1.192093E-07
vt 1 0
vt 0.9995117 0.9995117
vt 0 1
vt 3.576279E-07 1.192093E-07
vt 1 0
vt 0.9995117 0.9995117
vt 0.4997559 1
vt 0.5 5.960464E-08
vt 1 0
vt 0.9995117 0.9995117
vt 0 1
vt 3.576279E-07 1.192093E-07
vt 0 1
vt 3.576279E-07 1.192093E-07
vt 0.5 5.960464E-08
vt 0.4997559 1
vt 0.4997559 1
vt 0.5 5.960464E-08
vt 1 0
vt 0.9995117 0.9995117
vt 0 1
vt 3.576279E-07 1.192093E-07
vt 0 1
vt 3.576279E-07 1.192093E-07
vt 0.5 5.960464E-08
vt 0.4997559 1

g Building.032_35532_226
usemtl Building.032_35532_226
usemap Building.032_35532_226
f 1/1/1 3/3/3 2/2/2
f 1/1/1 4/4/4 3/3/3
f 5/5/5 7/7/7 6/6/6
f 5/5/5 8/8/8 7/7/7
f 9/9/9 11/11/11 10/10/10
f 9/9/9 12/12/12 11/11/11
f 13/13/13 15/15/15 14/14/14
f 13/13/13 16/16/16 15/15/15
f 17/17/17 19/19/19 18/18/18
f 17/17/17 20/20/20 19/19/19
f 21/21/21 17/17/17 18/18/18
f 21/21/21 18/18/18 22/22/22
f 23/23/23 25/25/25 24/24/24
f 23/23/23 26/26/26 25/25/25
f 27/27/27 29/29/29 28/28/28
f 27/27/27 30/30/30 29/29/29
f 31/31/31 27/27/27 28/28/28
f 31/31/31 28/28/28 32/32/32
f 33/33/33 35/35/35 34/34/34
f 33/33/33 36/36/36 35/35/35
