#Building_small_t1.114_33732_449.obj

v -0.9378107 5.262215 -0.2907755
v -0.9378107 5.262215 -2.561046
v -0.9378128 3.408852 -2.561046
v -0.9378128 3.408852 -0.2907753
v -0.9378107 5.262215 -0.2907755
v -0.9378128 3.408852 -0.2907753
v -1.039314 3.408852 -0.2907753
v -1.039312 5.262215 -0.2907755
v -0.9378128 3.408852 -0.2907753
v -0.9378128 3.408852 -2.561046
v -1.039314 3.408852 -2.561046
v -1.039314 3.408852 -0.2907753
v -0.9378107 5.262215 -2.561046
v -0.9378107 5.262215 -0.2907755
v -1.039312 5.262215 -0.2907755
v -1.039312 5.262215 -2.561046
v -0.9378128 3.408852 -2.561046
v -0.9378107 5.262215 -2.561046
v -1.039312 5.262215 -2.561046
v -1.039314 3.408852 -2.561046

vn 1 0 -4.23193E-06
vn 1 0 -4.23193E-06
vn 1 0 -4.23193E-06
vn 1 0 -4.23193E-06
vn 0 1 1.192093E-07
vn 0 1 1.192093E-07
vn 0 1 1.192093E-07
vn 0 1 1.192093E-07
vn 4.23193E-06 -5.960464E-08 1
vn 4.23193E-06 -5.960464E-08 1
vn 4.23193E-06 -5.960464E-08 1
vn 4.23193E-06 -5.960464E-08 1
vn -4.23193E-06 5.960464E-08 -1
vn -4.23193E-06 5.960464E-08 -1
vn -4.23193E-06 5.960464E-08 -1
vn -4.23193E-06 5.960464E-08 -1
vn 0 -1 -1.192093E-07
vn 0 -1 -1.192093E-07
vn 0 -1 -1.192093E-07
vn 0 -1 -1.192093E-07

vt 0 0
vt 0 1
vt 1 1
vt 1 0
vt 0 0
vt 1 0
vt 1 0
vt 0 0
vt 1 0
vt 1 1
vt 1 1
vt 1 0
vt 0 1
vt 0 0
vt 0 0
vt 0 1
vt 1 1
vt 0 1
vt 0 1
vt 1 1

g Building_small_t1.114_33732_449
usemtl Building_small_t1.114_33732_449
usemap Building_small_t1.114_33732_449
f 1/1/1 3/3/3 2/2/2
f 1/1/1 4/4/4 3/3/3
f 5/5/5 7/7/7 6/6/6
f 5/5/5 8/8/8 7/7/7
f 9/9/9 11/11/11 10/10/10
f 9/9/9 12/12/12 11/11/11
f 13/13/13 15/15/15 14/14/14
f 13/13/13 16/16/16 15/15/15
f 17/17/17 19/19/19 18/18/18
f 17/17/17 20/20/20 19/19/19
