#Building_small_t1.008_33042_593.obj

v -0.09693483 -9.221955 -0.001042375
v -0.09693471 -9.221959 -1.481905
v -0.0969373 -8.055698 -0.001042556
v -0.09693718 -8.055702 -1.481905
v -3.098167 -10.82897 -0.001041037
v -3.098167 -10.82897 -1.481903
v -2.515038 -10.82897 -0.001040871
v -2.515037 -10.82897 -1.481903
v -3.681297 -10.82897 -1.481903
v -3.098167 -10.82897 -1.481903
v -3.098167 -10.82897 -0.001041037
v -3.681297 -10.82897 -0.001041084
v -4.264427 -10.82897 -0.00104125
v -4.264427 -10.82898 -1.481903
v -4.045914 7.447188 -0.001042971
v -4.045914 7.447185 -1.481906
v -4.629044 7.447187 -0.001043018
v -4.629044 7.447184 -1.481906
v -3.462784 7.447186 -1.481906
v -4.045914 7.447185 -1.481906
v -4.045914 7.447188 -0.001042971
v -3.462784 7.447189 -0.001042923
v -2.879654 7.447191 -0.001042876
v -2.879654 7.447187 -1.481905
v -0.8947871 -1.670912 -0.00104219
v -0.894787 -1.670915 -1.481905
v -0.8947883 -1.087784 -0.001042519
v -0.8947882 -1.087787 -1.481905
v -0.8947858 -2.254044 -1.481904
v -0.894787 -1.670915 -1.481905
v -0.8947871 -1.670912 -0.00104219
v -0.8947859 -2.25404 -0.001042099
v -0.8947999 -2.837169 -0.001042009
v -0.8947998 -2.837172 -1.481904
v -0.9569415 0.8631644 -0.001043458
v -0.9569414 0.8631612 -1.481906
v -0.956944 2.029482 -0.001041546
v -0.9569439 2.029479 -1.481904
v -0.9569569 -6.27883 -0.00104184
v -0.9569568 -6.278833 -1.481904
v -0.9569441 -5.112573 -0.00104226
v -0.956944 -5.112576 -1.481904

vn -1 0 2.086163E-06
vn -1 0 2.086163E-06
vn -1 0 2.086163E-06
vn -1 0 2.086163E-06
vn 2.086163E-06 0.03817749 0.9990234
vn 2.086163E-06 0.03817749 0.9990234
vn 2.086163E-06 0.03817749 0.9990234
vn 2.086163E-06 0.03817749 0.9990234
vn 2.086163E-06 0.03817749 0.9990234
vn 2.086163E-06 0.03817749 0.9990234
vn 2.086163E-06 0.03817749 0.9990234
vn 2.086163E-06 0.03817749 0.9990234
vn 2.086163E-06 0.03817749 0.9990234
vn 2.086163E-06 0.03817749 0.9990234
vn -2.086163E-06 -0.03817749 -0.9990234
vn -2.086163E-06 -0.03817749 -0.9990234
vn -2.086163E-06 -0.03817749 -0.9990234
vn -2.086163E-06 -0.03817749 -0.9990234
vn -2.086163E-06 -0.03817749 -0.9990234
vn -2.086163E-06 -0.03817749 -0.9990234
vn -2.086163E-06 -0.03817749 -0.9990234
vn -2.086163E-06 -0.03817749 -0.9990234
vn -2.086163E-06 -0.03817749 -0.9990234
vn -2.086163E-06 -0.03817749 -0.9990234
vn -1 0 2.086163E-06
vn -1 0 2.086163E-06
vn -1 0 2.086163E-06
vn -1 0 2.086163E-06
vn -1 0 2.086163E-06
vn -1 0 2.086163E-06
vn -1 0 2.086163E-06
vn -1 0 2.086163E-06
vn -1 0 2.086163E-06
vn -1 0 2.086163E-06
vn -1 0 2.086163E-06
vn -1 0 2.086163E-06
vn -1 0 2.086163E-06
vn -1 0 2.086163E-06
vn -1 0 2.086163E-06
vn -1 0 2.086163E-06
vn -1 0 2.086163E-06
vn -1 0 2.086163E-06

vt 0.9995117 0.9995117
vt 1 0
vt 0 1
vt 3.576279E-07 1.192093E-07
vt 0.4997559 1
vt 0.5 5.960464E-08
vt 0 1
vt 3.576279E-07 1.192093E-07
vt 0.5 5.960464E-08
vt 3.576279E-07 1.192093E-07
vt 0 1
vt 0.4997559 1
vt 0.9995117 0.9995117
vt 1 0
vt 0.4997559 1
vt 0.5 5.960464E-08
vt 0 1
vt 3.576279E-07 1.192093E-07
vt 0.5 5.960464E-08
vt 3.576279E-07 1.192093E-07
vt 0 1
vt 0.4997559 1
vt 0.9995117 0.9995117
vt 1 0
vt 0.4997559 1
vt 0.5 5.960464E-08
vt 0 1
vt 3.576279E-07 1.192093E-07
vt 0.5 5.960464E-08
vt 3.576279E-07 1.192093E-07
vt 0 1
vt 0.4997559 1
vt 0.9995117 0.9995117
vt 1 0
vt 0.9995117 0.9995117
vt 1 0
vt 0 1
vt 3.576279E-07 1.192093E-07
vt 0.9995117 0.9995117
vt 1 0
vt 0 1
vt 3.576279E-07 1.192093E-07

g Building_small_t1.008_33042_593
usemtl Building_small_t1.008_33042_593
usemap Building_small_t1.008_33042_593
f 1/1/1 3/3/3 2/2/2
f 2/2/2 3/3/3 4/4/4
f 5/5/5 7/7/7 6/6/6
f 6/6/6 7/7/7 8/8/8
f 9/9/9 11/11/11 10/10/10
f 12/12/12 11/11/11 9/9/9
f 13/13/13 12/12/12 14/14/14
f 14/14/14 12/12/12 9/9/9
f 15/15/15 17/17/17 16/16/16
f 16/16/16 17/17/17 18/18/18
f 19/19/19 21/21/21 20/20/20
f 22/22/22 21/21/21 19/19/19
f 23/23/23 22/22/22 24/24/24
f 24/24/24 22/22/22 19/19/19
f 25/25/25 27/27/27 26/26/26
f 26/26/26 27/27/27 28/28/28
f 29/29/29 31/31/31 30/30/30
f 32/32/32 31/31/31 29/29/29
f 33/33/33 32/32/32 34/34/34
f 34/34/34 32/32/32 29/29/29
f 35/35/35 37/37/37 36/36/36
f 36/36/36 37/37/37 38/38/38
f 39/39/39 41/41/41 40/40/40
f 40/40/40 41/41/41 42/42/42
