#Building_t7.001_33867_437.obj

v 5.331674 -6.06471 2.089868
v 5.310252 -4.924329 2.089868
v 5.310252 -4.924329 0.5801484
v 5.331674 -6.06471 0.5801486
v 5.331674 -6.06471 0.5801486
v 5.310252 -4.924329 0.5801484
v 5.190227 -4.926587 0.5801484
v 5.211648 -6.066968 0.5801486
v 5.310252 -4.924329 2.089868
v 5.331674 -6.06471 2.089868
v 5.211648 -6.066968 2.089868
v 5.190227 -4.926587 2.089868
v 5.310252 -4.924329 0.5801484
v 5.310252 -4.924329 2.089868
v 5.190227 -4.926587 2.089868
v 5.190227 -4.926587 0.5801484
v 5.331674 -6.06471 2.089868
v 5.331674 -6.06471 0.5801486
v 5.211648 -6.066968 0.5801486
v 5.211648 -6.066968 2.089868
v 4.691124 3.128895 2.089867
v 4.514673 4.255726 2.089867
v 4.514673 4.255726 0.5801479
v 4.691124 3.128895 0.5801478
v 4.691124 3.128895 0.5801478
v 4.514673 4.255726 0.5801479
v 4.396051 4.237172 0.5801479
v 4.572533 3.110279 0.5801478
v 4.514673 4.255726 2.089867
v 4.691124 3.128895 2.089867
v 4.572533 3.110279 2.089867
v 4.396051 4.237172 2.089867
v 4.514673 4.255726 0.5801479
v 4.514673 4.255726 2.089867
v 4.396051 4.237172 2.089867
v 4.396051 4.237172 0.5801479
v 4.691124 3.128895 2.089867
v 4.691124 3.128895 0.5801478
v 4.572533 3.110279 0.5801478
v 4.572533 3.110279 2.089867
v 3.215056 6.795767 2.089867
v 2.074492 6.802788 2.089867
v 2.074492 6.802788 0.5801478
v 3.215056 6.795767 0.5801478
v 3.215056 6.795767 0.5801478
v 2.074492 6.802788 0.5801478
v 2.073729 6.682732 0.5801478
v 3.214323 6.675711 0.5801478
v 2.074492 6.802788 2.089867
v 3.215056 6.795767 2.089867
v 3.214323 6.675711 2.089867
v 2.073729 6.682732 2.089867
v 2.074492 6.802788 0.5801478
v 2.074492 6.802788 2.089867
v 2.073729 6.682732 2.089867
v 2.073729 6.682732 0.5801478
v 3.215056 6.795767 2.089867
v 3.215056 6.795767 0.5801478
v 3.214323 6.675711 0.5801478
v 3.214323 6.675711 2.089867
v -3.025487 4.950257 2.089867
v -3.074866 3.81067 2.089867
v -3.074866 3.81067 0.5801479
v -3.025487 4.950257 0.5801478
v -3.025487 4.950257 0.5801478
v -3.074866 3.81067 0.5801479
v -2.954932 3.805481 0.5801479
v -2.905553 4.945008 0.5801478
v -3.074866 3.81067 2.089867
v -3.025487 4.950257 2.089867
v -2.905553 4.945008 2.089867
v -2.954932 3.805482 2.089867
v -3.074866 3.81067 0.5801479
v -3.074866 3.81067 2.089867
v -2.954932 3.805482 2.089867
v -2.954932 3.805481 0.5801479
v -3.025487 4.950257 2.089867
v -3.025487 4.950257 0.5801478
v -2.905553 4.945008 0.5801478
v -2.905553 4.945008 2.089867
v -3.317983 -5.000365 2.089868
v -3.332114 -6.140868 2.089868
v -3.332114 -6.140868 0.5801486
v -3.317983 -5.000365 0.5801484
v -3.317983 -5.000365 0.5801484
v -3.332114 -6.140868 0.5801486
v -3.212058 -6.142394 0.5801486
v -3.197927 -5.001891 0.5801484
v -3.332114 -6.140868 2.089868
v -3.317983 -5.000365 2.089868
v -3.197927 -5.001891 2.089868
v -3.212058 -6.142394 2.089868
v -3.332114 -6.140868 0.5801486
v -3.332114 -6.140868 2.089868
v -3.212058 -6.142394 2.089868
v -3.212058 -6.142394 0.5801486
v -3.317983 -5.000365 2.089868
v -3.317983 -5.000365 0.5801484
v -3.197927 -5.001891 0.5801484
v -3.197927 -5.001891 2.089868

vn 0.9995117 0 -0.01876831
vn 0.9995117 0 -0.01876831
vn 0.9995117 0 -0.01876831
vn 0.9995117 0 -0.01876831
vn 0 -1 -1.192093E-07
vn 0 -1 -1.192093E-07
vn 0 -1 -1.192093E-07
vn 0 -1 -1.192093E-07
vn 0 1 1.192093E-07
vn 0 1 1.192093E-07
vn 0 1 1.192093E-07
vn 0 1 1.192093E-07
vn -0.01876831 0 -0.9995117
vn -0.01876831 0 -0.9995117
vn -0.01876831 0 -0.9995117
vn -0.01876831 0 -0.9995117
vn 0.01876831 0 0.9995117
vn 0.01876831 0 0.9995117
vn 0.01876831 0 0.9995117
vn 0.01876831 0 0.9995117
vn 0.987793 0 -0.1546631
vn 0.987793 0 -0.1546631
vn 0.987793 0 -0.1546631
vn 0.987793 0 -0.1546631
vn 0 -1 -1.192093E-07
vn 0 -1 -1.192093E-07
vn 0 -1 -1.192093E-07
vn 0 -1 -1.192093E-07
vn 0 1 1.192093E-07
vn 0 1 1.192093E-07
vn 0 1 1.192093E-07
vn 0 1 1.192093E-07
vn -0.1546631 0 -0.987793
vn -0.1546631 0 -0.987793
vn -0.1546631 0 -0.987793
vn -0.1546631 0 -0.987793
vn 0.1546631 0 0.987793
vn 0.1546631 0 0.987793
vn 0.1546631 0 0.987793
vn 0.1546631 0 0.987793
vn 0.006164551 0 -0.9995117
vn 0.006164551 0 -0.9995117
vn 0.006164551 0 -0.9995117
vn 0.006164551 0 -0.9995117
vn 0 -1 -1.192093E-07
vn 0 -1 -1.192093E-07
vn 0 -1 -1.192093E-07
vn 0 -1 -1.192093E-07
vn 0 1 1.192093E-07
vn 0 1 1.192093E-07
vn 0 1 1.192093E-07
vn 0 1 1.192093E-07
vn -0.9995117 0 -0.00617218
vn -0.9995117 0 -0.00617218
vn -0.9995117 0 -0.00617218
vn -0.9995117 0 -0.00617218
vn 0.9995117 0 0.00617218
vn 0.9995117 0 0.00617218
vn 0.9995117 0 0.00617218
vn 0.9995117 0 0.00617218
vn -0.9990234 0 -0.04327393
vn -0.9990234 0 -0.04327393
vn -0.9990234 0 -0.04327393
vn -0.9990234 0 -0.04327393
vn 0 -1 -1.192093E-07
vn 0 -1 -1.192093E-07
vn 0 -1 -1.192093E-07
vn 0 -1 -1.192093E-07
vn 0 1 1.192093E-07
vn 0 1 1.192093E-07
vn 0 1 1.192093E-07
vn 0 1 1.192093E-07
vn -0.04327393 0 0.9990234
vn -0.04327393 0 0.9990234
vn -0.04327393 0 0.9990234
vn -0.04327393 0 0.9990234
vn 0.04327393 0 -0.9990234
vn 0.04327393 0 -0.9990234
vn 0.04327393 0 -0.9990234
vn 0.04327393 0 -0.9990234
vn -0.9995117 0 -0.01237488
vn -0.9995117 0 -0.01237488
vn -0.9995117 0 -0.01237488
vn -0.9995117 0 -0.01237488
vn 0 -1 -1.192093E-07
vn 0 -1 -1.192093E-07
vn 0 -1 -1.192093E-07
vn 0 -1 -1.192093E-07
vn 0 1 1.192093E-07
vn 0 1 1.192093E-07
vn 0 1 1.192093E-07
vn 0 1 1.192093E-07
vn -0.01239014 0 0.9995117
vn -0.01239014 0 0.9995117
vn -0.01239014 0 0.9995117
vn -0.01239014 0 0.9995117
vn 0.01238251 0 -0.9995117
vn 0.01238251 0 -0.9995117
vn 0.01238251 0 -0.9995117
vn 0.01238251 0 -0.9995117

vt 1 0.9995117
vt 8.380413E-05 0.9995117
vt 8.380413E-05 8.380413E-05
vt 0.9995117 8.380413E-05
vt 1.507998E-05 0.7060547
vt 1.507998E-05 0.4997559
vt 0.02172852 0.4997559
vt 0.02172852 0.7060547
vt 1.549721E-05 0.2064209
vt 1.531839E-05 1.472235E-05
vt 0.02172852 1.472235E-05
vt 0.02172852 0.2064209
vt 1.507998E-05 0.4997559
vt 1.549721E-05 0.2064209
vt 0.02172852 0.2064209
vt 0.02172852 0.4997559
vt 1.472235E-05 0.9995117
vt 1.507998E-05 0.7060547
vt 0.02172852 0.7060547
vt 0.02172852 0.9995117
vt 1 0.9995117
vt 8.380413E-05 0.9995117
vt 8.380413E-05 8.380413E-05
vt 0.9995117 8.380413E-05
vt 1.507998E-05 0.7060547
vt 1.507998E-05 0.4997559
vt 0.02172852 0.4997559
vt 0.02172852 0.7060547
vt 1.549721E-05 0.2064209
vt 1.531839E-05 1.472235E-05
vt 0.02172852 1.472235E-05
vt 0.02172852 0.2064209
vt 1.507998E-05 0.4997559
vt 1.549721E-05 0.2064209
vt 0.02172852 0.2064209
vt 0.02172852 0.4997559
vt 1.472235E-05 0.9995117
vt 1.507998E-05 0.7060547
vt 0.02172852 0.7060547
vt 0.02172852 0.9995117
vt 1 0.9995117
vt 8.380413E-05 0.9995117
vt 8.380413E-05 8.380413E-05
vt 0.9995117 8.380413E-05
vt 1.507998E-05 0.7060547
vt 1.507998E-05 0.4997559
vt 0.02172852 0.4997559
vt 0.02172852 0.7060547
vt 1.549721E-05 0.2064209
vt 1.531839E-05 1.472235E-05
vt 0.02172852 1.472235E-05
vt 0.02172852 0.2064209
vt 1.507998E-05 0.4997559
vt 1.549721E-05 0.2064209
vt 0.02172852 0.2064209
vt 0.02172852 0.4997559
vt 1.472235E-05 0.9995117
vt 1.507998E-05 0.7060547
vt 0.02172852 0.7060547
vt 0.02172852 0.9995117
vt 1 0.9995117
vt 8.380413E-05 0.9995117
vt 8.380413E-05 8.380413E-05
vt 0.9995117 8.380413E-05
vt 1.507998E-05 0.7060547
vt 1.507998E-05 0.4997559
vt 0.02172852 0.4997559
vt 0.02172852 0.7060547
vt 1.549721E-05 0.2064209
vt 1.531839E-05 1.472235E-05
vt 0.02172852 1.472235E-05
vt 0.02172852 0.2064209
vt 1.507998E-05 0.4997559
vt 1.549721E-05 0.2064209
vt 0.02172852 0.2064209
vt 0.02172852 0.4997559
vt 1.472235E-05 0.9995117
vt 1.507998E-05 0.7060547
vt 0.02172852 0.7060547
vt 0.02172852 0.9995117
vt 1 0.9995117
vt 8.380413E-05 0.9995117
vt 8.380413E-05 8.380413E-05
vt 0.9995117 8.380413E-05
vt 1.507998E-05 0.7060547
vt 1.507998E-05 0.4997559
vt 0.02172852 0.4997559
vt 0.02172852 0.7060547
vt 1.549721E-05 0.2064209
vt 1.531839E-05 1.472235E-05
vt 0.02172852 1.472235E-05
vt 0.02172852 0.2064209
vt 1.507998E-05 0.4997559
vt 1.549721E-05 0.2064209
vt 0.02172852 0.2064209
vt 0.02172852 0.4997559
vt 1.472235E-05 0.9995117
vt 1.507998E-05 0.7060547
vt 0.02172852 0.7060547
vt 0.02172852 0.9995117

g Building_t7.001_33867_437
usemtl Building_t7.001_33867_437
usemap Building_t7.001_33867_437
f 1/1/1 3/3/3 2/2/2
f 1/1/1 4/4/4 3/3/3
f 5/5/5 7/7/7 6/6/6
f 5/5/5 8/8/8 7/7/7
f 9/9/9 11/11/11 10/10/10
f 9/9/9 12/12/12 11/11/11
f 13/13/13 15/15/15 14/14/14
f 13/13/13 16/16/16 15/15/15
f 17/17/17 19/19/19 18/18/18
f 17/17/17 20/20/20 19/19/19
f 21/21/21 23/23/23 22/22/22
f 21/21/21 24/24/24 23/23/23
f 25/25/25 27/27/27 26/26/26
f 25/25/25 28/28/28 27/27/27
f 29/29/29 31/31/31 30/30/30
f 29/29/29 32/32/32 31/31/31
f 33/33/33 35/35/35 34/34/34
f 33/33/33 36/36/36 35/35/35
f 37/37/37 39/39/39 38/38/38
f 37/37/37 40/40/40 39/39/39
f 41/41/41 43/43/43 42/42/42
f 41/41/41 44/44/44 43/43/43
f 45/45/45 47/47/47 46/46/46
f 45/45/45 48/48/48 47/47/47
f 49/49/49 51/51/51 50/50/50
f 49/49/49 52/52/52 51/51/51
f 53/53/53 55/55/55 54/54/54
f 53/53/53 56/56/56 55/55/55
f 57/57/57 59/59/59 58/58/58
f 57/57/57 60/60/60 59/59/59
f 61/61/61 63/63/63 62/62/62
f 61/61/61 64/64/64 63/63/63
f 65/65/65 67/67/67 66/66/66
f 65/65/65 68/68/68 67/67/67
f 69/69/69 71/71/71 70/70/70
f 69/69/69 72/72/72 71/71/71
f 73/73/73 75/75/75 74/74/74
f 73/73/73 76/76/76 75/75/75
f 77/77/77 79/79/79 78/78/78
f 77/77/77 80/80/80 79/79/79
f 81/81/81 83/83/83 82/82/82
f 81/81/81 84/84/84 83/83/83
f 85/85/85 87/87/87 86/86/86
f 85/85/85 88/88/88 87/87/87
f 89/89/89 91/91/91 90/90/90
f 89/89/89 92/92/92 91/91/91
f 93/93/93 95/95/95 94/94/94
f 93/93/93 96/96/96 95/95/95
f 97/97/97 99/99/99 98/98/98
f 97/97/97 100/100/100 99/99/99
