#Building_small_t1.030_37575_104.obj

v -0.9569691 2.254452 -0.001042666
v -0.9569691 2.254452 -1.481905
v -0.9569702 1.088193 -1.481905
v -0.9569702 1.088193 -0.001042988
v -6.870846 5.079409 -0.001043042
v -6.870846 5.079409 -1.481905
v -6.870845 6.245699 -1.481905
v -6.870845 6.245699 -0.001042721
v -6.870848 2.574679 -0.001042709
v -6.870848 2.574679 -1.481905
v -6.870847 3.740939 -1.481905
v -6.870847 3.740939 -0.001042864
v -3.462763 7.447174 -0.001042881
v -3.462763 7.447173 -1.481905
v -2.879633 7.447173 -1.481905
v -2.879633 7.447173 -0.001042881
v -4.045893 7.447174 -0.001042881
v -4.045893 7.447174 -1.481905
v -4.629023 7.447175 -0.001042881
v -4.629023 7.447174 -1.481905
v -4.045893 7.447174 -1.481905
v -4.045893 7.447174 -0.001042881
v 0.7752638 -4.040685 -0.001042782
v 0.7752638 -4.040685 -1.481905
v 0.7752627 -5.206944 -1.481905
v 0.7752627 -5.206944 -0.001042626
v 0.7752615 -6.504704 -0.00104293
v 0.7752615 -6.504704 -1.481905
v 0.7752604 -7.670995 -1.481905
v 0.7752604 -7.670995 -0.001042775
v -0.5311983 -8.962833 -0.001042603
v -0.5311983 -8.962833 -1.481905
v -1.697458 -8.962832 -1.481905
v -1.697458 -8.962831 -0.001042603
v -3.656442 -8.962831 -0.001042603
v -3.656442 -8.962831 -1.481905
v -4.822763 -8.96283 -1.481905
v -4.822763 -8.962829 -0.001042603
v -6.100532 -6.718107 -0.001042902
v -6.100532 -6.718108 -1.481905
v -6.100592 -5.551848 -1.481905
v -6.100592 -5.551847 -0.00104258

vn 8.940697E-07 0 1
vn 8.940697E-07 0 1
vn 8.940697E-07 0 1
vn 8.940697E-07 0 1
vn -8.940697E-07 0 -1
vn -8.940697E-07 0 -1
vn -8.940697E-07 0 -1
vn -8.940697E-07 0 -1
vn -8.940697E-07 0 -1
vn -8.940697E-07 0 -1
vn -8.940697E-07 0 -1
vn -8.940697E-07 0 -1
vn 1 1.192093E-07 -8.940697E-07
vn 1 1.192093E-07 -8.940697E-07
vn 1 1.192093E-07 -8.940697E-07
vn 1 1.192093E-07 -8.940697E-07
vn 1 1.192093E-07 -8.940697E-07
vn 1 1.192093E-07 -8.940697E-07
vn 1 1.192093E-07 -8.940697E-07
vn 1 1.192093E-07 -8.940697E-07
vn 1 1.192093E-07 -8.940697E-07
vn 1 1.192093E-07 -8.940697E-07
vn 8.940697E-07 0 1
vn 8.940697E-07 0 1
vn 8.940697E-07 0 1
vn 8.940697E-07 0 1
vn 8.940697E-07 0 1
vn 8.940697E-07 0 1
vn 8.940697E-07 0 1
vn 8.940697E-07 0 1
vn -1 -1.192093E-07 8.940697E-07
vn -1 -1.192093E-07 8.940697E-07
vn -1 -1.192093E-07 8.940697E-07
vn -1 -1.192093E-07 8.940697E-07
vn -1 -1.192093E-07 8.940697E-07
vn -1 -1.192093E-07 8.940697E-07
vn -1 -1.192093E-07 8.940697E-07
vn -1 -1.192093E-07 8.940697E-07
vn -8.940697E-07 0 -1
vn -8.940697E-07 0 -1
vn -8.940697E-07 0 -1
vn -8.940697E-07 0 -1

vt 0 1
vt 3.576279E-07 1.192093E-07
vt 1 0
vt 0.9995117 0.9995117
vt 0 1
vt 3.576279E-07 1.192093E-07
vt 1 0
vt 0.9995117 0.9995117
vt 0 1
vt 3.576279E-07 1.192093E-07
vt 1 0
vt 0.9995117 0.9995117
vt 0.4997559 1
vt 0.5 5.960464E-08
vt 1 0
vt 0.9995117 0.9995117
vt 0 1
vt 3.576279E-07 1.192093E-07
vt 0 1
vt 3.576279E-07 1.192093E-07
vt 0.5 5.960464E-08
vt 0.4997559 1
vt 0 1
vt 3.576279E-07 1.192093E-07
vt 1 0
vt 0.9995117 0.9995117
vt 0 1
vt 3.576279E-07 1.192093E-07
vt 1 0
vt 0.9995117 0.9995117
vt 0 1
vt 3.576279E-07 1.192093E-07
vt 1 0
vt 0.9995117 0.9995117
vt 0 1
vt 3.576279E-07 1.192093E-07
vt 1 0
vt 0.9995117 0.9995117
vt 0 1
vt 3.576279E-07 1.192093E-07
vt 1 0
vt 0.9995117 0.9995117

g Building_small_t1.030_37575_104
usemtl Building_small_t1.030_37575_104
usemap Building_small_t1.030_37575_104
f 1/1/1 3/3/3 2/2/2
f 1/1/1 4/4/4 3/3/3
f 5/5/5 7/7/7 6/6/6
f 5/5/5 8/8/8 7/7/7
f 9/9/9 11/11/11 10/10/10
f 9/9/9 12/12/12 11/11/11
f 13/13/13 15/15/15 14/14/14
f 13/13/13 16/16/16 15/15/15
f 17/17/17 13/13/13 14/14/14
f 17/17/17 14/14/14 18/18/18
f 19/19/19 21/21/21 20/20/20
f 19/19/19 22/22/22 21/21/21
f 23/23/23 25/25/25 24/24/24
f 23/23/23 26/26/26 25/25/25
f 27/27/27 29/29/29 28/28/28
f 27/27/27 30/30/30 29/29/29
f 31/31/31 33/33/33 32/32/32
f 31/31/31 34/34/34 33/33/33
f 35/35/35 37/37/37 36/36/36
f 35/35/35 38/38/38 37/37/37
f 39/39/39 41/41/41 40/40/40
f 39/39/39 42/42/42 41/41/41
