#Building_t8.018_37413_232.obj

v -3.909851 -0.6200123 2.351935
v -3.909851 -0.6200123 -0.1493491
v -3.909848 1.061872 -0.1493491
v -3.909848 1.061872 2.351935
v 1.096191 7.857427 3.972177
v 1.096191 7.857427 1.470893
v 1.096187 9.539311 1.470893
v 1.096187 9.539311 3.972177
v 1.096188 5.816533 3.972177
v 1.096188 5.816533 1.470893
v 1.096191 7.498418 1.470893
v 1.096191 7.498418 3.972177

vn -1.728535E-06 -5.960464E-08 -1
vn -1.728535E-06 -5.960464E-08 -1
vn -1.728535E-06 -5.960464E-08 -1
vn -1.728535E-06 -5.960464E-08 -1
vn -1.728535E-06 -5.960464E-08 -1
vn -1.728535E-06 -5.960464E-08 -1
vn -1.728535E-06 -5.960464E-08 -1
vn -1.728535E-06 -5.960464E-08 -1
vn -1.728535E-06 -5.960464E-08 -1
vn -1.728535E-06 -5.960464E-08 -1
vn -1.728535E-06 -5.960464E-08 -1
vn -1.728535E-06 -5.960464E-08 -1

vt 5.960464E-08 0.9995117
vt 0 0
vt 1 5.960464E-08
vt 1 1
vt 4.172325E-07 1
vt 0 1.788139E-07
vt 0.9995117 0
vt 1 0.9995117
vt 3.576279E-07 1
vt 2.384186E-07 0
vt 1 1.192093E-07
vt 1 1

g Building_t8.018_37413_232
usemtl Building_t8.018_37413_232
usemap Building_t8.018_37413_232
f 1/1/1 3/3/3 2/2/2
f 1/1/1 4/4/4 3/3/3
f 5/5/5 7/7/7 6/6/6
f 5/5/5 8/8/8 7/7/7
f 9/9/9 11/11/11 10/10/10
f 9/9/9 12/12/12 11/11/11
