#Building_small_t1.104_35294_192.obj

v -0.9569753 2.254459 -0.001043143
v -0.9569753 2.254459 -1.481905
v -0.9569794 1.088199 -1.481905
v -0.9569794 1.088199 -0.001042988
v -6.870845 5.079431 -0.001043042
v -6.870845 5.079431 -1.481905
v -6.870841 6.245691 -1.481905
v -6.870841 6.245691 -0.001043198
v -6.870853 2.57467 -0.001043186
v -6.870853 2.57467 -1.481905
v -6.87085 3.74093 -1.481905
v -6.87085 3.74093 -0.001042864
v -3.462816 7.447156 -0.001043358
v -3.462816 7.447155 -1.481905
v -2.879686 7.447154 -1.481905
v -2.879686 7.447154 -0.001043358
v -4.045946 7.447158 -0.001043358
v -4.045946 7.447158 -1.481905
v -4.629076 7.44716 -0.001043358
v -4.629076 7.44716 -1.481905
v -4.045946 7.447158 -1.481905
v -4.045946 7.447158 -0.001043358
v 0.7752412 -4.040652 -0.001042305
v 0.7752412 -4.040652 -1.481905
v 0.775237 -5.206912 -1.481905
v 0.775237 -5.206912 -0.001042626
v 0.7752324 -6.504703 -0.001042454
v 0.7752324 -6.504703 -1.481905
v 0.7752283 -7.670962 -1.481904
v 0.7752283 -7.670962 -0.001042298
v -0.5312338 -8.962828 -0.001042126
v -0.5312338 -8.962828 -1.481904
v -1.697494 -8.962824 -1.481904
v -1.697494 -8.962824 -0.001042126
v -3.656478 -8.962816 -0.001042126
v -3.656478 -8.962817 -1.481904
v -4.822738 -8.962812 -1.481904
v -4.822738 -8.962812 -0.001042126
v -6.100562 -6.718118 -0.001042425
v -6.100562 -6.718118 -1.481905
v -6.100558 -5.551858 -1.481905
v -6.100558 -5.551858 -0.00104258

vn 1 0 -3.516674E-06
vn 1 0 -3.516674E-06
vn 1 0 -3.516674E-06
vn 1 0 -3.516674E-06
vn -1 0 3.516674E-06
vn -1 0 3.516674E-06
vn -1 0 3.516674E-06
vn -1 0 3.516674E-06
vn -1 0 3.516674E-06
vn -1 0 3.516674E-06
vn -1 0 3.516674E-06
vn -1 0 3.516674E-06
vn -3.516674E-06 5.960464E-08 -1
vn -3.516674E-06 5.960464E-08 -1
vn -3.516674E-06 5.960464E-08 -1
vn -3.516674E-06 5.960464E-08 -1
vn -3.516674E-06 5.960464E-08 -1
vn -3.516674E-06 5.960464E-08 -1
vn -3.516674E-06 5.960464E-08 -1
vn -3.516674E-06 5.960464E-08 -1
vn -3.516674E-06 5.960464E-08 -1
vn -3.516674E-06 5.960464E-08 -1
vn 1 0 -3.516674E-06
vn 1 0 -3.516674E-06
vn 1 0 -3.516674E-06
vn 1 0 -3.516674E-06
vn 1 0 -3.516674E-06
vn 1 0 -3.516674E-06
vn 1 0 -3.516674E-06
vn 1 0 -3.516674E-06
vn 3.516674E-06 -5.960464E-08 1
vn 3.516674E-06 -5.960464E-08 1
vn 3.516674E-06 -5.960464E-08 1
vn 3.516674E-06 -5.960464E-08 1
vn 3.516674E-06 -5.960464E-08 1
vn 3.516674E-06 -5.960464E-08 1
vn 3.516674E-06 -5.960464E-08 1
vn 3.516674E-06 -5.960464E-08 1
vn -1 0 3.516674E-06
vn -1 0 3.516674E-06
vn -1 0 3.516674E-06
vn -1 0 3.516674E-06

vt 0 1
vt 3.576279E-07 1.192093E-07
vt 1 0
vt 0.9995117 0.9995117
vt 0 1
vt 3.576279E-07 1.192093E-07
vt 1 0
vt 0.9995117 0.9995117
vt 0 1
vt 3.576279E-07 1.192093E-07
vt 1 0
vt 0.9995117 0.9995117
vt 0.4997559 1
vt 0.5 5.960464E-08
vt 1 0
vt 0.9995117 0.9995117
vt 0 1
vt 3.576279E-07 1.192093E-07
vt 0 1
vt 3.576279E-07 1.192093E-07
vt 0.5 5.960464E-08
vt 0.4997559 1
vt 0 1
vt 3.576279E-07 1.192093E-07
vt 1 0
vt 0.9995117 0.9995117
vt 0 1
vt 3.576279E-07 1.192093E-07
vt 1 0
vt 0.9995117 0.9995117
vt 0 1
vt 3.576279E-07 1.192093E-07
vt 1 0
vt 0.9995117 0.9995117
vt 0 1
vt 3.576279E-07 1.192093E-07
vt 1 0
vt 0.9995117 0.9995117
vt 0 1
vt 3.576279E-07 1.192093E-07
vt 1 0
vt 0.9995117 0.9995117

g Building_small_t1.104_35294_192
usemtl Building_small_t1.104_35294_192
usemap Building_small_t1.104_35294_192
f 1/1/1 3/3/3 2/2/2
f 1/1/1 4/4/4 3/3/3
f 5/5/5 7/7/7 6/6/6
f 5/5/5 8/8/8 7/7/7
f 9/9/9 11/11/11 10/10/10
f 9/9/9 12/12/12 11/11/11
f 13/13/13 15/15/15 14/14/14
f 13/13/13 16/16/16 15/15/15
f 17/17/17 13/13/13 14/14/14
f 17/17/17 14/14/14 18/18/18
f 19/19/19 21/21/21 20/20/20
f 19/19/19 22/22/22 21/21/21
f 23/23/23 25/25/25 24/24/24
f 23/23/23 26/26/26 25/25/25
f 27/27/27 29/29/29 28/28/28
f 27/27/27 30/30/30 29/29/29
f 31/31/31 33/33/33 32/32/32
f 31/31/31 34/34/34 33/33/33
f 35/35/35 37/37/37 36/36/36
f 35/35/35 38/38/38 37/37/37
f 39/39/39 41/41/41 40/40/40
f 39/39/39 42/42/42 41/41/41
