#Building_small_t1.138_36508_582.obj

v -0.9569873 2.254456 -0.001042666
v -0.9569873 2.254456 -1.481905
v -0.9569903 1.088196 -1.481905
v -0.9569903 1.088196 -0.001042511
v -6.870859 5.079422 -0.001043042
v -6.870859 5.079422 -1.481906
v -6.870856 6.245682 -1.481906
v -6.870856 6.245682 -0.001043198
v -6.870866 2.574662 -0.001042709
v -6.870866 2.574661 -1.481905
v -6.870863 3.740921 -1.481905
v -6.870863 3.740921 -0.001042864
v -3.462833 7.44715 -0.001043358
v -3.462833 7.44715 -1.481906
v -2.879703 7.447149 -1.481906
v -2.879703 7.447149 -0.001043358
v -4.045963 7.447152 -0.001043358
v -4.045963 7.447152 -1.481906
v -4.629093 7.447154 -0.001043358
v -4.629093 7.447153 -1.481906
v -4.045963 7.447152 -1.481906
v -4.045963 7.447152 -0.001043358
v 0.7752352 -4.040654 -0.001042782
v 0.7752352 -4.040654 -1.481904
v 0.7752321 -5.206913 -1.481904
v 0.7752321 -5.206913 -0.001042626
v 0.7752287 -6.504704 -0.001042454
v 0.7752287 -6.504704 -1.481904
v 0.7752258 -7.670964 -1.481904
v 0.7752258 -7.670964 -0.001042298
v -0.5312352 -8.962831 -0.001042126
v -0.5312352 -8.962831 -1.481904
v -1.697495 -8.962828 -1.481904
v -1.697495 -8.962828 -0.001042126
v -3.656479 -8.962822 -0.001042126
v -3.656479 -8.962822 -1.481904
v -4.822739 -8.962819 -1.481904
v -4.822739 -8.962819 -0.001042126
v -6.100565 -6.718126 -0.001042425
v -6.100565 -6.718126 -1.481904
v -6.100562 -5.551867 -1.481904
v -6.100562 -5.551866 -0.00104258

vn 1 0 -2.563E-06
vn 1 0 -2.563E-06
vn 1 0 -2.563E-06
vn 1 0 -2.563E-06
vn -1 0 2.563E-06
vn -1 0 2.563E-06
vn -1 0 2.563E-06
vn -1 0 2.563E-06
vn -1 0 2.563E-06
vn -1 0 2.563E-06
vn -1 0 2.563E-06
vn -1 0 2.563E-06
vn -2.563E-06 5.960464E-08 -1
vn -2.563E-06 5.960464E-08 -1
vn -2.563E-06 5.960464E-08 -1
vn -2.563E-06 5.960464E-08 -1
vn -2.563E-06 5.960464E-08 -1
vn -2.563E-06 5.960464E-08 -1
vn -2.563E-06 5.960464E-08 -1
vn -2.563E-06 5.960464E-08 -1
vn -2.563E-06 5.960464E-08 -1
vn -2.563E-06 5.960464E-08 -1
vn 1 0 -2.563E-06
vn 1 0 -2.563E-06
vn 1 0 -2.563E-06
vn 1 0 -2.563E-06
vn 1 0 -2.563E-06
vn 1 0 -2.563E-06
vn 1 0 -2.563E-06
vn 1 0 -2.563E-06
vn 2.563E-06 -5.960464E-08 1
vn 2.563E-06 -5.960464E-08 1
vn 2.563E-06 -5.960464E-08 1
vn 2.563E-06 -5.960464E-08 1
vn 2.563E-06 -5.960464E-08 1
vn 2.563E-06 -5.960464E-08 1
vn 2.563E-06 -5.960464E-08 1
vn 2.563E-06 -5.960464E-08 1
vn -1 0 2.563E-06
vn -1 0 2.563E-06
vn -1 0 2.563E-06
vn -1 0 2.563E-06

vt 0 1
vt 3.576279E-07 1.192093E-07
vt 1 0
vt 0.9995117 0.9995117
vt 0 1
vt 3.576279E-07 1.192093E-07
vt 1 0
vt 0.9995117 0.9995117
vt 0 1
vt 3.576279E-07 1.192093E-07
vt 1 0
vt 0.9995117 0.9995117
vt 0.4997559 1
vt 0.5 5.960464E-08
vt 1 0
vt 0.9995117 0.9995117
vt 0 1
vt 3.576279E-07 1.192093E-07
vt 0 1
vt 3.576279E-07 1.192093E-07
vt 0.5 5.960464E-08
vt 0.4997559 1
vt 0 1
vt 3.576279E-07 1.192093E-07
vt 1 0
vt 0.9995117 0.9995117
vt 0 1
vt 3.576279E-07 1.192093E-07
vt 1 0
vt 0.9995117 0.9995117
vt 0 1
vt 3.576279E-07 1.192093E-07
vt 1 0
vt 0.9995117 0.9995117
vt 0 1
vt 3.576279E-07 1.192093E-07
vt 1 0
vt 0.9995117 0.9995117
vt 0 1
vt 3.576279E-07 1.192093E-07
vt 1 0
vt 0.9995117 0.9995117

g Building_small_t1.138_36508_582
usemtl Building_small_t1.138_36508_582
usemap Building_small_t1.138_36508_582
f 1/1/1 3/3/3 2/2/2
f 1/1/1 4/4/4 3/3/3
f 5/5/5 7/7/7 6/6/6
f 5/5/5 8/8/8 7/7/7
f 9/9/9 11/11/11 10/10/10
f 9/9/9 12/12/12 11/11/11
f 13/13/13 15/15/15 14/14/14
f 13/13/13 16/16/16 15/15/15
f 17/17/17 13/13/13 14/14/14
f 17/17/17 14/14/14 18/18/18
f 19/19/19 21/21/21 20/20/20
f 19/19/19 22/22/22 21/21/21
f 23/23/23 25/25/25 24/24/24
f 23/23/23 26/26/26 25/25/25
f 27/27/27 29/29/29 28/28/28
f 27/27/27 30/30/30 29/29/29
f 31/31/31 33/33/33 32/32/32
f 31/31/31 34/34/34 33/33/33
f 35/35/35 37/37/37 36/36/36
f 35/35/35 38/38/38 37/37/37
f 39/39/39 41/41/41 40/40/40
f 39/39/39 42/42/42 41/41/41
