#Building_t4.003_(1)_37698_634.obj

v -0.2362882 0.8817369 -0.08602656
v -0.2362882 0.8817371 0.8516173
v -1.472573 0.8817342 0.8516173
v -1.472573 0.8817341 -0.08602656
v -0.2362812 -0.8072512 -0.08602642
v -1.472576 -0.8072541 -0.08602642
v -1.472576 -0.807254 0.8516175
v -0.2362812 -0.8072511 0.8516175
v -0.1473431 -0.9183108 1
v -0.1473431 -0.9183106 1.528208
v 0.9110655 -0.9183123 1.528208
v 0.9110655 -0.9183124 1
v 0.9110655 -0.9183124 1
v 0.9110655 -0.9183123 1.528208
v 0.9110589 0.9927949 1.528208
v 0.9110589 0.9927948 0.9999999
v -0.1473498 0.9927965 0.9999999
v -0.1473498 0.9927966 1.528208
v -0.1473431 -0.9183106 1.528208
v -0.1473431 -0.9183108 1
v 0.9110589 0.9927948 0.9999999
v 0.9110589 0.9927949 1.528208
v -0.1473498 0.9927966 1.528208
v -0.1473498 0.9927965 0.9999999

vn -1.549721E-06 5.960464E-08 -1
vn -1.549721E-06 5.960464E-08 -1
vn -1.549721E-06 5.960464E-08 -1
vn -1.549721E-06 5.960464E-08 -1
vn 1.549721E-06 -5.960464E-08 1
vn 1.549721E-06 -5.960464E-08 1
vn 1.549721E-06 -5.960464E-08 1
vn 1.549721E-06 -5.960464E-08 1
vn 1.549721E-06 -5.960464E-08 1
vn 1.549721E-06 -5.960464E-08 1
vn 1.549721E-06 -5.960464E-08 1
vn 1.549721E-06 -5.960464E-08 1
vn 1 0 -1.549721E-06
vn 1 0 -1.549721E-06
vn 1 0 -1.549721E-06
vn 1 0 -1.549721E-06
vn -1 0 1.549721E-06
vn -1 0 1.549721E-06
vn -1 0 1.549721E-06
vn -1 0 1.549721E-06
vn -1.549721E-06 5.960464E-08 -1
vn -1.549721E-06 5.960464E-08 -1
vn -1.549721E-06 5.960464E-08 -1
vn -1.549721E-06 5.960464E-08 -1

vt 0 1
vt 1 1
vt 0.9995117 0
vt 0 0
vt 0 1.192093E-07
vt 1.788139E-07 1
vt 1 0.9995117
vt 0.9995117 0
vt 2.980232E-07 1.407227
vt 1 1.407227
vt 0.9995117 -0.407959
vt 0 -0.407959
vt 1.132488E-06 -0.407959
vt 1 -0.407959
vt 0.9995117 1.407227
vt 0 1.407227
vt 4.768372E-07 -0.407959
vt 1 -0.407959
vt 0.9995117 1.407227
vt 0 1.407227
vt 4.172325E-07 1.407227
vt 1 1.407227
vt 0.9995117 -0.407959
vt 0 -0.407959

g Building_t4.003_(1)_37698_634
usemtl Building_t4.003_(1)_37698_634
usemap Building_t4.003_(1)_37698_634
f 1/1/1 3/3/3 2/2/2
f 1/1/1 4/4/4 3/3/3
f 5/5/5 7/7/7 6/6/6
f 5/5/5 8/8/8 7/7/7
f 9/9/9 11/11/11 10/10/10
f 9/9/9 12/12/12 11/11/11
f 13/13/13 15/15/15 14/14/14
f 13/13/13 16/16/16 15/15/15
f 17/17/17 19/19/19 18/18/18
f 17/17/17 20/20/20 19/19/19
f 21/21/21 23/23/23 22/22/22
f 21/21/21 24/24/24 23/23/23
