#Building_t8.009_33381_268.obj

v -0.7774632 7.695311 1.248554
v -0.7774637 8.111692 1.248554
v -0.8617222 7.715696 1.834568
v -0.8617228 8.132017 1.834568
v -5.160947 7.695305 -0.2049613
v -5.245206 7.715691 0.3810527
v -5.160948 8.111687 -0.2049618
v -5.245207 8.132011 0.3810523
v -0.8617222 7.715696 1.834568
v -0.8617228 8.132017 1.834568
v -5.245206 7.715691 0.3810527
v -5.245207 8.132011 0.3810523
v -5.160948 8.111687 -0.2049618
v -5.245207 8.132011 0.3810523
v -0.7774637 8.111692 1.248554
v -0.8617228 8.132017 1.834568
v -0.7774632 7.695311 1.248554
v -0.8617222 7.715696 1.834568
v -5.160947 7.695305 -0.2049613
v -5.245206 7.715691 0.3810527
v -0.7036382 5.48535 1.487053
v -0.7036382 5.48535 0.6171552
v -5.160944 5.485344 0.1085568
v -5.160944 5.485344 -0.1349711
v -5.160951 10.55303 0.1085572
v -5.160951 10.55303 -0.1349707
v -1.119996 10.55304 1.487053
v -1.119996 10.55304 0.6171557
v 11.84685 -6.320969 1.759548
v 11.92736 -6.315475 1.487052
v 11.85058 -12.18828 1.759547
v 11.85058 -12.18828 1.402823
v 3.692504 -12.18829 1.759547
v 3.692504 -12.18829 1.402823
v 3.67977 -6.295162 1.759548
v 3.704276 -6.315486 1.487052
v 3.692504 -12.18829 1.759547
v 3.28366 -12.59716 1.759547
v 11.85058 -12.18828 1.759547
v 12.25946 -12.59715 1.759547
v 11.85058 -12.18828 1.759547
v 12.25946 -12.59715 1.759547
v 11.84685 -6.320969 1.759548
v 12.25945 -6.324752 1.759548
v 3.67977 -6.295162 1.759548
v 3.283652 -6.711483 1.759548
v 3.692504 -12.18829 1.759547
v 3.28366 -12.59716 1.759547
v 3.367919 -12.61749 1.487051
v 3.367919 -12.61749 -0.1493498
v 12.34372 -12.61748 1.487051
v 12.34372 -12.61748 -0.1493498
v 12.34372 10.96938 1.487053
v 12.34372 10.96938 -0.149348
v 3.367918 10.96936 1.487053
v 3.367918 10.96936 -0.149348
v 3.367911 -6.731869 -0.1493493
v 3.367919 -12.61749 -0.1493498
v 3.367911 -6.731869 1.487052
v 3.367919 -12.61749 1.487051
v 3.367911 -6.731869 1.487052
v 3.367919 -12.61749 1.487051
v 3.283652 -6.711483 1.759548
v 3.28366 -12.59716 1.759547
v 11.85058 -12.18828 1.759547
v 11.85058 -12.18828 1.402823
v 3.692504 -12.18829 1.759547
v 3.692504 -12.18829 1.402823
v 12.34371 -6.731857 1.487052
v 12.34372 -12.61748 1.487051
v 12.34371 -6.731857 -0.1493493
v 12.34372 -12.61748 -0.1493498
v 3.229125 10.55304 1.487053
v 3.144866 10.57337 1.759549
v -1.119996 10.55304 1.487053
v -1.204255 10.57336 1.759549
v 3.367911 -6.731869 1.487052
v 3.283652 -6.711483 1.759548
v -1.119973 -6.731875 1.487052
v -1.204232 -6.711489 1.759548
v 3.144866 10.57337 1.759549
v 3.283659 10.98969 1.759549
v -1.204255 10.57336 1.759549
v -1.204256 10.98968 1.759549
v 11.84308 10.57338 1.759549
v 12.25946 10.9897 1.759549
v 3.144866 10.57337 1.759549
v 3.283659 10.98969 1.759549
v 3.367918 10.96936 1.487053
v 3.283659 10.98969 1.759549
v 12.34372 10.96938 1.487053
v 12.25946 10.9897 1.759549
v 12.34372 10.96938 1.487053
v 12.25946 10.9897 1.759549
v 12.34369 5.068985 1.487053
v 12.25944 5.08931 1.759549
v 11.92736 -6.315475 1.487052
v 11.84685 -6.320969 1.759548
v 11.92734 5.068985 1.487053
v 11.84308 5.089309 1.759549
v 11.92734 5.068985 1.487053
v 11.84308 5.089309 1.759549
v 11.92734 10.55299 1.487053
v 11.84308 10.57338 1.759549
v -0.7036382 5.48535 1.487053
v -0.7878972 5.505674 1.759549
v -0.7036224 -6.315493 1.487052
v -0.7878814 -6.295168 1.759548
v -1.119973 -6.731875 1.487052
v -1.204232 -6.711489 1.759548
v -1.119989 5.068967 1.487053
v -1.204248 5.089292 1.759549
v -0.7036224 -6.315493 1.487052
v -0.7878814 -6.295168 1.759548
v 3.704276 -6.315486 1.487052
v 3.67977 -6.295162 1.759548
v -1.119989 5.068967 1.487053
v -1.204248 5.089292 1.759549
v -5.160944 5.068962 0.1085562
v -5.245203 5.089287 0.3810521
v -1.119997 10.96936 1.487053
v -1.204256 10.98968 1.759549
v 3.367918 10.96936 1.487053
v 3.283659 10.98969 1.759549
v -5.160951 10.55303 0.1085572
v -5.24521 10.57336 0.3810528
v -5.160952 10.96935 0.1085567
v -5.245211 10.98974 0.3810524
v -1.204255 10.57336 1.759549
v -1.204256 10.98968 1.759549
v -5.24521 10.57336 0.3810528
v -5.245211 10.98974 0.3810524
v -5.245203 5.505669 0.3810524
v -5.245203 5.089287 0.3810521
v -0.7878972 5.505674 1.759549
v -1.204248 5.089292 1.759549
v 11.84685 -6.320969 1.759548
v 12.25945 -6.324752 1.759548
v 11.84308 5.089309 1.759549
v 12.25944 5.08931 1.759549
v 11.84308 5.089309 1.759549
v 12.25944 5.08931 1.759549
v 11.84308 10.57338 1.759549
v 12.25946 10.9897 1.759549
v -0.7878972 5.505674 1.759549
v -1.204248 5.089292 1.759549
v -0.7878814 -6.295168 1.759548
v -1.204232 -6.711489 1.759548
v -0.7878814 -6.295168 1.759548
v -1.204232 -6.711489 1.759548
v 3.67977 -6.295162 1.759548
v 3.283652 -6.711483 1.759548
v -5.160951 10.55303 0.1085572
v -5.160952 10.96935 0.1085567
v -5.160952 10.96935 -0.149348
v -5.160944 5.485344 0.1085568
v -5.160944 5.068962 0.1085562
v -5.160944 5.068962 -0.1493484
v 12.25946 -12.59715 1.759547
v 12.34372 -12.61748 1.487051
v 12.34371 -6.731857 1.487052
v 12.25945 -6.324752 1.759548
v 12.34369 5.068985 1.487053
v 12.25944 5.08931 1.759549
v -5.160944 5.485344 0.1085568
v -5.245203 5.505669 0.3810524
v -0.7036382 5.48535 1.487053
v -0.7878972 5.505674 1.759549
v 11.92734 10.55299 1.487053
v 11.84308 10.57338 1.759549
v 3.229125 10.55304 1.487053
v 3.144866 10.57337 1.759549
v -5.160952 10.96935 0.1085567
v -5.245211 10.98974 0.3810524
v -1.119997 10.96936 1.487053
v -1.204256 10.98968 1.759549
v -5.160944 5.068962 0.1085562
v -5.245203 5.089287 0.3810521
v -5.160944 5.485344 0.1085568
v -5.245203 5.505669 0.3810524
v -1.119996 10.55304 1.487053
v -1.204255 10.57336 1.759549
v -5.160951 10.55303 0.1085572
v -5.24521 10.57336 0.3810528
v -1.119989 5.068967 1.487053
v -5.160944 5.068962 0.1085562
v -1.119989 5.068968 -0.1493484
v -5.160944 5.068962 -0.1493484
v 12.34369 5.068985 1.487053
v 12.34369 5.068985 -0.1493484
v 12.34372 10.96938 1.487053
v 12.34372 10.96938 -0.149348
v 12.34371 -6.731857 1.487052
v 12.34371 -6.731857 -0.1493493
v 12.34369 5.068985 1.487053
v 12.34369 5.068985 -0.1493484
v 3.367918 10.96936 1.487053
v 3.367918 10.96936 -0.149348
v -1.119997 10.96936 1.487053
v -1.119997 10.96936 -0.149348
v -5.160952 10.96935 -0.149348
v -5.160952 10.96935 0.1085567
v -1.119973 -6.731875 1.487052
v -1.119973 -6.731874 -0.1493493
v 3.367911 -6.731869 1.487052
v 3.367911 -6.731869 -0.1493493
v -1.119989 5.068967 1.487053
v -1.119989 5.068968 -0.1493484
v -1.119973 -6.731875 1.487052
v -1.119973 -6.731874 -0.1493493
v 12.34372 -12.61748 1.487051
v 12.25946 -12.59715 1.759547
v 3.367919 -12.61749 1.487051
v 3.28366 -12.59716 1.759547

vn -0.9897461 0.1422119 1.251698E-06
vn -0.9897461 0.1422119 1.251698E-06
vn -0.9897461 0.1422119 1.251698E-06
vn -0.9897461 0.1422119 1.251698E-06
vn 0.9897461 -0.1422119 -1.251698E-06
vn 0.9897461 -0.1422119 -1.251698E-06
vn 0.9897461 -0.1422119 -1.251698E-06
vn 0.9897461 -0.1422119 -1.251698E-06
vn 0.3146973 0.9487305 -4.768372E-07
vn 0.3146973 0.9487305 -4.768372E-07
vn 0.3146973 0.9487305 -4.768372E-07
vn 0.3146973 0.9487305 -4.768372E-07
vn -0.01097107 -0.03308105 -0.9990234
vn -0.01097107 -0.03308105 -0.9990234
vn -0.01097107 -0.03308105 -0.9990234
vn -0.01097107 -0.03308105 -0.9990234
vn 0.01097107 0.03308105 0.9990234
vn 0.01097107 0.03308105 0.9990234
vn 0.01097107 0.03308105 0.9990234
vn 0.01097107 0.03308105 0.9990234
vn -1.311302E-06 -5.960464E-08 -1
vn -1.311302E-06 -5.960464E-08 -1
vn -1.311302E-06 -5.960464E-08 -1
vn -1.311302E-06 -5.960464E-08 -1
vn 1.311302E-06 5.960464E-08 1
vn 1.311302E-06 5.960464E-08 1
vn 1.311302E-06 5.960464E-08 1
vn 1.311302E-06 5.960464E-08 1
vn 0.9916992 -0.1268311 -0.007076263
vn 0.9916992 -0.1268311 -0.007076263
vn 0.9916992 -0.1268311 -0.007076263
vn 0.9916992 -0.1268311 -0.007076263
vn -0.9990234 0.03890991 0.0001968145
vn -0.9990234 0.03890991 0.0001968145
vn -0.9990234 0.03890991 0.0001968145
vn -0.9990234 0.03890991 0.0001968145
vn 0 1 -1.192093E-07
vn 0 1 -1.192093E-07
vn 0 1 -1.192093E-07
vn 0 1 -1.192093E-07
vn 0 1 -1.192093E-07
vn 0 1 -1.192093E-07
vn 0 1 -1.192093E-07
vn 0 1 -1.192093E-07
vn 0 1 -1.192093E-07
vn 0 1 -1.192093E-07
vn 0 1 -1.192093E-07
vn 0 1 -1.192093E-07
vn 1.311302E-06 5.960464E-08 1
vn 1.311302E-06 5.960464E-08 1
vn 1.311302E-06 5.960464E-08 1
vn 1.311302E-06 5.960464E-08 1
vn -1.311302E-06 -5.960464E-08 -1
vn -1.311302E-06 -5.960464E-08 -1
vn -1.311302E-06 -5.960464E-08 -1
vn -1.311302E-06 -5.960464E-08 -1
vn 1 0 -1.311302E-06
vn 1 0 -1.311302E-06
vn 1 0 -1.311302E-06
vn 1 0 -1.311302E-06
vn 0.9550781 -0.2954102 -1.192093E-06
vn 0.9550781 -0.2954102 -1.192093E-06
vn 0.9550781 -0.2954102 -1.192093E-06
vn 0.9550781 -0.2954102 -1.192093E-06
vn -1.311302E-06 -5.960464E-08 -1
vn -1.311302E-06 -5.960464E-08 -1
vn -1.311302E-06 -5.960464E-08 -1
vn -1.311302E-06 -5.960464E-08 -1
vn -1 0 1.311302E-06
vn -1 0 1.311302E-06
vn -1 0 1.311302E-06
vn -1 0 1.311302E-06
vn 1.311302E-06 0.07440186 0.9970703
vn 1.311302E-06 0.07440186 0.9970703
vn 1.311302E-06 0.07440186 0.9970703
vn 1.311302E-06 0.07440186 0.9970703
vn 1.311302E-06 0.07440186 0.9970703
vn 1.311302E-06 0.07440186 0.9970703
vn 1.311302E-06 0.07440186 0.9970703
vn 1.311302E-06 0.07440186 0.9970703
vn 0 1 -1.192093E-07
vn 0 1 -1.192093E-07
vn 0 1 -1.192093E-07
vn 0 1 -1.192093E-07
vn 0 1 -1.192093E-07
vn 0 1 -1.192093E-07
vn 0 1 -1.192093E-07
vn 0 1 -1.192093E-07
vn -1.311302E-06 -0.07440186 -0.9970703
vn -1.311302E-06 -0.07440186 -0.9970703
vn -1.311302E-06 -0.07440186 -0.9970703
vn -1.311302E-06 -0.07440186 -0.9970703
vn -0.9550781 0.2954102 1.192093E-06
vn -0.9550781 0.2954102 1.192093E-06
vn -0.9550781 0.2954102 1.192093E-06
vn -0.9550781 0.2954102 1.192093E-06
vn 0.9570313 -0.2893066 0.0001562834
vn 0.9570313 -0.2893066 0.0001562834
vn 0.9570313 -0.2893066 0.0001562834
vn 0.9570313 -0.2893066 0.0001562834
vn 0.9550781 -0.2954102 -1.192093E-06
vn 0.9550781 -0.2954102 -1.192093E-06
vn 0.9550781 -0.2954102 -1.192093E-06
vn 0.9550781 -0.2954102 -1.192093E-06
vn -0.9550781 0.2954102 1.192093E-06
vn -0.9550781 0.2954102 1.192093E-06
vn -0.9550781 0.2954102 1.192093E-06
vn -0.9550781 0.2954102 1.192093E-06
vn 0.9550781 -0.2954102 -1.192093E-06
vn 0.9550781 -0.2954102 -1.192093E-06
vn 0.9550781 -0.2954102 -1.192093E-06
vn 0.9550781 -0.2954102 -1.192093E-06
vn -1.311302E-06 -0.07440186 -0.9970703
vn -1.311302E-06 -0.07440186 -0.9970703
vn -1.311302E-06 -0.07440186 -0.9970703
vn -1.311302E-06 -0.07440186 -0.9970703
vn 0.02296448 0.06732178 0.9970703
vn 0.02296448 0.06732178 0.9970703
vn 0.02296448 0.06732178 0.9970703
vn 0.02296448 0.06732178 0.9970703
vn -1.311302E-06 -0.07440186 -0.9970703
vn -1.311302E-06 -0.07440186 -0.9970703
vn -1.311302E-06 -0.07440186 -0.9970703
vn -1.311302E-06 -0.07440186 -0.9970703
vn 0.9550781 -0.2954102 -1.192093E-06
vn 0.9550781 -0.2954102 -1.192093E-06
vn 0.9550781 -0.2954102 -1.192093E-06
vn 0.9550781 -0.2954102 -1.192093E-06
vn 0.3227539 0.9462891 -5.364418E-07
vn 0.3227539 0.9462891 -5.364418E-07
vn 0.3227539 0.9462891 -5.364418E-07
vn 0.3227539 0.9462891 -5.364418E-07
vn 0.3049316 0.9399414 -0.1524658
vn 0.3049316 0.9399414 -0.1524658
vn 0.3049316 0.9399414 -0.1524658
vn 0.3049316 0.9399414 -0.1524658
vn 0 1 -1.192093E-07
vn 0 1 -1.192093E-07
vn 0 1 -1.192093E-07
vn 0 1 -1.192093E-07
vn 0 1 -1.192093E-07
vn 0 1 -1.192093E-07
vn 0 1 -1.192093E-07
vn 0 1 -1.192093E-07
vn 0 1 -1.192093E-07
vn 0 1 -1.192093E-07
vn 0 1 -1.192093E-07
vn 0 1 -1.192093E-07
vn 0 1 -1.192093E-07
vn 0 1 -1.192093E-07
vn 0 1 -1.192093E-07
vn 0 1 -1.192093E-07
vn 1 -1.198053E-05 -1.311302E-06
vn 1 -1.198053E-05 -1.311302E-06
vn 1 -1.198053E-05 -1.311302E-06
vn 1 -1.198053E-05 -1.311302E-06
vn 1 -1.198053E-05 -1.311302E-06
vn 1 -1.198053E-05 -1.311302E-06
vn -0.9550781 0.2954102 1.192093E-06
vn -0.9550781 0.2954102 1.192093E-06
vn -0.9550781 0.2954102 1.192093E-06
vn -0.9550781 0.2954102 1.192093E-06
vn -0.9550781 0.2954102 1.192093E-06
vn -0.9550781 0.2954102 1.192093E-06
vn -0.02099609 -0.06787109 -0.9970703
vn -0.02099609 -0.06787109 -0.9970703
vn -0.02099609 -0.06787109 -0.9970703
vn -0.02099609 -0.06787109 -0.9970703
vn 1.311302E-06 0.07440186 0.9970703
vn 1.311302E-06 0.07440186 0.9970703
vn 1.311302E-06 0.07440186 0.9970703
vn 1.311302E-06 0.07440186 0.9970703
vn -0.02296448 -0.06732178 -0.9970703
vn -0.02296448 -0.06732178 -0.9970703
vn -0.02296448 -0.06732178 -0.9970703
vn -0.02296448 -0.06732178 -0.9970703
vn 0.9550781 -0.2954102 -1.192093E-06
vn 0.9550781 -0.2954102 -1.192093E-06
vn 0.9550781 -0.2954102 -1.192093E-06
vn 0.9550781 -0.2954102 -1.192093E-06
vn 0.02296448 0.06732178 0.9970703
vn 0.02296448 0.06732178 0.9970703
vn 0.02296448 0.06732178 0.9970703
vn 0.02296448 0.06732178 0.9970703
vn 1.311302E-06 5.960464E-08 1
vn 1.311302E-06 5.960464E-08 1
vn 1.311302E-06 5.960464E-08 1
vn 1.311302E-06 5.960464E-08 1
vn -1 0 1.311302E-06
vn -1 0 1.311302E-06
vn -1 0 1.311302E-06
vn -1 0 1.311302E-06
vn -1 0 1.311302E-06
vn -1 0 1.311302E-06
vn -1 0 1.311302E-06
vn -1 0 1.311302E-06
vn -1.311302E-06 -5.960464E-08 -1
vn -1.311302E-06 -5.960464E-08 -1
vn -1.311302E-06 -5.960464E-08 -1
vn -1.311302E-06 -5.960464E-08 -1
vn -1.311302E-06 -5.960464E-08 -1
vn -1.311302E-06 -5.960464E-08 -1
vn 1.311302E-06 5.960464E-08 1
vn 1.311302E-06 5.960464E-08 1
vn 1.311302E-06 5.960464E-08 1
vn 1.311302E-06 5.960464E-08 1
vn 1 0 -1.311302E-06
vn 1 0 -1.311302E-06
vn 1 0 -1.311302E-06
vn 1 0 -1.311302E-06
vn 1.311302E-06 0.07440186 0.9970703
vn 1.311302E-06 0.07440186 0.9970703
vn 1.311302E-06 0.07440186 0.9970703
vn 1.311302E-06 0.07440186 0.9970703

vt 1.665039 0.8305664
vt 0.6650391 0.3308105
vt 1.643555 0.8989258
vt 0.6435547 0.3989258
vt 0.2648926 0.486084
vt 0.2700195 0.5541992
vt 0.3691406 0.486084
vt 0.3742676 0.5541992
vt 1.643555 0.3210449
vt 1.643555 0.4250488
vt 0.6333008 0.3210449
vt 0.6333008 0.4250488
vt -0.3449707 -0.01377106
vt -0.3662109 0.05435181
vt 0.6650391 0.3308105
vt 0.6435547 0.3989258
vt 1.665039 0.8305664
vt 1.643555 0.8989258
vt 0.6547852 0.486084
vt 0.6333008 0.5541992
vt 1.768555 0.8305664
vt 1.768555 0.6132813
vt 0.6547852 0.486084
vt 0.6547852 0.425293
vt -0.3449707 -0.01377106
vt -0.3449707 -0.074646
vt 0.6650391 0.3308105
vt 0.6650391 0.1133423
vt 2.044922 0.3989258
vt 2.046875 0.3308105
vt 0.5795898 0.3989258
vt 0.5795898 0.3095703
vt -0.9199219 0.3989258
vt -0.9199219 0.3095703
vt 0.5527344 0.3989258
vt 0.5478516 0.3308105
vt -1.630859 0.6303711
vt -1.733398 0.5283203
vt 0.4077148 0.6303711
vt 0.5097656 0.5283203
vt 0.4077148 -0.8691406
vt 0.5097656 -0.9711914
vt 0.4067383 0.597168
vt 0.5097656 0.5961914
vt 0.3649902 2.103516
vt 0.2658691 1.999023
vt 0.3681641 0.6303711
vt 0.2658691 0.5283203
vt -1.712891 0.3308105
vt -1.712891 -0.07824707
vt 0.5307617 0.3308105
vt 0.5307617 -0.07824707
vt 2.529297 0.3308105
vt 2.529297 -0.07824707
vt 0.2868652 0.3308105
vt 0.2868652 -0.07824707
vt 0.4438477 -0.07824707
vt -1.027344 -0.07824707
vt 0.4438477 0.3308105
vt -1.027344 0.3308105
vt 0.4438477 0.3308105
vt -1.027344 0.3308105
vt 0.4487305 0.3989258
vt -1.021484 0.3989258
vt 2.40625 0.3989258
vt 2.40625 0.3095703
vt 0.3681641 0.3989258
vt 0.3681641 0.3095703
vt 0.4438477 0.8305664
vt -1.027344 0.8305664
vt 0.4438477 0.4216309
vt -1.027344 0.4216309
vt 1.751953 0.3308105
vt 1.730469 0.3989258
vt 0.6650391 0.3308105
vt 0.6435547 0.3989258
vt 1.786133 0.3308105
vt 1.765625 0.3989258
vt 0.6650391 0.3308105
vt 0.6435547 0.3989258
vt 1.730469 0.3210449
vt 1.765625 0.4250488
vt 0.6435547 0.3210449
vt 0.6435547 0.4250488
vt 2.904297 0.3210449
vt 3.009766 0.4250488
vt 0.730957 0.3210449
vt 0.765625 0.4250488
vt -1.712891 0.3308105
vt -1.733398 0.3989258
vt 0.5307617 0.3308105
vt 0.5097656 0.3989258
vt 1.869141 0.3308105
vt 1.874023 0.3989258
vt 0.394043 0.3308105
vt 0.3989258 0.3989258
vt -2.451172 0.3308105
vt -2.453125 0.3989258
vt 0.394043 0.3308105
vt 0.3989258 0.3989258
vt -1.105469 0.3308105
vt -1.100586 0.3989258
vt 0.2648926 0.3308105
vt 0.2700195 0.3989258
vt 3.498047 0.3308105
vt 3.501953 0.3989258
vt 0.5478516 0.3308105
vt 0.5527344 0.3989258
vt -2.554688 0.3308105
vt -2.550781 0.3989258
vt 0.394043 0.3308105
vt 0.3989258 0.3989258
vt -0.7304688 0.3308105
vt -0.7514648 0.3989258
vt 0.3710938 0.3308105
vt 0.3649902 0.3989258
vt 1.665039 0.8305664
vt 1.643555 0.8989258
vt 0.6547852 0.486084
vt 0.6333008 0.5541992
vt -0.8344727 0.3308105
vt -0.855957 0.3989258
vt 0.2868652 0.3308105
vt 0.2658691 0.3989258
vt 0.2648926 0.486084
vt 0.2700195 0.5541992
vt 0.3691406 0.486084
vt 0.3742676 0.5541992
vt 1.643555 0.3210449
vt 1.643555 0.4250488
vt 0.6333008 0.3210449
vt 0.6333008 0.4250488
vt -0.8662109 0.5537109
vt -0.8662109 0.4499512
vt 0.2480469 0.5537109
vt 0.1439209 0.4499512
vt 0.4067383 -2.402344
vt 0.5097656 -2.402344
vt 0.4057617 0.4499512
vt 0.5097656 0.4499512
vt 0.4057617 -1.049805
vt 0.5097656 -1.049805
vt 0.4057617 0.3210449
vt 0.5097656 0.4250488
vt 0.2480469 3.552734
vt 0.1439209 3.449219
vt 0.2480469 0.6035156
vt 0.1439209 0.4997559
vt -0.7514648 0.6035156
vt -0.855957 0.4997559
vt 0.3649902 0.6035156
vt 0.2658691 0.4997559
vt 0.2648926 0.486084
vt 0.3691406 0.486084
vt 0.3691406 0.4216309
vt -1.000977 0.486084
vt -1.105469 0.486084
vt -1.105469 0.4216309
vt -1.021484 0.3989258
vt -1.027344 0.3308105
vt 0.4438477 0.3308105
vt 0.5454102 0.3989258
vt 3.392578 0.3308105
vt 3.398438 0.3989258
vt -0.8447266 -0.01377106
vt -0.8662109 0.05435181
vt 0.269043 0.3308105
vt 0.2480469 0.3989258
vt 2.425781 0.3308105
vt 2.404297 0.3989258
vt 0.2521973 0.3308105
vt 0.2312012 0.3989258
vt -0.3449707 -0.01377106
vt -0.3662109 0.05435181
vt 0.6650391 0.3308105
vt 0.6435547 0.3989258
vt 0.394043 0.486084
vt 0.3989258 0.5541992
vt 0.4980469 0.486084
vt 0.5029297 0.5541992
vt 1.665039 0.8305664
vt 1.643555 0.8989258
vt 0.6547852 0.486084
vt 0.6333008 0.5541992
vt 0.6650391 0.8305664
vt -0.3449707 0.486084
vt 0.6650391 0.4216309
vt -0.3449707 0.4216309
vt -1.105469 0.3308105
vt -1.105469 -0.07824707
vt 0.3691406 0.3308105
vt 0.3691406 -0.07824707
vt -2.554688 0.3308105
vt -2.554688 -0.07824707
vt 0.394043 0.3308105
vt 0.394043 -0.07824707
vt 1.786133 0.3308105
vt 1.786133 -0.07824707
vt 0.6650391 0.3308105
vt 0.6650391 -0.07824707
vt -0.3449707 -0.07824707
vt -0.3449707 -0.01377106
vt -0.8344727 0.3308105
vt -0.8344727 -0.07824707
vt 0.2868652 0.3308105
vt 0.2868652 -0.07824707
vt 3.392578 0.3308105
vt 3.392578 -0.07824707
vt 0.4438477 0.3308105
vt 0.4438477 -0.07824707
vt 2.529297 0.3308105
vt 2.509766 0.3989258
vt 0.2868652 0.3308105
vt 0.2658691 0.3989258

g Building_t8.009_33381_268
usemtl Building_t8.009_33381_268
usemap Building_t8.009_33381_268
f 1/1/1 3/3/3 2/2/2
f 2/2/2 3/3/3 4/4/4
f 5/5/5 7/7/7 6/6/6
f 6/6/6 7/7/7 8/8/8
f 9/9/9 11/11/11 10/10/10
f 10/10/10 11/11/11 12/12/12
f 13/13/13 15/15/15 14/14/14
f 14/14/14 15/15/15 16/16/16
f 17/17/17 19/19/19 18/18/18
f 18/18/18 19/19/19 20/20/20
f 21/21/21 23/23/23 22/22/22
f 22/22/22 23/23/23 24/24/24
f 25/25/25 27/27/27 26/26/26
f 26/26/26 27/27/27 28/28/28
f 29/29/29 31/31/31 30/30/30
f 30/30/30 31/31/31 32/32/32
f 33/33/33 35/35/35 34/34/34
f 34/34/34 35/35/35 36/36/36
f 37/37/37 39/39/39 38/38/38
f 38/38/38 39/39/39 40/40/40
f 41/41/41 43/43/43 42/42/42
f 42/42/42 43/43/43 44/44/44
f 45/45/45 47/47/47 46/46/46
f 46/46/46 47/47/47 48/48/48
f 49/49/49 51/51/51 50/50/50
f 50/50/50 51/51/51 52/52/52
f 53/53/53 55/55/55 54/54/54
f 54/54/54 55/55/55 56/56/56
f 57/57/57 59/59/59 58/58/58
f 58/58/58 59/59/59 60/60/60
f 61/61/61 63/63/63 62/62/62
f 62/62/62 63/63/63 64/64/64
f 65/65/65 67/67/67 66/66/66
f 66/66/66 67/67/67 68/68/68
f 69/69/69 71/71/71 70/70/70
f 70/70/70 71/71/71 72/72/72
f 73/73/73 75/75/75 74/74/74
f 74/74/74 75/75/75 76/76/76
f 77/77/77 79/79/79 78/78/78
f 78/78/78 79/79/79 80/80/80
f 81/81/81 83/83/83 82/82/82
f 82/82/82 83/83/83 84/84/84
f 85/85/85 87/87/87 86/86/86
f 86/86/86 87/87/87 88/88/88
f 89/89/89 91/91/91 90/90/90
f 90/90/90 91/91/91 92/92/92
f 93/93/93 95/95/95 94/94/94
f 94/94/94 95/95/95 96/96/96
f 97/97/97 99/99/99 98/98/98
f 98/98/98 99/99/99 100/100/100
f 101/101/101 103/103/103 102/102/102
f 102/102/102 103/103/103 104/104/104
f 105/105/105 107/107/107 106/106/106
f 106/106/106 107/107/107 108/108/108
f 109/109/109 111/111/111 110/110/110
f 110/110/110 111/111/111 112/112/112
f 113/113/113 115/115/115 114/114/114
f 114/114/114 115/115/115 116/116/116
f 117/117/117 119/119/119 118/118/118
f 118/118/118 119/119/119 120/120/120
f 121/121/121 123/123/123 122/122/122
f 122/122/122 123/123/123 124/124/124
f 125/125/125 127/127/127 126/126/126
f 126/126/126 127/127/127 128/128/128
f 129/129/129 131/131/131 130/130/130
f 130/130/130 131/131/131 132/132/132
f 133/133/133 135/135/135 134/134/134
f 134/134/134 135/135/135 136/136/136
f 137/137/137 139/139/139 138/138/138
f 138/138/138 139/139/139 140/140/140
f 141/141/141 143/143/143 142/142/142
f 142/142/142 143/143/143 144/144/144
f 145/145/145 147/147/147 146/146/146
f 146/146/146 147/147/147 148/148/148
f 149/149/149 151/151/151 150/150/150
f 150/150/150 151/151/151 152/152/152
f 153/153/153 155/155/155 154/154/154
f 156/156/156 155/155/155 153/153/153
f 157/157/157 155/155/155 156/156/156
f 155/155/155 157/157/157 158/158/158
f 159/159/159 161/161/161 160/160/160
f 162/162/162 161/161/161 159/159/159
f 163/163/163 161/161/161 164/164/164
f 164/164/164 161/161/161 162/162/162
f 165/165/165 167/167/167 166/166/166
f 166/166/166 167/167/167 168/168/168
f 169/169/169 171/171/171 170/170/170
f 170/170/170 171/171/171 172/172/172
f 173/173/173 175/175/175 174/174/174
f 174/174/174 175/175/175 176/176/176
f 177/177/177 179/179/179 178/178/178
f 178/178/178 179/179/179 180/180/180
f 181/181/181 183/183/183 182/182/182
f 182/182/182 183/183/183 184/184/184
f 185/185/185 187/187/187 186/186/186
f 186/186/186 187/187/187 188/188/188
f 189/189/189 191/191/191 190/190/190
f 190/190/190 191/191/191 192/192/192
f 193/193/193 195/195/195 194/194/194
f 194/194/194 195/195/195 196/196/196
f 197/197/197 199/199/199 198/198/198
f 198/198/198 199/199/199 200/200/200
f 200/200/200 199/199/199 201/201/201
f 201/201/201 199/199/199 202/202/202
f 203/203/203 205/205/205 204/204/204
f 204/204/204 205/205/205 206/206/206
f 207/207/207 209/209/209 208/208/208
f 208/208/208 209/209/209 210/210/210
f 211/211/211 213/213/213 212/212/212
f 212/212/212 213/213/213 214/214/214
