#Building_t8.032_38057_155.obj

v 6.641445 5.427009 9.825364
v 6.641437 0.8173174 9.825365
v 6.113421 0.8173184 9.825365
v 6.100735 5.539399 9.825364
v 9.309175 7.806719 7.728846
v 6.641445 5.427009 9.825364
v 6.100735 5.539399 9.825364
v 3.508986 -1.621135 7.728846
v 3.369661 8.036585 7.728846
v 6.100735 5.539399 9.825364
v 6.113421 0.8173184 9.825365
v 9.309175 7.806719 7.728846
v 9.309217 -1.621134 7.728846
v 6.641437 0.8173174 9.825365
v 6.641445 5.427009 9.825364
v 3.508986 -1.621135 7.728846
v 6.113421 0.8173184 9.825365
v 6.641437 0.8173174 9.825365
v 9.309217 -1.621134 7.728846
v 9.309175 7.806719 7.728846
v 6.100735 5.539399 9.825364
v 3.369661 8.036585 7.728846

vn 0 1 1.192093E-07
vn 0 1 1.192093E-07
vn 0 1 1.192093E-07
vn 0 1 1.192093E-07
vn 0.1199341 0.8076172 -0.5771484
vn 0.1199341 0.8076172 -0.5771484
vn 0.1199341 0.8076172 -0.5771484
vn -0.6137695 0.7890625 0.008857727
vn -0.6137695 0.7890625 0.008857727
vn -0.6137695 0.7890625 0.008857727
vn -0.6259766 0.7792969 0.001683235
vn 0.6176758 0.7861328 -1.013279E-06
vn 0.6176758 0.7861328 -1.013279E-06
vn 0.6176758 0.7861328 -1.013279E-06
vn 0.6176758 0.7861328 -1.013279E-06
vn 1.192093E-06 0.7578125 0.6518555
vn 1.192093E-06 0.7578125 0.6518555
vn 1.192093E-06 0.7578125 0.6518555
vn 1.192093E-06 0.7578125 0.6518555
vn 0.02549744 0.7514648 -0.6586914
vn 0.02549744 0.7514648 -0.6586914
vn 0.02549744 0.7514648 -0.6586914

vt 0.7368164 0.4934082
vt 0.7368164 -1.810547
vt 0.4731445 -1.810547
vt 0.4667969 0.5498047
vt 0.07116699 0.6831055
vt -1.262695 -0.5063477
vt -1.532227 -0.4499512
vt 0.1710205 0.9692383
vt 0.1013794 5.796875
vt 1.466797 4.546875
vt 1.472656 2.1875
vt 0.07116699 0.6831055
vt 0.07116699 -4.027344
vt -1.262695 -2.810547
vt -1.262695 -0.5063477
vt 0.1710205 0.9692383
vt 1.472656 2.1875
vt 1.736328 2.1875
vt 3.070313 0.9692383
vt 0.07116699 0.6831055
vt -1.532227 -0.4499512
vt -2.898438 0.7983398

g Building_t8.032_38057_155
usemtl Building_t8.032_38057_155
usemap Building_t8.032_38057_155
f 1/1/1 3/3/3 2/2/2
f 1/1/1 4/4/4 3/3/3
f 5/5/5 7/7/7 6/6/6
f 8/8/8 10/10/10 9/9/9
f 8/8/8 11/11/11 10/10/10
f 12/12/12 14/14/14 13/13/13
f 12/12/12 15/15/15 14/14/14
f 16/16/16 18/18/18 17/17/17
f 16/16/16 19/19/19 18/18/18
f 20/20/20 22/22/22 21/21/21
