#Building_t7.007_35775_454.obj

v -3.080462 -9.747229 2.267527
v 0.8693675 -9.747231 6.181145
v 5.042799 -9.747229 2.267527
v 5.184081 -0.9623088 2.267526
v 0.8659355 -0.9623116 6.430092
v 0.8614025 6.519832 6.430092
v 4.154341 6.52103 2.267526
v -2.888323 6.519945 2.267526
v 0.8614025 6.519832 6.430092
v 0.8659355 -0.9623116 6.430092
v -3.214326 -0.9623082 2.267526
v 0.8659194 -9.567979 6.430094
v -3.332659 -9.567986 2.267527
v 5.302382 -9.567984 2.267527
v 0.8659194 -9.567979 6.430094
v 0.8659355 -0.9623116 6.430092
v 5.184081 -0.9623088 2.267526
v 5.184081 -0.9623091 -0.06557214
v 4.126204 6.725636 -0.0655728
v -2.87935 6.725633 -0.0655728
v -3.214326 -0.9623085 -0.06557214
v 3.864638 6.725628 2.267526
v 0.8505691 6.725635 6.110285
v -2.602678 6.725633 2.267526

vn 1.847744E-06 -5.960464E-08 1
vn 1.847744E-06 -5.960464E-08 1
vn 1.847744E-06 -5.960464E-08 1
vn 0.7368164 0.6738281 -0.05093384
vn 0.7368164 0.6738281 -0.05093384
vn 0.7368164 0.6738281 -0.05093384
vn 0.7368164 0.6738281 -0.05093384
vn -0.7280273 0.6845703 -0.01564026
vn -0.7280273 0.6845703 -0.01564026
vn -0.7280273 0.6845703 -0.01564026
vn -0.7280273 0.6845703 -0.01564026
vn -0.7089844 0.7050781 -0.004871368
vn -0.7089844 0.7050781 -0.004871368
vn 0.6889648 0.7246094 -0.004737854
vn 0.6889648 0.7246094 -0.004737854
vn 0.6889648 0.7246094 -0.004737854
vn 0.6889648 0.7246094 -0.004737854
vn 0 -1 -1.192093E-07
vn 0 -1 -1.192093E-07
vn 0 -1 -1.192093E-07
vn 0 -1 -1.192093E-07
vn -1.847744E-06 5.960464E-08 -1
vn -1.847744E-06 5.960464E-08 -1
vn -1.847744E-06 5.960464E-08 -1

vt 6.937981E-05 6.937981E-05
vt 0.486084 0.4816895
vt 0.9995117 6.937981E-05
vt 0.5981445 -0.06835938
vt 0.5976563 0.984375
vt 1.899414 0.9892578
vt 1.90332 -0.06774902
vt -0.8994141 -0.06933594
vt -0.9023438 0.987793
vt 0.4023438 0.9882813
vt 0.402832 -0.0645752
vt 1.90332 0.9892578
vt 1.900391 -0.06933594
vt -0.9033203 -0.06933594
vt -0.8999023 0.9892578
vt 0.5976563 0.984375
vt 0.5981445 -0.06835938
vt 0 0
vt 0 0
vt 0 0
vt 0 0
vt 0.9995117 0.59375
vt 0.5336914 7.706881E-05
vt 7.706881E-05 0.59375

g Building_t7.007_35775_454
usemtl Building_t7.007_35775_454
usemap Building_t7.007_35775_454
f 1/1/1 3/3/3 2/2/2
f 4/4/4 6/6/6 5/5/5
f 4/4/4 7/7/7 6/6/6
f 8/8/8 10/10/10 9/9/9
f 8/8/8 11/11/11 10/10/10
f 11/11/11 12/12/12 10/10/10
f 11/11/11 13/13/13 12/12/12
f 14/14/14 16/16/16 15/15/15
f 14/14/14 17/17/17 16/16/16
f 18/18/18 20/20/20 19/19/19
f 18/18/18 21/21/21 20/20/20
f 22/22/22 24/24/24 23/23/23
