#Building_t8.017_35922_21.obj

v -3.909856 -0.6200153 2.351935
v -3.909856 -0.6200153 -0.1493491
v -3.909853 1.06187 -0.1493491
v -3.909853 1.06187 2.351935
v 1.096171 7.857424 3.972177
v 1.096171 7.857424 1.470893
v 1.096174 9.539309 1.470893
v 1.096174 9.539309 3.972177
v 1.096198 5.81653 3.972177
v 1.096198 5.81653 1.470893
v 1.09617 7.498415 1.470893
v 1.09617 7.498415 3.972177

vn -1.728535E-06 -5.960464E-08 -1
vn -1.728535E-06 -5.960464E-08 -1
vn -1.728535E-06 -5.960464E-08 -1
vn -1.728535E-06 -5.960464E-08 -1
vn -1.728535E-06 -5.960464E-08 -1
vn -1.728535E-06 -5.960464E-08 -1
vn -1.728535E-06 -5.960464E-08 -1
vn -1.728535E-06 -5.960464E-08 -1
vn -1.728535E-06 -5.960464E-08 -1
vn -1.728535E-06 -5.960464E-08 -1
vn -1.728535E-06 -5.960464E-08 -1
vn -1.728535E-06 -5.960464E-08 -1

vt 5.960464E-08 0.9995117
vt 0 0
vt 1 5.960464E-08
vt 1 1
vt 4.172325E-07 1
vt 0 1.788139E-07
vt 0.9995117 0
vt 1 0.9995117
vt 3.576279E-07 1
vt 2.384186E-07 0
vt 1 1.192093E-07
vt 1 1

g Building_t8.017_35922_21
usemtl Building_t8.017_35922_21
usemap Building_t8.017_35922_21
f 1/1/1 3/3/3 2/2/2
f 1/1/1 4/4/4 3/3/3
f 5/5/5 7/7/7 6/6/6
f 5/5/5 8/8/8 7/7/7
f 9/9/9 11/11/11 10/10/10
f 9/9/9 12/12/12 11/11/11
