#Building.054_38059_483.obj

v -0.9377999 0.7388465 -0.1922513
v -0.9377999 0.7388462 -2.462522
v -0.9378038 -0.7529141 -2.462522
v -0.9378038 -0.7529138 -0.1922511
v -0.9377999 0.7388465 -0.1922513
v -0.9378038 -0.7529138 -0.1922511
v -1.039305 -0.7529135 -0.1922511
v -1.039301 0.7388468 -0.1922513
v -0.9378038 -0.7529138 -0.1922511
v -0.9378038 -0.7529141 -2.462522
v -1.039305 -0.7529138 -2.462522
v -1.039305 -0.7529135 -0.1922511
v -0.9377999 0.7388462 -2.462522
v -0.9377999 0.7388465 -0.1922513
v -1.039301 0.7388468 -0.1922513
v -1.039301 0.7388465 -2.462522
v -0.9378038 -0.7529141 -2.462522
v -0.9377999 0.7388462 -2.462522
v -1.039301 0.7388465 -2.462522
v -1.039305 -0.7529138 -2.462522

vn 1 0 -2.563E-06
vn 1 0 -2.563E-06
vn 1 0 -2.563E-06
vn 1 0 -2.563E-06
vn 0 1 1.192093E-07
vn 0 1 1.192093E-07
vn 0 1 1.192093E-07
vn 0 1 1.192093E-07
vn 2.563E-06 -5.960464E-08 1
vn 2.563E-06 -5.960464E-08 1
vn 2.563E-06 -5.960464E-08 1
vn 2.563E-06 -5.960464E-08 1
vn -2.563E-06 5.960464E-08 -1
vn -2.563E-06 5.960464E-08 -1
vn -2.563E-06 5.960464E-08 -1
vn -2.563E-06 5.960464E-08 -1
vn 0 -1 -1.192093E-07
vn 0 -1 -1.192093E-07
vn 0 -1 -1.192093E-07
vn 0 -1 -1.192093E-07

vt 0 0
vt 0 1
vt 1 1
vt 1 0
vt 0 0
vt 1 0
vt 1 0
vt 0 0
vt 1 0
vt 1 1
vt 1 1
vt 1 0
vt 0 1
vt 0 0
vt 0 0
vt 0 1
vt 1 1
vt 0 1
vt 0 1
vt 1 1

g Building.054_38059_483
usemtl Building.054_38059_483
usemap Building.054_38059_483
f 1/1/1 3/3/3 2/2/2
f 1/1/1 4/4/4 3/3/3
f 5/5/5 7/7/7 6/6/6
f 5/5/5 8/8/8 7/7/7
f 9/9/9 11/11/11 10/10/10
f 9/9/9 12/12/12 11/11/11
f 13/13/13 15/15/15 14/14/14
f 13/13/13 16/16/16 15/15/15
f 17/17/17 19/19/19 18/18/18
f 17/17/17 20/20/20 19/19/19
