#Building_2parts_37343_217.obj

v 1.000001 0.8959945 -0.7266279
v 1.098679 0.8959944 -0.7266279
v 1.098679 -0.8959969 -0.726628
v 1.000001 -0.8959967 -0.726628
v -0.5269651 -1.39592 -0.6861715
v -0.1737893 -1.39592 -0.6861715
v -0.1737898 -1.774234 -0.6861715
v -0.5269656 -1.774234 -0.6861715
v -0.8009117 0.8009146 -0.5653765
v -0.999999 0.9999976 -0.5653764
v 1.000001 0.9999999 -0.5653764
v 0.8009132 0.8009126 -0.5653765
v 1.000001 -1.000002 -0.5653765
v 0.8009134 -0.8701394 -0.5653765
v 0.7003266 -1.131973 -0.5653765
v 0.6116427 -0.9534939 -0.5653765
v -0.8009118 -1.196837 -0.5653765
v -0.9999997 -1.395924 -0.5653765
v 0.2289967 -1.196833 -0.5653765
v 0.2992429 -1.395921 -0.5653765
v 0.3513193 -1.098238 -0.5653765
v 0.462978 -1.263949 -0.5653765
v -0.8214523 -1.855564 -0.5653765
v -1 -1.752013 -0.5653765
v 0.2992448 -1.752014 -0.5653765
v 0.1206967 -1.855565 -0.5653765
v 0.2992449 -3.527507 -0.5653765
v 0.1206953 -2.97783 -0.5653765
v -1 -3.527505 -0.5653765
v -0.8214513 -2.977829 -0.5653765
v -0.67063 -2.410055 -0.3415633
v -0.8214523 -1.855564 -0.3415633
v 0.1206967 -1.855565 -0.3415633
v -0.03012464 -2.410056 -0.3415633
v 0.1206953 -2.97783 -0.3415633
v -0.03012524 -2.888167 -0.3415634
v -0.8214513 -2.977829 -0.3415633
v -0.6706282 -2.888171 -0.3415634
v -0.03012464 -2.410056 0.2242155
v -0.03012524 -2.888167 0.2242155
v -0.6706282 -2.888171 0.2242155
v -0.67063 -2.410055 0.2242155
v -0.721586 0.7215886 0.4632318
v 0.7215872 0.7215868 0.4632318
v 0.7215877 -0.8183969 0.4632317
v 0.5763068 -0.8823774 0.4632317
v 0.3068307 -1.032214 0.4632317
v 0.2010093 -1.117507 0.4632318
v -0.721586 -1.117511 0.4632318

vn 0 1 1.192093E-07
vn 0 1 1.192093E-07
vn 0 1 1.192093E-07
vn 0 1 1.192093E-07
vn 0 1 1.192093E-07
vn 0 1 1.192093E-07
vn 0 1 1.192093E-07
vn 0 1 1.192093E-07
vn 0 1 1.192093E-07
vn 0 1 1.192093E-07
vn 0 1 1.192093E-07
vn 0 1 1.192093E-07
vn 0 1 1.192093E-07
vn 0 1 1.192093E-07
vn 0 1 1.192093E-07
vn 0 1 1.192093E-07
vn 0 1 1.192093E-07
vn 0 1 1.192093E-07
vn 0 1 1.192093E-07
vn 0 1 1.192093E-07
vn 0 1 1.192093E-07
vn 0 1 1.192093E-07
vn 0 1 1.192093E-07
vn 0 1 1.192093E-07
vn 0 1 1.192093E-07
vn 0 1 1.192093E-07
vn 0 1 1.192093E-07
vn 0 1 1.192093E-07
vn 0 1 1.192093E-07
vn 0 1 1.192093E-07
vn 0 1 1.192093E-07
vn 0 1 1.192093E-07
vn 0 1 1.192093E-07
vn 0 1 1.192093E-07
vn 0 1 1.192093E-07
vn 0 1 1.192093E-07
vn 0 1 1.192093E-07
vn 0 1 1.192093E-07
vn 0 1 1.192093E-07
vn 0 1 1.192093E-07
vn 0 1 1.192093E-07
vn 0 1 1.192093E-07
vn 0 1 1.192093E-07
vn 0 1 1.192093E-07
vn 0 1 1.192093E-07
vn 0 1 1.192093E-07
vn 0 1 1.192093E-07
vn 0 1 1.192093E-07
vn 0 1 1.192093E-07

vt 1.734375 -0.8901367
vt 1.578125 -0.8901367
vt 1.578125 1.554688
vt 1.734375 1.554688
vt 0.4697266 0.7431641
vt 0.6606445 0.7431641
vt 0.6606445 0.9594727
vt 0.4697266 0.9594727
vt -0.7363281 1.65918
vt -0.8901367 1.889648
vt 0.6533203 1.889648
vt 0.5 1.65918
vt 0.6533203 -0.4306641
vt 0.4997559 -0.2800293
vt 0.4221191 -0.5839844
vt 0.3537598 -0.376709
vt -0.7363281 -0.6591797
vt -0.8901367 -0.8901367
vt 0.05844116 -0.6591797
vt 0.1126709 -0.8901367
vt 0.152832 -0.5444336
vt 0.2390137 -0.7368164
vt -0.668457 1.703125
vt -0.8901367 1.867188
vt 0.7211914 1.867188
vt 0.5 1.703125
vt 0.7211914 -0.8901367
vt 0.5 -0.06634521
vt -0.8901367 -0.8901367
vt -0.668457 -0.06634521
vt 0.9082031 0.005271912
vt 0.7211914 0.8798828
vt 1.889648 0.8798828
vt 1.703125 0.005271912
vt 1.889648 -0.8901367
vt 1.703125 -0.7485352
vt 0.7211914 -0.8901367
vt 0.9082031 -0.7485352
vt 1.314453 0.8798828
vt 0.7211914 0.8798828
vt 0.7211914 1.889648
vt 1.314453 1.889648
vt 0.7148438 1.335938
vt 1.829102 1.335938
vt 1.829102 -0.4509277
vt 1.716797 -0.5253906
vt 1.508789 -0.6992188
vt 1.426758 -0.7978516
vt 0.7148438 -0.7978516

g Building_2parts_37343_217
usemtl Building_2parts_37343_217
usemap Building_2parts_37343_217
f 1/1/1 3/3/3 2/2/2
f 1/1/1 4/4/4 3/3/3
f 5/5/5 7/7/7 6/6/6
f 5/5/5 8/8/8 7/7/7
f 9/9/9 11/11/11 10/10/10
f 9/9/9 12/12/12 11/11/11
f 12/12/12 13/13/13 11/11/11
f 12/12/12 14/14/14 13/13/13
f 14/14/14 15/15/15 13/13/13
f 14/14/14 16/16/16 15/15/15
f 17/17/17 9/9/9 10/10/10
f 17/17/17 10/10/10 18/18/18
f 19/19/19 17/17/17 18/18/18
f 19/19/19 18/18/18 20/20/20
f 21/21/21 19/19/19 20/20/20
f 21/21/21 20/20/20 22/22/22
f 16/16/16 22/22/22 15/15/15
f 16/16/16 21/21/21 22/22/22
f 23/23/23 25/25/25 24/24/24
f 23/23/23 26/26/26 25/25/25
f 26/26/26 27/27/27 25/25/25
f 26/26/26 28/28/28 27/27/27
f 28/28/28 29/29/29 27/27/27
f 28/28/28 30/30/30 29/29/29
f 30/30/30 24/24/24 29/29/29
f 30/30/30 23/23/23 24/24/24
f 31/31/31 33/33/33 32/32/32
f 31/31/31 34/34/34 33/33/33
f 34/34/34 35/35/35 33/33/33
f 34/34/34 36/36/36 35/35/35
f 36/36/36 37/37/37 35/35/35
f 36/36/36 38/38/38 37/37/37
f 38/38/38 32/32/32 37/37/37
f 38/38/38 31/31/31 32/32/32
f 39/39/39 41/41/41 40/40/40
f 39/39/39 42/42/42 41/41/41
f 43/43/43 45/45/45 44/44/44
f 45/45/45 43/43/43 46/46/46
f 46/46/46 43/43/43 47/47/47
f 47/47/47 43/43/43 48/48/48
f 48/48/48 43/43/43 49/49/49
