#Building_t8.008_35063_534.obj

v 3.506679 5.346552 1.487052
v -0.703648 5.485353 1.487052
v -1.120022 10.55304 1.487052
v 3.229099 10.55303 1.487052
v 3.704231 -6.315496 1.487053
v -0.7036667 -6.315489 1.487053
v 11.92731 -6.315509 1.487053
v 11.92733 5.068951 1.487052
v 11.92731 10.55302 1.487052
v 3.692473 -12.1883 1.402825
v 11.85055 -12.18831 1.402825

vn 0 1 1.192093E-07
vn 0 1 1.192093E-07
vn 0 1 1.192093E-07
vn 0 1 1.192093E-07
vn 0 1 1.192093E-07
vn 0 1 1.192093E-07
vn 0 1 1.192093E-07
vn 0 1 1.192093E-07
vn 0 1 1.192093E-07
vn 0 0.9995117 0.01433563
vn 0 0.9995117 0.01433563

vt 7.003906 2.287109
vt 7.148438 6.730469
vt 12.49219 7.167969
vt 12.49219 2.580078
vt -5.300781 2.078125
vt -5.300781 6.730469
vt -5.300781 -6.59375
vt 6.710938 -6.59375
vt 12.49219 -6.59375
vt -11.49219 2.091797
vt -11.49219 -6.515625

g Building_t8.008_35063_534
usemtl Building_t8.008_35063_534
usemap Building_t8.008_35063_534
f 1/1/1 3/3/3 2/2/2
f 1/1/1 4/4/4 3/3/3
f 5/5/5 1/1/1 2/2/2
f 5/5/5 2/2/2 6/6/6
f 7/7/7 1/1/1 5/5/5
f 7/7/7 8/8/8 1/1/1
f 8/8/8 4/4/4 1/1/1
f 8/8/8 9/9/9 4/4/4
f 7/7/7 5/5/5 10/10/10
f 7/7/7 10/10/10 11/11/11
