#Column_wall_1.051_38130_68.obj

v -0.5974144 -10.83691 3.080632
v -0.04773564 -10.83691 3.430548
v -0.1809968 7.791875 3.446269
v -0.7306755 7.791876 3.096353
v 0.02889398 -10.83691 2.316518
v -0.5974144 -10.83691 3.080632
v -0.7306755 7.791876 3.096353
v -0.1043671 7.791874 2.332239
v -0.04773564 -10.83691 3.430548
v 0.4004296 -10.83691 2.993282
v 0.2671685 7.791874 3.009003
v -0.1809968 7.791875 3.446269
v 0.02889398 -10.83691 2.316518
v -0.1043671 7.791874 2.332239
v 0.2671685 7.791874 3.009003
v 0.4004296 -10.83691 2.993282
v -0.5974144 -10.83691 3.080632
v -0.7306755 7.791876 3.096353
v -0.1809968 7.791875 3.446269
v -0.04773564 -10.83691 3.430548
v 0.02889398 -10.83691 2.316518
v -0.1043671 7.791874 2.332239
v -0.7306755 7.791876 3.096353
v -0.5974144 -10.83691 3.080632
v -0.04773564 -10.83691 3.430548
v -0.1809968 7.791875 3.446269
v 0.2671685 7.791874 3.009003
v 0.4004296 -10.83691 2.993282
v 0.02889398 -10.83691 2.316518
v 0.4004296 -10.83691 2.993282
v 0.2671685 7.791874 3.009003
v -0.1043671 7.791874 2.332239

vn 0.5537109 -0.8320313 -0.004703522
vn 0.5537109 -0.8320313 -0.004703522
vn 0.5537109 -0.8320313 -0.004703522
vn 0.5537109 -0.8320313 -0.004703522
vn 0.7866211 0.6166992 -0.005088806
vn 0.7866211 0.6166992 -0.005088806
vn 0.7866211 0.6166992 -0.005088806
vn 0.7866211 0.6166992 -0.005088806
vn -0.7138672 -0.699707 0.004493713
vn -0.7138672 -0.699707 0.004493713
vn -0.7138672 -0.699707 0.004493713
vn -0.7138672 -0.699707 0.004493713
vn -0.8852539 0.4645996 0.006748199
vn -0.8852539 0.4645996 0.006748199
vn -0.8852539 0.4645996 0.006748199
vn -0.8852539 0.4645996 0.006748199
vn -0.5537109 0.8320313 0.004703522
vn -0.5537109 0.8320313 0.004703522
vn -0.5537109 0.8320313 0.004703522
vn -0.5537109 0.8320313 0.004703522
vn -0.7866211 -0.6166992 0.005088806
vn -0.7866211 -0.6166992 0.005088806
vn -0.7866211 -0.6166992 0.005088806
vn -0.7866211 -0.6166992 0.005088806
vn 0.7138672 0.699707 -0.004493713
vn 0.7138672 0.699707 -0.004493713
vn 0.7138672 0.699707 -0.004493713
vn 0.7138672 0.699707 -0.004493713
vn 0.8852539 -0.4645996 -0.006748199
vn 0.8852539 -0.4645996 -0.006748199
vn 0.8852539 -0.4645996 -0.006748199
vn 0.8852539 -0.4645996 -0.006748199

vt -11.53125 -12.71875
vt -10.42969 -12.71875
vt -11.39844 24.51563
vt -12.49219 24.51563
vt -12.01563 -14.21875
vt -12.01563 -12.69531
vt 25.23438 -12.65625
vt 25.23438 -14.1875
vt -14.42969 -12.71875
vt -13.53125 -12.71875
vt -14.5 24.51563
vt -15.39844 24.51563
vt -12.01563 -14.21875
vt 25.23438 -14.1875
vt 25.23438 -12.83594
vt -12.01563 -12.86719
vt -11.53125 -12.71875
vt -12.49219 24.51563
vt -11.39844 24.51563
vt -10.42969 -12.71875
vt -12.01563 -14.21875
vt 25.23438 -14.1875
vt 25.23438 -12.65625
vt -12.01563 -12.69531
vt -14.42969 -12.71875
vt -15.39844 24.51563
vt -14.5 24.51563
vt -13.53125 -12.71875
vt -12.01563 -14.21875
vt -12.01563 -12.86719
vt 25.23438 -12.83594
vt 25.23438 -14.1875

g Column_wall_1.051_38130_68
usemtl Column_wall_1.051_38130_68
usemap Column_wall_1.051_38130_68
f 1/1/1 3/3/3 2/2/2
f 1/1/1 4/4/4 3/3/3
f 5/5/5 7/7/7 6/6/6
f 5/5/5 8/8/8 7/7/7
f 9/9/9 11/11/11 10/10/10
f 9/9/9 12/12/12 11/11/11
f 13/13/13 15/15/15 14/14/14
f 13/13/13 16/16/16 15/15/15
f 17/17/17 19/19/19 18/18/18
f 17/17/17 20/20/20 19/19/19
f 21/21/21 23/23/23 22/22/22
f 21/21/21 24/24/24 23/23/23
f 25/25/25 27/27/27 26/26/26
f 25/25/25 28/28/28 27/27/27
f 29/29/29 31/31/31 30/30/30
f 29/29/29 32/32/32 31/31/31
