#Column_wall_1.052_37564_47.obj

v -0.5974151 -10.83695 3.080626
v -0.04773805 -10.83693 3.430543
v -0.1809759 7.791855 3.446264
v -0.7306476 7.791887 3.096347
v 0.02890153 -10.83693 2.316512
v -0.5974151 -10.83695 3.080626
v -0.7306476 7.791887 3.096347
v -0.104331 7.79191 2.332233
v -0.04773805 -10.83693 3.430543
v 0.4003887 -10.83693 2.993276
v 0.2671562 7.791914 3.008997
v -0.1809759 7.791855 3.446264
v 0.02890153 -10.83693 2.316512
v -0.104331 7.79191 2.332233
v 0.2671562 7.791914 3.008997
v 0.4003887 -10.83693 2.993276
v -0.5974151 -10.83695 3.080626
v -0.7306476 7.791887 3.096347
v -0.1809759 7.791855 3.446264
v -0.04773805 -10.83693 3.430543
v 0.02890153 -10.83693 2.316512
v -0.104331 7.79191 2.332233
v -0.7306476 7.791887 3.096347
v -0.5974151 -10.83695 3.080626
v -0.04773805 -10.83693 3.430543
v -0.1809759 7.791855 3.446264
v 0.2671562 7.791914 3.008997
v 0.4003887 -10.83693 2.993276
v 0.02890153 -10.83693 2.316512
v 0.4003887 -10.83693 2.993276
v 0.2671562 7.791914 3.008997
v -0.104331 7.79191 2.332233

vn 0.5517578 -0.8320313 -0.05041504
vn 0.5517578 -0.8320313 -0.05041504
vn 0.5517578 -0.8320313 -0.05041504
vn 0.5517578 -0.8320313 -0.05041504
vn 0.7836914 0.6166992 -0.07012939
vn 0.7836914 0.6166992 -0.07012939
vn 0.7836914 0.6166992 -0.07012939
vn 0.7836914 0.6166992 -0.07012939
vn -0.7109375 -0.699707 0.0635376
vn -0.7109375 -0.699707 0.0635376
vn -0.7109375 -0.699707 0.0635376
vn -0.7109375 -0.699707 0.0635376
vn -0.8813477 0.4645996 0.07983398
vn -0.8813477 0.4645996 0.07983398
vn -0.8813477 0.4645996 0.07983398
vn -0.8813477 0.4645996 0.07983398
vn -0.5517578 0.8320313 0.05041504
vn -0.5517578 0.8320313 0.05041504
vn -0.5517578 0.8320313 0.05041504
vn -0.5517578 0.8320313 0.05041504
vn -0.7836914 -0.6166992 0.07012939
vn -0.7836914 -0.6166992 0.07012939
vn -0.7836914 -0.6166992 0.07012939
vn -0.7836914 -0.6166992 0.07012939
vn 0.7109375 0.699707 -0.0635376
vn 0.7109375 0.699707 -0.0635376
vn 0.7109375 0.699707 -0.0635376
vn 0.7109375 0.699707 -0.0635376
vn 0.8813477 -0.4645996 -0.07983398
vn 0.8813477 -0.4645996 -0.07983398
vn 0.8813477 -0.4645996 -0.07983398
vn 0.8813477 -0.4645996 -0.07983398

vt -11.53125 -12.71875
vt -10.42969 -12.71875
vt -11.39844 24.51563
vt -12.49219 24.51563
vt -12.01563 -14.21875
vt -12.01563 -12.69531
vt 25.23438 -12.65625
vt 25.23438 -14.1875
vt -14.42969 -12.71875
vt -13.53125 -12.71875
vt -14.5 24.51563
vt -15.39844 24.51563
vt -12.01563 -14.21875
vt 25.23438 -14.1875
vt 25.23438 -12.83594
vt -12.01563 -12.86719
vt -11.53125 -12.71875
vt -12.49219 24.51563
vt -11.39844 24.51563
vt -10.42969 -12.71875
vt -12.01563 -14.21875
vt 25.23438 -14.1875
vt 25.23438 -12.65625
vt -12.01563 -12.69531
vt -14.42969 -12.71875
vt -15.39844 24.51563
vt -14.5 24.51563
vt -13.53125 -12.71875
vt -12.01563 -14.21875
vt -12.01563 -12.86719
vt 25.23438 -12.83594
vt 25.23438 -14.1875

g Column_wall_1.052_37564_47
usemtl Column_wall_1.052_37564_47
usemap Column_wall_1.052_37564_47
f 1/1/1 3/3/3 2/2/2
f 1/1/1 4/4/4 3/3/3
f 5/5/5 7/7/7 6/6/6
f 5/5/5 8/8/8 7/7/7
f 9/9/9 11/11/11 10/10/10
f 9/9/9 12/12/12 11/11/11
f 13/13/13 15/15/15 14/14/14
f 13/13/13 16/16/16 15/15/15
f 17/17/17 19/19/19 18/18/18
f 17/17/17 20/20/20 19/19/19
f 21/21/21 23/23/23 22/22/22
f 21/21/21 24/24/24 23/23/23
f 25/25/25 27/27/27 26/26/26
f 25/25/25 28/28/28 27/27/27
f 29/29/29 31/31/31 30/30/30
f 29/29/29 32/32/32 31/31/31
