#Column_wall_1.051_38130_67.obj

v -0.5176584 -10.87057 2.316518
v -0.5176584 -10.87057 -1.254586
v -0.6992198 7.791875 -1.238863
v -0.6992198 7.791875 2.332239
v 0.4905493 7.791937 2.332239
v 0.4905493 7.791937 -1.648186
v 0.5755101 -10.80325 -1.663908
v 0.5755101 -10.80324 2.316518
v 0.02889398 -10.83691 2.316518
v -0.5176584 -10.87057 2.316518
v -0.6992198 7.791875 2.332239
v -0.1043671 7.791874 2.332239
v 0.5755101 -10.80324 2.316518
v 0.4905493 7.791937 2.332239

vn -0.9995117 0 0.009735107
vn -0.9995117 0 0.009735107
vn -0.9995117 0 0.009735107
vn -0.9995117 0 0.009735107
vn 0.9995117 0 -0.004573822
vn 0.9995117 0 -0.004573822
vn 0.9995117 0 -0.004573822
vn 0.9995117 0 -0.004573822
vn 2.580881E-05 0.9995117 0.0008821487
vn 2.580881E-05 0.9995117 0.0008821487
vn 2.580881E-05 0.9995117 0.0008821487
vn 2.580881E-05 0.9995117 0.0008821487
vn 2.551079E-05 0.9995117 0.0008840561
vn 2.551079E-05 0.9995117 0.0008840561

vt 2.984375 1
vt 2.984375 0
vt -1.985352 0
vt -1.985352 1
vt 2.984375 1
vt 2.984375 0
vt -1.985352 0
vt -1.985352 1
vt -1 0.4328613
vt -1 0.7109375
vt 2 0.7109375
vt 2 0.4328613
vt -1 0.1546631
vt 2 0.1546631

g Column_wall_1.051_38130_67
usemtl Column_wall_1.051_38130_67
usemap Column_wall_1.051_38130_67
f 1/1/1 3/3/3 2/2/2
f 1/1/1 4/4/4 3/3/3
f 5/5/5 7/7/7 6/6/6
f 5/5/5 8/8/8 7/7/7
f 9/9/9 11/11/11 10/10/10
f 9/9/9 12/12/12 11/11/11
f 13/13/13 12/12/12 9/9/9
f 13/13/13 14/14/14 12/12/12
