#Container_Empty.001_(4)_36172_224.obj

v -1.104529 -3.65103 -2.099418
v 1.104541 -3.651046 -2.099418
v -1.104544 -3.564174 -1.944931
v 1.104527 -3.564189 -1.944931
v -1.104544 -3.564174 -1.944931
v 1.104527 -3.564189 -1.944931
v -1.104527 2.049068 -1.94485
v 1.104544 2.049052 -1.94485

vn 0.8227539 0.5673828 -0.001116753
vn 0.8227539 0.5673828 -0.001116753
vn 0.8227539 0.5673828 -0.001116753
vn 0.8227539 0.5673828 -0.001116753
vn 0.0001015067 1 -2.980232E-07
vn 0.0001015067 1 -2.980232E-07
vn 0.0001015067 1 -2.980232E-07
vn 0.0001015067 1 -2.980232E-07

vt 6.175041E-05 0.02461243
vt 6.198883E-05 0.9975586
vt 0.03065491 0.02461243
vt 0.03065491 0.9975586
vt 0.03065491 0.02461243
vt 0.03065491 0.9975586
vt 0.9995117 0.02461243
vt 0.9995117 0.9975586

g Container_Empty.001_(4)_36172_224
usemtl Container_Empty.001_(4)_36172_224
usemap Container_Empty.001_(4)_36172_224
f 1/1/1 3/3/3 2/2/2
f 2/2/2 3/3/3 4/4/4
f 5/5/5 7/7/7 6/6/6
f 6/6/6 7/7/7 8/8/8
