#Container_Empty.001_(1)_34142_222.obj

v -1.104537 -3.651051 -2.099366
v 1.104534 -3.65105 -2.099365
v -1.10453 -3.564202 -1.94488
v 1.10454 -3.5642 -1.94488
v -1.10453 -3.564202 -1.94488
v 1.10454 -3.5642 -1.94488
v -1.104533 2.049016 -1.94488
v 1.104537 2.049017 -1.944879

vn -0.001120567 0.5673828 -0.8227539
vn -0.001120567 0.5673828 -0.8227539
vn -0.001120567 0.5673828 -0.8227539
vn -0.001120567 0.5673828 -0.8227539
vn 2.384186E-07 1 -0.0001019239
vn 2.384186E-07 1 -0.0001019239
vn 2.384186E-07 1 -0.0001019239
vn 2.384186E-07 1 -0.0001019239

vt 6.175041E-05 0.02461243
vt 6.198883E-05 0.9975586
vt 0.03065491 0.02461243
vt 0.03065491 0.9975586
vt 0.03065491 0.02461243
vt 0.03065491 0.9975586
vt 0.9995117 0.02461243
vt 0.9995117 0.9975586

g Container_Empty.001_(1)_34142_222
usemtl Container_Empty.001_(1)_34142_222
usemap Container_Empty.001_(1)_34142_222
f 1/1/1 3/3/3 2/2/2
f 2/2/2 3/3/3 4/4/4
f 5/5/5 7/7/7 6/6/6
f 6/6/6 7/7/7 8/8/8
