#Entrance_Module_(1)_37806_163.obj

v -1.000026 -0.9999999 1.165359E-06
v -1.000026 0.5950969 1.288951E-06
v 1.000026 0.5950969 -1.196732E-06
v 1.000026 -0.9999999 -1.320324E-06

vn 1 5.960464E-08 1.66893E-06
vn 1 5.960464E-08 1.66893E-06
vn 1 5.960464E-08 1.66893E-06
vn 1 5.960464E-08 1.66893E-06

vt 8.171797E-05 8.183718E-05
vt 8.195639E-05 1
vt 0.9995117 1
vt 0.9995117 8.171797E-05

g Entrance_Module_(1)_37806_163
usemtl Entrance_Module_(1)_37806_163
usemap Entrance_Module_(1)_37806_163
f 1/1/1 3/3/3 2/2/2
f 1/1/1 4/4/4 3/3/3
