#Fence_t1.035_37019_916.obj

v -6.017172 20.47621 -0.6400072
v -6.017172 20.47622 1.359993
v -6.099298 30.72301 1.359992
v -6.099298 30.72301 -0.6400083
v 3.338297 20.46917 -0.6400072
v 3.338267 32.47936 -0.6400085
v 3.338267 32.47936 1.359991
v 3.338297 20.4692 1.359993
v 3.338297 20.46917 -0.6400072
v 3.338297 20.4692 1.359993
v -6.017172 20.47622 1.359993
v -6.017172 20.47621 -0.6400072
v -6.017172 20.47621 -0.6400072
v -6.099298 30.72301 -0.6400083
v -6.099298 30.72301 1.359992
v -6.017172 20.47622 1.359993
v 3.338297 20.46917 -0.6400072
v 3.338297 20.4692 1.359993
v 3.338267 32.47936 1.359991
v 3.338267 32.47936 -0.6400085
v 3.338297 20.46917 -0.6400072
v -6.017172 20.47621 -0.6400072
v -6.017172 20.47622 1.359993
v 3.338297 20.4692 1.359993

vn 0.9995117 0 -0.008010864
vn 0.9995117 0 -0.008010864
vn 0.9995117 0 -0.008010864
vn 0.9995117 0 -0.008010864
vn -1 0 2.563E-06
vn -1 0 2.563E-06
vn -1 0 2.563E-06
vn -1 0 2.563E-06
vn 0.000749588 5.960464E-08 -0.9995117
vn 0.000749588 5.960464E-08 -0.9995117
vn 0.000749588 5.960464E-08 -0.9995117
vn 0.000749588 5.960464E-08 -0.9995117
vn -0.9995117 0 0.008010864
vn -0.9995117 0 0.008010864
vn -0.9995117 0 0.008010864
vn -0.9995117 0 0.008010864
vn 1 0 -2.563E-06
vn 1 0 -2.563E-06
vn 1 0 -2.563E-06
vn 1 0 -2.563E-06
vn -0.000749588 -5.960464E-08 0.9995117
vn -0.000749588 -5.960464E-08 0.9995117
vn -0.000749588 -5.960464E-08 0.9995117
vn -0.000749588 -5.960464E-08 0.9995117

vt 0.4111328 1.192093E-07
vt 0.4111328 1
vt -3.029297 1
vt -3.029297 1.192093E-07
vt 0.5751953 1.192093E-07
vt 3.851563 1.192093E-07
vt 3.851563 1
vt 0.5751953 1
vt 3.851563 1.192093E-07
vt 3.851563 1
vt 0.4111328 1
vt 0.4111328 1.192093E-07
vt 0.4111328 1.192093E-07
vt -3.029297 1.192093E-07
vt -3.029297 1
vt 0.4111328 1
vt 0.5751953 1.192093E-07
vt 0.5751953 1
vt 3.851563 1
vt 3.851563 1.192093E-07
vt 3.851563 1.192093E-07
vt 0.4111328 1.192093E-07
vt 0.4111328 1
vt 3.851563 1

g Fence_t1.035_37019_916
usemtl Fence_t1.035_37019_916
usemap Fence_t1.035_37019_916
f 1/1/1 3/3/3 2/2/2
f 1/1/1 4/4/4 3/3/3
f 5/5/5 7/7/7 6/6/6
f 5/5/5 8/8/8 7/7/7
f 9/9/9 11/11/11 10/10/10
f 9/9/9 12/12/12 11/11/11
f 13/13/13 15/15/15 14/14/14
f 13/13/13 16/16/16 15/15/15
f 17/17/17 19/19/19 18/18/18
f 17/17/17 20/20/20 19/19/19
f 21/21/21 23/23/23 22/22/22
f 21/21/21 24/24/24 23/23/23
