#Hero_home_37130_447.obj

v 7.235402 82.03433 -18.11727
v 7.237533 82.03735 13.64958
v -8.02455 66.77476 21.01587
v -8.02455 66.77477 -18.11727
v 37.7552 51.51467 -18.11727
v 22.49557 36.25456 -18.11728
v 22.49557 36.25455 21.01586
v 37.75755 51.51703 13.64957

vn -0.005607605 -5.960464E-08 0.9995117
vn -0.005607605 -5.960464E-08 0.9995117
vn -0.005607605 -5.960464E-08 0.9995117
vn -0.005607605 -5.960464E-08 0.9995117
vn 0.005619049 5.960464E-08 -0.9995117
vn 0.005619049 5.960464E-08 -0.9995117
vn 0.005619049 5.960464E-08 -0.9995117
vn 0.005619049 5.960464E-08 -0.9995117

vt -12 0
vt -12 0.8046875
vt -11 0.9916992
vt -11 0
vt 0.9995117 0
vt 0 0
vt 0 0.9916992
vt 1 0.8046875

g Hero_home_37130_447
usemtl Hero_home_37130_447
usemap Hero_home_37130_447
f 1/1/1 3/3/3 2/2/2
f 1/1/1 4/4/4 3/3/3
f 5/5/5 7/7/7 6/6/6
f 5/5/5 8/8/8 7/7/7
