#Hotel_1_38097_295.obj

v 40.60436 -26.58113 14.91582
v 41.58647 -27.56324 14.91582
v 40.8609 -29.31492 14.91582
v -56.9493 -29.31493 14.91582
v -56.69276 -26.58111 14.91582
v -57.67488 -27.56322 14.91582
v 18.55046 10.56342 -2.149634
v -37.76673 16.1814 -2.149634
v 21.67833 16.18139 -2.149634
v -34.63887 10.56342 -2.149634
v -56.9493 16.1814 14.91582
v -37.76673 16.1814 14.91582
v -39.86866 13.32368 14.91582
v -56.69276 13.44758 14.91582
v -57.67487 14.4297 14.91582
v 41.58648 14.42971 14.91582
v 43.33817 13.70412 14.91582
v 43.33817 -26.83766 14.91582
v 41.58647 -27.56324 14.91582
v 40.60436 13.44759 14.91582
v 40.60436 -26.58113 14.91582
v 40.8609 16.18139 14.91582
v 41.58648 14.42971 14.91582
v 40.60436 13.44759 14.91582
v 21.67834 16.18139 14.91582
v 23.78027 13.32366 14.91582
v 21.16604 14.13812 14.91582
v -39.86866 13.32368 14.91582
v -37.76673 16.1814 14.91582
v -37.25443 14.13813 14.91582
v -36.20279 11.9679 14.91582
v -38.42886 10.29264 14.91582
v -57.67487 14.4297 14.91582
v -56.69276 13.44758 14.91582
v -56.69276 -26.58111 14.91582
v -57.67488 -27.56322 14.91582
v -59.42657 13.70414 14.91582
v -59.42657 -26.83767 14.91582
v -35.68623 7.82959 14.91582
v -34.63887 10.56341 14.91582
v 18.55047 10.56341 14.91582
v 19.59785 7.829587 14.91582
v -38.42886 10.29264 14.91582
v -36.20279 11.9679 14.91582
v -34.63887 10.56341 14.91582
v -35.68623 7.82959 14.91582
v 19.59785 7.829587 14.91582
v 18.55047 10.56341 14.91582
v 20.1144 11.96789 14.91582
v 22.34047 10.29263 14.91582
v 22.34047 10.29263 14.91582
v 20.1144 11.96789 14.91582
v 21.16604 14.13812 14.91582
v 23.78027 13.32366 14.91582
v 26.31053 10.24443 54.78001
v 37.4012 10.24444 54.78001
v 37.4012 -23.37797 54.78001
v 24.94872 8.329724 54.78001
v 20.82504 4.626423 54.78001
v -53.4896 -23.37796 54.78001
v -36.91343 4.626432 54.78001
v -41.03711 8.329747 54.78001
v -42.39894 10.24442 54.78001
v -53.4896 10.24444 54.78001
v -59.42657 -26.83767 14.91582
v -57.67488 -27.56322 14.91582
v -56.9493 -29.31493 14.91582
v -56.9493 16.1814 14.91582
v -57.67487 14.4297 14.91582
v -59.42657 13.70414 14.91582
v 43.33817 13.70412 14.91582
v 41.58648 14.42971 14.91582
v 40.8609 16.18139 14.91582
v 40.8609 -29.31492 14.91582
v 41.58647 -27.56324 14.91582
v 43.33817 -26.83766 14.91582

vn 0 0.9995117 1.192093E-07
vn 0 0.9995117 1.192093E-07
vn 0 0.9995117 1.192093E-07
vn 0 0.9995117 1.192093E-07
vn 0 0.9995117 1.192093E-07
vn 0 0.9995117 1.192093E-07
vn 0 0.9995117 1.192093E-07
vn 0 0.9995117 1.192093E-07
vn 0 0.9995117 1.192093E-07
vn 0 0.9995117 1.192093E-07
vn 0 0.9995117 1.192093E-07
vn 0 0.9995117 1.192093E-07
vn 0 0.9995117 1.192093E-07
vn 0 0.9995117 1.192093E-07
vn 0 0.9995117 1.192093E-07
vn 0 0.9995117 1.192093E-07
vn 0 0.9995117 1.192093E-07
vn 0 0.9995117 1.192093E-07
vn 0 0.9995117 1.192093E-07
vn 0 0.9995117 1.192093E-07
vn 0 0.9995117 1.192093E-07
vn 0 0.9995117 1.192093E-07
vn 0 0.9995117 1.192093E-07
vn 0 0.9995117 1.192093E-07
vn 0 0.9995117 1.192093E-07
vn 0 0.9995117 1.192093E-07
vn 0 0.9995117 1.192093E-07
vn 0 0.9995117 1.192093E-07
vn 0 0.9995117 1.192093E-07
vn 0 0.9995117 1.192093E-07
vn 0 0.9995117 1.192093E-07
vn 0 0.9995117 1.192093E-07
vn 0 0.9995117 1.192093E-07
vn 0 0.9995117 1.192093E-07
vn 0 0.9995117 1.192093E-07
vn 0 0.9995117 1.192093E-07
vn 0 0.9995117 1.192093E-07
vn 0 0.9995117 1.192093E-07
vn 0 0.9995117 1.192093E-07
vn 0 0.9995117 1.192093E-07
vn 0 0.9995117 1.192093E-07
vn 0 0.9995117 1.192093E-07
vn 0 0.9995117 1.192093E-07
vn 0 0.9995117 1.192093E-07
vn 0 0.9995117 1.192093E-07
vn 0 0.9995117 1.192093E-07
vn 0 0.9995117 1.192093E-07
vn 0 0.9995117 1.192093E-07
vn 0 0.9995117 1.192093E-07
vn 0 0.9995117 1.192093E-07
vn 0 0.9995117 1.192093E-07
vn 0 0.9995117 1.192093E-07
vn 0 0.9995117 1.192093E-07
vn 0 0.9995117 1.192093E-07
vn 0 0.9995117 1.192093E-07
vn 0 0.9995117 1.192093E-07
vn 0 0.9995117 1.192093E-07
vn 0 0.9995117 1.192093E-07
vn 0 0.9995117 1.192093E-07
vn 0 0.9995117 1.192093E-07
vn 0 0.9995117 1.192093E-07
vn 0 0.9995117 1.192093E-07
vn 0 0.9995117 1.192093E-07
vn 0 0.9995117 1.192093E-07
vn 0 0.9995117 1.192093E-07
vn 0 0.9995117 1.192093E-07
vn 0 0.9995117 1.192093E-07
vn 0 0.9995117 1.192093E-07
vn 0 0.9995117 1.192093E-07
vn 0 0.9995117 1.192093E-07
vn 0 0.9995117 1.192093E-07
vn 0 0.9995117 1.192093E-07
vn 0 0.9995117 1.192093E-07
vn 0 0.9995117 1.192093E-07
vn 0 0.9995117 1.192093E-07
vn 0 0.9995117 1.192093E-07

vt -0.512207 0.4182129
vt -0.4633789 0.3691406
vt -0.4997559 0.2814941
vt -5.386719 0.2814941
vt -5.375 0.4182129
vt -5.425781 0.3691406
vt -0.6152344 0.3398438
vt -3.429688 0.4916992
vt -0.4587402 0.4916992
vt -3.273438 0.3398438
vt -0.4902344 0.5561523
vt 0.46875 0.5561523
vt 0.3635254 0.4133301
vt -0.4772949 0.4196777
vt -0.5263672 0.46875
vt -0.4633789 0.46875
vt -0.3757324 0.432373
vt -0.3757324 -1.59375
vt -0.4633789 -1.629883
vt -0.512207 0.4196777
vt -0.512207 -1.581055
vt 0.4001465 0.5561523
vt 0.4362793 0.46875
vt 0.387207 0.4196777
vt -0.5585938 0.5561523
vt -0.4536133 0.4133301
vt -0.5844727 0.4541016
vt -0.5361328 0.4133301
vt -0.4311523 0.5561523
vt -0.4055176 0.4541016
vt -0.3527832 0.345459
vt -0.4641113 0.2617188
vt -0.5263672 2.46875
vt -0.4772949 2.417969
vt -0.4772949 0.4182129
vt -0.5263672 0.3691406
vt -0.6137695 2.431641
vt -0.6137695 0.4052734
vt -0.5268555 0.4387207
vt -0.4746094 0.5751953
vt 2.183594 0.5751953
vt 2.236328 0.4387207
vt -0.4641113 0.4619141
vt -0.3527832 0.5454102
vt -0.2746582 0.4753418
vt -0.3271484 0.338623
vt -0.4628906 0.4387207
vt -0.5151367 0.5751953
vt -0.4370117 0.6455078
vt -0.3256836 0.5615234
vt -0.5253906 0.4619141
vt -0.6367188 0.5454102
vt -0.5844727 0.6538086
vt -0.4536133 0.6132813
vt 3.095703 0.2758789
vt 3.529297 0.2758789
vt 3.529297 -1.037109
vt 3.042969 0.2010498
vt 2.882813 0.05636597
vt -0.02096558 -1.037109
vt 0.6264648 0.05636597
vt 0.4655762 0.2010498
vt 0.4123535 0.2758789
vt -0.02096558 0.2758789
vt -0.6137695 0.4052734
vt -0.5263672 0.3691406
vt -0.5517578 0.3432617
vt -0.4902344 0.5561523
vt -0.5263672 0.46875
vt -0.5517578 0.4943848
vt -0.3757324 0.432373
vt -0.4633789 0.46875
vt -0.4377441 0.4943848
vt -0.4997559 0.2814941
vt -0.4633789 0.3691406
vt -0.4377441 0.3432617

g Hotel_1_38097_295
usemtl Hotel_1_38097_295
usemap Hotel_1_38097_295
f 1/1/1 3/3/3 2/2/2
f 3/3/3 1/1/1 4/4/4
f 4/4/4 1/1/1 5/5/5
f 4/4/4 5/5/5 6/6/6
f 7/7/7 9/9/9 8/8/8
f 8/8/8 10/10/10 7/7/7
f 11/11/11 13/13/13 12/12/12
f 13/13/13 11/11/11 14/14/14
f 14/14/14 11/11/11 15/15/15
f 16/16/16 18/18/18 17/17/17
f 18/18/18 16/16/16 19/19/19
f 19/19/19 16/16/16 20/20/20
f 19/19/19 20/20/20 21/21/21
f 22/22/22 24/24/24 23/23/23
f 24/24/24 22/22/22 25/25/25
f 24/24/24 25/25/25 26/26/26
f 26/26/26 25/25/25 27/27/27
f 28/28/28 30/30/30 29/29/29
f 28/28/28 31/31/31 30/30/30
f 28/28/28 32/32/32 31/31/31
f 33/33/33 35/35/35 34/34/34
f 35/35/35 33/33/33 36/36/36
f 36/36/36 33/33/33 37/37/37
f 36/36/36 37/37/37 38/38/38
f 39/39/39 41/41/41 40/40/40
f 39/39/39 42/42/42 41/41/41
f 43/43/43 45/45/45 44/44/44
f 43/43/43 46/46/46 45/45/45
f 47/47/47 49/49/49 48/48/48
f 47/47/47 50/50/50 49/49/49
f 51/51/51 53/53/53 52/52/52
f 51/51/51 54/54/54 53/53/53
f 55/55/55 57/57/57 56/56/56
f 57/57/57 55/55/55 58/58/58
f 57/57/57 58/58/58 59/59/59
f 57/57/57 59/59/59 60/60/60
f 60/60/60 59/59/59 61/61/61
f 60/60/60 61/61/61 62/62/62
f 60/60/60 62/62/62 63/63/63
f 60/60/60 63/63/63 64/64/64
f 65/65/65 67/67/67 66/66/66
f 68/68/68 70/70/70 69/69/69
f 71/71/71 73/73/73 72/72/72
f 74/74/74 76/76/76 75/75/75
