#Newstand_(2)_35962_489.obj

v -1.612434 -0.8128334 0.990411
v -1.612434 -0.8128339 -0.8470992
v -1.612434 0.828371 -0.8470994
v -1.612434 0.8283715 0.990411
v -1.612434 0.8283715 0.990411
v -1.612434 0.828371 -0.8470994
v 1.612434 0.828371 -0.8470994
v 1.612434 0.8283715 0.9904109
v 1.612434 0.8283715 0.9904109
v 1.612434 0.828371 -0.8470994
v 1.612434 -0.812834 -0.8470992
v 1.612434 -0.8128335 0.990411
v 1.612434 -0.812834 -0.8470992
v 1.518616 -0.8128339 -0.6838419
v 1.518616 -0.8128335 0.9322487
v 1.612434 -0.8128335 0.990411
v -1.612434 -0.8128339 -0.8470992
v -1.518616 -0.8128338 -0.6838419
v -1.518616 -0.8128334 0.9322487
v -1.612434 -0.8128334 0.990411
v 1.758044 -0.886939 1.137303
v 1.758044 -0.8869389 1.35443
v 1.758044 0.9024771 1.35443
v 1.758044 0.902477 1.137303
v 1.612434 0.8283715 0.9904109
v 1.758044 0.902477 1.137303
v -1.758044 0.9024771 1.137303
v -1.612434 0.8283715 0.990411
v 1.612434 -0.8128335 0.990411
v 1.758044 -0.886939 1.137303
v 1.758044 0.902477 1.137303
v 1.612434 0.8283715 0.9904109
v -1.612434 0.8283715 0.990411
v -1.758044 0.9024771 1.137303
v -1.758044 -0.8869389 1.137303
v -1.612434 -0.8128334 0.990411
v -1.612434 -0.8128334 0.990411
v -1.758044 -0.8869389 1.137303
v 1.758044 -0.886939 1.137303
v 1.612434 -0.8128335 0.990411
v 1.758044 -0.8869389 1.35443
v -1.758044 -0.8869389 1.35443
v -1.758044 0.9024772 1.35443
v 1.758044 0.9024771 1.35443
v 1.758044 0.902477 1.137303
v 1.758044 0.9024771 1.35443
v -1.758044 0.9024772 1.35443
v -1.758044 0.9024771 1.137303
v -1.758044 0.9024771 1.137303
v -1.758044 0.9024772 1.35443
v -1.758044 -0.8869389 1.35443
v -1.758044 -0.8869389 1.137303
v -1.758044 -0.8869389 1.137303
v -1.758044 -0.8869389 1.35443
v 1.758044 -0.8869389 1.35443
v 1.758044 -0.886939 1.137303
v 1.518616 -0.8128339 -0.6838419
v 1.518616 -0.6615199 -0.683842
v 1.518616 -0.6615195 0.9322486
v 1.518616 -0.8128335 0.9322487
v 1.518616 -0.6615195 0.9322486
v 1.518616 -0.6615199 -0.683842
v -1.518616 -0.6615198 -0.683842
v -1.518616 -0.6615194 0.9322487
v -1.518616 -0.8128334 0.9322487
v -1.518616 -0.6615194 0.9322487
v -1.518616 -0.6615198 -0.683842
v -1.518616 -0.8128338 -0.6838419
v -1.518616 -0.8128338 -0.6838419
v -1.518616 -0.6615198 -0.683842
v 1.518616 -0.6615199 -0.683842
v 1.518616 -0.8128339 -0.6838419
v 1.518616 -0.8128335 0.9322487
v 1.518616 -0.6615195 0.9322486
v -1.518616 -0.6615194 0.9322487
v -1.518616 -0.8128334 0.9322487

vn -1 5.960464E-08 0
vn -1 5.960464E-08 0
vn -1 5.960464E-08 0
vn -1 5.960464E-08 0
vn 0 1.788139E-07 -0.9995117
vn 0 1.788139E-07 -0.9995117
vn 0 1.788139E-07 -0.9995117
vn 0 1.788139E-07 -0.9995117
vn 1 -5.960464E-08 0
vn 1 -5.960464E-08 0
vn 1 -5.960464E-08 0
vn 1 -5.960464E-08 0
vn 0 -1.788139E-07 0.9995117
vn 0 -1.788139E-07 0.9995117
vn 0 -1.788139E-07 0.9995117
vn 0 -1.788139E-07 0.9995117
vn 0 -1.788139E-07 0.9995117
vn 0 -1.788139E-07 0.9995117
vn 0 -1.788139E-07 0.9995117
vn 0 -1.788139E-07 0.9995117
vn 1 -5.960464E-08 0
vn 1 -5.960464E-08 0
vn 1 -5.960464E-08 0
vn 1 -5.960464E-08 0
vn -5.960464E-08 -0.4504395 -0.8925781
vn -5.960464E-08 -0.4504395 -0.8925781
vn -5.960464E-08 -0.4504395 -0.8925781
vn -5.960464E-08 -0.4504395 -0.8925781
vn 0.7099609 -0.7036133 -1.192093E-07
vn 0.7099609 -0.7036133 -1.192093E-07
vn 0.7099609 -0.7036133 -1.192093E-07
vn 0.7099609 -0.7036133 -1.192093E-07
vn -0.7099609 -0.7036133 -5.960464E-08
vn -0.7099609 -0.7036133 -5.960464E-08
vn -0.7099609 -0.7036133 -5.960464E-08
vn -0.7099609 -0.7036133 -5.960464E-08
vn 0 -0.4504395 0.8925781
vn 0 -0.4504395 0.8925781
vn 0 -0.4504395 0.8925781
vn 0 -0.4504395 0.8925781
vn 5.960464E-08 0.9995117 1.788139E-07
vn 5.960464E-08 0.9995117 1.788139E-07
vn 5.960464E-08 0.9995117 1.788139E-07
vn 5.960464E-08 0.9995117 1.788139E-07
vn 0 1.788139E-07 -0.9995117
vn 0 1.788139E-07 -0.9995117
vn 0 1.788139E-07 -0.9995117
vn 0 1.788139E-07 -0.9995117
vn -1 5.960464E-08 0
vn -1 5.960464E-08 0
vn -1 5.960464E-08 0
vn -1 5.960464E-08 0
vn 0 -1.788139E-07 0.9995117
vn 0 -1.788139E-07 0.9995117
vn 0 -1.788139E-07 0.9995117
vn 0 -1.788139E-07 0.9995117
vn -1 5.960464E-08 0
vn -1 5.960464E-08 0
vn -1 5.960464E-08 0
vn -1 5.960464E-08 0
vn 0 -1.788139E-07 0.9995117
vn 0 -1.788139E-07 0.9995117
vn 0 -1.788139E-07 0.9995117
vn 0 -1.788139E-07 0.9995117
vn 1 -5.960464E-08 0
vn 1 -5.960464E-08 0
vn 1 -5.960464E-08 0
vn 1 -5.960464E-08 0
vn 5.960464E-08 0.9995117 1.788139E-07
vn 5.960464E-08 0.9995117 1.788139E-07
vn 5.960464E-08 0.9995117 1.788139E-07
vn 5.960464E-08 0.9995117 1.788139E-07
vn -5.960464E-08 -0.9995117 -1.788139E-07
vn -5.960464E-08 -0.9995117 -1.788139E-07
vn -5.960464E-08 -0.9995117 -1.788139E-07
vn -5.960464E-08 -0.9995117 -1.788139E-07

vt 0.3088379 0.7841797
vt 0.3088379 0.9931641
vt 0.4802246 0.9931641
vt 0.4802246 0.7841797
vt 0.4802246 0.7841797
vt 0.4802246 0.9931641
vt 0.8173828 0.9931641
vt 0.8173828 0.7841797
vt 0.8173828 0.7841797
vt 0.8173828 0.9931641
vt 0.9887695 0.9931641
vt 0.9887695 0.7841797
vt 0.9858398 0.5375977
vt 0.9746094 0.5444336
vt 0.9746094 0.7685547
vt 0.9858398 0.7753906
vt 0.6025391 0.5375977
vt 0.6137695 0.5444336
vt 0.6137695 0.7685547
vt 0.6025391 0.7753906
vt 0.6259766 0.4980469
vt 0.6259766 0.4816895
vt 0.5009766 0.4816895
vt 0.5009766 0.4980469
vt 0.5009766 0.5146484
vt 0.5009766 0.4980469
vt 0.263916 0.4980469
vt 0.263916 0.5146484
vt 0.6259766 0.5146484
vt 0.6259766 0.4980469
vt 0.5009766 0.4980469
vt 0.5009766 0.5146484
vt 0.9882813 0.5146484
vt 0.9882813 0.4980469
vt 0.8632813 0.4980469
vt 0.8632813 0.5146484
vt 0.8632813 0.5146484
vt 0.8632813 0.4980469
vt 0.6259766 0.4980469
vt 0.6259766 0.5146484
vt 0.9375 0.3430176
vt 0.6953125 0.3430176
vt 0.6953125 0.4660645
vt 0.9375 0.4660645
vt 0.5009766 0.4980469
vt 0.5009766 0.4816895
vt 0.263916 0.4816895
vt 0.263916 0.4980469
vt 0.9882813 0.4980469
vt 0.9882813 0.4816895
vt 0.8632813 0.4816895
vt 0.8632813 0.4980469
vt 0.8632813 0.4980469
vt 0.8632813 0.4816895
vt 0.6259766 0.4816895
vt 0.6259766 0.4980469
vt 0.05535889 0.9135742
vt 0.05535889 0.9282227
vt 0.2371826 0.9282227
vt 0.2371826 0.9135742
vt 0.9692383 0.7631836
vt 0.9692383 0.5478516
vt 0.6220703 0.5478516
vt 0.6220703 0.7631836
vt 0.2369385 0.9458008
vt 0.2370605 0.9311523
vt 0.05514526 0.9311523
vt 0.05514526 0.9453125
vt 0.006832123 0.9555664
vt 0.006832123 0.9702148
vt 0.3000488 0.9702148
vt 0.3000488 0.9555664
vt 0.3000488 0.9853516
vt 0.3000488 0.9707031
vt 0.006832123 0.9707031
vt 0.006832123 0.9853516

g Newstand_(2)_35962_489
usemtl Newstand_(2)_35962_489
usemap Newstand_(2)_35962_489
f 1/1/1 3/3/3 2/2/2
f 1/1/1 4/4/4 3/3/3
f 5/5/5 7/7/7 6/6/6
f 5/5/5 8/8/8 7/7/7
f 9/9/9 11/11/11 10/10/10
f 9/9/9 12/12/12 11/11/11
f 13/13/13 15/15/15 14/14/14
f 13/13/13 16/16/16 15/15/15
f 17/17/17 13/13/13 14/14/14
f 17/17/17 14/14/14 18/18/18
f 16/16/16 19/19/19 15/15/15
f 16/16/16 20/20/20 19/19/19
f 20/20/20 18/18/18 19/19/19
f 20/20/20 17/17/17 18/18/18
f 21/21/21 23/23/23 22/22/22
f 21/21/21 24/24/24 23/23/23
f 25/25/25 27/27/27 26/26/26
f 25/25/25 28/28/28 27/27/27
f 29/29/29 31/31/31 30/30/30
f 29/29/29 32/32/32 31/31/31
f 33/33/33 35/35/35 34/34/34
f 33/33/33 36/36/36 35/35/35
f 37/37/37 39/39/39 38/38/38
f 37/37/37 40/40/40 39/39/39
f 41/41/41 43/43/43 42/42/42
f 41/41/41 44/44/44 43/43/43
f 45/45/45 47/47/47 46/46/46
f 45/45/45 48/48/48 47/47/47
f 49/49/49 51/51/51 50/50/50
f 49/49/49 52/52/52 51/51/51
f 53/53/53 55/55/55 54/54/54
f 53/53/53 56/56/56 55/55/55
f 57/57/57 59/59/59 58/58/58
f 57/57/57 60/60/60 59/59/59
f 61/61/61 63/63/63 62/62/62
f 61/61/61 64/64/64 63/63/63
f 65/65/65 67/67/67 66/66/66
f 65/65/65 68/68/68 67/67/67
f 69/69/69 71/71/71 70/70/70
f 69/69/69 72/72/72 71/71/71
f 73/73/73 75/75/75 74/74/74
f 73/73/73 76/76/76 75/75/75
