#Palm_B(Clone)_33816_525.obj

v -2.216216 10.66649 2.59051
v -2.731728 10.33297 2.23009
v -1.618295 10.97456 1.087562
v -2.145344 10.62084 0.7633908
v -1.527168 10.58098 2.773626
v -0.9391212 10.86843 1.303479
v -0.1496865 10.67148 -0.3735225
v -0.8646655 10.78654 -0.5132974
v -0.3356095 10.20078 -1.406024
v -1.357509 10.42428 -0.9100647
v -0.3750227 10.2309 -1.393908
v 0.5789229 11.1992 -1.500192
v 0.5638643 11.11026 -0.7966884
v 0.8540893 10.7709 -2.037226
v 2.356508 11.82087 -1.372927
v 2.608969 11.3985 -1.871939
v 4.303566 11.94868 -1.092293
v 4.414049 11.50931 -1.562051
v 4.178197 11.86812 -0.3162922
v 2.343764 11.74681 -0.6290373
v -0.3750843 10.25464 -1.389869
v -0.3524781 11.38821 -0.5556534
v -0.9041404 11.06125 -0.2983654
v 0.3769808 11.22755 -0.5188134
v -0.07502199 12.28434 1.111104
v 0.612007 12.11159 1.142132
v 0.3479836 12.70083 2.98511
v 0.9661595 12.47352 2.898527
v -0.3076848 12.33462 3.170492
v -0.6657773 11.95791 1.386319
v -0.383063 10.26124 -1.380906
v -1.606191 11.00173 -1.15967
v -1.849024 10.43432 -1.43587
v -1.277883 11.12222 -0.4931045
v -3.264145 11.37803 -0.2610334
v -2.941131 11.474 0.3689873
v -4.784787 11.32872 0.9556668
v -4.367876 11.38732 1.478911
v -4.990558 10.71032 0.5628397
v -3.535999 10.79111 -0.5614654
v -0.38901 10.23411 -1.389968
v -1.400099 10.69809 -2.279542
v -0.9573682 10.31805 -2.711376
v -1.864402 10.4947 -1.77393
v -2.882091 10.47475 -3.478808
v -3.306525 10.26751 -2.993487
v -4.323746 9.726188 -4.570411
v -4.612382 9.545161 -4.035642
v -3.750044 9.361472 -5.010913
v -2.420066 10.08762 -3.94827
v -0.3871631 10.19505 -1.408585
v -0.03802154 11.0499 -2.332438
v 0.6048291 10.85818 -2.07515
v -0.501561 10.66923 -2.768606
v 0.7675676 11.41909 -3.933297
v 0.3326799 11.04155 -4.335383
v 1.71223 11.25277 -5.634038
v 1.254083 10.87229 -5.89497
v 2.38633 11.07278 -5.250076
v 1.450977 11.23581 -3.664287
v -0.3967794 10.24606 -1.339141
v -1.130486 11.35914 -1.293337
v -1.641171 10.92692 -1.18922
v -0.5713379 11.53058 -0.8141235
v -2.145048 12.56345 -0.3416083
v -1.611806 12.7067 0.118496
v -3.082692 13.48154 1.105193
v -2.516808 13.52701 1.468962
v -3.618889 12.9598 1.122825
v -2.696476 12.11981 -0.2432046
v -0.3867445 10.19803 -1.426611
v -0.3047167 11.47394 -1.211088
v -0.5867043 11.29495 -0.5993884
v 0.398873 11.337 -1.449168
v 0.4387663 12.84241 -0.3075262
v 1.105664 12.6937 -0.5257087
v 1.534432 13.87096 0.9075982
v 2.103098 13.63398 0.6448927
v 1.139425 13.63398 1.523139
v 0.1301708 12.671 0.3371713
v -0.3951295 10.18807 -1.416268
v -0.05727885 11.38565 -1.648832
v 0.4730575 11.20488 -1.21355
v -0.1613341 11.12388 -2.350365
v 1.09989 12.44914 -2.36977
v 1.006953 12.1818 -3.030031
v 2.606113 13.06913 -3.301208
v 2.441885 12.74276 -3.863951
v 3.112501 12.85655 -2.748216
v 1.658016 12.27788 -1.902869
v -0.3953265 10.19077 -1.400311
v -0.7921184 11.2372 -2.009646
v -0.2104498 10.99242 -2.390751
v -1.464471 10.94736 -1.998712
v -1.480231 11.93936 -3.469844
v -2.107863 11.64557 -3.459994
v -2.219084 12.12729 -5.215207
v -2.752536 11.80117 -5.106066
v -1.518449 11.86787 -5.543417
v -0.8630151 11.70059 -3.872916
v -0.3887146 10.23748 -1.369184
v -1.423297 11.09723 -1.660948
v -1.533644 10.59158 -2.144594
v -1.530246 11.10355 -0.9295683
v -3.258813 11.57027 -1.731476
v -3.351849 11.55687 -1.037724
v -5.22402 11.56712 -1.579192
v -5.182404 11.51715 -0.9296674
v -5.242256 11.01922 -2.148042
v -3.381239 11.05136 -2.254326
v 3.380513 9.948761 0.7821072
v 2.918513 9.999741 1.330469
v 2.127391 10.49292 -0.1257888
v 1.690423 10.51896 0.447002
v 3.508591 9.540777 0.213158
v 2.27709 10.06023 -0.6722795
v 0.6579464 10.16729 -1.582441
v 0.5816932 10.59513 -0.9946779
v -0.4768002 10.20732 -1.387801
v 0.07456632 10.62581 -0.4613865
v 1.085989 8.911471 -5.252636
v 1.683922 8.849923 -4.868083
v 0.5108089 9.847352 -3.952209
v 1.122631 9.75161 -3.59376
v 0.4203225 8.669316 -5.291939
v -0.1423229 9.572168 -4.01397
v -0.7839303 10.12472 -2.335393
v -0.101691 10.37484 -2.349774
v -0.4431371 10.23168 -1.253641
v 0.4823292 10.30304 -1.918531
v -4.677948 9.423575 -1.605294
v -4.451209 9.127209 -2.223987
v -3.200685 10.18532 -1.565696
v -3.005157 9.85842 -2.183503
v -4.572095 9.376444 -0.9143006
v -3.122178 10.10836 -0.8735206
v -1.285898 10.44376 -0.7490134
v -1.447701 10.5055 -1.446902
v -0.3029067 10.2264 -1.309196
v -1.172596 10.19314 -2.059192
v 0.8337112 8.979966 0.4044491
v 0.4267612 9.031246 0.6000746
v 0.5876648 9.682923 -0.1404658
v 0.180604 9.711267 0.06491146
v 0.9951319 8.798397 0.02157072
v 0.747842 9.479534 -0.515267
v 0.216262 10.01073 -1.269302
v 0.08020564 10.19002 -0.8603207
v -0.4314153 10.24766 -1.391642
v -0.3498924 10.24138 -0.6876463
v -1.72714 9.511282 0.7601405
v -2.040512 9.431128 0.4412885
v -1.265533 10.06882 0.123126
v -1.588621 9.967679 -0.1847922
v -1.308554 9.388363 0.842784
v -0.8554434 9.925552 0.2148318
v -0.2801158 10.22843 -0.6869568
v -0.7162964 10.35797 -0.7376856
v -0.3563935 10.2353 -1.387702
v -1.014451 10.26995 -1.084709
v -2.630344 9.033579 -2.887892
v -2.243131 8.815167 -3.085685
v -1.858911 9.749445 -2.489254
v -1.488111 9.506947 -2.69138
v -2.84748 9.093358 -2.449951
v -2.090453 9.78621 -2.054169
v -1.135842 10.29634 -1.380216
v -0.9476166 10.23643 -1.845935
v -0.3559133 10.25131 -1.283191
v -0.5354337 10.01604 -2.018708
v 1.199906 8.756946 -3.343859
v 1.441188 8.68574 -2.93862
v 0.7482733 9.577087 -2.731372
v 0.9959819 9.479279 -2.336771
v 0.7457369 8.682027 -3.528452
v 0.2990658 9.476887 -2.924732
v -0.3943783 10.10361 -2.065004
v 0.08628832 10.17538 -1.910651
v -0.4514605 10.25253 -1.296194
v 0.3039414 10.10473 -1.478718

vn -0.2436949 0.9646028 0.1007703
vn -0.5281752 0.8482678 -0.03837833
vn -0.1900427 0.9812518 -0.03207544
vn -0.4696552 0.8643877 -0.1796054
vn 0.06636564 0.97246 0.2234219
vn 0.1272205 0.988176 0.08557767
vn 0.2001743 0.9492941 -0.2424275
vn -0.05227939 0.9452094 -0.3222518
vn 0.05920213 0.8503583 -0.5228633
vn -0.2640297 0.8527926 -0.4505923
vn -0.6908999 0.6447417 -0.3270563
vn -0.5040865 0.7999097 -0.3256402
vn -0.5141006 0.8522578 0.09673383
vn -0.3551703 0.6310443 -0.6896645
vn -0.1652916 0.9355638 -0.3120884
vn -0.06065133 0.7419906 -0.6676612
vn -0.006893831 0.9476511 -0.3192336
vn 0.07025013 0.7367007 -0.6725602
vn -0.0791182 0.9926094 0.09201623
vn -0.2039785 0.9742489 0.09608446
vn -0.2167005 0.5814551 -0.7841882
vn -0.2255665 0.751105 -0.6204525
vn -0.6018716 0.644812 -0.4711349
vn 0.2001375 0.7501597 -0.6302425
vn -0.1694412 0.9319571 -0.3205403
vn 0.2484432 0.8966739 -0.3664043
vn -0.1083619 0.9770889 -0.1831811
vn 0.3030307 0.9194523 -0.2505598
vn -0.5044199 0.8599297 -0.07798452
vn -0.5443034 0.8163366 -0.1932066
vn 0.2880164 0.6778296 -0.6764568
vn 0.07303318 0.7634162 -0.641765
vn -0.1309032 0.4786903 -0.8681707
vn 0.2473104 0.9258173 -0.2858324
vn -0.2270955 0.84658 -0.4813837
vn -0.007975397 0.9901747 -0.1396095
vn -0.3326728 0.8692185 -0.3657707
vn -0.09083685 0.9950997 -0.03905587
vn -0.5228165 0.5727626 -0.6313525
vn -0.4190413 0.557671 -0.7165245
vn 0.3269483 0.9377125 0.1174752
vn 0.156076 0.9873015 -0.02960365
vn 0.3955227 0.8516094 -0.3439816
vn -0.1363413 0.9549845 0.2634691
vn -0.1151183 0.9614146 -0.2498602
vn -0.3804964 0.9221112 0.07023996
vn -0.2459093 0.9149997 -0.3198509
vn -0.4986151 0.866486 0.02419333
vn 0.04480786 0.7959261 -0.6037336
vn 0.1475786 0.8277788 -0.5412977
vn -0.4350224 0.7368957 0.5174365
vn -0.343215 0.8826361 0.3211808
vn 0.07158973 0.8772035 0.4747517
vn -0.6631614 0.7470019 0.04695892
vn -0.1806125 0.9833891 -0.01803665
vn -0.5087005 0.8273793 -0.2380494
vn -0.1261487 0.976208 -0.176365
vn -0.4647205 0.8079631 -0.3622578
vn 0.2390683 0.9702303 0.03872868
vn 0.1988693 0.9667186 0.1609547
vn 0.2337672 0.1932971 -0.9528847
vn 0.0638154 0.3922324 -0.91765
vn -0.3208641 0.1538939 -0.934539
vn 0.4097898 0.5994405 -0.6875635
vn -0.1314775 0.6738979 -0.7270319
vn 0.2340924 0.8228614 -0.5177838
vn -0.1896846 0.7750624 -0.6027423
vn 0.1930568 0.890668 -0.4116307
vn -0.5288046 0.5179735 -0.6723611
vn -0.4848747 0.4291907 -0.7620315
vn -0.6457595 0.1673268 -0.7449809
vn -0.6172299 0.425658 -0.6616968
vn -0.8743865 0.38975 -0.2890385
vn -0.2077834 0.4356732 -0.875794
vn -0.4480617 0.7489567 -0.4881646
vn -0.06880087 0.7013597 -0.7094795
vn -0.3347842 0.8512387 -0.4041193
vn 0.02516135 0.7688083 -0.6389843
vn -0.6220847 0.7768187 -0.09779344
vn -0.7079649 0.6896272 -0.1523156
vn -0.8379587 0.3219527 0.4406493
vn -0.7186722 0.5832269 0.3786247
vn -0.3995019 0.5654385 0.72158
vn -0.8458019 0.5281151 -0.07558908
vn -0.4597096 0.8682387 0.1866247
vn -0.6055281 0.7616961 -0.2305542
vn -0.3301018 0.9410948 0.07330672
vn -0.5005725 0.8042548 -0.3203149
vn -0.09880613 0.8940286 0.4369788
vn -0.1837738 0.8288285 0.5284609
vn 0.2565907 0.5571542 0.7897725
vn 0.164009 0.7659647 0.6216103
vn 0.5556669 0.7445885 0.3698951
vn -0.2826434 0.6718354 0.6846533
vn 0.01608371 0.9597096 0.2805335
vn -0.3933828 0.8363758 0.3817402
vn -0.08132257 0.9882607 0.1293352
vn -0.4638954 0.8463575 0.2616874
vn 0.3328354 0.942194 -0.03861939
vn 0.4039826 0.9118487 0.07300874
vn 0.6581628 0.6890643 -0.303335
vn 0.4601075 0.8135507 -0.3555792
vn 0.3822562 0.5937657 -0.7080415
vn 0.4098406 0.910481 0.05527406
vn 0.1159727 0.9214035 -0.370899
vn 0.1086709 0.9932661 0.04016502
vn -0.03681813 0.9408728 -0.3367534
vn -0.01703749 0.9968255 0.07777623
vn -0.05418047 0.7188781 -0.6930217
vn 0.06877292 0.6981437 -0.7126471
vn 0.4644686 0.8781208 -0.1147732
vn 0.2895844 0.9433179 0.1621498
vn 0.3501455 0.9160916 -0.1953831
vn 0.1667116 0.982547 0.08251566
vn 0.5859604 0.7128263 -0.3853948
vn 0.4612716 0.7527699 -0.4696449
vn 0.1382548 0.8091897 -0.5710498
vn 0.06634849 0.9340679 -0.350878
vn -0.1584482 0.8821205 -0.4435738
vn -0.08738317 0.9863115 -0.1398356
vn 0.07030318 0.8241256 -0.5620275
vn 0.366282 0.8253558 -0.4296807
vn 0.02145474 0.892801 -0.4499405
vn 0.3223641 0.8939105 -0.3114574
vn -0.2358834 0.7376153 -0.6326792
vn -0.290551 0.8055493 -0.5164015
vn -0.3407432 0.9177032 -0.2042426
vn -0.08685697 0.9831072 -0.1611094
vn -0.1641335 0.9834043 0.07730811
vn 0.1519887 0.9875137 -0.04142903
vn -0.443954 0.8717518 -0.2072534
vn -0.3807572 0.7692396 -0.5131224
vn -0.3129098 0.929238 -0.1964802
vn -0.2449112 0.82277 -0.5129018
vn -0.4551597 0.8801651 0.1346823
vn -0.3113874 0.939942 0.1398113
vn 0.02433681 0.996294 0.08249996
vn 0.005035682 0.983642 -0.1800646
vn 0.2520385 0.9541585 -0.1614257
vn 0.0674878 0.9007169 -0.4291325
vn 0.6834139 0.5814262 0.4414624
vn 0.3901746 0.6475433 0.6545623
vn 0.6267395 0.7066689 0.3283546
vn 0.3259294 0.7767918 0.5388551
vn 0.8853313 0.4369441 0.1589602
vn 0.8203332 0.5704125 0.04102515
vn 0.5709754 0.8046638 -0.1627991
vn 0.435726 0.8977598 0.0645792
vn 0.2508266 0.9582025 -0.1376012
vn 0.1999781 0.9562162 0.2136808
vn -0.2537112 0.8114757 0.5264392
vn -0.5251363 0.7926853 0.3096483
vn -0.1634323 0.8940405 0.4171113
vn -0.4508841 0.8729095 0.1863664
vn 0.08202199 0.7217172 0.6873114
vn 0.1625762 0.8181975 0.5514727
vn 0.2575888 0.9454814 0.1992815
vn 0.004089522 0.9926508 0.1209457
vn 0.1226803 0.9854016 -0.1180396
vn -0.2125433 0.9750075 -0.06469799
vn -0.3327964 0.7064165 -0.6246778
vn -0.09588074 0.5632973 -0.8206724
vn -0.2292025 0.7901841 -0.5683975
vn 0.01391863 0.6525061 -0.7576558
vn -0.5257328 0.7705287 -0.3604035
vn -0.4201007 0.8578417 -0.2960124
vn -0.1265866 0.9760869 -0.1767211
vn 0.01245181 0.9184477 -0.3953468
vn 0.1966368 0.9526448 -0.231953
vn 0.2131595 0.8178207 -0.5345394
vn 0.4701024 0.6795257 -0.5632484
vn 0.7144754 0.6274022 -0.3096632
vn 0.4118635 0.7795957 -0.4718043
vn 0.6380541 0.7386654 -0.2173945
vn 0.1851895 0.6532359 -0.734158
vn 0.1118393 0.7520356 -0.649565
vn -0.01361598 0.9222264 -0.3864106
vn 0.2255991 0.9404237 -0.2543788
vn 0.05856269 0.9955556 -0.07375409
vn 0.3877108 0.9206933 -0.04477007

vt 0.75 1
vt 1 1
vt 0.75 0.6718159
vt 1 0.6569189
vt 0.5 1
vt 0.5 0.6562213
vt 0.5 0.3249606
vt 0.75 0.355582
vt 0.75 0.1631106
vt 1 0.3263304
vt 0.2639751 0
vt 0.2530134 0.2521199
vt 0.5 0.2479826
vt 0 0.2585577
vt 0.2380491 0.5962986
vt 0 0.5997736
vt 0.2204969 1
vt 0 1
vt 0.5 1
vt 0.5 0.5940653
vt 0.2639751 0
vt 0.2530134 0.2521199
vt 0.5 0.2479826
vt 0 0.2585577
vt 0.2380491 0.5962986
vt 0 0.5997736
vt 0.2204969 1
vt 0 1
vt 0.5 1
vt 0.5 0.5940653
vt 0.2639751 0
vt 0.2530134 0.2521199
vt 0.5 0.2479826
vt 0 0.2585577
vt 0.2380491 0.5962986
vt 0 0.5997736
vt 0.2204969 1
vt 0 1
vt 0.5 1
vt 0.5 0.5940653
vt 0.2639751 0
vt 0.2530134 0.2521199
vt 0.5 0.2479826
vt 0 0.2585577
vt 0.2380491 0.5962986
vt 0 0.5997736
vt 0.2204969 1
vt 0 1
vt 0.5 1
vt 0.5 0.5940653
vt 0.2639751 0
vt 0.2530134 0.2521199
vt 0.5 0.2479826
vt 0 0.2585577
vt 0.2380491 0.5962986
vt 0 0.5997736
vt 0.2204969 1
vt 0 1
vt 0.5 1
vt 0.5 0.5940653
vt 0.2639751 0
vt 0.2530134 0.2521199
vt 0.5 0.2479826
vt 0 0.2585577
vt 0.2380491 0.5962986
vt 0 0.5997736
vt 0.2204969 1
vt 0 1
vt 0.5 1
vt 0.5 0.5940653
vt 0.2639751 0
vt 0.2530134 0.2521199
vt 0.5 0.2479826
vt 0 0.2585577
vt 0.2380491 0.5962986
vt 0 0.5997736
vt 0.2204969 1
vt 0 1
vt 0.5 1
vt 0.5 0.5940653
vt 0.2639751 0
vt 0.2530134 0.2521199
vt 0.5 0.2479826
vt 0 0.2585577
vt 0.2380491 0.5962986
vt 0 0.5997736
vt 0.2204969 1
vt 0 1
vt 0.5 1
vt 0.5 0.5940653
vt 0.2639751 0
vt 0.2530134 0.2521199
vt 0.5 0.2479826
vt 0 0.2585577
vt 0.2380491 0.5962986
vt 0 0.5997736
vt 0.2204969 1
vt 0 1
vt 0.5 1
vt 0.5 0.5940653
vt 0.2639751 0
vt 0.2530134 0.2521199
vt 0.5 0.2479826
vt 0 0.2585577
vt 0.2380491 0.5962986
vt 0 0.5997736
vt 0.2204969 1
vt 0 1
vt 0.5 1
vt 0.5 0.5940653
vt 0.75 1
vt 1 1
vt 0.75 0.6718159
vt 1 0.6569189
vt 0.5 1
vt 0.5 0.6562213
vt 0.5 0.3249606
vt 0.75 0.355582
vt 0.75 0.1631106
vt 1 0.3263304
vt 0.75 1
vt 1 1
vt 0.75 0.6718159
vt 1 0.6569189
vt 0.5 1
vt 0.5 0.6562213
vt 0.5 0.3249606
vt 0.75 0.355582
vt 0.75 0.1631106
vt 1 0.3263304
vt 0.75 1
vt 1 1
vt 0.75 0.6718159
vt 1 0.6569189
vt 0.5 1
vt 0.5 0.6562213
vt 0.5 0.3249606
vt 0.75 0.355582
vt 0.75 0.1631106
vt 1 0.3263304
vt 0.75 1
vt 1 1
vt 0.75 0.6718159
vt 1 0.6569189
vt 0.5 1
vt 0.5 0.6562213
vt 0.5 0.3249606
vt 0.75 0.355582
vt 0.75 0.1631106
vt 1 0.3263304
vt 0.75 1
vt 1 1
vt 0.75 0.6718159
vt 1 0.6569189
vt 0.5 1
vt 0.5 0.6562213
vt 0.5 0.3249606
vt 0.75 0.355582
vt 0.75 0.1631106
vt 1 0.3263304
vt 0.75 1
vt 1 1
vt 0.75 0.6718159
vt 1 0.6569189
vt 0.5 1
vt 0.5 0.6562213
vt 0.5 0.3249606
vt 0.75 0.355582
vt 0.75 0.1631106
vt 1 0.3263304
vt 0.75 1
vt 1 1
vt 0.75 0.6718159
vt 1 0.6569189
vt 0.5 1
vt 0.5 0.6562213
vt 0.5 0.3249606
vt 0.75 0.355582
vt 0.75 0.1631106
vt 1 0.3263304

g Palm_B(Clone)_33816_525
usemtl Palm_B(Clone)_33816_525
usemap Palm_B(Clone)_33816_525
f 1/1/1 3/3/3 2/2/2
f 3/3/3 4/4/4 2/2/2
f 1/1/1 5/5/5 3/3/3
f 6/6/6 3/3/3 5/5/5
f 6/6/6 7/7/7 3/3/3
f 7/7/7 8/8/8 3/3/3
f 7/7/7 9/9/9 8/8/8
f 9/9/9 10/10/10 8/8/8
f 4/4/4 3/3/3 10/10/10
f 8/8/8 10/10/10 3/3/3
f 11/11/11 13/13/13 12/12/12
f 14/14/14 11/11/11 12/12/12
f 12/12/12 15/15/15 14/14/14
f 14/14/14 15/15/15 16/16/16
f 15/15/15 17/17/17 16/16/16
f 16/16/16 17/17/17 18/18/18
f 17/17/17 15/15/15 19/19/19
f 15/15/15 20/20/20 19/19/19
f 15/15/15 12/12/12 20/20/20
f 12/12/12 13/13/13 20/20/20
f 21/21/21 23/23/23 22/22/22
f 24/24/24 21/21/21 22/22/22
f 22/22/22 25/25/25 24/24/24
f 24/24/24 25/25/25 26/26/26
f 25/25/25 27/27/27 26/26/26
f 26/26/26 27/27/27 28/28/28
f 27/27/27 25/25/25 29/29/29
f 25/25/25 30/30/30 29/29/29
f 25/25/25 22/22/22 30/30/30
f 22/22/22 23/23/23 30/30/30
f 31/31/31 33/33/33 32/32/32
f 34/34/34 31/31/31 32/32/32
f 32/32/32 35/35/35 34/34/34
f 34/34/34 35/35/35 36/36/36
f 35/35/35 37/37/37 36/36/36
f 36/36/36 37/37/37 38/38/38
f 37/37/37 35/35/35 39/39/39
f 35/35/35 40/40/40 39/39/39
f 35/35/35 32/32/32 40/40/40
f 32/32/32 33/33/33 40/40/40
f 41/41/41 43/43/43 42/42/42
f 44/44/44 41/41/41 42/42/42
f 42/42/42 45/45/45 44/44/44
f 44/44/44 45/45/45 46/46/46
f 45/45/45 47/47/47 46/46/46
f 46/46/46 47/47/47 48/48/48
f 47/47/47 45/45/45 49/49/49
f 45/45/45 50/50/50 49/49/49
f 45/45/45 42/42/42 50/50/50
f 42/42/42 43/43/43 50/50/50
f 51/51/51 53/53/53 52/52/52
f 54/54/54 51/51/51 52/52/52
f 52/52/52 55/55/55 54/54/54
f 54/54/54 55/55/55 56/56/56
f 55/55/55 57/57/57 56/56/56
f 56/56/56 57/57/57 58/58/58
f 57/57/57 55/55/55 59/59/59
f 55/55/55 60/60/60 59/59/59
f 55/55/55 52/52/52 60/60/60
f 52/52/52 53/53/53 60/60/60
f 61/61/61 63/63/63 62/62/62
f 64/64/64 61/61/61 62/62/62
f 62/62/62 65/65/65 64/64/64
f 64/64/64 65/65/65 66/66/66
f 65/65/65 67/67/67 66/66/66
f 66/66/66 67/67/67 68/68/68
f 67/67/67 65/65/65 69/69/69
f 65/65/65 70/70/70 69/69/69
f 65/65/65 62/62/62 70/70/70
f 62/62/62 63/63/63 70/70/70
f 71/71/71 73/73/73 72/72/72
f 74/74/74 71/71/71 72/72/72
f 72/72/72 75/75/75 74/74/74
f 74/74/74 75/75/75 76/76/76
f 75/75/75 77/77/77 76/76/76
f 76/76/76 77/77/77 78/78/78
f 77/77/77 75/75/75 79/79/79
f 75/75/75 80/80/80 79/79/79
f 75/75/75 72/72/72 80/80/80
f 72/72/72 73/73/73 80/80/80
f 81/81/81 83/83/83 82/82/82
f 84/84/84 81/81/81 82/82/82
f 82/82/82 85/85/85 84/84/84
f 84/84/84 85/85/85 86/86/86
f 85/85/85 87/87/87 86/86/86
f 86/86/86 87/87/87 88/88/88
f 87/87/87 85/85/85 89/89/89
f 85/85/85 90/90/90 89/89/89
f 85/85/85 82/82/82 90/90/90
f 82/82/82 83/83/83 90/90/90
f 91/91/91 93/93/93 92/92/92
f 94/94/94 91/91/91 92/92/92
f 92/92/92 95/95/95 94/94/94
f 94/94/94 95/95/95 96/96/96
f 95/95/95 97/97/97 96/96/96
f 96/96/96 97/97/97 98/98/98
f 97/97/97 95/95/95 99/99/99
f 95/95/95 100/100/100 99/99/99
f 95/95/95 92/92/92 100/100/100
f 92/92/92 93/93/93 100/100/100
f 101/101/101 103/103/103 102/102/102
f 104/104/104 101/101/101 102/102/102
f 102/102/102 105/105/105 104/104/104
f 104/104/104 105/105/105 106/106/106
f 105/105/105 107/107/107 106/106/106
f 106/106/106 107/107/107 108/108/108
f 107/107/107 105/105/105 109/109/109
f 105/105/105 110/110/110 109/109/109
f 105/105/105 102/102/102 110/110/110
f 102/102/102 103/103/103 110/110/110
f 111/111/111 113/113/113 112/112/112
f 113/113/113 114/114/114 112/112/112
f 111/111/111 115/115/115 113/113/113
f 116/116/116 113/113/113 115/115/115
f 116/116/116 117/117/117 113/113/113
f 117/117/117 118/118/118 113/113/113
f 117/117/117 119/119/119 118/118/118
f 119/119/119 120/120/120 118/118/118
f 114/114/114 113/113/113 120/120/120
f 118/118/118 120/120/120 113/113/113
f 121/121/121 123/123/123 122/122/122
f 123/123/123 124/124/124 122/122/122
f 121/121/121 125/125/125 123/123/123
f 126/126/126 123/123/123 125/125/125
f 126/126/126 127/127/127 123/123/123
f 127/127/127 128/128/128 123/123/123
f 127/127/127 129/129/129 128/128/128
f 129/129/129 130/130/130 128/128/128
f 124/124/124 123/123/123 130/130/130
f 128/128/128 130/130/130 123/123/123
f 131/131/131 133/133/133 132/132/132
f 133/133/133 134/134/134 132/132/132
f 131/131/131 135/135/135 133/133/133
f 136/136/136 133/133/133 135/135/135
f 136/136/136 137/137/137 133/133/133
f 137/137/137 138/138/138 133/133/133
f 137/137/137 139/139/139 138/138/138
f 139/139/139 140/140/140 138/138/138
f 134/134/134 133/133/133 140/140/140
f 138/138/138 140/140/140 133/133/133
f 141/141/141 143/143/143 142/142/142
f 143/143/143 144/144/144 142/142/142
f 141/141/141 145/145/145 143/143/143
f 146/146/146 143/143/143 145/145/145
f 146/146/146 147/147/147 143/143/143
f 147/147/147 148/148/148 143/143/143
f 147/147/147 149/149/149 148/148/148
f 149/149/149 150/150/150 148/148/148
f 144/144/144 143/143/143 150/150/150
f 148/148/148 150/150/150 143/143/143
f 151/151/151 153/153/153 152/152/152
f 153/153/153 154/154/154 152/152/152
f 151/151/151 155/155/155 153/153/153
f 156/156/156 153/153/153 155/155/155
f 156/156/156 157/157/157 153/153/153
f 157/157/157 158/158/158 153/153/153
f 157/157/157 159/159/159 158/158/158
f 159/159/159 160/160/160 158/158/158
f 154/154/154 153/153/153 160/160/160
f 158/158/158 160/160/160 153/153/153
f 161/161/161 163/163/163 162/162/162
f 163/163/163 164/164/164 162/162/162
f 161/161/161 165/165/165 163/163/163
f 166/166/166 163/163/163 165/165/165
f 166/166/166 167/167/167 163/163/163
f 167/167/167 168/168/168 163/163/163
f 167/167/167 169/169/169 168/168/168
f 169/169/169 170/170/170 168/168/168
f 164/164/164 163/163/163 170/170/170
f 168/168/168 170/170/170 163/163/163
f 171/171/171 173/173/173 172/172/172
f 173/173/173 174/174/174 172/172/172
f 171/171/171 175/175/175 173/173/173
f 176/176/176 173/173/173 175/175/175
f 176/176/176 177/177/177 173/173/173
f 177/177/177 178/178/178 173/173/173
f 177/177/177 179/179/179 178/178/178
f 179/179/179 180/180/180 178/178/178
f 174/174/174 173/173/173 180/180/180
f 178/178/178 180/180/180 173/173/173
