#Palm_A(Clone)_35790_37.obj

v -2.216185 11.16238 3.70136
v -2.731719 10.92435 3.251511
v -1.618287 12.10966 2.382488
v -2.145354 11.8342 1.96029
v -1.527145 10.99217 3.846329
v -0.9391414 11.90294 2.551628
v -0.1496546 12.34251 0.9028067
v -0.8646415 12.52929 0.8084698
v -0.3356087 12.21416 -0.2269901
v -1.357505 12.27287 0.3148195
v -0.374988 12.24374 -0.2056132
v 0.5788956 13.39154 0.01136615
v 0.5638908 13.01123 0.6468493
v 0.8540922 13.11528 -0.6364024
v 2.356534 14.05098 0.3353858
v 2.608994 13.76642 -0.2744859
v 4.30355 14.08572 0.6424432
v 4.414021 13.77014 0.05463642
v 4.178204 13.68627 1.349101
v 2.343757 13.67165 1.013934
v -0.3751191 12.26928 -0.1940812
v -0.3524483 13.2331 0.965684
v -0.9041519 12.75781 1.101546
v 0.3769536 13.03506 0.94778
v -0.07502425 13.59592 2.83413
v 0.6119843 13.38639 2.806782
v 0.3479919 13.32898 4.741046
v 0.9661357 13.1037 4.58479
v -0.3076967 12.83734 4.796167
v -0.6657795 13.11415 2.987061
v -0.3830474 12.27324 -0.1833928
v -1.606165 13.03113 0.2683553
v -1.848993 12.49268 -0.1786344
v -1.277895 12.9046 0.9375746
v -3.264159 13.10472 1.2407
v -2.941131 12.96467 1.86737
v -4.784817 12.56634 2.373969
v -4.367894 12.4259 2.887555
v -4.990559 12.01584 1.80016
v -3.536014 12.55361 0.7644215
v -0.38901 12.24584 -0.2008383
v -1.400095 13.12814 -0.8891659
v -0.9573562 12.86528 -1.421704
v -1.864391 12.69554 -0.4781565
v -2.882094 13.3483 -2.095371
v -3.306552 12.91937 -1.704821
v -4.32373 12.92607 -3.372038
v -4.612359 12.50748 -2.926195
v -3.750077 12.68416 -3.907762
v -2.420091 13.0923 -2.665863
v -0.3871753 12.20864 -0.2312737
v -0.03800321 13.55083 -0.8238393
v 0.6048428 13.22997 -0.6436263
v -0.5015783 13.28899 -1.36071
v 0.7675366 14.60671 -2.215188
v 0.3326606 14.33495 -2.718855
v 1.712247 15.0907 -3.876474
v 1.254111 14.75961 -4.247686
v 2.386348 14.73301 -3.572693
v 1.451007 14.29085 -2.021141
v -0.3968072 12.23937 -0.1489358
v -1.130468 13.49221 0.259223
v -1.641154 12.9574 0.2159369
v -0.5713606 13.49811 0.7681239
v -2.145026 14.49027 1.553146
v -1.6118 14.47153 2.034781
v -3.08266 14.96532 3.220977
v -2.516804 14.8731 3.579568
v -3.618901 14.36256 3.066638
v -2.696468 13.94471 1.500662
v -0.3867166 12.21918 -0.2473186
v -0.3047475 13.59071 0.3745354
v -0.586693 13.14396 0.8937479
v 0.3989039 13.52865 0.1047937
v 0.4387417 14.79531 1.676789
v 1.105635 14.71194 1.421929
v 1.534417 15.48828 3.161999
v 2.103091 15.32178 2.836096
v 1.139444 14.97376 3.665871
v 0.1301938 14.34412 2.229664
v -0.3951036 12.20371 -0.2408319
v -0.05726708 13.66333 -0.06791683
v 0.4730759 13.28445 0.2840401
v -0.1613175 13.6424 -0.8165089
v 1.099869 15.16337 -0.4003806
v 1.006957 15.11972 -1.111805
v 2.606112 16.24037 -1.077053
v 2.441911 16.09071 -1.715763
v 3.112473 15.77853 -0.6243626
v 1.657994 14.78283 -0.01546559
v -0.3953001 12.20049 -0.2248934
v -0.7921073 13.6368 -0.4574676
v -0.2104597 13.50829 -0.8977247
v -1.464439 13.30149 -0.5421152
v -1.48023 15.01714 -1.606758
v -2.107874 14.67779 -1.693805
v -2.219067 15.9233 -3.194036
v -2.752555 15.50769 -3.197894
v -1.518429 15.75715 -3.589206
v -0.863003 14.90422 -2.065845
v -0.3886823 12.24148 -0.180133
v -1.42329 13.33881 -0.173925
v -1.533631 12.95305 -0.7965819
v -1.530224 13.05621 0.5191446
v -3.258786 13.9069 -0.08547752
v -3.351829 13.61672 0.5655181
v -5.224017 13.84294 0.05738692
v -5.18241 13.52852 0.6546456
v -5.242232 13.44272 -0.6596476
v -3.381248 13.52155 -0.7495531
v 3.380527 11.05939 1.75758
v 2.918525 10.9003 2.292395
v 2.1274 12.04047 1.078294
v 1.690427 11.84327 1.627917
v 3.508625 10.81895 1.086346
v 2.27712 11.76294 0.4201319
v 0.6579819 12.24583 -0.404631
v 0.581713 12.50146 0.2909366
v -0.4768108 12.2144 -0.2075871
v 0.07456504 12.32518 0.8048252
v 1.085979 12.2661 -4.28365
v 1.683941 12.04348 -3.940596
v 0.5108176 12.81949 -2.748323
v 1.122606 12.56813 -2.441061
v 0.4203306 12.00517 -4.400167
v -0.1423155 12.52975 -2.896905
v -0.7839168 12.49557 -1.12993
v -0.1016915 12.78686 -1.061499
v -0.443132 12.18906 -0.07286363
v 0.4823148 12.53402 -0.6776655
v -4.677948 11.40567 -0.6700654
v -4.451239 11.31241 -1.351726
v -3.200667 12.25979 -0.3829189
v -3.005146 12.13129 -1.073703
v -4.572063 11.07806 -0.03270666
v -3.12217 11.89764 0.2457989
v -1.285889 12.23129 0.473377
v -1.44773 12.5783 -0.165669
v -0.3029127 12.20504 -0.1270675
v -1.172599 12.46426 -0.8465922
v 0.8337143 10.10278 1.083225
v 0.426751 10.08381 1.28488
v 0.5876756 11.12139 0.7988465
v 0.1805812 11.07238 1.002148
v 0.9950975 10.04718 0.6619365
v 0.7478138 11.03766 0.3780742
v 0.2162914 11.943 -0.1601565
v 0.08020009 11.98566 0.2850231
v -0.4314033 12.26199 -0.198029
v -0.3498928 11.97588 0.4650066
v -1.727121 10.56855 1.593419
v -2.040517 10.60333 1.265976
v -1.265511 11.45757 1.174449
v -1.588605 11.46408 0.8503882
v -1.30856 10.39541 1.631259
v -0.8554683 11.25764 1.214082
v -0.2801108 11.96081 0.4614519
v -0.7162974 12.12883 0.4559561
v -0.3563795 12.24632 -0.1983647
v -1.014427 12.16582 0.09928159
v -2.630354 11.46853 -2.009568
v -2.243114 11.29752 -2.268056
v -1.858887 12.12803 -1.398345
v -1.488092 11.93118 -1.668709
v -2.847498 11.36327 -1.576248
v -2.090445 11.9976 -0.9752057
v -1.135841 12.31306 -0.1712629
v -0.9475933 12.42918 -0.630874
v -0.3559209 12.2232 -0.09439612
v -0.5354537 12.246 -0.8663964
v 1.199923 11.33335 -2.53109
v 1.441178 11.09146 -2.171549
v 0.7482728 12.02715 -1.683566
v 0.9959496 11.75909 -1.342781
v 0.7457175 11.32093 -2.729993
v 0.2990472 11.98935 -1.89908
v -0.3943827 12.36433 -0.8814175
v 0.08629388 12.38512 -0.7120733
v -0.4514534 12.22973 -0.1062394
v 0.3039612 12.1333 -0.3271829

vn -0.2805036 0.8353266 0.4728074
vn -0.5938464 0.7572224 0.2719564
vn -0.2177884 0.9158344 0.3373646
vn -0.540272 0.831034 0.1322433
vn 0.07527807 0.7948563 0.6021098
vn 0.1475017 0.8698201 0.4708035
vn 0.2393897 0.9659479 0.09816723
vn -0.06012164 0.9981716 0.006195446
vn 0.07044365 0.9637571 -0.2573119
vn -0.3129035 0.9339473 -0.1727231
vn -0.7550291 0.647288 -0.1046366
vn -0.558868 0.8276812 -0.05108895
vn -0.5771479 0.7066939 0.4092475
vn -0.4045195 0.7644458 -0.5019822
vn -0.1935847 0.9810162 0.01147549
vn -0.07177665 0.8885964 -0.4530388
vn -0.0082755 0.9999149 0.01006865
vn 0.08194046 0.8844287 -0.4594248
vn -0.09200211 0.872792 0.4793426
vn -0.2369227 0.8484864 0.4732209
vn -0.2493093 0.747188 -0.6160799
vn -0.246838 0.8895074 -0.384509
vn -0.6659938 0.6972283 -0.2651884
vn 0.2332671 0.8826188 -0.4081299
vn -0.1880865 0.9821515 0.001251453
vn 0.295956 0.9531696 -0.06226765
vn -0.1211835 0.9770738 0.1750454
vn 0.3584172 0.9304184 0.07653993
vn -0.5718039 0.7857199 0.2359748
vn -0.6163981 0.7815746 0.09588645
vn 0.3256792 0.8131496 -0.482411
vn 0.09000019 0.9150481 -0.3931748
vn -0.1405302 0.6691509 -0.7297176
vn 0.2938452 0.9549987 0.0404009
vn -0.2550205 0.9478116 -0.1913567
vn -0.009410185 0.9729618 0.2307729
vn -0.3865121 0.9201759 -0.06232345
vn -0.1075353 0.9333375 0.3425153
vn -0.5761347 0.6819835 -0.4505186
vn -0.4650974 0.6969957 -0.5457846
vn 0.3687665 0.7964658 0.4792214
vn 0.1819227 0.9261543 0.3303662
vn 0.4624652 0.8850877 -0.05239627
vn -0.1495597 0.7577832 0.6351346
vn -0.1298891 0.98781 0.08578921
vn -0.4330204 0.7979022 0.4193389
vn -0.2870778 0.9578587 -0.00962178
vn -0.5600379 0.7533406 0.3447247
vn 0.05299876 0.9291564 -0.3658673
vn 0.1751381 0.9423876 -0.2850119
vn -0.4554152 0.4560389 0.7646078
vn -0.3667178 0.6786536 0.6363544
vn 0.07248722 0.594883 0.8005369
vn -0.722091 0.6137977 0.3191186
vn -0.2076238 0.9126537 0.3520726
vn -0.5822607 0.8111728 0.05450618
vn -0.1485647 0.9713591 0.1854443
vn -0.5349942 0.8401484 -0.08905936
vn 0.277505 0.868052 0.4116749
vn 0.2260733 0.812281 0.5376709
vn 0.2259025 0.418835 -0.8795139
vn 0.07724418 0.6227765 -0.7785771
vn -0.319323 0.375348 -0.8701415
vn 0.4545196 0.7353517 -0.5026622
vn -0.1308953 0.8454019 -0.5178431
vn 0.2752942 0.9261695 -0.2577264
vn -0.1947453 0.9136889 -0.3567161
vn 0.2308717 0.9660596 -0.1158734
vn -0.5766577 0.6402191 -0.5075284
vn -0.5182449 0.5801305 -0.6283874
vn -0.674835 0.3378307 -0.6561005
vn -0.6434739 0.5673275 -0.5138876
vn -0.9089588 0.3833599 -0.1637957
vn -0.225686 0.6295518 -0.7434582
vn -0.4945987 0.8318694 -0.2517244
vn -0.07921098 0.8573684 -0.5085711
vn -0.3762084 0.9165732 -0.1354999
vn 0.02957778 0.9100987 -0.413334
vn -0.6891476 0.7019653 0.1797779
vn -0.7735965 0.627982 0.08477539
vn -0.8329768 0.1290585 0.5380461
vn -0.7363036 0.382282 0.5583163
vn -0.4174272 0.2318922 0.878624
vn -0.8844796 0.4542211 0.1066725
vn -0.5079292 0.7056622 0.4940126
vn -0.6753759 0.7366154 0.03556564
vn -0.3895691 0.8237646 0.4118827
vn -0.5726706 0.8185732 -0.04456413
vn -0.1075126 0.6313683 0.7679939
vn -0.2008187 0.5317414 0.822753
vn 0.2452813 0.2206222 0.944014
vn 0.1758218 0.4710651 0.864398
vn 0.5884457 0.5077052 0.6292589
vn -0.2835595 0.3336345 0.8990448
vn 0.02957279 0.7687373 0.6388801
vn -0.4224293 0.5888676 0.6890486
vn -0.06821617 0.8585337 0.5081989
vn -0.5063725 0.644642 0.5727331
vn 0.3860961 0.8666269 0.3160498
vn 0.4571555 0.7859016 0.4163738
vn 0.7256809 0.684577 -0.06885682
vn 0.5137004 0.8545701 -0.07629811
vn 0.4331822 0.7297977 -0.5289121
vn 0.4689573 0.7885776 0.3977742
vn 0.1365117 0.9891527 -0.0542322
vn 0.1279895 0.8957508 0.4257331
vn -0.04434375 0.998958 -0.01077757
vn -0.01987062 0.8841227 0.4668318
vn -0.06292065 0.8711759 -0.486922
vn 0.08064622 0.8540664 -0.5138738
vn 0.5320887 0.8215151 0.2049247
vn 0.3283432 0.7858526 0.5240478
vn 0.4022169 0.9054835 0.1353541
vn 0.1937954 0.8642812 0.4641779
vn 0.6558652 0.740645 -0.1458958
vn 0.529662 0.8179731 -0.2244502
vn 0.164085 0.9315863 -0.3243803
vn 0.07660158 0.9966444 -0.02883988
vn -0.1895422 0.9694373 -0.1557706
vn -0.1047068 0.9678547 0.2286772
vn 0.08399418 0.9470543 -0.3098912
vn 0.4279605 0.889861 -0.1581038
vn 0.02630721 0.9874671 -0.1556153
vn 0.3808232 0.9246458 -0.001878949
vn -0.2739203 0.8684926 -0.4131438
vn -0.3405413 0.9026292 -0.2632331
vn -0.4002677 0.9074347 0.1278582
vn -0.1007137 0.9750307 0.1979179
vn -0.190924 0.8677903 0.4587893
vn 0.1790123 0.9244766 0.3365965
vn -0.5129256 0.8520632 0.1043811
vn -0.4405285 0.85651 -0.2689326
vn -0.3613505 0.9231529 0.1312034
vn -0.2884461 0.9233557 -0.253402
vn -0.5074384 0.7263014 0.4636724
vn -0.3564767 0.7896594 0.4993616
vn 0.02740534 0.8813585 0.4716522
vn 0.006927939 0.9845874 0.1747544
vn 0.2984214 0.9350594 0.1913325
vn 0.08109236 0.9878367 -0.1326735
vn 0.703724 0.3435912 0.621866
vn 0.4009699 0.3368739 0.851903
vn 0.6555457 0.4971219 0.5684446
vn 0.3430271 0.4858061 0.803943
vn 0.9038845 0.3045664 0.3003867
vn 0.8593721 0.4531348 0.2369565
vn 0.6379966 0.7602937 0.1221211
vn 0.4821348 0.7820114 0.3949732
vn 0.2960902 0.9298726 0.2183278
vn 0.2237227 0.7852898 0.5772935
vn -0.259284 0.5185999 0.8147548
vn -0.5634304 0.5747485 0.5934728
vn -0.1834527 0.6493937 0.7379921
vn -0.4968189 0.7025865 0.5094535
vn 0.0845584 0.3907819 0.9165909
vn 0.1692873 0.5139698 0.8409379
vn 0.2901146 0.7716237 0.5660653
vn -0.0005187445 0.869388 0.4941294
vn 0.1441237 0.9571603 0.2511414
vn -0.2448988 0.9218673 0.3003079
vn -0.3813224 0.8276682 -0.4117746
vn -0.1074107 0.7423056 -0.6613961
vn -0.2660381 0.9098458 -0.3184397
vn 0.0143143 0.8175831 -0.5756325
vn -0.5974899 0.795612 -0.1000351
vn -0.4886534 0.8724763 0.001565644
vn -0.1514378 0.9713048 0.1833927
vn 0.01419143 0.9964218 -0.08331729
vn 0.2354058 0.9655291 0.1110725
vn 0.2515025 0.926366 -0.2803429
vn 0.5333375 0.7713505 -0.3472306
vn 0.7759193 0.6237495 -0.0942639
vn 0.4610163 0.8592859 -0.221566
vn 0.7101187 0.703113 0.03692443
vn 0.2116138 0.8098806 -0.5470946
vn 0.1299391 0.894511 -0.4277445
vn -0.01674509 0.9970514 -0.07488424
vn 0.2572716 0.9632882 0.07672381
vn 0.07037272 0.949434 0.3059775
vn 0.4491829 0.8425471 0.297235

vt 0.75 1
vt 1 1
vt 0.75 0.6718159
vt 1 0.6569189
vt 0.5 1
vt 0.5 0.6562213
vt 0.5 0.3249606
vt 0.75 0.355582
vt 0.75 0.1631106
vt 1 0.3263304
vt 0.2639751 0
vt 0.2530134 0.2521199
vt 0.5 0.2479826
vt 0 0.2585577
vt 0.2380491 0.5962986
vt 0 0.5997736
vt 0.2204969 1
vt 0 1
vt 0.5 1
vt 0.5 0.5940653
vt 0.2639751 0
vt 0.2530134 0.2521199
vt 0.5 0.2479826
vt 0 0.2585577
vt 0.2380491 0.5962986
vt 0 0.5997736
vt 0.2204969 1
vt 0 1
vt 0.5 1
vt 0.5 0.5940653
vt 0.2639751 0
vt 0.2530134 0.2521199
vt 0.5 0.2479826
vt 0 0.2585577
vt 0.2380491 0.5962986
vt 0 0.5997736
vt 0.2204969 1
vt 0 1
vt 0.5 1
vt 0.5 0.5940653
vt 0.2639751 0
vt 0.2530134 0.2521199
vt 0.5 0.2479826
vt 0 0.2585577
vt 0.2380491 0.5962986
vt 0 0.5997736
vt 0.2204969 1
vt 0 1
vt 0.5 1
vt 0.5 0.5940653
vt 0.2639751 0
vt 0.2530134 0.2521199
vt 0.5 0.2479826
vt 0 0.2585577
vt 0.2380491 0.5962986
vt 0 0.5997736
vt 0.2204969 1
vt 0 1
vt 0.5 1
vt 0.5 0.5940653
vt 0.2639751 0
vt 0.2530134 0.2521199
vt 0.5 0.2479826
vt 0 0.2585577
vt 0.2380491 0.5962986
vt 0 0.5997736
vt 0.2204969 1
vt 0 1
vt 0.5 1
vt 0.5 0.5940653
vt 0.2639751 0
vt 0.2530134 0.2521199
vt 0.5 0.2479826
vt 0 0.2585577
vt 0.2380491 0.5962986
vt 0 0.5997736
vt 0.2204969 1
vt 0 1
vt 0.5 1
vt 0.5 0.5940653
vt 0.2639751 0
vt 0.2530134 0.2521199
vt 0.5 0.2479826
vt 0 0.2585577
vt 0.2380491 0.5962986
vt 0 0.5997736
vt 0.2204969 1
vt 0 1
vt 0.5 1
vt 0.5 0.5940653
vt 0.2639751 0
vt 0.2530134 0.2521199
vt 0.5 0.2479826
vt 0 0.2585577
vt 0.2380491 0.5962986
vt 0 0.5997736
vt 0.2204969 1
vt 0 1
vt 0.5 1
vt 0.5 0.5940653
vt 0.2639751 0
vt 0.2530134 0.2521199
vt 0.5 0.2479826
vt 0 0.2585577
vt 0.2380491 0.5962986
vt 0 0.5997736
vt 0.2204969 1
vt 0 1
vt 0.5 1
vt 0.5 0.5940653
vt 0.75 1
vt 1 1
vt 0.75 0.6718159
vt 1 0.6569189
vt 0.5 1
vt 0.5 0.6562213
vt 0.5 0.3249606
vt 0.75 0.355582
vt 0.75 0.1631106
vt 1 0.3263304
vt 0.75 1
vt 1 1
vt 0.75 0.6718159
vt 1 0.6569189
vt 0.5 1
vt 0.5 0.6562213
vt 0.5 0.3249606
vt 0.75 0.355582
vt 0.75 0.1631106
vt 1 0.3263304
vt 0.75 1
vt 1 1
vt 0.75 0.6718159
vt 1 0.6569189
vt 0.5 1
vt 0.5 0.6562213
vt 0.5 0.3249606
vt 0.75 0.355582
vt 0.75 0.1631106
vt 1 0.3263304
vt 0.75 1
vt 1 1
vt 0.75 0.6718159
vt 1 0.6569189
vt 0.5 1
vt 0.5 0.6562213
vt 0.5 0.3249606
vt 0.75 0.355582
vt 0.75 0.1631106
vt 1 0.3263304
vt 0.75 1
vt 1 1
vt 0.75 0.6718159
vt 1 0.6569189
vt 0.5 1
vt 0.5 0.6562213
vt 0.5 0.3249606
vt 0.75 0.355582
vt 0.75 0.1631106
vt 1 0.3263304
vt 0.75 1
vt 1 1
vt 0.75 0.6718159
vt 1 0.6569189
vt 0.5 1
vt 0.5 0.6562213
vt 0.5 0.3249606
vt 0.75 0.355582
vt 0.75 0.1631106
vt 1 0.3263304
vt 0.75 1
vt 1 1
vt 0.75 0.6718159
vt 1 0.6569189
vt 0.5 1
vt 0.5 0.6562213
vt 0.5 0.3249606
vt 0.75 0.355582
vt 0.75 0.1631106
vt 1 0.3263304

g Palm_A(Clone)_35790_37
usemtl Palm_A(Clone)_35790_37
usemap Palm_A(Clone)_35790_37
f 1/1/1 3/3/3 2/2/2
f 3/3/3 4/4/4 2/2/2
f 1/1/1 5/5/5 3/3/3
f 6/6/6 3/3/3 5/5/5
f 6/6/6 7/7/7 3/3/3
f 7/7/7 8/8/8 3/3/3
f 7/7/7 9/9/9 8/8/8
f 9/9/9 10/10/10 8/8/8
f 4/4/4 3/3/3 10/10/10
f 8/8/8 10/10/10 3/3/3
f 11/11/11 13/13/13 12/12/12
f 14/14/14 11/11/11 12/12/12
f 12/12/12 15/15/15 14/14/14
f 14/14/14 15/15/15 16/16/16
f 15/15/15 17/17/17 16/16/16
f 16/16/16 17/17/17 18/18/18
f 17/17/17 15/15/15 19/19/19
f 15/15/15 20/20/20 19/19/19
f 15/15/15 12/12/12 20/20/20
f 12/12/12 13/13/13 20/20/20
f 21/21/21 23/23/23 22/22/22
f 24/24/24 21/21/21 22/22/22
f 22/22/22 25/25/25 24/24/24
f 24/24/24 25/25/25 26/26/26
f 25/25/25 27/27/27 26/26/26
f 26/26/26 27/27/27 28/28/28
f 27/27/27 25/25/25 29/29/29
f 25/25/25 30/30/30 29/29/29
f 25/25/25 22/22/22 30/30/30
f 22/22/22 23/23/23 30/30/30
f 31/31/31 33/33/33 32/32/32
f 34/34/34 31/31/31 32/32/32
f 32/32/32 35/35/35 34/34/34
f 34/34/34 35/35/35 36/36/36
f 35/35/35 37/37/37 36/36/36
f 36/36/36 37/37/37 38/38/38
f 37/37/37 35/35/35 39/39/39
f 35/35/35 40/40/40 39/39/39
f 35/35/35 32/32/32 40/40/40
f 32/32/32 33/33/33 40/40/40
f 41/41/41 43/43/43 42/42/42
f 44/44/44 41/41/41 42/42/42
f 42/42/42 45/45/45 44/44/44
f 44/44/44 45/45/45 46/46/46
f 45/45/45 47/47/47 46/46/46
f 46/46/46 47/47/47 48/48/48
f 47/47/47 45/45/45 49/49/49
f 45/45/45 50/50/50 49/49/49
f 45/45/45 42/42/42 50/50/50
f 42/42/42 43/43/43 50/50/50
f 51/51/51 53/53/53 52/52/52
f 54/54/54 51/51/51 52/52/52
f 52/52/52 55/55/55 54/54/54
f 54/54/54 55/55/55 56/56/56
f 55/55/55 57/57/57 56/56/56
f 56/56/56 57/57/57 58/58/58
f 57/57/57 55/55/55 59/59/59
f 55/55/55 60/60/60 59/59/59
f 55/55/55 52/52/52 60/60/60
f 52/52/52 53/53/53 60/60/60
f 61/61/61 63/63/63 62/62/62
f 64/64/64 61/61/61 62/62/62
f 62/62/62 65/65/65 64/64/64
f 64/64/64 65/65/65 66/66/66
f 65/65/65 67/67/67 66/66/66
f 66/66/66 67/67/67 68/68/68
f 67/67/67 65/65/65 69/69/69
f 65/65/65 70/70/70 69/69/69
f 65/65/65 62/62/62 70/70/70
f 62/62/62 63/63/63 70/70/70
f 71/71/71 73/73/73 72/72/72
f 74/74/74 71/71/71 72/72/72
f 72/72/72 75/75/75 74/74/74
f 74/74/74 75/75/75 76/76/76
f 75/75/75 77/77/77 76/76/76
f 76/76/76 77/77/77 78/78/78
f 77/77/77 75/75/75 79/79/79
f 75/75/75 80/80/80 79/79/79
f 75/75/75 72/72/72 80/80/80
f 72/72/72 73/73/73 80/80/80
f 81/81/81 83/83/83 82/82/82
f 84/84/84 81/81/81 82/82/82
f 82/82/82 85/85/85 84/84/84
f 84/84/84 85/85/85 86/86/86
f 85/85/85 87/87/87 86/86/86
f 86/86/86 87/87/87 88/88/88
f 87/87/87 85/85/85 89/89/89
f 85/85/85 90/90/90 89/89/89
f 85/85/85 82/82/82 90/90/90
f 82/82/82 83/83/83 90/90/90
f 91/91/91 93/93/93 92/92/92
f 94/94/94 91/91/91 92/92/92
f 92/92/92 95/95/95 94/94/94
f 94/94/94 95/95/95 96/96/96
f 95/95/95 97/97/97 96/96/96
f 96/96/96 97/97/97 98/98/98
f 97/97/97 95/95/95 99/99/99
f 95/95/95 100/100/100 99/99/99
f 95/95/95 92/92/92 100/100/100
f 92/92/92 93/93/93 100/100/100
f 101/101/101 103/103/103 102/102/102
f 104/104/104 101/101/101 102/102/102
f 102/102/102 105/105/105 104/104/104
f 104/104/104 105/105/105 106/106/106
f 105/105/105 107/107/107 106/106/106
f 106/106/106 107/107/107 108/108/108
f 107/107/107 105/105/105 109/109/109
f 105/105/105 110/110/110 109/109/109
f 105/105/105 102/102/102 110/110/110
f 102/102/102 103/103/103 110/110/110
f 111/111/111 113/113/113 112/112/112
f 113/113/113 114/114/114 112/112/112
f 111/111/111 115/115/115 113/113/113
f 116/116/116 113/113/113 115/115/115
f 116/116/116 117/117/117 113/113/113
f 117/117/117 118/118/118 113/113/113
f 117/117/117 119/119/119 118/118/118
f 119/119/119 120/120/120 118/118/118
f 114/114/114 113/113/113 120/120/120
f 118/118/118 120/120/120 113/113/113
f 121/121/121 123/123/123 122/122/122
f 123/123/123 124/124/124 122/122/122
f 121/121/121 125/125/125 123/123/123
f 126/126/126 123/123/123 125/125/125
f 126/126/126 127/127/127 123/123/123
f 127/127/127 128/128/128 123/123/123
f 127/127/127 129/129/129 128/128/128
f 129/129/129 130/130/130 128/128/128
f 124/124/124 123/123/123 130/130/130
f 128/128/128 130/130/130 123/123/123
f 131/131/131 133/133/133 132/132/132
f 133/133/133 134/134/134 132/132/132
f 131/131/131 135/135/135 133/133/133
f 136/136/136 133/133/133 135/135/135
f 136/136/136 137/137/137 133/133/133
f 137/137/137 138/138/138 133/133/133
f 137/137/137 139/139/139 138/138/138
f 139/139/139 140/140/140 138/138/138
f 134/134/134 133/133/133 140/140/140
f 138/138/138 140/140/140 133/133/133
f 141/141/141 143/143/143 142/142/142
f 143/143/143 144/144/144 142/142/142
f 141/141/141 145/145/145 143/143/143
f 146/146/146 143/143/143 145/145/145
f 146/146/146 147/147/147 143/143/143
f 147/147/147 148/148/148 143/143/143
f 147/147/147 149/149/149 148/148/148
f 149/149/149 150/150/150 148/148/148
f 144/144/144 143/143/143 150/150/150
f 148/148/148 150/150/150 143/143/143
f 151/151/151 153/153/153 152/152/152
f 153/153/153 154/154/154 152/152/152
f 151/151/151 155/155/155 153/153/153
f 156/156/156 153/153/153 155/155/155
f 156/156/156 157/157/157 153/153/153
f 157/157/157 158/158/158 153/153/153
f 157/157/157 159/159/159 158/158/158
f 159/159/159 160/160/160 158/158/158
f 154/154/154 153/153/153 160/160/160
f 158/158/158 160/160/160 153/153/153
f 161/161/161 163/163/163 162/162/162
f 163/163/163 164/164/164 162/162/162
f 161/161/161 165/165/165 163/163/163
f 166/166/166 163/163/163 165/165/165
f 166/166/166 167/167/167 163/163/163
f 167/167/167 168/168/168 163/163/163
f 167/167/167 169/169/169 168/168/168
f 169/169/169 170/170/170 168/168/168
f 164/164/164 163/163/163 170/170/170
f 168/168/168 170/170/170 163/163/163
f 171/171/171 173/173/173 172/172/172
f 173/173/173 174/174/174 172/172/172
f 171/171/171 175/175/175 173/173/173
f 176/176/176 173/173/173 175/175/175
f 176/176/176 177/177/177 173/173/173
f 177/177/177 178/178/178 173/173/173
f 177/177/177 179/179/179 178/178/178
f 179/179/179 180/180/180 178/178/178
f 174/174/174 173/173/173 180/180/180
f 178/178/178 180/180/180 173/173/173
