#Palm_A(Clone)_33442_590.obj

v -2.21625 11.16238 3.701392
v -2.731785 10.92435 3.251511
v -1.618287 12.10966 2.38248
v -2.145354 11.8342 1.960315
v -1.52721 10.99217 3.846329
v -0.9390758 11.90294 2.55166
v -0.1496546 12.34251 0.9028394
v -0.8646415 12.52929 0.8084862
v -0.3356087 12.21416 -0.2269737
v -1.357505 12.27287 0.3148358
v -0.3750536 12.24374 -0.2056132
v 0.5789611 13.39154 0.01139891
v 0.5638908 13.01123 0.646841
v 0.8541577 13.11528 -0.6364269
v 2.356469 14.05098 0.3354103
v 2.608994 13.76642 -0.2744777
v 4.30355 14.08572 0.6424514
v 4.414021 13.77014 0.05464461
v 4.178139 13.68627 1.349117
v 2.343757 13.67165 1.013901
v -0.3750536 12.26928 -0.1940812
v -0.3525138 13.2331 0.9656758
v -0.9040864 12.75781 1.10157
v 0.3770191 13.03506 0.9477882
v -0.07495873 13.59592 2.83413
v 0.6119843 13.38639 2.806807
v 0.3479263 13.32898 4.741046
v 0.9662013 13.1037 4.584774
v -0.3076967 12.83734 4.796151
v -0.665714 13.11415 2.987061
v -0.3830474 12.27324 -0.1834009
v -1.606231 13.03113 0.2683799
v -1.849059 12.49268 -0.178618
v -1.277829 12.9046 0.9375664
v -3.264093 13.10472 1.240675
v -2.941196 12.96467 1.867403
v -4.784751 12.56634 2.373961
v -4.367894 12.4259 2.887531
v -4.990624 12.01584 1.800176
v -3.536014 12.55361 0.7644543
v -0.3890755 12.24584 -0.2008301
v -1.400095 13.12814 -0.8891495
v -0.9574217 12.86528 -1.42172
v -1.864391 12.69554 -0.4781237
v -2.882094 13.3483 -2.095363
v -3.306552 12.91937 -1.704846
v -4.32373 12.92607 -3.372013
v -4.612425 12.50748 -2.926195
v -3.750011 12.68416 -3.907729
v -2.420026 13.0923 -2.665871
v -0.3871098 12.20864 -0.2312983
v -0.03800321 13.55083 -0.823823
v 0.6047773 13.22997 -0.6436346
v -0.5015128 13.28899 -1.360718
v 0.7675366 14.60671 -2.215204
v 0.3327262 14.33495 -2.718879
v 1.712247 15.0907 -3.876474
v 1.254111 14.75961 -4.247727
v 2.386348 14.73301 -3.572709
v 1.450941 14.29085 -2.021125
v -0.3968072 12.23937 -0.1489358
v -1.130534 13.49221 0.2592066
v -1.64122 12.9574 0.2159615
v -0.5713606 13.49811 0.7681239
v -2.145092 14.49027 1.553155
v -1.611866 14.47153 2.034749
v -3.082726 14.96532 3.220977
v -2.51687 14.8731 3.579584
v -3.618835 14.36256 3.06667
v -2.696533 13.94471 1.500671
v -0.3867166 12.21918 -0.2472859
v -0.304682 13.59071 0.3745272
v -0.586693 13.14396 0.8937315
v 0.3989039 13.52865 0.1047691
v 0.4387417 14.79531 1.676797
v 1.105635 14.71194 1.421912
v 1.534417 15.48828 3.162007
v 2.103156 15.32178 2.836096
v 1.139444 14.97376 3.665879
v 0.1301283 14.34412 2.22968
v -0.3951036 12.20371 -0.2408646
v -0.05726708 13.66333 -0.06788407
v 0.4730759 13.28444 0.2840401
v -0.1613175 13.6424 -0.8164844
v 1.099869 15.16337 -0.4004134
v 1.006957 15.11972 -1.111797
v 2.606112 16.24037 -1.077069
v 2.441911 16.09071 -1.715788
v 3.112473 15.77853 -0.6243708
v 1.657994 14.78283 -0.01546559
v -0.3953657 12.20049 -0.224877
v -0.7921728 13.6368 -0.4574839
v -0.2104597 13.50829 -0.8977329
v -1.464439 13.30149 -0.5421397
v -1.480164 15.01714 -1.606758
v -2.107874 14.67779 -1.693838
v -2.219132 15.9233 -3.194053
v -2.752489 15.50769 -3.197919
v -1.518429 15.75715 -3.589222
v -0.8630685 14.90422 -2.065877
v -0.3886823 12.24148 -0.1801248
v -1.42329 13.3388 -0.1739004
v -1.533631 12.95305 -0.7965655
v -1.530224 13.05621 0.5191364
v -3.258851 13.9069 -0.08551028
v -3.351894 13.61672 0.5655263
v -5.224017 13.84294 0.05739511
v -5.182344 13.52851 0.6546373
v -5.242232 13.44272 -0.6596231
v -3.381248 13.52155 -0.7495204
v 3.380462 11.05939 1.757588
v 2.918525 10.9003 2.292387
v 2.1274 12.04047 1.07831
v 1.690362 11.84327 1.627917
v 3.508625 10.81895 1.08637
v 2.277055 11.76294 0.4201319
v 0.6579819 12.24583 -0.4046065
v 0.581713 12.50146 0.2909202
v -0.4767452 12.2144 -0.2075789
v 0.07456504 12.32518 0.8048171
v 1.085979 12.2661 -4.283634
v 1.683941 12.04348 -3.940621
v 0.5108176 12.81949 -2.748299
v 1.122671 12.56813 -2.441061
v 0.4202651 12.00517 -4.400134
v -0.1423155 12.52975 -2.896905
v -0.7839168 12.49557 -1.129946
v -0.1016915 12.78686 -1.061475
v -0.4431975 12.18906 -0.07286363
v 0.4823803 12.53402 -0.6776409
v -4.677948 11.40567 -0.6700408
v -4.451239 11.31241 -1.351742
v -3.200667 12.25979 -0.3829189
v -3.005146 12.13129 -1.073728
v -4.572063 11.07806 -0.03269847
v -3.12217 11.89764 0.2457744
v -1.285954 12.23129 0.4734015
v -1.447665 12.5783 -0.1656444
v -0.3028472 12.20504 -0.1270511
v -1.172599 12.46426 -0.8465594
v 0.8337143 10.10278 1.083225
v 0.4268166 10.08381 1.284904
v 0.58761 11.12139 0.7988548
v 0.1805812 11.07238 1.002173
v 0.995163 10.04718 0.6619119
v 0.7478793 11.03766 0.3780661
v 0.2162259 11.943 -0.1601401
v 0.08020009 11.98566 0.2850231
v -0.4314033 12.26199 -0.1980126
v -0.3498928 11.97589 0.4650148
v -1.727186 10.56855 1.593386
v -2.040517 10.60333 1.265968
v -1.265511 11.45757 1.174432
v -1.58867 11.46408 0.8503554
v -1.308494 10.39541 1.631259
v -0.8554683 11.25764 1.214074
v -0.2801764 11.96081 0.4614765
v -0.7162974 12.12883 0.4559725
v -0.356445 12.24632 -0.1983402
v -1.014427 12.16582 0.09926522
v -2.630354 11.46853 -2.009593
v -2.243114 11.29752 -2.268081
v -1.858887 12.12803 -1.398329
v -1.488158 11.93118 -1.668742
v -2.847498 11.36327 -1.576224
v -2.090445 11.9976 -0.9751812
v -1.135906 12.31305 -0.1712793
v -0.9475933 12.42918 -0.6308576
v -0.3559209 12.2232 -0.09442069
v -0.5354537 12.246 -0.8664128
v 1.199857 11.33335 -2.53109
v 1.441244 11.09146 -2.171565
v 0.7482728 12.02715 -1.68355
v 0.9959496 11.75909 -1.342765
v 0.745783 11.32093 -2.730018
v 0.2990472 11.98935 -1.899055
v -0.3944483 12.36433 -0.8814175
v 0.08622836 12.38512 -0.7120405
v -0.4514534 12.22973 -0.1062149
v 0.3038957 12.1333 -0.3271583

vn -0.2802734 0.8349609 0.4726563
vn -0.59375 0.7568359 0.2717285
vn -0.2177734 0.9155273 0.3371582
vn -0.5400391 0.8305664 0.1322021
vn 0.07525635 0.7944336 0.6020508
vn 0.1474609 0.8696289 0.4707031
vn 0.2393799 0.9658203 0.09814453
vn -0.06011963 0.9980469 0.006195068
vn 0.07043457 0.9633789 -0.2570801
vn -0.3127441 0.9335938 -0.1726074
vn -0.7548828 0.6469727 -0.1046143
vn -0.5585938 0.8276367 -0.05108643
vn -0.5766602 0.706543 0.4091797
vn -0.4042969 0.7641602 -0.5019531
vn -0.1934814 0.980957 0.01147461
vn -0.07171631 0.8881836 -0.4528809
vn -0.008270264 0.9995117 0.01006317
vn 0.08190918 0.8842773 -0.4592285
vn -0.09197998 0.8725586 0.479248
vn -0.2368164 0.8481445 0.4731445
vn -0.2492676 0.7470703 -0.6157227
vn -0.2468262 0.8891602 -0.3842773
vn -0.6655273 0.6967773 -0.2651367
vn 0.2331543 0.8823242 -0.407959
vn -0.1879883 0.9819336 0.001251221
vn 0.2958984 0.953125 -0.06225586
vn -0.1211548 0.9770508 0.1749268
vn 0.3583984 0.9301758 0.07653809
vn -0.5717773 0.7856445 0.2359619
vn -0.6162109 0.78125 0.09588623
vn 0.3254395 0.8129883 -0.4821777
vn 0.08996582 0.9150391 -0.3930664
vn -0.1405029 0.6689453 -0.7294922
vn 0.2937012 0.9545898 0.04037476
vn -0.2548828 0.9477539 -0.1912842
vn -0.009407043 0.9726563 0.2307129
vn -0.3864746 0.9199219 -0.06231689
vn -0.1074829 0.9331055 0.3422852
vn -0.5756836 0.6816406 -0.4504395
vn -0.4650879 0.6967773 -0.5454102
vn 0.3686523 0.7963867 0.4790039
vn 0.1818848 0.9257813 0.3303223
vn 0.4624023 0.8847656 -0.05236816
vn -0.1495361 0.7573242 0.6347656
vn -0.1298828 0.987793 0.08575439
vn -0.4328613 0.7978516 0.4191895
vn -0.2868652 0.9575195 -0.009620667
vn -0.5595703 0.7529297 0.3444824
vn 0.05297852 0.9287109 -0.3657227
vn 0.1750488 0.9423828 -0.2849121
vn -0.4553223 0.4558105 0.7641602
vn -0.3666992 0.6782227 0.6362305
vn 0.07244873 0.5947266 0.800293
vn -0.7216797 0.6137695 0.3190918
vn -0.2075195 0.9125977 0.3520508
vn -0.5820313 0.8110352 0.05450439
vn -0.1485596 0.9711914 0.1854248
vn -0.534668 0.8398438 -0.08905029
vn 0.2773438 0.8676758 0.4116211
vn 0.2259521 0.8120117 0.5375977
vn 0.2258301 0.4187012 -0.8793945
vn 0.07720947 0.6225586 -0.7783203
vn -0.3190918 0.3752441 -0.8701172
vn 0.4543457 0.7353516 -0.5024414
vn -0.1308594 0.8452148 -0.5175781
vn 0.2751465 0.9257813 -0.2575684
vn -0.1947021 0.9135742 -0.3566895
vn 0.230835 0.9658203 -0.1158447
vn -0.5761719 0.6401367 -0.5073242
vn -0.5180664 0.5800781 -0.6279297
vn -0.6748047 0.3376465 -0.6557617
vn -0.6430664 0.5668945 -0.5136719
vn -0.9086914 0.3833008 -0.1636963
vn -0.2255859 0.6293945 -0.7431641
vn -0.4943848 0.831543 -0.251709
vn -0.0791626 0.8569336 -0.5083008
vn -0.3759766 0.9165039 -0.135498
vn 0.02957153 0.909668 -0.4133301
vn -0.6889648 0.7016602 0.1796875
vn -0.7734375 0.6279297 0.0847168
vn -0.8325195 0.1290283 0.5375977
vn -0.7358398 0.3820801 0.5581055
vn -0.4172363 0.2318115 0.878418
vn -0.8842773 0.4541016 0.1066284
vn -0.5078125 0.7055664 0.4938965
vn -0.675293 0.7363281 0.03555298
vn -0.3894043 0.8237305 0.4118652
vn -0.5722656 0.8183594 -0.04455566
vn -0.1074829 0.6313477 0.7675781
vn -0.2008057 0.5317383 0.8222656
vn 0.2452393 0.2205811 0.9438477
vn 0.1757813 0.4709473 0.8642578
vn 0.5883789 0.5073242 0.6289063
vn -0.2834473 0.3334961 0.8989258
vn 0.02957153 0.7685547 0.6386719
vn -0.4223633 0.5888672 0.6889648
vn -0.06817627 0.8583984 0.5078125
vn -0.5063477 0.6445313 0.5722656
vn 0.3859863 0.8662109 0.315918
vn 0.4570313 0.7856445 0.4162598
vn 0.7255859 0.6845703 -0.06884766
vn 0.5136719 0.8544922 -0.07629395
vn 0.4331055 0.7294922 -0.5288086
vn 0.46875 0.7885742 0.3977051
vn 0.1364746 0.9887695 -0.05422974
vn 0.1279297 0.8955078 0.4255371
vn -0.04434204 0.9985352 -0.01077271
vn -0.01986694 0.8837891 0.4667969
vn -0.06286621 0.8710938 -0.4868164
vn 0.08062744 0.8540039 -0.5136719
vn 0.5317383 0.8212891 0.204834
vn 0.328125 0.7856445 0.5239258
vn 0.4020996 0.9052734 0.1352539
vn 0.1937256 0.8642578 0.4641113
vn 0.6557617 0.7402344 -0.145874
vn 0.5292969 0.8178711 -0.2243652
vn 0.1640625 0.9311523 -0.3242188
vn 0.07659912 0.996582 -0.02883911
vn -0.1894531 0.9692383 -0.1557617
vn -0.1046753 0.9677734 0.2286377
vn 0.08398438 0.9467773 -0.3098145
vn 0.4277344 0.8896484 -0.1580811
vn 0.02630615 0.9873047 -0.1555176
vn 0.3806152 0.9243164 -0.001878738
vn -0.2736816 0.8681641 -0.4130859
vn -0.340332 0.9023438 -0.2631836
vn -0.4001465 0.9072266 0.1278076
vn -0.100708 0.9746094 0.197876
vn -0.190918 0.8676758 0.4587402
vn 0.1789551 0.9243164 0.3364258
vn -0.5126953 0.8520508 0.1043701
vn -0.4404297 0.8564453 -0.2687988
vn -0.3613281 0.9228516 0.1311035
vn -0.2883301 0.9233398 -0.2531738
vn -0.5073242 0.7260742 0.463623
vn -0.3564453 0.7895508 0.4992676
vn 0.02740479 0.8813477 0.4714355
vn 0.00692749 0.984375 0.1746826
vn 0.2983398 0.9350586 0.1912842
vn 0.08105469 0.987793 -0.1325684
vn 0.7036133 0.3435059 0.621582
vn 0.4008789 0.3366699 0.8515625
vn 0.6552734 0.4970703 0.5683594
vn 0.3430176 0.4855957 0.8037109
vn 0.9038086 0.3044434 0.300293
vn 0.8588867 0.453125 0.2369385
vn 0.6376953 0.7602539 0.1220703
vn 0.4819336 0.7817383 0.3947754
vn 0.2958984 0.9296875 0.2182617
vn 0.2236328 0.7851563 0.5771484
vn -0.2592773 0.5185547 0.8144531
vn -0.5629883 0.574707 0.5932617
vn -0.1833496 0.6489258 0.737793
vn -0.496582 0.7021484 0.5092773
vn 0.08453369 0.390625 0.9165039
vn 0.1691895 0.5136719 0.8408203
vn 0.2900391 0.7714844 0.565918
vn -0.000518322 0.8691406 0.4938965
vn 0.144043 0.9570313 0.2509766
vn -0.244873 0.9213867 0.300293
vn -0.3811035 0.8276367 -0.4116211
vn -0.1073608 0.7421875 -0.6611328
vn -0.2658691 0.909668 -0.3183594
vn 0.01431274 0.8173828 -0.5751953
vn -0.597168 0.7954102 -0.09997559
vn -0.4885254 0.8720703 0.00156498
vn -0.1513672 0.9711914 0.1833496
vn 0.01419067 0.9960938 -0.08331299
vn 0.2353516 0.965332 0.1110229
vn 0.2514648 0.9262695 -0.2802734
vn 0.5332031 0.7709961 -0.347168
vn 0.7758789 0.6235352 -0.09423828
vn 0.4609375 0.8588867 -0.2215576
vn 0.7099609 0.7026367 0.03689575
vn 0.2115479 0.8095703 -0.546875
vn 0.1298828 0.894043 -0.4277344
vn -0.01673889 0.996582 -0.0748291
vn 0.2570801 0.9628906 0.07672119
vn 0.0703125 0.9492188 0.3059082
vn 0.4489746 0.8422852 0.2971191

vt 0.75 1
vt 1 1
vt 0.75 0.6713867
vt 1 0.6567383
vt 0.5 1
vt 0.5 0.6557617
vt 0.5 0.3249512
vt 0.75 0.3554688
vt 0.75 0.1630859
vt 1 0.3261719
vt 0.263916 0
vt 0.2529297 0.2519531
vt 0.5 0.2479248
vt 0 0.2585449
vt 0.2380371 0.5961914
vt 0 0.5996094
vt 0.220459 1
vt 0 1
vt 0.5 1
vt 0.5 0.59375
vt 0.263916 0
vt 0.2529297 0.2519531
vt 0.5 0.2479248
vt 0 0.2585449
vt 0.2380371 0.5961914
vt 0 0.5996094
vt 0.220459 1
vt 0 1
vt 0.5 1
vt 0.5 0.59375
vt 0.263916 0
vt 0.2529297 0.2519531
vt 0.5 0.2479248
vt 0 0.2585449
vt 0.2380371 0.5961914
vt 0 0.5996094
vt 0.220459 1
vt 0 1
vt 0.5 1
vt 0.5 0.59375
vt 0.263916 0
vt 0.2529297 0.2519531
vt 0.5 0.2479248
vt 0 0.2585449
vt 0.2380371 0.5961914
vt 0 0.5996094
vt 0.220459 1
vt 0 1
vt 0.5 1
vt 0.5 0.59375
vt 0.263916 0
vt 0.2529297 0.2519531
vt 0.5 0.2479248
vt 0 0.2585449
vt 0.2380371 0.5961914
vt 0 0.5996094
vt 0.220459 1
vt 0 1
vt 0.5 1
vt 0.5 0.59375
vt 0.263916 0
vt 0.2529297 0.2519531
vt 0.5 0.2479248
vt 0 0.2585449
vt 0.2380371 0.5961914
vt 0 0.5996094
vt 0.220459 1
vt 0 1
vt 0.5 1
vt 0.5 0.59375
vt 0.263916 0
vt 0.2529297 0.2519531
vt 0.5 0.2479248
vt 0 0.2585449
vt 0.2380371 0.5961914
vt 0 0.5996094
vt 0.220459 1
vt 0 1
vt 0.5 1
vt 0.5 0.59375
vt 0.263916 0
vt 0.2529297 0.2519531
vt 0.5 0.2479248
vt 0 0.2585449
vt 0.2380371 0.5961914
vt 0 0.5996094
vt 0.220459 1
vt 0 1
vt 0.5 1
vt 0.5 0.59375
vt 0.263916 0
vt 0.2529297 0.2519531
vt 0.5 0.2479248
vt 0 0.2585449
vt 0.2380371 0.5961914
vt 0 0.5996094
vt 0.220459 1
vt 0 1
vt 0.5 1
vt 0.5 0.59375
vt 0.263916 0
vt 0.2529297 0.2519531
vt 0.5 0.2479248
vt 0 0.2585449
vt 0.2380371 0.5961914
vt 0 0.5996094
vt 0.220459 1
vt 0 1
vt 0.5 1
vt 0.5 0.59375
vt 0.75 1
vt 1 1
vt 0.75 0.6713867
vt 1 0.6567383
vt 0.5 1
vt 0.5 0.6557617
vt 0.5 0.3249512
vt 0.75 0.3554688
vt 0.75 0.1630859
vt 1 0.3261719
vt 0.75 1
vt 1 1
vt 0.75 0.6713867
vt 1 0.6567383
vt 0.5 1
vt 0.5 0.6557617
vt 0.5 0.3249512
vt 0.75 0.3554688
vt 0.75 0.1630859
vt 1 0.3261719
vt 0.75 1
vt 1 1
vt 0.75 0.6713867
vt 1 0.6567383
vt 0.5 1
vt 0.5 0.6557617
vt 0.5 0.3249512
vt 0.75 0.3554688
vt 0.75 0.1630859
vt 1 0.3261719
vt 0.75 1
vt 1 1
vt 0.75 0.6713867
vt 1 0.6567383
vt 0.5 1
vt 0.5 0.6557617
vt 0.5 0.3249512
vt 0.75 0.3554688
vt 0.75 0.1630859
vt 1 0.3261719
vt 0.75 1
vt 1 1
vt 0.75 0.6713867
vt 1 0.6567383
vt 0.5 1
vt 0.5 0.6557617
vt 0.5 0.3249512
vt 0.75 0.3554688
vt 0.75 0.1630859
vt 1 0.3261719
vt 0.75 1
vt 1 1
vt 0.75 0.6713867
vt 1 0.6567383
vt 0.5 1
vt 0.5 0.6557617
vt 0.5 0.3249512
vt 0.75 0.3554688
vt 0.75 0.1630859
vt 1 0.3261719
vt 0.75 1
vt 1 1
vt 0.75 0.6713867
vt 1 0.6567383
vt 0.5 1
vt 0.5 0.6557617
vt 0.5 0.3249512
vt 0.75 0.3554688
vt 0.75 0.1630859
vt 1 0.3261719

g Palm_A(Clone)_33442_590
usemtl Palm_A(Clone)_33442_590
usemap Palm_A(Clone)_33442_590
f 1/1/1 3/3/3 2/2/2
f 3/3/3 4/4/4 2/2/2
f 1/1/1 5/5/5 3/3/3
f 6/6/6 3/3/3 5/5/5
f 6/6/6 7/7/7 3/3/3
f 7/7/7 8/8/8 3/3/3
f 7/7/7 9/9/9 8/8/8
f 9/9/9 10/10/10 8/8/8
f 4/4/4 3/3/3 10/10/10
f 8/8/8 10/10/10 3/3/3
f 11/11/11 13/13/13 12/12/12
f 14/14/14 11/11/11 12/12/12
f 12/12/12 15/15/15 14/14/14
f 14/14/14 15/15/15 16/16/16
f 15/15/15 17/17/17 16/16/16
f 16/16/16 17/17/17 18/18/18
f 17/17/17 15/15/15 19/19/19
f 15/15/15 20/20/20 19/19/19
f 15/15/15 12/12/12 20/20/20
f 12/12/12 13/13/13 20/20/20
f 21/21/21 23/23/23 22/22/22
f 24/24/24 21/21/21 22/22/22
f 22/22/22 25/25/25 24/24/24
f 24/24/24 25/25/25 26/26/26
f 25/25/25 27/27/27 26/26/26
f 26/26/26 27/27/27 28/28/28
f 27/27/27 25/25/25 29/29/29
f 25/25/25 30/30/30 29/29/29
f 25/25/25 22/22/22 30/30/30
f 22/22/22 23/23/23 30/30/30
f 31/31/31 33/33/33 32/32/32
f 34/34/34 31/31/31 32/32/32
f 32/32/32 35/35/35 34/34/34
f 34/34/34 35/35/35 36/36/36
f 35/35/35 37/37/37 36/36/36
f 36/36/36 37/37/37 38/38/38
f 37/37/37 35/35/35 39/39/39
f 35/35/35 40/40/40 39/39/39
f 35/35/35 32/32/32 40/40/40
f 32/32/32 33/33/33 40/40/40
f 41/41/41 43/43/43 42/42/42
f 44/44/44 41/41/41 42/42/42
f 42/42/42 45/45/45 44/44/44
f 44/44/44 45/45/45 46/46/46
f 45/45/45 47/47/47 46/46/46
f 46/46/46 47/47/47 48/48/48
f 47/47/47 45/45/45 49/49/49
f 45/45/45 50/50/50 49/49/49
f 45/45/45 42/42/42 50/50/50
f 42/42/42 43/43/43 50/50/50
f 51/51/51 53/53/53 52/52/52
f 54/54/54 51/51/51 52/52/52
f 52/52/52 55/55/55 54/54/54
f 54/54/54 55/55/55 56/56/56
f 55/55/55 57/57/57 56/56/56
f 56/56/56 57/57/57 58/58/58
f 57/57/57 55/55/55 59/59/59
f 55/55/55 60/60/60 59/59/59
f 55/55/55 52/52/52 60/60/60
f 52/52/52 53/53/53 60/60/60
f 61/61/61 63/63/63 62/62/62
f 64/64/64 61/61/61 62/62/62
f 62/62/62 65/65/65 64/64/64
f 64/64/64 65/65/65 66/66/66
f 65/65/65 67/67/67 66/66/66
f 66/66/66 67/67/67 68/68/68
f 67/67/67 65/65/65 69/69/69
f 65/65/65 70/70/70 69/69/69
f 65/65/65 62/62/62 70/70/70
f 62/62/62 63/63/63 70/70/70
f 71/71/71 73/73/73 72/72/72
f 74/74/74 71/71/71 72/72/72
f 72/72/72 75/75/75 74/74/74
f 74/74/74 75/75/75 76/76/76
f 75/75/75 77/77/77 76/76/76
f 76/76/76 77/77/77 78/78/78
f 77/77/77 75/75/75 79/79/79
f 75/75/75 80/80/80 79/79/79
f 75/75/75 72/72/72 80/80/80
f 72/72/72 73/73/73 80/80/80
f 81/81/81 83/83/83 82/82/82
f 84/84/84 81/81/81 82/82/82
f 82/82/82 85/85/85 84/84/84
f 84/84/84 85/85/85 86/86/86
f 85/85/85 87/87/87 86/86/86
f 86/86/86 87/87/87 88/88/88
f 87/87/87 85/85/85 89/89/89
f 85/85/85 90/90/90 89/89/89
f 85/85/85 82/82/82 90/90/90
f 82/82/82 83/83/83 90/90/90
f 91/91/91 93/93/93 92/92/92
f 94/94/94 91/91/91 92/92/92
f 92/92/92 95/95/95 94/94/94
f 94/94/94 95/95/95 96/96/96
f 95/95/95 97/97/97 96/96/96
f 96/96/96 97/97/97 98/98/98
f 97/97/97 95/95/95 99/99/99
f 95/95/95 100/100/100 99/99/99
f 95/95/95 92/92/92 100/100/100
f 92/92/92 93/93/93 100/100/100
f 101/101/101 103/103/103 102/102/102
f 104/104/104 101/101/101 102/102/102
f 102/102/102 105/105/105 104/104/104
f 104/104/104 105/105/105 106/106/106
f 105/105/105 107/107/107 106/106/106
f 106/106/106 107/107/107 108/108/108
f 107/107/107 105/105/105 109/109/109
f 105/105/105 110/110/110 109/109/109
f 105/105/105 102/102/102 110/110/110
f 102/102/102 103/103/103 110/110/110
f 111/111/111 113/113/113 112/112/112
f 113/113/113 114/114/114 112/112/112
f 111/111/111 115/115/115 113/113/113
f 116/116/116 113/113/113 115/115/115
f 116/116/116 117/117/117 113/113/113
f 117/117/117 118/118/118 113/113/113
f 117/117/117 119/119/119 118/118/118
f 119/119/119 120/120/120 118/118/118
f 114/114/114 113/113/113 120/120/120
f 118/118/118 120/120/120 113/113/113
f 121/121/121 123/123/123 122/122/122
f 123/123/123 124/124/124 122/122/122
f 121/121/121 125/125/125 123/123/123
f 126/126/126 123/123/123 125/125/125
f 126/126/126 127/127/127 123/123/123
f 127/127/127 128/128/128 123/123/123
f 127/127/127 129/129/129 128/128/128
f 129/129/129 130/130/130 128/128/128
f 124/124/124 123/123/123 130/130/130
f 128/128/128 130/130/130 123/123/123
f 131/131/131 133/133/133 132/132/132
f 133/133/133 134/134/134 132/132/132
f 131/131/131 135/135/135 133/133/133
f 136/136/136 133/133/133 135/135/135
f 136/136/136 137/137/137 133/133/133
f 137/137/137 138/138/138 133/133/133
f 137/137/137 139/139/139 138/138/138
f 139/139/139 140/140/140 138/138/138
f 134/134/134 133/133/133 140/140/140
f 138/138/138 140/140/140 133/133/133
f 141/141/141 143/143/143 142/142/142
f 143/143/143 144/144/144 142/142/142
f 141/141/141 145/145/145 143/143/143
f 146/146/146 143/143/143 145/145/145
f 146/146/146 147/147/147 143/143/143
f 147/147/147 148/148/148 143/143/143
f 147/147/147 149/149/149 148/148/148
f 149/149/149 150/150/150 148/148/148
f 144/144/144 143/143/143 150/150/150
f 148/148/148 150/150/150 143/143/143
f 151/151/151 153/153/153 152/152/152
f 153/153/153 154/154/154 152/152/152
f 151/151/151 155/155/155 153/153/153
f 156/156/156 153/153/153 155/155/155
f 156/156/156 157/157/157 153/153/153
f 157/157/157 158/158/158 153/153/153
f 157/157/157 159/159/159 158/158/158
f 159/159/159 160/160/160 158/158/158
f 154/154/154 153/153/153 160/160/160
f 158/158/158 160/160/160 153/153/153
f 161/161/161 163/163/163 162/162/162
f 163/163/163 164/164/164 162/162/162
f 161/161/161 165/165/165 163/163/163
f 166/166/166 163/163/163 165/165/165
f 166/166/166 167/167/167 163/163/163
f 167/167/167 168/168/168 163/163/163
f 167/167/167 169/169/169 168/168/168
f 169/169/169 170/170/170 168/168/168
f 164/164/164 163/163/163 170/170/170
f 168/168/168 170/170/170 163/163/163
f 171/171/171 173/173/173 172/172/172
f 173/173/173 174/174/174 172/172/172
f 171/171/171 175/175/175 173/173/173
f 176/176/176 173/173/173 175/175/175
f 176/176/176 177/177/177 173/173/173
f 177/177/177 178/178/178 173/173/173
f 177/177/177 179/179/179 178/178/178
f 179/179/179 180/180/180 178/178/178
f 174/174/174 173/173/173 180/180/180
f 178/178/178 180/180/180 173/173/173
