#Roads.002_34535_471.obj

v 558.6572 92.58546 -6.911298
v 559.0485 92.53382 -6.911298
v 559.0485 76.74299 -6.911298
v 554.5702 77.33272 -6.911298
v 550.397 79.06127 -6.911298
v 558.2925 92.73653 -6.911298
v 557.9792 92.97682 -6.911298
v 546.8135 81.81104 -6.911298
v 557.739 93.28999 -6.911298
v 544.0637 85.39457 -6.911298
v 557.588 93.65468 -6.911298
v 542.3353 89.56773 -6.911298
v 541.7457 94.04606 -6.911298
v 557.5364 94.04604 -6.911298
v 620.9207 195.8006 -6.911296
v 625.0077 180.5479 -6.911297
v 624.6429 180.3969 -6.911297
v 616.7476 194.0722 -6.911297
v 624.3298 180.1566 -6.911297
v 613.1641 191.3224 -6.911297
v 624.0895 179.8434 -6.911297
v 610.4142 187.7389 -6.911297
v 623.9385 179.4787 -6.911297
v 608.6857 183.5657 -6.911297
v 623.8869 179.0874 -6.911297
v 608.0961 179.0874 -6.911297
v 625.399 196.3902 -6.911296
v 625.399 180.5995 -6.911297
v 693.8699 181.1892 -6.911291
v 689.3916 180.5996 -6.911292
v 689.3917 196.3904 -6.911291
v 689.783 196.4419 -6.911291
v 698.043 182.9177 -6.911292
v 690.1477 196.5929 -6.911291
v 701.6266 185.6675 -6.911291
v 690.4609 196.8332 -6.911291
v 704.3764 189.2509 -6.911291
v 690.7011 197.1465 -6.911291
v 706.1049 193.4241 -6.911291
v 690.8522 197.5111 -6.911291
v 706.6945 197.9024 -6.911291
v 690.9037 197.9024 -6.911291
v 643.832 76.74327 -6.911298
v 643.832 92.53398 -6.911298
v 644.2233 92.58562 -6.911298
v 648.3103 77.33283 -6.911298
v 652.4835 79.06131 -6.911298
v 644.588 92.73659 -6.911298
v 656.067 81.81112 -6.911298
v 644.9012 92.97688 -6.911298
v 658.8168 85.39462 -6.911298
v 645.1415 93.29008 -6.911298
v 645.2926 93.65483 -6.911298
v 660.5453 89.56779 -6.911298
v 645.3441 94.0461 -6.911298
v 661.1349 94.0461 -6.911298

vn 0 0.9995117 1.192093E-07
vn 0 0.9995117 1.192093E-07
vn 0 0.9995117 1.192093E-07
vn 0 0.9995117 1.192093E-07
vn 0 0.9995117 1.192093E-07
vn 0 0.9995117 1.192093E-07
vn 0 0.9995117 1.192093E-07
vn 0 0.9995117 1.192093E-07
vn 0 0.9995117 1.192093E-07
vn 0 0.9995117 1.192093E-07
vn 0 0.9995117 1.192093E-07
vn 0 0.9995117 1.192093E-07
vn 0 0.9995117 1.192093E-07
vn 0 0.9995117 1.192093E-07
vn 0 0.9995117 1.192093E-07
vn 0 0.9995117 1.192093E-07
vn 0 0.9995117 1.192093E-07
vn 0 0.9995117 1.192093E-07
vn 0 0.9995117 1.192093E-07
vn 0 0.9995117 1.192093E-07
vn 0 0.9995117 1.192093E-07
vn 0 0.9995117 1.192093E-07
vn 0 0.9995117 1.192093E-07
vn 0 0.9995117 1.192093E-07
vn 0 0.9995117 1.192093E-07
vn 0 0.9995117 1.192093E-07
vn 0 0.9995117 1.192093E-07
vn 0 0.9995117 1.192093E-07
vn 0 0.9995117 1.192093E-07
vn 0 0.9995117 1.192093E-07
vn 0 0.9995117 1.192093E-07
vn 0 0.9995117 1.192093E-07
vn 0 0.9995117 1.192093E-07
vn 0 0.9995117 1.192093E-07
vn 0 0.9995117 1.192093E-07
vn 0 0.9995117 1.192093E-07
vn 0 0.9995117 1.192093E-07
vn 0 0.9995117 1.192093E-07
vn 0 0.9995117 1.192093E-07
vn 0 0.9995117 1.192093E-07
vn 0 0.9995117 1.192093E-07
vn 0 0.9995117 1.192093E-07
vn 0 0.9995117 1.192093E-07
vn 0 0.9995117 1.192093E-07
vn 0 0.9995117 1.192093E-07
vn 0 0.9995117 1.192093E-07
vn 0 0.9995117 1.192093E-07
vn 0 0.9995117 1.192093E-07
vn 0 0.9995117 1.192093E-07
vn 0 0.9995117 1.192093E-07
vn 0 0.9995117 1.192093E-07
vn 0 0.9995117 1.192093E-07
vn 0 0.9995117 1.192093E-07
vn 0 0.9995117 1.192093E-07
vn 0 0.9995117 1.192093E-07
vn 0 0.9995117 1.192093E-07

vt 0.8740234 0.0703125
vt 0.8710938 0.04998779
vt 0.04998779 0.04998779
vt 0.08062744 0.2827148
vt 0.1705322 0.5
vt 0.8818359 0.08929443
vt 0.894043 0.1055908
vt 0.3134766 0.6860352
vt 0.9106445 0.118103
vt 0.5 0.8291016
vt 0.9291992 0.1258545
vt 0.7167969 0.9189453
vt 0.949707 0.949707
vt 0.949707 0.12854
vt 0.7167969 0.9189453
vt 0.9291992 0.1258545
vt 0.9106445 0.118103
vt 0.5 0.8291016
vt 0.894043 0.1055908
vt 0.3134766 0.6860352
vt 0.8818359 0.08929443
vt 0.1705322 0.5
vt 0.8740234 0.0703125
vt 0.08062744 0.2827148
vt 0.8710938 0.04998779
vt 0.04998779 0.04998779
vt 0.949707 0.949707
vt 0.949707 0.12854
vt 0.7167969 0.9189453
vt 0.949707 0.949707
vt 0.949707 0.12854
vt 0.9291992 0.1258545
vt 0.4997559 0.8291016
vt 0.9106445 0.118103
vt 0.3134766 0.6860352
vt 0.894043 0.1055908
vt 0.1705322 0.5
vt 0.8818359 0.08929443
vt 0.08062744 0.2827148
vt 0.8740234 0.0703125
vt 0.04998779 0.04998779
vt 0.8710938 0.04998779
vt 0.949707 0.949707
vt 0.949707 0.12854
vt 0.9291992 0.1258545
vt 0.7167969 0.9189453
vt 0.4997559 0.8291016
vt 0.9106445 0.118103
vt 0.3134766 0.6860352
vt 0.894043 0.1055908
vt 0.1705322 0.5
vt 0.8818359 0.08929443
vt 0.8740234 0.0703125
vt 0.08062744 0.2827148
vt 0.8710938 0.04998779
vt 0.04998779 0.04998779

g Roads.002_34535_471
usemtl Roads.002_34535_471
usemap Roads.002_34535_471
f 1/1/1 3/3/3 2/2/2
f 1/1/1 4/4/4 3/3/3
f 5/5/5 4/4/4 1/1/1
f 5/5/5 1/1/1 6/6/6
f 7/7/7 5/5/5 6/6/6
f 7/7/7 8/8/8 5/5/5
f 9/9/9 8/8/8 7/7/7
f 9/9/9 10/10/10 8/8/8
f 11/11/11 10/10/10 9/9/9
f 11/11/11 12/12/12 10/10/10
f 13/13/13 12/12/12 11/11/11
f 13/13/13 11/11/11 14/14/14
f 15/15/15 17/17/17 16/16/16
f 15/15/15 18/18/18 17/17/17
f 18/18/18 19/19/19 17/17/17
f 18/18/18 20/20/20 19/19/19
f 20/20/20 21/21/21 19/19/19
f 20/20/20 22/22/22 21/21/21
f 22/22/22 23/23/23 21/21/21
f 22/22/22 24/24/24 23/23/23
f 24/24/24 25/25/25 23/23/23
f 24/24/24 26/26/26 25/25/25
f 27/27/27 15/15/15 16/16/16
f 27/27/27 16/16/16 28/28/28
f 29/29/29 31/31/31 30/30/30
f 29/29/29 32/32/32 31/31/31
f 33/33/33 32/32/32 29/29/29
f 33/33/33 34/34/34 32/32/32
f 35/35/35 34/34/34 33/33/33
f 35/35/35 36/36/36 34/34/34
f 36/36/36 35/35/35 37/37/37
f 36/36/36 37/37/37 38/38/38
f 39/39/39 38/38/38 37/37/37
f 39/39/39 40/40/40 38/38/38
f 41/41/41 40/40/40 39/39/39
f 41/41/41 42/42/42 40/40/40
f 43/43/43 45/45/45 44/44/44
f 43/43/43 46/46/46 45/45/45
f 45/45/45 46/46/46 47/47/47
f 45/45/45 47/47/47 48/48/48
f 48/48/48 47/47/47 49/49/49
f 48/48/48 49/49/49 50/50/50
f 50/50/50 49/49/49 51/51/51
f 50/50/50 51/51/51 52/52/52
f 51/51/51 53/53/53 52/52/52
f 51/51/51 54/54/54 53/53/53
f 54/54/54 55/55/55 53/53/53
f 54/54/54 56/56/56 55/55/55
