#Roads.010_33336_481.obj

v -150.5801 -64.16643 -6.9113
v -150.6317 -63.77507 -6.9113
v -135.3789 -59.68812 -6.9113
v -134.7894 -64.16645 -6.9113
v -137.1075 -55.51496 -6.9113
v -150.7827 -63.41038 -6.9113
v -139.8572 -51.9314 -6.9113
v -151.023 -63.09721 -6.9113
v -143.4408 -49.18164 -6.9113
v -151.3362 -62.85691 -6.9113
v -151.7009 -62.70585 -6.9113
v -147.6139 -47.45311 -6.9113
v -152.0922 -62.65434 -6.9113
v -152.0922 -46.86351 -6.9113
v -198.7983 -45.3514 -6.911306
v -183.0075 -45.35143 -6.911306
v -182.956 -45.74279 -6.911306
v -198.2088 -49.82973 -6.911306
v -196.4802 -54.0029 -6.911305
v -182.8049 -46.10747 -6.911305
v -193.7305 -57.5864 -6.911306
v -182.5647 -46.42064 -6.911305
v -190.1469 -60.33616 -6.911306
v -182.2515 -46.66094 -6.911305
v -181.8868 -46.812 -6.911305
v -185.9737 -62.06474 -6.911305
v -181.4954 -46.86352 -6.911305
v -181.4954 -62.65435 -6.911305
v -170.1788 130.5102 -6.911304
v -170.1272 130.1189 -6.911304
v -185.38 126.0319 -6.911304
v -185.9696 130.5102 -6.911304
v -183.6515 121.8588 -6.911304
v -169.9763 129.7541 -6.911304
v -180.9017 118.2752 -6.911304
v -169.736 129.441 -6.911304
v -177.3182 115.5255 -6.911304
v -169.4227 129.2007 -6.911304
v -169.058 129.0497 -6.911304
v -173.1451 113.7969 -6.911304
v -168.6668 128.9981 -6.911303
v -168.6668 113.2073 -6.911303

vn 0 0.9995117 1.192093E-07
vn 0 0.9995117 1.192093E-07
vn 0 0.9995117 1.192093E-07
vn 0 0.9995117 1.192093E-07
vn 0 0.9995117 1.192093E-07
vn 0 0.9995117 1.192093E-07
vn 0 0.9995117 1.192093E-07
vn 0 0.9995117 1.192093E-07
vn 0 0.9995117 1.192093E-07
vn 0 0.9995117 1.192093E-07
vn 0 0.9995117 1.192093E-07
vn 0 0.9995117 1.192093E-07
vn 0 0.9995117 1.192093E-07
vn 0 0.9995117 1.192093E-07
vn 0 0.9995117 1.192093E-07
vn 0 0.9995117 1.192093E-07
vn 0 0.9995117 1.192093E-07
vn 0 0.9995117 1.192093E-07
vn 0 0.9995117 1.192093E-07
vn 0 0.9995117 1.192093E-07
vn 0 0.9995117 1.192093E-07
vn 0 0.9995117 1.192093E-07
vn 0 0.9995117 1.192093E-07
vn 0 0.9995117 1.192093E-07
vn 0 0.9995117 1.192093E-07
vn 0 0.9995117 1.192093E-07
vn 0 0.9995117 1.192093E-07
vn 0 0.9995117 1.192093E-07
vn 0 0.9995117 1.192093E-07
vn 0 0.9995117 1.192093E-07
vn 0 0.9995117 1.192093E-07
vn 0 0.9995117 1.192093E-07
vn 0 0.9995117 1.192093E-07
vn 0 0.9995117 1.192093E-07
vn 0 0.9995117 1.192093E-07
vn 0 0.9995117 1.192093E-07
vn 0 0.9995117 1.192093E-07
vn 0 0.9995117 1.192093E-07
vn 0 0.9995117 1.192093E-07
vn 0 0.9995117 1.192093E-07
vn 0 0.9995117 1.192093E-07
vn 0 0.9995117 1.192093E-07

vt 0.949707 0.12854
vt 0.9291992 0.1258545
vt 0.7167969 0.9189453
vt 0.949707 0.949707
vt 0.4997559 0.8291016
vt 0.9106445 0.118103
vt 0.3134766 0.6860352
vt 0.894043 0.1055908
vt 0.1705322 0.5
vt 0.8818359 0.08929443
vt 0.8740234 0.0703125
vt 0.08062744 0.2827148
vt 0.8710938 0.04998779
vt 0.04998779 0.04998779
vt 0.949707 0.949707
vt 0.949707 0.12854
vt 0.9291992 0.1258545
vt 0.7167969 0.9189453
vt 0.5 0.8291016
vt 0.9106445 0.118103
vt 0.3134766 0.6860352
vt 0.894043 0.1055908
vt 0.1705322 0.4997559
vt 0.8818359 0.08929443
vt 0.8740234 0.0703125
vt 0.08062744 0.2827148
vt 0.8710938 0.04998779
vt 0.04998779 0.04998779
vt 0.949707 0.12854
vt 0.9291992 0.1258545
vt 0.7167969 0.9189453
vt 0.949707 0.949707
vt 0.5 0.8291016
vt 0.9106445 0.118103
vt 0.3134766 0.6860352
vt 0.894043 0.1055908
vt 0.1705322 0.5
vt 0.8818359 0.08929443
vt 0.8740234 0.0703125
vt 0.08062744 0.2827148
vt 0.8710938 0.04998779
vt 0.04998779 0.04998779

g Roads.010_33336_481
usemtl Roads.010_33336_481
usemap Roads.010_33336_481
f 1/1/1 3/3/3 2/2/2
f 1/1/1 4/4/4 3/3/3
f 2/2/2 3/3/3 5/5/5
f 2/2/2 5/5/5 6/6/6
f 6/6/6 5/5/5 7/7/7
f 6/6/6 7/7/7 8/8/8
f 8/8/8 7/7/7 9/9/9
f 8/8/8 9/9/9 10/10/10
f 9/9/9 11/11/11 10/10/10
f 9/9/9 12/12/12 11/11/11
f 12/12/12 13/13/13 11/11/11
f 12/12/12 14/14/14 13/13/13
f 15/15/15 17/17/17 16/16/16
f 15/15/15 18/18/18 17/17/17
f 17/17/17 18/18/18 19/19/19
f 17/17/17 19/19/19 20/20/20
f 20/20/20 19/19/19 21/21/21
f 20/20/20 21/21/21 22/22/22
f 22/22/22 21/21/21 23/23/23
f 22/22/22 23/23/23 24/24/24
f 23/23/23 25/25/25 24/24/24
f 23/23/23 26/26/26 25/25/25
f 26/26/26 27/27/27 25/25/25
f 26/26/26 28/28/28 27/27/27
f 29/29/29 31/31/31 30/30/30
f 29/29/29 32/32/32 31/31/31
f 30/30/30 31/31/31 33/33/33
f 30/30/30 33/33/33 34/34/34
f 34/34/34 33/33/33 35/35/35
f 34/34/34 35/35/35 36/36/36
f 36/36/36 35/35/35 37/37/37
f 36/36/36 37/37/37 38/38/38
f 37/37/37 39/39/39 38/38/38
f 37/37/37 40/40/40 39/39/39
f 40/40/40 41/41/41 39/39/39
f 40/40/40 42/42/42 41/41/41
