#Roads.008_34836_468.obj

v -479.5161 141.0396 -6.911321
v -479.9074 141.0912 -6.911321
v -479.9074 156.8819 -6.91132
v -475.4292 156.2923 -6.91132
v -471.256 154.5638 -6.911321
v -479.1514 140.8886 -6.911321
v -478.8382 140.6483 -6.911321
v -467.6725 151.814 -6.911321
v -478.5979 140.3351 -6.911321
v -464.9226 148.2304 -6.911321
v -478.4469 139.9703 -6.911321
v -463.1942 144.0574 -6.911321
v -462.6046 139.5789 -6.911321
v -478.3953 139.5791 -6.911321
v -505.205 156.8819 -6.91132
v -505.2052 141.0911 -6.911321
v -505.5964 141.0396 -6.911321
v -509.6834 156.2923 -6.91132
v -513.8565 154.5638 -6.911321
v -505.9612 140.8886 -6.911321
v -517.4401 151.814 -6.911321
v -506.2744 140.6483 -6.911321
v -520.1899 148.2305 -6.911321
v -506.5146 140.335 -6.911321
v -506.6656 139.9704 -6.911321
v -521.9184 144.0574 -6.911321
v -506.7173 139.5791 -6.911321
v -522.508 139.5791 -6.911321
v -338.8139 163.8528 -6.9113
v -338.4226 163.8012 -6.911299
v -338.4226 148.0105 -6.9113
v -342.9009 148.6001 -6.911301
v -347.0741 150.3285 -6.911301
v -339.1786 164.0038 -6.9113
v -339.4919 164.2441 -6.9113
v -350.6576 153.0784 -6.9113
v -339.7321 164.5574 -6.9113
v -353.4074 156.662 -6.9113
v -339.8831 164.922 -6.9113
v -355.1359 160.835 -6.9113
v -355.7255 165.3134 -6.9113
v -339.9348 165.3133 -6.9113

vn 0 0.9995117 1.192093E-07
vn 0 0.9995117 1.192093E-07
vn 0 0.9995117 1.192093E-07
vn 0 0.9995117 1.192093E-07
vn 0 0.9995117 1.192093E-07
vn 0 0.9995117 1.192093E-07
vn 0 0.9995117 1.192093E-07
vn 0 0.9995117 1.192093E-07
vn 0 0.9995117 1.192093E-07
vn 0 0.9995117 1.192093E-07
vn 0 0.9995117 1.192093E-07
vn 0 0.9995117 1.192093E-07
vn 0 0.9995117 1.192093E-07
vn 0 0.9995117 1.192093E-07
vn 0 0.9995117 1.192093E-07
vn 0 0.9995117 1.192093E-07
vn 0 0.9995117 1.192093E-07
vn 0 0.9995117 1.192093E-07
vn 0 0.9995117 1.192093E-07
vn 0 0.9995117 1.192093E-07
vn 0 0.9995117 1.192093E-07
vn 0 0.9995117 1.192093E-07
vn 0 0.9995117 1.192093E-07
vn 0 0.9995117 1.192093E-07
vn 0 0.9995117 1.192093E-07
vn 0 0.9995117 1.192093E-07
vn 0 0.9995117 1.192093E-07
vn 0 0.9995117 1.192093E-07
vn 0 0.9995117 1.192093E-07
vn 0 0.9995117 1.192093E-07
vn 0 0.9995117 1.192093E-07
vn 0 0.9995117 1.192093E-07
vn 0 0.9995117 1.192093E-07
vn 0 0.9995117 1.192093E-07
vn 0 0.9995117 1.192093E-07
vn 0 0.9995117 1.192093E-07
vn 0 0.9995117 1.192093E-07
vn 0 0.9995117 1.192093E-07
vn 0 0.9995117 1.192093E-07
vn 0 0.9995117 1.192093E-07
vn 0 0.9995117 1.192093E-07
vn 0 0.9995117 1.192093E-07

vt 0.8740234 0.0703125
vt 0.8710938 0.04998779
vt 0.04998779 0.04998779
vt 0.08062744 0.2827148
vt 0.1705322 0.5
vt 0.8818359 0.08929443
vt 0.894043 0.1055908
vt 0.3134766 0.6860352
vt 0.9106445 0.118103
vt 0.4997559 0.8291016
vt 0.9291992 0.1258545
vt 0.7167969 0.9189453
vt 0.949707 0.949707
vt 0.949707 0.12854
vt 0.949707 0.949707
vt 0.949707 0.12854
vt 0.9291992 0.1258545
vt 0.7167969 0.9189453
vt 0.4997559 0.8291016
vt 0.9106445 0.118103
vt 0.3134766 0.6860352
vt 0.894043 0.1055908
vt 0.1705322 0.5
vt 0.8818359 0.08929443
vt 0.8740234 0.0703125
vt 0.08062744 0.2827148
vt 0.8710938 0.04998779
vt 0.04998779 0.04998779
vt 0.8740234 0.0703125
vt 0.8710938 0.04998779
vt 0.04998779 0.04998779
vt 0.08062744 0.2827148
vt 0.1705322 0.5
vt 0.8818359 0.08929443
vt 0.894043 0.1055908
vt 0.3134766 0.6860352
vt 0.9106445 0.118103
vt 0.4997559 0.8291016
vt 0.9291992 0.1258545
vt 0.7167969 0.9189453
vt 0.949707 0.949707
vt 0.949707 0.12854

g Roads.008_34836_468
usemtl Roads.008_34836_468
usemap Roads.008_34836_468
f 1/1/1 3/3/3 2/2/2
f 1/1/1 4/4/4 3/3/3
f 5/5/5 4/4/4 1/1/1
f 5/5/5 1/1/1 6/6/6
f 7/7/7 5/5/5 6/6/6
f 7/7/7 8/8/8 5/5/5
f 9/9/9 8/8/8 7/7/7
f 9/9/9 10/10/10 8/8/8
f 11/11/11 10/10/10 9/9/9
f 11/11/11 12/12/12 10/10/10
f 13/13/13 12/12/12 11/11/11
f 13/13/13 11/11/11 14/14/14
f 15/15/15 17/17/17 16/16/16
f 15/15/15 18/18/18 17/17/17
f 17/17/17 18/18/18 19/19/19
f 17/17/17 19/19/19 20/20/20
f 20/20/20 19/19/19 21/21/21
f 20/20/20 21/21/21 22/22/22
f 22/22/22 21/21/21 23/23/23
f 22/22/22 23/23/23 24/24/24
f 23/23/23 25/25/25 24/24/24
f 23/23/23 26/26/26 25/25/25
f 26/26/26 27/27/27 25/25/25
f 26/26/26 28/28/28 27/27/27
f 29/29/29 31/31/31 30/30/30
f 29/29/29 32/32/32 31/31/31
f 33/33/33 32/32/32 29/29/29
f 33/33/33 29/29/29 34/34/34
f 35/35/35 33/33/33 34/34/34
f 35/35/35 36/36/36 33/33/33
f 37/37/37 36/36/36 35/35/35
f 37/37/37 38/38/38 36/36/36
f 39/39/39 38/38/38 37/37/37
f 39/39/39 40/40/40 38/38/38
f 41/41/41 40/40/40 39/39/39
f 41/41/41 39/39/39 42/42/42
