#Roads.002_34535_472.obj

v 646.4167 334.4372 -6.911294
v 646.4167 350.2279 -6.911293
v 662.2076 350.2279 -6.911293
v 662.2076 334.4372 -6.911294
v 541.7456 245.836 -6.911294
v 557.5364 245.8361 -6.911294
v 557.5364 230.0454 -6.911295
v 541.7455 230.0453 -6.911295
v 541.7456 308.6545 -6.911294
v 557.5364 308.6545 -6.911294
v 557.5364 292.8638 -6.911294
v 541.7455 292.8638 -6.911294
v 541.7456 350.2276 -6.911293
v 557.5364 350.2276 -6.911293
v 557.5364 334.4368 -6.911294
v 541.7455 334.4368 -6.911294
v 614.4554 350.2278 -6.911293
v 614.4554 334.4369 -6.911294
v 598.6647 334.4369 -6.911294
v 598.6647 350.2278 -6.911293
v 646.4167 292.9517 -6.911294
v 646.4167 308.7424 -6.911294
v 662.2076 308.7425 -6.911294
v 662.2076 292.9517 -6.911294
v 662.2077 236.6532 -6.911294
v 646.4169 236.6532 -6.911294
v 646.4169 252.4441 -6.911294
v 662.2077 252.4441 -6.911294
v 646.4167 310.2546 -6.911294
v 646.4167 331.1029 -6.911303
v 662.2075 312.0767 -6.911294
v 662.2075 310.2547 -6.911294
v 646.4166 332.925 -6.911298
v 662.2075 313.8986 -6.91129
v 662.2073 332.925 -6.911298
v 599.3735 251.7322 -6.911294
v 615.1642 251.7322 -6.911294
v 615.1642 235.9413 -6.911294
v 599.3735 235.9413 -6.911294
v 686.421 235.9416 -6.911294
v 686.4211 251.7323 -6.911294
v 702.2119 251.7324 -6.911294
v 702.2119 235.9416 -6.911294
v 607.9496 76.70616 -6.911297
v 607.9496 92.49699 -6.911296
v 623.7404 92.49694 -6.911296
v 623.7404 76.70608 -6.911297

vn 0 0.9995117 1.192093E-07
vn 0 0.9995117 1.192093E-07
vn 0 0.9995117 1.192093E-07
vn 0 0.9995117 1.192093E-07
vn 0 0.9995117 1.192093E-07
vn 0 0.9995117 1.192093E-07
vn 0 0.9995117 1.192093E-07
vn 0 0.9995117 1.192093E-07
vn 0 0.9995117 1.192093E-07
vn 0 0.9995117 1.192093E-07
vn 0 0.9995117 1.192093E-07
vn 0 0.9995117 1.192093E-07
vn 0 0.9995117 1.192093E-07
vn 0 0.9995117 1.192093E-07
vn 0 0.9995117 1.192093E-07
vn 0 0.9995117 1.192093E-07
vn 0 0.9995117 1.192093E-07
vn 0 0.9995117 1.192093E-07
vn 0 0.9995117 1.192093E-07
vn 0 0.9995117 1.192093E-07
vn 0 0.9995117 1.192093E-07
vn 0 0.9995117 1.192093E-07
vn 0 0.9995117 1.192093E-07
vn 0 0.9995117 1.192093E-07
vn 0 0.9995117 1.192093E-07
vn 0 0.9995117 1.192093E-07
vn 0 0.9995117 1.192093E-07
vn 0 0.9995117 1.192093E-07
vn 0 0.9995117 1.192093E-07
vn 0 0.9995117 1.192093E-07
vn 0 0.9995117 1.192093E-07
vn 0 0.9995117 1.192093E-07
vn 0 0.9995117 1.192093E-07
vn 0 0.9995117 1.192093E-07
vn 0 0.9995117 1.192093E-07
vn 0 0.9995117 1.192093E-07
vn 0 0.9995117 1.192093E-07
vn 0 0.9995117 1.192093E-07
vn 0 0.9995117 1.192093E-07
vn 0 0.9995117 1.192093E-07
vn 0 0.9995117 1.192093E-07
vn 0 0.9995117 1.192093E-07
vn 0 0.9995117 1.192093E-07
vn 0 0.9995117 1.192093E-07
vn 0 0.9995117 1.192093E-07
vn 0 0.9995117 1.192093E-07
vn 0 0.9995117 1.192093E-07

vt 0.004997253 0.004997253
vt 0.004997253 0.9946289
vt 0.9946289 0.9946289
vt 0.9946289 0.004997253
vt 0.9946289 0.004997253
vt 0.004997253 0.004997253
vt 0.004997253 0.9946289
vt 0.9946289 0.9946289
vt 0.9946289 0.004997253
vt 0.004997253 0.004997253
vt 0.004997253 0.9946289
vt 0.9946289 0.9946289
vt 0.9946289 0.004997253
vt 0.004997253 0.004997253
vt 0.004997253 0.9946289
vt 0.9946289 0.9946289
vt 0.9946289 0.004997253
vt 0.004997253 0.004997253
vt 0.004997253 0.9946289
vt 0.9946289 0.9946289
vt 0.004997253 0.004997253
vt 0.004997253 0.9946289
vt 0.9946289 0.9946289
vt 0.9946289 0.004997253
vt 0.9946289 0.9946289
vt 0.9946289 0.004997253
vt 0.004997253 0.004997253
vt 0.004997253 0.9946289
vt 1 0.9995117
vt 0.9995117 0.08032227
vt 0 0.9194336
vt 7.331371E-06 1
vt 0.9995117 0
vt 0 0.8388672
vt 0 6.377697E-06
vt 0.004997253 0.004997253
vt 0.004997253 0.9946289
vt 0.9946289 0.9946289
vt 0.9946289 0.004997253
vt 0.004997253 0.004997253
vt 0.004997253 0.9946289
vt 0.9946289 0.9946289
vt 0.9946289 0.004997253
vt 0.9946289 0.004997253
vt 0.004997253 0.004997253
vt 0.005001068 0.9946289
vt 0.9946289 0.9946289

g Roads.002_34535_472
usemtl Roads.002_34535_472
usemap Roads.002_34535_472
f 1/1/1 3/3/3 2/2/2
f 1/1/1 4/4/4 3/3/3
f 5/5/5 7/7/7 6/6/6
f 5/5/5 8/8/8 7/7/7
f 9/9/9 11/11/11 10/10/10
f 9/9/9 12/12/12 11/11/11
f 13/13/13 15/15/15 14/14/14
f 13/13/13 16/16/16 15/15/15
f 17/17/17 19/19/19 18/18/18
f 17/17/17 20/20/20 19/19/19
f 21/21/21 23/23/23 22/22/22
f 21/21/21 24/24/24 23/23/23
f 25/25/25 27/27/27 26/26/26
f 25/25/25 28/28/28 27/27/27
f 29/29/29 31/31/31 30/30/30
f 29/29/29 32/32/32 31/31/31
f 33/33/33 30/30/30 31/31/31
f 33/33/33 31/31/31 34/34/34
f 33/33/33 34/34/34 35/35/35
f 36/36/36 38/38/38 37/37/37
f 36/36/36 39/39/39 38/38/38
f 40/40/40 42/42/42 41/41/41
f 40/40/40 43/43/43 42/42/42
f 44/44/44 46/46/46 45/45/45
f 44/44/44 47/47/47 46/46/46
