#Roads.005_36233_483.obj

v 257.5204 372.5056 -6.911303
v 241.7296 372.5056 -6.911303
v 241.7296 376.1604 -6.911303
v 257.5204 376.1604 -6.911303
v 295.1442 460.0185 -6.911302
v 295.1662 474.3526 -6.911302
v 299.9968 474.3526 -6.911302
v 299.9968 460.0185 -6.911302

vn 0 0.9995117 1.192093E-07
vn 0 0.9995117 1.192093E-07
vn 0 0.9995117 1.192093E-07
vn 0 0.9995117 1.192093E-07
vn 0 0.9995117 1.192093E-07
vn 0 0.9995117 1.192093E-07
vn 0 0.9995117 1.192093E-07
vn 0 0.9995117 1.192093E-07

vt 1 0
vt 0 -5.960464E-08
vt -5.960464E-08 1
vt 1 1
vt 0 0.9731445
vt 1 1
vt 1 0
vt 0 -5.960464E-08

g Roads.005_36233_483
usemtl Roads.005_36233_483
usemap Roads.005_36233_483
f 1/1/1 3/3/3 2/2/2
f 1/1/1 4/4/4 3/3/3
f 5/5/5 7/7/7 6/6/6
f 5/5/5 8/8/8 7/7/7
