#Roads.012_38346_269.obj

v 180.9637 -91.93226 -6.911306
v 196.7545 -91.93228 -6.911306
v 196.806 -92.32364 -6.911306
v 181.5533 -96.41059 -6.911306
v 183.2818 -100.5837 -6.911306
v 196.9571 -92.68833 -6.911306
v 186.0316 -104.1673 -6.911306
v 197.1974 -93.0015 -6.911306
v 189.6151 -106.9171 -6.911306
v 197.5106 -93.2418 -6.911306
v 197.8752 -93.39286 -6.911306
v 193.7883 -108.6456 -6.911306
v 198.2666 -93.44437 -6.911306
v 198.2666 -109.2352 -6.911307
v 246.7557 -110.7473 -6.911301
v 230.9649 -110.7473 -6.911301
v 230.9134 -110.3559 -6.911301
v 246.1662 -106.269 -6.911301
v 244.4376 -102.0959 -6.911301
v 230.7623 -109.9912 -6.911301
v 241.6878 -98.51226 -6.911301
v 230.522 -109.6781 -6.911301
v 238.1043 -95.76256 -6.911301
v 230.2089 -109.4378 -6.911301
v 229.8442 -109.2867 -6.911301
v 233.9311 -94.03397 -6.9113
v 229.4528 -109.2352 -6.911301
v 229.4528 -93.44437 -6.911301
v -12.50366 -103.7601 -6.911298
v -16.59062 -88.50735 -6.911298
v -16.22594 -88.35629 -6.911298
v -8.330522 -102.0315 -6.911298
v -16.98198 -104.3496 -6.911298
v -16.98198 -88.55887 -6.911298
v -15.91277 -88.11594 -6.911298
v -4.746967 -99.28179 -6.911298
v -15.67245 -87.80283 -6.911298
v -1.997213 -95.69823 -6.911298
v -15.52139 -87.43814 -6.911298
v -0.2686442 -91.52509 -6.911298
v -15.46988 -87.04672 -6.911298
v 0.3209402 -87.04675 -6.911298
v 83.50397 -49.26089 -6.9113
v 99.92329 -49.26091 -6.9113
v 99.97482 -49.65227 -6.9113
v 84.72205 -53.73922 -6.9113
v 86.45062 -57.91238 -6.9113
v 100.1259 -50.01696 -6.9113
v 89.20039 -61.49594 -6.9113
v 100.3662 -50.33013 -6.9113
v 92.78393 -64.24564 -6.9113
v 100.6793 -50.57042 -6.9113
v 101.044 -50.72149 -6.9113
v 96.95707 -65.97423 -6.9113
v 101.4354 -50.773 -6.9113
v 101.4354 -66.56384 -6.9113

vn 0 0.9995117 1.192093E-07
vn 0 0.9995117 1.192093E-07
vn 0 0.9995117 1.192093E-07
vn 0 0.9995117 1.192093E-07
vn 0 0.9995117 1.192093E-07
vn 0 0.9995117 1.192093E-07
vn 0 0.9995117 1.192093E-07
vn 0 0.9995117 1.192093E-07
vn 0 0.9995117 1.192093E-07
vn 0 0.9995117 1.192093E-07
vn 0 0.9995117 1.192093E-07
vn 0 0.9995117 1.192093E-07
vn 0 0.9995117 1.192093E-07
vn 0 0.9995117 1.192093E-07
vn 0 0.9995117 1.192093E-07
vn 0 0.9995117 1.192093E-07
vn 0 0.9995117 1.192093E-07
vn 0 0.9995117 1.192093E-07
vn 0 0.9995117 1.192093E-07
vn 0 0.9995117 1.192093E-07
vn 0 0.9995117 1.192093E-07
vn 0 0.9995117 1.192093E-07
vn 0 0.9995117 1.192093E-07
vn 0 0.9995117 1.192093E-07
vn 0 0.9995117 1.192093E-07
vn 0 0.9995117 1.192093E-07
vn 0 0.9995117 1.192093E-07
vn 0 0.9995117 1.192093E-07
vn 0 0.9995117 1.192093E-07
vn 0 0.9995117 1.192093E-07
vn 0 0.9995117 1.192093E-07
vn 0 0.9995117 1.192093E-07
vn 0 0.9995117 1.192093E-07
vn 0 0.9995117 1.192093E-07
vn 0 0.9995117 1.192093E-07
vn 0 0.9995117 1.192093E-07
vn 0 0.9995117 1.192093E-07
vn 0 0.9995117 1.192093E-07
vn 0 0.9995117 1.192093E-07
vn 0 0.9995117 1.192093E-07
vn 0 0.9995117 1.192093E-07
vn 0 0.9995117 1.192093E-07
vn 0 0.9995117 1.192093E-07
vn 0 0.9995117 1.192093E-07
vn 0 0.9995117 1.192093E-07
vn 0 0.9995117 1.192093E-07
vn 0 0.9995117 1.192093E-07
vn 0 0.9995117 1.192093E-07
vn 0 0.9995117 1.192093E-07
vn 0 0.9995117 1.192093E-07
vn 0 0.9995117 1.192093E-07
vn 0 0.9995117 1.192093E-07
vn 0 0.9995117 1.192093E-07
vn 0 0.9995117 1.192093E-07
vn 0 0.9995117 1.192093E-07
vn 0 0.9995117 1.192093E-07

vt 0.949707 0.949707
vt 0.949707 0.12854
vt 0.9291992 0.1258545
vt 0.7167969 0.9189453
vt 0.5 0.8291016
vt 0.9106445 0.118103
vt 0.3134766 0.6860352
vt 0.894043 0.1055908
vt 0.1705322 0.5
vt 0.8818359 0.08929443
vt 0.8740234 0.0703125
vt 0.08062744 0.2827148
vt 0.8710938 0.04998779
vt 0.04998779 0.04998779
vt 0.949707 0.949707
vt 0.949707 0.12854
vt 0.9291992 0.1258545
vt 0.7167969 0.9189453
vt 0.4997559 0.8291016
vt 0.9106445 0.118103
vt 0.3134766 0.6860352
vt 0.894043 0.1055908
vt 0.1705322 0.5
vt 0.8818359 0.08929443
vt 0.8740234 0.0703125
vt 0.08062744 0.2827148
vt 0.8710938 0.04998779
vt 0.04998779 0.04998779
vt 0.7167969 0.9189453
vt 0.9291992 0.1258545
vt 0.9106445 0.118103
vt 0.4997559 0.8291016
vt 0.949707 0.949707
vt 0.949707 0.12854
vt 0.894043 0.1055908
vt 0.3134766 0.6860352
vt 0.8818359 0.08929443
vt 0.1705322 0.5
vt 0.8740234 0.0703125
vt 0.08062744 0.2827148
vt 0.8710938 0.04998779
vt 0.04998779 0.04998779
vt 0.949707 0.949707
vt 0.949707 0.12854
vt 0.9291992 0.1258545
vt 0.7167969 0.9189453
vt 0.5 0.8291016
vt 0.9106445 0.118103
vt 0.3134766 0.6860352
vt 0.894043 0.1055908
vt 0.1705322 0.5
vt 0.8818359 0.08929443
vt 0.8740234 0.0703125
vt 0.08062744 0.2827148
vt 0.8710938 0.04998779
vt 0.04998779 0.04998779

g Roads.012_38346_269
usemtl Roads.012_38346_269
usemap Roads.012_38346_269
f 1/1/1 3/3/3 2/2/2
f 1/1/1 4/4/4 3/3/3
f 3/3/3 4/4/4 5/5/5
f 3/3/3 5/5/5 6/6/6
f 6/6/6 5/5/5 7/7/7
f 6/6/6 7/7/7 8/8/8
f 8/8/8 7/7/7 9/9/9
f 8/8/8 9/9/9 10/10/10
f 9/9/9 11/11/11 10/10/10
f 9/9/9 12/12/12 11/11/11
f 12/12/12 13/13/13 11/11/11
f 12/12/12 14/14/14 13/13/13
f 15/15/15 17/17/17 16/16/16
f 15/15/15 18/18/18 17/17/17
f 17/17/17 18/18/18 19/19/19
f 17/17/17 19/19/19 20/20/20
f 20/20/20 19/19/19 21/21/21
f 20/20/20 21/21/21 22/22/22
f 22/22/22 21/21/21 23/23/23
f 22/22/22 23/23/23 24/24/24
f 23/23/23 25/25/25 24/24/24
f 23/23/23 26/26/26 25/25/25
f 26/26/26 27/27/27 25/25/25
f 26/26/26 28/28/28 27/27/27
f 29/29/29 31/31/31 30/30/30
f 29/29/29 32/32/32 31/31/31
f 33/33/33 29/29/29 30/30/30
f 33/33/33 30/30/30 34/34/34
f 32/32/32 35/35/35 31/31/31
f 32/32/32 36/36/36 35/35/35
f 36/36/36 37/37/37 35/35/35
f 36/36/36 38/38/38 37/37/37
f 38/38/38 39/39/39 37/37/37
f 38/38/38 40/40/40 39/39/39
f 40/40/40 41/41/41 39/39/39
f 40/40/40 42/42/42 41/41/41
f 43/43/43 45/45/45 44/44/44
f 43/43/43 46/46/46 45/45/45
f 45/45/45 46/46/46 47/47/47
f 45/45/45 47/47/47 48/48/48
f 48/48/48 47/47/47 49/49/49
f 48/48/48 49/49/49 50/50/50
f 50/50/50 49/49/49 51/51/51
f 50/50/50 51/51/51 52/52/52
f 51/51/51 53/53/53 52/52/52
f 51/51/51 54/54/54 53/53/53
f 54/54/54 55/55/55 53/53/53
f 54/54/54 56/56/56 55/55/55
