#Roads.004_34698_854.obj

v -332.7317 -328.5773 -6.911303
v -348.5226 -328.5773 -6.911303
v -348.5226 -312.7866 -6.911303
v -332.7318 -312.7866 -6.911303
v -264.4393 -345.1 -6.911317
v -248.6485 -345.1 -6.911317
v -248.6485 -360.8907 -6.911318
v -264.4393 -360.8907 -6.911318
v -264.4393 -384.1148 -6.911318
v -248.6485 -384.1147 -6.911318
v -248.6485 -399.9055 -6.911318
v -264.4393 -399.9055 -6.911318

vn 0 0.9995117 1.192093E-07
vn 0 0.9995117 1.192093E-07
vn 0 0.9995117 1.192093E-07
vn 0 0.9995117 1.192093E-07
vn 0 0.9995117 1.192093E-07
vn 0 0.9995117 1.192093E-07
vn 0 0.9995117 1.192093E-07
vn 0 0.9995117 1.192093E-07
vn 0 0.9995117 1.192093E-07
vn 0 0.9995117 1.192093E-07
vn 0 0.9995117 1.192093E-07
vn 0 0.9995117 1.192093E-07

vt 0.004997253 0.9946289
vt 0.9946289 0.9946289
vt 0.9946289 0.004997253
vt 0.004997253 0.005001068
vt 0.004997253 0.9946289
vt 0.9946289 0.9946289
vt 0.9946289 0.004997253
vt 0.005001068 0.004997253
vt 0.004997253 0.9946289
vt 0.9946289 0.9946289
vt 0.9946289 0.004997253
vt 0.005001068 0.004997253

g Roads.004_34698_854
usemtl Roads.004_34698_854
usemap Roads.004_34698_854
f 1/1/1 3/3/3 2/2/2
f 1/1/1 4/4/4 3/3/3
f 5/5/5 7/7/7 6/6/6
f 5/5/5 8/8/8 7/7/7
f 9/9/9 11/11/11 10/10/10
f 9/9/9 12/12/12 11/11/11
