#Roads.013_36153_279.obj

v 259.0325 370.9934 -6.911301
v 262.9028 370.9933 -6.911301
v 262.9028 355.2026 -6.911302
v 259.0325 355.2026 -6.911302
v 238.6153 325.076 -6.911298
v 239.0461 329.0339 -6.911299
v 254.8368 329.0339 -6.911299
v 254.4061 325.076 -6.911298
v 302.6714 353.6902 -6.911303
v 318.4623 353.6902 -6.911303
v 318.3814 349.6156 -6.911302
v 302.5906 349.6156 -6.911302
v 298.4234 198.5489 -6.911298
v 294.6918 198.5378 -6.911298
v 294.6918 214.3285 -6.911298
v 298.4234 214.3396 -6.911298
v 253.1632 196.906 -6.911294
v 253.1632 193.6976 -6.911294
v 237.3724 193.6976 -6.911294
v 237.3724 196.906 -6.911294
v 237.1032 323.5638 -6.911302
v 237.1032 307.773 -6.911302
v 232.8666 307.773 -6.911301
v 232.8666 323.5638 -6.911302
v 237.3723 215.7212 -6.9113
v 237.4196 219.1644 -6.9113
v 253.2104 219.1644 -6.9113
v 253.1632 215.7212 -6.9113
v 253.1632 176.4195 -6.911294
v 253.1632 172.951 -6.911294
v 237.3725 172.951 -6.911294
v 237.3725 176.4194 -6.911294
v 258.4473 198.4295 -6.911299
v 254.6753 198.4182 -6.911299
v 254.6753 214.209 -6.911298
v 258.4473 214.2202 -6.911298
v 299.9355 193.8763 -6.9113
v 299.9355 197.0367 -6.9113
v 315.7262 197.0367 -6.9113
v 315.7262 193.8763 -6.9113
v 315.7929 219.2109 -6.911294
v 315.7262 215.8518 -6.911294
v 299.9355 215.8518 -6.911294
v 300.0022 219.2109 -6.911294
v 299.9355 111.2521 -6.911301
v 299.9355 114.9546 -6.911301
v 315.7262 114.9545 -6.911301
v 315.7262 111.2521 -6.911301
v 238.5631 302.4701 -6.911304
v 238.6152 306.2608 -6.911304
v 254.406 306.2608 -6.911304
v 254.354 302.47 -6.911304
v 241.262 349.3949 -6.911302
v 241.7295 353.6904 -6.911303
v 257.5203 353.6904 -6.911303
v 257.0528 349.3949 -6.911302
v 296.9797 370.9932 -6.911301
v 301.1594 370.9931 -6.911301
v 301.1594 355.2024 -6.911301
v 296.9797 355.2024 -6.911301
v 317.1306 286.6006 -6.911299
v 317.0425 282.1625 -6.911298
v 301.2517 282.1625 -6.911298
v 301.3398 286.6006 -6.911299
v 188.5745 307.7729 -6.911298
v 184.8015 307.7729 -6.911298
v 184.8016 323.5638 -6.911302
v 188.5745 323.5638 -6.911302

vn 0 0.9995117 1.192093E-07
vn 0 0.9995117 1.192093E-07
vn 0 0.9995117 1.192093E-07
vn 0 0.9995117 1.192093E-07
vn 0 0.9995117 1.192093E-07
vn 0 0.9995117 1.192093E-07
vn 0 0.9995117 1.192093E-07
vn 0 0.9995117 1.192093E-07
vn 0 0.9995117 1.192093E-07
vn 0 0.9995117 1.192093E-07
vn 0 0.9995117 1.192093E-07
vn 0 0.9995117 1.192093E-07
vn 0 0.9995117 1.192093E-07
vn 0 0.9995117 1.192093E-07
vn 0 0.9995117 1.192093E-07
vn 0 0.9995117 1.192093E-07
vn 0 0.9995117 1.192093E-07
vn 0 0.9995117 1.192093E-07
vn 0 0.9995117 1.192093E-07
vn 0 0.9995117 1.192093E-07
vn 0 0.9995117 1.192093E-07
vn 0 0.9995117 1.192093E-07
vn 0 0.9995117 1.192093E-07
vn 0 0.9995117 1.192093E-07
vn 0 0.9995117 1.192093E-07
vn 0 0.9995117 1.192093E-07
vn 0 0.9995117 1.192093E-07
vn 0 0.9995117 1.192093E-07
vn 0 0.9995117 1.192093E-07
vn 0 0.9995117 1.192093E-07
vn 0 0.9995117 1.192093E-07
vn 0 0.9995117 1.192093E-07
vn 0 0.9995117 1.192093E-07
vn 0 0.9995117 1.192093E-07
vn 0 0.9995117 1.192093E-07
vn 0 0.9995117 1.192093E-07
vn 0 0.9995117 1.192093E-07
vn 0 0.9995117 1.192093E-07
vn 0 0.9995117 1.192093E-07
vn 0 0.9995117 1.192093E-07
vn 0 0.9995117 1.192093E-07
vn 0 0.9995117 1.192093E-07
vn 0 0.9995117 1.192093E-07
vn 0 0.9995117 1.192093E-07
vn 0 0.9995117 1.192093E-07
vn 0 0.9995117 1.192093E-07
vn 0 0.9995117 1.192093E-07
vn 0 0.9995117 1.192093E-07
vn 0 0.9995117 1.192093E-07
vn 0 0.9995117 1.192093E-07
vn 0 0.9995117 1.192093E-07
vn 0 0.9995117 1.192093E-07
vn 0 0.9995117 1.192093E-07
vn 0 0.9995117 1.192093E-07
vn 0 0.9995117 1.192093E-07
vn 0 0.9995117 1.192093E-07
vn 0 0.9995117 1.192093E-07
vn 0 0.9995117 1.192093E-07
vn 0 0.9995117 1.192093E-07
vn 0 0.9995117 1.192093E-07
vn 0 0.9995117 1.192093E-07
vn 0 0.9995117 1.192093E-07
vn 0 0.9995117 1.192093E-07
vn 0 0.9995117 1.192093E-07
vn 0 0.9995117 1.192093E-07
vn 0 0.9995117 1.192093E-07
vn 0 0.9995117 1.192093E-07
vn 0 0.9995117 1.192093E-07

vt 0 -5.960464E-08
vt -5.960464E-08 0.9995117
vt 1 1
vt 1 0
vt 1 1
vt 0.9731445 0
vt 0 -5.960464E-08
vt 0.02655029 1
vt 0.9946289 5.960464E-08
vt 0 -5.960464E-08
vt 0.005092621 1
vt 1 1
vt 0.9990234 1
vt 1 0
vt 0.0007047653 -5.960464E-08
vt -5.960464E-08 1
vt 1 1
vt 1 0
vt 0 -5.960464E-08
vt -5.960464E-08 1
vt 1 0
vt 0 -5.960464E-08
vt -5.960464E-08 0.9995117
vt 1 1
vt 1 1
vt 0.996582 5.960464E-08
vt 0 -5.960464E-08
vt 0.002983093 1
vt 0 -5.960464E-08
vt 1.907349E-06 1
vt 1 0.9995117
vt 0.9995117 0
vt 0.9990234 1
vt 1 0
vt 0.0007123947 -5.960464E-08
vt -5.960464E-08 0.9995117
vt 5.960464E-08 4.768372E-06
vt -5.960464E-08 1
vt 1 0.9995117
vt 1 0
vt 0 4.470348E-06
vt 0.004203796 1
vt 1 0.9995117
vt 0.9956055 5.960464E-08
vt 5.960464E-08 2.026558E-06
vt -5.960464E-08 1
vt 1 0.9995117
vt 1 0
vt 1 1
vt 0.996582 5.960464E-08
vt 0 -5.960464E-08
vt 0.003284454 1
vt 1 1
vt 0.9995117 0
vt 0 -5.960464E-08
vt 0.0004820824 1
vt 0 -5.960464E-08
vt 1.907349E-06 1
vt 1 1
vt 0.9995117 0
vt 1 1
vt 0.9941406 5.960464E-08
vt 0 -5.960464E-08
vt 0.00554657 0.9995117
vt 0 -5.960464E-08
vt -5.960464E-08 1
vt 1 0.9995117
vt 1 0

g Roads.013_36153_279
usemtl Roads.013_36153_279
usemap Roads.013_36153_279
f 1/1/1 3/3/3 2/2/2
f 1/1/1 4/4/4 3/3/3
f 5/5/5 7/7/7 6/6/6
f 5/5/5 8/8/8 7/7/7
f 9/9/9 11/11/11 10/10/10
f 9/9/9 12/12/12 11/11/11
f 13/13/13 15/15/15 14/14/14
f 13/13/13 16/16/16 15/15/15
f 17/17/17 19/19/19 18/18/18
f 17/17/17 20/20/20 19/19/19
f 21/21/21 23/23/23 22/22/22
f 21/21/21 24/24/24 23/23/23
f 25/25/25 27/27/27 26/26/26
f 25/25/25 28/28/28 27/27/27
f 29/29/29 31/31/31 30/30/30
f 29/29/29 32/32/32 31/31/31
f 33/33/33 35/35/35 34/34/34
f 33/33/33 36/36/36 35/35/35
f 37/37/37 39/39/39 38/38/38
f 37/37/37 40/40/40 39/39/39
f 41/41/41 43/43/43 42/42/42
f 41/41/41 44/44/44 43/43/43
f 45/45/45 47/47/47 46/46/46
f 45/45/45 48/48/48 47/47/47
f 49/49/49 51/51/51 50/50/50
f 49/49/49 52/52/52 51/51/51
f 53/53/53 55/55/55 54/54/54
f 53/53/53 56/56/56 55/55/55
f 57/57/57 59/59/59 58/58/58
f 57/57/57 60/60/60 59/59/59
f 61/61/61 63/63/63 62/62/62
f 61/61/61 64/64/64 63/63/63
f 65/65/65 67/67/67 66/66/66
f 65/65/65 68/68/68 67/67/67
