#Roads.015_36370_486.obj

v 110.6769 205.5671 -6.911291
v 110.6769 221.3578 -6.911294
v 111.0682 221.4094 -6.911291
v 115.1552 206.1567 -6.911291
v 119.3283 207.8852 -6.911291
v 111.433 221.5604 -6.911291
v 122.9119 210.635 -6.911291
v 111.7461 221.8007 -6.911291
v 125.6617 214.2185 -6.911291
v 111.9864 222.1139 -6.911291
v 112.1375 222.4787 -6.911291
v 127.3902 218.3916 -6.911291
v 112.189 222.8699 -6.911291
v 127.9798 222.8699 -6.911291
v 272.3053 39.11757 -6.911302
v 272.3054 54.90831 -6.911302
v 272.6967 54.95992 -6.911302
v 276.7837 39.70713 -6.911302
v 280.9567 41.43561 -6.911302
v 273.0614 55.11089 -6.911302
v 284.5403 44.18542 -6.911302
v 273.3746 55.35118 -6.911302
v 287.2901 47.76891 -6.911302
v 273.6149 55.66441 -6.911302
v 273.7659 56.02913 -6.911302
v 289.0186 51.9421 -6.911302
v 273.8175 56.42039 -6.911302
v 289.6082 56.4204 -6.911302
v 290.0024 79.42809 -6.911296
v 289.7621 79.11485 -6.911296
v 276.0868 87.01036 -6.911296
v 278.8366 90.59382 -6.911296
v 289.6111 78.75014 -6.911296
v 274.3583 82.83717 -6.911296
v 289.5595 78.35888 -6.911296
v 273.7688 78.35887 -6.911296
v 167.4986 225.3584 -6.911299
v 183.2893 225.3584 -6.911299
v 183.341 224.9671 -6.911294
v 168.0883 220.8801 -6.911294
v 169.8168 216.707 -6.911294
v 183.492 224.6024 -6.911294
v 172.5666 213.1235 -6.911294
v 183.7323 224.2892 -6.911294
v 176.1501 210.3737 -6.911294
v 184.0455 224.0489 -6.911294
v 184.4103 223.8979 -6.911294
v 180.3232 208.6451 -6.911294
v 184.8015 208.0556 -6.911289
v 184.8015 223.8464 -6.911294
v 185.1928 208.004 -6.911289
v 184.8015 208.0556 -6.911289
v 184.8015 223.8464 -6.911294
v 189.2798 223.2568 -6.911289
v 193.453 221.5282 -6.911288
v 185.5575 207.853 -6.911289
v 185.8708 207.6127 -6.911289
v 197.0365 218.7784 -6.911289
v 186.111 207.2995 -6.911289
v 199.7863 215.1949 -6.911289
v 186.262 206.9348 -6.911289
v 201.5148 211.0217 -6.911289
v 202.1044 206.5434 -6.911287
v 186.3136 206.5434 -6.911287
v 235.8603 26.54732 -6.911292
v 236.2516 26.59905 -6.911292
v 240.3386 11.3463 -6.911292
v 235.8602 10.7567 -6.911292
v 244.5116 13.07477 -6.911291
v 236.6163 26.75002 -6.911292
v 248.0952 15.82458 -6.911292
v 236.9295 26.99031 -6.911291
v 250.845 19.40808 -6.911292
v 237.1698 27.30355 -6.911291
v 237.3208 27.66826 -6.911291
v 252.5735 23.58123 -6.911291
v 237.3724 28.05953 -6.911291
v 253.1631 28.05953 -6.911291

vn 0 0.9995117 1.192093E-07
vn 0 0.9995117 1.192093E-07
vn 0 0.9995117 1.192093E-07
vn 0 0.9995117 1.192093E-07
vn 0 0.9995117 1.192093E-07
vn 0 0.9995117 1.192093E-07
vn 0 0.9995117 1.192093E-07
vn 0 0.9995117 1.192093E-07
vn 0 0.9995117 1.192093E-07
vn 0 0.9995117 1.192093E-07
vn 0 0.9995117 1.192093E-07
vn 0 0.9995117 1.192093E-07
vn 0 0.9995117 1.192093E-07
vn 0 0.9995117 1.192093E-07
vn 0 0.9995117 1.192093E-07
vn 0 0.9995117 1.192093E-07
vn 0 0.9995117 1.192093E-07
vn 0 0.9995117 1.192093E-07
vn 0 0.9995117 1.192093E-07
vn 0 0.9995117 1.192093E-07
vn 0 0.9995117 1.192093E-07
vn 0 0.9995117 1.192093E-07
vn 0 0.9995117 1.192093E-07
vn 0 0.9995117 1.192093E-07
vn 0 0.9995117 1.192093E-07
vn 0 0.9995117 1.192093E-07
vn 0 0.9995117 1.192093E-07
vn 0 0.9995117 1.192093E-07
vn 0 0.9995117 1.192093E-07
vn 0 0.9995117 1.192093E-07
vn 0 0.9995117 1.192093E-07
vn 0 0.9995117 1.192093E-07
vn 0 0.9995117 1.192093E-07
vn 0 0.9995117 1.192093E-07
vn 0 0.9995117 1.192093E-07
vn 0 0.9995117 1.192093E-07
vn 0 0.9995117 1.192093E-07
vn 0 0.9995117 1.192093E-07
vn 0 0.9995117 1.192093E-07
vn 0 0.9995117 1.192093E-07
vn 0 0.9995117 1.192093E-07
vn 0 0.9995117 1.192093E-07
vn 0 0.9995117 1.192093E-07
vn 0 0.9995117 1.192093E-07
vn 0 0.9995117 1.192093E-07
vn 0 0.9995117 1.192093E-07
vn 0 0.9995117 1.192093E-07
vn 0 0.9995117 1.192093E-07
vn 0 0.9995117 1.192093E-07
vn 0 0.9995117 1.192093E-07
vn 0 0.9995117 1.192093E-07
vn 0 0.9995117 1.192093E-07
vn 0 0.9995117 1.192093E-07
vn 0 0.9995117 1.192093E-07
vn 0 0.9995117 1.192093E-07
vn 0 0.9995117 1.192093E-07
vn 0 0.9995117 1.192093E-07
vn 0 0.9995117 1.192093E-07
vn 0 0.9995117 1.192093E-07
vn 0 0.9995117 1.192093E-07
vn 0 0.9995117 1.192093E-07
vn 0 0.9995117 1.192093E-07
vn 0 0.9995117 1.192093E-07
vn 0 0.9995117 1.192093E-07
vn 0 0.9995117 1.192093E-07
vn 0 0.9995117 1.192093E-07
vn 0 0.9995117 1.192093E-07
vn 0 0.9995117 1.192093E-07
vn 0 0.9995117 1.192093E-07
vn 0 0.9995117 1.192093E-07
vn 0 0.9995117 1.192093E-07
vn 0 0.9995117 1.192093E-07
vn 0 0.9995117 1.192093E-07
vn 0 0.9995117 1.192093E-07
vn 0 0.9995117 1.192093E-07
vn 0 0.9995117 1.192093E-07
vn 0 0.9995117 1.192093E-07
vn 0 0.9995117 1.192093E-07

vt 0.949707 0.949707
vt 0.949707 0.12854
vt 0.9291992 0.1258545
vt 0.7167969 0.9189453
vt 0.4997559 0.8291016
vt 0.9106445 0.118103
vt 0.3134766 0.6860352
vt 0.894043 0.1055908
vt 0.1705322 0.5
vt 0.8818359 0.08929443
vt 0.8740234 0.0703125
vt 0.08062744 0.2827148
vt 0.8710938 0.04998779
vt 0.04998779 0.04998779
vt 0.949707 0.949707
vt 0.949707 0.12854
vt 0.9291992 0.1258545
vt 0.7167969 0.9189453
vt 0.4997559 0.8291016
vt 0.9106445 0.118103
vt 0.3134766 0.6860352
vt 0.894043 0.1055908
vt 0.1705322 0.5
vt 0.8818359 0.08929443
vt 0.8740234 0.0703125
vt 0.08062744 0.2827148
vt 0.8710938 0.04998779
vt 0.04998779 0.04998779
vt 0.894043 0.1055908
vt 0.8818359 0.08929443
vt 0.1705322 0.5
vt 0.3134766 0.6860352
vt 0.8740234 0.0703125
vt 0.08062744 0.2827148
vt 0.8710938 0.04998779
vt 0.04998779 0.04998779
vt 0.949707 0.949707
vt 0.949707 0.12854
vt 0.9291992 0.1258545
vt 0.7167969 0.9189453
vt 0.5 0.8291016
vt 0.9106445 0.118103
vt 0.3134766 0.6860352
vt 0.894043 0.1055908
vt 0.1705322 0.4997559
vt 0.8818359 0.08929443
vt 0.8740234 0.0703125
vt 0.08062744 0.2827148
vt 0.04998779 0.04998779
vt 0.8710938 0.04998779
vt 0.8740234 0.0703125
vt 0.8710938 0.04998779
vt 0.04379272 0.04998779
vt 0.08062744 0.2827148
vt 0.1705322 0.5
vt 0.8818359 0.08929443
vt 0.894043 0.1055908
vt 0.3134766 0.6860352
vt 0.9106445 0.118103
vt 0.4997559 0.8291016
vt 0.9291992 0.1258545
vt 0.7167969 0.9189453
vt 0.949707 0.949707
vt 0.949707 0.12854
vt 0.949707 0.12854
vt 0.9291992 0.1258545
vt 0.7167969 0.9189453
vt 0.949707 0.949707
vt 0.5 0.8291016
vt 0.9106445 0.118103
vt 0.3134766 0.6860352
vt 0.894043 0.1055908
vt 0.1705322 0.5
vt 0.8818359 0.08929443
vt 0.8740234 0.0703125
vt 0.08062744 0.2827148
vt 0.8710938 0.04998779
vt 0.04998779 0.04998779

g Roads.015_36370_486
usemtl Roads.015_36370_486
usemap Roads.015_36370_486
f 1/1/1 3/3/3 2/2/2
f 1/1/1 4/4/4 3/3/3
f 3/3/3 4/4/4 5/5/5
f 3/3/3 5/5/5 6/6/6
f 6/6/6 5/5/5 7/7/7
f 6/6/6 7/7/7 8/8/8
f 8/8/8 7/7/7 9/9/9
f 8/8/8 9/9/9 10/10/10
f 9/9/9 11/11/11 10/10/10
f 9/9/9 12/12/12 11/11/11
f 12/12/12 13/13/13 11/11/11
f 12/12/12 14/14/14 13/13/13
f 15/15/15 17/17/17 16/16/16
f 15/15/15 18/18/18 17/17/17
f 17/17/17 18/18/18 19/19/19
f 17/17/17 19/19/19 20/20/20
f 20/20/20 19/19/19 21/21/21
f 20/20/20 21/21/21 22/22/22
f 22/22/22 21/21/21 23/23/23
f 22/22/22 23/23/23 24/24/24
f 23/23/23 25/25/25 24/24/24
f 23/23/23 26/26/26 25/25/25
f 26/26/26 27/27/27 25/25/25
f 26/26/26 28/28/28 27/27/27
f 29/29/29 31/31/31 30/30/30
f 29/29/29 32/32/32 31/31/31
f 31/31/31 33/33/33 30/30/30
f 31/31/31 34/34/34 33/33/33
f 34/34/34 35/35/35 33/33/33
f 34/34/34 36/36/36 35/35/35
f 37/37/37 39/39/39 38/38/38
f 37/37/37 40/40/40 39/39/39
f 39/39/39 40/40/40 41/41/41
f 39/39/39 41/41/41 42/42/42
f 42/42/42 41/41/41 43/43/43
f 42/42/42 43/43/43 44/44/44
f 44/44/44 43/43/43 45/45/45
f 44/44/44 45/45/45 46/46/46
f 45/45/45 47/47/47 46/46/46
f 45/45/45 48/48/48 47/47/47
f 47/47/47 48/48/48 49/49/49
f 47/47/47 49/49/49 50/50/50
f 51/51/51 53/53/53 52/52/52
f 51/51/51 54/54/54 53/53/53
f 55/55/55 54/54/54 51/51/51
f 55/55/55 51/51/51 56/56/56
f 57/57/57 55/55/55 56/56/56
f 57/57/57 58/58/58 55/55/55
f 59/59/59 58/58/58 57/57/57
f 59/59/59 60/60/60 58/58/58
f 61/61/61 60/60/60 59/59/59
f 61/61/61 62/62/62 60/60/60
f 63/63/63 62/62/62 61/61/61
f 63/63/63 61/61/61 64/64/64
f 65/65/65 67/67/67 66/66/66
f 65/65/65 68/68/68 67/67/67
f 66/66/66 67/67/67 69/69/69
f 66/66/66 69/69/69 70/70/70
f 70/70/70 69/69/69 71/71/71
f 70/70/70 71/71/71 72/72/72
f 72/72/72 71/71/71 73/73/73
f 72/72/72 73/73/73 74/74/74
f 73/73/73 75/75/75 74/74/74
f 73/73/73 76/76/76 75/75/75
f 76/76/76 77/77/77 75/75/75
f 76/76/76 78/78/78 77/77/77
