#Roads.015_36370_490.obj

v 183.6814 323.9558 -6.911298
v 183.6814 307.3809 -6.911298
v 167.1065 307.3808 -6.911298
v 167.1065 323.9558 -6.911298
v 181.6702 155.648 -6.911295
v 181.6702 171.4389 -6.911294
v 197.4609 171.4389 -6.911294
v 197.4609 155.6481 -6.911295

vn 0 0.9995117 1.192093E-07
vn 0 0.9995117 1.192093E-07
vn 0 0.9995117 1.192093E-07
vn 0 0.9995117 1.192093E-07
vn 0 0.9995117 1.192093E-07
vn 0 0.9995117 1.192093E-07
vn 0 0.9995117 1.192093E-07
vn 0 0.9995117 1.192093E-07

vt 1.788139E-07 -2.384186E-07
vt 0.9995117 -2.086163E-06
vt 1 0.9995117
vt 1.192093E-07 1
vt -4.947186E-06 -2.563E-06
vt 0 1
vt 0.9995117 1
vt 1 1.788139E-07

g Roads.015_36370_490
usemtl Roads.015_36370_490
usemap Roads.015_36370_490
f 1/1/1 3/3/3 2/2/2
f 1/1/1 4/4/4 3/3/3
f 5/5/5 7/7/7 6/6/6
f 5/5/5 8/8/8 7/7/7
