#Roads.001_37915_452.obj

v 125.2026 -432.2538 -6.911301
v 125.2541 -432.6451 -6.911295
v 110.0014 -436.7321 -6.911295
v 109.4118 -432.2537 -6.911301
v 111.7299 -440.9052 -6.911295
v 125.4052 -433.0097 -6.911295
v 114.4797 -444.4887 -6.911295
v 125.6455 -433.323 -6.911295
v 118.0632 -447.2385 -6.911295
v 125.9587 -433.5633 -6.911295
v 126.3234 -433.7143 -6.911295
v 122.2364 -448.967 -6.911295
v 126.7148 -433.7658 -6.911295
v 126.7148 -449.5567 -6.911296
v 421.6884 -491.0704 -6.911295
v 406.4356 -486.9834 -6.911295
v 406.4871 -486.5921 -6.911295
v 422.278 -486.5921 -6.911295
v 419.9598 -495.2435 -6.911295
v 406.2845 -487.3481 -6.911295
v 406.0443 -487.6613 -6.911295
v 417.2101 -498.827 -6.911295
v 405.7311 -487.9016 -6.911295
v 413.6265 -501.5769 -6.911295
v 405.3664 -488.0526 -6.911295
v 409.4533 -503.3053 -6.911295
v 404.975 -503.8949 -6.911295
v 404.975 -488.1042 -6.911295
v 486.23 -449.5566 -6.911295
v 486.23 -433.7659 -6.911294
v 486.6214 -433.7144 -6.911294
v 490.7083 -448.9671 -6.911294
v 494.8815 -447.2386 -6.911294
v 486.9861 -433.5634 -6.911294
v 498.465 -444.4888 -6.911294
v 487.2992 -433.3231 -6.911294
v 501.2148 -440.9053 -6.911294
v 487.5395 -433.0098 -6.911294
v 487.6906 -432.6451 -6.911294
v 502.9434 -436.7322 -6.911294
v 487.7421 -432.2538 -6.911294
v 503.533 -432.2538 -6.911294
v 379.5948 -403.3147 -6.911298
v 379.5948 -419.1055 -6.911298
v 379.2034 -419.1571 -6.911298
v 375.1165 -403.9043 -6.911298
v 370.9433 -405.6328 -6.911298
v 378.8387 -419.3081 -6.911298
v 367.3598 -408.3826 -6.911298
v 378.5256 -419.5484 -6.911298
v 364.61 -411.9661 -6.911298
v 378.2853 -419.8616 -6.911298
v 378.1342 -420.2263 -6.911298
v 362.8814 -416.1393 -6.911298
v 378.0827 -420.6176 -6.911298
v 362.2918 -420.6176 -6.911298
v 449.2267 -351.213 -6.911296
v 449.2267 -367.0037 -6.911296
v 448.8353 -367.0553 -6.911297
v 444.7484 -351.8026 -6.911296
v 440.5752 -353.531 -6.911297
v 448.4706 -367.2063 -6.911297
v 436.9917 -356.2809 -6.911296
v 448.1575 -367.4466 -6.911297
v 434.2419 -359.8643 -6.911296
v 447.9172 -367.7598 -6.911297
v 447.7661 -368.1245 -6.911297
v 432.5133 -364.0375 -6.911297
v 447.7146 -368.5158 -6.911297
v 431.9237 -368.5159 -6.911297
v 551.9269 -414.1634 -6.911297
v 536.1362 -414.1634 -6.911297
v 536.0846 -413.772 -6.911298
v 551.3373 -409.6852 -6.911297
v 549.6088 -405.5119 -6.911297
v 535.9336 -413.4074 -6.911297
v 546.8591 -401.9284 -6.911297
v 535.6933 -413.0942 -6.911297
v 543.2756 -399.1787 -6.911297
v 535.3801 -412.8539 -6.911297
v 535.0154 -412.7028 -6.911297
v 539.1024 -397.45 -6.911297
v 534.6241 -412.6513 -6.911297
v 534.6241 -396.8605 -6.9113
v 536.1363 -425.9177 -6.911293
v 551.927 -425.9177 -6.911293
v 551.9786 -426.3091 -6.911292
v 536.7259 -430.3959 -6.911292
v 538.4543 -434.5692 -6.911292
v 552.1296 -426.6737 -6.911292
v 541.2042 -438.1527 -6.911292
v 552.3699 -426.9869 -6.911292
v 544.7877 -440.9024 -6.911293
v 552.6831 -427.2271 -6.911292
v 553.0479 -427.3783 -6.911292
v 548.9608 -442.6311 -6.911293
v 553.4391 -427.4298 -6.911292
v 553.4391 -443.2206 -6.911293
v 595.6641 -444.7327 -6.911298
v 579.8734 -444.7327 -6.911298
v 579.8218 -444.3413 -6.911298
v 595.0746 -440.2543 -6.911298
v 593.3461 -436.0812 -6.911298
v 579.6708 -443.9766 -6.911298
v 590.5963 -432.4977 -6.911298
v 579.4305 -443.6635 -6.911298
v 587.0128 -429.748 -6.911298
v 579.1173 -443.4231 -6.911298
v 578.7526 -443.2721 -6.911298
v 582.8397 -428.0193 -6.911298
v 578.3614 -443.2206 -6.911293
v 578.3614 -427.4298 -6.911292
v 540.0743 -372.5674 -6.911299
v 539.9233 -372.9321 -6.911299
v 524.6706 -368.8451 -6.911299
v 526.3991 -364.6719 -6.911299
v 540.3146 -372.2541 -6.911299
v 529.1489 -361.0884 -6.911299
v 540.6279 -372.0139 -6.911299
v 532.7325 -358.3386 -6.911299
v 540.9926 -371.8629 -6.911299
v 536.9056 -356.6102 -6.911299
v 541.3839 -371.8112 -6.911299
v 541.384 -356.0205 -6.911299
v 524.0809 -373.3234 -6.911299
v 539.8716 -373.3233 -6.911299

vn 0 0.9995117 1.192093E-07
vn 0 0.9995117 1.192093E-07
vn 0 0.9995117 1.192093E-07
vn 0 0.9995117 1.192093E-07
vn 0 0.9995117 1.192093E-07
vn 0 0.9995117 1.192093E-07
vn 0 0.9995117 1.192093E-07
vn 0 0.9995117 1.192093E-07
vn 0 0.9995117 1.192093E-07
vn 0 0.9995117 1.192093E-07
vn 0 0.9995117 1.192093E-07
vn 0 0.9995117 1.192093E-07
vn 0 0.9995117 1.192093E-07
vn 0 0.9995117 1.192093E-07
vn 0 0.9995117 1.192093E-07
vn 0 0.9995117 1.192093E-07
vn 0 0.9995117 1.192093E-07
vn 0 0.9995117 1.192093E-07
vn 0 0.9995117 1.192093E-07
vn 0 0.9995117 1.192093E-07
vn 0 0.9995117 1.192093E-07
vn 0 0.9995117 1.192093E-07
vn 0 0.9995117 1.192093E-07
vn 0 0.9995117 1.192093E-07
vn 0 0.9995117 1.192093E-07
vn 0 0.9995117 1.192093E-07
vn 0 0.9995117 1.192093E-07
vn 0 0.9995117 1.192093E-07
vn 0 0.9995117 1.192093E-07
vn 0 0.9995117 1.192093E-07
vn 0 0.9995117 1.192093E-07
vn 0 0.9995117 1.192093E-07
vn 0 0.9995117 1.192093E-07
vn 0 0.9995117 1.192093E-07
vn 0 0.9995117 1.192093E-07
vn 0 0.9995117 1.192093E-07
vn 0 0.9995117 1.192093E-07
vn 0 0.9995117 1.192093E-07
vn 0 0.9995117 1.192093E-07
vn 0 0.9995117 1.192093E-07
vn 0 0.9995117 1.192093E-07
vn 0 0.9995117 1.192093E-07
vn 0 0.9995117 1.192093E-07
vn 0 0.9995117 1.192093E-07
vn 0 0.9995117 1.192093E-07
vn 0 0.9995117 1.192093E-07
vn 0 0.9995117 1.192093E-07
vn 0 0.9995117 1.192093E-07
vn 0 0.9995117 1.192093E-07
vn 0 0.9995117 1.192093E-07
vn 0 0.9995117 1.192093E-07
vn 0 0.9995117 1.192093E-07
vn 0 0.9995117 1.192093E-07
vn 0 0.9995117 1.192093E-07
vn 0 0.9995117 1.192093E-07
vn 0 0.9995117 1.192093E-07
vn 0 0.9995117 1.192093E-07
vn 0 0.9995117 1.192093E-07
vn 0 0.9995117 1.192093E-07
vn 0 0.9995117 1.192093E-07
vn 0 0.9995117 1.192093E-07
vn 0 0.9995117 1.192093E-07
vn 0 0.9995117 1.192093E-07
vn 0 0.9995117 1.192093E-07
vn 0 0.9995117 1.192093E-07
vn 0 0.9995117 1.192093E-07
vn 0 0.9995117 1.192093E-07
vn 0 0.9995117 1.192093E-07
vn 0 0.9995117 1.192093E-07
vn 0 0.9995117 1.192093E-07
vn 0 0.9995117 1.192093E-07
vn 0 0.9995117 1.192093E-07
vn 0 0.9995117 1.192093E-07
vn 0 0.9995117 1.192093E-07
vn 0 0.9995117 1.192093E-07
vn 0 0.9995117 1.192093E-07
vn 0 0.9995117 1.192093E-07
vn 0 0.9995117 1.192093E-07
vn 0 0.9995117 1.192093E-07
vn 0 0.9995117 1.192093E-07
vn 0 0.9995117 1.192093E-07
vn 0 0.9995117 1.192093E-07
vn 0 0.9995117 1.192093E-07
vn 0 0.9995117 1.192093E-07
vn 0 0.9995117 1.192093E-07
vn 0 0.9995117 1.192093E-07
vn 0 0.9995117 1.192093E-07
vn 0 0.9995117 1.192093E-07
vn 0 0.9995117 1.192093E-07
vn 0 0.9995117 1.192093E-07
vn 0 0.9995117 1.192093E-07
vn 0 0.9995117 1.192093E-07
vn 0 0.9995117 1.192093E-07
vn 0 0.9995117 1.192093E-07
vn 0 0.9995117 1.192093E-07
vn 0 0.9995117 1.192093E-07
vn 0 0.9995117 1.192093E-07
vn 0 0.9995117 1.192093E-07
vn 0 0.9995117 1.192093E-07
vn 0 0.9995117 1.192093E-07
vn 0 0.9995117 1.192093E-07
vn 0 0.9995117 1.192093E-07
vn 0 0.9995117 1.192093E-07
vn 0 0.9995117 1.192093E-07
vn 0 0.9995117 1.192093E-07
vn 0 0.9995117 1.192093E-07
vn 0 0.9995117 1.192093E-07
vn 0 0.9995117 1.192093E-07
vn 0 0.9995117 1.192093E-07
vn 0 0.9995117 1.192093E-07
vn 0 0.9995117 1.192093E-07
vn 0 0.9995117 1.192093E-07
vn 0 0.9995117 1.192093E-07
vn 0 0.9995117 1.192093E-07
vn 0 0.9995117 1.192093E-07
vn 0 0.9995117 1.192093E-07
vn 0 0.9995117 1.192093E-07
vn 0 0.9995117 1.192093E-07
vn 0 0.9995117 1.192093E-07
vn 0 0.9995117 1.192093E-07
vn 0 0.9995117 1.192093E-07
vn 0 0.9995117 1.192093E-07
vn 0 0.9995117 1.192093E-07
vn 0 0.9995117 1.192093E-07
vn 0 0.9995117 1.192093E-07
vn 0 0.9995117 1.192093E-07

vt 0.949707 0.12854
vt 0.9291992 0.1258545
vt 0.7167969 0.9189453
vt 0.949707 0.949707
vt 0.4997559 0.8291016
vt 0.9106445 0.118103
vt 0.3134766 0.6860352
vt 0.894043 0.1055908
vt 0.1705322 0.5
vt 0.8818359 0.08929443
vt 0.8740234 0.0703125
vt 0.08062744 0.2827148
vt 0.8710938 0.04998779
vt 0.04998779 0.04998779
vt 0.08062744 0.2827148
vt 0.8740234 0.0703125
vt 0.8710938 0.04998779
vt 0.04998779 0.04998779
vt 0.1705322 0.5
vt 0.8818359 0.08929443
vt 0.894043 0.1055908
vt 0.3134766 0.6860352
vt 0.9106445 0.118103
vt 0.4997559 0.8291016
vt 0.9291992 0.1258545
vt 0.7167969 0.9189453
vt 0.949707 0.949707
vt 0.949707 0.12854
vt 0.949707 0.949707
vt 0.949707 0.12854
vt 0.9291992 0.1258545
vt 0.7167969 0.9189453
vt 0.4997559 0.8291016
vt 0.9106445 0.118103
vt 0.3134766 0.6860352
vt 0.894043 0.1055908
vt 0.1705322 0.5
vt 0.8818359 0.08929443
vt 0.8740234 0.0703125
vt 0.08062744 0.2827148
vt 0.8710938 0.04998779
vt 0.04998779 0.04998779
vt 0.949707 0.949707
vt 0.949707 0.12854
vt 0.9291992 0.1258545
vt 0.7167969 0.9189453
vt 0.4997559 0.8291016
vt 0.9106445 0.118103
vt 0.3134766 0.6860352
vt 0.894043 0.1055908
vt 0.1705322 0.5
vt 0.8818359 0.08929443
vt 0.8740234 0.0703125
vt 0.08062744 0.2827148
vt 0.8710938 0.04998779
vt 0.04998779 0.04998779
vt 0.949707 0.949707
vt 0.949707 0.12854
vt 0.9291992 0.1258545
vt 0.7167969 0.9189453
vt 0.4997559 0.8291016
vt 0.9106445 0.118103
vt 0.3134766 0.6860352
vt 0.894043 0.1055908
vt 0.1705322 0.5
vt 0.8818359 0.08929443
vt 0.8740234 0.0703125
vt 0.08062744 0.2827148
vt 0.8710938 0.04998779
vt 0.04998779 0.04998779
vt 0.949707 0.949707
vt 0.949707 0.12854
vt 0.9291992 0.1258545
vt 0.7167969 0.9189453
vt 0.4997559 0.8291016
vt 0.9106445 0.118103
vt 0.3134766 0.6860352
vt 0.894043 0.1055908
vt 0.1705322 0.5
vt 0.8818359 0.08929443
vt 0.8740234 0.0703125
vt 0.08062744 0.2827148
vt 0.8710938 0.04998779
vt 0.04998779 0.04998779
vt 0.949707 0.949707
vt 0.949707 0.12854
vt 0.9291992 0.1258545
vt 0.7167969 0.9189453
vt 0.4997559 0.8291016
vt 0.9106445 0.118103
vt 0.3134766 0.6860352
vt 0.894043 0.1055908
vt 0.1705322 0.5
vt 0.8818359 0.08929443
vt 0.8740234 0.0703125
vt 0.08062744 0.2827148
vt 0.8710938 0.04998779
vt 0.04998779 0.04998779
vt 0.949707 0.949707
vt 0.949707 0.12854
vt 0.9291992 0.1258545
vt 0.7167969 0.9189453
vt 0.5 0.8291016
vt 0.9106445 0.118103
vt 0.3134766 0.6860352
vt 0.894043 0.1055908
vt 0.1705322 0.5
vt 0.8818359 0.08929443
vt 0.8740234 0.0703125
vt 0.08062744 0.2827148
vt 0.8710938 0.04998779
vt 0.04998779 0.04998779
vt 0.8818359 0.08929443
vt 0.8740234 0.0703125
vt 0.08062744 0.2827148
vt 0.1705322 0.5
vt 0.894043 0.1055908
vt 0.3134766 0.6860352
vt 0.9106445 0.118103
vt 0.5 0.8291016
vt 0.9291992 0.1258545
vt 0.7167969 0.9189453
vt 0.949707 0.12854
vt 0.949707 0.949707
vt 0.04998779 0.04998779
vt 0.8710938 0.04998779

g Roads.001_37915_452
usemtl Roads.001_37915_452
usemap Roads.001_37915_452
f 1/1/1 3/3/3 2/2/2
f 1/1/1 4/4/4 3/3/3
f 2/2/2 3/3/3 5/5/5
f 2/2/2 5/5/5 6/6/6
f 6/6/6 5/5/5 7/7/7
f 6/6/6 7/7/7 8/8/8
f 8/8/8 7/7/7 9/9/9
f 8/8/8 9/9/9 10/10/10
f 9/9/9 11/11/11 10/10/10
f 9/9/9 12/12/12 11/11/11
f 12/12/12 13/13/13 11/11/11
f 12/12/12 14/14/14 13/13/13
f 15/15/15 17/17/17 16/16/16
f 15/15/15 18/18/18 17/17/17
f 19/19/19 15/15/15 16/16/16
f 19/19/19 16/16/16 20/20/20
f 21/21/21 19/19/19 20/20/20
f 21/21/21 22/22/22 19/19/19
f 23/23/23 22/22/22 21/21/21
f 23/23/23 24/24/24 22/22/22
f 25/25/25 24/24/24 23/23/23
f 25/25/25 26/26/26 24/24/24
f 27/27/27 26/26/26 25/25/25
f 27/27/27 25/25/25 28/28/28
f 29/29/29 31/31/31 30/30/30
f 29/29/29 32/32/32 31/31/31
f 31/31/31 32/32/32 33/33/33
f 31/31/31 33/33/33 34/34/34
f 34/34/34 33/33/33 35/35/35
f 34/34/34 35/35/35 36/36/36
f 36/36/36 35/35/35 37/37/37
f 36/36/36 37/37/37 38/38/38
f 37/37/37 39/39/39 38/38/38
f 37/37/37 40/40/40 39/39/39
f 40/40/40 41/41/41 39/39/39
f 40/40/40 42/42/42 41/41/41
f 43/43/43 45/45/45 44/44/44
f 43/43/43 46/46/46 45/45/45
f 45/45/45 46/46/46 47/47/47
f 45/45/45 47/47/47 48/48/48
f 48/48/48 47/47/47 49/49/49
f 48/48/48 49/49/49 50/50/50
f 50/50/50 49/49/49 51/51/51
f 50/50/50 51/51/51 52/52/52
f 51/51/51 53/53/53 52/52/52
f 51/51/51 54/54/54 53/53/53
f 54/54/54 55/55/55 53/53/53
f 54/54/54 56/56/56 55/55/55
f 57/57/57 59/59/59 58/58/58
f 57/57/57 60/60/60 59/59/59
f 59/59/59 60/60/60 61/61/61
f 59/59/59 61/61/61 62/62/62
f 62/62/62 61/61/61 63/63/63
f 62/62/62 63/63/63 64/64/64
f 64/64/64 63/63/63 65/65/65
f 64/64/64 65/65/65 66/66/66
f 65/65/65 67/67/67 66/66/66
f 65/65/65 68/68/68 67/67/67
f 68/68/68 69/69/69 67/67/67
f 68/68/68 70/70/70 69/69/69
f 71/71/71 73/73/73 72/72/72
f 71/71/71 74/74/74 73/73/73
f 73/73/73 74/74/74 75/75/75
f 73/73/73 75/75/75 76/76/76
f 76/76/76 75/75/75 77/77/77
f 76/76/76 77/77/77 78/78/78
f 78/78/78 77/77/77 79/79/79
f 78/78/78 79/79/79 80/80/80
f 79/79/79 81/81/81 80/80/80
f 79/79/79 82/82/82 81/81/81
f 82/82/82 83/83/83 81/81/81
f 82/82/82 84/84/84 83/83/83
f 85/85/85 87/87/87 86/86/86
f 85/85/85 88/88/88 87/87/87
f 87/87/87 88/88/88 89/89/89
f 87/87/87 89/89/89 90/90/90
f 90/90/90 89/89/89 91/91/91
f 90/90/90 91/91/91 92/92/92
f 92/92/92 91/91/91 93/93/93
f 92/92/92 93/93/93 94/94/94
f 93/93/93 95/95/95 94/94/94
f 93/93/93 96/96/96 95/95/95
f 96/96/96 97/97/97 95/95/95
f 96/96/96 98/98/98 97/97/97
f 99/99/99 101/101/101 100/100/100
f 99/99/99 102/102/102 101/101/101
f 101/101/101 102/102/102 103/103/103
f 101/101/101 103/103/103 104/104/104
f 104/104/104 103/103/103 105/105/105
f 104/104/104 105/105/105 106/106/106
f 106/106/106 105/105/105 107/107/107
f 106/106/106 107/107/107 108/108/108
f 107/107/107 109/109/109 108/108/108
f 107/107/107 110/110/110 109/109/109
f 110/110/110 111/111/111 109/109/109
f 110/110/110 112/112/112 111/111/111
f 113/113/113 115/115/115 114/114/114
f 113/113/113 116/116/116 115/115/115
f 117/117/117 116/116/116 113/113/113
f 117/117/117 118/118/118 116/116/116
f 119/119/119 118/118/118 117/117/117
f 119/119/119 120/120/120 118/118/118
f 121/121/121 120/120/120 119/119/119
f 121/121/121 122/122/122 120/120/120
f 123/123/123 122/122/122 121/121/121
f 123/123/123 124/124/124 122/122/122
f 114/114/114 115/115/115 125/125/125
f 114/114/114 125/125/125 126/126/126
