#Roads.009_36731_463.obj

v -190.5836 288.1433 -6.911302
v -205.6529 288.1433 -6.911302
v -205.6529 303.934 -6.911302
v -190.5836 303.934 -6.911302
v -190.3897 242.9485 -6.911302
v -203.5189 242.9485 -6.911302
v -203.5188 258.7393 -6.911303
v -190.3897 258.7393 -6.911303
v -189.8574 195.136 -6.911303
v -202.8083 195.136 -6.911303
v -202.8082 210.9267 -6.911303
v -189.8574 210.9267 -6.911303

vn 0 0.9995117 1.192093E-07
vn 0 0.9995117 1.192093E-07
vn 0 0.9995117 1.192093E-07
vn 0 0.9995117 1.192093E-07
vn 0 0.9995117 1.192093E-07
vn 0 0.9995117 1.192093E-07
vn 0 0.9995117 1.192093E-07
vn 0 0.9995117 1.192093E-07
vn 0 0.9995117 1.192093E-07
vn 0 0.9995117 1.192093E-07
vn 0 0.9995117 1.192093E-07
vn 0 0.9995117 1.192093E-07

vt 0.9995117 0.1617432
vt 0.9995117 1
vt 0 0.9995117
vt 1.490116E-06 0.1617432
vt 0.9995117 0.182373
vt 1 1
vt 0 0.9995117
vt 0 0.182373
vt 0.9995117 0.1905518
vt 1 1
vt 1.847744E-06 1
vt 2.980232E-07 0.1905518

g Roads.009_36731_463
usemtl Roads.009_36731_463
usemap Roads.009_36731_463
f 1/1/1 3/3/3 2/2/2
f 1/1/1 4/4/4 3/3/3
f 5/5/5 7/7/7 6/6/6
f 5/5/5 8/8/8 7/7/7
f 9/9/9 11/11/11 10/10/10
f 9/9/9 12/12/12 11/11/11
