#Roads.008_34836_464.obj

v -448.389 228.0901 -6.911299
v -432.5982 228.0901 -6.911299
v -432.5983 220.6392 -6.911299
v -448.389 220.6392 -6.911299
v -448.3891 197.8353 -6.911294
v -448.3891 201.824 -6.911294
v -432.5983 201.8241 -6.911294
v -432.5983 197.8352 -6.911294
v -288.525 -12.60332 -6.911303
v -292.5019 -12.60331 -6.911303
v -292.5019 3.187488 -6.911303
v -288.525 3.187481 -6.911303
v -544.3936 141.3203 -6.911307
v -544.3936 137.7948 -6.911307
v -560.1844 137.7948 -6.91131
v -560.1844 141.3204 -6.91131
v -542.8815 196.2536 -6.91132
v -539.5282 196.2561 -6.911319
v -539.5282 180.4653 -6.91132
v -542.8815 180.4629 -6.911321
v -431.0861 219.127 -6.911298
v -427.5491 219.3838 -6.911298
v -427.5491 203.593 -6.911299
v -431.0861 203.3363 -6.911298
v -424.6644 76.13904 -6.911316
v -420.6952 76.02303 -6.911315
v -420.6952 60.2323 -6.911315
v -424.6643 60.34833 -6.911316
v -341.4029 75.26182 -6.911308
v -341.1205 79.73927 -6.911308
v -325.3298 79.73927 -6.911309
v -325.6122 75.26183 -6.911309
v -560.1729 77.65112 -6.911324
v -560.1729 81.94988 -6.911325
v -544.3821 81.94988 -6.911326
v -544.3821 77.65115 -6.911325
v -441.9673 77.65112 -6.911319
v -442.2257 81.73032 -6.911318
v -426.435 81.73032 -6.911319
v -426.1766 77.65113 -6.91132
v -479.9075 60.34821 -6.911327
v -483.7169 60.34819 -6.911326
v -483.7169 76.13899 -6.911326
v -479.9075 76.13898 -6.911327
v -461.0924 76.13905 -6.911322
v -457.3396 76.13904 -6.911322
v -457.3396 60.34826 -6.911322
v -461.0924 60.34827 -6.911322
v -524.0202 60.3482 -6.911327
v -527.9409 60.3482 -6.911326
v -527.9409 76.13898 -6.911326
v -524.0202 76.13897 -6.911327
v -561.6851 104.7893 -6.911324
v -566.0604 104.5082 -6.911324
v -566.0604 120.299 -6.911324
v -561.6851 120.5801 -6.911325
v -561.6851 60.3482 -6.911327
v -565.7403 60.20429 -6.911326
v -565.7403 75.99509 -6.911327
v -561.6851 76.13897 -6.911327
v -431.0861 264.2081 -6.911297
v -427.7101 264.2081 -6.911297
v -427.71 248.4174 -6.911298
v -431.0861 248.4174 -6.911298
v -506.7173 81.24837 -6.911321
v -506.7173 77.65115 -6.911321
v -522.508 77.65115 -6.911321
v -522.508 81.24837 -6.911321
v -462.6046 81.24836 -6.911321
v -462.6046 77.65101 -6.911321
v -478.3953 77.65113 -6.911321
v -478.3954 81.24839 -6.911321
v -651.7145 99.00552 -6.911316
v -655.4141 98.76786 -6.911315
v -655.4141 114.5586 -6.911316
v -651.7145 114.7963 -6.911317
v -544.3936 125.6376 -6.911307
v -544.3936 122.0922 -6.911308
v -560.1844 122.0923 -6.91131
v -560.1844 125.6376 -6.91131
v -560.1729 99.65551 -6.911329
v -560.1729 103.2771 -6.91133
v -544.3821 103.2771 -6.911331
v -544.3821 99.65554 -6.91133
v -347.4781 73.88311 -6.911311
v -342.9151 73.74974 -6.91131
v -342.9151 57.95891 -6.911311
v -347.4781 58.09228 -6.911312
v -337.1757 142.2925 -6.911306
v -336.9104 146.4984 -6.911306
v -321.1197 146.4984 -6.911307
v -321.3849 142.2925 -6.911307
v -355.7255 184.4425 -6.911299
v -355.7255 188.37 -6.911299
v -339.9348 188.37 -6.9113
v -339.9348 184.4426 -6.9113
v -360.8131 224.2285 -6.911304
v -357.2376 224.4881 -6.911304
v -357.2376 208.6974 -6.911305
v -360.8132 208.4378 -6.911305
v -493.8473 156.8819 -6.91132
v -490.3288 156.8819 -6.91132
v -490.3289 141.0912 -6.911321
v -493.8472 141.0912 -6.911321
v -462.6046 128.8293 -6.911321
v -462.6046 124.6981 -6.911321
v -478.3953 124.6982 -6.911321
v -478.3953 128.8293 -6.911321
v -506.7173 128.8293 -6.911321
v -506.7173 124.6981 -6.911321
v -522.508 124.6981 -6.911321
v -522.508 128.8293 -6.911321
v -448.1791 175.7075 -6.911301
v -448.389 179.0201 -6.9113
v -432.5982 179.0201 -6.9113
v -432.3884 175.7075 -6.911301
v -454.0872 196.3199 -6.911299
v -449.9012 196.323 -6.911298
v -449.9012 180.5323 -6.911299
v -454.0872 180.5292 -6.9113
v -653.8441 57.07779 -6.911321
v -657.9188 56.9332 -6.91132
v -657.9187 72.72392 -6.911325
v -653.8441 72.86853 -6.911325
v -539.2775 60.34819 -6.911324
v -542.8699 60.3482 -6.911323
v -542.8699 76.139 -6.911323
v -539.2775 76.13899 -6.911324
v -501.6759 60.34819 -6.911323
v -505.2051 60.34819 -6.911323
v -505.2051 76.139 -6.911323
v -501.676 76.13899 -6.911323
v -446.6766 76.13905 -6.911322
v -443.4795 76.13905 -6.911322
v -443.4795 60.34821 -6.911322
v -446.6766 60.34822 -6.911322
v -634.5101 -12.60327 -6.911306
v -638.4267 -12.60327 -6.911306
v -638.4267 3.187536 -6.911306
v -634.5101 3.18753 -6.911306
v -453.9004 245.3912 -6.911299
v -449.9012 245.393 -6.911297
v -449.9012 229.6023 -6.911294
v -453.9004 229.6004 -6.911295
v -432.5983 269.0204 -6.911293
v -432.5983 265.7203 -6.911293
v -448.3891 265.7203 -6.911299
v -448.3891 269.0204 -6.911298

vn 0 0.9995117 1.192093E-07
vn 0 0.9995117 1.192093E-07
vn 0 0.9995117 1.192093E-07
vn 0 0.9995117 1.192093E-07
vn 0 0.9995117 1.192093E-07
vn 0 0.9995117 1.192093E-07
vn 0 0.9995117 1.192093E-07
vn 0 0.9995117 1.192093E-07
vn 0 0.9995117 1.192093E-07
vn 0 0.9995117 1.192093E-07
vn 0 0.9995117 1.192093E-07
vn 0 0.9995117 1.192093E-07
vn 0 0.9995117 1.192093E-07
vn 0 0.9995117 1.192093E-07
vn 0 0.9995117 1.192093E-07
vn 0 0.9995117 1.192093E-07
vn 0 0.9995117 1.192093E-07
vn 0 0.9995117 1.192093E-07
vn 0 0.9995117 1.192093E-07
vn 0 0.9995117 1.192093E-07
vn 0 0.9995117 1.192093E-07
vn 0 0.9995117 1.192093E-07
vn 0 0.9995117 1.192093E-07
vn 0 0.9995117 1.192093E-07
vn 0 0.9995117 1.192093E-07
vn 0 0.9995117 1.192093E-07
vn 0 0.9995117 1.192093E-07
vn 0 0.9995117 1.192093E-07
vn 0 0.9995117 1.192093E-07
vn 0 0.9995117 1.192093E-07
vn 0 0.9995117 1.192093E-07
vn 0 0.9995117 1.192093E-07
vn 0 0.9995117 1.192093E-07
vn 0 0.9995117 1.192093E-07
vn 0 0.9995117 1.192093E-07
vn 0 0.9995117 1.192093E-07
vn 0 0.9995117 1.192093E-07
vn 0 0.9995117 1.192093E-07
vn 0 0.9995117 1.192093E-07
vn 0 0.9995117 1.192093E-07
vn 0 0.9995117 1.192093E-07
vn 0 0.9995117 1.192093E-07
vn 0 0.9995117 1.192093E-07
vn 0 0.9995117 1.192093E-07
vn 0 0.9995117 1.192093E-07
vn 0 0.9995117 1.192093E-07
vn 0 0.9995117 1.192093E-07
vn 0 0.9995117 1.192093E-07
vn 0 0.9995117 1.192093E-07
vn 0 0.9995117 1.192093E-07
vn 0 0.9995117 1.192093E-07
vn 0 0.9995117 1.192093E-07
vn 0 0.9995117 1.192093E-07
vn 0 0.9995117 1.192093E-07
vn 0 0.9995117 1.192093E-07
vn 0 0.9995117 1.192093E-07
vn 0 0.9995117 1.192093E-07
vn 0 0.9995117 1.192093E-07
vn 0 0.9995117 1.192093E-07
vn 0 0.9995117 1.192093E-07
vn 0 0.9995117 1.192093E-07
vn 0 0.9995117 1.192093E-07
vn 0 0.9995117 1.192093E-07
vn 0 0.9995117 1.192093E-07
vn 0 0.9995117 1.192093E-07
vn 0 0.9995117 1.192093E-07
vn 0 0.9995117 1.192093E-07
vn 0 0.9995117 1.192093E-07
vn 0 0.9995117 1.192093E-07
vn 0 0.9995117 1.192093E-07
vn 0 0.9995117 1.192093E-07
vn 0 0.9995117 1.192093E-07
vn 0 0.9995117 1.192093E-07
vn 0 0.9995117 1.192093E-07
vn 0 0.9995117 1.192093E-07
vn 0 0.9995117 1.192093E-07
vn 0 0.9995117 1.192093E-07
vn 0 0.9995117 1.192093E-07
vn 0 0.9995117 1.192093E-07
vn 0 0.9995117 1.192093E-07
vn 0 0.9995117 1.192093E-07
vn 0 0.9995117 1.192093E-07
vn 0 0.9995117 1.192093E-07
vn 0 0.9995117 1.192093E-07
vn 0 0.9995117 1.192093E-07
vn 0 0.9995117 1.192093E-07
vn 0 0.9995117 1.192093E-07
vn 0 0.9995117 1.192093E-07
vn 0 0.9995117 1.192093E-07
vn 0 0.9995117 1.192093E-07
vn 0 0.9995117 1.192093E-07
vn 0 0.9995117 1.192093E-07
vn 0 0.9995117 1.192093E-07
vn 0 0.9995117 1.192093E-07
vn 0 0.9995117 1.192093E-07
vn 0 0.9995117 1.192093E-07
vn 0 0.9995117 1.192093E-07
vn 0 0.9995117 1.192093E-07
vn 0 0.9995117 1.192093E-07
vn 0 0.9995117 1.192093E-07
vn 0 0.9995117 1.192093E-07
vn 0 0.9995117 1.192093E-07
vn 0 0.9995117 1.192093E-07
vn 0 0.9995117 1.192093E-07
vn 0 0.9995117 1.192093E-07
vn 0 0.9995117 1.192093E-07
vn 0 0.9995117 1.192093E-07
vn 0 0.9995117 1.192093E-07
vn 0 0.9995117 1.192093E-07
vn 0 0.9995117 1.192093E-07
vn 0 0.9995117 1.192093E-07
vn 0 0.9995117 1.192093E-07
vn 0 0.9995117 1.192093E-07
vn 0 0.9995117 1.192093E-07
vn 0 0.9995117 1.192093E-07
vn 0 0.9995117 1.192093E-07
vn 0 0.9995117 1.192093E-07
vn 0 0.9995117 1.192093E-07
vn 0 0.9995117 1.192093E-07
vn 0 0.9995117 1.192093E-07
vn 0 0.9995117 1.192093E-07
vn 0 0.9995117 1.192093E-07
vn 0 0.9995117 1.192093E-07
vn 0 0.9995117 1.192093E-07
vn 0 0.9995117 1.192093E-07
vn 0 0.9995117 1.192093E-07
vn 0 0.9995117 1.192093E-07
vn 0 0.9995117 1.192093E-07
vn 0 0.9995117 1.192093E-07
vn 0 0.9995117 1.192093E-07
vn 0 0.9995117 1.192093E-07
vn 0 0.9995117 1.192093E-07
vn 0 0.9995117 1.192093E-07
vn 0 0.9995117 1.192093E-07
vn 0 0.9995117 1.192093E-07
vn 0 0.9995117 1.192093E-07
vn 0 0.9995117 1.192093E-07
vn 0 0.9995117 1.192093E-07
vn 0 0.9995117 1.192093E-07
vn 0 0.9995117 1.192093E-07
vn 0 0.9995117 1.192093E-07
vn 0 0.9995117 1.192093E-07
vn 0 0.9995117 1.192093E-07
vn 0 0.9995117 1.192093E-07
vn 0 0.9995117 1.192093E-07
vn 0 0.9995117 1.192093E-07
vn 0 0.9995117 1.192093E-07
vn 0 0.9995117 1.192093E-07

vt 0.9995117 0
vt 0 -5.960464E-08
vt 3.635883E-06 1
vt 1 1
vt 0 -5.960464E-08
vt -5.960464E-08 1
vt 1 1
vt 1 0
vt 1.192093E-07 -5.960464E-08
vt -5.960464E-08 1
vt 1 1
vt 1 0
vt 0 -5.960464E-08
vt -5.960464E-08 1
vt 1 1
vt 1 0
vt 0.0001584291 -5.960464E-08
vt -5.960464E-08 1
vt 0.9995117 1
vt 1 0
vt 0.9853516 1
vt 1 0
vt 0.01430511 -5.960464E-08
vt -5.960464E-08 1
vt 1 1
vt 0.9926758 5.960464E-08
vt 0 -5.960464E-08
vt 0.007289886 1
vt 1 1
vt 0.9824219 0
vt 0 -5.960464E-08
vt 0.01756287 1
vt 0 1.728535E-06
vt -5.960464E-08 1
vt 1 0.9995117
vt 1 0
vt 0.9838867 0.9995117
vt 1 0
vt 0.01609802 -5.960464E-08
vt -5.960464E-08 1
vt 0 -5.960464E-08
vt 4.172325E-07 1
vt 1 1
vt 0.9995117 0
vt 0.9995117 1
vt 1 0
vt 0 -5.960464E-08
vt 1.788139E-07 0.9995117
vt 0 -5.960464E-08
vt -5.960464E-08 1
vt 1 1
vt 1 0
vt 0.9824219 0.9995117
vt 1 0
vt 0.01748657 -5.960464E-08
vt -5.960464E-08 1
vt 0.9907227 1
vt 1 0
vt 0.009025574 -5.960464E-08
vt -5.960464E-08 1
vt 1 1
vt 1 0
vt 0 -5.960464E-08
vt -5.960464E-08 1
vt 1 1
vt 1 0
vt 0 -5.960464E-08
vt -5.960464E-08 1
vt 1 1
vt 1 0
vt 0 3.176928E-05
vt -5.960464E-08 1
vt 0.01482391 -5.960464E-08
vt -5.960464E-08 1
vt 0.9848633 1
vt 1 0
vt 0 2.086163E-06
vt -5.960464E-08 1
vt 1 0.9995117
vt 1 0
vt 5.960464E-08 2.026558E-06
vt -5.960464E-08 1
vt 1 0.9995117
vt 1 0
vt 1 1
vt 0.9912109 0
vt 0 -5.960464E-08
vt 0.008369446 1
vt 1 1
vt 0.9833984 5.960464E-08
vt 0 -5.960464E-08
vt 0.01651001 1
vt 0 -5.960464E-08
vt -5.960464E-08 1
vt 1 1
vt 1 5.960464E-06
vt 1.003906 0.9995117
vt 1 0
vt -0.004165649 -5.960464E-08
vt -5.960464E-08 1
vt 1 1
vt 1 0
vt 0 -5.960464E-08
vt -5.960464E-08 1
vt 1 1
vt 1 0
vt 0 -5.960464E-08
vt -5.960464E-08 1
vt 1 1
vt 1 0
vt 0 -5.960464E-08
vt -5.960464E-08 1
vt 0.0131073 -5.960464E-08
vt -5.960464E-08 0.9995117
vt 0.9868164 1
vt 1 0
vt 0.0001981258 -5.960464E-08
vt -5.960464E-08 1
vt 0.9995117 1
vt 1 0
vt 0.00907135 -5.960464E-08
vt -5.960464E-08 1
vt 0.9907227 0.9995117
vt 1 0
vt 0 -5.960464E-08
vt -5.960464E-08 1
vt 1 1
vt 1 0
vt 0 -5.960464E-08
vt 1.788139E-07 1
vt 1 1
vt 1 0
vt 1 0.9995117
vt 1 0
vt 0 -5.960464E-08
vt 6.556511E-07 1
vt 0 -5.960464E-08
vt 1.192093E-07 1
vt 1 1
vt 0.9995117 0
vt 0.0001159906 -5.960464E-08
vt -5.960464E-08 1
vt 0.9995117 1
vt 1 0
vt 0 -5.960464E-08
vt -5.960464E-08 1
vt 1 1
vt 1 0

g Roads.008_34836_464
usemtl Roads.008_34836_464
usemap Roads.008_34836_464
f 1/1/1 3/3/3 2/2/2
f 1/1/1 4/4/4 3/3/3
f 5/5/5 7/7/7 6/6/6
f 5/5/5 8/8/8 7/7/7
f 9/9/9 11/11/11 10/10/10
f 9/9/9 12/12/12 11/11/11
f 13/13/13 15/15/15 14/14/14
f 13/13/13 16/16/16 15/15/15
f 17/17/17 19/19/19 18/18/18
f 17/17/17 20/20/20 19/19/19
f 21/21/21 23/23/23 22/22/22
f 21/21/21 24/24/24 23/23/23
f 25/25/25 27/27/27 26/26/26
f 25/25/25 28/28/28 27/27/27
f 29/29/29 31/31/31 30/30/30
f 29/29/29 32/32/32 31/31/31
f 33/33/33 35/35/35 34/34/34
f 33/33/33 36/36/36 35/35/35
f 37/37/37 39/39/39 38/38/38
f 37/37/37 40/40/40 39/39/39
f 41/41/41 43/43/43 42/42/42
f 41/41/41 44/44/44 43/43/43
f 45/45/45 47/47/47 46/46/46
f 45/45/45 48/48/48 47/47/47
f 49/49/49 51/51/51 50/50/50
f 49/49/49 52/52/52 51/51/51
f 53/53/53 55/55/55 54/54/54
f 53/53/53 56/56/56 55/55/55
f 57/57/57 59/59/59 58/58/58
f 57/57/57 60/60/60 59/59/59
f 61/61/61 63/63/63 62/62/62
f 61/61/61 64/64/64 63/63/63
f 65/65/65 67/67/67 66/66/66
f 65/65/65 68/68/68 67/67/67
f 69/69/69 71/71/71 70/70/70
f 69/69/69 72/72/72 71/71/71
f 73/73/73 75/75/75 74/74/74
f 73/73/73 76/76/76 75/75/75
f 77/77/77 79/79/79 78/78/78
f 77/77/77 80/80/80 79/79/79
f 81/81/81 83/83/83 82/82/82
f 81/81/81 84/84/84 83/83/83
f 85/85/85 87/87/87 86/86/86
f 85/85/85 88/88/88 87/87/87
f 89/89/89 91/91/91 90/90/90
f 89/89/89 92/92/92 91/91/91
f 93/93/93 95/95/95 94/94/94
f 93/93/93 96/96/96 95/95/95
f 97/97/97 99/99/99 98/98/98
f 97/97/97 100/100/100 99/99/99
f 101/101/101 103/103/103 102/102/102
f 101/101/101 104/104/104 103/103/103
f 105/105/105 107/107/107 106/106/106
f 105/105/105 108/108/108 107/107/107
f 109/109/109 111/111/111 110/110/110
f 109/109/109 112/112/112 111/111/111
f 113/113/113 115/115/115 114/114/114
f 113/113/113 116/116/116 115/115/115
f 117/117/117 119/119/119 118/118/118
f 117/117/117 120/120/120 119/119/119
f 121/121/121 123/123/123 122/122/122
f 121/121/121 124/124/124 123/123/123
f 125/125/125 127/127/127 126/126/126
f 125/125/125 128/128/128 127/127/127
f 129/129/129 131/131/131 130/130/130
f 129/129/129 132/132/132 131/131/131
f 133/133/133 135/135/135 134/134/134
f 133/133/133 136/136/136 135/135/135
f 137/137/137 139/139/139 138/138/138
f 137/137/137 140/140/140 139/139/139
f 141/141/141 143/143/143 142/142/142
f 141/141/141 144/144/144 143/143/143
f 145/145/145 147/147/147 146/146/146
f 145/145/145 148/148/148 147/147/147
