#Roads.003_(1)_34529_406.obj

v -459.8152 -252.689 -6.911301
v -475.606 -252.6889 -6.911301
v -475.6061 -236.8982 -6.9113
v -459.8152 -236.8983 -6.9113
v -531.5353 -199.5329 -6.9113
v -515.7444 -199.5329 -6.9113
v -515.7444 -215.3236 -6.9113
v -531.5353 -215.3236 -6.9113
v -531.5353 -180.7177 -6.911299
v -515.7445 -180.7177 -6.911299
v -515.7445 -196.5085 -6.9113
v -531.5353 -196.5085 -6.9113
v -531.5353 -218.3481 -6.9113
v -515.7445 -218.3481 -6.9113
v -515.7445 -234.1389 -6.9113
v -531.5353 -234.1389 -6.9113
v -459.8149 -215.3235 -6.911305
v -475.6057 -215.3235 -6.911305
v -475.6058 -199.5327 -6.911305
v -459.8149 -199.5328 -6.911305

vn 0 0.9995117 1.192093E-07
vn 0 0.9995117 1.192093E-07
vn 0 0.9995117 1.192093E-07
vn 0 0.9995117 1.192093E-07
vn 0 0.9995117 1.192093E-07
vn 0 0.9995117 1.192093E-07
vn 0 0.9995117 1.192093E-07
vn 0 0.9995117 1.192093E-07
vn 0 0.9995117 1.192093E-07
vn 0 0.9995117 1.192093E-07
vn 0 0.9995117 1.192093E-07
vn 0 0.9995117 1.192093E-07
vn 0 0.9995117 1.192093E-07
vn 0 0.9995117 1.192093E-07
vn 0 0.9995117 1.192093E-07
vn 0 0.9995117 1.192093E-07
vn 0 0.9995117 1.192093E-07
vn 0 0.9995117 1.192093E-07
vn 0 0.9995117 1.192093E-07
vn 0 0.9995117 1.192093E-07

vt 0.9946289 0.004997253
vt 0.004997253 0.004997253
vt 0.004997253 0.9946289
vt 0.9946289 0.9946289
vt 0.9946289 0.004997253
vt 0.005001068 0.004997253
vt 0.004997253 0.9946289
vt 0.9946289 0.9946289
vt 0.004997253 0.9946289
vt 0.9946289 0.9946289
vt 0.9946289 0.004997253
vt 0.005001068 0.004997253
vt 0.004997253 0.9946289
vt 0.9946289 0.9946289
vt 0.9946289 0.004997253
vt 0.005001068 0.004997253
vt 0.9946289 0.004997253
vt 0.004997253 0.004997253
vt 0.004997253 0.9946289
vt 0.9946289 0.9946289

g Roads.003_(1)_34529_406
usemtl Roads.003_(1)_34529_406
usemap Roads.003_(1)_34529_406
f 1/1/1 3/3/3 2/2/2
f 1/1/1 4/4/4 3/3/3
f 5/5/5 7/7/7 6/6/6
f 5/5/5 8/8/8 7/7/7
f 9/9/9 11/11/11 10/10/10
f 9/9/9 12/12/12 11/11/11
f 13/13/13 15/15/15 14/14/14
f 13/13/13 16/16/16 15/15/15
f 17/17/17 19/19/19 18/18/18
f 17/17/17 20/20/20 19/19/19
