#Roads.008_34836_469.obj

v -505.205 156.8819 -6.91132
v -493.8473 156.8819 -6.91132
v -493.8472 141.0912 -6.911321
v -505.2052 141.0911 -6.911321
v -462.6046 139.5789 -6.911321
v -462.6046 128.8293 -6.911321
v -478.3953 128.8293 -6.911321
v -478.3953 139.5791 -6.911321
v -506.7173 139.5791 -6.911321
v -506.7173 128.8293 -6.911321
v -522.508 128.8293 -6.911321
v -522.508 139.5791 -6.911321
v -499.0434 245.3706 -6.911319
v -453.9004 245.3912 -6.911299
v -453.9004 229.6004 -6.911295
v -499.0434 229.5798 -6.911319
v -339.9348 165.3133 -6.9113
v -355.7255 165.3134 -6.9113
v -355.7255 184.4425 -6.911299
v -339.9348 184.4426 -6.9113
v -448.389 285.8171 -6.911293
v -432.5983 285.8171 -6.911293
v -432.5983 282.1546 -6.911293
v -448.389 282.1545 -6.911294
v -448.3891 269.0204 -6.911298
v -432.5983 269.0204 -6.911293
v -560.1729 81.94988 -6.911325
v -560.1729 99.65551 -6.911329
v -544.3821 99.65554 -6.91133
v -544.3821 81.94988 -6.911326
v -566.0604 104.5082 -6.911324
v -651.7145 99.00552 -6.911316
v -651.7145 114.7963 -6.911317
v -566.0604 120.299 -6.911324
v -442.2257 81.73032 -6.911318
v -448.1791 175.7075 -6.911301
v -432.3884 175.7075 -6.911301
v -426.435 81.73032 -6.911319
v -420.6952 76.02303 -6.911315
v -347.4781 73.88311 -6.911311
v -347.4781 58.09228 -6.911312
v -420.6952 60.2323 -6.911315
v -341.1205 79.73927 -6.911308
v -337.1757 142.2925 -6.911306
v -321.3849 142.2925 -6.911307
v -325.3298 79.73927 -6.911309
v -490.3288 156.8819 -6.91132
v -479.9074 156.8819 -6.91132
v -479.9074 141.0912 -6.911321
v -490.3289 141.0912 -6.911321
v -462.6046 124.6981 -6.911321
v -462.6046 81.24836 -6.911321
v -478.3954 81.24839 -6.911321
v -478.3953 124.6982 -6.911321
v -506.7173 124.6981 -6.911321
v -506.7173 81.24837 -6.911321
v -522.508 81.24837 -6.911321
v -522.508 124.6981 -6.911321
v -539.5282 196.2561 -6.911319
v -454.0872 196.3199 -6.911299
v -454.0872 180.5292 -6.9113
v -539.5282 180.4653 -6.91132
v -544.3936 137.7948 -6.911307
v -544.3936 125.6376 -6.911307
v -560.1844 125.6376 -6.91131
v -560.1844 137.7948 -6.91131
v -565.7403 60.20429 -6.911326
v -653.8441 57.07779 -6.911321
v -653.8441 72.86853 -6.911325
v -565.7403 75.99509 -6.911327
v -527.9409 60.3482 -6.911326
v -539.2775 60.34819 -6.911324
v -539.2775 76.13899 -6.911324
v -527.9409 76.13898 -6.911326
v -483.7169 60.34819 -6.911326
v -501.6759 60.34819 -6.911323
v -501.676 76.13899 -6.911323
v -483.7169 76.13899 -6.911326
v -457.3396 76.13904 -6.911322
v -446.6766 76.13905 -6.911322
v -446.6766 60.34822 -6.911322
v -457.3396 60.34826 -6.911322
v -292.5019 -12.60331 -6.911303
v -634.5101 -12.60327 -6.911306
v -634.5101 3.18753 -6.911306
v -292.5019 3.187488 -6.911303
v -427.7101 264.2081 -6.911297
v -401.1333 264.2081 -6.911297
v -401.1333 248.4174 -6.911298
v -427.71 248.4174 -6.911298
v -427.5491 219.3838 -6.911298
v -360.8131 224.2285 -6.911304
v -360.8132 208.4378 -6.911305
v -427.5491 203.593 -6.911299

vn 0 0.9995117 1.192093E-07
vn 0 0.9995117 1.192093E-07
vn 0 0.9995117 1.192093E-07
vn 0 0.9995117 1.192093E-07
vn 0 0.9995117 1.192093E-07
vn 0 0.9995117 1.192093E-07
vn 0 0.9995117 1.192093E-07
vn 0 0.9995117 1.192093E-07
vn 0 0.9995117 1.192093E-07
vn 0 0.9995117 1.192093E-07
vn 0 0.9995117 1.192093E-07
vn 0 0.9995117 1.192093E-07
vn 0 0.9995117 1.192093E-07
vn 0 0.9995117 1.192093E-07
vn 0 0.9995117 1.192093E-07
vn 0 0.9995117 1.192093E-07
vn 0 0.9995117 1.192093E-07
vn 0 0.9995117 1.192093E-07
vn 0 0.9995117 1.192093E-07
vn 0 0.9995117 1.192093E-07
vn 0 0.9995117 1.192093E-07
vn 0 0.9995117 1.192093E-07
vn 0 0.9995117 1.192093E-07
vn 0 0.9995117 1.192093E-07
vn 0 0.9995117 1.192093E-07
vn 0 0.9995117 1.192093E-07
vn 0 0.9995117 1.192093E-07
vn 0 0.9995117 1.192093E-07
vn 0 0.9995117 1.192093E-07
vn 0 0.9995117 1.192093E-07
vn 0 0.9995117 1.192093E-07
vn 0 0.9995117 1.192093E-07
vn 0 0.9995117 1.192093E-07
vn 0 0.9995117 1.192093E-07
vn 0 0.9995117 1.192093E-07
vn 0 0.9995117 1.192093E-07
vn 0 0.9995117 1.192093E-07
vn 0 0.9995117 1.192093E-07
vn 0 0.9995117 1.192093E-07
vn 0 0.9995117 1.192093E-07
vn 0 0.9995117 1.192093E-07
vn 0 0.9995117 1.192093E-07
vn 0 0.9995117 1.192093E-07
vn 0 0.9995117 1.192093E-07
vn 0 0.9995117 1.192093E-07
vn 0 0.9995117 1.192093E-07
vn 0 0.9995117 1.192093E-07
vn 0 0.9995117 1.192093E-07
vn 0 0.9995117 1.192093E-07
vn 0 0.9995117 1.192093E-07
vn 0 0.9995117 1.192093E-07
vn 0 0.9995117 1.192093E-07
vn 0 0.9995117 1.192093E-07
vn 0 0.9995117 1.192093E-07
vn 0 0.9995117 1.192093E-07
vn 0 0.9995117 1.192093E-07
vn 0 0.9995117 1.192093E-07
vn 0 0.9995117 1.192093E-07
vn 0 0.9995117 1.192093E-07
vn 0 0.9995117 1.192093E-07
vn 0 0.9995117 1.192093E-07
vn 0 0.9995117 1.192093E-07
vn 0 0.9995117 1.192093E-07
vn 0 0.9995117 1.192093E-07
vn 0 0.9995117 1.192093E-07
vn 0 0.9995117 1.192093E-07
vn 0 0.9995117 1.192093E-07
vn 0 0.9995117 1.192093E-07
vn 0 0.9995117 1.192093E-07
vn 0 0.9995117 1.192093E-07
vn 0 0.9995117 1.192093E-07
vn 0 0.9995117 1.192093E-07
vn 0 0.9995117 1.192093E-07
vn 0 0.9995117 1.192093E-07
vn 0 0.9995117 1.192093E-07
vn 0 0.9995117 1.192093E-07
vn 0 0.9995117 1.192093E-07
vn 0 0.9995117 1.192093E-07
vn 0 0.9995117 1.192093E-07
vn 0 0.9995117 1.192093E-07
vn 0 0.9995117 1.192093E-07
vn 0 0.9995117 1.192093E-07
vn 0 0.9995117 1.192093E-07
vn 0 0.9995117 1.192093E-07
vn 0 0.9995117 1.192093E-07
vn 0 0.9995117 1.192093E-07
vn 0 0.9995117 1.192093E-07
vn 0 0.9995117 1.192093E-07
vn 0 0.9995117 1.192093E-07
vn 0 0.9995117 1.192093E-07
vn 0 0.9995117 1.192093E-07
vn 0 0.9995117 1.192093E-07
vn 0 0.9995117 1.192093E-07
vn 0 0.9995117 1.192093E-07

vt 0 1.225586
vt 0 0.5737305
vt 1 0.5737305
vt 1 1.225586
vt 1 -3.046875
vt 1 -1.81543
vt 0 -1.81543
vt 0 -3.046875
vt 1 3.033203
vt 1 2.152344
vt 0 2.152344
vt 0 3.033203
vt 0 -0.8681641
vt 1.66893E-06 1.645508
vt 0.9995117 1.645508
vt 0.9995117 -0.8686523
vt 0.9995117 -0.46875
vt 0 -0.46875
vt 1.609325E-06 1.355469
vt 0.9995117 1.355469
vt 0.9995117 0
vt 0 0
vt 0 0.1821289
vt 0.9995117 0.1821289
vt 0.9995117 0.8354492
vt 0 0.8354492
vt 0 0.07470703
vt 0 0.9589844
vt 1 0.9589844
vt 1 0.07470703
vt 1.728535E-06 -1.898438
vt 5.960464E-08 2.994141
vt 0.9995117 2.9375
vt 0.9995117 -1.956055
vt 1 3.451172
vt 1 -2.564453
vt 1.192093E-07 -2.5
vt 3.516674E-06 3.513672
vt 0.9995117 1.604492
vt 1 -0.5737305
vt 3.576279E-07 -0.5874023
vt 6.735325E-06 1.59082
vt 0 -1.082031
vt 0 2.044922
vt 1 2.095703
vt 1 -1.032227
vt 0 0.3720703
vt 0 -0.2259521
vt 1 -0.2259521
vt 1 0.3720703
vt 1 -1.341797
vt 1 3.634766
vt 0 3.634766
vt 0 -1.341797
vt 1 1.81543
vt 1 -1.738281
vt 0 -1.738281
vt 0 1.81543
vt 8.34465E-07 -1.729492
vt 0 2.6875
vt 0.9995117 2.685547
vt 1 -1.730469
vt 0 0.1557617
vt 0 0.8154297
vt 1 0.8154297
vt 1 0.1557617
vt 1 2.947266
vt 0.9995117 -1.978516
vt 3.457069E-06 -1.947266
vt 1.192093E-07 2.978516
vt 0.9995117 0.7919922
vt 0.9995117 0.1905518
vt 1.192093E-07 0.1905518
vt 7.152557E-07 0.7919922
vt 1 0.8491211
vt 0.9995117 0.1394043
vt 0 0.1394043
vt 0 0.8491211
vt 5.960464E-08 0.2130127
vt 3.576279E-07 0.8183594
vt 0.9995117 0.8183594
vt 0.9995117 0.2130127
vt 0.9995117 8.09375
vt 0.9995117 -7.125
vt 0 -7.125
vt 3.755093E-06 8.09375
vt 0 -0.5888672
vt 0 0.4892578
vt 1 0.4892578
vt 1 -0.5888672
vt 0.9995117 3.050781
vt 0.9995117 -2.199219
vt 0 -2.111328
vt 0 3.138672

g Roads.008_34836_469
usemtl Roads.008_34836_469
usemap Roads.008_34836_469
f 1/1/1 3/3/3 2/2/2
f 1/1/1 4/4/4 3/3/3
f 5/5/5 7/7/7 6/6/6
f 5/5/5 8/8/8 7/7/7
f 9/9/9 11/11/11 10/10/10
f 9/9/9 12/12/12 11/11/11
f 13/13/13 15/15/15 14/14/14
f 13/13/13 16/16/16 15/15/15
f 17/17/17 19/19/19 18/18/18
f 17/17/17 20/20/20 19/19/19
f 21/21/21 23/23/23 22/22/22
f 21/21/21 24/24/24 23/23/23
f 23/23/23 24/24/24 25/25/25
f 23/23/23 25/25/25 26/26/26
f 27/27/27 29/29/29 28/28/28
f 27/27/27 30/30/30 29/29/29
f 31/31/31 33/33/33 32/32/32
f 31/31/31 34/34/34 33/33/33
f 35/35/35 37/37/37 36/36/36
f 35/35/35 38/38/38 37/37/37
f 39/39/39 41/41/41 40/40/40
f 39/39/39 42/42/42 41/41/41
f 43/43/43 45/45/45 44/44/44
f 43/43/43 46/46/46 45/45/45
f 47/47/47 49/49/49 48/48/48
f 47/47/47 50/50/50 49/49/49
f 51/51/51 53/53/53 52/52/52
f 51/51/51 54/54/54 53/53/53
f 55/55/55 57/57/57 56/56/56
f 55/55/55 58/58/58 57/57/57
f 59/59/59 61/61/61 60/60/60
f 59/59/59 62/62/62 61/61/61
f 63/63/63 65/65/65 64/64/64
f 63/63/63 66/66/66 65/65/65
f 67/67/67 69/69/69 68/68/68
f 67/67/67 70/70/70 69/69/69
f 71/71/71 73/73/73 72/72/72
f 71/71/71 74/74/74 73/73/73
f 75/75/75 77/77/77 76/76/76
f 75/75/75 78/78/78 77/77/77
f 79/79/79 81/81/81 80/80/80
f 79/79/79 82/82/82 81/81/81
f 83/83/83 85/85/85 84/84/84
f 83/83/83 86/86/86 85/85/85
f 87/87/87 89/89/89 88/88/88
f 87/87/87 90/90/90 89/89/89
f 91/91/91 93/93/93 92/92/92
f 91/91/91 94/94/94 93/93/93
