#Roads.015_36370_488.obj

v 253.1632 39.11758 -6.911296
v 253.1632 54.90832 -6.911296
v 254.6753 54.90831 -6.9113
v 254.6753 39.11757 -6.911302
v 253.1632 39.11758 -6.911296
v 253.1632 37.60537 -6.911296
v 237.3725 37.60537 -6.911296
v 237.3724 39.11757 -6.911296
v 253.1632 56.42052 -6.911302
v 253.1632 54.90832 -6.911296
v 237.3724 54.90831 -6.911296
v 237.3724 56.42052 -6.911302
v 128.043 307.7731 -6.911298
v 128.043 306.2609 -6.9113
v 112.2522 306.2609 -6.9113
v 112.2521 307.7731 -6.911298
v 129.5551 323.5638 -6.911302
v 129.5551 307.7731 -6.911302
v 128.043 307.7731 -6.911298
v 128.043 323.5638 -6.911298
v 128.043 325.076 -6.911303
v 128.043 323.5638 -6.911298
v 112.2522 323.5638 -6.911298
v 112.2522 325.076 -6.911303
v 165.9865 323.5637 -6.911307
v 167.1065 323.9558 -6.911298
v 167.1065 307.3808 -6.911298
v 165.9865 307.7729 -6.911304
v 183.6814 323.9558 -6.911298
v 167.1065 323.9558 -6.911298
v 167.4986 325.0758 -6.911301
v 183.2893 325.0758 -6.911302
v 167.4986 306.2608 -6.911298
v 167.1065 307.3808 -6.911298
v 183.6814 307.3809 -6.911298
v 183.2893 306.2608 -6.911298
v 181.6702 154.1359 -6.911295
v 181.6702 155.648 -6.911295
v 197.4609 155.6481 -6.911295
v 197.4609 154.1359 -6.911295
v 197.4609 171.4389 -6.911294
v 198.9731 171.4388 -6.911299
v 198.9731 155.6481 -6.911295
v 197.4609 155.6481 -6.911295
v 197.4609 171.4389 -6.911294
v 181.6702 171.4389 -6.911294
v 181.6702 172.951 -6.911298
v 197.4609 172.951 -6.911299
v 180.158 171.4389 -6.9113
v 181.6702 171.4389 -6.911294
v 181.6702 155.648 -6.911295
v 180.158 155.648 -6.911301
v 196.7546 -11.41123 -6.911305
v 196.7545 -12.92344 -6.911305
v 180.9637 -12.92347 -6.911305
v 180.9637 -11.41126 -6.911305
v 196.7546 -11.41123 -6.911305
v 196.7546 4.379483 -6.911305
v 198.2666 4.37951 -6.911308
v 198.2666 -11.41123 -6.911309
v 196.7545 5.89169 -6.91131
v 196.7546 4.379483 -6.911305
v 180.9637 4.37951 -6.911305
v 180.9637 5.891717 -6.91131

vn 0 0.9995117 1.192093E-07
vn 0 0.9995117 1.192093E-07
vn 0 0.9995117 1.192093E-07
vn 0 0.9995117 1.192093E-07
vn 0 0.9995117 1.192093E-07
vn 0 0.9995117 1.192093E-07
vn 0 0.9995117 1.192093E-07
vn 0 0.9995117 1.192093E-07
vn 0 0.9995117 1.192093E-07
vn 0 0.9995117 1.192093E-07
vn 0 0.9995117 1.192093E-07
vn 0 0.9995117 1.192093E-07
vn 0 0.9995117 1.192093E-07
vn 0 0.9995117 1.192093E-07
vn 0 0.9995117 1.192093E-07
vn 0 0.9995117 1.192093E-07
vn 0 0.9995117 1.192093E-07
vn 0 0.9995117 1.192093E-07
vn 0 0.9995117 1.192093E-07
vn 0 0.9995117 1.192093E-07
vn 0 0.9995117 1.192093E-07
vn 0 0.9995117 1.192093E-07
vn 0 0.9995117 1.192093E-07
vn 0 0.9995117 1.192093E-07
vn 0 0.9995117 1.192093E-07
vn 0 0.9995117 1.192093E-07
vn 0 0.9995117 1.192093E-07
vn 0 0.9995117 1.192093E-07
vn 0 0.9995117 1.192093E-07
vn 0 0.9995117 1.192093E-07
vn 0 0.9995117 1.192093E-07
vn 0 0.9995117 1.192093E-07
vn 0 0.9995117 1.192093E-07
vn 0 0.9995117 1.192093E-07
vn 0 0.9995117 1.192093E-07
vn 0 0.9995117 1.192093E-07
vn 0 0.9995117 1.192093E-07
vn 0 0.9995117 1.192093E-07
vn 0 0.9995117 1.192093E-07
vn 0 0.9995117 1.192093E-07
vn 0 0.9995117 1.192093E-07
vn 0 0.9995117 1.192093E-07
vn 0 0.9995117 1.192093E-07
vn 0 0.9995117 1.192093E-07
vn 0 0.9995117 1.192093E-07
vn 0 0.9995117 1.192093E-07
vn 0 0.9995117 1.192093E-07
vn 0 0.9995117 1.192093E-07
vn 0 0.9995117 1.192093E-07
vn 0 0.9995117 1.192093E-07
vn 0 0.9995117 1.192093E-07
vn 0 0.9995117 1.192093E-07
vn 0 0.9995117 1.192093E-07
vn 0 0.9995117 1.192093E-07
vn 0 0.9995117 1.192093E-07
vn 0 0.9995117 1.192093E-07
vn 0 0.9995117 1.192093E-07
vn 0 0.9995117 1.192093E-07
vn 0 0.9995117 1.192093E-07
vn 0 0.9995117 1.192093E-07
vn 0 0.9995117 1.192093E-07
vn 0 0.9995117 1.192093E-07
vn 0 0.9995117 1.192093E-07
vn 0 0.9995117 1.192093E-07

vt -5.960464E-08 1
vt 1 1
vt 1 0
vt 0 -5.960464E-08
vt 1 1
vt 1 0
vt 7.390976E-06 -5.960464E-08
vt -5.960464E-08 1
vt 1 1
vt 1 0
vt 0 -5.960464E-08
vt -5.960464E-08 1
vt 0 -5.960464E-08
vt 3.635883E-06 1
vt 0.9995117 1
vt 1 0
vt 1 0
vt 0 -5.960464E-08
vt -5.960464E-08 1
vt 1 1
vt 9.536743E-07 3.826618E-05
vt -5.960464E-08 1
vt 1 1
vt 1 0
vt 3.695488E-06 -5.960464E-08
vt -5.960464E-08 1
vt 1 1
vt 1 0
vt 1 0
vt 0 -5.960464E-08
vt -5.960464E-08 1
vt 1 1
vt 0 -5.960464E-08
vt -5.960464E-08 0.9995117
vt 1 1
vt 1 0
vt 0 -5.960464E-08
vt 2.682209E-06 0.9995117
vt 1 1
vt 1 0
vt 0 -5.960464E-08
vt 3.635883E-06 1
vt 1 1
vt 1 0
vt 1 0
vt 0 -5.960464E-08
vt -5.960464E-08 1
vt 1 1
vt 0 -5.960464E-08
vt -5.960464E-08 1
vt 1 1
vt 1 0
vt 0 5.364418E-07
vt 2.682209E-06 0.9995117
vt 0.9995117 1
vt 1 0
vt -5.960464E-08 1
vt 1 1
vt 1 0
vt 0 -5.960464E-08
vt 9.536743E-07 1.430511E-06
vt -5.960464E-08 1
vt 1 0.9995117
vt 1 0

g Roads.015_36370_488
usemtl Roads.015_36370_488
usemap Roads.015_36370_488
f 1/1/1 3/3/3 2/2/2
f 1/1/1 4/4/4 3/3/3
f 5/5/5 7/7/7 6/6/6
f 5/5/5 8/8/8 7/7/7
f 9/9/9 11/11/11 10/10/10
f 9/9/9 12/12/12 11/11/11
f 13/13/13 15/15/15 14/14/14
f 13/13/13 16/16/16 15/15/15
f 17/17/17 19/19/19 18/18/18
f 17/17/17 20/20/20 19/19/19
f 21/21/21 23/23/23 22/22/22
f 21/21/21 24/24/24 23/23/23
f 25/25/25 27/27/27 26/26/26
f 25/25/25 28/28/28 27/27/27
f 29/29/29 31/31/31 30/30/30
f 29/29/29 32/32/32 31/31/31
f 33/33/33 35/35/35 34/34/34
f 33/33/33 36/36/36 35/35/35
f 37/37/37 39/39/39 38/38/38
f 37/37/37 40/40/40 39/39/39
f 41/41/41 43/43/43 42/42/42
f 41/41/41 44/44/44 43/43/43
f 45/45/45 47/47/47 46/46/46
f 45/45/45 48/48/48 47/47/47
f 49/49/49 51/51/51 50/50/50
f 49/49/49 52/52/52 51/51/51
f 53/53/53 55/55/55 54/54/54
f 53/53/53 56/56/56 55/55/55
f 57/57/57 59/59/59 58/58/58
f 57/57/57 60/60/60 59/59/59
f 61/61/61 63/63/63 62/62/62
f 61/61/61 64/64/64 63/63/63
