#Roads.014_33737_288.obj

v -91.84296 318.1754 -6.911294
v -91.84296 333.9662 -6.911294
v -76.05222 333.9662 -6.911294
v -76.05222 318.1754 -6.911294
v 61.5106 318.1754 -6.911294
v 45.71974 318.1754 -6.911294
v 45.71975 333.9661 -6.911294
v 61.5106 333.9661 -6.911294
v 57.08735 484.8802 -6.911296
v 57.08735 469.0894 -6.911296
v 41.2966 469.0894 -6.911296
v 41.29661 484.8803 -6.911296
v 39.85526 404.826 -6.911296
v 40.19122 388.5312 -6.911296
v 23.72855 388.5733 -6.911296
v 24.06453 404.8261 -6.911296
v 24.06449 349.7481 -6.911296
v 23.61092 365.9623 -6.911296
v 40.21807 366.0227 -6.911297
v 39.85522 349.748 -6.911296
v 60.23079 349.7482 -6.911296
v 44.43994 349.7482 -6.911296
v 43.98641 366.0227 -6.911297
v 60.23085 365.5389 -6.911296
v -10.48337 389.0352 -6.911296
v -10.89697 405.1761 -6.911296
v 5.720953 405.176 -6.911296
v 5.307359 389.0352 -6.911296

vn 0 0.9995117 1.192093E-07
vn 0 0.9995117 1.192093E-07
vn 0 0.9995117 1.192093E-07
vn 0 0.9995117 1.192093E-07
vn 0 0.9995117 1.192093E-07
vn 0 0.9995117 1.192093E-07
vn 0 0.9995117 1.192093E-07
vn 0 0.9995117 1.192093E-07
vn 0 0.9995117 1.192093E-07
vn 0 0.9995117 1.192093E-07
vn 0 0.9995117 1.192093E-07
vn 0 0.9995117 1.192093E-07
vn 0 0.9995117 1.192093E-07
vn 0 0.9995117 1.192093E-07
vn 0 0.9995117 1.192093E-07
vn 0 0.9995117 1.192093E-07
vn 0 0.9995117 1.192093E-07
vn 0 0.9995117 1.192093E-07
vn 0 0.9995117 1.192093E-07
vn 0 0.9995117 1.192093E-07
vn 0 0.9995117 1.192093E-07
vn 0 0.9995117 1.192093E-07
vn 0 0.9995117 1.192093E-07
vn 0 0.9995117 1.192093E-07
vn 0 0.9995117 1.192093E-07
vn 0 0.9995117 1.192093E-07
vn 0 0.9995117 1.192093E-07
vn 0 0.9995117 1.192093E-07

vt 0.004997253 0.004997253
vt 0.004997253 0.9946289
vt 0.9946289 0.9946289
vt 0.9946289 0.004997253
vt 0.9946289 0.004997253
vt 0.004997253 0.004997253
vt 0.004997253 0.9946289
vt 0.9946289 0.9946289
vt 0.9946289 0.004997253
vt 0.004997253 0.004997253
vt 0.005001068 0.9946289
vt 0.9946289 0.9946289
vt 0.9946289 0.02519226
vt 0.004997253 0.004997253
vt 0.007553101 0.9946289
vt 0.9946289 0.9746094
vt 0.9946289 0.03201294
vt 0.008674622 0.004997253
vt 0.004997253 0.9946289
vt 0.9946289 0.9731445
vt 0.9946289 0.004997253
vt 0.03262329 0.004997253
vt 0.004997253 0.9946289
vt 0.9946289 0.965332
vt 0.9946289 0.02963257
vt 0.004997253 0.004997253
vt 0.005001068 0.9946289
vt 0.9946289 0.9702148

g Roads.014_33737_288
usemtl Roads.014_33737_288
usemap Roads.014_33737_288
f 1/1/1 3/3/3 2/2/2
f 1/1/1 4/4/4 3/3/3
f 5/5/5 7/7/7 6/6/6
f 5/5/5 8/8/8 7/7/7
f 9/9/9 11/11/11 10/10/10
f 9/9/9 12/12/12 11/11/11
f 13/13/13 15/15/15 14/14/14
f 13/13/13 16/16/16 15/15/15
f 17/17/17 19/19/19 18/18/18
f 17/17/17 20/20/20 19/19/19
f 21/21/21 23/23/23 22/22/22
f 21/21/21 24/24/24 23/23/23
f 25/25/25 27/27/27 26/26/26
f 25/25/25 28/28/28 27/27/27
