#Roads.008_34836_467.obj

v -560.1844 158.6233 -6.911307
v -544.3936 158.6233 -6.911307
v -544.3936 142.8326 -6.911307
v -560.1844 142.8326 -6.911307
v -432.5982 229.6023 -6.911294
v -448.389 229.6023 -6.911294
v -448.3891 245.393 -6.911293
v -432.5982 245.393 -6.911293
v -448.3891 264.2081 -6.911293
v -432.5983 264.2081 -6.911293
v -432.5982 248.4174 -6.911294
v -448.3891 248.4174 -6.911294
v -448.389 219.127 -6.911294
v -432.5983 219.127 -6.911294
v -432.5982 203.3363 -6.911294
v -448.389 203.3362 -6.911294
v -432.5982 180.5323 -6.911294
v -448.389 180.5323 -6.911294
v -448.3891 196.323 -6.911294
v -432.5982 196.323 -6.911294
v -355.7255 205.673 -6.911299
v -339.9348 205.673 -6.911299
v -339.9347 189.8822 -6.911299
v -355.7255 189.8822 -6.911299
v -478.3953 60.34821 -6.911322
v -478.3953 76.13898 -6.911322
v -462.6046 76.13905 -6.911322
v -462.6046 60.34821 -6.911322
v -522.508 60.34819 -6.911322
v -522.508 76.139 -6.911322
v -506.7173 76.13906 -6.911322
v -506.7173 60.3482 -6.911322
v -560.1729 60.3482 -6.911322
v -560.1729 76.13897 -6.911322
v -544.3821 76.13906 -6.911322
v -544.3821 60.3482 -6.911322
v -544.3821 104.7893 -6.911321
v -560.1729 104.7893 -6.911321
v -560.173 120.5801 -6.911321
v -544.3821 120.58 -6.911321
v -672.717 98.76777 -6.911321
v -672.717 114.5586 -6.911321
v -656.9263 114.5586 -6.911321
v -656.9263 98.76774 -6.911321
v -441.9673 60.34821 -6.911316
v -441.9673 76.13904 -6.911316
v -426.1766 76.13905 -6.911316
v -426.1765 60.34821 -6.911316
v -341.4029 57.9589 -6.911305
v -341.4029 73.74973 -6.911304
v -325.6122 73.74974 -6.911304
v -325.6122 57.95888 -6.911305
v -321.1197 163.8013 -6.911299
v -321.1197 148.0105 -6.9113
v -336.9104 148.0105 -6.9113
v -336.9104 163.8014 -6.911299

vn 0 0.9995117 1.192093E-07
vn 0 0.9995117 1.192093E-07
vn 0 0.9995117 1.192093E-07
vn 0 0.9995117 1.192093E-07
vn 0 0.9995117 1.192093E-07
vn 0 0.9995117 1.192093E-07
vn 0 0.9995117 1.192093E-07
vn 0 0.9995117 1.192093E-07
vn 0 0.9995117 1.192093E-07
vn 0 0.9995117 1.192093E-07
vn 0 0.9995117 1.192093E-07
vn 0 0.9995117 1.192093E-07
vn 0 0.9995117 1.192093E-07
vn 0 0.9995117 1.192093E-07
vn 0 0.9995117 1.192093E-07
vn 0 0.9995117 1.192093E-07
vn 0 0.9995117 1.192093E-07
vn 0 0.9995117 1.192093E-07
vn 0 0.9995117 1.192093E-07
vn 0 0.9995117 1.192093E-07
vn 0 0.9995117 1.192093E-07
vn 0 0.9995117 1.192093E-07
vn 0 0.9995117 1.192093E-07
vn 0 0.9995117 1.192093E-07
vn 0 0.9995117 1.192093E-07
vn 0 0.9995117 1.192093E-07
vn 0 0.9995117 1.192093E-07
vn 0 0.9995117 1.192093E-07
vn 0 0.9995117 1.192093E-07
vn 0 0.9995117 1.192093E-07
vn 0 0.9995117 1.192093E-07
vn 0 0.9995117 1.192093E-07
vn 0 0.9995117 1.192093E-07
vn 0 0.9995117 1.192093E-07
vn 0 0.9995117 1.192093E-07
vn 0 0.9995117 1.192093E-07
vn 0 0.9995117 1.192093E-07
vn 0 0.9995117 1.192093E-07
vn 0 0.9995117 1.192093E-07
vn 0 0.9995117 1.192093E-07
vn 0 0.9995117 1.192093E-07
vn 0 0.9995117 1.192093E-07
vn 0 0.9995117 1.192093E-07
vn 0 0.9995117 1.192093E-07
vn 0 0.9995117 1.192093E-07
vn 0 0.9995117 1.192093E-07
vn 0 0.9995117 1.192093E-07
vn 0 0.9995117 1.192093E-07
vn 0 0.9995117 1.192093E-07
vn 0 0.9995117 1.192093E-07
vn 0 0.9995117 1.192093E-07
vn 0 0.9995117 1.192093E-07
vn 0 0.9995117 1.192093E-07
vn 0 0.9995117 1.192093E-07
vn 0 0.9995117 1.192093E-07
vn 0 0.9995117 1.192093E-07

vt 0.004997253 0.9946289
vt 0.9946289 0.9946289
vt 0.9946289 0.004997253
vt 0.005004883 0.004997253
vt 0.9946289 0.004997253
vt 0.005001068 0.004997253
vt 0.004997253 0.9946289
vt 0.9946289 0.9946289
vt 0.9946289 0.004997253
vt 0.005004883 0.004997253
vt 0.004997253 0.9946289
vt 0.9946289 0.9946289
vt 0.9946289 0.004997253
vt 0.005001068 0.004997253
vt 0.004997253 0.9946289
vt 0.9946289 0.9946289
vt 0.9946289 0.004997253
vt 0.005004883 0.004997253
vt 0.004997253 0.9946289
vt 0.9946289 0.9946289
vt 0.9946289 0.004997253
vt 0.005004883 0.004997253
vt 0.004997253 0.9946289
vt 0.9946289 0.9946289
vt 0.9946289 0.004997253
vt 0.005001068 0.004997253
vt 0.004997253 0.9946289
vt 0.9946289 0.9946289
vt 0.9946289 0.004997253
vt 0.005001068 0.004997253
vt 0.004997253 0.9946289
vt 0.9946289 0.9946289
vt 0.9946289 0.004997253
vt 0.005001068 0.004997253
vt 0.004997253 0.9946289
vt 0.9946289 0.9946289
vt 0.9946289 0.004997253
vt 0.005001068 0.004997253
vt 0.004997253 0.9946289
vt 0.9946289 0.9946289
vt 0.9946289 0.004997253
vt 0.004997253 0.004997253
vt 0.004997253 0.9946289
vt 0.9946289 0.9946289
vt 0.9946289 0.004997253
vt 0.004997253 0.004997253
vt 0.004997253 0.9946289
vt 0.9946289 0.9946289
vt 0.9946289 0.004997253
vt 0.004997253 0.004997253
vt 0.004997253 0.9946289
vt 0.9946289 0.9946289
vt 0.9946289 0.004997253
vt 0.004997253 0.004997253
vt 0.004997253 0.9946289
vt 0.9946289 0.9946289

g Roads.008_34836_467
usemtl Roads.008_34836_467
usemap Roads.008_34836_467
f 1/1/1 3/3/3 2/2/2
f 1/1/1 4/4/4 3/3/3
f 5/5/5 7/7/7 6/6/6
f 5/5/5 8/8/8 7/7/7
f 9/9/9 11/11/11 10/10/10
f 9/9/9 12/12/12 11/11/11
f 13/13/13 15/15/15 14/14/14
f 13/13/13 16/16/16 15/15/15
f 17/17/17 19/19/19 18/18/18
f 17/17/17 20/20/20 19/19/19
f 21/21/21 23/23/23 22/22/22
f 21/21/21 24/24/24 23/23/23
f 25/25/25 27/27/27 26/26/26
f 25/25/25 28/28/28 27/27/27
f 29/29/29 31/31/31 30/30/30
f 29/29/29 32/32/32 31/31/31
f 33/33/33 35/35/35 34/34/34
f 33/33/33 36/36/36 35/35/35
f 37/37/37 39/39/39 38/38/38
f 37/37/37 40/40/40 39/39/39
f 41/41/41 43/43/43 42/42/42
f 41/41/41 44/44/44 43/43/43
f 45/45/45 47/47/47 46/46/46
f 45/45/45 48/48/48 47/47/47
f 49/49/49 51/51/51 50/50/50
f 49/49/49 52/52/52 51/51/51
f 53/53/53 55/55/55 54/54/54
f 53/53/53 56/56/56 55/55/55
