#Rock_single_t1(Clone)_35877_150.obj

v -5.01428 1.794599 2.027981
v -5.024622 5.024619 -0.3001754
v -1.794538 5.014308 2.027988
v -1.900177 6.545413 -0.1940605
v 1.900205 6.545398 -0.1940646
v 1.794549 5.014326 2.027983
v 1.901918 1.901917 3.177655
v -1.901901 1.901968 3.177653
v 1.90192 -1.901896 3.177655
v -1.901917 -1.901935 3.177655
v 1.794556 -5.014243 2.027986
v -1.794537 -5.01426 2.027974
v 5.014296 -1.794535 2.027976
v 5.024621 -5.024642 -0.3001871
v 5.014306 1.794594 2.027977
v 5.02464 5.024671 -0.3001812
v -5.014289 -1.794529 2.02798
v -6.545343 1.900233 -0.1940727
v -6.545352 -1.900195 -0.1940522
v -7.740172 2.142225 -2.69338
v -7.740168 -2.142207 -2.693385
v -5.024624 -5.024607 -0.3002005
v -5.77144 -5.771429 -2.722205
v 6.545358 -1.900165 -0.1940577
v 6.545348 1.900176 -0.1940589
v 7.74018 -2.142183 -2.693375
v 7.740177 2.142247 -2.69337
v 5.771456 5.771481 -2.722204
v -1.90019 -6.54533 -0.1940659
v 1.900193 -6.545346 -0.19407
v -2.142223 -7.740155 -2.693367
v 2.142227 -7.740167 -2.693376
v 5.771452 -5.771428 -2.722215
v 2.142219 7.740153 -2.693388
v -2.142218 7.740208 -2.69338
v -5.771435 5.77148 -2.722194

vn 0.07513428 0.9052734 0.4169922
vn 0.5473633 0.8168945 0.1809082
vn 0.7446289 0.5307617 0.4040527
vn 0.8510742 0.4868164 0.1947021
vn 0.9575195 0.1605225 0.2384033
vn 0.8803711 0.1143799 0.4599609
vn 0.4372559 -0.05328369 0.8974609
vn 0.2539063 0.5092773 0.8217773
vn -0.3198242 -0.2998047 0.8984375
vn -0.5029297 0.2626953 0.8227539
vn -0.777832 -0.4255371 0.4621582
vn -0.9135742 -0.008934021 0.40625
vn -0.1146851 -0.7797852 0.6147461
vn -0.5668945 -0.7543945 0.3293457
vn 0.5532227 -0.5620117 0.6137695
vn 0.9033203 -0.2756348 0.3273926
vn -0.5927734 0.6879883 0.4179688
vn -0.01229095 0.9868164 0.1607666
vn -0.5703125 0.8046875 0.161499
vn -0.004550934 0.9926758 0.1169434
vn -0.5805664 0.8051758 0.1176758
vn -0.9228516 0.3378906 0.1828613
vn -0.9331055 0.3352051 0.1264648
vn -0.008911133 -0.9194336 0.3928223
vn 0.5493164 -0.7373047 0.3920898
vn -0.01338196 -0.9360352 0.3513184
vn 0.5625 -0.7480469 0.3505859
vn 0.9179688 -0.2866211 0.2731934
vn -0.9741211 -0.1075439 0.1971436
vn -0.8676758 -0.4338379 0.2408447
vn -0.9804688 -0.1090088 0.1622314
vn -0.8710938 -0.4445801 0.2072754
vn -0.5722656 -0.7719727 0.2751465
vn 0.9663086 0.1536865 0.204834
vn 0.8569336 0.4892578 0.15979
vn 0.5571289 0.8208008 0.1245117

vt 0.1590576 0.6088867
vt 0.02641296 0.9555664
vt 0.3752441 0.831543
vt 0.3171387 1.116211
vt 0.6601563 1.119141
vt 0.6054688 0.8398438
vt 0.6069336 0.612793
vt 0.3837891 0.6098633
vt 0.6157227 0.3896484
vt 0.3925781 0.3867188
vt 0.6245117 0.168335
vt 0.394043 0.1600342
vt 0.8408203 0.3908691
vt 0.9731445 0.04434204
vt 0.8305664 0.6206055
vt 0.9545898 0.972168
vt 0.1691895 0.3789063
vt -0.1202393 0.6621094
vt -0.1161499 0.3190918
vt -0.5874023 0.7973633
vt -0.5874023 0.2025146
vt 0.0453186 0.02761841
vt -0.2856445 -0.2885742
vt 1.120117 0.3374023
vt 1.115234 0.6806641
vt 1.586914 0.2022705
vt 1.586914 0.7973633
vt 1.285156 1.288086
vt 0.3393555 -0.119873
vt 0.6826172 -0.116394
vt 0.2034912 -0.5869141
vt 0.7983398 -0.5874023
vt 1.289063 -0.2861328
vt 0.7963867 1.586914
vt 0.2012939 1.586914
vt -0.2893066 1.286133

g Rock_single_t1(Clone)_35877_150
usemtl Rock_single_t1(Clone)_35877_150
usemap Rock_single_t1(Clone)_35877_150
f 1/1/1 3/3/3 2/2/2
f 4/4/4 2/2/2 3/3/3
f 3/3/3 5/5/5 4/4/4
f 3/3/3 6/6/6 5/5/5
f 7/7/7 6/6/6 3/3/3
f 7/7/7 3/3/3 8/8/8
f 8/8/8 3/3/3 1/1/1
f 9/9/9 7/7/7 8/8/8
f 9/9/9 8/8/8 10/10/10
f 10/10/10 8/8/8 1/1/1
f 11/11/11 9/9/9 10/10/10
f 11/11/11 10/10/10 12/12/12
f 13/13/13 7/7/7 9/9/9
f 9/9/9 11/11/11 13/13/13
f 13/13/13 11/11/11 14/14/14
f 13/13/13 15/15/15 7/7/7
f 7/7/7 15/15/15 6/6/6
f 6/6/6 15/15/15 16/16/16
f 5/5/5 6/6/6 16/16/16
f 10/10/10 17/17/17 12/12/12
f 10/10/10 1/1/1 17/17/17
f 17/17/17 1/1/1 18/18/18
f 17/17/17 18/18/18 19/19/19
f 19/19/19 18/18/18 20/20/20
f 19/19/19 20/20/20 21/21/21
f 22/22/22 12/12/12 17/17/17
f 22/22/22 19/19/19 21/21/21
f 19/19/19 22/22/22 17/17/17
f 22/22/22 21/21/21 23/23/23
f 15/15/15 13/13/13 24/24/24
f 24/24/24 13/13/13 14/14/14
f 15/15/15 24/24/24 25/25/25
f 25/25/25 16/16/16 15/15/15
f 25/25/25 24/24/24 26/26/26
f 25/25/25 26/26/26 27/27/27
f 16/16/16 25/25/25 27/27/27
f 16/16/16 27/27/27 28/28/28
f 29/29/29 22/22/22 23/23/23
f 29/29/29 12/12/12 22/22/22
f 11/11/11 12/12/12 29/29/29
f 11/11/11 29/29/29 30/30/30
f 30/30/30 29/29/29 31/31/31
f 29/29/29 23/23/23 31/31/31
f 30/30/30 31/31/31 32/32/32
f 30/30/30 14/14/14 11/11/11
f 14/14/14 30/30/30 32/32/32
f 14/14/14 32/32/32 33/33/33
f 24/24/24 33/33/33 26/26/26
f 24/24/24 14/14/14 33/33/33
f 5/5/5 28/28/28 34/34/34
f 4/4/4 5/5/5 34/34/34
f 4/4/4 34/34/34 35/35/35
f 2/2/2 4/4/4 35/35/35
f 2/2/2 35/35/35 36/36/36
f 5/5/5 16/16/16 28/28/28
f 18/18/18 2/2/2 36/36/36
f 18/18/18 36/36/36 20/20/20
f 18/18/18 1/1/1 2/2/2
