#Rock_single_t1(Clone)_34424_426.obj

v -5.014307 1.794549 2.027978
v -5.024601 5.02467 -0.3001893
v -1.79451 5.014333 2.027986
v -1.900182 6.545375 -0.1940633
v 1.900219 6.545382 -0.1940599
v 1.794535 5.014307 2.027977
v 1.901908 1.901928 3.177644
v -1.901897 1.901941 3.177649
v 1.90194 -1.901875 3.177649
v -1.901913 -1.901903 3.177647
v 1.794544 -5.014278 2.02798
v -1.794556 -5.014282 2.027976
v 5.014294 -1.794535 2.027981
v 5.024628 -5.024601 -0.3001928
v 5.0143 1.79457 2.027979
v 5.024618 5.024634 -0.3001939
v -5.014274 -1.794504 2.027982
v -6.545323 1.900227 -0.1940594
v -6.545337 -1.900161 -0.1940634
v -7.74014 2.142264 -2.693372
v -7.740143 -2.142191 -2.693373
v -5.024629 -5.024617 -0.3001912
v -5.771428 -5.771411 -2.722209
v 6.545357 -1.900165 -0.1940657
v 6.545371 1.900223 -0.1940615
v 7.740192 -2.142193 -2.693375
v 7.740196 2.142262 -2.693375
v 5.771453 5.77146 -2.72221
v -1.900185 -6.54532 -0.1940647
v 1.900216 -6.545313 -0.1940622
v -2.142239 -7.740167 -2.69338
v 2.142241 -7.740132 -2.693378
v 5.771457 -5.771422 -2.722211
v 2.142245 7.740198 -2.693375
v -2.142197 7.740215 -2.693374
v -5.771432 5.771471 -2.722208

vn -0.2692871 0.9199219 -0.2836914
vn 0.001472473 0.7592773 -0.6503906
vn 0.3969727 0.840332 -0.3684082
vn 0.4885254 0.6264648 -0.6069336
vn 0.8149414 0.4460449 -0.3688965
vn 0.7626953 0.6381836 -0.1017456
vn 0.4963379 0.7856445 0.3686523
vn 0.1361084 0.9848633 0.1063843
vn 0.18396 0.675293 0.7138672
vn -0.1761475 0.8745117 0.451416
vn -0.1756592 0.3068848 0.9350586
vn -0.5415039 0.5092773 0.668457
vn 0.4885254 0.2164307 0.8452148
vn 0.1303711 -0.07507324 0.9882813
vn 0.8027344 0.3273926 0.4978027
vn 0.9731445 0.222168 0.05758667
vn -0.5834961 0.809082 0.0637207
vn -0.4663086 0.7416992 -0.4812012
vn -0.7451172 0.6435547 -0.1730957
vn -0.482666 0.7041016 -0.5205078
vn -0.7729492 0.6015625 -0.199585
vn -0.8413086 0.4619141 0.2802734
vn -0.8833008 0.3962402 0.2496338
vn 0.5908203 -0.09509277 0.8007813
vn 0.8701172 0.003292084 0.4926758
vn 0.5893555 -0.1516113 0.793457
vn 0.8798828 -0.04916382 0.4724121
vn 0.9882813 0.1489258 0.01974487
vn -0.6884766 0.2110596 0.6933594
vn -0.3618164 0.03059387 0.9316406
vn -0.7163086 0.1628418 0.6777344
vn -0.3762207 -0.02526855 0.9257813
vn 0.1190796 -0.1577148 0.9799805
vn 0.824707 0.3984375 -0.4006348
vn 0.484375 0.5864258 -0.6484375
vn -0.01396179 0.703125 -0.7104492

vt 0.1590576 0.6088867
vt 0.02641296 0.9555664
vt 0.3752441 0.831543
vt 0.3171387 1.116211
vt 0.6601563 1.119141
vt 0.6054688 0.8398438
vt 0.6069336 0.612793
vt 0.3837891 0.6098633
vt 0.6157227 0.3896484
vt 0.3925781 0.3867188
vt 0.6245117 0.168335
vt 0.394043 0.1600342
vt 0.8408203 0.3908691
vt 0.9731445 0.04434204
vt 0.8305664 0.6206055
vt 0.9545898 0.972168
vt 0.1691895 0.3789063
vt -0.1202393 0.6621094
vt -0.1161499 0.3190918
vt -0.5874023 0.7973633
vt -0.5874023 0.2025146
vt 0.0453186 0.02761841
vt -0.2856445 -0.2885742
vt 1.120117 0.3374023
vt 1.115234 0.6806641
vt 1.586914 0.2022705
vt 1.586914 0.7973633
vt 1.285156 1.288086
vt 0.3393555 -0.119873
vt 0.6826172 -0.116394
vt 0.2034912 -0.5869141
vt 0.7983398 -0.5874023
vt 1.289063 -0.2861328
vt 0.7963867 1.586914
vt 0.2012939 1.586914
vt -0.2893066 1.286133

g Rock_single_t1(Clone)_34424_426
usemtl Rock_single_t1(Clone)_34424_426
usemap Rock_single_t1(Clone)_34424_426
f 1/1/1 3/3/3 2/2/2
f 4/4/4 2/2/2 3/3/3
f 3/3/3 5/5/5 4/4/4
f 3/3/3 6/6/6 5/5/5
f 7/7/7 6/6/6 3/3/3
f 7/7/7 3/3/3 8/8/8
f 8/8/8 3/3/3 1/1/1
f 9/9/9 7/7/7 8/8/8
f 9/9/9 8/8/8 10/10/10
f 10/10/10 8/8/8 1/1/1
f 11/11/11 9/9/9 10/10/10
f 11/11/11 10/10/10 12/12/12
f 13/13/13 7/7/7 9/9/9
f 9/9/9 11/11/11 13/13/13
f 13/13/13 11/11/11 14/14/14
f 13/13/13 15/15/15 7/7/7
f 7/7/7 15/15/15 6/6/6
f 6/6/6 15/15/15 16/16/16
f 5/5/5 6/6/6 16/16/16
f 10/10/10 17/17/17 12/12/12
f 10/10/10 1/1/1 17/17/17
f 17/17/17 1/1/1 18/18/18
f 17/17/17 18/18/18 19/19/19
f 19/19/19 18/18/18 20/20/20
f 19/19/19 20/20/20 21/21/21
f 22/22/22 12/12/12 17/17/17
f 22/22/22 19/19/19 21/21/21
f 19/19/19 22/22/22 17/17/17
f 22/22/22 21/21/21 23/23/23
f 15/15/15 13/13/13 24/24/24
f 24/24/24 13/13/13 14/14/14
f 15/15/15 24/24/24 25/25/25
f 25/25/25 16/16/16 15/15/15
f 25/25/25 24/24/24 26/26/26
f 25/25/25 26/26/26 27/27/27
f 16/16/16 25/25/25 27/27/27
f 16/16/16 27/27/27 28/28/28
f 29/29/29 22/22/22 23/23/23
f 29/29/29 12/12/12 22/22/22
f 11/11/11 12/12/12 29/29/29
f 11/11/11 29/29/29 30/30/30
f 30/30/30 29/29/29 31/31/31
f 29/29/29 23/23/23 31/31/31
f 30/30/30 31/31/31 32/32/32
f 30/30/30 14/14/14 11/11/11
f 14/14/14 30/30/30 32/32/32
f 14/14/14 32/32/32 33/33/33
f 24/24/24 33/33/33 26/26/26
f 24/24/24 14/14/14 33/33/33
f 5/5/5 28/28/28 34/34/34
f 4/4/4 5/5/5 34/34/34
f 4/4/4 34/34/34 35/35/35
f 2/2/2 4/4/4 35/35/35
f 2/2/2 35/35/35 36/36/36
f 5/5/5 16/16/16 28/28/28
f 18/18/18 2/2/2 36/36/36
f 18/18/18 36/36/36 20/20/20
f 18/18/18 1/1/1 2/2/2
