#Rock_single_t1(Clone)_(46)_38183_291.obj

v -5.014299 1.794544 2.027984
v -5.024617 5.024624 -0.3001921
v -1.794551 5.014305 2.027974
v -1.900186 6.545346 -0.1940611
v 1.900205 6.545342 -0.1940604
v 1.794542 5.014291 2.027988
v 1.90192 1.901917 3.177641
v -1.901913 1.901914 3.177648
v 1.901918 -1.901911 3.177642
v -1.901916 -1.901914 3.177649
v 1.794546 -5.014294 2.027979
v -1.794534 -5.0143 2.027984
v 5.014295 -1.794532 2.027969
v 5.024634 -5.024621 -0.3002002
v 5.014299 1.794538 2.027984
v 5.024635 5.024617 -0.3001853
v -5.014291 -1.794548 2.027987
v -6.545363 1.900199 -0.1940615
v -6.545365 -1.900188 -0.1940599
v -7.740155 2.142219 -2.693376
v -7.740171 -2.142231 -2.693369
v -5.024631 -5.024635 -0.3001714
v -5.77146 -5.771446 -2.722202
v 6.545344 -1.900191 -0.1940604
v 6.545346 1.900196 -0.1940617
v 7.740166 -2.142224 -2.693376
v 7.740182 2.142224 -2.693384
v 5.771451 5.771439 -2.722202
v -1.900187 -6.545356 -0.1940607
v 1.900205 -6.545359 -0.1940596
v -2.142225 -7.740167 -2.693379
v 2.142222 -7.740178 -2.693362
v 5.771435 -5.771443 -2.722206
v 2.142236 7.740162 -2.693372
v -2.142236 7.740173 -2.693373
v -5.771456 5.771458 -2.722215

vn -0.934082 0.3474121 0.07800293
vn -0.7910156 0.5009766 -0.3500977
vn -0.6054688 0.7949219 -0.02368164
vn -0.4475098 0.8203125 -0.3552246
vn -0.1125488 0.9760742 -0.1846924
vn -0.2695313 0.9511719 0.1474609
vn -0.4064941 0.7329102 0.5444336
vn -0.6933594 0.5996094 0.3984375
vn -0.4064941 0.4755859 0.7797852
vn -0.6933594 0.342041 0.6333008
vn -0.2695313 0.05999756 0.9609375
vn -0.6054688 -0.09613037 0.7895508
vn 0.0592041 0.5078125 0.8588867
vn 0.2070313 0.06964111 0.9755859
vn 0.05917358 0.809082 0.5839844
vn 0.2069092 0.965332 0.1583252
vn -0.934082 0.04595947 0.3530273
vn -0.9760742 0.1003418 -0.1917725
vn -0.9760742 -0.2001953 0.0824585
vn -0.965332 0.06130981 -0.2526855
vn -0.965332 -0.2570801 0.03805542
vn -0.7910156 -0.3942871 0.4672852
vn -0.7666016 -0.4858398 0.4189453
vn 0.4160156 0.4470215 0.7915039
vn 0.4160156 0.7475586 0.5170898
vn 0.4787598 0.4140625 0.7734375
vn 0.4787598 0.7329102 0.4831543
vn 0.2893066 0.9526367 0.09228516
vn -0.4475098 -0.4287109 0.784668
vn -0.1124878 -0.2729492 0.9550781
vn -0.4206543 -0.4926758 0.7612305
vn -0.06573486 -0.3276367 0.9423828
vn 0.2893066 0.004997253 0.9570313
vn -0.0657959 0.9682617 -0.2403564
vn -0.4206543 0.8032227 -0.4211426
vn -0.7666016 0.4616699 -0.4455566

vt 0.1590576 0.6088867
vt 0.02641296 0.9555664
vt 0.3752441 0.831543
vt 0.3171387 1.116211
vt 0.6601563 1.119141
vt 0.6054688 0.8398438
vt 0.6069336 0.612793
vt 0.3837891 0.6098633
vt 0.6157227 0.3896484
vt 0.3925781 0.3867188
vt 0.6245117 0.168335
vt 0.394043 0.1600342
vt 0.8408203 0.3908691
vt 0.9731445 0.04434204
vt 0.8305664 0.6206055
vt 0.9545898 0.972168
vt 0.1691895 0.3789063
vt -0.1202393 0.6621094
vt -0.1161499 0.3190918
vt -0.5874023 0.7973633
vt -0.5874023 0.2025146
vt 0.0453186 0.02761841
vt -0.2856445 -0.2885742
vt 1.120117 0.3374023
vt 1.115234 0.6806641
vt 1.586914 0.2022705
vt 1.586914 0.7973633
vt 1.285156 1.288086
vt 0.3393555 -0.119873
vt 0.6826172 -0.116394
vt 0.2034912 -0.5869141
vt 0.7983398 -0.5874023
vt 1.289063 -0.2861328
vt 0.7963867 1.586914
vt 0.2012939 1.586914
vt -0.2893066 1.286133

g Rock_single_t1(Clone)_(46)_38183_291
usemtl Rock_single_t1(Clone)_(46)_38183_291
usemap Rock_single_t1(Clone)_(46)_38183_291
f 1/1/1 3/3/3 2/2/2
f 4/4/4 2/2/2 3/3/3
f 3/3/3 5/5/5 4/4/4
f 3/3/3 6/6/6 5/5/5
f 7/7/7 6/6/6 3/3/3
f 7/7/7 3/3/3 8/8/8
f 8/8/8 3/3/3 1/1/1
f 9/9/9 7/7/7 8/8/8
f 9/9/9 8/8/8 10/10/10
f 10/10/10 8/8/8 1/1/1
f 11/11/11 9/9/9 10/10/10
f 11/11/11 10/10/10 12/12/12
f 13/13/13 7/7/7 9/9/9
f 9/9/9 11/11/11 13/13/13
f 13/13/13 11/11/11 14/14/14
f 13/13/13 15/15/15 7/7/7
f 7/7/7 15/15/15 6/6/6
f 6/6/6 15/15/15 16/16/16
f 5/5/5 6/6/6 16/16/16
f 10/10/10 17/17/17 12/12/12
f 10/10/10 1/1/1 17/17/17
f 17/17/17 1/1/1 18/18/18
f 17/17/17 18/18/18 19/19/19
f 19/19/19 18/18/18 20/20/20
f 19/19/19 20/20/20 21/21/21
f 22/22/22 12/12/12 17/17/17
f 22/22/22 19/19/19 21/21/21
f 19/19/19 22/22/22 17/17/17
f 22/22/22 21/21/21 23/23/23
f 15/15/15 13/13/13 24/24/24
f 24/24/24 13/13/13 14/14/14
f 15/15/15 24/24/24 25/25/25
f 25/25/25 16/16/16 15/15/15
f 25/25/25 24/24/24 26/26/26
f 25/25/25 26/26/26 27/27/27
f 16/16/16 25/25/25 27/27/27
f 16/16/16 27/27/27 28/28/28
f 29/29/29 22/22/22 23/23/23
f 29/29/29 12/12/12 22/22/22
f 11/11/11 12/12/12 29/29/29
f 11/11/11 29/29/29 30/30/30
f 30/30/30 29/29/29 31/31/31
f 29/29/29 23/23/23 31/31/31
f 30/30/30 31/31/31 32/32/32
f 30/30/30 14/14/14 11/11/11
f 14/14/14 30/30/30 32/32/32
f 14/14/14 32/32/32 33/33/33
f 24/24/24 33/33/33 26/26/26
f 24/24/24 14/14/14 33/33/33
f 5/5/5 28/28/28 34/34/34
f 4/4/4 5/5/5 34/34/34
f 4/4/4 34/34/34 35/35/35
f 2/2/2 4/4/4 35/35/35
f 2/2/2 35/35/35 36/36/36
f 5/5/5 16/16/16 28/28/28
f 18/18/18 2/2/2 36/36/36
f 18/18/18 36/36/36 20/20/20
f 18/18/18 1/1/1 2/2/2
