#Rock_single_t1(Clone)_35219_541.obj

v -5.014289 1.79457 2.027977
v -5.024623 5.024632 -0.3001921
v -1.794546 5.014277 2.02798
v -1.900196 6.545349 -0.1940661
v 1.900202 6.54539 -0.194065
v 1.794556 5.014353 2.027985
v 1.901924 1.901953 3.177642
v -1.901913 1.901921 3.177644
v 1.901923 -1.901876 3.177647
v -1.901914 -1.901908 3.177649
v 1.794552 -5.014256 2.027978
v -1.794531 -5.014252 2.027988
v 5.014293 -1.794549 2.027981
v 5.024621 -5.024643 -0.3001987
v 5.01429 1.794525 2.027988
v 5.024638 5.024682 -0.3001879
v -5.014286 -1.794502 2.027987
v -6.545357 1.900174 -0.19406
v -6.545349 -1.900192 -0.1940599
v -7.740167 2.142238 -2.693383
v -7.740157 -2.142178 -2.693376
v -5.024623 -5.024613 -0.3002041
v -5.771436 -5.771401 -2.722199
v 6.545362 -1.900147 -0.1940586
v 6.545355 1.900218 -0.1940587
v 7.74018 -2.142186 -2.693361
v 7.740171 2.14223 -2.693369
v 5.771453 5.771473 -2.722196
v -1.900196 -6.545365 -0.1940697
v 1.900201 -6.545323 -0.1940686
v -2.14223 -7.740188 -2.693362
v 2.142238 -7.740122 -2.693384
v 5.771445 -5.771455 -2.722224
v 2.142224 7.740162 -2.693382
v -2.142224 7.740174 -2.69336
v -5.771448 5.771445 -2.722202

vn 0.07513428 0.8427734 0.5322266
vn 0.5473633 0.7861328 0.286377
vn 0.7446289 0.4733887 0.4702148
vn 0.8510742 0.4570313 0.2565918
vn 0.9575195 0.1279297 0.2573242
vn 0.8803711 0.0531311 0.4709473
vn 0.4372559 -0.1704102 0.8828125
vn 0.2539063 0.3972168 0.8818359
vn -0.3198242 -0.4147949 0.8515625
vn -0.5029297 0.1525879 0.8500977
vn -0.777832 -0.4824219 0.4023438
vn -0.9135742 -0.06207275 0.4016113
vn -0.1146851 -0.8535156 0.5073242
vn -0.5668945 -0.7910156 0.2277832
vn 0.5532227 -0.6376953 0.5351563
vn 0.9033203 -0.3161621 0.2885742
vn -0.5927734 0.6269531 0.5043945
vn -0.01229095 0.9570313 0.2885742
vn -0.5703125 0.7768555 0.265625
vn -0.004550934 0.9692383 0.2459717
vn -0.5805664 0.7827148 0.222168
vn -0.9228516 0.3110352 0.2255859
vn -0.9331055 0.315918 0.1693115
vn -0.008911133 -0.9628906 0.269043
vn 0.5493164 -0.7822266 0.2922363
vn -0.01338196 -0.9736328 0.225708
vn 0.5625 -0.7875977 0.2495117
vn 0.9179688 -0.3200684 0.2332764
vn -0.9741211 -0.1324463 0.1812744
vn -0.8676758 -0.4616699 0.1820068
vn -0.9804688 -0.1292725 0.1466064
vn -0.8710938 -0.4680176 0.1472168
vn -0.5722656 -0.8012695 0.1716309
vn 0.9663086 0.1254883 0.2232666
vn 0.8569336 0.4641113 0.2225342
vn 0.5571289 0.7973633 0.230957

vt 0.1590576 0.6088867
vt 0.02641296 0.9555664
vt 0.3752441 0.831543
vt 0.3171387 1.116211
vt 0.6601563 1.119141
vt 0.6054688 0.8398438
vt 0.6069336 0.612793
vt 0.3837891 0.6098633
vt 0.6157227 0.3896484
vt 0.3925781 0.3867188
vt 0.6245117 0.168335
vt 0.394043 0.1600342
vt 0.8408203 0.3908691
vt 0.9731445 0.04434204
vt 0.8305664 0.6206055
vt 0.9545898 0.972168
vt 0.1691895 0.3789063
vt -0.1202393 0.6621094
vt -0.1161499 0.3190918
vt -0.5874023 0.7973633
vt -0.5874023 0.2025146
vt 0.0453186 0.02761841
vt -0.2856445 -0.2885742
vt 1.120117 0.3374023
vt 1.115234 0.6806641
vt 1.586914 0.2022705
vt 1.586914 0.7973633
vt 1.285156 1.288086
vt 0.3393555 -0.119873
vt 0.6826172 -0.116394
vt 0.2034912 -0.5869141
vt 0.7983398 -0.5874023
vt 1.289063 -0.2861328
vt 0.7963867 1.586914
vt 0.2012939 1.586914
vt -0.2893066 1.286133

g Rock_single_t1(Clone)_35219_541
usemtl Rock_single_t1(Clone)_35219_541
usemap Rock_single_t1(Clone)_35219_541
f 1/1/1 3/3/3 2/2/2
f 4/4/4 2/2/2 3/3/3
f 3/3/3 5/5/5 4/4/4
f 3/3/3 6/6/6 5/5/5
f 7/7/7 6/6/6 3/3/3
f 7/7/7 3/3/3 8/8/8
f 8/8/8 3/3/3 1/1/1
f 9/9/9 7/7/7 8/8/8
f 9/9/9 8/8/8 10/10/10
f 10/10/10 8/8/8 1/1/1
f 11/11/11 9/9/9 10/10/10
f 11/11/11 10/10/10 12/12/12
f 13/13/13 7/7/7 9/9/9
f 9/9/9 11/11/11 13/13/13
f 13/13/13 11/11/11 14/14/14
f 13/13/13 15/15/15 7/7/7
f 7/7/7 15/15/15 6/6/6
f 6/6/6 15/15/15 16/16/16
f 5/5/5 6/6/6 16/16/16
f 10/10/10 17/17/17 12/12/12
f 10/10/10 1/1/1 17/17/17
f 17/17/17 1/1/1 18/18/18
f 17/17/17 18/18/18 19/19/19
f 19/19/19 18/18/18 20/20/20
f 19/19/19 20/20/20 21/21/21
f 22/22/22 12/12/12 17/17/17
f 22/22/22 19/19/19 21/21/21
f 19/19/19 22/22/22 17/17/17
f 22/22/22 21/21/21 23/23/23
f 15/15/15 13/13/13 24/24/24
f 24/24/24 13/13/13 14/14/14
f 15/15/15 24/24/24 25/25/25
f 25/25/25 16/16/16 15/15/15
f 25/25/25 24/24/24 26/26/26
f 25/25/25 26/26/26 27/27/27
f 16/16/16 25/25/25 27/27/27
f 16/16/16 27/27/27 28/28/28
f 29/29/29 22/22/22 23/23/23
f 29/29/29 12/12/12 22/22/22
f 11/11/11 12/12/12 29/29/29
f 11/11/11 29/29/29 30/30/30
f 30/30/30 29/29/29 31/31/31
f 29/29/29 23/23/23 31/31/31
f 30/30/30 31/31/31 32/32/32
f 30/30/30 14/14/14 11/11/11
f 14/14/14 30/30/30 32/32/32
f 14/14/14 32/32/32 33/33/33
f 24/24/24 33/33/33 26/26/26
f 24/24/24 14/14/14 33/33/33
f 5/5/5 28/28/28 34/34/34
f 4/4/4 5/5/5 34/34/34
f 4/4/4 34/34/34 35/35/35
f 2/2/2 4/4/4 35/35/35
f 2/2/2 35/35/35 36/36/36
f 5/5/5 16/16/16 28/28/28
f 18/18/18 2/2/2 36/36/36
f 18/18/18 36/36/36 20/20/20
f 18/18/18 1/1/1 2/2/2
