#Rock_single_t1(Clone)_37783_175.obj

v -5.0143 1.794521 2.027979
v -5.024636 5.024582 -0.3001966
v -1.79455 5.014266 2.027987
v -1.900204 6.545301 -0.1940628
v 1.900184 6.545311 -0.1940726
v 1.794537 5.014266 2.027987
v 1.901906 1.901875 3.177649
v -1.901925 1.901873 3.177646
v 1.901908 -1.901945 3.177653
v -1.901922 -1.901939 3.17764
v 1.794537 -5.014304 2.02797
v -1.794547 -5.014305 2.02797
v 5.01429 -1.794559 2.027978
v 5.024617 -5.024662 -0.3001867
v 5.014292 1.794532 2.02797
v 5.024619 5.024596 -0.3001917
v -5.014302 -1.79457 2.027987
v -6.545357 1.900173 -0.1940656
v -6.545354 -1.900207 -0.1940664
v -7.740177 2.142207 -2.693384
v -7.740181 -2.142268 -2.693372
v -5.024626 -5.024631 -0.3001846
v -5.771457 -5.771482 -2.72221
v 6.545348 -1.900201 -0.1940704
v 6.545348 1.900178 -0.1940697
v 7.74016 -2.142266 -2.693384
v 7.740163 2.142193 -2.693375
v 5.771442 5.771422 -2.722219
v -1.900204 -6.545385 -0.1940703
v 1.900184 -6.545393 -0.1940596
v -2.142228 -7.740176 -2.693371
v 2.142224 -7.740176 -2.693374
v 5.771447 -5.771444 -2.722216
v 2.142222 7.740146 -2.69337
v -2.142228 7.740162 -2.693388
v -5.77145 5.771429 -2.722207

vn 0.2531738 0.8662109 0.4296875
vn 0.6040039 0.7958984 0.02784729
vn 0.8530273 0.4941406 0.1661377
vn 0.8818359 0.4633789 -0.08288574
vn 0.9863281 0.1345215 -0.09295654
vn 0.9848633 0.07910156 0.1534424
vn 0.703125 -0.09362793 0.7041016
vn 0.5332031 0.4423828 0.7207031
vn 0.03016663 -0.3146973 0.9482422
vn -0.1398926 0.2213135 0.9648438
vn -0.5566406 -0.4267578 0.7124023
vn -0.6879883 -0.01190186 0.7250977
vn 0.09735107 -0.7866211 0.6088867
vn -0.4274902 -0.7558594 0.494873
vn 0.7133789 -0.5844727 0.385498
vn 0.9526367 -0.3029785 -0.005764008
vn -0.362793 0.6640625 0.6533203
vn 0.08251953 0.9731445 0.2145996
vn -0.4404297 0.8012695 0.4042969
vn 0.07348633 0.9829102 0.168457
vn -0.467041 0.8051758 0.364502
vn -0.7763672 0.3430176 0.5283203
vn -0.809082 0.34375 0.4765625
vn 0.1085815 -0.9296875 0.3513184
vn 0.6313477 -0.7578125 0.1616211
vn 0.08837891 -0.9458008 0.3110352
vn 0.6289063 -0.7685547 0.1149292
vn 0.9472656 -0.3122559 -0.06622314
vn -0.8354492 -0.1002808 0.5400391
vn -0.730957 -0.4291992 0.5297852
vn -0.8554688 -0.1002808 0.5078125
vn -0.7480469 -0.4389648 0.4973145
vn -0.454834 -0.7724609 0.4423828
vn 0.9829102 0.1291504 -0.1303711
vn 0.8754883 0.4680176 -0.1200562
vn 0.5932617 0.8041992 -0.03210449

vt 0.1590576 0.6088867
vt 0.02641296 0.9555664
vt 0.3752441 0.831543
vt 0.3171387 1.116211
vt 0.6601563 1.119141
vt 0.6054688 0.8398438
vt 0.6069336 0.612793
vt 0.3837891 0.6098633
vt 0.6157227 0.3896484
vt 0.3925781 0.3867188
vt 0.6245117 0.168335
vt 0.394043 0.1600342
vt 0.8408203 0.3908691
vt 0.9731445 0.04434204
vt 0.8305664 0.6206055
vt 0.9545898 0.972168
vt 0.1691895 0.3789063
vt -0.1202393 0.6621094
vt -0.1161499 0.3190918
vt -0.5874023 0.7973633
vt -0.5874023 0.2025146
vt 0.0453186 0.02761841
vt -0.2856445 -0.2885742
vt 1.120117 0.3374023
vt 1.115234 0.6806641
vt 1.586914 0.2022705
vt 1.586914 0.7973633
vt 1.285156 1.288086
vt 0.3393555 -0.119873
vt 0.6826172 -0.116394
vt 0.2034912 -0.5869141
vt 0.7983398 -0.5874023
vt 1.289063 -0.2861328
vt 0.7963867 1.586914
vt 0.2012939 1.586914
vt -0.2893066 1.286133

g Rock_single_t1(Clone)_37783_175
usemtl Rock_single_t1(Clone)_37783_175
usemap Rock_single_t1(Clone)_37783_175
f 1/1/1 3/3/3 2/2/2
f 4/4/4 2/2/2 3/3/3
f 3/3/3 5/5/5 4/4/4
f 3/3/3 6/6/6 5/5/5
f 7/7/7 6/6/6 3/3/3
f 7/7/7 3/3/3 8/8/8
f 8/8/8 3/3/3 1/1/1
f 9/9/9 7/7/7 8/8/8
f 9/9/9 8/8/8 10/10/10
f 10/10/10 8/8/8 1/1/1
f 11/11/11 9/9/9 10/10/10
f 11/11/11 10/10/10 12/12/12
f 13/13/13 7/7/7 9/9/9
f 9/9/9 11/11/11 13/13/13
f 13/13/13 11/11/11 14/14/14
f 13/13/13 15/15/15 7/7/7
f 7/7/7 15/15/15 6/6/6
f 6/6/6 15/15/15 16/16/16
f 5/5/5 6/6/6 16/16/16
f 10/10/10 17/17/17 12/12/12
f 10/10/10 1/1/1 17/17/17
f 17/17/17 1/1/1 18/18/18
f 17/17/17 18/18/18 19/19/19
f 19/19/19 18/18/18 20/20/20
f 19/19/19 20/20/20 21/21/21
f 22/22/22 12/12/12 17/17/17
f 22/22/22 19/19/19 21/21/21
f 19/19/19 22/22/22 17/17/17
f 22/22/22 21/21/21 23/23/23
f 15/15/15 13/13/13 24/24/24
f 24/24/24 13/13/13 14/14/14
f 15/15/15 24/24/24 25/25/25
f 25/25/25 16/16/16 15/15/15
f 25/25/25 24/24/24 26/26/26
f 25/25/25 26/26/26 27/27/27
f 16/16/16 25/25/25 27/27/27
f 16/16/16 27/27/27 28/28/28
f 29/29/29 22/22/22 23/23/23
f 29/29/29 12/12/12 22/22/22
f 11/11/11 12/12/12 29/29/29
f 11/11/11 29/29/29 30/30/30
f 30/30/30 29/29/29 31/31/31
f 29/29/29 23/23/23 31/31/31
f 30/30/30 31/31/31 32/32/32
f 30/30/30 14/14/14 11/11/11
f 14/14/14 30/30/30 32/32/32
f 14/14/14 32/32/32 33/33/33
f 24/24/24 33/33/33 26/26/26
f 24/24/24 14/14/14 33/33/33
f 5/5/5 28/28/28 34/34/34
f 4/4/4 5/5/5 34/34/34
f 4/4/4 34/34/34 35/35/35
f 2/2/2 4/4/4 35/35/35
f 2/2/2 35/35/35 36/36/36
f 5/5/5 16/16/16 28/28/28
f 18/18/18 2/2/2 36/36/36
f 18/18/18 36/36/36 20/20/20
f 18/18/18 1/1/1 2/2/2
