#Rock_single_t1(Clone)_(2)_34384_347.obj

v -5.014306 1.794532 2.027986
v -5.024617 5.024637 -0.3001938
v -1.79455 5.014286 2.027985
v -1.900184 6.545363 -0.1940675
v 1.900207 6.545366 -0.1940683
v 1.794547 5.014299 2.027981
v 1.90193 1.90193 3.177643
v -1.901916 1.901913 3.177649
v 1.901927 -1.901903 3.177645
v -1.901919 -1.90192 3.177651
v 1.79455 -5.014285 2.02798
v -1.794545 -5.014299 2.027985
v 5.014307 -1.79453 2.027979
v 5.024615 -5.024636 -0.3001848
v 5.014307 1.794554 2.027979
v 5.024615 5.024613 -0.3001855
v -5.014305 -1.794554 2.027987
v -6.545354 1.90019 -0.1940615
v -6.545362 -1.900204 -0.1940587
v -7.74018 2.142217 -2.693374
v -7.740163 -2.14222 -2.693377
v -5.024615 -5.024615 -0.3001924
v -5.771438 -5.771436 -2.722212
v 6.545359 -1.900186 -0.1940645
v 6.545366 1.900209 -0.1940673
v 7.740173 -2.142225 -2.693376
v 7.74016 2.142211 -2.693371
v 5.77145 5.771448 -2.72221
v -1.900202 -6.545362 -0.1940579
v 1.900188 -6.545359 -0.1940587
v -2.142232 -7.740178 -2.693372
v 2.142213 -7.740183 -2.693371
v 5.771449 -5.771447 -2.722208
v 2.142226 7.74017 -2.693377
v -2.142221 7.740177 -2.693379
v -5.771438 5.771459 -2.722214

vn -0.435791 0.840332 -0.3222656
vn -0.08813477 0.7631836 -0.6396484
vn 0.1118774 0.9604492 -0.2541504
vn 0.3522949 0.8012695 -0.4831543
vn 0.6191406 0.7641602 -0.1782227
vn 0.3793945 0.9233398 0.05163574
vn 0.005470276 0.9394531 0.3415527
vn -0.2232666 0.9711914 0.08007813
vn -0.2440186 0.8027344 0.543457
vn -0.4729004 0.8344727 0.2819824
vn -0.4836426 0.4506836 0.75
vn -0.7509766 0.4875488 0.4443359
vn 0.06396484 0.5708008 0.8183594
vn -0.1599121 0.1785889 0.9707031
vn 0.3557129 0.730957 0.5820313
vn 0.7070313 0.6533203 0.2687988
vn -0.7275391 0.6801758 -0.08612061
vn -0.527832 0.6079102 -0.5922852
vn -0.8188477 0.4484863 -0.3571777
vn -0.5244141 0.5561523 -0.644043
vn -0.8330078 0.387207 -0.3945313
vn -0.9550781 0.2883301 0.06207275
vn -0.980957 0.1916504 0.02584839
vn 0.2900391 0.295166 0.9101563
vn 0.5810547 0.4545898 0.6743164
vn 0.3178711 0.2283936 0.9199219
vn 0.6259766 0.3972168 0.6704102
vn 0.777832 0.578125 0.244751
vn -0.8569336 0.1386719 0.4956055
vn -0.590332 0.1018677 0.800293
vn -0.8720703 0.06817627 0.4838867
vn -0.5893555 0.02911377 0.8071289
vn -0.1394043 0.07556152 0.9873047
vn 0.6655273 0.7163086 -0.208252
vn 0.3825684 0.7553711 -0.53125
vn -0.06335449 0.6943359 -0.7163086

vt 0.1590576 0.6088867
vt 0.02641296 0.9555664
vt 0.3752441 0.831543
vt 0.3171387 1.116211
vt 0.6601563 1.119141
vt 0.6054688 0.8398438
vt 0.6069336 0.612793
vt 0.3837891 0.6098633
vt 0.6157227 0.3896484
vt 0.3925781 0.3867188
vt 0.6245117 0.168335
vt 0.394043 0.1600342
vt 0.8408203 0.3908691
vt 0.9731445 0.04434204
vt 0.8305664 0.6206055
vt 0.9545898 0.972168
vt 0.1691895 0.3789063
vt -0.1202393 0.6621094
vt -0.1161499 0.3190918
vt -0.5874023 0.7973633
vt -0.5874023 0.2025146
vt 0.0453186 0.02761841
vt -0.2856445 -0.2885742
vt 1.120117 0.3374023
vt 1.115234 0.6806641
vt 1.586914 0.2022705
vt 1.586914 0.7973633
vt 1.285156 1.288086
vt 0.3393555 -0.119873
vt 0.6826172 -0.116394
vt 0.2034912 -0.5869141
vt 0.7983398 -0.5874023
vt 1.289063 -0.2861328
vt 0.7963867 1.586914
vt 0.2012939 1.586914
vt -0.2893066 1.286133

g Rock_single_t1(Clone)_(2)_34384_347
usemtl Rock_single_t1(Clone)_(2)_34384_347
usemap Rock_single_t1(Clone)_(2)_34384_347
f 1/1/1 3/3/3 2/2/2
f 4/4/4 2/2/2 3/3/3
f 3/3/3 5/5/5 4/4/4
f 3/3/3 6/6/6 5/5/5
f 7/7/7 6/6/6 3/3/3
f 7/7/7 3/3/3 8/8/8
f 8/8/8 3/3/3 1/1/1
f 9/9/9 7/7/7 8/8/8
f 9/9/9 8/8/8 10/10/10
f 10/10/10 8/8/8 1/1/1
f 11/11/11 9/9/9 10/10/10
f 11/11/11 10/10/10 12/12/12
f 13/13/13 7/7/7 9/9/9
f 9/9/9 11/11/11 13/13/13
f 13/13/13 11/11/11 14/14/14
f 13/13/13 15/15/15 7/7/7
f 7/7/7 15/15/15 6/6/6
f 6/6/6 15/15/15 16/16/16
f 5/5/5 6/6/6 16/16/16
f 10/10/10 17/17/17 12/12/12
f 10/10/10 1/1/1 17/17/17
f 17/17/17 1/1/1 18/18/18
f 17/17/17 18/18/18 19/19/19
f 19/19/19 18/18/18 20/20/20
f 19/19/19 20/20/20 21/21/21
f 22/22/22 12/12/12 17/17/17
f 22/22/22 19/19/19 21/21/21
f 19/19/19 22/22/22 17/17/17
f 22/22/22 21/21/21 23/23/23
f 15/15/15 13/13/13 24/24/24
f 24/24/24 13/13/13 14/14/14
f 15/15/15 24/24/24 25/25/25
f 25/25/25 16/16/16 15/15/15
f 25/25/25 24/24/24 26/26/26
f 25/25/25 26/26/26 27/27/27
f 16/16/16 25/25/25 27/27/27
f 16/16/16 27/27/27 28/28/28
f 29/29/29 22/22/22 23/23/23
f 29/29/29 12/12/12 22/22/22
f 11/11/11 12/12/12 29/29/29
f 11/11/11 29/29/29 30/30/30
f 30/30/30 29/29/29 31/31/31
f 29/29/29 23/23/23 31/31/31
f 30/30/30 31/31/31 32/32/32
f 30/30/30 14/14/14 11/11/11
f 14/14/14 30/30/30 32/32/32
f 14/14/14 32/32/32 33/33/33
f 24/24/24 33/33/33 26/26/26
f 24/24/24 14/14/14 33/33/33
f 5/5/5 28/28/28 34/34/34
f 4/4/4 5/5/5 34/34/34
f 4/4/4 34/34/34 35/35/35
f 2/2/2 4/4/4 35/35/35
f 2/2/2 35/35/35 36/36/36
f 5/5/5 16/16/16 28/28/28
f 18/18/18 2/2/2 36/36/36
f 18/18/18 36/36/36 20/20/20
f 18/18/18 1/1/1 2/2/2
