#roof6.006_35141_230.obj

v -15.0667 -14.30288 -50.07612
v 17.29858 -11.78337 -50.07612
v -15.0667 -14.30283 100.1523
v 17.29858 -11.7834 100.1523
v -17.85668 11.36492 -50.07611
v -15.0667 -14.30288 -50.07612
v -17.85668 11.36489 100.1523
v -15.0667 -14.30283 100.1523
v 17.29858 -11.78337 -50.07612
v 15.62463 14.72136 -50.07611
v 17.29858 -11.7834 100.1523
v 15.62462 14.72141 100.1523
v 15.62463 14.72136 -50.07611
v -17.85668 11.36492 -50.07611
v 15.62462 14.72141 100.1523
v -17.85668 11.36489 100.1523

vn -0.006977081 -1.788139E-07 -0.9995117
vn -0.006977081 -1.788139E-07 -0.9995117
vn -0.006977081 -1.788139E-07 -0.9995117
vn -0.006977081 -1.788139E-07 -0.9995117
vn 0.9990234 0 -0.03753662
vn 0.9990234 0 -0.03753662
vn 0.9990234 0 -0.03753662
vn 0.9990234 0 -0.03753662
vn -0.9995117 0 -0.007633209
vn -0.9995117 0 -0.007633209
vn -0.9995117 0 -0.007633209
vn -0.9995117 0 -0.007633209
vn 0.02919006 1.788139E-07 0.9995117
vn 0.02919006 1.788139E-07 0.9995117
vn 0.02919006 1.788139E-07 0.9995117
vn 0.02919006 1.788139E-07 0.9995117

vt 0.7216797 1.004883
vt 0.3366699 1.004883
vt 0.7216797 -1.204102
vt 0.3366699 -1.204102
vt 1.052734 1.004883
vt 0.7617188 1.004883
vt 1.052734 -1.204102
vt 0.7617188 -1.204102
vt 0.3425293 1.004883
vt -5.960464E-08 1.004883
vt 0.3425293 -1.204102
vt 5.960464E-08 -1.204102
vt -5.960464E-08 1.004883
vt -0.4260254 1.004883
vt 5.960464E-08 -1.204102
vt -0.4260254 -1.204102

g roof6.006_35141_230
usemtl roof6.006_35141_230
usemap roof6.006_35141_230
f 1/1/1 3/3/3 2/2/2
f 2/2/2 3/3/3 4/4/4
f 5/5/5 7/7/7 6/6/6
f 6/6/6 7/7/7 8/8/8
f 9/9/9 11/11/11 10/10/10
f 10/10/10 11/11/11 12/12/12
f 13/13/13 15/15/15 14/14/14
f 14/14/14 15/15/15 16/16/16
