#roof1.002_35424_180.obj

v 64.58076 -15.07969 10.40929
v 64.58073 -15.07975 70.44227
v -64.58147 -15.0797 10.40929
v -64.58147 -15.07976 70.44227
v 64.58073 -15.07975 70.44227
v 64.58076 -15.07969 10.40929
v 64.58075 15.07968 70.4423
v 64.58074 15.0797 10.40931
v -64.5815 15.07972 10.40932
v -64.58147 -15.0797 10.40929
v -64.58149 15.07966 70.4423
v -64.58147 -15.07976 70.44227
v 64.58075 15.07968 70.4423
v 64.58074 15.0797 10.40931
v -64.58149 15.07966 70.4423
v -64.5815 15.07972 10.40932

vn -0.9995117 7.092953E-06 -0.01123047
vn -0.9995117 7.092953E-06 -0.01123047
vn -0.9995117 7.092953E-06 -0.01123047
vn -0.9995117 7.092953E-06 -0.01123047
vn -0.01123047 0 0.9995117
vn -0.01123047 0 0.9995117
vn -0.01123047 0 0.9995117
vn -0.01123047 0 0.9995117
vn 0.01123047 0 -0.9995117
vn 0.01123047 0 -0.9995117
vn 0.01123047 0 -0.9995117
vn 0.01123047 0 -0.9995117
vn 0.9995117 -7.092953E-06 0.01123047
vn 0.9995117 -7.092953E-06 0.01123047
vn 0.9995117 -7.092953E-06 0.01123047
vn 0.9995117 -7.092953E-06 0.01123047

vt 0.09124756 0.9995117
vt 0.09124756 -0.03387451
vt 1.910156 0.9995117
vt 1.910156 -0.03387451
vt 0.007385254 -0.03387451
vt 0.007385254 0.9995117
vt -0.4589844 -0.03387451
vt -0.4589844 0.9995117
vt 3.007813 0.9995117
vt 2.541016 0.9995117
vt 3.007813 -0.03387451
vt 2.541016 -0.03387451
vt -0.08825684 -0.03387451
vt -0.08825684 0.9995117
vt -1.900391 -0.03387451
vt -1.900391 0.9995117

g roof1.002_35424_180
usemtl roof1.002_35424_180
usemap roof1.002_35424_180
f 1/1/1 3/3/3 2/2/2
f 2/2/2 3/3/3 4/4/4
f 5/5/5 7/7/7 6/6/6
f 6/6/6 7/7/7 8/8/8
f 9/9/9 11/11/11 10/10/10
f 10/10/10 11/11/11 12/12/12
f 13/13/13 15/15/15 14/14/14
f 14/14/14 15/15/15 16/16/16
