#roof7.002_37630_52.obj

v 3.259751 -9.670004 8.116971
v 0.7308664 -6.733192 8.116944
v 9.776092 -4.303719 8.11697
v 7.247184 -1.366813 8.116943
v -0.1619708 7.21511 8.116865
v -6.655503 1.86747 8.116865
v -2.681987 10.14172 8.116839
v -9.175551 4.794055 8.116838
v 2.646 -10.94809 13.81285
v -0.6614031 -7.107146 13.81282
v 11.16839 -3.929739 13.81285
v 7.860934 -0.08872733 13.81282
v -6.261628 1.437594 13.81275
v 0.1910555 6.76845 13.81275
v 0.377252 -6.259439 13.81282
v 6.846991 -0.948311 13.81282
v 1.246137 7.593285 13.81275
v -7.2762 0.5748664 13.81275
v -2.061289 11.43432 13.81272
v -10.58363 4.415905 13.81272

vn 5.960464E-08 0.9995117 0
vn 5.960464E-08 0.9995117 0
vn 5.960464E-08 0.9995117 0
vn 5.960464E-08 0.9995117 0
vn 5.960464E-08 0.9995117 0
vn 5.960464E-08 0.9995117 0
vn 5.960464E-08 0.9995117 0
vn 5.960464E-08 0.9995117 0
vn 5.960464E-08 0.9995117 0
vn 5.960464E-08 0.9995117 0
vn 5.960464E-08 0.9995117 0
vn 5.960464E-08 0.9995117 0
vn 5.960464E-08 0.9995117 0
vn 5.960464E-08 0.9995117 0
vn 5.960464E-08 0.9995117 0
vn 5.960464E-08 0.9995117 0
vn 5.960464E-08 0.9995117 0
vn 5.960464E-08 0.9995117 0
vn 5.960464E-08 0.9995117 0
vn 5.960464E-08 0.9995117 0

vt 1.37207 4.234375
vt 1.033203 4.242188
vt 1.37207 3.498047
vt 1.033203 3.503906
vt 3.523438 -3.056641
vt 3.523438 -3.792969
vt 3.861328 -3.064453
vt 3.861328 -3.800781
vt -2.146484 4.679688
vt -2.589844 4.6875
vt -2.146484 3.712891
vt -2.589844 3.722656
vt 3.222656 3.140625
vt 2.492188 3.125
vt 3.222656 2.251953
vt 2.492188 2.232422
vt 3.181641 -1.499023
vt 3.181641 -2.464844
vt 3.625 -1.508789
vt 3.625 -2.474609

g roof7.002_37630_52
usemtl roof7.002_37630_52
usemap roof7.002_37630_52
f 1/1/1 3/3/3 2/2/2
f 2/2/2 3/3/3 4/4/4
f 5/5/5 7/7/7 6/6/6
f 6/6/6 7/7/7 8/8/8
f 9/9/9 11/11/11 10/10/10
f 10/10/10 11/11/11 12/12/12
f 13/13/13 15/15/15 14/14/14
f 14/14/14 15/15/15 16/16/16
f 17/17/17 19/19/19 18/18/18
f 18/18/18 19/19/19 20/20/20
