#roof1.002_35424_181.obj

v 60.19774 -12.35109 10.40929
v 60.19778 -12.35106 -23.14649
v 60.19776 12.35108 10.40931
v 60.19775 12.35111 -23.14647
v -60.19841 12.35111 -23.14646
v -60.19842 -12.35102 -23.14649
v -60.1984 12.35108 10.40931
v -60.19841 -12.35104 10.40929
v 60.19776 12.35108 10.40931
v 60.19775 12.35111 -23.14647
v -60.1984 12.35108 10.40931
v -60.19841 12.35111 -23.14646
v -60.19841 -12.35104 10.40929
v -60.19842 -12.35102 -23.14649
v 60.19774 -12.35109 10.40929
v 60.19778 -12.35106 -23.14649

vn -0.01123047 0 0.9995117
vn -0.01123047 0 0.9995117
vn -0.01123047 0 0.9995117
vn -0.01123047 0 0.9995117
vn 0.01123047 0 -0.9995117
vn 0.01123047 0 -0.9995117
vn 0.01123047 0 -0.9995117
vn 0.01123047 0 -0.9995117
vn 0.9995117 -7.092953E-06 0.01123047
vn 0.9995117 -7.092953E-06 0.01123047
vn 0.9995117 -7.092953E-06 0.01123047
vn 0.9995117 -7.092953E-06 0.01123047
vn -0.9995117 7.092953E-06 -0.01123047
vn -0.9995117 7.092953E-06 -0.01123047
vn -0.9995117 7.092953E-06 -0.01123047
vn -0.9995117 7.092953E-06 -0.01123047

vt 0.2053223 5.269051E-05
vt 0.2053223 0.9990234
vt -0.2073975 5.26309E-05
vt -0.2073975 0.9990234
vt 2.775391 0.9990234
vt 2.363281 0.9990234
vt 2.775391 5.310774E-05
vt 2.363281 5.304813E-05
vt 0.005302429 5.26309E-05
vt 0.005302429 0.9990234
vt -2.005859 5.227327E-05
vt -2.005859 0.9990234
vt 2.011719 5.304813E-05
vt 2.011719 0.9990234
vt 5.275011E-05 5.269051E-05
vt 5.275011E-05 0.9990234

g roof1.002_35424_181
usemtl roof1.002_35424_181
usemap roof1.002_35424_181
f 1/1/1 3/3/3 2/2/2
f 2/2/2 3/3/3 4/4/4
f 5/5/5 7/7/7 6/6/6
f 6/6/6 7/7/7 8/8/8
f 9/9/9 11/11/11 10/10/10
f 10/10/10 11/11/11 12/12/12
f 13/13/13 15/15/15 14/14/14
f 14/14/14 15/15/15 16/16/16
