#roof7.007_36940_3.obj

v 3.259807 -9.670043 8.116965
v 0.7308979 -6.733138 8.11694
v 9.776122 -4.303659 8.116967
v 7.247175 -1.366843 8.11694
v -0.1619248 7.215073 8.116867
v -6.655421 1.867455 8.116865
v -2.681937 10.14175 8.11684
v -9.175528 4.794106 8.116842
v 2.646024 -10.94816 13.81285
v -0.6614376 -7.10715 13.81282
v 11.16839 -3.929707 13.81285
v 7.860957 -0.08872924 13.81282
v -6.261612 1.437523 13.81275
v 0.1910458 6.768478 13.81275
v 0.3773112 -6.259419 13.81282
v 6.847042 -0.9483468 13.81282
v 1.246155 7.593281 13.81275
v -7.276174 0.5749166 13.81275
v -2.061279 11.43426 13.81272
v -10.58358 4.415861 13.81272

vn -5.960464E-08 1 -1.192093E-07
vn -5.960464E-08 1 -1.192093E-07
vn -5.960464E-08 1 -1.192093E-07
vn -5.960464E-08 1 -1.192093E-07
vn -5.960464E-08 1 -1.192093E-07
vn -5.960464E-08 1 -1.192093E-07
vn -5.960464E-08 1 -1.192093E-07
vn -5.960464E-08 1 -1.192093E-07
vn -5.960464E-08 1 -1.192093E-07
vn -5.960464E-08 1 -1.192093E-07
vn -5.960464E-08 1 -1.192093E-07
vn -5.960464E-08 1 -1.192093E-07
vn -5.960464E-08 1 -1.192093E-07
vn -5.960464E-08 1 -1.192093E-07
vn -5.960464E-08 1 -1.192093E-07
vn -5.960464E-08 1 -1.192093E-07
vn -5.960464E-08 1 -1.192093E-07
vn -5.960464E-08 1 -1.192093E-07
vn -5.960464E-08 1 -1.192093E-07
vn -5.960464E-08 1 -1.192093E-07

vt 1.37207 4.234375
vt 1.033203 4.242188
vt 1.37207 3.498047
vt 1.033203 3.503906
vt 3.523438 -3.056641
vt 3.523438 -3.792969
vt 3.861328 -3.064453
vt 3.861328 -3.800781
vt -2.146484 4.679688
vt -2.589844 4.6875
vt -2.146484 3.712891
vt -2.589844 3.722656
vt 3.222656 3.140625
vt 2.492188 3.125
vt 3.222656 2.251953
vt 2.492188 2.232422
vt 3.181641 -1.499023
vt 3.181641 -2.464844
vt 3.625 -1.508789
vt 3.625 -2.474609

g roof7.007_36940_6
usemtl roof7.007_36940_6
usemap roof7.007_36940_6
f 1/1/1 3/3/3 2/2/2
f 2/2/2 3/3/3 4/4/4
f 5/5/5 7/7/7 6/6/6
f 6/6/6 7/7/7 8/8/8
f 9/9/9 11/11/11 10/10/10
f 10/10/10 11/11/11 12/12/12
f 13/13/13 15/15/15 14/14/14
f 14/14/14 15/15/15 16/16/16
f 17/17/17 19/19/19 18/18/18
f 18/18/18 19/19/19 20/20/20
