#roof7.000_33021_62.obj

v 3.259753 -9.670032 8.116968
v 0.7308438 -6.733153 8.116941
v 9.776065 -4.303662 8.116969
v 7.247186 -1.366815 8.116943
v -0.161937 7.215106 8.116864
v -6.655478 1.867457 8.116865
v -2.682008 10.14175 8.11684
v -9.175554 4.794097 8.116839
v 2.646018 -10.9481 13.81285
v -0.6614242 -7.107129 13.81282
v 11.16836 -3.92972 13.81285
v 7.860941 -0.08872756 13.81282
v -6.261617 1.43757 13.81275
v 0.1910396 6.768464 13.81275
v 0.3772679 -6.259419 13.81282
v 6.847041 -0.9483316 13.81282
v 1.246127 7.593285 13.81275
v -7.276219 0.5749018 13.81275
v -2.061272 11.4343 13.81272
v -10.58359 4.415884 13.81272

vn 0 0.9995117 -1.192093E-07
vn 0 0.9995117 -1.192093E-07
vn 0 0.9995117 -1.192093E-07
vn 0 0.9995117 -1.192093E-07
vn 0 0.9995117 -1.192093E-07
vn 0 0.9995117 -1.192093E-07
vn 0 0.9995117 -1.192093E-07
vn 0 0.9995117 -1.192093E-07
vn 0 0.9995117 -1.192093E-07
vn 0 0.9995117 -1.192093E-07
vn 0 0.9995117 -1.192093E-07
vn 0 0.9995117 -1.192093E-07
vn 0 0.9995117 -1.192093E-07
vn 0 0.9995117 -1.192093E-07
vn 0 0.9995117 -1.192093E-07
vn 0 0.9995117 -1.192093E-07
vn 0 0.9995117 -1.192093E-07
vn 0 0.9995117 -1.192093E-07
vn 0 0.9995117 -1.192093E-07
vn 0 0.9995117 -1.192093E-07

vt 1.37207 4.234375
vt 1.033203 4.242188
vt 1.37207 3.498047
vt 1.033203 3.503906
vt 3.523438 -3.056641
vt 3.523438 -3.792969
vt 3.861328 -3.064453
vt 3.861328 -3.800781
vt -2.146484 4.679688
vt -2.589844 4.6875
vt -2.146484 3.712891
vt -2.589844 3.722656
vt 3.222656 3.140625
vt 2.492188 3.125
vt 3.222656 2.251953
vt 2.492188 2.232422
vt 3.181641 -1.499023
vt 3.181641 -2.464844
vt 3.625 -1.508789
vt 3.625 -2.474609

g roof7.000_33021_62
usemtl roof7.000_33021_62
usemap roof7.000_33021_62
f 1/1/1 3/3/3 2/2/2
f 2/2/2 3/3/3 4/4/4
f 5/5/5 7/7/7 6/6/6
f 6/6/6 7/7/7 8/8/8
f 9/9/9 11/11/11 10/10/10
f 10/10/10 11/11/11 12/12/12
f 13/13/13 15/15/15 14/14/14
f 14/14/14 15/15/15 16/16/16
f 17/17/17 19/19/19 18/18/18
f 18/18/18 19/19/19 20/20/20
