#roof1.006_38137_194.obj

v 60.19775 -12.3511 -23.14647
v -60.19842 12.35111 -23.14648
v 60.19775 12.3511 -23.14648
v -60.19843 -12.35109 -23.14647
v 64.58074 -15.07971 10.4093
v -64.58147 15.07971 10.4093
v 64.58073 15.07976 10.4093
v -64.58148 -15.07967 10.4093

vn 0 1 1.192093E-07
vn 0 1 1.192093E-07
vn 0 1 1.192093E-07
vn 0 1 1.192093E-07
vn 0 1 1.192093E-07
vn 0 1 1.192093E-07
vn 0 1 1.192093E-07
vn 0 1 1.192093E-07

vt -1.475586 4.0625
vt 0.2819824 -3.621094
vt 0.2819824 4.0625
vt -1.475586 -3.621094
vt -1.475586 -3.621094
vt -3.621094 4.621094
vt -3.621094 -3.621094
vt -1.475586 4.621094

g roof1.006_38137_194
usemtl roof1.006_38137_194
usemap roof1.006_38137_194
f 1/1/1 3/3/3 2/2/2
f 4/4/4 1/1/1 2/2/2
f 5/5/5 7/7/7 6/6/6
f 8/8/8 5/5/5 6/6/6
