#t30.008_38113_525.obj

v 23.20104 -26.61954 -19.59459
v 22.438 18.71114 -19.59467
v 53.71064 17.91817 -19.59467
v 53.50922 -27.3881 -19.59459
v 70.26589 18.41072 -19.59467
v 69.55396 -26.91068 -19.59459
v 85.59863 -26.43301 -19.59459
v 86.82123 18.90364 -19.59467
v 103.3766 19.39607 -19.59467
v 101.6434 -25.95572 -19.59459
v -76.87 -16.15787 -19.5946
v -80.81741 29.50581 -19.59469
v -61.03721 24.9018 -19.59468
v -98.8391 31.50581 -19.59469
v -80.81741 29.50581 -19.59469
v -94.33578 -14.21965 -19.59461
v -76.87 -16.15787 -19.5946
v -38.40814 -20.21843 -19.5946
v -57.69975 -20.61992 -19.5946
v -41.13169 25.31611 -19.59468
v -61.03721 24.9018 -19.59468

vn -9.536743E-07 1 0
vn -9.536743E-07 1 0
vn -9.536743E-07 1 0
vn -9.536743E-07 1 0
vn -9.536743E-07 1 0
vn -9.536743E-07 1 0
vn -9.536743E-07 1 0
vn -9.536743E-07 1 0
vn -9.536743E-07 1 0
vn -9.536743E-07 1 0
vn -9.536743E-07 1 0
vn -9.536743E-07 1 0
vn -9.536743E-07 1 0
vn -9.536743E-07 1 0
vn -9.536743E-07 1 0
vn -9.536743E-07 1 0
vn -9.536743E-07 1 0
vn -9.536743E-07 1 0
vn -9.536743E-07 1 0
vn -9.536743E-07 1 0
vn -9.536743E-07 1 0

vt 3.527344 2.365234
vt 3.511719 0.6689453
vt 4.683594 0.7084961
vt 4.660156 2.402344
vt 5.300781 0.6953125
vt 5.261719 2.390625
vt 5.859375 2.376953
vt 5.921875 0.6821289
vt 6.542969 0.6689453
vt 6.460938 2.365234
vt 0.02467346 -0.1292725
vt 0.3820801 1.003906
vt -0.1292725 1.003906
vt 5.140625 -3.884766
vt 5.144531 -4.5625
vt 6.824219 -4.234375
vt 6.828125 -4.890625
vt 6.824219 -6.339844
vt 6.917969 -5.621094
vt 5.140625 -6.054688
vt 5.234375 -5.316406

g t30.008_38113_525
usemtl t30.008_38113_525
usemap t30.008_38113_525
f 1/1/1 3/3/3 2/2/2
f 4/4/4 3/3/3 1/1/1
f 4/4/4 5/5/5 3/3/3
f 6/6/6 5/5/5 4/4/4
f 7/7/7 5/5/5 6/6/6
f 8/8/8 5/5/5 7/7/7
f 9/9/9 8/8/8 10/10/10
f 10/10/10 8/8/8 7/7/7
f 11/11/11 13/13/13 12/12/12
f 14/14/14 16/16/16 15/15/15
f 15/15/15 16/16/16 17/17/17
f 18/18/18 20/20/20 19/19/19
f 20/20/20 21/21/21 19/19/19
f 19/19/19 21/21/21 17/17/17
