#Terrain_Main.009_36457_560.obj

v -794.7756 495.6754 -7.034728
v -818.6422 489.3933 -7.034727
v -826.4046 540.482 -32.3599
v -794.7613 552.0562 -32.79018
v -611.8408 495.1594 -7.034681
v -611.9318 551.0729 -32.75755
v -428.9059 494.6433 -7.034635
v -429.1023 550.0895 -32.72492
v -245.9711 494.1273 -7.034588
v -246.2729 549.1061 -32.69228
v -63.03625 493.6113 -7.034541
v -63.4435 548.1228 -32.65965
v 119.8986 493.0952 -7.034495
v 119.3859 547.1395 -32.62702
v 139.25 488.7483 -7.034496
v 140.1623 539.0628 -32.22329
v 153.441 484.8781 -7.034496
v 159.3425 494.427 -33.14954

vn 0.04275513 0.965332 0.2565918
vn 0.2208252 0.9453125 0.239624
vn 0.2751465 0.8569336 0.4355469
vn 0.05575562 0.90625 0.4182129
vn -0.002134323 0.9731445 0.2293701
vn -0.001616478 0.9082031 0.4177246
vn -0.0007929802 0.9741211 0.2243652
vn -0.001616478 0.9072266 0.420166
vn -0.0008540154 0.9736328 0.2265625
vn -0.001646996 0.9057617 0.4228516
vn -0.0007929802 0.9726563 0.2320557
vn -0.001646996 0.9047852 0.425293
vn -0.03793335 0.9697266 0.239502
vn -0.05554199 0.9003906 0.4304199
vn -0.2365723 0.9394531 0.24646
vn -0.269043 0.8500977 0.4519043
vn -0.4487305 0.8222656 0.3493652
vn -0.6850586 0.5048828 0.5244141

vt 3.566406 17.625
vt 3.554688 18.57813
vt 5.742188 18.39063
vt 5.875 17.10938
vt 2.025391 10.82031
vt 4.316406 10.3125
vt 0.4836426 4.011719
vt 2.761719 3.511719
vt -1.057617 -2.796875
vt 1.204102 -3.291016
vt -2.599609 -9.609375
vt -0.3530273 -10.09375
vt -4.140625 -16.42188
vt -1.910156 -16.89063
vt -4.449219 -17.10938
vt -2.363281 -17.60938
vt -4.816406 -17.53125
vt -4.074219 -18.32813

g Terrain_Main.009_36457_560
usemtl Terrain_Main.009_36457_560
usemap Terrain_Main.009_36457_560
f 1/1/1 3/3/3 2/2/2
f 1/1/1 4/4/4 3/3/3
f 5/5/5 4/4/4 1/1/1
f 5/5/5 6/6/6 4/4/4
f 7/7/7 6/6/6 5/5/5
f 7/7/7 8/8/8 6/6/6
f 9/9/9 8/8/8 7/7/7
f 9/9/9 10/10/10 8/8/8
f 11/11/11 10/10/10 9/9/9
f 11/11/11 12/12/12 10/10/10
f 13/13/13 12/12/12 11/11/11
f 13/13/13 14/14/14 12/12/12
f 15/15/15 14/14/14 13/13/13
f 15/15/15 16/16/16 14/14/14
f 17/17/17 16/16/16 15/15/15
f 17/17/17 18/18/18 16/16/16
