#Terrain_Main.008_34653_414.obj

v -275.9144 -404.2628 -6.911318
v -275.8038 -415.6785 -6.911318
v -284.2176 -415.6785 -6.911318
v -276.3167 -404.2857 -6.911318
v -282.1259 -403.585 -6.911318
v -283.9061 -402.9094 -6.911318

vn 0 0.9995117 1.192093E-07
vn 0 0.9995117 1.192093E-07
vn 0 0.9995117 1.192093E-07
vn 0 0.9995117 1.192093E-07
vn 0 0.9995117 1.192093E-07
vn 0 0.9995117 1.192093E-07

vt 68 11.92969
vt 68.0625 8.3125
vt 65.375 8.3125
vt 67.875 11.92188
vt 66.0625 12.14844
vt 65.5 12.35938

g Terrain_Main.008_34653_414
usemtl Terrain_Main.008_34653_414
usemap Terrain_Main.008_34653_414
f 1/1/1 3/3/3 2/2/2
f 3/3/3 1/1/1 4/4/4
f 3/3/3 4/4/4 5/5/5
f 3/3/3 5/5/5 6/6/6
