#Trash_t1(Clone)_33569_707.obj

v -1.632601 0.9405198 -1.209221
v 0.02913325 1.467619 -1.209244
v -0.9632317 1.218305 -0.7491645
v -1.63257 0.9405198 -0.03343091
v -0.9847378 1.184039 0.721622
v -1.632572 0.7898188 1.142411
v -0.02726666 0.8514555 1.115833
v 1.008485 1.329061 0.6368309
v 1.578006 1.204604 1.089306
v 1.634436 1.142967 -0.05997992
v 0.9514832 1.517222 -0.6174966
v 1.690867 1.467619 -1.209266
v 0.02062474 1.718928 -0.02563858

vn -0.3242188 0.9335938 0.1508789
vn -0.08331299 0.9838867 0.1555176
vn -0.3154297 0.9414063 0.1176758
vn -0.3137207 0.9169922 0.2452393
vn 0.0005550385 0.8901367 0.4550781
vn -0.05621338 0.8813477 0.4682617
vn 0.3132324 0.7583008 0.5712891
vn 0.2420654 0.9492188 0.1992188
vn 0.1546631 0.9785156 0.1361084
vn 0.3498535 0.9335938 -0.07250977
vn 0.1387939 0.9887695 -0.04867554
vn 0.2053223 0.9785156 0.01457214
vn -0.04898071 0.9941406 0.09155273

vt 0.8378906 0.04223633
vt 0.9155273 0.5209961
vt 0.690918 0.2734375
vt 0.4731445 0.03601074
vt 0.277832 0.2902832
vt 0.1149902 0.09185791
vt 0.1110229 0.5527344
vt 0.34375 0.8017578
vt 0.1772461 1.005859
vt 0.5283203 1.058594
vt 0.6577148 0.7592773
vt 0.8818359 1.00293
vt 0.503418 0.5488281

g Trash_t1(Clone)_33569_707
usemtl Trash_t1(Clone)_33569_707
usemap Trash_t1(Clone)_33569_707
f 1/1/1 3/3/3 2/2/2
f 4/4/4 3/3/3 1/1/1
f 5/5/5 3/3/3 4/4/4
f 6/6/6 5/5/5 4/4/4
f 7/7/7 5/5/5 6/6/6
f 8/8/8 5/5/5 7/7/7
f 9/9/9 8/8/8 7/7/7
f 10/10/10 8/8/8 9/9/9
f 11/11/11 8/8/8 10/10/10
f 3/3/3 11/11/11 2/2/2
f 12/12/12 11/11/11 10/10/10
f 2/2/2 11/11/11 12/12/12
f 11/11/11 13/13/13 8/8/8
f 8/8/8 13/13/13 5/5/5
f 5/5/5 13/13/13 3/3/3
f 3/3/3 13/13/13 11/11/11
