#Trash_t1(Clone)_34375_713.obj

v -1.632594 0.9405198 -1.209274
v 0.02915138 1.467619 -1.209261
v -0.96319 1.218305 -0.7491997
v -1.632597 0.9405198 -0.03341818
v -0.9847736 1.184039 0.7215885
v -1.632596 0.7898188 1.142377
v -0.02728067 0.8514555 1.115832
v 1.008476 1.329061 0.6368323
v 1.578033 1.204604 1.089348
v 1.634465 1.142967 -0.0599498
v 0.9515066 1.517222 -0.617449
v 1.690897 1.467619 -1.209247
v 0.02061163 1.718928 -0.02568061

vn -0.3564453 0.9335938 -0.03149414
vn -0.1499023 0.9838867 0.09301758
vn -0.3320313 0.9414063 -0.05584717
vn -0.3942871 0.9169922 0.05554199
vn -0.2270508 0.8901367 0.3942871
vn -0.2827148 0.8813477 0.3774414
vn -0.01450348 0.7583008 0.6513672
vn 0.1099854 0.9492188 0.2937012
vn 0.06591797 0.9785156 0.1951904
vn 0.3393555 0.9335938 0.1121826
vn 0.1445313 0.9887695 0.02723694
vn 0.1705322 0.9785156 0.1152954
vn -0.0881958 0.9941406 0.05477905

vt 0.8378906 0.04223633
vt 0.9155273 0.5209961
vt 0.690918 0.2734375
vt 0.4731445 0.03601074
vt 0.277832 0.2902832
vt 0.1149902 0.09185791
vt 0.1110229 0.5527344
vt 0.34375 0.8017578
vt 0.1772461 1.005859
vt 0.5283203 1.058594
vt 0.6577148 0.7592773
vt 0.8818359 1.00293
vt 0.503418 0.5488281

g Trash_t1(Clone)_34375_713
usemtl Trash_t1(Clone)_34375_713
usemap Trash_t1(Clone)_34375_713
f 1/1/1 3/3/3 2/2/2
f 4/4/4 3/3/3 1/1/1
f 5/5/5 3/3/3 4/4/4
f 6/6/6 5/5/5 4/4/4
f 7/7/7 5/5/5 6/6/6
f 8/8/8 5/5/5 7/7/7
f 9/9/9 8/8/8 7/7/7
f 10/10/10 8/8/8 9/9/9
f 11/11/11 8/8/8 10/10/10
f 3/3/3 11/11/11 2/2/2
f 12/12/12 11/11/11 10/10/10
f 2/2/2 11/11/11 12/12/12
f 11/11/11 13/13/13 8/8/8
f 8/8/8 13/13/13 5/5/5
f 5/5/5 13/13/13 3/3/3
f 3/3/3 13/13/13 11/11/11
