#Trash_t1(Clone)_35968_800.obj

v -1.632598 0.9405198 -1.209254
v 0.02915359 1.467619 -1.209253
v -0.9631882 1.218305 -0.7491965
v -1.632594 0.9405198 -0.03345035
v -0.9847742 1.184039 0.7215912
v -1.632598 0.7898188 1.142353
v -0.02728173 0.8514555 1.115861
v 1.008475 1.329061 0.6368057
v 1.578034 1.204604 1.08937
v 1.634466 1.142967 -0.05994139
v 0.9515098 1.517222 -0.6174642
v 1.690897 1.467619 -1.209253
v 0.02060993 1.718928 -0.02568642

vn -0.3549805 0.9335938 -0.04370117
vn -0.1530762 0.9838867 0.08782959
vn -0.329834 0.9414063 -0.06719971
vn -0.3959961 0.9169922 0.04199219
vn -0.2403564 0.8901367 0.3862305
vn -0.2956543 0.8813477 0.3674316
vn -0.03683472 0.7583008 0.6503906
vn 0.09985352 0.9492188 0.2971191
vn 0.0592041 0.9785156 0.1973877
vn 0.3352051 0.9335938 0.1237793
vn 0.1434326 0.9887695 0.03216553
vn 0.1665039 0.9785156 0.1210938
vn -0.09002686 0.9941406 0.05172729

vt 0.8378906 0.04223633
vt 0.9155273 0.5209961
vt 0.690918 0.2734375
vt 0.4731445 0.03601074
vt 0.277832 0.2902832
vt 0.1149902 0.09185791
vt 0.1110229 0.5527344
vt 0.34375 0.8017578
vt 0.1772461 1.005859
vt 0.5283203 1.058594
vt 0.6577148 0.7592773
vt 0.8818359 1.00293
vt 0.503418 0.5488281

g Trash_t1(Clone)_35968_800
usemtl Trash_t1(Clone)_35968_800
usemap Trash_t1(Clone)_35968_800
f 1/1/1 3/3/3 2/2/2
f 4/4/4 3/3/3 1/1/1
f 5/5/5 3/3/3 4/4/4
f 6/6/6 5/5/5 4/4/4
f 7/7/7 5/5/5 6/6/6
f 8/8/8 5/5/5 7/7/7
f 9/9/9 8/8/8 7/7/7
f 10/10/10 8/8/8 9/9/9
f 11/11/11 8/8/8 10/10/10
f 3/3/3 11/11/11 2/2/2
f 12/12/12 11/11/11 10/10/10
f 2/2/2 11/11/11 12/12/12
f 11/11/11 13/13/13 8/8/8
f 8/8/8 13/13/13 5/5/5
f 5/5/5 13/13/13 3/3/3
f 3/3/3 13/13/13 11/11/11
