#bild195.001_34482_31.obj

v -1.633228 14.50811 3.046717
v -12.76037 5.105668 3.768636
v -12.76037 5.105669 3.046718
v -1.633228 14.50811 3.768635
v 3.091852 -13.30401 3.046882
v 14.21894 -3.901556 3.768799
v 14.21894 -3.901556 3.046881
v 3.091852 -13.30401 3.768801
v 2.895979 9.248195 3.046762
v -1.633228 14.50811 3.768635
v -1.633228 14.50811 3.046717
v 2.895979 9.248194 3.768682
v 9.689749 1.358344 3.046834
v 9.689749 1.358344 3.768753
v 14.21894 -3.901556 3.046881
v 14.21894 -3.901556 3.768799
v -1.843267 15.74443 3.046709
v -12.76037 5.105669 3.046718
v -13.95965 5.506056 3.046712
v 3.088574 10.01687 3.046761
v -1.633228 14.50811 3.046717
v 2.895979 9.248195 3.046762
v 9.689749 1.358344 3.046834
v 10.48633 1.425577 3.046837
v 14.21894 -3.901556 3.046881
v 15.41821 -4.301938 3.046888
v 3.301887 -14.54032 3.046891
v -9.027736 -0.2214943 3.046762
v -8.231082 -0.1542505 3.046765
v -1.629963 -8.812799 3.046839
v -1.437312 -8.044101 3.046835
v 3.091852 -13.30401 3.046882
v -1.843267 15.74443 3.768627
v -13.95965 5.506056 3.046712
v -13.95965 5.506055 3.76863
v -1.843267 15.74443 3.046709
v 3.301887 -14.54032 3.768809
v 15.41821 -4.301938 3.046888
v 15.41821 -4.301938 3.768807
v 3.301887 -14.54032 3.046891
v -1.843267 15.74443 3.768627
v 3.088574 10.01687 3.046761
v -1.843267 15.74443 3.046709
v 3.088574 10.01687 3.768678
v 10.48633 1.425577 3.046837
v 10.48633 1.425577 3.768755
v 15.41821 -4.301938 3.046888
v 15.41821 -4.301938 3.768807
v -13.95965 5.506056 3.046712
v -9.027736 -0.2214943 3.046762
v -13.95965 5.506055 3.76863
v -9.027736 -0.2214944 3.768681
v -1.629963 -8.812799 3.046839
v -1.629963 -8.8128 3.768758
v 3.301887 -14.54032 3.046891
v 3.301887 -14.54032 3.768809
v -13.19413 5.25049 3.768635
v -1.843267 15.74443 3.768627
v -13.95965 5.506055 3.76863
v -1.709232 14.95529 3.768632
v 3.088574 10.01687 3.768678
v 2.965621 9.526257 3.76868
v 9.97788 1.382667 3.768753
v 10.48633 1.425577 3.768755
v 14.65271 -4.04639 3.768802
v 15.41821 -4.301938 3.768807
v 3.301887 -14.54032 3.768809
v -9.027736 -0.2214944 3.768681
v -8.519283 -0.1785836 3.768682
v -1.629963 -8.8128 3.768758
v -1.507007 -8.322148 3.768756
v 3.167823 -13.7512 3.768804
v 3.091852 -13.30401 3.046882
v -1.437312 -8.044101 3.768755
v 3.091852 -13.30401 3.768801
v -1.437312 -8.044101 3.046835
v -8.231082 -0.1542506 3.768683
v -8.231082 -0.1542505 3.046765
v -12.76037 5.105668 3.768636
v -12.76037 5.105669 3.046718

vn -0.003435135 -2.384186E-07 -0.9995117
vn -0.003435135 -2.384186E-07 -0.9995117
vn -0.003433228 -2.384186E-07 -0.9995117
vn -0.003435135 -2.384186E-07 -0.9995117
vn 0.003437042 2.384186E-07 0.9995117
vn 0.003437042 2.384186E-07 0.9995117
vn 0.003437042 2.384186E-07 0.9995117
vn 0.003437042 2.384186E-07 0.9995117
vn 0.9995117 -1.788139E-07 -0.01273346
vn 0.9995117 -1.788139E-07 -0.01274109
vn 0.9995117 -1.788139E-07 -0.01274109
vn 0.9995117 -1.788139E-07 -0.01273346
vn 0.9995117 -1.788139E-07 -0.01274109
vn 0.9995117 -1.788139E-07 -0.01274109
vn 0.9995117 -1.788139E-07 -0.01274109
vn 0.9995117 -1.788139E-07 -0.01274109
vn 5.960464E-08 0.9995117 0
vn 5.960464E-08 0.9995117 0
vn 5.960464E-08 0.9995117 0
vn 5.960464E-08 0.9995117 0
vn 5.960464E-08 0.9995117 0
vn 5.960464E-08 0.9995117 0
vn 5.960464E-08 0.9995117 0
vn 5.960464E-08 0.9995117 0
vn 5.960464E-08 0.9995117 0
vn 5.960464E-08 0.9995117 0
vn 5.960464E-08 0.9995117 0
vn 5.960464E-08 0.9995117 0
vn 5.960464E-08 0.9995117 0
vn 5.960464E-08 0.9995117 0
vn 5.960464E-08 0.9995117 0
vn 5.960464E-08 0.9995117 0
vn 0.003435135 2.384186E-07 0.9995117
vn 0.003435135 2.384186E-07 0.9995117
vn 0.003435135 2.384186E-07 0.9995117
vn 0.003435135 2.384186E-07 0.9995117
vn -0.003437042 -2.384186E-07 -0.9995117
vn -0.003437042 -2.384186E-07 -0.9995117
vn -0.003437042 -2.384186E-07 -0.9995117
vn -0.003437042 -2.384186E-07 -0.9995117
vn -0.9995117 1.788139E-07 0.01273346
vn -0.9995117 1.788139E-07 0.01273346
vn -0.9995117 1.788139E-07 0.01273346
vn -0.9995117 1.788139E-07 0.01273346
vn -0.9995117 1.788139E-07 0.01274109
vn -0.9995117 1.788139E-07 0.01274109
vn -0.9995117 1.788139E-07 0.01274109
vn -0.9995117 1.788139E-07 0.01274109
vn 0.9995117 -1.788139E-07 -0.01274109
vn 0.9995117 -1.788139E-07 -0.01274109
vn 0.9995117 -1.788139E-07 -0.01274109
vn 0.9995117 -1.788139E-07 -0.01274109
vn 0.9995117 -1.788139E-07 -0.01273346
vn 0.9995117 -1.788139E-07 -0.01273346
vn 0.9995117 -1.788139E-07 -0.01273346
vn 0.9995117 -1.788139E-07 -0.01273346
vn -5.960464E-08 -0.9995117 0
vn -5.960464E-08 -0.9995117 0
vn -5.960464E-08 -0.9995117 0
vn -5.960464E-08 -0.9995117 0
vn -5.960464E-08 -0.9995117 0
vn -5.960464E-08 -0.9995117 0
vn -5.960464E-08 -0.9995117 0
vn -5.960464E-08 -0.9995117 0
vn -5.960464E-08 -0.9995117 0
vn -5.960464E-08 -0.9995117 0
vn -5.960464E-08 -0.9995117 0
vn -5.960464E-08 -0.9995117 0
vn -5.960464E-08 -0.9995117 0
vn -5.960464E-08 -0.9995117 0
vn -5.960464E-08 -0.9995117 0
vn -5.960464E-08 -0.9995117 0
vn -0.9995117 1.788139E-07 0.01274109
vn -0.9995117 1.788139E-07 0.01273346
vn -0.9995117 1.788139E-07 0.01274109
vn -0.9995117 1.788139E-07 0.01273346
vn -0.9995117 1.788139E-07 0.01274109
vn -0.9995117 1.788139E-07 0.01274109
vn -0.9995117 1.788139E-07 0.01274872
vn -0.9995117 1.788139E-07 0.01274872

vt 4.621094 4.554688
vt 4.53125 2.835938
vt 4.621094 2.835938
vt 4.53125 4.554688
vt 4.53125 4.640625
vt 4.441406 2.835938
vt 4.53125 2.835938
vt 4.441406 4.636719
vt 4.277344 0.9013672
vt 4.367188 1.758789
vt 4.277344 1.758789
vt 4.367188 0.9013672
vt 4.277344 -0.3850098
vt 4.367188 -0.3850098
vt 4.277344 -1.243164
vt 4.367188 -1.242188
vt -1.463867 -3.798828
vt -3.347656 -3.683594
vt -3.427734 -3.818359
vt -1.463867 -2.861328
vt -1.543945 -3.666016
vt -1.543945 -2.804688
vt -1.543945 -1.515625
vt -1.463867 -1.457031
vt -1.543945 -0.6547852
vt -1.463867 -0.5205078
vt -3.427734 -0.5385742
vt -3.427734 -2.880859
vt -3.347656 -2.822266
vt -3.427734 -1.475586
vt -3.347656 -1.532227
vt -3.347656 -0.671875
vt 4.457031 -1.243164
vt 4.542969 0.7207031
vt 4.457031 0.7207031
vt 4.542969 -1.242188
vt 4.542969 -1.243164
vt 4.632813 0.6279297
vt 4.542969 0.6279297
vt 4.632813 -1.242188
vt -2.138672 4.277344
vt -2.048828 3.392578
vt -2.048828 4.277344
vt -2.138672 3.390625
vt -2.048828 2.0625
vt -2.138672 2.060547
vt -2.048828 1.175781
vt -2.138672 1.175781
vt 4.277344 -1.242188
vt 4.277344 -0.3088379
vt 4.1875 -1.243164
vt 4.1875 -0.3088379
vt 4.277344 1.091797
vt 4.1875 1.091797
vt 4.277344 2.025391
vt 4.1875 2.025391
vt -1.413086 -0.6064453
vt 0.4995117 -0.5385742
vt -1.463867 -0.5205078
vt 0.4482422 -0.6235352
vt 0.4995117 -1.475586
vt 0.4482422 -1.511719
vt 0.4482422 -2.84375
vt 0.4995117 -2.880859
vt 0.4482422 -3.732422
vt 0.4995117 -3.818359
vt -1.463867 -3.798828
vt -1.463867 -1.457031
vt -1.413086 -1.494141
vt -1.463867 -2.861328
vt -1.413086 -2.826172
vt -1.413086 -3.714844
vt 4.367188 1.605469
vt 4.457031 0.7924805
vt 4.457031 1.606445
vt 4.367188 0.7915039
vt 4.457031 -0.4282227
vt 4.367188 -0.4289551
vt 4.457031 -1.242188
vt 4.367188 -1.243164

g bild195.001_34482_31
usemtl bild195.001_34482_31
usemap bild195.001_34482_31
f 1/1/1 3/3/3 2/2/2
f 4/4/4 1/1/1 2/2/2
f 5/5/5 7/7/7 6/6/6
f 8/8/8 5/5/5 6/6/6
f 9/9/9 11/11/11 10/10/10
f 12/12/12 9/9/9 10/10/10
f 13/13/13 9/9/9 12/12/12
f 14/14/14 13/13/13 12/12/12
f 15/15/15 13/13/13 14/14/14
f 16/16/16 15/15/15 14/14/14
f 17/17/17 19/19/19 18/18/18
f 20/20/20 17/17/17 21/21/21
f 21/21/21 17/17/17 18/18/18
f 22/22/22 20/20/20 21/21/21
f 20/20/20 22/22/22 23/23/23
f 24/24/24 20/20/20 23/23/23
f 24/24/24 23/23/23 25/25/25
f 26/26/26 24/24/24 25/25/25
f 27/27/27 26/26/26 25/25/25
f 19/19/19 28/28/28 18/18/18
f 28/28/28 29/29/29 18/18/18
f 28/28/28 30/30/30 29/29/29
f 30/30/30 31/31/31 29/29/29
f 32/32/32 27/27/27 25/25/25
f 30/30/30 27/27/27 32/32/32
f 31/31/31 30/30/30 32/32/32
f 33/33/33 35/35/35 34/34/34
f 36/36/36 33/33/33 34/34/34
f 37/37/37 39/39/39 38/38/38
f 40/40/40 37/37/37 38/38/38
f 41/41/41 43/43/43 42/42/42
f 44/44/44 41/41/41 42/42/42
f 44/44/44 42/42/42 45/45/45
f 46/46/46 44/44/44 45/45/45
f 46/46/46 45/45/45 47/47/47
f 48/48/48 46/46/46 47/47/47
f 49/49/49 51/51/51 50/50/50
f 51/51/51 52/52/52 50/50/50
f 50/50/50 52/52/52 53/53/53
f 52/52/52 54/54/54 53/53/53
f 54/54/54 56/56/56 55/55/55
f 53/53/53 54/54/54 55/55/55
f 57/57/57 59/59/59 58/58/58
f 60/60/60 58/58/58 61/61/61
f 60/60/60 57/57/57 58/58/58
f 62/62/62 60/60/60 61/61/61
f 63/63/63 62/62/62 61/61/61
f 64/64/64 63/63/63 61/61/61
f 65/65/65 63/63/63 64/64/64
f 66/66/66 65/65/65 64/64/64
f 65/65/65 66/66/66 67/67/67
f 59/59/59 57/57/57 68/68/68
f 57/57/57 69/69/69 68/68/68
f 68/68/68 69/69/69 70/70/70
f 69/69/69 71/71/71 70/70/70
f 72/72/72 65/65/65 67/67/67
f 72/72/72 67/67/67 70/70/70
f 71/71/71 72/72/72 70/70/70
f 73/73/73 75/75/75 74/74/74
f 76/76/76 73/73/73 74/74/74
f 76/76/76 74/74/74 77/77/77
f 78/78/78 76/76/76 77/77/77
f 78/78/78 77/77/77 79/79/79
f 80/80/80 78/78/78 79/79/79
