#Palm_C(Clone)_35464_489.obj

v -1.629261 11.9382 2.112742
v -2.175795 11.69429 1.704675
v -0.9521642 12.60005 0.6643865
v -1.513918 12.32489 0.2893397
v -0.9611242 11.71526 2.282069
v -0.2974938 12.34606 0.863169
v 0.5074165 12.43754 -0.833523
v -0.1837464 12.68738 -0.9553562
v 0.2887796 12.16061 -1.930354
v -0.7106095 12.41619 -1.403944
v 0.2533295 12.19736 -1.913774
v 1.333084 13.24956 -1.875131
v 1.28666 12.97455 -1.18889
v 1.5644 12.84864 -2.472934
v 3.17855 13.74547 -1.655928
v 3.387036 13.34473 -2.215034
v 5.122313 13.60627 -1.357819
v 5.186671 13.19448 -1.890339
v 4.965357 13.33576 -0.5983149
v 3.135242 13.47771 -0.9273021
v 0.2563118 12.2242 -1.906254
v 0.406496 13.34447 -0.9077801
v -0.1923735 12.96082 -0.7007656
v 1.108831 13.06486 -0.8951531
v 0.7550185 13.95368 0.8830324
v 1.413738 13.66614 0.8881158
v 1.178467 13.93395 2.808347
v 1.76484 13.61912 2.688413
v 0.4730788 13.53371 2.938117
v 0.1168774 13.57068 1.10796
v 0.2489904 12.23061 -1.896322
v -0.8738211 13.18173 -1.565981
v -1.182976 12.61247 -1.925251
v -0.5501922 13.12223 -0.8852586
v -2.496139 13.58932 -0.6163548
v -2.179983 13.51066 0.02434957
v -4.047525 13.405 0.5860074
v -3.640104 13.29814 1.115043
v -4.32341 12.80041 0.1032529
v -2.83602 13.00644 -1.00264
v 0.2397323 12.20173 -1.909357
v -0.6782686 13.07755 -2.724692
v -0.2769614 12.68839 -3.210679
v -1.180799 12.76781 -2.252288
v -2.147049 13.27766 -3.950362
v -2.609921 12.96389 -3.49876
v -3.648691 12.83173 -5.147339
v -3.974563 12.52119 -4.642639
v -3.114983 12.44785 -5.639705
v -1.726446 12.88727 -4.474951
v 0.236884 12.16036 -1.933706
v 0.7234539 13.34859 -2.724882
v 1.329457 12.98832 -2.497621
v 0.2243451 13.06219 -3.215305
v 1.617692 14.08257 -4.261486
v 1.146529 13.78824 -4.717646
v 2.581605 14.19824 -5.977334
v 2.082999 13.86844 -6.293463
v 3.216692 13.81707 -5.622324
v 2.264789 13.72473 -4.021361
v 0.2321896 12.20415 -1.857074
v -0.3498509 13.5793 -1.645592
v -0.9177562 13.10532 -1.606483
v 0.2151533 13.59935 -1.143613
v -1.224047 14.87082 -0.5198244
v -0.6879892 14.86546 -0.04096612
v -2.073752 15.69702 1.055611
v -1.515581 15.59709 1.424073
v -2.676519 15.1423 0.9953721
v -1.833779 14.38949 -0.4880809
v 0.2381944 12.16822 -1.951198
v 0.4836143 13.60025 -1.546759
v 0.1625339 13.27247 -0.9652612
v 1.171114 13.41876 -1.803795
v 1.37941 14.89715 -0.4443306
v 2.028301 14.70115 -0.6834369
v 2.571144 15.67974 0.9172116
v 3.111972 15.40241 0.620659
v 2.129959 15.29587 1.49394
v 1.031948 14.57315 0.1711284
v 0.2282426 12.15497 -1.942418
v 0.7299466 13.57626 -1.995091
v 1.22066 13.19787 -1.589285
v 0.611258 13.45356 -2.731617
v 2.041485 14.86774 -2.55337
v 1.93194 14.72713 -3.249706
v 3.646588 15.65203 -3.387025
v 3.455671 15.42645 -3.995277
v 4.105982 15.21023 -2.868936
v 2.560158 14.4896 -2.114698
v 0.2279539 12.15425 -1.926167
v -0.009888496 13.57398 -2.375972
v 0.5460753 13.31506 -2.791344
v -0.7168434 13.30784 -2.408294
v -0.5593287 14.83217 -3.723116
v -1.22237 14.55665 -3.757183
v -1.219758 15.56386 -5.43047
v -1.796226 15.21549 -5.37061
v -0.5490063 15.26142 -5.795498
v 0.03337025 14.58168 -4.159513
v 0.2399069 12.20056 -1.8882
v -0.6653802 13.39586 -2.050165
v -0.8288952 12.93481 -2.606404
v -0.7912594 13.23594 -1.321972
v -2.424216 14.17455 -2.049743
v -2.537793 13.9992 -1.361992
v -4.381485 14.35558 -1.89876
v -4.364908 14.13303 -1.260432
v -4.456724 13.85557 -2.546056
v -2.600379 13.70897 -2.646974
v 3.886529 10.9088 0.2076575
v 3.418951 10.88619 0.7605421
v 2.7392 11.91035 -0.6138652
v 2.292537 11.84974 -0.04054415
v 3.975308 10.55611 -0.4188529
v 2.845545 11.52077 -1.22175
v 1.276446 12.05239 -2.110764
v 1.241278 12.41785 -1.462517
v 0.1488873 12.17975 -1.91121
v 0.726597 12.38027 -0.9277338
v 1.636886 11.43365 -5.947108
v 2.212043 11.19969 -5.574027
v 1.153761 12.27564 -4.514627
v 1.738923 12.00645 -4.172511
v 0.9442965 11.23494 -6.022282
v 0.4698683 12.04235 -4.617126
v -0.1408538 12.35018 -2.865752
v 0.5707318 12.56951 -2.842718
v 0.1818441 12.17157 -1.774207
v 1.12941 12.31366 -2.424711
v -4.123698 11.79009 -2.244412
v -3.920587 11.56916 -2.903724
v -2.555531 12.50546 -2.09144
v -2.387558 12.25209 -2.754377
v -4.044055 11.55343 -1.564363
v -2.507093 12.23668 -1.414637
v -0.6413764 12.39139 -1.240869
v -0.7744504 12.65315 -1.925523
v 0.3220052 12.16317 -1.830181
v -0.5256093 12.40648 -2.580954
v 1.23752 10.15473 -0.312209
v 0.8345658 10.21278 -0.1100587
v 1.101875 11.13941 -0.7492731
v 0.695464 11.16823 -0.5408183
v 1.384401 10.01779 -0.7200011
v 1.244394 10.97507 -1.152259
v 0.8080023 11.84216 -1.822772
v 0.685278 11.96717 -1.389376
v 0.1994573 12.22281 -1.909051
v 0.2599644 12.03357 -1.210022
v -1.246101 10.97909 0.1206137
v -1.559233 10.99884 -0.2082994
v -0.6954242 11.73608 -0.4295802
v -1.021309 11.72967 -0.7507812
v -0.8488616 10.76755 0.1845007
v -0.3095989 11.49947 -0.3597715
v 0.3275491 12.01034 -1.211222
v -0.08716344 12.22378 -1.242414
v 0.2722462 12.19889 -1.907003
v -0.3854475 12.23951 -1.600533
v -2.105386 11.41657 -3.57769
v -1.744211 11.16557 -3.806952
v -1.254669 12.06995 -3.074688
v -0.912871 11.79362 -3.31172
v -2.325358 11.4037 -3.133365
v -1.491935 12.03243 -2.636564
v -0.4943108 12.35662 -1.890427
v -0.3022553 12.37943 -2.362404
v 0.271904 12.19196 -1.800699
v 0.08275983 12.11716 -2.5671
v 1.676221 10.77163 -4.072365
v 1.895182 10.56156 -3.680029
v 1.319628 11.63285 -3.341089
v 1.541736 11.39351 -2.963293
v 1.220147 10.78048 -4.267018
v 0.8653735 11.6137 -3.548302
v 0.2358191 12.21511 -2.600064
v 0.7187055 12.20697 -2.435888
v 0.1774949 12.20737 -1.813398
v 0.9134814 11.9937 -2.01699

vn 0.01615882 0.923831 0.3824586
vn -0.3572899 0.8519903 0.3826959
vn 0.002787761 0.9751803 0.221393
vn -0.3808316 0.8971489 0.2238094
vn 0.3873117 0.8635635 0.3228737
vn 0.3841213 0.9090249 0.1616293
vn 0.2754189 0.9363216 -0.2178196
vn -0.02848931 0.9878169 -0.1529884
vn -0.05097085 0.8991695 -0.4346212
vn -0.3383694 0.9260945 -0.1668969
vn -0.6899188 0.7049577 0.1644579
vn -0.4902382 0.8680583 0.07836205
vn -0.2740445 0.8213814 0.5002317
vn -0.5882384 0.7199163 -0.368369
vn -0.1409508 0.9868619 -0.07896519
vn -0.2745037 0.8116608 -0.5156105
vn 0.01814301 0.9842557 -0.1758146
vn -0.1455684 0.7892261 -0.5966002
vn 0.1824408 0.9403089 0.2872872
vn 0.05413361 0.9318898 0.3586786
vn -0.5131176 0.6680677 -0.5388837
vn -0.3902549 0.8427614 -0.3707477
vn -0.6940361 0.7194988 -0.02520013
vn 0.01072308 0.7781519 -0.6279842
vn -0.1414157 0.9857978 -0.09057349
vn 0.2421595 0.8929695 -0.3794256
vn 0.004516016 0.9996932 0.02434374
vn 0.3661132 0.8846942 -0.2885771
vn -0.3560673 0.8720045 0.3358924
vn -0.4658406 0.8516571 0.2401506
vn 0.0510259 0.6881958 -0.7237284
vn -0.1042776 0.8284588 -0.5502559
vn -0.4789397 0.5618595 -0.6744853
vn 0.2926497 0.9106269 -0.2917434
vn -0.2977856 0.9303221 -0.2140652
vn 0.1289817 0.9915043 0.01679898
vn -0.3457796 0.9376919 -0.03420435
vn 0.1006409 0.9806898 0.1676853
vn -0.7113701 0.6661749 -0.2239716
vn -0.6640223 0.6538692 -0.3626696
vn 0.5773224 0.8132765 0.07266209
vn 0.34337 0.9390813 0.01492679
vn 0.389091 0.8088068 -0.4409528
vn 0.2099094 0.8575965 0.4695379
vn -0.04819477 0.9976385 -0.04892818
vn -0.1430528 0.8961844 0.4199868
vn -0.232631 0.9714733 -0.04606079
vn -0.2912332 0.855431 0.4282762
vn -0.121941 0.8506495 -0.5113955
vn 0.02458604 0.8621411 -0.5060707
vn 0.006565213 0.6155882 0.7880404
vn 0.02206531 0.8046345 0.5933598
vn 0.4819004 0.6977248 0.530049
vn -0.4465215 0.7328351 0.5133914
vn 0.01896436 0.97315 0.2293878
vn -0.4569344 0.8705643 0.1825604
vn -0.01386632 0.9987588 0.0478318
vn -0.4887711 0.871825 0.03199129
vn 0.4658488 0.8835998 0.04728402
vn 0.4846134 0.8538245 0.190087
vn -0.2449331 0.2518773 -0.9362507
vn -0.3173589 0.4842837 -0.8153237
vn -0.7101915 0.2722207 -0.6492487
vn 0.150014 0.5941663 -0.7902291
vn -0.3592211 0.7660668 -0.5330116
vn 0.1243311 0.8390507 -0.5296558
vn -0.3307729 0.8648534 -0.3776472
vn 0.1591266 0.904824 -0.3949327
vn -0.7416849 0.616552 -0.2641347
vn -0.7541606 0.5325587 -0.3842175
vn -0.9078909 0.3081315 -0.2842342
vn -0.8038846 0.5515717 -0.2225718
vn -0.8578048 0.4542074 0.2405545
vn -0.5600055 0.5305122 -0.6363572
vn -0.536991 0.8343777 -0.1243146
vn -0.309801 0.7733889 -0.5530756
vn -0.3742412 0.921854 -0.1006382
vn -0.1666445 0.8273621 -0.5363777
vn -0.487336 0.794478 0.3623642
vn -0.6098568 0.7169232 0.3377803
vn -0.4402442 0.3027281 0.8453051
vn -0.3416386 0.5435142 0.7667303
vn 0.09278202 0.4085623 0.9080024
vn -0.6976203 0.5621746 0.4441684
vn -0.1713496 0.8254457 0.5378461
vn -0.5482038 0.8049988 0.2268243
vn -0.10894 0.9155332 0.3872084
vn -0.4989719 0.8616705 0.09246831
vn 0.3111812 0.7489385 0.5850273
vn 0.2567654 0.6699939 0.6965483
vn 0.6960908 0.3325537 0.6362906
vn 0.6008343 0.5741902 0.5561507
vn 0.8369191 0.5277553 0.1450541
vn 0.220418 0.4964394 0.8396211
vn 0.3661737 0.8486793 0.381654
vn -0.0008442998 0.7307847 0.6826074
vn 0.2173109 0.928012 0.3026037
vn -0.1311668 0.7773347 0.6152605
vn 0.5105788 0.855377 -0.08740208
vn 0.621172 0.7833509 -0.0225001
vn 0.6031649 0.5796797 -0.5478717
vn 0.4204023 0.7694041 -0.4809147
vn 0.1181794 0.5871303 -0.8008192
vn 0.6219116 0.7818146 -0.04462498
vn 0.1097978 0.9475328 -0.3002089
vn 0.3449088 0.9298325 0.1282535
vn -0.02352485 0.98422 -0.1753759
vn 0.2383679 0.9413783 0.2387195
vn -0.2844841 0.7883984 -0.5454323
vn -0.1750125 0.7512746 -0.6363621
vn 0.5787211 0.7776741 -0.2455694
vn 0.565147 0.8142445 0.1327187
vn 0.4332626 0.8642096 -0.2557826
vn 0.4204722 0.897346 0.1340623
vn 0.5049992 0.6308976 -0.5890192
vn 0.3579697 0.709132 -0.6074448
vn -0.005184725 0.8467953 -0.5318931
vn 0.0712785 0.9655305 -0.2503392
vn -0.2228736 0.9495806 -0.2205075
vn 0.04581132 0.9969404 0.06332933
vn -0.06641485 0.8732371 -0.4827479
vn 0.3056822 0.8013065 -0.5142625
vn -0.03670097 0.9429046 -0.3310336
vn 0.3453564 0.8645609 -0.3650518
vn -0.4285386 0.8208362 -0.3776004
vn -0.4088578 0.8846958 -0.2239378
vn -0.2610547 0.9556751 0.1361421
vn 0.03373193 0.9988538 0.03394924
vn 0.08675587 0.9434497 0.3199616
vn 0.3440125 0.9387075 0.02197842
vn -0.3710611 0.9104667 0.1826566
vn -0.4987261 0.8498439 -0.1704031
vn -0.2255101 0.9672256 0.1167012
vn -0.3586093 0.9006549 -0.245397
vn -0.1859594 0.8410375 0.5080104
vn -0.03661579 0.8916175 0.4513059
vn 0.2814461 0.9340548 0.2198388
vn 0.1147752 0.9925463 -0.04096259
vn 0.3730218 0.9134994 -0.1623983
vn 0.02212888 0.9405754 -0.3388622
vn 0.929045 0.3524634 0.11245
vn 0.7855061 0.4150872 0.4590018
vn 0.8634778 0.5005397 0.06217709
vn 0.7142304 0.5605695 0.4190903
vn 0.9368299 0.2426062 -0.2519765
vn 0.8692281 0.3838599 -0.3115992
vn 0.6264647 0.6929933 -0.356794
vn 0.6316947 0.7734507 -0.05230036
vn 0.3846566 0.9127773 -0.1373914
vn 0.5022192 0.8336161 0.2299121
vn 0.2021199 0.6624821 0.7212939
vn -0.1711136 0.7183118 0.67435
vn 0.2309414 0.7706651 0.5939199
vn -0.1539926 0.8235188 0.5459877
vn 0.5472589 0.5136188 0.6608354
vn 0.5841326 0.6134865 0.5314351
vn 0.5533545 0.8109895 0.1899856
vn 0.2685764 0.9288836 0.2550324
vn 0.2711439 0.9617381 -0.03924607
vn -0.03927976 0.9785301 0.2023248
vn -0.521081 0.7930973 -0.3153898
vn -0.4141851 0.640343 -0.6468471
vn -0.3727029 0.8749583 -0.3090953
vn -0.2642658 0.7135485 -0.6488542
vn -0.5490313 0.833489 0.06213267
vn -0.4021071 0.9121214 0.07964885
vn -0.01738343 0.998718 0.04753412
vn -0.01013449 0.9640761 -0.2654318
vn 0.2785537 0.9383246 -0.2048272
vn 0.09235035 0.8384907 -0.5370328
vn 0.2976882 0.6442566 -0.7044961
vn 0.6322346 0.5104109 -0.5828894
vn 0.3012174 0.7578876 -0.578683
vn 0.6439993 0.6157352 -0.4540208
vn -0.08012071 0.6880332 -0.7212424
vn -0.08793591 0.7985209 -0.5955093
vn -0.03245227 0.9694741 -0.2430351
vn 0.2798418 0.9284301 -0.2443471
vn 0.2354433 0.9708312 0.04530669
vn 0.5547979 0.8217425 -0.1301469

vt 0.75 1
vt 1 1
vt 0.75 0.6718159
vt 1 0.6569189
vt 0.5 1
vt 0.5 0.6562213
vt 0.5 0.3249606
vt 0.75 0.355582
vt 0.75 0.1631106
vt 1 0.3263304
vt 0.2639751 0
vt 0.2530134 0.2521199
vt 0.5 0.2479826
vt 0 0.2585577
vt 0.2380491 0.5962986
vt 0 0.5997736
vt 0.2204969 1
vt 0 1
vt 0.5 1
vt 0.5 0.5940653
vt 0.2639751 0
vt 0.2530134 0.2521199
vt 0.5 0.2479826
vt 0 0.2585577
vt 0.2380491 0.5962986
vt 0 0.5997736
vt 0.2204969 1
vt 0 1
vt 0.5 1
vt 0.5 0.5940653
vt 0.2639751 0
vt 0.2530134 0.2521199
vt 0.5 0.2479826
vt 0 0.2585577
vt 0.2380491 0.5962986
vt 0 0.5997736
vt 0.2204969 1
vt 0 1
vt 0.5 1
vt 0.5 0.5940653
vt 0.2639751 0
vt 0.2530134 0.2521199
vt 0.5 0.2479826
vt 0 0.2585577
vt 0.2380491 0.5962986
vt 0 0.5997736
vt 0.2204969 1
vt 0 1
vt 0.5 1
vt 0.5 0.5940653
vt 0.2639751 0
vt 0.2530134 0.2521199
vt 0.5 0.2479826
vt 0 0.2585577
vt 0.2380491 0.5962986
vt 0 0.5997736
vt 0.2204969 1
vt 0 1
vt 0.5 1
vt 0.5 0.5940653
vt 0.2639751 0
vt 0.2530134 0.2521199
vt 0.5 0.2479826
vt 0 0.2585577
vt 0.2380491 0.5962986
vt 0 0.5997736
vt 0.2204969 1
vt 0 1
vt 0.5 1
vt 0.5 0.5940653
vt 0.2639751 0
vt 0.2530134 0.2521199
vt 0.5 0.2479826
vt 0 0.2585577
vt 0.2380491 0.5962986
vt 0 0.5997736
vt 0.2204969 1
vt 0 1
vt 0.5 1
vt 0.5 0.5940653
vt 0.2639751 0
vt 0.2530134 0.2521199
vt 0.5 0.2479826
vt 0 0.2585577
vt 0.2380491 0.5962986
vt 0 0.5997736
vt 0.2204969 1
vt 0 1
vt 0.5 1
vt 0.5 0.5940653
vt 0.2639751 0
vt 0.2530134 0.2521199
vt 0.5 0.2479826
vt 0 0.2585577
vt 0.2380491 0.5962986
vt 0 0.5997736
vt 0.2204969 1
vt 0 1
vt 0.5 1
vt 0.5 0.5940653
vt 0.2639751 0
vt 0.2530134 0.2521199
vt 0.5 0.2479826
vt 0 0.2585577
vt 0.2380491 0.5962986
vt 0 0.5997736
vt 0.2204969 1
vt 0 1
vt 0.5 1
vt 0.5 0.5940653
vt 0.75 1
vt 1 1
vt 0.75 0.6718159
vt 1 0.6569189
vt 0.5 1
vt 0.5 0.6562213
vt 0.5 0.3249606
vt 0.75 0.355582
vt 0.75 0.1631106
vt 1 0.3263304
vt 0.75 1
vt 1 1
vt 0.75 0.6718159
vt 1 0.6569189
vt 0.5 1
vt 0.5 0.6562213
vt 0.5 0.3249606
vt 0.75 0.355582
vt 0.75 0.1631106
vt 1 0.3263304
vt 0.75 1
vt 1 1
vt 0.75 0.6718159
vt 1 0.6569189
vt 0.5 1
vt 0.5 0.6562213
vt 0.5 0.3249606
vt 0.75 0.355582
vt 0.75 0.1631106
vt 1 0.3263304
vt 0.75 1
vt 1 1
vt 0.75 0.6718159
vt 1 0.6569189
vt 0.5 1
vt 0.5 0.6562213
vt 0.5 0.3249606
vt 0.75 0.355582
vt 0.75 0.1631106
vt 1 0.3263304
vt 0.75 1
vt 1 1
vt 0.75 0.6718159
vt 1 0.6569189
vt 0.5 1
vt 0.5 0.6562213
vt 0.5 0.3249606
vt 0.75 0.355582
vt 0.75 0.1631106
vt 1 0.3263304
vt 0.75 1
vt 1 1
vt 0.75 0.6718159
vt 1 0.6569189
vt 0.5 1
vt 0.5 0.6562213
vt 0.5 0.3249606
vt 0.75 0.355582
vt 0.75 0.1631106
vt 1 0.3263304
vt 0.75 1
vt 1 1
vt 0.75 0.6718159
vt 1 0.6569189
vt 0.5 1
vt 0.5 0.6562213
vt 0.5 0.3249606
vt 0.75 0.355582
vt 0.75 0.1631106
vt 1 0.3263304

g Palm_C(Clone)_35464_489
usemtl Palm_C(Clone)_35464_489
usemap Palm_C(Clone)_35464_489
f 1/1/1 3/3/3 2/2/2
f 3/3/3 4/4/4 2/2/2
f 1/1/1 5/5/5 3/3/3
f 6/6/6 3/3/3 5/5/5
f 6/6/6 7/7/7 3/3/3
f 7/7/7 8/8/8 3/3/3
f 7/7/7 9/9/9 8/8/8
f 9/9/9 10/10/10 8/8/8
f 4/4/4 3/3/3 10/10/10
f 8/8/8 10/10/10 3/3/3
f 11/11/11 13/13/13 12/12/12
f 14/14/14 11/11/11 12/12/12
f 12/12/12 15/15/15 14/14/14
f 14/14/14 15/15/15 16/16/16
f 15/15/15 17/17/17 16/16/16
f 16/16/16 17/17/17 18/18/18
f 17/17/17 15/15/15 19/19/19
f 15/15/15 20/20/20 19/19/19
f 15/15/15 12/12/12 20/20/20
f 12/12/12 13/13/13 20/20/20
f 21/21/21 23/23/23 22/22/22
f 24/24/24 21/21/21 22/22/22
f 22/22/22 25/25/25 24/24/24
f 24/24/24 25/25/25 26/26/26
f 25/25/25 27/27/27 26/26/26
f 26/26/26 27/27/27 28/28/28
f 27/27/27 25/25/25 29/29/29
f 25/25/25 30/30/30 29/29/29
f 25/25/25 22/22/22 30/30/30
f 22/22/22 23/23/23 30/30/30
f 31/31/31 33/33/33 32/32/32
f 34/34/34 31/31/31 32/32/32
f 32/32/32 35/35/35 34/34/34
f 34/34/34 35/35/35 36/36/36
f 35/35/35 37/37/37 36/36/36
f 36/36/36 37/37/37 38/38/38
f 37/37/37 35/35/35 39/39/39
f 35/35/35 40/40/40 39/39/39
f 35/35/35 32/32/32 40/40/40
f 32/32/32 33/33/33 40/40/40
f 41/41/41 43/43/43 42/42/42
f 44/44/44 41/41/41 42/42/42
f 42/42/42 45/45/45 44/44/44
f 44/44/44 45/45/45 46/46/46
f 45/45/45 47/47/47 46/46/46
f 46/46/46 47/47/47 48/48/48
f 47/47/47 45/45/45 49/49/49
f 45/45/45 50/50/50 49/49/49
f 45/45/45 42/42/42 50/50/50
f 42/42/42 43/43/43 50/50/50
f 51/51/51 53/53/53 52/52/52
f 54/54/54 51/51/51 52/52/52
f 52/52/52 55/55/55 54/54/54
f 54/54/54 55/55/55 56/56/56
f 55/55/55 57/57/57 56/56/56
f 56/56/56 57/57/57 58/58/58
f 57/57/57 55/55/55 59/59/59
f 55/55/55 60/60/60 59/59/59
f 55/55/55 52/52/52 60/60/60
f 52/52/52 53/53/53 60/60/60
f 61/61/61 63/63/63 62/62/62
f 64/64/64 61/61/61 62/62/62
f 62/62/62 65/65/65 64/64/64
f 64/64/64 65/65/65 66/66/66
f 65/65/65 67/67/67 66/66/66
f 66/66/66 67/67/67 68/68/68
f 67/67/67 65/65/65 69/69/69
f 65/65/65 70/70/70 69/69/69
f 65/65/65 62/62/62 70/70/70
f 62/62/62 63/63/63 70/70/70
f 71/71/71 73/73/73 72/72/72
f 74/74/74 71/71/71 72/72/72
f 72/72/72 75/75/75 74/74/74
f 74/74/74 75/75/75 76/76/76
f 75/75/75 77/77/77 76/76/76
f 76/76/76 77/77/77 78/78/78
f 77/77/77 75/75/75 79/79/79
f 75/75/75 80/80/80 79/79/79
f 75/75/75 72/72/72 80/80/80
f 72/72/72 73/73/73 80/80/80
f 81/81/81 83/83/83 82/82/82
f 84/84/84 81/81/81 82/82/82
f 82/82/82 85/85/85 84/84/84
f 84/84/84 85/85/85 86/86/86
f 85/85/85 87/87/87 86/86/86
f 86/86/86 87/87/87 88/88/88
f 87/87/87 85/85/85 89/89/89
f 85/85/85 90/90/90 89/89/89
f 85/85/85 82/82/82 90/90/90
f 82/82/82 83/83/83 90/90/90
f 91/91/91 93/93/93 92/92/92
f 94/94/94 91/91/91 92/92/92
f 92/92/92 95/95/95 94/94/94
f 94/94/94 95/95/95 96/96/96
f 95/95/95 97/97/97 96/96/96
f 96/96/96 97/97/97 98/98/98
f 97/97/97 95/95/95 99/99/99
f 95/95/95 100/100/100 99/99/99
f 95/95/95 92/92/92 100/100/100
f 92/92/92 93/93/93 100/100/100
f 101/101/101 103/103/103 102/102/102
f 104/104/104 101/101/101 102/102/102
f 102/102/102 105/105/105 104/104/104
f 104/104/104 105/105/105 106/106/106
f 105/105/105 107/107/107 106/106/106
f 106/106/106 107/107/107 108/108/108
f 107/107/107 105/105/105 109/109/109
f 105/105/105 110/110/110 109/109/109
f 105/105/105 102/102/102 110/110/110
f 102/102/102 103/103/103 110/110/110
f 111/111/111 113/113/113 112/112/112
f 113/113/113 114/114/114 112/112/112
f 111/111/111 115/115/115 113/113/113
f 116/116/116 113/113/113 115/115/115
f 116/116/116 117/117/117 113/113/113
f 117/117/117 118/118/118 113/113/113
f 117/117/117 119/119/119 118/118/118
f 119/119/119 120/120/120 118/118/118
f 114/114/114 113/113/113 120/120/120
f 118/118/118 120/120/120 113/113/113
f 121/121/121 123/123/123 122/122/122
f 123/123/123 124/124/124 122/122/122
f 121/121/121 125/125/125 123/123/123
f 126/126/126 123/123/123 125/125/125
f 126/126/126 127/127/127 123/123/123
f 127/127/127 128/128/128 123/123/123
f 127/127/127 129/129/129 128/128/128
f 129/129/129 130/130/130 128/128/128
f 124/124/124 123/123/123 130/130/130
f 128/128/128 130/130/130 123/123/123
f 131/131/131 133/133/133 132/132/132
f 133/133/133 134/134/134 132/132/132
f 131/131/131 135/135/135 133/133/133
f 136/136/136 133/133/133 135/135/135
f 136/136/136 137/137/137 133/133/133
f 137/137/137 138/138/138 133/133/133
f 137/137/137 139/139/139 138/138/138
f 139/139/139 140/140/140 138/138/138
f 134/134/134 133/133/133 140/140/140
f 138/138/138 140/140/140 133/133/133
f 141/141/141 143/143/143 142/142/142
f 143/143/143 144/144/144 142/142/142
f 141/141/141 145/145/145 143/143/143
f 146/146/146 143/143/143 145/145/145
f 146/146/146 147/147/147 143/143/143
f 147/147/147 148/148/148 143/143/143
f 147/147/147 149/149/149 148/148/148
f 149/149/149 150/150/150 148/148/148
f 144/144/144 143/143/143 150/150/150
f 148/148/148 150/150/150 143/143/143
f 151/151/151 153/153/153 152/152/152
f 153/153/153 154/154/154 152/152/152
f 151/151/151 155/155/155 153/153/153
f 156/156/156 153/153/153 155/155/155
f 156/156/156 157/157/157 153/153/153
f 157/157/157 158/158/158 153/153/153
f 157/157/157 159/159/159 158/158/158
f 159/159/159 160/160/160 158/158/158
f 154/154/154 153/153/153 160/160/160
f 158/158/158 160/160/160 153/153/153
f 161/161/161 163/163/163 162/162/162
f 163/163/163 164/164/164 162/162/162
f 161/161/161 165/165/165 163/163/163
f 166/166/166 163/163/163 165/165/165
f 166/166/166 167/167/167 163/163/163
f 167/167/167 168/168/168 163/163/163
f 167/167/167 169/169/169 168/168/168
f 169/169/169 170/170/170 168/168/168
f 164/164/164 163/163/163 170/170/170
f 168/168/168 170/170/170 163/163/163
f 171/171/171 173/173/173 172/172/172
f 173/173/173 174/174/174 172/172/172
f 171/171/171 175/175/175 173/173/173
f 176/176/176 173/173/173 175/175/175
f 176/176/176 177/177/177 173/173/173
f 177/177/177 178/178/178 173/173/173
f 177/177/177 179/179/179 178/178/178
f 179/179/179 180/180/180 178/178/178
f 174/174/174 173/173/173 180/180/180
f 178/178/178 180/180/180 173/173/173
