#Palm_B(Clone)_35405_102.obj

v 0.09865011 -0.2535242 -0.303584
v -0.04085384 3.082345 0.05033417
v -0.2582484 -0.2535244 -0.1876469
v -0.3420493 3.094144 0.1355386
v -0.2582485 -0.2535243 0.1876469
v -0.3552979 3.200571 0.429765
v 0.09865002 -0.2535243 0.3035842
v -0.06230279 3.254546 0.5264943
v 0.1320177 3.181477 0.2919603
v 0.3191967 -0.2535243 8.950172E-08
v -0.04085384 3.082345 0.05033417
v 0.09865011 -0.2535242 -0.303584
v -0.06971499 5.603028 -0.1550435
v -0.3313618 5.631274 -0.08520546
v -0.3424433 5.67648 0.1830163
v -0.08764248 5.676175 0.2790561
v 0.08089501 5.63078 0.07003424
v -0.06971499 5.603028 -0.1550435
v -0.146005 7.055737 -0.4095737
v -0.3509637 7.07143 -0.3614061
v -0.3670196 7.17136 -0.1761233
v -0.171985 7.217424 -0.1097328
v -0.03541154 7.145966 -0.2540386
v -0.146005 7.055737 -0.4095737
v -0.3560117 10.2315 -1.477241
v -0.4669746 10.23999 -1.451236
v -0.4756675 10.29409 -1.350961
v -0.370073 10.31903 -1.315007
v -0.296147 10.28034 -1.393021
v -0.3560117 10.2315 -1.477241

vn 0.3093262 0.1130981 -0.9438477
vn 0.3291016 0.0289917 -0.9433594
vn -0.7871094 0.04205322 -0.6152344
vn -0.8041992 -0.01010132 -0.59375
vn -0.8168945 -0.06130981 0.5732422
vn -0.8095703 -0.004516602 0.5869141
vn 0.3300781 -0.04855347 0.9423828
vn 0.2653809 0.03497314 0.9633789
vn 0.9975586 0.02770996 0.06298828
vn 0.9975586 0.05831909 -0.03131104
vn 0.3291016 0.0289917 -0.9433594
vn 0.3093262 0.1130981 -0.9438477
vn 0.3603516 -0.1047974 -0.9267578
vn -0.7915039 -0.08740234 -0.6044922
vn -0.8193359 0.09301758 0.5649414
vn 0.2695313 0.1737061 0.9467773
vn 0.996582 0.05484009 0.0546875
vn 0.3603516 -0.1047974 -0.9267578
vn 0.3752441 -0.2044678 -0.9038086
vn -0.7763672 -0.1815186 -0.6030273
vn -0.8339844 0.1384277 0.5336914
vn 0.2388916 0.3112793 0.9194336
vn 0.9931641 0.09405518 0.06402588
vn 0.3752441 -0.2044678 -0.9038086
vn 0.385498 -0.2709961 -0.8818359
vn -0.7915039 -0.2243652 -0.5683594
vn -0.8212891 0.1755371 0.5424805
vn 0.223999 0.3652344 0.9033203
vn 0.9892578 0.114624 0.08892822
vn 0.385498 -0.2709961 -0.8818359

vt 0 -3.167969
vt 0 -1.424805
vt 0.1999512 -3.167969
vt 0.1999512 -1.424805
vt 0.3999023 -3.167969
vt 0.3999023 -1.424805
vt 0.5996094 -3.167969
vt 0.5996094 -1.424805
vt 0.7998047 -1.424805
vt 0.7998047 -3.167969
vt 1 -1.424805
vt 1 -3.167969
vt 0 0.3181152
vt 0.1999512 0.3181152
vt 0.3999023 0.3181152
vt 0.5996094 0.3181152
vt 0.7998047 0.3181152
vt 1 0.3181152
vt 0 2.060547
vt 0.1999512 2.060547
vt 0.3999023 2.060547
vt 0.5996094 2.060547
vt 0.7998047 2.060547
vt 1 2.060547
vt 0 3.804688
vt 0.1999512 3.804688
vt 0.3999023 3.804688
vt 0.5996094 3.804688
vt 0.7998047 3.804688
vt 1 3.804688

g Palm_B(Clone)_35405_102
usemtl Palm_B(Clone)_35405_102
usemap Palm_B(Clone)_35405_102
f 1/1/1 3/3/3 2/2/2
f 3/3/3 4/4/4 2/2/2
f 3/3/3 5/5/5 4/4/4
f 5/5/5 6/6/6 4/4/4
f 5/5/5 7/7/7 6/6/6
f 7/7/7 8/8/8 6/6/6
f 7/7/7 9/9/9 8/8/8
f 10/10/10 9/9/9 7/7/7
f 10/10/10 11/11/11 9/9/9
f 12/12/12 11/11/11 10/10/10
f 2/2/2 4/4/4 13/13/13
f 4/4/4 14/14/14 13/13/13
f 4/4/4 6/6/6 14/14/14
f 6/6/6 15/15/15 14/14/14
f 6/6/6 8/8/8 15/15/15
f 8/8/8 16/16/16 15/15/15
f 9/9/9 17/17/17 8/8/8
f 8/8/8 17/17/17 16/16/16
f 11/11/11 18/18/18 9/9/9
f 9/9/9 18/18/18 17/17/17
f 13/13/13 14/14/14 19/19/19
f 14/14/14 20/20/20 19/19/19
f 14/14/14 15/15/15 20/20/20
f 15/15/15 21/21/21 20/20/20
f 15/15/15 16/16/16 21/21/21
f 16/16/16 22/22/22 21/21/21
f 17/17/17 23/23/23 16/16/16
f 16/16/16 23/23/23 22/22/22
f 18/18/18 24/24/24 17/17/17
f 17/17/17 24/24/24 23/23/23
f 19/19/19 20/20/20 25/25/25
f 20/20/20 26/26/26 25/25/25
f 20/20/20 21/21/21 26/26/26
f 21/21/21 27/27/27 26/26/26
f 21/21/21 22/22/22 27/27/27
f 22/22/22 28/28/28 27/27/27
f 23/23/23 29/29/29 22/22/22
f 22/22/22 29/29/29 28/28/28
f 24/24/24 30/30/30 23/23/23
f 23/23/23 30/30/30 29/29/29
