#Platform_House.117_38264_325.obj

v -4.993925 -3.049845 0.2307382
v -4.993901 3.843219 0.2307375
v 3.672094 3.843189 0.2307375
v 3.67207 -3.049876 0.2307382
v -4.993925 -3.049845 0.2307382
v 3.67207 -3.049876 0.2307382
v 5.531785 -3.049882 -0.2307374
v -4.993925 -3.049845 -0.2307374
v 3.67207 -3.049876 0.2307382
v 3.672094 3.843189 0.2307375
v 5.531809 3.843182 -0.2307378
v 5.531785 -3.049882 -0.2307374
v -4.993901 3.843219 0.2307375
v -4.993925 -3.049845 0.2307382
v -4.993925 -3.049845 -0.2307374
v -4.993901 3.843219 -0.2307378
v 3.672094 3.843189 0.2307375
v -4.993901 3.843219 0.2307375
v -4.993901 3.843219 -0.2307378
v 5.531809 3.843182 -0.2307378

vn 0 1 1.192093E-07
vn 0 1 1.192093E-07
vn 0 1 1.192093E-07
vn 0 1 1.192093E-07
vn 3.516674E-06 -5.960464E-08 1
vn 3.516674E-06 -5.960464E-08 1
vn 3.516674E-06 -5.960464E-08 1
vn 3.516674E-06 -5.960464E-08 1
vn 0.2407227 0.9702148 -7.152557E-07
vn 0.2407227 0.9702148 -7.152557E-07
vn 0.2407227 0.9702148 -7.152557E-07
vn 0.2407227 0.9702148 -7.152557E-07
vn -1 0 3.516674E-06
vn -1 0 3.516674E-06
vn -1 0 3.516674E-06
vn -1 0 3.516674E-06
vn -3.516674E-06 5.960464E-08 -1
vn -3.516674E-06 5.960464E-08 -1
vn -3.516674E-06 5.960464E-08 -1
vn -3.516674E-06 5.960464E-08 -1

vt 9.995699E-05 9.995699E-05
vt 0.9995117 0.0001000166
vt 0.9995117 0.9995117
vt 0.0001000166 0.9995117
vt 1 0.9995117
vt 0.170166 1
vt 5.960464E-08 0.9350586
vt 1 0.9350586
vt 1 0.9995117
vt -5.960464E-08 1
vt 0 1.609325E-06
vt 1 0
vt 1 0.9995117
vt -5.960464E-08 1
vt 5.960464E-08 7.152557E-07
vt 1 0
vt 0.8295898 0.9995117
vt 0.170166 1
vt 0 0.9350586
vt 0.9995117 0.9350586

g Platform_House.117_38264_325
usemtl Platform_House.117_38264_325
usemap Platform_House.117_38264_325
f 1/1/1 3/3/3 2/2/2
f 1/1/1 4/4/4 3/3/3
f 5/5/5 7/7/7 6/6/6
f 5/5/5 8/8/8 7/7/7
f 9/9/9 11/11/11 10/10/10
f 9/9/9 12/12/12 11/11/11
f 13/13/13 15/15/15 14/14/14
f 13/13/13 16/16/16 15/15/15
f 17/17/17 19/19/19 18/18/18
f 17/17/17 20/20/20 19/19/19
