#Platform_for_grass(Clone)_37020_717.obj

v 0.4596621 0.1696456 0.00615611
v 0.4596613 -0.1696477 0.00615609
v -0.4596621 -0.1696456 0.006155972
v -0.4596704 0.1696477 0.006155992

vn -1.788139E-07 1 4.768372E-07
vn -1.788139E-07 1 4.768372E-07
vn -1.788139E-07 1 4.768372E-07
vn -1.788139E-07 1 4.768372E-07

vt 0.9995117 0.3842773
vt 0.9995117 6.198883E-05
vt 6.198883E-05 6.198883E-05
vt 6.198883E-05 0.3842773

g Platform_for_grass(Clone)_37020_717
usemtl Platform_for_grass(Clone)_37020_717
usemap Platform_for_grass(Clone)_37020_717
f 1/1/1 3/3/3 2/2/2
f 1/1/1 4/4/4 3/3/3
