#Platform_House.040_38118_379.obj

v -4.993906 -3.049879 0.2307376
v 3.672089 -3.049893 0.2307381
v 5.531804 -3.049896 -0.2307374
v -4.993906 -3.049879 -0.2307379
v 3.672089 -3.049893 0.2307381
v 3.6721 3.843171 0.230738
v 5.531815 3.843168 -0.2307373
v 5.531804 -3.049896 -0.2307374
v -4.993895 3.843185 0.2307376
v -4.993906 -3.049879 0.2307376
v -4.993906 -3.049879 -0.2307379
v -4.993895 3.843185 -0.2307378
v 3.6721 3.843171 0.230738
v -4.993895 3.843185 0.2307376
v -4.993895 3.843185 -0.2307378
v 5.531815 3.843168 -0.2307373

vn -1 1.192093E-07 1.549721E-06
vn -1 1.192093E-07 1.549721E-06
vn -1 1.192093E-07 1.549721E-06
vn -1 1.192093E-07 1.549721E-06
vn 4.172325E-07 0.9702148 0.2407227
vn 4.172325E-07 0.9702148 0.2407227
vn 4.172325E-07 0.9702148 0.2407227
vn 4.172325E-07 0.9702148 0.2407227
vn -1.609325E-06 -5.960464E-08 -1
vn -1.609325E-06 -5.960464E-08 -1
vn -1.609325E-06 -5.960464E-08 -1
vn -1.609325E-06 -5.960464E-08 -1
vn 1 -1.192093E-07 -1.549721E-06
vn 1 -1.192093E-07 -1.549721E-06
vn 1 -1.192093E-07 -1.549721E-06
vn 1 -1.192093E-07 -1.549721E-06

vt 1 0.9995117
vt -5.960464E-08 1
vt 5.960464E-08 2.264977E-06
vt 1 0
vt 1 0.9995117
vt -5.960464E-08 1
vt 0 1.609325E-06
vt 1 0
vt 1 0.9995117
vt -5.960464E-08 1
vt 5.960464E-08 7.152557E-07
vt 1 0
vt 0.9995117 0.9995117
vt -1.192093E-07 1
vt 0 1.788139E-06
vt 0.9995117 0

g Platform_House.040_38118_379
usemtl Platform_House.040_38118_379
usemap Platform_House.040_38118_379
f 1/1/1 3/3/3 2/2/2
f 1/1/1 4/4/4 3/3/3
f 5/5/5 7/7/7 6/6/6
f 5/5/5 8/8/8 7/7/7
f 9/9/9 11/11/11 10/10/10
f 9/9/9 12/12/12 11/11/11
f 13/13/13 15/15/15 14/14/14
f 13/13/13 16/16/16 15/15/15
