#Platform_for_tree(Clone)_33407_370.obj

v 0.8053463 -0.8053463 0.04852042
v -0.8053463 -0.8053463 0.04852042
v -0.8053463 0.8053463 0.0485201
v 0.8053463 0.8053463 0.0485201

vn 0 1 -1.192093E-07
vn 0 1 -1.192093E-07
vn 0 1 -1.192093E-07
vn 0 1 -1.192093E-07

vt 0.9995117 9.995699E-05
vt 9.995699E-05 9.995699E-05
vt 0.0001000166 0.9995117
vt 0.9995117 0.9995117

g Platform_for_tree(Clone)_33407_370
usemtl Platform_for_tree(Clone)_33407_370
usemap Platform_for_tree(Clone)_33407_370
f 1/1/1 3/3/3 2/2/2
f 1/1/1 4/4/4 3/3/3
