#Platform_for_grass(Clone)_36046_751.obj

v 0.4596621 0.1696481 0.006156105
v 0.4596629 -0.1696444 0.006156102
v -0.4596626 -0.1696491 0.006156009
v -0.4596629 0.1696444 0.006156011

vn 2.384186E-07 1 2.384186E-07
vn 2.384186E-07 1 2.384186E-07
vn 2.384186E-07 1 2.384186E-07
vn 2.384186E-07 1 2.384186E-07

vt 0.9995117 0.3842773
vt 0.9995117 6.198883E-05
vt 6.198883E-05 6.198883E-05
vt 6.198883E-05 0.3842773

g Platform_for_grass(Clone)_36046_751
usemtl Platform_for_grass(Clone)_36046_751
usemap Platform_for_grass(Clone)_36046_751
f 1/1/1 3/3/3 2/2/2
f 1/1/1 4/4/4 3/3/3
