#Platform_House.132_34941_423.obj

v -4.993954 -3.049862 0.2307382
v 3.672122 -3.049845 0.2307374
v 5.531837 -3.049848 -0.2307384
v -4.993954 -3.049862 -0.2307374
v 3.672122 -3.049845 0.2307374
v 3.672118 3.843186 0.2307378
v 5.531833 3.843183 -0.230738
v 5.531837 -3.049848 -0.2307384
v -4.993942 3.843169 0.2307385
v -4.993954 -3.049862 0.2307382
v -4.993954 -3.049862 -0.2307374
v -4.993942 3.843169 -0.230737
v 3.672118 3.843186 0.2307378
v -4.993942 3.843169 0.2307385
v -4.993942 3.843169 -0.230737
v 5.531833 3.843183 -0.230738

vn 1.728535E-06 -1.788139E-07 1
vn 1.728535E-06 -1.788139E-07 1
vn 1.728535E-06 -1.788139E-07 1
vn 1.728535E-06 -1.788139E-07 1
vn 0.2407227 0.9702148 -2.980232E-07
vn 0.2407227 0.9702148 -2.980232E-07
vn 0.2407227 0.9702148 -2.980232E-07
vn 0.2407227 0.9702148 -2.980232E-07
vn -1 5.960464E-08 1.728535E-06
vn -1 5.960464E-08 1.728535E-06
vn -1 5.960464E-08 1.728535E-06
vn -1 5.960464E-08 1.728535E-06
vn -1.728535E-06 1.788139E-07 -1
vn -1.728535E-06 1.788139E-07 -1
vn -1.728535E-06 1.788139E-07 -1
vn -1.728535E-06 1.788139E-07 -1

vt 1 0.9995117
vt -5.960464E-08 1
vt 5.960464E-08 2.264977E-06
vt 1 0
vt 1 0.9995117
vt -5.960464E-08 1
vt 0 1.609325E-06
vt 1 0
vt 1 0.9995117
vt -5.960464E-08 1
vt 5.960464E-08 7.152557E-07
vt 1 0
vt 0.9995117 0.9995117
vt -1.192093E-07 1
vt 0 1.788139E-06
vt 0.9995117 0

g Platform_House.132_34941_423
usemtl Platform_House.132_34941_423
usemap Platform_House.132_34941_423
f 1/1/1 3/3/3 2/2/2
f 1/1/1 4/4/4 3/3/3
f 5/5/5 7/7/7 6/6/6
f 5/5/5 8/8/8 7/7/7
f 9/9/9 11/11/11 10/10/10
f 9/9/9 12/12/12 11/11/11
f 13/13/13 15/15/15 14/14/14
f 13/13/13 16/16/16 15/15/15
