#Platform_for_tree(Clone)_36949_413.obj

v -0.9999983 -0.9999993 0.3763227
v -0.9999969 -0.999998 -1.474503
v -1.000003 1.000001 -1.474504
v -1.000004 0.9999992 0.376322
v -1.000004 0.9999992 0.376322
v -1.000003 1.000001 -1.474504
v 0.9999999 0.9999992 -1.474503
v 0.9999985 0.9999977 0.3763225
v 0.9999985 0.9999977 0.3763225
v 0.9999999 0.9999992 -1.474503
v 0.9999956 -1.000003 -1.474504
v 1.000004 -1.000001 0.3763232
v 1.000004 -1.000001 0.3763232
v 0.9999956 -1.000003 -1.474504
v -0.9999969 -0.999998 -1.474503
v -0.9999983 -0.9999993 0.3763227
v 0.8053406 -0.8053429 0.376322
v 0.8053429 -0.8053437 0.04852002
v 0.8053451 0.8053447 0.04852046
v 0.8053428 0.8053456 0.3763224
v -0.8053445 -0.8053421 0.3763223
v -0.9999983 -0.9999993 0.3763227
v -1.000004 0.9999992 0.376322
v -0.8053424 0.8053464 0.3763228
v 0.9999985 0.9999977 0.3763225
v 0.8053428 0.8053456 0.3763224
v 1.000004 -1.000001 0.3763232
v 0.8053406 -0.8053429 0.376322
v -0.8053424 0.8053464 0.3763228
v -0.8053402 0.8053455 0.0485208
v -0.8053423 -0.805343 0.04852036
v -0.8053445 -0.8053421 0.3763223
v -0.8053445 -0.8053421 0.3763223
v -0.8053423 -0.805343 0.04852036
v 0.8053429 -0.8053437 0.04852002
v 0.8053406 -0.8053429 0.376322
v 0.8053428 0.8053456 0.3763224
v 0.8053451 0.8053447 0.04852046
v -0.8053402 0.8053455 0.0485208
v -0.8053424 0.8053464 0.3763228

vn -0.9350586 0.0579834 -0.3491211
vn -0.9350586 0.0579834 -0.3491211
vn -0.9350586 0.0579834 -0.3491211
vn -0.9350586 0.0579834 -0.3491211
vn 0.3500977 0.01128387 -0.9365234
vn 0.3500977 0.01128387 -0.9365234
vn 0.3500977 0.01128387 -0.9365234
vn 0.3500977 0.01128387 -0.9365234
vn 0.9350586 -0.0579834 0.3491211
vn 0.9350586 -0.0579834 0.3491211
vn 0.9350586 -0.0579834 0.3491211
vn 0.9350586 -0.0579834 0.3491211
vn -0.3500977 -0.01128387 0.9365234
vn -0.3500977 -0.01128387 0.9365234
vn -0.3500977 -0.01128387 0.9365234
vn -0.3500977 -0.01128387 0.9365234
vn -0.9350586 0.0579834 -0.3491211
vn -0.9350586 0.0579834 -0.3491211
vn -0.9350586 0.0579834 -0.3491211
vn -0.9350586 0.0579834 -0.3491211
vn 0.05038452 0.9980469 0.03086853
vn 0.05038452 0.9980469 0.03086853
vn 0.05038452 0.9980469 0.03086853
vn 0.05038452 0.9980469 0.03086853
vn 0.05038452 0.9980469 0.03086853
vn 0.05038452 0.9980469 0.03086853
vn 0.05038452 0.9980469 0.03086853
vn 0.05038452 0.9980469 0.03086853
vn 0.9350586 -0.0579834 0.3491211
vn 0.9350586 -0.0579834 0.3491211
vn 0.9350586 -0.0579834 0.3491211
vn 0.9350586 -0.0579834 0.3491211
vn 0.3500977 0.01128387 -0.9365234
vn 0.3500977 0.01128387 -0.9365234
vn 0.3500977 0.01128387 -0.9365234
vn 0.3500977 0.01128387 -0.9365234
vn -0.3500977 -0.01128387 0.9365234
vn -0.3500977 -0.01128387 0.9365234
vn -0.3500977 -0.01128387 0.9365234
vn -0.3500977 -0.01128387 0.9365234

vt 0.295166 0.2868652
vt 0.295166 -0.6381836
vt 1.294922 -0.6381836
vt 1.294922 0.2868652
vt 0.348877 0.2868652
vt 0.348877 -0.6381836
vt 1.348633 -0.6381836
vt 1.348633 0.2868652
vt 0.295166 0.2868652
vt 0.295166 -0.6381836
vt -0.7045898 -0.6381836
vt -0.7045898 0.2868652
vt 0.348877 0.2868652
vt 0.348877 -0.6381836
vt -0.6508789 -0.6381836
vt -0.6508789 0.2868652
vt 0.3925781 0.2868652
vt 0.3925781 0.1229248
vt 1.197266 0.1229248
vt 1.197266 0.2868652
vt 0.1544189 0.8481445
vt 0.07098389 0.7646484
vt 0.07098389 1.62207
vt 0.1544189 1.539063
vt 0.9287109 1.62207
vt 0.8452148 1.539063
vt 0.9287109 0.7646484
vt 0.8452148 0.8481445
vt 0.197876 0.2868652
vt 0.197876 0.1229248
vt -0.6069336 0.1229248
vt -0.6069336 0.2868652
vt 0.4462891 0.2868652
vt 0.4462891 0.1229248
vt 1.250977 0.1229248
vt 1.250977 0.2868652
vt 0.2514648 0.2868652
vt 0.2514648 0.1229248
vt -0.5532227 0.1229248
vt -0.5532227 0.2868652

g Platform_for_tree(Clone)_36949_413
usemtl Platform_for_tree(Clone)_36949_413
usemap Platform_for_tree(Clone)_36949_413
f 1/1/1 3/3/3 2/2/2
f 1/1/1 4/4/4 3/3/3
f 5/5/5 7/7/7 6/6/6
f 5/5/5 8/8/8 7/7/7
f 9/9/9 11/11/11 10/10/10
f 9/9/9 12/12/12 11/11/11
f 13/13/13 15/15/15 14/14/14
f 13/13/13 16/16/16 15/15/15
f 17/17/17 19/19/19 18/18/18
f 17/17/17 20/20/20 19/19/19
f 21/21/21 23/23/23 22/22/22
f 21/21/21 24/24/24 23/23/23
f 24/24/24 25/25/25 23/23/23
f 24/24/24 26/26/26 25/25/25
f 26/26/26 27/27/27 25/25/25
f 26/26/26 28/28/28 27/27/27
f 28/28/28 22/22/22 27/27/27
f 28/28/28 21/21/21 22/22/22
f 29/29/29 31/31/31 30/30/30
f 29/29/29 32/32/32 31/31/31
f 33/33/33 35/35/35 34/34/34
f 33/33/33 36/36/36 35/35/35
f 37/37/37 39/39/39 38/38/38
f 37/37/37 40/40/40 39/39/39
