#Platform_for_tree(Clone)_35341_424.obj

v 0.8053439 -0.805344 0.04852042
v -0.805343 -0.8053457 0.04852043
v -0.8053439 0.805344 0.0485201
v 0.805343 0.8053457 0.04852009

vn 5.960464E-08 1 -1.788139E-07
vn 5.960464E-08 1 -1.788139E-07
vn 5.960464E-08 1 -1.788139E-07
vn 5.960464E-08 1 -1.788139E-07

vt 0.9995117 9.995699E-05
vt 9.995699E-05 9.995699E-05
vt 0.0001000166 0.9995117
vt 0.9995117 0.9995117

g Platform_for_tree(Clone)_35341_424
usemtl Platform_for_tree(Clone)_35341_424
usemap Platform_for_tree(Clone)_35341_424
f 1/1/1 3/3/3 2/2/2
f 1/1/1 4/4/4 3/3/3
