#Platform_for_tree(Clone)_34002_518.obj

v 0.8053463 -0.8053355 0.04852064
v -0.8053463 -0.8053355 0.04852064
v -0.8053463 0.8053355 0.04852032
v 0.8053463 0.8053355 0.04852032

vn 0 1 -1.192093E-07
vn 0 1 -1.192093E-07
vn 0 1 -1.192093E-07
vn 0 1 -1.192093E-07

vt 0.9995117 9.995699E-05
vt 9.995699E-05 9.995699E-05
vt 0.0001000166 0.9995117
vt 0.9995117 0.9995117

g Platform_for_tree(Clone)_34002_518
usemtl Platform_for_tree(Clone)_34002_518
usemap Platform_for_tree(Clone)_34002_518
f 1/1/1 3/3/3 2/2/2
f 1/1/1 4/4/4 3/3/3
