#Police_Department_34106_380.obj

v -612.8897 -536.2831 497.9783
v -691.593 -536.2831 497.9782
v -691.5929 -536.2831 419.2766
v -612.8915 723.5565 -446.9226
v 646.9062 723.5565 -446.9223
v 646.9062 802.2966 -446.9223
v -612.8915 802.2966 -446.9227
v -612.8896 802.2967 419.2781
v -612.8896 723.5566 419.2765
v -612.8915 723.5565 -446.9226
v -612.8915 802.2966 -446.9227
v 646.9081 723.5566 419.2768
v -612.8896 723.5566 419.2765
v -612.8896 802.2967 419.2781
v 646.9081 802.2967 419.2768
v 646.9081 723.5566 419.2768
v 646.9081 802.2967 419.2768
v 646.9062 802.2966 -446.9223
v 646.9062 723.5565 -446.9223
v 725.7066 -536.2831 419.2772
v 725.7065 -536.2831 497.9788
v 646.908 -536.2831 497.9787
v 725.7081 -536.2831 -525.6252
v 725.7079 -536.2831 -446.922
v 646.9063 -536.2831 -525.6254
v -612.8914 -536.2831 -525.6257
v -691.5915 -536.2831 -446.9226
v -691.5947 -536.2831 -525.6242
v -770.3898 -693.7642 -604.4212
v 804.4082 -693.7642 -604.422
v 725.7081 -536.2831 -525.6252
v 646.9063 -536.2831 -525.6254
v -691.5947 -536.2831 -525.6242
v -691.593 -536.2831 497.9782
v -770.3884 -693.7642 576.6781
v -770.3898 -693.7642 -604.4212
v -691.5947 -536.2831 -525.6242
v -691.5929 -536.2831 419.2766
v -691.5915 -536.2831 -446.9226
v 725.7065 -536.2831 497.9788
v 804.4064 -693.7642 576.6773
v -770.3884 -693.7642 576.6781
v 646.908 -536.2831 497.9787
v -691.593 -536.2831 497.9782
v 725.7081 -536.2831 -525.6252
v 804.4082 -693.7642 -604.422
v 804.4064 -693.7642 576.6773
v 725.7065 -536.2831 497.9788
v 725.7079 -536.2831 -446.922
v 725.7066 -536.2831 419.2772

vn 0 1 1.192093E-07
vn 0 1 1.192093E-07
vn 0 1 1.192093E-07
vn -1.549721E-06 1.192093E-07 -1
vn -1.549721E-06 1.192093E-07 -1
vn -1.549721E-06 1.192093E-07 -1
vn -1.549721E-06 1.192093E-07 -1
vn -1 0 1.549721E-06
vn -1 0 1.549721E-06
vn -1 0 1.549721E-06
vn -1 0 1.549721E-06
vn 1.549721E-06 -1.192093E-07 1
vn 1.549721E-06 -1.192093E-07 1
vn 1.549721E-06 -1.192093E-07 1
vn 1.549721E-06 -1.192093E-07 1
vn 1 0 -1.549721E-06
vn 1 0 -1.549721E-06
vn 1 0 -1.549721E-06
vn 1 0 -1.549721E-06
vn 0 1 1.192093E-07
vn 0 1 1.192093E-07
vn 0 1 1.192093E-07
vn 0 1 1.192093E-07
vn 0 1 1.192093E-07
vn 0 1 1.192093E-07
vn 0 1 1.192093E-07
vn 0 1 1.192093E-07
vn 0 1 1.192093E-07
vn -1.370907E-06 0.4472656 -0.894043
vn -1.370907E-06 0.4472656 -0.894043
vn -1.370907E-06 0.4472656 -0.894043
vn -1.370907E-06 0.4472656 -0.894043
vn -1.370907E-06 0.4472656 -0.894043
vn -0.894043 0.4472656 1.430511E-06
vn -0.894043 0.4472656 1.430511E-06
vn -0.894043 0.4472656 1.430511E-06
vn -0.894043 0.4472656 1.430511E-06
vn -0.894043 0.4472656 1.430511E-06
vn -0.894043 0.4472656 1.430511E-06
vn 1.370907E-06 0.4470215 0.894043
vn 1.370907E-06 0.4470215 0.894043
vn 1.370907E-06 0.4470215 0.894043
vn 1.370907E-06 0.4470215 0.894043
vn 1.370907E-06 0.4470215 0.894043
vn 0.894043 0.4470215 -1.311302E-06
vn 0.894043 0.4470215 -1.311302E-06
vn 0.894043 0.4470215 -1.311302E-06
vn 0.894043 0.4470215 -1.311302E-06
vn 0.894043 0.4470215 -1.311302E-06
vn 0.894043 0.4470215 -1.311302E-06

vt 2 1
vt 1 1
vt 1 2
vt -2 20
vt -18 20
vt -18 21
vt -2 21
vt -2 21
vt -2 20
vt -13 20
vt -13 21
vt 18 20
vt 2 20
vt 2 21
vt 18 21
vt 2 20
vt 2 21
vt 13 21
vt 13 20
vt 19 2
vt 19 1
vt 18 1
vt 19 14
vt 19 13
vt 18 14
vt 2 14
vt 1 13
vt 1 14
vt 107 122.75
vt 87 122.75
vt 88 125
vt 89 125
vt 106 125
vt 283.75 -42.96875
vt 284.75 -45.1875
vt 269.75 -45.1875
vt 270.75 -42.96875
vt 282.75 -42.96875
vt 271.75 -42.96875
vt -86.9375 -122.9375
vt -85.9375 -125.1875
vt -105.9375 -125.1875
vt -87.9375 -122.9375
vt -104.9375 -122.9375
vt -269.75 43
vt -268.75 40.75
vt -283.75 40.75
vt -282.75 43
vt -270.75 43
vt -281.75 43

g Police_Department_34106_380
usemtl Police_Department_34106_380
usemap Police_Department_34106_380
f 1/1/1 3/3/3 2/2/2
f 4/4/4 6/6/6 5/5/5
f 4/4/4 7/7/7 6/6/6
f 8/8/8 10/10/10 9/9/9
f 8/8/8 11/11/11 10/10/10
f 12/12/12 14/14/14 13/13/13
f 12/12/12 15/15/15 14/14/14
f 16/16/16 18/18/18 17/17/17
f 16/16/16 19/19/19 18/18/18
f 20/20/20 22/22/22 21/21/21
f 23/23/23 25/25/25 24/24/24
f 26/26/26 28/28/28 27/27/27
f 29/29/29 31/31/31 30/30/30
f 31/31/31 29/29/29 32/32/32
f 32/32/32 29/29/29 33/33/33
f 34/34/34 36/36/36 35/35/35
f 36/36/36 34/34/34 37/37/37
f 37/37/37 34/34/34 38/38/38
f 37/37/37 38/38/38 39/39/39
f 40/40/40 42/42/42 41/41/41
f 42/42/42 40/40/40 43/43/43
f 42/42/42 43/43/43 44/44/44
f 45/45/45 47/47/47 46/46/46
f 47/47/47 45/45/45 48/48/48
f 48/48/48 45/45/45 49/49/49
f 48/48/48 49/49/49 50/50/50
