#Police_Department_34106_381.obj

v -691.5929 -536.2831 419.2766
v -691.5929 723.5566 419.278
v -612.8897 723.5566 497.9781
v -612.8897 -536.2831 497.9783
v -612.8897 723.5566 497.9781
v 646.908 723.5566 497.9785
v 646.908 -536.2831 497.9787
v -612.8897 -536.2831 497.9783
v 646.908 -536.2831 497.9787
v 646.908 723.5566 497.9785
v 725.7066 723.5566 419.2769
v 725.7066 -536.2831 419.2772
v -691.5929 723.5566 419.278
v -691.5929 -536.2831 419.2766
v -691.5915 -536.2831 -446.9226
v -691.5915 723.5565 -446.9211
v -691.5915 -536.2831 -446.9226
v -612.8914 -536.2831 -525.6257
v -612.8914 723.5566 -525.6243
v -691.5915 723.5565 -446.9211
v 646.9063 -536.2831 -525.6254
v 646.9063 723.5566 -525.6256
v -612.8914 723.5566 -525.6243
v -612.8914 -536.2831 -525.6257
v 725.7079 -536.2831 -446.922
v 725.7079 723.5565 -446.9222
v 646.9063 723.5566 -525.6256
v 646.9063 -536.2831 -525.6254
v 804.4064 -851.2442 576.6774
v 804.4064 -693.7642 576.6773
v 804.4082 -693.7642 -604.422
v 804.4082 -851.2442 -604.4219
v -770.3898 -851.2442 -604.4211
v 804.4082 -851.2442 -604.4219
v 804.4082 -693.7642 -604.422
v -770.3898 -693.7642 -604.4212
v -770.3884 -693.7642 576.6781
v -770.3884 -851.2442 576.6782
v -770.3898 -851.2442 -604.4211
v -770.3898 -693.7642 -604.4212
v 804.4064 -851.2442 576.6774
v -770.3884 -851.2442 576.6782
v -770.3884 -693.7642 576.6781
v 804.4064 -693.7642 576.6773
v 725.7066 -536.2831 419.2772
v 725.7066 723.5566 419.2769
v 725.7079 723.5565 -446.9222
v 725.7079 -536.2831 -446.922

vn -0.7070313 -5.960464E-08 0.7070313
vn -0.7070313 -5.960464E-08 0.7070313
vn -0.7070313 -5.960464E-08 0.7070313
vn -0.7070313 -5.960464E-08 0.7070313
vn 1.549721E-06 -1.192093E-07 1
vn 1.549721E-06 -1.192093E-07 1
vn 1.549721E-06 -1.192093E-07 1
vn 1.549721E-06 -1.192093E-07 1
vn 0.706543 -5.960464E-08 0.7075195
vn 0.706543 -5.960464E-08 0.7075195
vn 0.706543 -5.960464E-08 0.7075195
vn 0.706543 -5.960464E-08 0.7075195
vn -1 0 1.549721E-06
vn -1 0 1.549721E-06
vn -1 0 1.549721E-06
vn -1 0 1.549721E-06
vn -0.7070313 5.960464E-08 -0.7070313
vn -0.7070313 5.960464E-08 -0.7070313
vn -0.7070313 5.960464E-08 -0.7070313
vn -0.7070313 5.960464E-08 -0.7070313
vn -1.549721E-06 1.192093E-07 -1
vn -1.549721E-06 1.192093E-07 -1
vn -1.549721E-06 1.192093E-07 -1
vn -1.549721E-06 1.192093E-07 -1
vn 0.706543 5.960464E-08 -0.7075195
vn 0.706543 5.960464E-08 -0.7075195
vn 0.706543 5.960464E-08 -0.7075195
vn 0.706543 5.960464E-08 -0.7075195
vn 1 0 -1.549721E-06
vn 1 0 -1.549721E-06
vn 1 0 -1.549721E-06
vn 1 0 -1.549721E-06
vn -1.549721E-06 1.192093E-07 -1
vn -1.549721E-06 1.192093E-07 -1
vn -1.549721E-06 1.192093E-07 -1
vn -1.549721E-06 1.192093E-07 -1
vn -1 0 1.549721E-06
vn -1 0 1.549721E-06
vn -1 0 1.549721E-06
vn -1 0 1.549721E-06
vn 1.549721E-06 -1.192093E-07 1
vn 1.549721E-06 -1.192093E-07 1
vn 1.549721E-06 -1.192093E-07 1
vn 1.549721E-06 -1.192093E-07 1
vn 1 0 -1.549721E-06
vn 1 0 -1.549721E-06
vn 1 0 -1.549721E-06
vn 1 0 -1.549721E-06

vt -0.7070313 2
vt -0.7070313 10
vt 0.7070313 10
vt 0.7070313 2
vt 2 10
vt 18 10
vt 18 2
vt 2 2
vt -262.5 1.998047
vt -262.5 9.992188
vt -261.25 9.992188
vt -261.25 1.998047
vt -2 10
vt -2 2
vt -13 2
vt -13 10
vt 265.5 1.999023
vt 264.25 1.999023
vt 264.25 9.992188
vt 265.5 9.992188
vt -18 2
vt -18 10
vt -2 10
vt -2 2
vt -129.625 1.993164
vt -129.625 9.992188
vt -128.25 9.992188
vt -128.25 1.993164
vt 0 0
vt 0 1
vt 15 1
vt 15 0
vt 0 0
vt -20 0
vt -20 1
vt 0 1
vt 0 1
vt 0 0
vt -15 0
vt -15 1
vt 20 0
vt 0 0
vt 0 1
vt 20 1
vt 2 2
vt 2 10
vt 13 10
vt 13 2

g Police_Department_34106_381
usemtl Police_Department_34106_381
usemap Police_Department_34106_381
f 1/1/1 3/3/3 2/2/2
f 1/1/1 4/4/4 3/3/3
f 5/5/5 7/7/7 6/6/6
f 5/5/5 8/8/8 7/7/7
f 9/9/9 11/11/11 10/10/10
f 9/9/9 12/12/12 11/11/11
f 13/13/13 15/15/15 14/14/14
f 13/13/13 16/16/16 15/15/15
f 17/17/17 19/19/19 18/18/18
f 17/17/17 20/20/20 19/19/19
f 21/21/21 23/23/23 22/22/22
f 21/21/21 24/24/24 23/23/23
f 25/25/25 27/27/27 26/26/26
f 25/25/25 28/28/28 27/27/27
f 29/29/29 31/31/31 30/30/30
f 29/29/29 32/32/32 31/31/31
f 33/33/33 35/35/35 34/34/34
f 33/33/33 36/36/36 35/35/35
f 37/37/37 39/39/39 38/38/38
f 37/37/37 40/40/40 39/39/39
f 41/41/41 43/43/43 42/42/42
f 41/41/41 44/44/44 43/43/43
f 45/45/45 47/47/47 46/46/46
f 45/45/45 48/48/48 47/47/47
