#Ramp_Arrows_33178_133.obj

v 0.3333831 4.019323 0.3279352
v -1.466003E-05 4.019295 0.3279352
v 1.342302E-05 5.37793 0.1106241
v 0.3333846 5.37791 0.1106241
v 0.3333613 1.817595 0.6981393
v -9.846908E-06 1.817616 0.6981393
v 9.244204E-06 3.21079 0.4647091
v 0.3333804 3.21077 0.4647091
v 0.3333652 -0.4730168 1.086538
v 4.836E-06 -0.4730341 1.086538
v -3.803144E-06 0.7674738 0.865201
v 0.333394 0.767502 0.865201
v -0.3333858 4.019315 0.3279352
v -0.3333844 5.377902 0.1106241
v 1.342302E-05 5.37793 0.1106241
v -1.466003E-05 4.019295 0.3279352
v -0.3333702 1.817598 0.6981393
v -0.3333885 3.210762 0.4647091
v 9.244204E-06 3.21079 0.4647091
v -9.846908E-06 1.817616 0.6981393
v -0.3333663 -0.473014 1.086538
v -0.333375 0.7674939 0.865201
v -3.803144E-06 0.7674738 0.865201
v 4.836E-06 -0.4730341 1.086538

vn -0.1516113 0.9873047 -0.04388428
vn -0.1516113 0.9873047 -0.04388428
vn -0.1516113 0.9873047 -0.04388428
vn -0.1516113 0.9873047 -0.04388428
vn -0.1586914 0.9858398 -0.04589844
vn -0.1586914 0.9858398 -0.04589844
vn -0.1586914 0.9858398 -0.04589844
vn -0.1586914 0.9858398 -0.04589844
vn -0.1687012 0.984375 -0.04879761
vn -0.1687012 0.984375 -0.04879761
vn -0.1687012 0.984375 -0.04879761
vn -0.1687012 0.984375 -0.04879761
vn -0.1516113 0.9873047 -0.04388428
vn -0.1516113 0.9873047 -0.04388428
vn -0.1516113 0.9873047 -0.04388428
vn -0.1516113 0.9873047 -0.04388428
vn -0.1586914 0.9858398 -0.04589844
vn -0.1586914 0.9858398 -0.04589844
vn -0.1586914 0.9858398 -0.04589844
vn -0.1586914 0.9858398 -0.04589844
vn -0.1687012 0.984375 -0.04879761
vn -0.1687012 0.984375 -0.04879761
vn -0.1687012 0.984375 -0.04879761
vn -0.1687012 0.984375 -0.04879761

vt 0.004650116 0.01269531
vt 0.004650116 0.9624023
vt 1 0.9624023
vt 0.9995117 0.01269531
vt 0.004650116 0.01269531
vt 0.004650116 0.9624023
vt 1 0.9624023
vt 0.9995117 0.01269531
vt 0.004650116 0.01269531
vt 0.004650116 0.9624023
vt 1 0.9624023
vt 0.9995117 0.01269531
vt 0.004650116 0.01269531
vt 0.9995117 0.01269531
vt 1 0.9624023
vt 0.004650116 0.9624023
vt 0.004650116 0.01269531
vt 0.9995117 0.01269531
vt 1 0.9624023
vt 0.004650116 0.9624023
vt 0.004650116 0.01269531
vt 0.9995117 0.01269531
vt 1 0.9624023
vt 0.004650116 0.9624023

g Ramp_Arrows_33178_133
usemtl Ramp_Arrows_33178_133
usemap Ramp_Arrows_33178_133
f 1/1/1 3/3/3 2/2/2
f 1/1/1 4/4/4 3/3/3
f 5/5/5 7/7/7 6/6/6
f 5/5/5 8/8/8 7/7/7
f 9/9/9 11/11/11 10/10/10
f 9/9/9 12/12/12 11/11/11
f 13/13/13 15/15/15 14/14/14
f 13/13/13 16/16/16 15/15/15
f 17/17/17 19/19/19 18/18/18
f 17/17/17 20/20/20 19/19/19
f 21/21/21 23/23/23 22/22/22
f 21/21/21 24/24/24 23/23/23
