#Ramp_Arrows_37965_121.obj

v 0.3333821 4.019319 0.3279355
v -6.03272E-08 4.019317 0.3279356
v 3.433228E-06 5.377921 0.1106247
v 0.3333856 5.377923 0.1106248
v 0.3333921 1.817594 0.6981394
v 9.896014E-06 1.817593 0.6981394
v -1.06729E-05 3.21079 0.4647093
v 0.3333715 3.210792 0.4647093
v 0.3333712 -0.473023 1.086538
v -1.10018E-05 -0.4730244 1.086538
v -9.501298E-06 0.7675071 0.8652012
v 0.3333623 0.767492 0.8652011
v -0.3333822 4.019316 0.3279356
v -0.3333787 5.37792 0.1106248
v 3.433228E-06 5.377921 0.1106247
v -6.03272E-08 4.019317 0.3279356
v -0.3333723 1.817591 0.6981394
v -0.3333928 3.210789 0.4647094
v -1.06729E-05 3.21079 0.4647093
v 9.896014E-06 1.817593 0.6981394
v -0.3333932 -0.4730258 1.086537
v -0.3333917 0.7675056 0.8652011
v -9.501298E-06 0.7675071 0.8652012
v -1.10018E-05 -0.4730244 1.086538

vn 0.1335449 0.9873047 -0.08422852
vn 0.1335449 0.9873047 -0.08422852
vn 0.1335449 0.9873047 -0.08422852
vn 0.1335449 0.9873047 -0.08422852
vn 0.1396484 0.9858398 -0.08813477
vn 0.1396484 0.9858398 -0.08813477
vn 0.1396484 0.9858398 -0.08813477
vn 0.1396484 0.9858398 -0.08813477
vn 0.1484375 0.984375 -0.09368896
vn 0.1484375 0.984375 -0.09368896
vn 0.1484375 0.984375 -0.09368896
vn 0.1484375 0.984375 -0.09368896
vn 0.1335449 0.9873047 -0.08422852
vn 0.1335449 0.9873047 -0.08422852
vn 0.1335449 0.9873047 -0.08422852
vn 0.1335449 0.9873047 -0.08422852
vn 0.1396484 0.9858398 -0.08813477
vn 0.1396484 0.9858398 -0.08813477
vn 0.1396484 0.9858398 -0.08813477
vn 0.1396484 0.9858398 -0.08813477
vn 0.1484375 0.984375 -0.09368896
vn 0.1484375 0.984375 -0.09368896
vn 0.1484375 0.984375 -0.09368896
vn 0.1484375 0.984375 -0.09368896

vt 0.004650116 0.01269531
vt 0.004650116 0.9624023
vt 1 0.9624023
vt 0.9995117 0.01269531
vt 0.004650116 0.01269531
vt 0.004650116 0.9624023
vt 1 0.9624023
vt 0.9995117 0.01269531
vt 0.004650116 0.01269531
vt 0.004650116 0.9624023
vt 1 0.9624023
vt 0.9995117 0.01269531
vt 0.004650116 0.01269531
vt 0.9995117 0.01269531
vt 1 0.9624023
vt 0.004650116 0.9624023
vt 0.004650116 0.01269531
vt 0.9995117 0.01269531
vt 1 0.9624023
vt 0.004650116 0.9624023
vt 0.004650116 0.01269531
vt 0.9995117 0.01269531
vt 1 0.9624023
vt 0.004650116 0.9624023

g Ramp_Arrows_37965_121
usemtl Ramp_Arrows_37965_121
usemap Ramp_Arrows_37965_121
f 1/1/1 3/3/3 2/2/2
f 1/1/1 4/4/4 3/3/3
f 5/5/5 7/7/7 6/6/6
f 5/5/5 8/8/8 7/7/7
f 9/9/9 11/11/11 10/10/10
f 9/9/9 12/12/12 11/11/11
f 13/13/13 15/15/15 14/14/14
f 13/13/13 16/16/16 15/15/15
f 17/17/17 19/19/19 18/18/18
f 17/17/17 20/20/20 19/19/19
f 21/21/21 23/23/23 22/22/22
f 21/21/21 24/24/24 23/23/23
