#Ramp_Arrows_37101_116.obj

v 0.3333901 4.019317 0.3279342
v -1.56055E-05 4.019315 0.3279341
v 1.584708E-05 5.377914 0.1106228
v 0.3333848 5.377915 0.1106228
v 0.3333619 1.817603 0.6981387
v -6.963252E-06 1.817602 0.6981388
v -1.243165E-05 3.210777 0.4647081
v 0.3333932 3.210778 0.4647082
v 0.3333709 -0.4730347 1.086538
v 2.028596E-06 -0.4730361 1.086538
v -2.842928E-06 0.7674878 0.8652007
v 0.3333661 0.7674891 0.8652008
v -0.3333845 4.019314 0.3279341
v -0.3333898 5.377931 0.1106228
v 1.584708E-05 5.377914 0.1106228
v -1.56055E-05 4.019315 0.3279341
v -0.3333759 1.8176 0.6981387
v -0.3333813 3.210776 0.4647082
v -1.243165E-05 3.210777 0.4647081
v -6.963252E-06 1.817602 0.6981388
v -0.3333669 -0.4730373 1.086538
v -0.3333717 0.7674865 0.8652008
v -2.842928E-06 0.7674878 0.8652007
v 2.028596E-06 -0.4730361 1.086538

vn 4.172325E-07 0.9873047 -0.1578369
vn 4.172325E-07 0.9873047 -0.1578369
vn 4.172325E-07 0.9873047 -0.1578369
vn 4.172325E-07 0.9873047 -0.1578369
vn 4.172325E-07 0.9858398 -0.1651611
vn 4.172325E-07 0.9858398 -0.1651611
vn 4.172325E-07 0.9858398 -0.1651611
vn 4.172325E-07 0.9858398 -0.1651611
vn 4.768372E-07 0.984375 -0.1755371
vn 4.768372E-07 0.984375 -0.1755371
vn 4.768372E-07 0.984375 -0.1755371
vn 4.768372E-07 0.984375 -0.1755371
vn 4.172325E-07 0.9873047 -0.1578369
vn 4.172325E-07 0.9873047 -0.1578369
vn 4.172325E-07 0.9873047 -0.1578369
vn 4.172325E-07 0.9873047 -0.1578369
vn 4.172325E-07 0.9858398 -0.1651611
vn 4.172325E-07 0.9858398 -0.1651611
vn 4.172325E-07 0.9858398 -0.1651611
vn 4.172325E-07 0.9858398 -0.1651611
vn 4.768372E-07 0.984375 -0.1755371
vn 4.768372E-07 0.984375 -0.1755371
vn 4.768372E-07 0.984375 -0.1755371
vn 4.768372E-07 0.984375 -0.1755371

vt 0.004650116 0.01269531
vt 0.004650116 0.9624023
vt 1 0.9624023
vt 0.9995117 0.01269531
vt 0.004650116 0.01269531
vt 0.004650116 0.9624023
vt 1 0.9624023
vt 0.9995117 0.01269531
vt 0.004650116 0.01269531
vt 0.004650116 0.9624023
vt 1 0.9624023
vt 0.9995117 0.01269531
vt 0.004650116 0.01269531
vt 0.9995117 0.01269531
vt 1 0.9624023
vt 0.004650116 0.9624023
vt 0.004650116 0.01269531
vt 0.9995117 0.01269531
vt 1 0.9624023
vt 0.004650116 0.9624023
vt 0.004650116 0.01269531
vt 0.9995117 0.01269531
vt 1 0.9624023
vt 0.004650116 0.9624023

g Ramp_Arrows_37101_116
usemtl Ramp_Arrows_37101_116
usemap Ramp_Arrows_37101_116
f 1/1/1 3/3/3 2/2/2
f 1/1/1 4/4/4 3/3/3
f 5/5/5 7/7/7 6/6/6
f 5/5/5 8/8/8 7/7/7
f 9/9/9 11/11/11 10/10/10
f 9/9/9 12/12/12 11/11/11
f 13/13/13 15/15/15 14/14/14
f 13/13/13 16/16/16 15/15/15
f 17/17/17 19/19/19 18/18/18
f 17/17/17 20/20/20 19/19/19
f 21/21/21 23/23/23 22/22/22
f 21/21/21 24/24/24 23/23/23
