#Ramp_Arrows.003_38275_131.obj

v 0.333368 0.008739611 -0.05663373
v -2.378257E-05 0.008739678 -0.05663387
v -2.371857E-05 0.6826497 -0.1304062
v 0.333368 0.6826497 -0.1304063
v 0.3333679 -0.6754963 0.08402457
v -2.383764E-05 -0.6754962 0.08402462
v -0.3334155 0.008739715 -0.05663382
v -0.3334155 0.6826497 -0.1304062
v -2.371857E-05 0.6826497 -0.1304062
v -2.378257E-05 0.008739678 -0.05663387
v -0.3334156 -0.6754962 0.08402468
v -2.383764E-05 -0.6754962 0.08402462

vn 0.3039551 0.9521484 -1.192093E-07
vn 0.3039551 0.9521484 -1.192093E-07
vn 0.2590332 0.9658203 -1.192093E-07
vn 0.2590332 0.9658203 -1.192093E-07
vn 0.3483887 0.9370117 -1.192093E-07
vn 0.3483887 0.9370117 -1.192093E-07
vn 0.3039551 0.9521484 -1.192093E-07
vn 0.2590332 0.9658203 -1.192093E-07
vn 0.2590332 0.9658203 -1.192093E-07
vn 0.3039551 0.9521484 -1.192093E-07
vn 0.3483887 0.9370117 -1.192093E-07
vn 0.3483887 0.9370117 -1.192093E-07

vt 0.5019531 0.01269531
vt 0.5019531 0.9624023
vt 1 0.9624023
vt 0.9995117 0.01269531
vt 0.004650116 0.01269531
vt 0.004650116 0.9624023
vt 0.5019531 0.01269531
vt 0.9995117 0.01269531
vt 1 0.9624023
vt 0.5019531 0.9624023
vt 0.004650116 0.01269531
vt 0.004650116 0.9624023

g Ramp_Arrows.003_38275_131
usemtl Ramp_Arrows.003_38275_131
usemap Ramp_Arrows.003_38275_131
f 1/1/1 3/3/3 2/2/2
f 1/1/1 4/4/4 3/3/3
f 5/5/5 1/1/1 2/2/2
f 5/5/5 2/2/2 6/6/6
f 7/7/7 9/9/9 8/8/8
f 7/7/7 10/10/10 9/9/9
f 11/11/11 10/10/10 7/7/7
f 11/11/11 12/12/12 10/10/10
