#Ramp_Arrows_35792_132.obj

v 0.3333873 4.019324 0.3278879
v 1.083654E-05 4.019316 0.3278879
v 3.15158E-06 5.37793 0.1105609
v 0.3333796 5.377938 0.1105609
v 0.3333636 1.817601 0.6981179
v -1.280983E-05 1.817593 0.6981179
v 1.700739E-05 3.210792 0.4646712
v 0.3333935 3.2108 0.4646712
v 0.3333603 -0.4730229 1.086543
v -1.614771E-05 -0.4730308 1.086544
v 6.199862E-08 0.7675172 0.865192
v 0.3333768 0.7674862 0.865192
v -0.3333656 4.019308 0.327888
v -0.3333733 5.377922 0.1105608
v 3.15158E-06 5.37793 0.1105609
v 1.083654E-05 4.019316 0.3278879
v -0.3333895 1.817624 0.6981178
v -0.3333594 3.210784 0.4646713
v 1.700739E-05 3.210792 0.4646712
v -1.280983E-05 1.817593 0.6981179
v -0.3333929 -0.4729998 1.086544
v -0.3333764 0.7675093 0.8651921
v 6.199862E-08 0.7675172 0.865192
v -1.614771E-05 -0.4730308 1.086544

vn 0.1578369 0.9873047 0.001074791
vn 0.1578369 0.9873047 0.001074791
vn 0.1578369 0.9873047 0.001074791
vn 0.1578369 0.9873047 0.001074791
vn 0.1651611 0.9858398 0.001124382
vn 0.1651611 0.9858398 0.001124382
vn 0.1651611 0.9858398 0.001124382
vn 0.1651611 0.9858398 0.001124382
vn 0.1755371 0.984375 0.001194954
vn 0.1755371 0.984375 0.001194954
vn 0.1755371 0.984375 0.001194954
vn 0.1755371 0.984375 0.001194954
vn 0.1578369 0.9873047 0.001074791
vn 0.1578369 0.9873047 0.001074791
vn 0.1578369 0.9873047 0.001074791
vn 0.1578369 0.9873047 0.001074791
vn 0.1651611 0.9858398 0.001124382
vn 0.1651611 0.9858398 0.001124382
vn 0.1651611 0.9858398 0.001124382
vn 0.1651611 0.9858398 0.001124382
vn 0.1755371 0.984375 0.001194954
vn 0.1755371 0.984375 0.001194954
vn 0.1755371 0.984375 0.001194954
vn 0.1755371 0.984375 0.001194954

vt 0.004650116 0.01269531
vt 0.004650116 0.9624023
vt 1 0.9624023
vt 0.9995117 0.01269531
vt 0.004650116 0.01269531
vt 0.004650116 0.9624023
vt 1 0.9624023
vt 0.9995117 0.01269531
vt 0.004650116 0.01269531
vt 0.004650116 0.9624023
vt 1 0.9624023
vt 0.9995117 0.01269531
vt 0.004650116 0.01269531
vt 0.9995117 0.01269531
vt 1 0.9624023
vt 0.004650116 0.9624023
vt 0.004650116 0.01269531
vt 0.9995117 0.01269531
vt 1 0.9624023
vt 0.004650116 0.9624023
vt 0.004650116 0.01269531
vt 0.9995117 0.01269531
vt 1 0.9624023
vt 0.004650116 0.9624023

g Ramp_Arrows_35792_132
usemtl Ramp_Arrows_35792_132
usemap Ramp_Arrows_35792_132
f 1/1/1 3/3/3 2/2/2
f 1/1/1 4/4/4 3/3/3
f 5/5/5 7/7/7 6/6/6
f 5/5/5 8/8/8 7/7/7
f 9/9/9 11/11/11 10/10/10
f 9/9/9 12/12/12 11/11/11
f 13/13/13 15/15/15 14/14/14
f 13/13/13 16/16/16 15/15/15
f 17/17/17 19/19/19 18/18/18
f 17/17/17 20/20/20 19/19/19
f 21/21/21 23/23/23 22/22/22
f 21/21/21 24/24/24 23/23/23
