#Ramp_Arrows_33385_114.obj

v 0.3333795 3.306347 0.439936
v 3.967523E-07 3.306348 0.4399361
v 5.144866E-07 4.664008 0.2170396
v 0.3333796 4.664008 0.2170396
v 0.3333792 0.3128519 0.956218
v 1.409019E-07 0.3128519 0.9562181
v 2.458139E-07 1.55337 0.7348808
v 0.3333793 1.55337 0.7348807
v -0.3333787 3.306348 0.4399362
v -0.3333786 4.664008 0.2170397
v 5.144866E-07 4.664008 0.2170396
v 3.967523E-07 3.306348 0.4399361
v -0.3333789 0.312852 0.9562181
v -0.3333788 1.55337 0.7348809
v 2.458139E-07 1.55337 0.7348808
v 1.409019E-07 0.3128519 0.9562181

vn 0.3105469 0.9501953 -1.192093E-07
vn 0.3105469 0.9501953 -1.192093E-07
vn 0.3105469 0.9501953 -1.192093E-07
vn 0.3105469 0.9501953 -1.192093E-07
vn 0.3237305 0.9458008 -1.192093E-07
vn 0.3237305 0.9458008 -1.192093E-07
vn 0.3237305 0.9458008 -1.192093E-07
vn 0.3237305 0.9458008 -1.192093E-07
vn 0.3105469 0.9501953 -1.192093E-07
vn 0.3105469 0.9501953 -1.192093E-07
vn 0.3105469 0.9501953 -1.192093E-07
vn 0.3105469 0.9501953 -1.192093E-07
vn 0.3237305 0.9458008 -1.192093E-07
vn 0.3237305 0.9458008 -1.192093E-07
vn 0.3237305 0.9458008 -1.192093E-07
vn 0.3237305 0.9458008 -1.192093E-07

vt 0.004650116 0.01269531
vt 0.004650116 0.9624023
vt 1 0.9624023
vt 0.9995117 0.01269531
vt 0.004650116 0.01269531
vt 0.004650116 0.9624023
vt 1 0.9624023
vt 0.9995117 0.01269531
vt 0.004650116 0.01269531
vt 0.9995117 0.01269531
vt 1 0.9624023
vt 0.004650116 0.9624023
vt 0.004650116 0.01269531
vt 0.9995117 0.01269531
vt 1 0.9624023
vt 0.004650116 0.9624023

g Ramp_Arrows_33385_114
usemtl Ramp_Arrows_33385_114
usemap Ramp_Arrows_33385_114
f 1/1/1 3/3/3 2/2/2
f 1/1/1 4/4/4 3/3/3
f 5/5/5 7/7/7 6/6/6
f 5/5/5 8/8/8 7/7/7
f 9/9/9 11/11/11 10/10/10
f 9/9/9 12/12/12 11/11/11
f 13/13/13 15/15/15 14/14/14
f 13/13/13 16/16/16 15/15/15
