#Ramp_Arrows_37714_122.obj

v 0.333375 4.01933 0.3279362
v -4.792132E-06 4.019311 0.3279362
v -1.73495E-06 5.377931 0.1106255
v 0.333375 5.37791 0.1106255
v 0.333376 1.817585 0.6981397
v -8.087977E-07 1.817606 0.6981396
v 5.33118E-06 3.210795 0.4647098
v 0.3333821 3.210774 0.4647097
v 0.333375 -0.473047 1.086538
v -1.766452E-06 -0.4730262 1.086537
v -1.768068E-06 0.7674934 0.8652012
v 0.333375 0.7674726 0.8652012
v -0.3333816 4.019332 0.3279362
v -0.3333815 5.377913 0.1106255
v -1.73495E-06 5.377931 0.1106255
v -4.792132E-06 4.019311 0.3279362
v -0.3333806 1.817588 0.6981396
v -0.3333744 3.210777 0.4647098
v 5.33118E-06 3.210795 0.4647098
v -8.087977E-07 1.817606 0.6981396
v -0.3333815 -0.4730443 1.086537
v -0.3333815 0.7674753 0.8652011
v -1.768068E-06 0.7674934 0.8652012
v -1.766452E-06 -0.4730262 1.086537

vn 0.1574707 0.9873047 -0.01212311
vn 0.1574707 0.9873047 -0.01212311
vn 0.1574707 0.9873047 -0.01212311
vn 0.1574707 0.9873047 -0.01212311
vn 0.1646729 0.9858398 -0.01268005
vn 0.1646729 0.9858398 -0.01268005
vn 0.1646729 0.9858398 -0.01268005
vn 0.1646729 0.9858398 -0.01268005
vn 0.1750488 0.984375 -0.01348114
vn 0.1750488 0.984375 -0.01348114
vn 0.1750488 0.984375 -0.01348114
vn 0.1750488 0.984375 -0.01348114
vn 0.1574707 0.9873047 -0.01212311
vn 0.1574707 0.9873047 -0.01212311
vn 0.1574707 0.9873047 -0.01212311
vn 0.1574707 0.9873047 -0.01212311
vn 0.1646729 0.9858398 -0.01268005
vn 0.1646729 0.9858398 -0.01268005
vn 0.1646729 0.9858398 -0.01268005
vn 0.1646729 0.9858398 -0.01268005
vn 0.1750488 0.984375 -0.01348114
vn 0.1750488 0.984375 -0.01348114
vn 0.1750488 0.984375 -0.01348114
vn 0.1750488 0.984375 -0.01348114

vt 0.004650116 0.01269531
vt 0.004650116 0.9624023
vt 1 0.9624023
vt 0.9995117 0.01269531
vt 0.004650116 0.01269531
vt 0.004650116 0.9624023
vt 1 0.9624023
vt 0.9995117 0.01269531
vt 0.004650116 0.01269531
vt 0.004650116 0.9624023
vt 1 0.9624023
vt 0.9995117 0.01269531
vt 0.004650116 0.01269531
vt 0.9995117 0.01269531
vt 1 0.9624023
vt 0.004650116 0.9624023
vt 0.004650116 0.01269531
vt 0.9995117 0.01269531
vt 1 0.9624023
vt 0.004650116 0.9624023
vt 0.004650116 0.01269531
vt 0.9995117 0.01269531
vt 1 0.9624023
vt 0.004650116 0.9624023

g Ramp_Arrows_37714_122
usemtl Ramp_Arrows_37714_122
usemap Ramp_Arrows_37714_122
f 1/1/1 3/3/3 2/2/2
f 1/1/1 4/4/4 3/3/3
f 5/5/5 7/7/7 6/6/6
f 5/5/5 8/8/8 7/7/7
f 9/9/9 11/11/11 10/10/10
f 9/9/9 12/12/12 11/11/11
f 13/13/13 15/15/15 14/14/14
f 13/13/13 16/16/16 15/15/15
f 17/17/17 19/19/19 18/18/18
f 17/17/17 20/20/20 19/19/19
f 21/21/21 23/23/23 22/22/22
f 21/21/21 24/24/24 23/23/23
