#Ramp_Arrows.002_33282_155.obj

v 0.3333806 -0.6792973 0.1086567
v 1.688583E-05 -0.679283 0.1086589
v -1.67319E-05 0.6793235 -0.1086527
v 0.3333851 0.6793135 -0.1086543
v -0.3333849 -0.679273 0.1086603
v -0.3333805 0.6793378 -0.1086505
v -1.67319E-05 0.6793235 -0.1086527
v 1.688583E-05 -0.679283 0.1086589

vn -0.3046875 0.9516602 -0.03518677
vn -0.3046875 0.9516602 -0.03518677
vn -0.3046875 0.9516602 -0.03518677
vn -0.3046875 0.9516602 -0.03518677
vn -0.3046875 0.9516602 -0.03518677
vn -0.3046875 0.9516602 -0.03518677
vn -0.3046875 0.9516602 -0.03518677
vn -0.3046875 0.9516602 -0.03518677

vt 0.004650116 0.01269531
vt 0.004650116 0.9624023
vt 1 0.9624023
vt 0.9995117 0.01269531
vt 0.004650116 0.01269531
vt 0.9995117 0.01269531
vt 1 0.9624023
vt 0.004650116 0.9624023

g Ramp_Arrows.002_33282_155
usemtl Ramp_Arrows.002_33282_155
usemap Ramp_Arrows.002_33282_155
f 1/1/1 3/3/3 2/2/2
f 1/1/1 4/4/4 3/3/3
f 5/5/5 7/7/7 6/6/6
f 5/5/5 8/8/8 7/7/7
