#Ramp_Arrows.001_35237_147.obj

v 0.3333639 3.367962 0.4377098
v 3.602694E-06 3.367976 0.4377101
v -4.119865E-06 4.726583 0.2203989
v 0.3333814 4.726568 0.2203987
v 0.3333781 0.4626938 0.9312602
v -7.482408E-06 0.4627081 0.9312603
v -1.218518E-05 1.703208 0.7099233
v 0.3333744 1.703219 0.7099235
v -0.3333829 3.367965 0.4377099
v -0.3333907 4.726572 0.2203987
v -4.119865E-06 4.726583 0.2203989
v 3.602694E-06 3.367976 0.4377101
v -0.333394 0.4626971 0.9312602
v -0.3333724 1.703221 0.7099236
v -1.218518E-05 1.703208 0.7099233
v -7.482408E-06 0.4627081 0.9312603

vn 0.1712646 0.9848633 -0.006603241
vn 0.1712646 0.9848633 -0.006603241
vn 0.1712646 0.9848633 -0.006603241
vn 0.1712646 0.9848633 -0.006603241
vn 0.1889648 0.9819336 -0.007282257
vn 0.1889648 0.9819336 -0.007282257
vn 0.1889648 0.9819336 -0.007282257
vn 0.1889648 0.9819336 -0.007282257
vn 0.1712646 0.9848633 -0.006603241
vn 0.1712646 0.9848633 -0.006603241
vn 0.1712646 0.9848633 -0.006603241
vn 0.1712646 0.9848633 -0.006603241
vn 0.1889648 0.9819336 -0.007282257
vn 0.1889648 0.9819336 -0.007282257
vn 0.1889648 0.9819336 -0.007282257
vn 0.1889648 0.9819336 -0.007282257

vt 0.004650116 0.01269531
vt 0.004650116 0.9624023
vt 1 0.9624023
vt 0.9995117 0.01269531
vt 0.004650116 0.01269531
vt 0.004650116 0.9624023
vt 1 0.9624023
vt 0.9995117 0.01269531
vt 0.004650116 0.01269531
vt 0.9995117 0.01269531
vt 1 0.9624023
vt 0.004650116 0.9624023
vt 0.004650116 0.01269531
vt 0.9995117 0.01269531
vt 1 0.9624023
vt 0.004650116 0.9624023

g Ramp_Arrows.001_35237_147
usemtl Ramp_Arrows.001_35237_147
usemap Ramp_Arrows.001_35237_147
f 1/1/1 3/3/3 2/2/2
f 1/1/1 4/4/4 3/3/3
f 5/5/5 7/7/7 6/6/6
f 5/5/5 8/8/8 7/7/7
f 9/9/9 11/11/11 10/10/10
f 9/9/9 12/12/12 11/11/11
f 13/13/13 15/15/15 14/14/14
f 13/13/13 16/16/16 15/15/15
