#Ramp_Arrows.004_36501_134.obj

v 0.3333689 -0.6792896 0.1086579
v -2.283349E-05 -0.6792895 0.108658
v -2.271481E-05 0.6793015 -0.1086559
v 0.333369 0.6793014 -0.1086559
v -0.3334146 -0.6792895 0.108658
v -0.3334145 0.6793015 -0.1086558
v -2.271481E-05 0.6793015 -0.1086559
v -2.283349E-05 -0.6792895 0.108658

vn 0.3066406 0.9516602 -1.192093E-07
vn 0.3066406 0.9516602 -1.192093E-07
vn 0.3066406 0.9516602 -1.192093E-07
vn 0.3066406 0.9516602 -1.192093E-07
vn 0.3066406 0.9516602 -1.192093E-07
vn 0.3066406 0.9516602 -1.192093E-07
vn 0.3066406 0.9516602 -1.192093E-07
vn 0.3066406 0.9516602 -1.192093E-07

vt 0.004650116 0.01269531
vt 0.004650116 0.9624023
vt 1 0.9624023
vt 0.9995117 0.01269531
vt 0.004650116 0.01269531
vt 0.9995117 0.01269531
vt 1 0.9624023
vt 0.004650116 0.9624023

g Ramp_Arrows.004_36501_134
usemtl Ramp_Arrows.004_36501_134
usemap Ramp_Arrows.004_36501_134
f 1/1/1 3/3/3 2/2/2
f 1/1/1 4/4/4 3/3/3
f 5/5/5 7/7/7 6/6/6
f 5/5/5 8/8/8 7/7/7
