#Ramp_Arrows_38284_118.obj

v 0.3333933 4.019313 0.3279356
v -3.562676E-06 4.019317 0.3279358
v -9.744873E-07 5.377923 0.1106249
v 0.3333946 5.37793 0.1106246
v 0.3333881 1.817607 0.6981394
v -7.463693E-06 1.817601 0.6981396
v 1.188018E-05 3.21078 0.4647094
v 0.3333688 3.210781 0.4647096
v 0.3333839 -0.4730325 1.086538
v -1.29551E-05 -0.4730293 1.086538
v -8.150546E-06 0.7674865 0.8652013
v 0.3333874 0.7674929 0.8652009
v -0.3333605 4.019316 0.3279356
v -0.3333966 5.377917 0.1106253
v -9.744873E-07 5.377923 0.1106249
v -3.562676E-06 4.019317 0.3279358
v -0.3333657 1.817609 0.6981393
v -0.333385 3.210783 0.4647096
v 1.188018E-05 3.21078 0.4647094
v -7.463693E-06 1.817601 0.6981396
v -0.3333699 -0.4730304 1.086538
v -0.3333664 0.767495 0.8652009
v -8.150546E-06 0.7674865 0.8652013
v -1.29551E-05 -0.4730293 1.086538

vn -0.142334 0.9897461 -0.005542755
vn -0.142334 0.9897461 -0.005542755
vn -0.142334 0.9897461 -0.005542755
vn -0.142334 0.9897461 -0.005542755
vn -0.1496582 0.9882813 -0.006546021
vn -0.1496582 0.9882813 -0.006546021
vn -0.1496582 0.9882813 -0.006546021
vn -0.1496582 0.9882813 -0.006546021
vn -0.1599121 0.9868164 -0.007980347
vn -0.1599121 0.9868164 -0.007980347
vn -0.1599121 0.9868164 -0.007980347
vn -0.1599121 0.9868164 -0.007980347
vn -0.142334 0.9897461 -0.005542755
vn -0.142334 0.9897461 -0.005542755
vn -0.142334 0.9897461 -0.005542755
vn -0.142334 0.9897461 -0.005542755
vn -0.1496582 0.9882813 -0.006546021
vn -0.1496582 0.9882813 -0.006546021
vn -0.1496582 0.9882813 -0.006546021
vn -0.1496582 0.9882813 -0.006546021
vn -0.1599121 0.9868164 -0.007980347
vn -0.1599121 0.9868164 -0.007980347
vn -0.1599121 0.9868164 -0.007980347
vn -0.1599121 0.9868164 -0.007980347

vt 0.004650116 0.01269531
vt 0.004650116 0.9624023
vt 1 0.9624023
vt 0.9995117 0.01269531
vt 0.004650116 0.01269531
vt 0.004650116 0.9624023
vt 1 0.9624023
vt 0.9995117 0.01269531
vt 0.004650116 0.01269531
vt 0.004650116 0.9624023
vt 1 0.9624023
vt 0.9995117 0.01269531
vt 0.004650116 0.01269531
vt 0.9995117 0.01269531
vt 1 0.9624023
vt 0.004650116 0.9624023
vt 0.004650116 0.01269531
vt 0.9995117 0.01269531
vt 1 0.9624023
vt 0.004650116 0.9624023
vt 0.004650116 0.01269531
vt 0.9995117 0.01269531
vt 1 0.9624023
vt 0.004650116 0.9624023

g Ramp_Arrows_38284_118
usemtl Ramp_Arrows_38284_118
usemap Ramp_Arrows_38284_118
f 1/1/1 3/3/3 2/2/2
f 1/1/1 4/4/4 3/3/3
f 5/5/5 7/7/7 6/6/6
f 5/5/5 8/8/8 7/7/7
f 9/9/9 11/11/11 10/10/10
f 9/9/9 12/12/12 11/11/11
f 13/13/13 15/15/15 14/14/14
f 13/13/13 16/16/16 15/15/15
f 17/17/17 19/19/19 18/18/18
f 17/17/17 20/20/20 19/19/19
f 21/21/21 23/23/23 22/22/22
f 21/21/21 24/24/24 23/23/23
