#Ramp_Arrows_35978_153.obj

v 0.3333754 4.019326 0.3279345
v -4.423131E-06 4.019332 0.3279345
v 1.084804E-05 5.377929 0.1106234
v 0.3333907 5.377923 0.1106233
v 0.3333864 1.817599 0.6981389
v 6.610748E-06 1.817605 0.6981388
v 8.976761E-06 3.210787 0.4647085
v 0.3333888 3.210782 0.4647085
v 0.333377 -0.4730203 1.086538
v -2.816668E-06 -0.4730147 1.086538
v -1.250554E-05 0.7675031 0.8652009
v 0.3333673 0.7674976 0.8652009
v -0.333381 4.019299 0.3279346
v -0.333369 5.377934 0.1106233
v 1.084804E-05 5.377929 0.1106234
v -4.423131E-06 4.019332 0.3279345
v -0.3333732 1.81761 0.6981388
v -0.3333708 3.210793 0.4647084
v 8.976761E-06 3.210787 0.4647085
v 6.610748E-06 1.817605 0.6981388
v -0.3333794 -0.4730481 1.086538
v -0.3333923 0.7675086 0.8652009
v -1.250554E-05 0.7675031 0.8652009
v -2.816668E-06 -0.4730147 1.086538

vn 0.1573486 0.9873047 0.01305389
vn 0.1573486 0.9873047 0.01305389
vn 0.1573486 0.9873047 0.01305389
vn 0.1573486 0.9873047 0.01305389
vn 0.1645508 0.9858398 0.01365662
vn 0.1645508 0.9858398 0.01365662
vn 0.1645508 0.9858398 0.01365662
vn 0.1645508 0.9858398 0.01365662
vn 0.1749268 0.984375 0.01451874
vn 0.1749268 0.984375 0.01451874
vn 0.1749268 0.984375 0.01451874
vn 0.1749268 0.984375 0.01451874
vn 0.1573486 0.9873047 0.01305389
vn 0.1573486 0.9873047 0.01305389
vn 0.1573486 0.9873047 0.01305389
vn 0.1573486 0.9873047 0.01305389
vn 0.1645508 0.9858398 0.01365662
vn 0.1645508 0.9858398 0.01365662
vn 0.1645508 0.9858398 0.01365662
vn 0.1645508 0.9858398 0.01365662
vn 0.1749268 0.984375 0.01451874
vn 0.1749268 0.984375 0.01451874
vn 0.1749268 0.984375 0.01451874
vn 0.1749268 0.984375 0.01451874

vt 0.004650116 0.01269531
vt 0.004650116 0.9624023
vt 1 0.9624023
vt 0.9995117 0.01269531
vt 0.004650116 0.01269531
vt 0.004650116 0.9624023
vt 1 0.9624023
vt 0.9995117 0.01269531
vt 0.004650116 0.01269531
vt 0.004650116 0.9624023
vt 1 0.9624023
vt 0.9995117 0.01269531
vt 0.004650116 0.01269531
vt 0.9995117 0.01269531
vt 1 0.9624023
vt 0.004650116 0.9624023
vt 0.004650116 0.01269531
vt 0.9995117 0.01269531
vt 1 0.9624023
vt 0.004650116 0.9624023
vt 0.004650116 0.01269531
vt 0.9995117 0.01269531
vt 1 0.9624023
vt 0.004650116 0.9624023

g Ramp_Arrows_35978_153
usemtl Ramp_Arrows_35978_153
usemap Ramp_Arrows_35978_153
f 1/1/1 3/3/3 2/2/2
f 1/1/1 4/4/4 3/3/3
f 5/5/5 7/7/7 6/6/6
f 5/5/5 8/8/8 7/7/7
f 9/9/9 11/11/11 10/10/10
f 9/9/9 12/12/12 11/11/11
f 13/13/13 15/15/15 14/14/14
f 13/13/13 16/16/16 15/15/15
f 17/17/17 19/19/19 18/18/18
f 17/17/17 20/20/20 19/19/19
f 21/21/21 23/23/23 22/22/22
f 21/21/21 24/24/24 23/23/23
