#Ramp_Arrows.003_34114_119.obj

v 0.3334154 0.008740993 -0.05663367
v 2.366232E-05 0.008739814 -0.05663376
v 2.129934E-05 0.6826499 -0.1304062
v 0.3334131 0.682651 -0.130406
v 0.3334178 -0.6754949 0.08402473
v 2.604325E-05 -0.6754961 0.08402464
v -0.3333681 0.00873865 -0.05663395
v -0.3333705 0.6826487 -0.1304063
v 2.129934E-05 0.6826499 -0.1304062
v 2.366232E-05 0.008739814 -0.05663376
v -0.3333657 -0.6754972 0.08402455
v 2.604325E-05 -0.6754961 0.08402464

vn -0.3039551 0.9521484 -8.940697E-07
vn -0.3039551 0.9521484 -8.940697E-07
vn -0.2590332 0.9658203 -7.152557E-07
vn -0.2590332 0.9658203 -7.152557E-07
vn -0.3483887 0.9370117 -1.072884E-06
vn -0.3483887 0.9370117 -1.072884E-06
vn -0.3039551 0.9521484 -8.940697E-07
vn -0.2590332 0.9658203 -7.152557E-07
vn -0.2590332 0.9658203 -7.152557E-07
vn -0.3039551 0.9521484 -8.940697E-07
vn -0.3483887 0.9370117 -1.072884E-06
vn -0.3483887 0.9370117 -1.072884E-06

vt 0.5019531 0.01269531
vt 0.5019531 0.9624023
vt 1 0.9624023
vt 0.9995117 0.01269531
vt 0.004650116 0.01269531
vt 0.004650116 0.9624023
vt 0.5019531 0.01269531
vt 0.9995117 0.01269531
vt 1 0.9624023
vt 0.5019531 0.9624023
vt 0.004650116 0.01269531
vt 0.004650116 0.9624023

g Ramp_Arrows.003_34114_119
usemtl Ramp_Arrows.003_34114_119
usemap Ramp_Arrows.003_34114_119
f 1/1/1 3/3/3 2/2/2
f 1/1/1 4/4/4 3/3/3
f 5/5/5 1/1/1 2/2/2
f 5/5/5 2/2/2 6/6/6
f 7/7/7 9/9/9 8/8/8
f 7/7/7 10/10/10 9/9/9
f 11/11/11 10/10/10 7/7/7
f 11/11/11 12/12/12 10/10/10
