#Ramp_Arrows.004_33795_151.obj

v 0.3333784 -0.6792883 0.1086581
v -1.336793E-05 -0.6792895 0.1086578
v -1.811262E-05 0.6793016 -0.1086561
v 0.3333736 0.6793027 -0.1086558
v -0.3334051 -0.6792906 0.1086577
v -0.3334099 0.6793004 -0.1086562
v -1.811262E-05 0.6793016 -0.1086561
v -1.336793E-05 -0.6792895 0.1086578

vn -0.3066406 0.9516602 -8.940697E-07
vn -0.3066406 0.9516602 -8.940697E-07
vn -0.3066406 0.9516602 -8.940697E-07
vn -0.3066406 0.9516602 -8.940697E-07
vn -0.3066406 0.9516602 -8.940697E-07
vn -0.3066406 0.9516602 -8.940697E-07
vn -0.3066406 0.9516602 -8.940697E-07
vn -0.3066406 0.9516602 -8.940697E-07

vt 0.004650116 0.01269531
vt 0.004650116 0.9624023
vt 1 0.9624023
vt 0.9995117 0.01269531
vt 0.004650116 0.01269531
vt 0.9995117 0.01269531
vt 1 0.9624023
vt 0.004650116 0.9624023

g Ramp_Arrows.004_33795_151
usemtl Ramp_Arrows.004_33795_151
usemap Ramp_Arrows.004_33795_151
f 1/1/1 3/3/3 2/2/2
f 1/1/1 4/4/4 3/3/3
f 5/5/5 7/7/7 6/6/6
f 5/5/5 8/8/8 7/7/7
